<?xml version="1.0" encoding="UTF-8" standalone="no"?>
<!-- Created with Inkscape (http://www.inkscape.org/) -->

<svg
   xmlns:dc="http://purl.org/dc/elements/1.1/"
   xmlns:cc="http://creativecommons.org/ns#"
   xmlns:rdf="http://www.w3.org/1999/02/22-rdf-syntax-ns#"
   xmlns:svg="http://www.w3.org/2000/svg"
   xmlns="http://www.w3.org/2000/svg"
   xmlns:sodipodi="http://sodipodi.sourceforge.net/DTD/sodipodi-0.dtd"
   xmlns:inkscape="http://www.inkscape.org/namespaces/inkscape"
   width="600"
   height="600"
   viewBox="0 0 158.75 158.75"
   version="1.1"
   id="svg3835"
   inkscape:version="0.92.2 (5c3e80d, 2017-08-06)"
   sodipodi:docname="CLN0857.svg">
  <defs
     id="defs3829" />
  <sodipodi:namedview
     id="base"
     pagecolor="#ffffff"
     bordercolor="#666666"
     borderopacity="1.0"
     inkscape:pageopacity="0.0"
     inkscape:pageshadow="2"
     inkscape:zoom="0.7"
     inkscape:cx="239.68001"
     inkscape:cy="487.67264"
     inkscape:document-units="mm"
     inkscape:current-layer="layer1"
     showgrid="false"
     units="px"
     inkscape:window-width="1920"
     inkscape:window-height="1017"
     inkscape:window-x="-8"
     inkscape:window-y="-8"
     inkscape:window-maximized="1" />
  <metadata
     id="metadata3832">
    <rdf:RDF>
      <cc:Work
         rdf:about="">
        <dc:format>image/svg+xml</dc:format>
        <dc:type
           rdf:resource="http://purl.org/dc/dcmitype/StillImage" />
        <dc:title></dc:title>
      </cc:Work>
    </rdf:RDF>
  </metadata>
  <g
     inkscape:label="Layer 1"
     inkscape:groupmode="layer"
     id="layer1"
     transform="translate(0,-138.24998)">
    <path
       inkscape:connector-curvature="0"
       id="path5854-0"
       style="font-style:normal;font-variant:normal;font-weight:normal;font-stretch:normal;font-size:medium;line-height:1.25;font-family:CLNExplore;-inkscape-font-specification:CLNExplore;letter-spacing:0px;word-spacing:0px;fill:#f1a94e;fill-opacity:1;stroke:none;stroke-width:0.87923837"
       d="m 51.875211,234.94944 c 3.44664,-1.51233 7.350417,-3.65769 8.370334,-4.64235 1.055132,-0.87929 1.055132,-1.8992 0.175777,-3.83358 -0.879237,-2.07499 -2.074991,-3.34111 -3.130123,-3.51688 -0.949489,-0.14051 -3.094909,0.42209 -6.119507,1.44189 -0.808868,0.24633 -1.37159,0.49266 -1.441959,0.49266 0,0 0.386827,-0.42211 0.949606,-0.80882 1.266124,-1.01991 2.250827,-2.14536 3.130124,-3.58731 1.019918,-1.68817 1.582639,-2.9543 1.969466,-4.3962 1.195754,-4.39624 0.492646,-10.3047 -1.266123,-10.0585 -0.562604,0.0705 -0.808869,0.31629 -1.688106,2.3212 -1.266123,2.7784 -2.637771,4.39619 -4.607179,5.73262 -1.125442,0.73856 -1.688163,0.87924 -2.110205,0.73856 -0.703402,-0.31687 -0.63315,-1.54749 0.351555,-3.51694 0.703342,-1.61786 1.899155,-3.20044 3.903835,-5.52164 3.657631,-4.22029 4.783014,-6.40081 4.95885,-9.67161 0.07055,-1.44191 -0.246323,-4.07967 -0.808926,-5.41611 -1.582581,-4.4665 -5.662252,-8.47586 -10.128751,-9.98813 -1.441959,-0.5626 -2.321196,-0.63321 -2.743237,-0.31686 -0.562604,0.31686 -0.386827,0.70328 1.125443,3.34105 0.879237,1.37159 1.758474,3.02459 2.07499,3.69272 1.93437,3.9039 2.004681,6.99887 0.316869,9.88273 -0.562604,0.94955 -1.195812,1.51226 -2.07505,1.6881 -1.019917,0.14051 -1.758474,-0.31686 -2.637712,-1.6881 -0.773712,-1.19582 -1.125443,-2.14531 -1.58264,-4.53687 -0.492645,-2.49709 -0.633149,-2.81361 -1.301219,-2.63777 -0.63315,0.1405 -2.21573,3.2708 -2.778452,5.27542 -0.386827,1.82884 -0.492058,2.63777 -0.175777,4.78308 0.351554,1.93437 0.351554,2.07505 1.301279,4.64239 2.391565,6.04914 2.708082,7.98351 1.336434,9.31994 -0.386828,0.4221 -0.562604,0.49264 -1.195754,0.56261 -1.019918,0.17578 -1.899214,-0.21106 -2.778452,-1.09024 -1.055073,-0.98482 -1.441958,-1.93436 -1.688164,-3.93904 -0.316869,-2.39151 -0.140504,-3.83347 0.738616,-6.54155 0.386827,-1.12533 0.633209,-2.14531 0.633209,-2.32114 0,-0.24632 -0.175777,-0.31628 -0.4221,-0.38683 -0.21105,-0.0705 -0.63315,0.14051 -1.758416,0.9495 -3.2708,2.39156 -4.78313,4.2204 -6.04914,7.28009 -0.80892,2.00469 -0.94961,4.29073 -0.63315,6.92839 0.45737,3.517 1.65295,6.26024 3.65763,8.15933 l 0.73856,0.63316 -0.66825,-0.31687 c -0.9496,-0.38683 -3.09485,-0.87924 -4.04445,-0.94961 -1.6178,0 -2.63772,0.63321 -3.76316,2.5674 -1.44196,2.46188 -1.75848,4.04446 -0.80893,5.02922 1.12545,1.19582 2.88392,2.46187 6.0843,4.29073 1.19581,0.73855 1.19581,0.73855 0.9496,0.87929 -0.17577,0.10522 -0.9496,0.49265 -1.68816,0.98471 -3.27075,1.72325 -4.14998,2.39151 -4.39613,2.84869 -0.0705,0.24633 -0.31628,0.73856 -0.45737,1.12545 -0.24632,0.73855 -0.31687,0.80886 -0.10582,2.14536 0.35155,2.07505 0.66825,2.81355 1.864,3.62241 1.19575,0.87931 1.82884,0.94962 3.90383,0.31688 1.82879,-0.56261 3.13013,-1.05513 8.159289,-3.37628 l 3.65769,-1.65294 1.51221,0.63314 c 1.93437,0.87924 4.255566,1.75848 6.893337,2.70809 1.195695,0.38682 2.285983,0.87929 2.461818,0.94955 0.175778,0.17578 0.492647,0.24632 0.633151,0.24632 0.175777,0 0.562603,0.0705 0.808926,0.24632 1.582639,0.56261 3.763155,-0.94955 4.642452,-3.37626 0.386827,-1.19576 0.703284,-2.70809 0.703284,-3.83348 0.07055,-0.77371 0,-1.01991 -0.246323,-1.4068 -0.316281,-0.49205 -1.125443,-1.12538 -1.336492,-1.12538 -0.105819,0 -0.492646,-0.17578 -0.879239,-0.42211 -0.492645,-0.21104 -1.125383,-0.38682 -1.441899,-0.52733 -0.738557,-0.35154 -0.738557,-0.35154 0.949608,-1.05507 z M 25.533236,215.60621 c -0.4221,-1.89922 -0.4221,-3.58738 -0.10523,-5.17002 0.49206,-2.07493 1.93425,-4.81817 3.51689,-6.3305 0.80893,-0.70334 2.250887,-1.89916 2.321198,-1.89916 0.07055,0 0,0.31687 -0.175777,0.70341 -0.844081,2.70808 -0.949611,6.47118 -0.140504,8.72207 0.879237,2.46187 3.024599,4.0796 5.205115,3.90383 0.773653,-0.0705 1.019858,-0.1405 1.582579,-0.56261 2.250887,-1.58264 2.004681,-4.15004 -0.633149,-10.86743 -1.441841,-3.41136 -1.688047,-5.09953 -1.371531,-7.49109 0.246324,-1.51221 0.422101,-2.07499 1.125385,-3.58726 l 0.562604,-1.12544 0.386826,1.653 c 0.879238,3.7631 2.497092,6.0843 4.466499,6.40082 0.879296,0.17577 1.301337,0.0705 1.934369,-0.31687 1.58264,-0.80893 2.883918,-3.20044 3.130123,-5.73262 0.140504,-1.3014 -0.175776,-3.62254 -0.668246,-5.06444 -0.562604,-1.40686 -1.51227,-3.41148 -2.848762,-5.55678 -0.668188,-1.05513 -1.125444,-1.93437 -1.125444,-2.00468 0.07055,-0.17578 2.14542,0.63315 3.094969,1.19575 3.200433,1.75847 5.908515,4.64233 7.209794,7.80761 0.63315,1.44196 1.125443,4.81823 0.949548,6.26019 -0.31628,2.39157 -1.371588,4.4665 -3.903835,7.42079 -2.954229,3.51688 -3.446581,4.07966 -4.009303,5.02921 -1.336492,2.3212 -1.828844,3.83353 -1.653008,5.02922 0.140504,0.94962 0.31628,1.37165 1.019918,1.68817 0.808927,0.38683 1.758534,0.0705 3.341114,-0.87924 2.250886,-1.4419 3.516951,-3.05975 4.818228,-5.83815 l 0.773772,-1.75841 0.175778,0.49264 c 0.31628,0.84402 0.562604,2.84871 0.492645,4.14999 -0.105234,3.2708 -1.125442,6.29534 -3.305959,9.10895 -0.879179,1.19575 -2.532188,2.70802 -4.466498,3.83346 -1.336434,0.77372 -2.778453,1.65296 -2.532247,1.33643 0.07055,-0.14049 0.773771,-0.9496 1.582639,-1.75847 0.808928,-0.80893 1.93437,-2.21567 2.461878,-2.95422 1.863999,-2.21568 2.250885,-4.07973 1.125442,-4.29073 -0.246323,-0.10522 -0.773713,0.14051 -2.708082,1.09023 -2.461877,1.19581 -2.95417,1.37165 -3.516891,1.12544 -0.492646,-0.24632 -0.808927,-0.7034 -1.441959,-2.3212 -0.703402,-1.89909 -0.808927,-2.00467 -1.266124,-1.89909 -0.492646,0.0705 -0.492646,0.14051 -1.441959,2.14531 -0.949606,2.07498 -1.688163,3.13011 -2.250827,3.20049 -1.336434,0.1405 -3.517008,-0.8793 -6.541488,-3.2708 -1.1255,-0.87931 -2.07505,-1.61786 -2.21573,-1.51233 -0.35156,0.0705 -0.5626,0.45737 -0.49265,0.87924 0.0705,0.77371 1.01998,4.04451 1.44202,5.02927 0.24632,0.63315 0.63315,1.4419 0.87924,1.82879 l 0.386825,0.80887 -0.949605,-0.80887 c -2.25089,-1.75842 -3.51701,-4.00931 -4.22041,-7.84283 z m 16.670363,11.7466 c -0.386828,0.31628 -1.195754,0.80886 -1.899156,1.12539 -0.808927,0.31627 -1.371648,0.5626 -1.441959,0.5626 -0.4221,0.0705 -5.662311,-3.69284 -6.647073,-4.71277 -0.949549,-1.12543 -1.652951,-2.70802 -2.461875,-5.76783 l -0.17578,-0.56261 1.758416,1.30129 c 2.637772,2.00462 4.466558,2.70802 6.084411,2.63771 0.879179,-0.0705 1.019859,-0.17578 1.371532,-0.49265 0.52733,-0.45737 1.336492,-1.82878 1.899154,-3.09491 0.246323,-0.5626 0.492647,-0.87924 0.492647,-0.80893 0.07055,0.0705 0.31628,0.7034 0.633208,1.26613 1.195812,2.49697 2.215672,2.70802 5.591941,0.9496 1.019977,-0.52733 1.899214,-0.9496 2.00468,-0.9496 0.386828,0.24633 -5.134803,6.78769 -7.209735,8.54623 z m -18.534363,5.20506 c -1.58258,-1.05507 -3.41142,-2.49709 -3.65763,-2.95423 -0.17577,-0.24633 0.0705,-1.51227 0.24633,-1.51227 0.0705,0 1.09023,0.38683 2.46187,0.87923 3.7631,1.44191 7.35042,2.63766 7.59663,2.46182 0.316276,-0.14049 0.386823,-0.63315 0.140499,-0.87924 -0.140499,-0.0705 -1.336429,-0.5626 -2.848699,-1.01985 -2.00468,-0.66824 -6.57677,-2.3212 -6.96365,-2.49704 0,0 0.24632,-0.45737 0.5626,-0.9496 0.80887,-1.37165 1.26612,-1.75848 2.21567,-1.75848 2.32114,-0.17578 7.350419,1.82879 12.555533,5.02928 l 1.58264,0.9496 -0.703402,0.31629 c -2.075049,1.05513 -6.541551,3.27075 -7.596621,3.7631 -0.63315,0.38683 -1.26612,0.63314 -1.33649,0.73856 -0.10524,-0.10523 -2.39145,-1.3716 -4.25545,-2.56735 z m 0.56261,13.50507 c -0.94961,0.31687 -1.89922,-0.10522 -2.5674,-0.9847 -0.70341,-1.09023 -1.09029,-2.8487 -0.77366,-3.83347 0.70329,-1.96952 2.95417,0.24633 3.51689,3.5169 l 0.24633,1.19581 z m 28.909312,-7.77245 h 0.422099 l 0.140504,0.87924 c 0.246324,2.00468 -0.773712,5.02922 -2.074991,6.01397 -0.703402,0.56262 -1.195753,0.63316 -1.828844,0.38684 -0.703402,-0.24633 -0.703402,-0.38684 -0.562604,-1.68811 0.316281,-2.63771 2.321196,-5.48648 3.903836,-5.592 z m -1.758475,-0.94961 0.31628,0.17578 -0.633149,0.45737 c -0.879297,0.73856 -1.65295,1.6881 -2.215672,2.88392 -0.316281,0.5626 -0.562603,1.12544 -0.562603,1.26613 0,0.24631 -1.758475,-0.31687 -3.516891,-1.19582 -1.195813,-0.5626 -1.617854,-0.5626 -1.51233,0.10522 0,0.38683 0.140505,0.45737 1.195695,0.94955 0.633209,0.31687 1.653009,0.7034 2.321256,0.9496 0.63315,0.24633 1.195754,0.38684 1.195754,0.38684 0,0 0,0.35155 -0.105235,0.66818 l -0.07054,0.63315 -2.461818,-0.9496 c -3.130124,-1.23091 -6.541608,-2.63772 -6.47118,-2.81355 0.07054,-0.0705 0.316869,-0.24633 0.562604,-0.31629 0.316869,-0.17578 2.391507,-1.12544 4.712821,-2.32113 2.321079,-1.12545 4.290604,-2.07505 4.46644,-2.07505 0.316281,0.24632 1.266123,0.5626 2.778334,1.19574 z m -1.336434,-2.88386 c -1.688106,0.73856 -4.712704,2.18058 -6.787695,3.20038 -4.396188,2.25094 -5.029279,2.49709 -10.726687,5.02934 -2.391561,1.12543 -4.923811,2.25076 -5.591941,2.49696 l -1.19581,0.38684 -0.31628,-1.1957 c -0.14051,-0.63321 -0.38683,-1.58263 -0.56261,-2.00468 -0.1405,-0.38683 -0.21105,-0.77377 -0.21105,-0.77377 0.0705,-0.10522 1.82879,-0.98476 3.90378,-2.11015 4.079731,-2.07505 9.108951,-4.36103 13.891965,-6.36571 1.758534,-0.73856 2.954287,-1.30128 3.024656,-1.44196 0.246324,-0.31628 0.105235,-0.80893 -0.211049,-0.87924 -0.246322,-0.0705 -7.209736,2.88392 -11.359777,4.78307 -1.58258,0.73857 -4.466495,2.14531 -6.471175,3.13008 l -3.58727,1.82884 -1.61785,-1.26613 1.54749,-0.80893 c 4.53686,-2.56728 10.374951,-5.52157 16.98687,-8.61653 6.647014,-3.13006 10.55085,-4.64233 14.243636,-5.52157 1.406803,-0.38683 1.582639,-0.38683 2.075049,-0.17578 0.457373,0.17578 0.703344,0.31687 1.266124,1.30133 0.949548,1.26607 0.949548,1.44191 0.316281,1.65296 -2.567344,0.80893 -5.416106,2.07499 -10.550792,4.57202 -3.200493,1.58264 -8.546228,4.46655 -9.319999,5.02928 -0.738559,0.49205 -0.175778,1.37153 0.52733,0.94949 7.842768,-4.53682 16.142792,-8.54611 19.519061,-9.49572 l 0.879297,-0.24632 0.07054,0.49264 h -0.07054 c 0.07054,0.56261 -0.492646,1.12545 -2.07505,2.1453 -1.617795,1.12544 -3.763097,2.14537 -7.596622,3.90384 z" />
    <path
       style="font-style:normal;font-variant:normal;font-weight:normal;font-stretch:normal;font-size:medium;line-height:1.25;font-family:'Oink Owl';-inkscape-font-specification:'Oink Owl';letter-spacing:0px;word-spacing:0px;fill:#44b3c2;fill-opacity:1;stroke:none;stroke-width:1.55543983"
       d="m 76.331665,204.81832 -8.275391,0.81117 c -0.497937,0.0623 -0.87189,0.49734 -0.87189,1.05718 0.06231,0.49794 0.49735,0.9311 1.05719,0.8689 l 0.497938,-0.0605 c -0.06232,0.93326 -0.125808,2.36363 -0.188123,4.04351 -0.124632,2.67534 -0.246324,5.22581 -0.246324,5.72357 l -0.06349,0.9964 H 67.80713 67.248053 c -1.119916,-0.0623 -2.427721,-0.0605 -2.801026,-0.0605 l -0.683532,0.0605 0.06055,-0.93261 c 0.06231,-0.49794 0.123456,-1.93044 0.185183,-3.29926 0.186947,-2.30203 0.435622,-5.34938 0.497937,-6.40704 l 1.184761,-0.12463 c 0.559664,-0.0623 0.931147,-0.55967 0.86889,-1.05725 -0.06231,-0.49794 -0.496173,-0.87189 -0.993404,-0.87189 h -0.06408 l -8.211606,0.8081 c -0.497937,0.0623 -0.934087,0.49735 -0.871889,1.05719 0.06231,0.49794 0.499112,0.93415 0.996461,0.87189 h 0.06055 l 0.808103,-0.0605 c -0.186358,2.17757 -0.557312,7.46511 -0.868831,13.0025 -0.06231,2.23983 -1.18e-4,12.50609 0.124631,15.92804 0.248674,6.15954 0.373893,8.33706 0.497936,9.20806 l -1.120974,0.12463 c -0.560252,0.0623 -0.934088,0.49736 -0.871889,1.05725 0,0.49794 0.499113,0.93409 0.996461,0.8719 h 0.06055 l 8.214664,-0.80811 c 0.497937,-0.0623 0.931148,-0.49853 0.868891,-0.99647 0,-0.55966 -0.496173,-0.93261 -0.993463,-0.93261 h -0.06408 l -1.057191,0.12463 c 0,-0.49793 -0.06231,-1.05819 -0.12463,-2.05371 -0.31099,-5.78623 -0.559077,-15.92781 -0.434445,-20.34527 0.06231,-1.61762 0.123455,-2.98791 0.185183,-3.05012 h 0.06408 0.185183 l 4.10736,0.0641 v 10.01616 c 0,6.5951 0.06232,10.57772 0.124631,11.63544 0.124632,1.61767 0.311579,3.29561 0.498525,4.22887 l -0.996461,0.12463 c -0.497937,0.0623 -0.934146,0.50029 -0.87189,1.06025 0.06231,0.49794 0.559077,0.93109 1.057249,0.86883 l 8.214662,-0.8081 c 0.559666,-0.0623 0.932618,-0.49735 0.932618,-1.05719 -0.06231,-0.49793 -0.497348,-0.93409 -1.05719,-0.87189 h -0.06408 l -1.181762,0.12463 c -0.186947,-0.87106 -0.37213,-2.92507 -0.434446,-5.53821 -0.31099,-10.45255 -0.24985,-18.35381 0.434446,-30.73515 0.06231,-1.36878 0.06408,-2.11333 0.06408,-2.54883 l 1.740779,-0.18812 c 0.497937,-0.0623 0.93414,-0.49559 0.871889,-0.99341 0,-0.55966 -0.436797,-0.93574 -0.996461,-0.93574 z m 46.644975,0.31275 -8.15088,1.30634 c -0.55966,0.0623 -0.93256,0.55966 -0.8081,1.05724 0.0623,0.55968 0.55907,0.93251 1.05724,0.80811 l 2.23896,-0.30982 c -0.74661,4.72852 -1.24261,10.39096 -1.36707,16.17719 v 2.17517 c -0.0623,1.86653 0.18519,11.94748 0.30982,14.18731 0.12463,2.42649 0.43621,4.85228 0.6228,5.47443 l -1.37012,0.18812 c -0.49793,0.0623 -0.87042,0.5579 -0.8081,1.11798 0.0623,0.49793 0.56084,0.8703 1.12097,0.8081 l 8.15088,-1.30633 c 0.55966,-0.0623 0.8703,-0.55967 0.8081,-1.05725 -0.0623,-0.49794 -0.43503,-0.87189 -0.93267,-0.87189 -0.0623,0 -0.1264,0.001 -0.18812,0.0634 l -0.80811,0.12463 c -0.0623,-0.12463 -0.0605,-0.12463 -0.0605,-0.24925 -0.18636,-1.43097 -0.31275,-2.42597 -0.43738,-4.16809 -0.18695,-2.17758 -0.24691,-5.03998 -0.18519,-5.03998 0.0623,0.0623 0.24809,0.56142 0.55908,1.24554 0.24867,0.62222 0.55966,1.42827 0.68353,1.80158 0.43562,1.1821 1.99204,4.04604 2.67645,5.10375 0.99546,1.49323 1.55337,1.8653 2.54882,1.8653 0.99553,0.18636 1.43192,-0.18695 2.42737,-1.68 1.11992,-1.74206 1.4947,-2.54917 1.4947,-2.92247 0,-0.99553 -1.12021,-1.43332 -1.80457,-0.81117 -0.12463,0.12463 -0.24926,0.25044 -0.24926,0.31275 0,0.12463 -1.11992,1.92679 -1.55542,2.6734 l -0.30981,0.3739 -0.18812,-0.24927 c -0.62216,-0.62215 -2.4252,-3.91959 -3.2962,-6.09722 -0.24868,-0.68435 -0.74609,-1.9908 -1.05719,-2.98627 l -0.56202,-1.74078 1.12103,-0.87189 c 1.61768,-1.24437 2.61496,-2.17764 3.42383,-3.1109 1.86653,-2.30203 2.86076,-4.35568 3.42072,-6.71997 0.31099,-1.18212 0.37213,-4.10554 0.18518,-5.34985 -0.43562,-2.48874 -1.68064,-5.03822 -3.85827,-7.83794 -0.87107,-1.11993 -1.67794,-1.86754 -2.6734,-2.55195 -0.74661,-0.49793 -1.24449,-0.74744 -1.67999,-0.87188 -0.12464,-0.0623 -0.24927,-0.0605 -0.3739,-0.0605 z m -33.633365,0.7261 -8.211606,0.80811 c -0.497937,0.0623 -0.934146,0.49734 -0.871889,1.05718 0,0.49794 0.499113,0.87195 0.996462,0.87195 h 0.06055 l 0.498524,-0.0605 c -0.06231,0.3733 -0.185771,0.74638 -0.309814,1.30633 -0.31099,1.43097 -0.870537,5.41253 -1.05719,7.40351 -0.124631,0.74661 -0.188122,1.98904 -0.312754,2.6734 -0.808809,7.27945 -1.118035,11.38828 -1.242549,18.04553 -0.06231,1.92879 0.06055,8.52295 0.06055,10.01617 h -0.683531 c -0.559665,0 -0.994875,0.43327 -0.932671,0.99346 0,0.49794 0.435034,0.93568 0.932671,0.93568 h 0.06408 l 3.606074,-0.12463 c 0.560253,-0.0623 0.935674,-0.49853 0.935674,-0.99647 0,-0.55966 -0.437972,-0.93268 -0.935674,-0.93268 h -0.06055 -0.747316 v -0.87188 c -0.124632,-2.36423 -0.124632,-9.33152 0,-11.32251 0.06231,-3.17309 0.249262,-5.72374 0.373893,-7.52807 0.18636,-1.99098 0.498524,-5.3519 0.622803,-5.91187 l 0.06055,-0.30982 h 1.245606 c 0.74661,0 1.244018,0.0623 1.306334,0.12464 0.124631,0.18636 0.436797,2.36193 0.871888,6.96606 0.622216,6.284 1.741133,15.68147 2.114438,18.29461 0.06231,0.18636 0.06231,0.30864 0.124632,0.495 l -1.05719,0.12463 c -0.497937,0 -0.934087,0.49853 -0.871889,0.99647 0,0.55967 0.499113,0.93268 0.996461,0.93268 0.06231,0 0.06055,10e-4 0.06055,-0.0605 l 8.214663,-0.80811 c 0.559664,0 0.934146,-0.49853 0.871889,-0.99647 -0.06232,-0.55966 -0.499112,-0.93408 -0.996461,-0.87188 h -0.06408 l -1.120976,0.12463 c -0.43562,-2.42649 -1.492229,-11.82209 -2.114437,-17.85718 -0.186947,-2.23983 -0.434446,-4.72634 -0.559077,-5.53521 -1.119917,-8.71042 -1.431201,-11.01457 -1.804506,-13.00549 -0.18636,-1.24437 -0.435034,-2.61143 -0.559077,-2.92254 v -0.0641 l 0.683531,-0.0605 c 0.559665,-0.0623 0.934087,-0.55967 0.871884,-1.05726 -0.06231,-0.49794 -0.499113,-0.87189 -0.996403,-0.87189 z m 9.940275,0.59847 c -0.622157,0 -0.74761,0.0605 -0.996462,0.18518 -0.43562,0.24867 -0.560839,0.87389 -0.373894,1.30939 0.310991,0.62216 0.49735,0.68206 2.238956,0.74432 0.87106,0 1.55542,0.001 1.55542,0.0641 0.0623,0.0623 0.0623,0.74514 0,1.61621 -0.12463,2.61314 -0.37037,7.77692 -0.495,10.63891 -0.0623,1.49323 -0.1264,3.23618 -0.18812,3.9828 -0.24868,6.03514 -0.30982,14.12241 -0.18519,16.11339 0.18636,2.23984 0.2475,3.54711 0.30982,3.85822 l 0.0641,0.31275 h -0.93268 c -1.430963,0 -3.297968,0.18401 -3.609069,0.37096 -0.186947,0.0623 -0.375069,0.25043 -0.437385,0.31275 -0.06231,0.12463 -0.06055,0.43621 -0.06055,0.6228 0.435622,1.55542 1.928902,0.8703 9.457214,0.80811 0.3733,-0.0623 0.74467,-0.0634 1.11797,-0.0634 3.54641,-0.0623 3.92077,-0.0623 4.23188,-0.24927 0.62216,-0.3733 0.68435,-1.18228 0.12463,-1.67999 l -0.30981,-0.24632 -3.54835,0.0605 v -0.55908 c -0.56025,-5.03962 -0.3733,-15.6164 0.49794,-32.41515 0.0623,-1.67987 0.12639,-2.98792 0.18812,-3.05011 0.0623,-0.0623 1.05543,0.0635 2.2998,0.0635 1.36877,0.12464 2.42743,0.12288 2.55188,0.0605 0.37331,-0.12464 0.68353,-0.56085 0.68353,-0.99647 0,-0.31098 -0.0611,-0.43444 -0.30981,-0.68353 -0.31099,-0.3733 -0.37331,-0.3739 -1.30634,-0.49793 -0.74661,-0.0623 -3.29837,-0.18519 -5.53821,-0.30982 -1.86652,-0.12463 -4.60418,-0.25043 -6.22174,-0.31275 -0.373301,-0.0623 -0.621445,-0.0605 -0.808098,-0.0605 z m -26.560957,0.66537 c -0.06231,0.871 -0.186947,2.48844 -0.249262,4.41717 -0.124631,2.67533 -0.249262,5.2258 -0.249262,5.7235 l -0.06055,0.99647 -0.124631,4.04357 v 8.15088 c 0,6.59505 -0.0016,10.57772 0.06055,11.63537 0.124632,1.43103 0.309815,2.86276 0.434447,3.85823 l -1.679993,0.18518 v -0.0605 c -0.248675,-0.68436 -0.435034,-2.86464 -0.559077,-5.85109 -0.31099,-10.45255 -0.185183,-18.35387 0.437385,-30.73515 0.06231,-0.99547 0.124631,-1.67746 0.124631,-2.17517 z m 48.634837,0.18812 c -0.80881,4.91517 -1.36871,10.82556 -1.43091,16.86071 0,0.62215 -0.0605,1.6152 -0.0605,2.17517 -0.0623,1.86653 0.18577,11.94748 0.30982,14.18731 0.12463,1.92873 0.31099,3.85616 0.49794,4.85162 l -1.74073,0.31275 c 0,-0.18694 -0.002,-0.43621 -0.0641,-0.87188 -0.18694,-1.43097 -0.3733,-2.42602 -0.49793,-4.1681 -0.0623,-1.36876 -0.12463,-2.98726 -0.12463,-3.98278 -0.18636,-5.28848 -0.24868,-10.39042 0,-15.67896 0.18694,-4.04409 0.37389,-6.34543 0.87189,-10.14074 0.12463,-0.8088 0.18695,-1.369 0.24926,-1.80456 v -0.0605 -0.18812 c 0.0623,-0.31099 0.12464,-0.49853 0.12464,-0.62275 l 0.0606,-0.18518 c 0,0 0.0635,-0.18694 0.18812,-0.3739 z m -59.08851,0.495 c -0.186947,1.92871 -0.560252,7.5915 -0.871889,13.43993 -0.124631,2.23983 -0.06055,12.50609 0.06408,15.9281 0.248675,5.47513 0.373305,7.7767 0.497937,8.83441 l -1.804565,0.18812 c 0,-0.43562 -0.06231,-1.1208 -0.124631,-2.42737 -0.622157,-9.8304 -0.685883,-20.2846 0.06055,-29.74169 0.12463,-2.17764 0.375068,-4.78908 0.437385,-6.03338 z m 61.33052,0.0641 c 0.18636,-0.0623 1.30534,0.80869 1.86529,1.43084 1.43103,1.67988 2.98539,4.29119 3.54535,5.90888 1.05772,3.23529 0.68635,6.78217 -1.11798,9.83087 -0.62215,0.99545 -1.92984,2.61336 -2.67645,3.35997 -0.56025,0.49795 -2.98492,2.36353 -3.04712,2.36353 -0.12463,0 -0.0623,-7.58945 0,-9.76709 0.18695,-4.04409 0.37096,-6.34543 0.86889,-10.14074 0.37331,-2.73753 0.43798,-2.98626 0.56202,-2.98626 z m -36.744262,0.16695 2.239011,15.86426 0.06408,1.05719 c 0.124631,1.05772 0.249263,2.3637 0.373893,4.04358 0.622215,6.28393 1.74272,15.68147 2.178217,18.29461 v 0.1217 l -1.679987,0.18812 c -0.373305,-1.67988 -1.556013,-11.88465 -2.178228,-18.23084 -0.18636,-2.23983 -0.436209,-4.72634 -0.622738,-5.53521 -1.119917,-8.71042 -1.429737,-11.01457 -1.74078,-13.00555 -0.186358,-1.11992 -0.373305,-2.11491 -0.497937,-2.61261 z m 17.340722,0.90835 c 0.24867,0 0.87248,0.0623 1.49469,0.12462 0,0.12463 -0.002,0.74809 -0.0641,1.49469 h 0.003 c -0.12463,2.55088 -0.3733,7.71314 -0.49794,10.57514 -0.0623,1.43102 -0.0623,3.17545 -0.12463,3.92206 -0.24867,6.03509 -0.37448,13.99783 -0.18812,15.98882 0.12463,2.23983 0.24926,3.54711 0.24926,3.85821 l 0.0641,0.24927 h -0.87193 c -0.31099,0 -0.62157,0.0605 -0.93268,0.0605 l -0.0641,-0.43445 c -0.55966,-5.10188 -0.31099,-15.80488 0.49794,-32.72808 0.12463,-1.67988 0.18694,-3.04705 0.24926,-3.04705 0,-0.0623 0.0611,-0.0641 0.18518,-0.0641 z m -20.825221,2.88602 c 0,0.0623 0.249263,1.74202 0.622745,4.54181 0.186359,1.49322 0.375069,2.8604 0.437384,3.04705 v 0.31276 l -1.060246,-0.0634 c -0.559665,0 -1.057248,-0.0605 -1.057248,-0.0605 -0.06231,-0.24867 0.994992,-7.83942 1.057248,-7.77717 z"
       id="path1878-2"
       inkscape:connector-curvature="0" />
    <path
       style="font-style:normal;font-variant:normal;font-weight:normal;font-stretch:normal;font-size:medium;line-height:1.25;font-family:'SS- Mocha Latte Bold';-inkscape-font-specification:'SS- Mocha Latte Bold, ';letter-spacing:0px;word-spacing:0px;fill:#5d4c46;fill-opacity:1;stroke:none;stroke-width:1.17016375"
       d="m 99.563029,170.45187 c -0.520863,0 -1.001399,0.14167 -1.446074,0.42209 -3.884964,2.48076 -3.13465,10.29836 -3.041,16.28959 -0.655312,0.14051 -1.12509,0.32687 -2.810138,0.8415 -0.561428,0.23398 -0.841496,0.79453 -0.513222,1.30939 0.281008,0.46796 0.796229,0.6107 1.35795,0.37684 0.327451,-0.0934 1.310979,-0.37566 2.059765,-0.6562 0.374482,4.49342 1.075943,8.33189 2.433424,14.93163 0.09348,0.51499 0.60787,0.84091 1.169592,0.74732 0.842495,-0.1405 0.747317,-0.60605 0.747317,-1.35495 -0.982881,-5.10188 -2.245654,-11.60845 -2.339244,-14.69765 0.702108,-0.14051 2.200504,-0.46972 2.621781,-0.51617 0.56201,-0.0934 0.93573,-0.41916 0.93573,-0.88712 0,-0.42151 -0.32627,-0.79828 -0.841551,-0.93872 -0.327451,-0.047 -1.827199,0.28335 -2.81008,0.47089 -0.420925,-9.31447 0.18871,-15.86943 3.839991,-13.95034 1.31063,0.7021 1.91773,2.15441 1.54325,3.74581 -0.1405,0.60846 0.23398,1.076 0.79594,1.16965 0.60851,0.047 1.02926,-0.18871 1.16965,-0.75038 0.51498,-2.38715 -0.89023,-5.10088 -3.1838,-6.13067 -0.60852,-0.281 -1.16842,-0.42209 -1.689104,-0.42209 z m -33.785272,5.47443 c -0.402112,0.0353 -0.821213,0.1646 -1.242489,0.41033 -4.353038,2.66799 -4.868552,8.37822 -5.149384,14.60355 -0.140504,-1.40422 -0.281008,-5.61711 -0.467955,-13.66787 0,-0.70211 -0.328038,-1.16959 -0.890113,-1.16959 -0.655313,0 -1.124091,0.37389 -1.124091,0.93567 0,10.76549 0.469719,16.38235 2.576221,27.24149 0.281007,1.31057 2.338656,0.98494 2.245066,-0.41915 -0.04703,-0.60852 -0.187536,-1.03203 -0.32804,-1.64055 3.557338,-0.7957 4.494012,-1.35631 6.413156,-3.60302 2.901965,-3.46368 -0.749257,-8.00344 -5.617221,-6.2248 2.527602,-3.13606 4.634868,-6.22515 5.711399,-9.31441 0.655254,-1.96588 0.795582,-3.46439 0.467955,-4.91541 -0.350966,-1.50951 -1.387698,-2.33248 -2.594445,-2.23595 z m 0.08525,2.0871 c 0.104639,0.006 0.207522,0.0235 0.309814,0.0529 1.77864,0.51499 -1.638723,9.22171 -5.383243,13.76199 0,-2.38716 0.234566,-4.44675 0.656195,-6.31898 1.053075,-4.65138 2.847234,-7.57469 4.417176,-7.49774 z m 50.955863,0.16989 c -0.54732,-0.0294 -1.13832,0.11993 -1.74684,0.47089 -3.04241,1.96582 -4.39766,6.45932 -4.67849,10.34428 -0.18694,-2.80837 -0.002,-6.59999 0.23104,-8.61266 0.1405,-0.60846 -0.18518,-1.12339 -0.74738,-1.26377 -1.07659,-0.23399 -1.3573,0.84284 -1.49769,1.82578 -0.37448,4.25939 -0.047,8.6591 0.89012,13.33977 0.56143,2.43389 1.074,6.41309 2.85264,6.41309 0.70211,-0.281 0.93873,-0.65519 0.93873,-1.49768 -0.1405,-1.12339 -0.51675,-3.46229 -0.61063,-4.30483 1.76941,-0.36273 5.5696,-0.59911 8.10531,-0.9114 -0.047,2.30949 0.24868,4.87237 1.00252,7.64659 0.28101,0.84249 0.65596,1.82731 1.35801,2.57622 0.93614,1.07653 2.29327,1.07742 3.22936,-0.0471 1.07659,-1.40422 2.90279,-6.69528 3.41771,-8.8952 0.14051,-0.51498 -0.18636,-1.02921 -0.70181,-1.16959 h -0.047 c -0.60858,-0.0471 -0.88882,0.23397 -1.16965,0.79593 0.0935,1.35736 -2.52672,8.37692 -3.13518,8.33012 -0.98294,-0.047 -1.87447,-5.57047 -1.64049,-10.67242 3.41683,-0.93608 5.24421,-2.52549 6.36759,-5.70834 0.32746,-0.98294 0.23339,-2.01427 -0.23397,-3.04399 -0.7957,-1.49781 -2.57616,-1.91868 -4.07391,-0.93574 -2.14419,1.8416 -3.83224,5.1077 -4.26533,9.4177 -0.84396,-0.006 -2.74524,0.0658 -5.16761,0.2281 3.22966,-3.04241 4.49384,-5.383 4.35339,-9.87643 -0.1405,-2.66798 -1.38763,-4.36285 -3.02883,-4.45062 z m -0.10935,1.8653 c 0.78324,0.0723 1.12403,1.51897 1.12403,3.09873 0.047,4.91469 -3.88296,8.14659 -5.47442,9.45715 -0.23398,-4.49343 0.60628,-9.78419 3.41466,-12.12449 0.36272,-0.32746 0.67465,-0.45562 0.93573,-0.43152 z m -11.21316,0.90833 c -0.56202,0 -1.07483,0.46972 -0.98123,0.98429 0.0941,0.56144 0.65478,1.03116 1.16959,0.98429 0.56201,-0.0934 0.98123,-0.47088 0.98123,-0.93873 0,-0.51497 -0.60798,-1.02985 -1.16959,-1.02985 z m -31.51586,0.1123 c -0.812749,-0.0294 -1.565944,0.44209 -1.916968,1.34884 -0.467955,1.17018 -0.418573,2.29233 0.142855,3.83699 -0.702108,-0.70211 -1.732843,-0.2816 -1.920025,1.16959 -0.561428,4.11901 0.04703,10.06521 1.871407,13.15441 1.076473,1.68506 2.715959,1.73114 3.979732,0.13991 1.825434,-2.2935 2.199034,-8.05052 1.871407,-12.07593 -0.233389,-2.52754 -0.794459,-5.57095 -2.573157,-6.97517 -0.456197,-0.38624 -0.967602,-0.582 -1.455193,-0.59846 z m 13.71942,0.40682 c -0.935615,0.0294 -1.900684,0.67894 -2.427308,1.58581 -1.825494,3.27645 -2.481983,6.36571 -2.71596,10.34427 -0.514985,-3.1828 -0.794877,-6.36366 -0.373894,-9.49972 0.140504,-0.56143 -0.186947,-1.0322 -0.795934,-1.17264 -0.795641,-0.0471 -1.263831,0.42327 -1.263831,1.54631 -0.561427,5.38276 0.748316,12.87051 2.667342,18.44046 0.233977,0.65532 0.561428,1.31245 1.497749,1.31245 1.544604,0 0.749551,-1.96823 0.328039,-5.43192 -0.374481,-4.02535 1.545484,-15.86583 3.183796,-15.11693 0.889232,0.42151 0.841319,17.45923 1.075414,18.72301 0.09348,0.56142 0.56084,0.88834 1.169651,0.84149 0.982882,-0.14051 0.797229,-0.70198 0.750374,-1.49769 -0.748845,-12.91861 -0.142268,-17.6443 -1.546308,-19.37615 -0.439148,-0.5091 -0.987996,-0.71634 -1.549424,-0.69875 z m -13.622243,1.40962 c 0.702109,-0.281 1.682991,2.7132 1.916968,6.03644 -2.246712,-2.99561 -3.087091,-5.56837 -1.916968,-6.03644 z m 52.450553,1.29722 c 0.18636,0.0235 0.37154,0.12581 0.5532,0.31922 1.31062,1.49781 -1.07524,5.38418 -3.83694,6.03944 0.6144,-2.90784 1.97987,-6.53249 3.28403,-6.35842 z m -21.48753,1.48553 c -0.44738,0.047 -0.9479,0.4268 -0.9479,1.09369 -0.6084,5.7104 -0.79564,8.37733 -0.46796,13.94734 0.18695,1.73179 0.27866,3.13654 1.21521,4.11947 0.37449,0.32745 0.98353,0.28042 1.35796,-0.0941 0.281,-0.23397 0.32686,-0.56202 0.13991,-1.02991 -1.31057,-2.10627 -0.98123,-11.74842 -0.18518,-16.89716 0.047,-0.51499 -0.2328,-0.93503 -0.70176,-1.07541 -0.11699,-0.0587 -0.26102,-0.08 -0.41034,-0.0641 z m -32.554892,1.24254 c 0.795699,1.73185 2.152004,3.36869 3.603016,4.30483 0.04703,5.14868 -0.702462,8.56581 -1.825788,8.61261 -1.404217,0.0471 -2.994205,-10.95155 -1.777228,-12.91744 z m -8.600491,6.87799 c 1.035556,0.0412 1.889749,0.35862 2.287569,0.99036 1.497809,2.3403 -0.796992,4.44445 -5.009584,5.94226 -0.514985,-5.19554 -0.560252,-5.28742 -0.653196,-6.27036 1.123384,-0.46796 2.339596,-0.70322 3.375211,-0.66226 z"
       id="path1864-7"
       inkscape:connector-curvature="0" />
    <path
       inkscape:connector-curvature="0"
       style="font-style:normal;font-variant:normal;font-weight:normal;font-stretch:normal;font-size:medium;line-height:1.25;font-family:'Heavenfield Typewriter';-inkscape-font-specification:'Heavenfield Typewriter';letter-spacing:0px;word-spacing:0px;fill:#e45641;fill-opacity:1;stroke:none;stroke-width:0.57502633"
       d="m 31.862311,247.33219 c -0.153203,0 -0.323513,0.0687 -0.507343,0.20635 -0.168546,0.12286 -0.290767,0.25983 -0.367603,0.41328 -0.106526,0.184 -0.175248,0.39858 -0.206583,0.64408 -0.01587,0.22986 -0.05408,0.45384 -0.115402,0.66836 l -0.322044,1.4248 c -0.10734,0.47559 -0.22063,0.96735 -0.34326,1.4734 -0.59804,0.0612 -1.16761,0.11523 -1.7043,0.16108 -0.53668,0.0471 -1.06445,0.0994 -1.58582,0.16108 -0.33744,0.9047 -0.10781,1.38776 0.68962,1.44907 0.33727,0.0471 0.68321,0.0758 1.03594,0.0911 0.35291,0 0.74944,0.0176 1.19393,0.047 -0.0764,0.35273 -0.14515,0.66571 -0.20658,0.94172 -0.0464,0.27631 -0.10595,0.54439 -0.18231,0.80511 -0.27589,0.0176 -0.52345,0.0294 -0.73822,0.047 -0.19947,0.0176 -0.39636,0.0353 -0.59544,0.0471 -0.30641,0.0176 -0.59863,0.06 -0.87494,0.13638 -0.25944,0.0765 -0.4117,0.29748 -0.45873,0.66531 -0.0141,0.1993 0.008,0.36038 0.0698,0.48324 0.0616,0.10758 0.1448,0.19401 0.25214,0.25514 0.12305,0.0618 0.26296,0.10646 0.41623,0.13639 0.1532,0.0294 0.29646,0.0605 0.43444,0.0912 0.18418,0.0294 0.36913,0.0782 0.5529,0.13992 0.19983,0.0471 0.4144,0.0999 0.64405,0.16108 -0.0925,0.49087 -0.17572,0.9499 -0.25214,1.37923 -0.0764,0.41387 -0.15414,0.8375 -0.23086,1.26682 -0.0294,0.1993 -0.0684,0.39625 -0.1154,0.59547 -0.0312,0.1993 -0.0312,0.39918 0,0.59847 0.0306,0.13815 0.0992,0.28395 0.20658,0.43738 0.12275,0.15345 0.24797,0.24574 0.3706,0.27631 0.12275,0.0294 0.27495,8.8e-4 0.45873,-0.0911 0.183,-0.0923 0.29929,-0.1993 0.34632,-0.32216 0.12192,-0.26045 0.20511,-0.52911 0.25214,-0.80506 0.0616,-0.27629 0.13022,-0.55907 0.20658,-0.8506 0.10735,-0.44444 0.206,-0.88306 0.297707,-1.31245 0.107345,-0.44444 0.214635,-0.89793 0.322041,-1.35795 h 1.74379 c -0.06037,0.44444 -0.11399,0.84426 -0.161022,1.19699 -0.04468,0.33744 -0.08977,0.6743 -0.13674,1.01162 -0.02998,0.26044 -0.06844,0.52322 -0.115402,0.78377 -0.02998,0.24515 -0.05973,0.49911 -0.09119,0.75949 -0.01411,0.24514 0.0076,0.46619 0.06984,0.66536 0.07713,0.1993 0.267722,0.31569 0.574185,0.34626 0.306816,0.0294 0.521393,-0.0353 0.644044,-0.20635 0.122279,-0.184 0.214929,-0.39269 0.276422,-0.62279 0.04527,-0.1993 0.08412,-0.39036 0.115401,-0.57437 0.04468,-0.19928 0.08977,-0.39916 0.136742,-0.59846 0.09253,-0.44444 0.184772,-0.88006 0.276481,-1.30939 0.107346,-0.42916 0.199998,-0.82892 0.276423,-1.19693 0.306992,-0.1993 0.629017,-0.30099 0.966068,-0.30099 0.352611,-0.0176 0.69547,-0.0235 1.032921,-0.0235 0.337445,-0.0176 0.653608,-0.0782 0.944804,-0.1852 0.291178,-0.10758 0.529742,-0.36095 0.71392,-0.75948 -0.16884,-0.36801 -0.383418,-0.59764 -0.644049,-0.68964 -0.245559,-0.10758 -0.513869,-0.16696 -0.805065,-0.18225 -0.291531,-0.0176 -0.592745,-0.0294 -0.899232,-0.0471 -0.291413,-0.0176 -0.559723,-0.12287 -0.805064,-0.32216 0.04468,-0.21457 0.09271,-0.43856 0.139681,-0.66837 0.04527,-0.22985 0.08101,-0.42974 0.112462,-0.59846 0.245088,-0.16872 0.507519,-0.2522 0.7838,-0.2522 0.291061,-0.0176 0.574304,-0.0235 0.850626,-0.0235 0.275893,-0.0176 0.520394,-0.0752 0.735194,-0.18224 0.229686,-0.10702 0.399937,-0.34568 0.507343,-0.71393 -0.107345,-0.29159 -0.262666,-0.48206 -0.461781,-0.57436 -0.183949,-0.0923 -0.389708,-0.15461 -0.619735,-0.18519 -0.230274,-0.047 -0.459959,-0.0847 -0.689622,-0.11522 -0.229803,-0.0471 -0.438561,-0.17401 -0.622779,-0.38918 0.02998,-0.26043 0.06284,-0.54673 0.09412,-0.85366 0.04468,-0.32216 0.08977,-0.65003 0.136742,-0.98735 0.04468,-0.32216 0.08977,-0.63814 0.136742,-0.94478 0.06266,-0.32216 0.08554,-0.63509 0.06984,-0.94179 0,-0.13816 -0.0686,-0.29924 -0.206582,-0.48324 -0.12275,-0.18401 -0.221279,-0.27631 -0.297704,-0.27631 -0.168899,0.0294 -0.353788,0.0994 -0.552904,0.20635 -0.183008,0.0917 -0.296293,0.20811 -0.343265,0.34626 -0.123044,0.35274 -0.224335,0.71352 -0.300761,1.08153 -0.06161,0.36801 -0.130216,0.7288 -0.206582,1.08153 -0.07636,0.33744 -0.154142,0.66531 -0.230861,0.98734 -0.07636,0.32216 -0.145149,0.62915 -0.206582,0.92051 -0.352847,0.16873 -0.674878,0.26103 -0.966067,0.27631 -0.27613,0 -0.55943,-0.14638 -0.850626,-0.43739 0.02998,-0.21458 0.06284,-0.44444 0.09412,-0.68964 0.04527,-0.24515 0.08101,-0.49853 0.112462,-0.75949 0.06161,-0.35272 0.123808,-0.68964 0.1853,-1.01162 0.0756,-0.33746 0.138271,-0.67431 0.185301,-1.01169 0.02998,-0.26043 -0.0031,-0.4903 -0.09412,-0.68959 -0.09177,-0.21458 -0.273601,-0.32216 -0.549847,-0.32216 z m 42.871811,1.01462 c -0.08977,-0.003 -0.194236,0.0118 -0.315928,0.0529 -0.179127,0.077 -0.319573,0.16754 -0.422276,0.27043 -0.10264,0.1023 -0.185241,0.2234 -0.249144,0.36449 -0.05056,0.12815 -0.09753,0.26866 -0.136742,0.42209 -0.0247,0.15403 -0.05467,0.32158 -0.09424,0.50147 h -0.0031 c -0.230861,-0.14109 -0.417925,-0.25103 -0.558959,-0.32804 -0.141091,-0.0899 -0.275892,-0.16696 -0.404051,-0.23104 -1.02542,-0.55144 -2.02431,-0.71069 -2.998467,-0.47971 -0.961307,0.23104 -1.775983,0.81963 -2.442535,1.76812 -0.448614,0.64091 -0.78158,1.38393 -0.999495,2.22989 -0.217929,0.83315 -0.328098,1.69481 -0.328098,2.57923 0,0.87158 0.115401,1.72178 0.346322,2.55493 0.230744,0.83315 0.577536,1.56536 1.038983,2.1934 0.346087,0.47441 0.74229,0.86506 1.190892,1.17264 0.448613,0.30747 0.924916,0.52498 1.424798,0.6532 0.512751,0.11523 1.029924,0.14814 1.555444,0.097 0.538383,-0.0641 1.072446,-0.23221 1.597978,-0.50146 1.384451,-0.70499 2.132868,-1.85806 2.248092,-3.46028 0.01234,-0.23045 -0.02586,-0.43739 -0.115401,-0.61669 -0.07713,-0.17989 -0.261196,-0.2816 -0.555961,-0.30688 -0.141091,0.0412 -0.251261,0.0965 -0.328097,0.17284 -0.07683,0.077 -0.139975,0.16755 -0.191415,0.27042 -0.04938,0.10231 -0.08801,0.20988 -0.115401,0.32511 -0.0241,0.11523 -0.05174,0.23104 -0.07901,0.34626 -0.153496,0.61528 -0.414869,1.12162 -0.786833,1.51897 -0.371661,0.38448 -0.883471,0.62962 -1.537208,0.73215 -0.717759,0.10231 -1.367469,0.0471 -1.9443,-0.17284 -0.563838,-0.2181 -1.023281,-0.65566 -1.382277,-1.30939 -0.667594,-1.24331 -1.008994,-2.48427 -1.020752,-3.72759 -0.01234,-1.24331 0.328567,-2.48186 1.020752,-3.71235 0.282008,-0.49971 0.620387,-0.87143 1.017725,-1.11499 0.410166,-0.25632 0.834059,-0.38565 1.269863,-0.38565 0.435797,-0.0118 0.865104,0.10286 1.288104,0.34627 0.422863,0.23044 0.794353,0.58317 1.114944,1.05724 0.166958,0.25632 0.30705,0.53439 0.422275,0.82939 0.115284,0.28218 0.244735,0.5626 0.385828,0.84456 0.115284,0.25631 0.269309,0.43503 0.461781,0.5379 0.192179,0.09 0.467308,0.0294 0.826328,-0.19164 0.07531,-0.0412 0.127571,-0.23634 0.154908,-0.59548 0.03938,-0.35919 0.05761,-0.78817 0.05761,-1.2881 0,-0.4997 -0.0065,-1.0201 -0.01823,-1.55848 v -1.46125 c 0,-0.12815 -0.05761,-0.23515 -0.173191,-0.32509 -0.05761,-0.047 -0.132039,-0.07 -0.221749,-0.0729 z m -28.42324,0.0118 c -0.217928,0 -0.402347,0.0587 -0.55596,0.17284 -0.155613,0.10231 -0.218811,0.27043 -0.191415,0.50147 0.02586,0.11522 0.102641,0.23103 0.23092,0.34626 0.140622,0.1023 0.281185,0.18518 0.422276,0.24927 0.179482,0.077 0.358197,0.12933 0.537737,0.15519 0.17954,0.0118 0.352907,0.0294 0.519512,0.0529 0.06349,0.25632 0.115695,0.63093 0.154907,1.11799 0.04938,0.47442 0.08801,0.99146 0.115402,1.55547 0.02763,0.55144 0.03938,1.10993 0.03938,1.67388 0.01587,0.56378 0.0094,1.06196 -0.01823,1.49775 -0.02586,0.43563 -0.06984,0.77177 -0.133626,1.00252 -0.05114,0.21811 -0.122867,0.26748 -0.212637,0.15167 -0.141092,-0.25631 -0.267546,-0.48735 -0.382771,-0.69264 -0.102349,-0.20517 -0.198881,-0.40858 -0.288591,-0.61369 -0.346087,-0.76907 -0.692921,-1.53978 -1.038989,-2.30886 -0.333272,-0.76906 -0.671639,-1.53672 -1.017708,-2.30579 -0.204994,-0.47441 -0.373129,-0.85965 -0.501288,-1.15442 -0.128158,-0.30746 -0.24932,-0.54967 -0.364546,-0.72915 -0.102348,-0.19224 -0.223454,-0.33568 -0.364545,-0.42562 -0.128159,-0.09 -0.312578,-0.14463 -0.555962,-0.16991 -0.230744,-0.0411 -0.539088,-0.0529 -0.92354,-0.0411 h -1.461241 c -0.26925,-0.0118 -0.486591,-0.006 -0.653174,0.0176 -0.166547,0.0118 -0.301348,0.0529 -0.404051,0.11523 -0.102641,0.0641 -0.188299,0.15519 -0.252143,0.27042 -0.06391,0.11523 -0.118811,0.26925 -0.170134,0.46149 -0.06426,0.21811 -0.03409,0.39153 0.09424,0.51969 0.128158,0.11522 0.301583,0.20341 0.519512,0.26749 0.217751,0.0641 0.440559,0.1023 0.671386,0.11523 0.243324,0.0118 0.444438,0.006 0.598469,-0.0176 0.04938,0.28219 0.08806,0.70588 0.115402,1.26984 0.03938,0.56378 0.06426,1.1968 0.07589,1.9018 0.02764,0.70498 0.03938,1.44254 0.03938,2.2116 0.01587,0.75626 0.01234,1.46613 -0.01587,2.13267 -0.01234,0.66654 -0.03998,1.24995 -0.07901,1.74989 -0.02528,0.48677 -0.06408,0.81458 -0.115401,0.98124 -0.140916,0.10286 -0.339091,0.16579 -0.595438,0.19165 -0.24356,0.0235 -0.474773,0.0641 -0.692649,0.11523 -0.217928,0.0529 -0.396645,0.13697 -0.537736,0.2522 -0.128159,0.11522 -0.152732,0.30511 -0.07589,0.57435 -0.01234,0.09 0.01234,0.16697 0.07589,0.23105 0.0639,0.0529 0.146383,0.0981 0.249086,0.13697 0.10264,0.0235 0.212872,0.0529 0.328096,0.0758 0.115579,0.0118 0.211815,0.0176 0.288593,0.0176 0.576771,0.0235 1.154849,0.0412 1.731638,0.0412 0.576772,0 1.151775,-0.006 1.728604,-0.0176 0.243678,-0.0118 0.441794,-0.0788 0.595444,-0.19459 0.152143,-0.12815 0.242971,-0.32098 0.270367,-0.5773 -0.06426,-0.19223 -0.160433,-0.32392 -0.288592,-0.40094 -0.115577,-0.0899 -0.255728,-0.16108 -0.422277,-0.2128 -0.166546,-0.0529 -0.34003,-0.10343 -0.519511,-0.15521 -0.179128,-0.0641 -0.347263,-0.17107 -0.501287,-0.3251 h -0.0094 v -1.4613 c 0.01234,-0.53849 0.01234,-1.08323 0,-1.63443 0,-0.56378 -0.01528,-1.11427 -0.04233,-1.65266 -0.01588,-0.55143 -0.0094,-1.10992 0.01823,-1.67388 0,-0.16637 -0.0065,-0.37859 -0.01823,-0.63497 0,-0.26925 -0.0065,-0.54437 -0.01823,-0.82633 -0.01234,-0.29452 -0.01823,-0.57554 -0.01823,-0.84455 0,-0.26924 0.0065,-0.50029 0.01823,-0.69264 0.02528,-0.19224 0.06408,-0.32687 0.1154,-0.40388 0.05114,-0.077 0.122869,-0.0658 0.212638,0.0353 0.166548,0.33334 0.312342,0.62228 0.440501,0.86584 0.128158,0.24339 0.243618,0.48853 0.346321,0.73215 0.640869,1.43561 1.271302,2.86381 1.886575,4.28661 0.628059,1.40991 1.260903,2.83271 1.901778,4.26832 0.07683,0.17931 0.153966,0.35802 0.230861,0.53791 0.07683,0.16637 0.178717,0.32628 0.306816,0.47971 0.06391,0.0899 0.165724,0.1752 0.306816,0.2522 0.153672,0.0641 0.283125,0.0834 0.385828,0.0587 0.102348,-0.0235 0.204171,-0.0976 0.306816,-0.2128 0.113696,-0.12817 0.185241,-0.2575 0.212636,-0.38566 0.05114,-0.1793 0.0759,-0.3639 0.0759,-0.55613 0,-0.19224 -0.0065,-0.38507 -0.01823,-0.5773 l -0.115402,-8.65217 c 0,-0.26926 0.02175,-0.53909 0.06084,-0.80805 0.04938,-0.28218 0.08806,-0.5626 0.115402,-0.8446 0.192413,-0.0235 0.351847,-0.0529 0.480005,-0.0758 0.128159,-0.0235 0.249322,-0.0471 0.364546,-0.0588 0.21787,-0.0235 0.404935,-0.0834 0.558959,-0.17343 0.153673,-0.09 0.230921,-0.2522 0.230921,-0.48324 0,-0.23045 -0.08554,-0.39564 -0.252143,-0.49793 -0.153673,-0.10231 -0.338033,-0.15521 -0.55596,-0.15521 -1.204849,-0.0235 -2.404882,-0.0235 -3.596956,0 z m 11.94833,0.55321 c -0.461429,-0.0118 -0.923868,0.0782 -1.385322,0.27042 -0.448613,0.19223 -0.872494,0.48148 -1.269861,0.86583 -0.269134,0.25632 -0.511224,0.54555 -0.729111,0.86584 -0.217869,0.32039 -0.415927,0.64496 -0.595436,0.97817 -0.333154,0.6281 -0.572834,1.26936 -0.713932,1.92308 -0.14262,0.65368 -0.200585,1.27024 -0.17319,1.84708 0,1.01257 0.104819,1.93984 0.309873,2.7858 0.217929,0.84596 0.580945,1.63596 1.093673,2.36658 0.474246,0.67936 1.013775,1.18575 1.616196,1.51896 0.602469,0.33334 1.210586,0.49794 1.825823,0.49794 0.628054,0 1.239204,-0.17342 1.828857,-0.51969 0.602421,-0.34626 1.133479,-0.8633 1.594932,-1.55547 0.17948,-0.25632 0.333624,-0.52616 0.461781,-0.80811 0.140798,-0.28218 0.261903,-0.57083 0.364547,-0.86577 0.409108,-1.10234 0.607195,-2.20303 0.595437,-3.30531 0,-1.10234 -0.222748,-2.20063 -0.671391,-3.29014 -0.179482,-0.43563 -0.399879,-0.85667 -0.656196,-1.26684 -0.256493,-0.41034 -0.550904,-0.7817 -0.884045,-1.11492 -0.384535,-0.39741 -0.79998,-0.69176 -1.248617,-0.88406 -0.448614,-0.20517 -0.902588,-0.30981 -1.364041,-0.30981 z m 69.602898,0.2128 c -0.17954,0.1023 -0.3007,0.20987 -0.36454,0.3251 -0.0624,0.10231 -0.10624,0.21282 -0.13363,0.32804 -0.0159,0.11523 -0.0306,0.23633 -0.0423,0.36449 0,0.12816 -0.0335,0.26278 -0.0972,0.40387 h -0.003 c -0.14074,-0.0529 -0.2649,-0.09 -0.3676,-0.11521 -0.0898,-0.0235 -0.1776,-0.0587 -0.26737,-0.097 -0.61525,-0.3204 -1.23721,-0.49382 -1.86532,-0.51969 -0.62804,-0.0411 -1.2693,-0.006 -1.92302,0.097 -0.46149,0.077 -0.8854,0.22574 -1.26988,0.44385 -0.37172,0.2181 -0.68545,0.48442 -0.94177,0.80505 -0.25626,0.3204 -0.45431,0.68659 -0.59544,1.09675 -0.12692,0.41035 -0.18494,0.85332 -0.17319,1.32756 0.0123,0.51263 0.0762,0.9559 0.19142,1.32761 0.12816,0.35862 0.32086,0.66413 0.57724,0.92051 0.25632,0.24338 0.58389,0.43621 0.98127,0.5773 0.39735,0.12817 0.87902,0.21929 1.44304,0.27043 0.14079,0.0118 0.28118,0.0176 0.42227,0.0176 0.15367,0 0.29941,0.0118 0.4405,0.0411 0.42298,0.077 0.84688,0.15403 1.26988,0.23104 0.4358,0.0641 0.85972,0.15167 1.26988,0.26748 0.46131,0.12817 0.8051,0.3592 1.03593,0.69271 0.24186,0.3204 0.3766,0.72503 0.40406,1.2121 0.10252,1.5125 -0.59651,2.37111 -2.09621,2.57622 -0.84595,0.12815 -1.5944,0.0353 -2.24809,-0.27043 -0.65374,-0.30747 -1.24258,-0.79476 -1.7681,-1.4613 -0.0768,-0.1023 -0.15414,-0.2181 -0.23086,-0.34627 -0.0639,-0.12815 -0.14109,-0.24396 -0.23086,-0.34626 -0.0898,-0.11523 -0.20523,-0.20869 -0.34632,-0.2857 -0.12816,-0.077 -0.29324,-0.11523 -0.49823,-0.11523 -0.26925,0.0118 -0.45103,0.12522 -0.5408,0.34333 -0.0761,0.2181 -0.10594,0.47677 -0.0942,0.77165 0.0123,0.29512 0.0429,0.60851 0.0942,0.94179 0.0512,0.33332 0.0725,0.62227 0.0608,0.86583 -0.0123,0.14109 -0.0182,0.2816 -0.0182,0.4221 0,0.14109 0.0182,0.28101 0.0576,0.4221 0.0512,0.12816 0.13392,0.24926 0.24909,0.36448 0.11528,0.11523 0.28865,0.21164 0.51951,0.28865 0.15397,0.0235 0.26949,-0.004 0.34632,-0.0941 0.0898,-0.077 0.16132,-0.18695 0.21264,-0.32804 0.0506,-0.14109 0.0944,-0.28983 0.13363,-0.44326 0.0511,-0.15403 0.11757,-0.28865 0.19441,-0.40388 0.19241,0.1023 0.37113,0.20753 0.53774,0.30982 0.17948,0.0899 0.3529,0.17753 0.51951,0.26748 1.2946,0.65373 2.6018,0.76931 3.92202,0.34626 0.34603,-0.1023 0.6736,-0.2375 0.98127,-0.40387 0.32028,-0.16637 0.59548,-0.37566 0.82633,-0.63192 0.24338,-0.25631 0.43609,-0.57318 0.57718,-0.94478 0.15479,-0.38448 0.23733,-0.8385 0.24914,-1.36407 0.0259,-0.9613 -0.14761,-1.74289 -0.51951,-2.34529 -0.3589,-0.61529 -0.96162,-1.06925 -1.80759,-1.36407 -0.4358,-0.14109 -0.87894,-0.24574 -1.32758,-0.30981 -0.44862,-0.0641 -0.89723,-0.13286 -1.34583,-0.20988 -0.33339,-0.0641 -0.66635,-0.11106 -0.9995,-0.13698 -0.33338,-0.0235 -0.66635,-0.0834 -0.99947,-0.17342 -0.16661,-0.0529 -0.33169,-0.13404 -0.49823,-0.24926 -0.16696,-0.12816 -0.28242,-0.26279 -0.34633,-0.40388 -0.14232,-0.30746 -0.21916,-0.61286 -0.23086,-0.9205 0,-0.3204 0.0547,-0.62334 0.17014,-0.90528 0.12816,-0.28219 0.30993,-0.52381 0.54073,-0.72915 0.23057,-0.21811 0.50576,-0.38037 0.82632,-0.48325 0.41017,-0.12815 0.83948,-0.19693 1.28811,-0.20987 0.46143,-0.0235 0.89614,0.0235 1.30632,0.15167 0.42298,0.12817 0.80836,0.34862 1.15444,0.6562 0.3462,0.30746 0.62135,0.72309 0.82632,1.2486 0.0898,0.20518 0.18595,0.42798 0.28859,0.67143 0.10235,0.24338 0.27043,0.46383 0.50123,0.65619 0.17948,0.0235 0.31428,0.006 0.40405,-0.0587 0.10188,-0.077 0.17043,-0.16755 0.20964,-0.27043 0.0394,-0.1023 0.0608,-0.21281 0.0608,-0.32804 0.0123,-0.11522 0.0153,-0.20341 0.0153,-0.26748 0.0276,-0.65374 0.0423,-1.3004 0.0423,-1.94125 0.0159,-0.64091 0.009,-1.29058 -0.0182,-1.94431 -0.0123,-0.21811 -0.0955,-0.38271 -0.24909,-0.49793 -0.15385,-0.11523 -0.385,-0.15932 -0.69265,-0.13345 z m -44.196378,0.0176 c -0.23045,0 -0.417867,0.0529 -0.558959,0.1552 -0.128159,0.1023 -0.243619,0.22339 -0.346321,0.36448 -0.09024,0.14111 -0.167017,0.30041 -0.230862,0.48031 -0.06426,0.1793 -0.132861,0.34744 -0.209639,0.50146 -0.102641,0.2181 -0.19359,0.44091 -0.270368,0.67143 -0.07713,0.23045 -0.148674,0.45678 -0.212637,0.67442 l -1.72861,5.93926 c -0.141092,0.48735 -0.275894,0.97418 -0.404053,1.46124 -0.115283,0.47441 -0.244735,0.94208 -0.385826,1.40351 -0.256259,0.10231 -0.49829,0.1987 -0.729111,0.28865 -0.217928,0.0899 -0.435268,0.18636 -0.653161,0.28865 -0.192237,0.67936 0.04409,1.05084 0.71088,1.11492 0.333388,0.0235 0.666371,0.0411 0.999495,0.0411 0.346203,0 0.684583,0.006 1.017725,0.0176 0.192061,0 0.384769,0.0118 0.577242,0.0411 0.204995,0.0118 0.397702,-0.006 0.577183,-0.0587 0.141092,-0.0411 0.289886,-0.0852 0.443558,-0.13638 0.153202,-0.0529 0.249438,-0.18284 0.288591,-0.40094 0.01234,-0.20517 -0.0535,-0.35391 -0.194413,-0.44326 -0.141091,-0.10231 -0.275893,-0.18518 -0.404051,-0.24926 -0.141092,-0.077 -0.300467,-0.12405 -0.480007,-0.1364 -0.166664,-0.0235 -0.378596,-0.0641 -0.634943,-0.11522 0.08977,-0.33333 0.167018,-0.64697 0.230863,-0.94178 0.07713,-0.29454 0.148674,-0.60006 0.212637,-0.92051 0.794705,-0.0529 1.556966,-0.0899 2.287586,-0.11523 0.730621,-0.0235 1.459796,0.0353 2.190387,0.19165 0.06237,0.17931 0.109165,0.3251 0.136742,0.44033 0.03704,0.11522 0.06673,0.23103 0.09412,0.34626 0.02763,0.14109 0.04232,0.28453 0.04232,0.42562 0,0.12817 0.0065,0.25456 0.01823,0.38271 -0.410106,0.17931 -0.732196,0.31982 -0.963033,0.42211 -0.217929,0.1023 -0.363665,0.20752 -0.440502,0.30981 -0.07836,0.09 -0.100001,0.20518 -0.06084,0.34627 0.03821,0.12815 0.109996,0.30687 0.212638,0.5379 0.115282,0.0641 0.351906,0.10815 0.710878,0.13346 0.371719,0.0235 0.770927,0.0411 1.193926,0.0411 0.42304,0 0.824634,-0.0118 1.209104,-0.0411 0.397408,-0.0412 0.681033,-0.0823 0.847592,-0.13346 0.410343,-0.24338 0.50652,-0.49969 0.288591,-0.76859 -0.217457,-0.26867 -0.693602,-0.60317 -1.421764,-0.99952 -0.07713,-0.30747 -0.148676,-0.60505 -0.212638,-0.88706 -0.06426,-0.28218 -0.12757,-0.5626 -0.191415,-0.84455 -0.281771,-1.12796 -0.565425,-2.24248 -0.84759,-3.34482 -0.269252,-1.11515 -0.549847,-2.23813 -0.844559,-3.36604 -0.06391,-0.26924 -0.146382,-0.53909 -0.249086,-0.8081 -0.08977,-0.28219 -0.185947,-0.55732 -0.288592,-0.82633 -0.06426,-0.16637 -0.130509,-0.33157 -0.194413,-0.49852 -0.05115,-0.17931 -0.128159,-0.33921 -0.230861,-0.47972 -0.08977,-0.15403 -0.20523,-0.27806 -0.346322,-0.36743 -0.140739,-0.09 -0.3251,-0.13344 -0.555961,-0.13344 z m 31.157408,0.53791 c -1.20484,0.0235 -2.41029,0.0587 -3.61519,0.097 -1.19202,0.0235 -2.39206,0.0529 -3.59695,0.0941 -0.11528,0 -0.23638,0.006 -0.36454,0.0235 -0.12816,0 -0.24362,0.0176 -0.34632,0.0587 -0.10235,0.0529 -0.20418,0.11994 -0.30682,0.20988 -0.10264,0.077 -0.15491,0.15402 -0.15491,0.23104 0,0.12815 0.0276,0.26337 0.079,0.40387 0.0639,0.1411 0.14639,0.2428 0.24909,0.30687 0.15367,0.10231 0.32704,0.17402 0.51951,0.21282 0.19212,0.0412 0.40411,0.0905 0.63493,0.15521 v 10.14985 c -0.17948,0.0411 -0.33362,0.077 -0.46178,0.11523 -0.11558,0.0235 -0.2311,0.0471 -0.34632,0.0587 -0.23069,0.0411 -0.43721,0.10994 -0.6167,0.2128 -0.16737,0.0899 -0.23063,0.28219 -0.19142,0.57731 0.0382,0.24338 0.14033,0.39446 0.30682,0.45854 0.17948,0.0641 0.37225,0.097 0.57718,0.097 h 8.4972 c 0.30746,0 0.55796,-0.0634 0.75038,-0.19165 0.19047,-0.14109 0.30064,-0.37213 0.32809,-0.69264 0.0768,-0.67936 0.13998,-1.35372 0.19142,-2.02027 0.0643,-0.66653 0.12757,-1.33242 0.19135,-1.99897 0.0259,-0.23044 -0.0123,-0.43445 -0.1154,-0.6137 -0.10282,-0.17989 -0.33932,-0.28158 -0.7109,-0.30686 -0.15396,0.0235 -0.26948,0.11874 -0.34632,0.28571 -0.0764,0.15403 -0.13392,0.36037 -0.17319,0.61668 -0.0241,0.24339 -0.0488,0.51852 -0.0759,0.82634 -0.0123,0.30746 -0.04,0.62133 -0.079,0.94178 -0.0382,0.30746 -0.0933,0.62134 -0.17013,0.94173 -0.0768,0.30746 -0.18701,0.58259 -0.3281,0.82633 -0.87163,0.0235 -1.76878,0.0471 -2.69164,0.0588 -0.91004,0.0118 -1.85115,-0.0176 -2.82532,-0.0941 -0.12739,-0.80751 -0.21293,-1.58363 -0.25214,-2.32707 -0.0259,-0.74343 0.0318,-1.49187 0.17319,-2.24813 0.48706,-0.11521 0.94409,-0.18165 1.36709,-0.19459 0.4358,-0.0118 0.87051,0.0641 1.30633,0.23105 0.037,0.25632 0.0698,0.50675 0.0972,0.75037 0.0253,0.24339 0.0641,0.4803 0.1154,0.71087 0.0247,0.11523 0.0547,0.22574 0.0942,0.32803 0.0382,0.10231 0.0907,0.19048 0.1549,0.2675 0.0643,0.0641 0.14109,0.11639 0.23086,0.15519 0.10235,0.0235 0.22346,0.0235 0.36455,0 0.24338,-0.0529 0.39218,-0.16166 0.44356,-0.32803 0.0511,-0.16637 0.0759,-0.35096 0.0759,-0.55614 0.0159,-0.57671 0.0306,-1.15483 0.0423,-1.73161 0.0159,-0.57671 0.0276,-1.15184 0.0394,-1.72861 0,-0.19224 0.007,-0.38506 0.0182,-0.5773 0.0241,-0.19223 0.009,-0.37977 -0.0423,-0.55908 -0.0382,-0.14109 -0.0963,-0.281 -0.17313,-0.42209 -0.0768,-0.1411 -0.22258,-0.22341 -0.4405,-0.24927 -0.26925,0.0412 -0.42863,0.12639 -0.48001,0.26748 -0.0511,0.12817 -0.10358,0.2575 -0.15491,0.38566 -0.0889,0.24338 -0.15214,0.49382 -0.19141,0.75037 -0.0247,0.24339 -0.0582,0.49382 -0.0972,0.75038 -0.51269,0.077 -0.99981,0.12639 -1.46126,0.15167 -0.46143,0.0118 -0.92928,-0.0641 -1.40355,-0.23103 -0.10341,-0.71776 -0.16138,-1.38371 -0.17314,-1.99899 0,-0.61522 0.0576,-1.29504 0.17314,-2.03847 0.96136,-0.0235 1.8916,-0.0529 2.78885,-0.0941 0.89725,-0.0411 1.78057,-0.0353 2.65215,0.0176 0.16579,0.3204 0.26767,0.67812 0.30688,1.07548 0.0376,0.3974 0.0762,0.77729 0.1154,1.1362 0.0382,0.35861 0.0963,0.65871 0.17313,0.90228 0.0894,0.24338 0.2575,0.37271 0.50129,0.38565 0.37178,-0.0641 0.59457,-0.1993 0.67139,-0.40388 0.0918,-0.20517 0.12457,-0.43621 0.0972,-0.6927 -0.0253,-0.42269 -0.0641,-0.81374 -0.1154,-1.17265 -0.0511,-0.35861 -0.10358,-0.75508 -0.15491,-1.19087 -0.0382,-0.34626 -0.0823,-0.62122 -0.13362,-0.82634 -0.0512,-0.20517 -0.13392,-0.35919 -0.24909,-0.46207 -0.11558,-0.11523 -0.27807,-0.18694 -0.48306,-0.21282 -0.20523,-0.0411 -0.47196,-0.0587 -0.80507,-0.0587 z m -19.017681,0.19166 c -1.051058,0.0118 -2.102346,0.0176 -3.153403,0.0176 -0.217929,0 -0.402289,0.0412 -0.555962,0.13345 -0.154789,0.0899 -0.237386,0.25749 -0.249144,0.50146 -0.01234,0.24338 0.05526,0.41152 0.209639,0.50147 0.153673,0.09 0.341089,0.14461 0.559017,0.16989 0.269368,0.0235 0.544498,0.0589 0.826329,0.097 0.282124,0.0235 0.590416,0.0587 0.92354,0.097 v 3.59391 1.73167 c 0.01587,0.56377 0.0094,1.13355 -0.01823,1.71038 -0.01234,0.28218 -0.01234,0.57083 0,0.86578 0.01234,0.28218 0.01823,0.5626 0.01823,0.84455 0,0.28218 -0.02764,0.56554 -0.07901,0.84761 -0.03822,0.28218 -0.126336,0.5626 -0.267369,0.84455 -0.204936,0.0235 -0.40605,0.0529 -0.598471,0.0788 -0.192061,0.0118 -0.37648,0.0529 -0.55596,0.11522 -0.08977,0.0235 -0.180656,0.0941 -0.270368,0.20989 -0.07796,0.1023 -0.121926,0.20457 -0.133625,0.30686 0,0.1023 0.0388,0.20753 0.115402,0.30982 0.07683,0.09 0.154142,0.17754 0.230861,0.26748 0.03822,0.0529 0.09629,0.0899 0.17319,0.11523 0.07713,0.0235 0.145736,0.0411 0.209639,0.0411 h 1.576708 c 0.525508,0 1.051181,-0.0176 1.576702,-0.0587 0.230861,-0.0118 0.409578,-0.1041 0.537735,-0.27042 0.13004,-0.17931 0.145267,-0.42975 0.04232,-0.75038 0.01234,-0.0899 -0.02057,-0.15814 -0.09724,-0.20987 -0.07684,-0.0641 -0.178657,-0.1164 -0.306816,-0.1552 -0.128158,-0.0529 -0.26296,-0.0952 -0.404052,-0.13345 -0.141092,-0.0529 -0.267545,-0.10938 -0.382771,-0.17343 -0.01234,-0.74343 -0.03351,-1.48105 -0.06079,-2.21167 -0.01234,-0.73062 0.03409,-1.4543 0.136742,-2.1721 0.702532,-0.13993 1.341878,-0.15168 1.916974,-0.0353 0.589606,0.1023 1.090564,0.31157 1.500748,0.63185 0.422982,0.32039 0.742084,0.7305 0.960006,1.23037 0.23239,0.48736 0.33733,1.04584 0.30987,1.67395 -0.0123,0.23045 3e-4,0.46736 0.0394,0.71086 0.0511,0.24338 0.11464,0.47501 0.19142,0.69264 0.10235,0.28219 0.25108,0.51322 0.44355,0.69271 0.20488,0.16637 0.42763,0.27395 0.6714,0.32509 0.24356,0.0529 0.49405,0.0471 0.75037,-0.0176 0.25649,-0.077 0.48771,-0.22281 0.69267,-0.44032 0.10235,-0.1023 0.18483,-0.23751 0.24909,-0.40388 0.0784,-0.17931 0.1,-0.33333 0.0608,-0.46149 -0.0512,-0.2181 -0.16684,-0.35273 -0.34632,-0.40388 -0.16655,-0.0529 -0.35932,-0.0411 -0.57725,0.0353 -0.0382,0.0118 -0.0963,0.0529 -0.17313,0.11523 -0.0771,0.0641 -0.15414,0.1164 -0.23086,0.15521 -0.0768,0.0411 -0.13997,0.0587 -0.19141,0.0587 -0.0511,-0.0118 -0.079,-0.0847 -0.079,-0.21281 -0.0388,-0.47443 -0.088,-0.94208 -0.15197,-1.40352 -0.0512,-0.46148 -0.14744,-0.90158 -0.28859,-1.32456 -0.12863,-0.43562 -0.31564,-0.8459 -0.55902,-1.23037 -0.23074,-0.39741 -0.54444,-0.76349 -0.94177,-1.09676 0.23074,-0.16637 0.42886,-0.30688 0.59545,-0.42209 0.16696,-0.11523 0.32633,-0.22576 0.48,-0.32805 0.48689,-0.33332 0.82833,-0.72403 1.02076,-1.17265 0.19201,-0.46149 0.25526,-0.98164 0.19142,-1.55847 -0.0382,-0.39741 -0.14856,-0.76884 -0.3281,-1.11493 -0.17954,-0.3586 -0.41616,-0.6726 -0.71088,-0.94179 -0.28201,-0.26924 -0.62039,-0.48676 -1.01773,-0.65313 -0.397349,-0.16696 -0.835099,-0.26337 -1.309367,-0.28865 -1.051059,-0.0641 -2.107761,-0.0887 -3.171634,-0.0758 z m -37.585741,0.48323 c 0.422924,0 0.838416,0.13463 1.248599,0.40388 0.410283,0.25632 0.781813,0.64174 1.114937,1.15442 0.333448,0.51264 0.597837,1.13474 0.789874,1.86536 0.204994,0.71774 0.306816,1.45231 0.306816,2.20855 -0.03822,0.69218 -0.140327,1.37742 -0.306816,2.05671 -0.153849,0.67936 -0.442793,1.32909 -0.865822,1.9443 -0.333271,0.47443 -0.699339,0.82652 -1.096713,1.05726 -0.39735,0.23044 -0.798915,0.34625 -1.209105,0.34625 -0.410165,0 -0.814782,-0.11581 -1.212155,-0.34625 -0.397174,-0.24339 -0.754835,-0.60424 -1.075426,-1.07854 -0.371601,-0.5385 -0.655172,-1.16029 -0.847592,-1.86529 -0.193236,-0.70498 -0.295058,-1.42027 -0.306816,-2.15089 0,-0.74343 0.08788,-1.46717 0.26731,-2.1721 0.179246,-0.705 0.457432,-1.33544 0.829373,-1.88664 0.346087,-0.51263 0.717606,-0.89499 1.114926,-1.15137 0.410167,-0.25632 0.825611,-0.38565 1.24861,-0.38565 z m 39.542191,0.84156 c 0.602439,0.0176 1.188606,0.12933 1.758987,0.32803 0.358667,0.12817 0.677814,0.32628 0.960004,0.59542 0.20499,0.20517 0.34544,0.43091 0.42227,0.67441 0.0905,0.23104 0.11823,0.46208 0.079,0.6927 -0.0259,0.23045 -0.11681,0.44797 -0.27036,0.65314 -0.1411,0.19224 -0.33915,0.35156 -0.59544,0.47971 -1.294608,0.65372 -2.711987,0.8572 -4.250129,0.61369 -0.102641,-0.70498 -0.151793,-1.36248 -0.151793,-1.97775 0,-0.61522 0.06313,-1.23185 0.191356,-1.84707 0.634491,-0.16049 1.253778,-0.23163 1.8562,-0.21281 z m -14.251113,0.30981 c 0.20517,0.29453 0.411753,0.71328 0.616718,1.2516 0.217869,0.52557 0.410637,1.0813 0.577183,1.67088 0.166547,0.58965 0.29306,1.17307 0.38277,1.7499 0.08854,0.56378 0.127218,1.02644 0.115402,1.38529 -0.55114,0.12815 -1.106912,0.19987 -1.67088,0.21281 -0.564015,0 -1.16131,-0.0912 -1.789368,-0.27044 0.205171,-1.03825 0.455667,-2.04558 0.750379,-3.01977 0.307815,-0.97411 0.646177,-1.96764 1.017707,-2.98021 z m -52.037346,2.58528 h 1.728586 c -0.03116,0.30687 -0.05703,0.59 -0.07296,0.85066 -0.01588,0.26044 -0.0388,0.53791 -0.06984,0.82933 h -1.792409 c 0.02998,-0.2916 0.05973,-0.56849 0.09112,-0.82933 0.04527,-0.2763 0.08412,-0.55907 0.115402,-0.85066 z"
       id="path4457" />
  </g>
</svg>
