<?xml version="1.0" encoding="utf-8"?>
<!-- Generator: Adobe Illustrator 23.0.0, SVG Export Plug-In . SVG Version: 6.00 Build 0)  -->
<svg version="1.1" xmlns="http://www.w3.org/2000/svg" xmlns:xlink="http://www.w3.org/1999/xlink" x="0px" y="0px" width="864px"
	 height="1152px" viewBox="0 0 864 1152" style="enable-background:new 0 0 864 1152;" xml:space="preserve">
<style type="text/css">
	.st0{enable-background:new    ;}
</style>
<g id="Background_xA0_Image_1_">
	
		<image style="overflow:visible;" width="3600" height="4800" id="Background_xA0_Image" xlink:href="34C49DE.jpg"  transform="matrix(0.24 0 0 0.24 0 0)">
	</image>
</g>
<g id="CROSS_1_" class="st0">
	<g id="CROSS">
		<g>
			<path d="M539.159,387.511c-13.762,0.02-75.114,0-75.114,0s0.5-59.507,0-72.444c-0.5-12.936,4.923-71.665,5.365-92.567
				c0.442-20.902-1.26-48.291-2.683-55.004s4.32-21.367,5.365-26.831c1.046-5.464-8.724-21.877-13.413-26.831
				s-15.724,0.579-16.096-5.366c-0.372-5.945-1.087-33.432,0-44.271c1.086-10.839-3.031-14.927-9.389-14.757
				s0.526,14.901,2.682,17.44c2.157,2.539-2.966,22.262-5.365,24.148c-2.399,1.886-5.334-7.779-5.365-18.781
				c-0.032-11.003-8.048,2.683-8.048,2.683l4.024,75.127l-6.707,9.391c0,0,0.452-9.17,2.683-16.099
				c2.231-6.928,1.451-13.328-2.683-20.124c-4.134-6.796-3.966-4.252-2.683-12.074c1.284-7.822-1.284-22.01-5.365-30.856
				c-4.082-8.846-10.279,12.529-14.755,21.465c-4.475,8.936-5.098,10.583-8.048,10.732c-2.95,0.149-0.364,61.354,1.341,73.786
				c1.705,12.431,3.125,19.349,0,24.148c-3.125,4.799,1.742,24.236-1.341,24.148c-3.084-0.088-7.283-2.332-6.707-8.049
				c0.577-5.718,0-22.807,0-22.807s-3.687,12.279-5.365,6.708c-1.678-5.571-2.683-13.416-2.683-13.416s-4.97,23.825-5.365,14.757
				c-0.395-9.069-10.731,32.197-10.731,32.197l1.341,135.497c0,0-66.941-2.63-83.162-4.025c-16.221-1.394-38.211,0.537-65.725,0
				c-18.38-0.359-43.648,1.095-56.335,0c-12.688-1.096-13.207,12.919-1.341,24.148c11.866,11.229,22.473,32.689,13.413,21.465
				c-9.06-11.223-19.086,8.971-32.192,12.074c-13.105,3.102-7.16,12.099,0,17.44c7.16,5.341,19.297,13.239,40.24,13.415
				c20.942,0.177,69.125,2.076,61.701,2.683c-7.425,0.607-33.669,5.586-30.851,6.708c2.818,1.121,14.632,7.324,6.707,8.049
				c-7.926,0.725-6.707,9.391-6.707,9.391s12.943,2.833,18.779,2.683c5.835-0.15,68.471-4.917,104.623-2.683
				c36.152,2.233,28.168,10.732,28.168,10.732l-2.683,224.039c0,0,2.514,90.761,2.683,97.933c0.169,7.173,1.768,8.318,4.024,4.025
				c2.257-4.293-0.321-99.881,1.341-122.081s4.533-7.232,5.365-4.025c0.832,3.208,2.595,152.651,2.682,170.378
				c0.085,17.37,2.004,11.608,4.024,2.683c2.02-8.926,3.958,4.939,4.024,14.757c0.066,9.818,4.024,73.786,4.024,73.786l9.389-17.441
				c0,0-0.029-44.738,1.341-57.687c1.37-12.949,3.114-89.692,2.683-112.691c-0.431-22.998,5.365-18.781,5.365-18.781
				s0.545,102.567,0,105.983s4.531,18.01,4.024,28.173s-3.479,23.22-4.024,36.222c-0.545,13.002,5.029,71.702,8.048,116.715
				c3.019,45.013,29.509,59.028,29.509,59.028l16.096-110.008l14.754-501.741c0,0,36.716,12.359,56.336-1.342
				c5.258-3.672,40.22-2.705,53.653-2.683s16.745-3.422,8.048-5.366s-81.821-1.341-81.821-1.341s66.716-6.918,84.503-6.708
				c17.788,0.209,35.766-3.185,32.192-5.366c-3.574-2.181-6.201-2.07,0-5.366c6.201-3.296,21.426-2.655,32.192-4.025
				c10.766-1.369,15.586-2.456,13.413-8.049c-2.172-5.593-18.229-1.209-29.509-2.683c-11.28-1.474-29.098-5.327-45.605-5.366
				c-16.507-0.039-53.197,1.314-52.312-2.683c0.886-3.997,70.094-6.205,77.797-6.708c7.703-0.503,16.524,0.927,25.485,2.683
				s52.204-6.857,71.09-9.391c18.885-2.534,33.533-38.905,33.533-38.905S577.992,387.453,539.159,387.511z"/>
		</g>
	</g>
</g>
</svg>
