<svg xmlns="http://www.w3.org/2000/svg" width="928" height="1130" viewBox="0 0 928 1130">
<g>
<path d="M 60.78 603.75 C60.63,557.96 60.63,446.36 60.79,355.75 L 61.07 191.00 L 464.29 191.25 L 867.50 191.50 L 867.75 439.25 L 868.00 687.00 L 464.53 687.00 L 61.07 687.00 L 60.78 603.75 ZM 89.65 673.66 C85.15,670.93 80.32,664.20 79.42,659.41 C79.07,657.56 78.95,652.51 79.14,648.19 C79.68,636.33 84.42,629.64 94.50,626.47 C96.16,625.95 95.83,625.61 92.56,624.47 C86.81,622.48 83.80,619.95 81.19,614.94 C76.37,605.70 80.17,593.58 89.54,588.27 C93.19,586.21 94.77,586.03 109.50,586.03 C124.23,586.03 125.81,586.21 129.46,588.27 C131.64,589.51 134.75,592.42 136.39,594.74 C138.98,598.43 139.41,600.05 139.80,607.48 L 140.25 616.00 L 130.24 616.00 L 120.23 616.00 L 119.82 608.88 C119.45,602.36 119.15,601.53 116.19,598.88 C109.88,593.24 100.99,596.19 99.44,604.45 C97.99,612.20 101.05,619.04 106.59,620.43 C108.73,620.97 109.00,621.59 109.00,626.00 C109.00,630.41 108.73,631.03 106.59,631.57 C105.27,631.90 103.13,633.29 101.84,634.67 C99.66,636.99 99.50,637.96 99.50,648.98 C99.50,659.22 99.76,661.07 101.42,662.91 C105.33,667.23 113.18,667.26 117.46,662.98 C119.25,661.20 119.54,659.41 119.85,648.47 L 120.21 636.00 L 131.15 636.00 C147.16,636.00 150.00,633.88 150.00,621.95 L 150.00 616.00 L 155.00 616.00 L 160.00 616.00 L 160.00 623.29 C160.00,628.87 159.47,631.60 157.75,634.98 C154.83,640.70 149.35,645.01 144.12,645.71 L 140.00 646.26 L 140.00 652.66 C140.00,662.38 136.32,669.25 128.50,674.12 C125.54,675.97 126.08,675.99 167.75,676.00 L 210.00 676.00 L 210.00 630.95 L 210.00 585.90 L 234.41 586.20 L 258.82 586.50 L 262.66 589.56 C268.44,594.16 271.00,599.97 271.00,608.50 C271.00,619.72 266.81,626.24 257.57,629.41 L 253.76 630.72 L 256.63 631.44 C265.64,633.69 271.00,641.82 271.00,653.23 C271.00,663.59 266.84,671.30 259.50,674.58 C256.89,675.75 259.69,675.93 281.00,675.95 C303.47,675.98 305.25,675.86 302.50,674.48 C298.17,672.31 293.15,666.26 291.94,661.76 C291.28,659.34 291.00,646.81 291.19,628.52 L 291.50 599.17 L 294.54 594.84 C296.21,592.46 299.36,589.51 301.54,588.27 C305.19,586.21 306.77,586.03 321.50,586.03 C336.23,586.03 337.81,586.21 341.46,588.27 C343.64,589.51 346.79,592.46 348.46,594.84 L 351.50 599.17 L 351.79 629.33 C352.04,654.75 351.84,660.13 350.53,663.57 C348.82,668.05 345.15,672.02 340.50,674.43 C337.68,675.90 338.52,675.99 354.75,675.99 L 372.00 676.00 L 372.00 631.00 L 372.00 586.00 L 395.04 586.00 C416.07,586.00 418.42,586.17 421.98,587.99 C426.35,590.22 430.16,594.81 431.86,599.90 C433.30,604.20 433.41,656.98 431.99,662.09 C430.81,666.33 425.70,672.37 421.50,674.48 C418.76,675.86 420.87,675.99 446.27,675.99 L 474.04 676.00 L 473.77 656.35 L 473.50 636.70 L 468.12 634.95 C461.55,632.81 458.13,630.35 455.50,625.90 C453.74,622.91 453.46,620.32 453.15,604.25 L 452.81 586.00 L 463.15 586.00 L 473.50 586.00 L 473.18 600.25 C472.99,608.63 473.31,616.02 473.96,618.20 C476.26,626.00 484.27,628.41 490.23,623.08 L 493.50 620.17 L 493.82 603.08 L 494.13 586.00 L 504.07 586.00 L 514.00 586.00 L 513.99 602.75 C513.99,611.96 513.53,621.14 512.97,623.15 C511.57,628.20 505.50,633.43 499.14,635.06 L 494.00 636.38 L 494.00 656.19 L 494.00 676.00 L 535.25 675.96 C570.35,675.93 576.05,675.72 573.50,674.60 C568.20,672.26 564.00,665.38 564.00,659.03 C564.00,656.06 564.10,656.00 569.00,656.00 C573.26,656.00 574.00,656.28 574.00,657.92 C574.00,662.98 578.11,666.00 585.00,666.00 C590.78,666.00 594.00,662.65 594.00,656.65 C594.00,652.37 593.52,651.66 580.84,637.36 C573.61,629.19 566.87,620.71 565.86,618.51 C564.71,615.97 564.04,612.11 564.02,607.96 C564.00,600.01 566.68,594.06 572.34,589.56 C576.11,586.55 576.40,586.50 588.84,586.22 C600.47,585.97 601.82,586.13 605.44,588.22 C609.67,590.66 613.65,597.16 614.20,602.50 C614.50,605.47 614.45,605.50 609.56,605.50 C604.84,605.50 604.59,605.36 603.79,602.26 C603.32,600.47 601.83,598.28 600.47,597.39 C597.52,595.46 591.02,595.35 588.09,597.18 C585.47,598.81 583.65,604.14 584.46,607.75 C584.81,609.28 590.63,616.71 597.60,624.50 C613.12,641.87 614.38,644.09 614.43,654.10 C614.47,660.85 614.14,662.25 611.45,666.59 C609.68,669.45 606.79,672.41 604.46,673.72 L 600.50 675.97 L 617.75 675.98 L 635.00 676.00 L 635.00 631.00 L 635.00 586.00 L 645.00 586.00 L 655.00 586.00 L 655.00 606.00 L 655.00 626.00 L 665.00 626.00 L 675.00 626.00 L 675.00 606.00 L 675.00 586.00 L 685.50 586.00 L 696.00 586.00 L 696.00 631.00 L 696.00 676.00 L 712.75 676.00 C729.41,675.99 729.48,675.98 726.50,674.16 C721.98,671.41 717.17,665.45 716.50,661.77 C716.16,659.97 716.03,644.93 716.20,628.34 L 716.50 598.18 L 719.56 594.41 C725.84,586.64 726.19,586.53 745.32,586.20 L 762.50 585.90 L 766.61 588.59 C772.05,592.13 775.73,597.99 776.52,604.36 C776.87,607.19 777.01,621.20 776.83,635.50 L 776.50 661.50 L 773.74 666.20 C772.09,669.01 769.27,671.93 766.74,673.44 L 762.50 675.98 L 779.75 675.99 L 797.00 676.00 L 797.00 631.00 L 797.00 586.00 L 820.39 586.00 L 843.77 586.00 L 848.58 589.25 C851.65,591.32 854.21,594.13 855.67,597.00 L 857.94 601.50 L 857.97 586.25 L 858.00 571.00 L 481.25 570.99 C244.21,570.99 102.32,570.63 98.61,570.02 C90.57,568.71 81.22,564.13 75.64,558.79 L 71.00 554.34 L 71.00 615.17 L 71.00 676.00 L 82.25 675.99 L 93.50 675.99 L 89.65 673.66 ZM 675.00 656.00 L 675.00 636.00 L 665.00 636.00 L 655.00 636.00 L 655.00 656.00 L 655.00 676.00 L 665.00 676.00 L 675.00 676.00 L 675.00 656.00 ZM 857.98 647.75 L 857.96 619.50 L 856.10 623.50 C855.09,625.70 852.96,628.71 851.38,630.20 C846.33,634.93 842.21,636.00 829.03,636.00 L 817.00 636.00 L 817.00 656.00 L 817.00 676.00 L 837.50 676.00 L 858.00 676.00 L 857.98 647.75 ZM 327.76 665.00 C327.91,665.00 328.92,663.54 330.01,661.75 C331.85,658.73 331.99,656.65 332.00,631.90 C332.00,615.50 331.59,604.12 330.93,602.22 C328.56,595.43 319.56,593.72 314.44,599.06 L 311.50 602.13 L 311.19 628.81 C310.98,645.81 311.26,656.82 311.94,659.14 C313.57,664.66 318.68,667.38 324.49,665.81 C326.14,665.36 327.61,665.00 327.76,665.00 ZM 247.31 663.59 C250.66,660.48 251.31,657.72 250.83,648.39 C250.49,641.55 250.17,640.54 247.67,638.39 C245.32,636.37 243.82,636.00 237.99,636.00 L 231.10 636.00 L 230.80 651.00 L 230.50 666.00 L 237.60 666.00 C243.73,666.00 245.07,665.67 247.31,663.59 ZM 409.34 663.39 C410.78,661.95 412.21,659.36 412.53,657.64 C412.85,655.91 412.98,642.65 412.81,628.17 L 412.50 601.83 L 409.23 598.92 C406.29,596.28 405.29,596.00 398.98,596.00 L 392.00 596.00 L 392.00 631.00 L 392.00 666.00 L 399.36 666.00 C405.97,666.00 407.00,665.73 409.34,663.39 ZM 753.41 662.92 L 756.00 659.85 L 756.00 630.85 L 756.00 601.85 L 753.08 598.92 C749.24,595.09 743.42,594.87 739.31,598.41 L 736.50 600.82 L 736.21 630.45 L 735.91 660.07 L 738.88 663.03 C741.29,665.44 742.69,666.00 746.33,666.00 C750.12,666.00 751.23,665.52 753.41,662.92 ZM 247.60 622.60 C250.87,619.33 251.00,618.90 251.00,611.65 C251.00,599.17 248.12,596.00 236.80,596.00 L 230.50 596.00 L 230.72 610.75 C230.84,618.86 230.96,625.61 230.97,625.75 C230.99,625.89 233.97,626.00 237.60,626.00 C243.77,626.00 244.42,625.78 247.60,622.60 ZM 833.92 623.58 C836.83,620.94 838.32,614.58 837.68,607.51 C837.23,602.43 836.68,601.10 834.06,598.76 C831.31,596.30 830.20,596.00 823.98,596.00 L 817.00 596.00 L 817.00 611.11 L 817.00 626.22 L 824.41 625.84 C829.90,625.57 832.36,624.98 833.92,623.58 ZM 118.84 558.25 C120.83,553.73 133.71,514.88 147.01,473.25 L 153.16 454.00 L 207.70 454.00 L 262.23 454.00 L 261.49 451.75 C259.88,446.93 259.82,431.49 261.37,423.98 C264.67,407.98 268.30,401.65 276.61,397.33 C282.96,394.04 283.65,392.38 281.55,385.50 C279.36,378.32 279.58,376.85 283.58,372.18 C287.52,367.58 287.10,367.33 279.00,369.50 C265.16,373.22 221.06,369.90 200.75,363.61 C194.53,361.69 193.00,361.50 193.00,362.63 C193.00,364.84 188.57,366.00 180.09,366.00 C170.74,366.00 164.65,364.30 156.96,359.56 C153.79,357.60 150.93,356.00 150.60,356.00 C150.27,356.00 150.00,357.26 150.00,358.80 C150.00,360.34 148.66,365.40 147.02,370.05 C143.28,380.65 142.85,390.65 146.00,393.50 C147.10,394.50 148.00,395.69 148.00,396.15 C148.00,397.70 143.85,397.03 141.04,395.03 C136.73,391.96 135.62,388.11 136.30,378.48 L 136.90 370.07 L 133.36 369.41 C128.62,368.52 125.43,370.94 121.28,378.57 C116.77,386.87 116.96,388.38 123.00,392.10 C125.75,393.79 128.00,395.42 128.00,395.71 C128.00,396.01 125.39,395.96 122.21,395.60 L 116.42 394.95 L 112.11 407.41 C109.74,414.26 106.92,420.66 105.85,421.64 C104.31,423.03 103.96,424.46 104.20,428.45 L 104.50 433.50 L 100.24 433.81 C95.74,434.13 93.53,432.07 95.87,429.73 C97.47,428.13 97.27,422.47 95.57,421.06 C94.41,420.10 93.80,420.38 92.38,422.54 C90.22,425.83 82.24,451.34 77.05,471.50 C71.94,491.39 70.67,501.64 71.22,518.58 C71.72,533.87 73.36,540.06 78.98,547.81 C84.93,556.03 99.43,562.86 111.12,562.96 L 116.75 563.00 L 118.84 558.25 ZM 218.77 537.25 L 219.04 517.00 L 229.02 517.00 L 239.00 517.00 L 239.00 537.50 L 239.00 558.00 L 249.00 558.00 L 259.00 558.00 L 259.00 520.47 C259.00,480.17 258.83,478.66 253.70,473.17 C248.74,467.85 245.30,467.00 228.70,467.00 C214.52,467.00 212.97,467.18 208.91,469.33 C206.01,470.86 203.47,473.32 201.50,476.50 L 198.50 481.34 L 198.21 519.71 L 197.91 558.07 L 208.21 557.79 L 218.50 557.50 L 218.77 537.25 ZM 329.50 555.41 C331.70,554.26 334.85,551.41 336.50,549.08 L 339.50 544.83 L 339.78 505.92 L 340.07 467.00 L 330.03 467.00 L 320.00 467.00 L 320.00 503.98 L 320.00 540.97 L 317.10 544.21 C314.70,546.90 313.48,547.45 310.00,547.45 C306.52,547.45 305.30,546.90 302.90,544.21 L 300.00 540.97 L 300.00 503.98 L 300.00 467.00 L 289.44 467.00 L 278.89 467.00 L 279.19 504.75 C279.49,541.64 279.55,542.60 281.74,546.69 C284.18,551.25 289.24,555.63 293.68,557.02 C295.23,557.50 303.02,557.81 311.00,557.70 C323.52,557.53 326.05,557.21 329.50,555.41 ZM 391.00 517.50 L 391.00 477.00 L 401.00 477.00 L 411.00 477.00 L 411.00 472.00 L 411.00 467.00 L 380.50 467.00 L 350.00 467.00 L 350.00 472.00 L 350.00 477.00 L 360.00 477.00 L 370.00 477.00 L 370.00 516.83 C370.00,538.74 370.30,556.97 370.67,557.33 C371.03,557.70 375.76,558.00 381.17,558.00 L 391.00 558.00 L 391.00 517.50 ZM 470.69 555.47 C473.86,553.89 476.85,551.38 478.64,548.80 L 481.50 544.68 L 481.79 513.38 C482.06,484.03 481.96,481.84 480.14,478.29 C477.88,473.88 474.84,470.91 470.17,468.55 C467.37,467.13 464.27,466.92 450.59,467.18 C435.33,467.48 434.13,467.65 430.83,469.91 C426.69,472.75 423.33,477.38 421.97,482.10 C420.60,486.88 420.72,537.01 422.12,542.56 C423.54,548.22 429.28,554.68 434.50,556.51 C437.14,557.44 443.10,557.93 452.05,557.96 C464.60,558.00 465.98,557.81 470.69,555.47 ZM 579.28 556.94 C585.04,555.34 589.73,550.65 591.49,544.72 C592.32,541.93 593.00,539.27 593.00,538.82 C593.00,538.37 590.79,538.00 588.08,538.00 C583.39,538.00 583.08,538.17 581.33,541.75 C579.20,546.12 575.21,547.89 567.50,547.89 C559.99,547.89 555.80,546.10 553.73,542.00 C552.14,538.86 551.98,535.66 552.23,510.67 L 552.50 482.83 L 555.77 479.92 C558.79,477.21 559.61,477.00 566.97,477.00 C577.79,477.00 580.14,478.26 582.38,485.25 C582.81,486.61 584.06,487.00 587.97,487.00 C593.51,487.00 593.63,486.81 591.88,480.50 C590.35,474.96 587.51,471.30 582.96,468.98 C579.56,467.24 577.06,467.00 562.79,467.02 C547.77,467.03 546.19,467.21 542.54,469.27 C540.36,470.51 537.21,473.46 535.54,475.84 L 532.50 480.17 L 532.18 509.83 C531.83,542.38 532.13,544.80 537.29,550.67 C542.67,556.81 546.55,557.95 562.00,557.97 C569.42,557.98 577.20,557.52 579.28,556.94 ZM 633.00 537.47 L 633.00 516.93 L 643.25 517.22 L 653.50 517.50 L 653.69 537.50 L 653.87 557.50 L 663.94 557.78 L 674.00 558.07 L 674.00 520.73 L 674.00 483.39 L 671.38 478.13 C669.67,474.70 667.34,471.93 664.70,470.18 C660.79,467.59 660.11,467.49 644.42,467.18 C629.86,466.90 627.78,467.07 624.34,468.84 C619.52,471.31 616.53,474.48 614.55,479.23 C613.24,482.35 613.00,488.85 613.00,520.47 L 613.00 558.00 L 623.00 558.00 L 633.00 558.00 L 633.00 537.47 ZM 714.00 537.50 L 714.00 517.00 L 720.25 517.00 C724.72,517.01 727.43,517.57 729.75,518.99 C731.54,520.08 733.09,521.09 733.19,521.24 C733.30,521.38 733.63,529.60 733.94,539.50 L 734.50 557.50 L 744.75 557.78 L 755.00 558.07 L 755.00 539.44 C755.00,515.59 753.80,512.57 744.00,511.78 L 740.50 511.50 L 744.49 509.50 C751.64,505.91 755.64,497.10 754.72,486.91 C754.15,480.56 752.44,476.73 748.34,472.59 C743.18,467.38 741.02,467.00 716.53,467.00 L 694.00 467.00 L 694.00 512.50 L 694.00 558.00 L 704.00 558.00 L 714.00 558.00 L 714.00 537.50 ZM 826.00 553.03 L 826.00 548.05 L 810.75 547.78 L 795.50 547.50 L 795.22 532.25 L 794.95 517.00 L 805.47 517.00 L 816.00 517.00 L 816.00 512.00 L 816.00 507.00 L 805.50 507.00 L 795.00 507.00 L 795.00 492.00 L 795.00 477.00 L 810.50 477.00 L 826.00 477.00 L 826.00 472.00 L 826.00 467.00 L 800.50 467.00 L 775.00 467.00 L 775.00 512.50 L 775.00 558.00 L 800.50 558.00 L 826.00 558.00 L 826.00 553.03 ZM 79.16 435.10 C82.40,426.08 85.52,416.65 86.08,414.15 C87.83,406.34 94.72,389.92 100.48,379.84 C103.52,374.53 106.00,369.46 106.00,368.58 C106.00,367.70 103.62,365.45 100.71,363.59 C89.80,356.61 90.53,355.00 104.56,355.00 C118.21,355.00 118.84,352.36 105.50,351.08 L 99.50 350.50 L 99.20 346.88 C98.84,342.55 100.30,341.66 105.29,343.20 C109.31,344.43 116.88,343.55 119.61,341.53 C122.55,339.36 119.90,337.46 114.22,337.68 C108.13,337.92 106.14,334.93 109.41,330.45 C110.77,328.59 110.89,328.59 112.81,330.33 C114.63,331.98 115.67,332.04 124.65,331.07 C130.07,330.48 136.52,329.88 139.00,329.75 C143.15,329.52 143.48,329.31 143.22,327.00 C142.80,323.28 140.17,321.39 133.63,320.14 C130.40,319.52 125.77,318.02 123.33,316.81 C117.43,313.86 109.90,305.72 106.08,298.16 L 102.97 292.00 L 86.99 292.00 L 71.00 292.00 L 71.08 374.75 C71.14,433.76 71.46,456.64 72.21,454.50 C72.78,452.85 75.91,444.12 79.16,435.10 ZM 302.25 442.25 C301.86,432.41 302.14,429.13 303.96,422.07 C306.21,413.33 307.97,409.18 311.14,405.12 C314.41,400.92 313.66,400.24 306.75,401.18 C299.16,402.21 292.05,405.56 283.00,412.37 C275.03,418.37 270.43,423.79 269.02,428.87 C267.73,433.51 267.70,448.09 268.98,451.43 L 269.95 454.00 L 286.33 454.00 L 302.71 454.00 L 302.25 442.25 ZM 540.25 452.96 C620.82,452.95 661.00,452.60 661.00,451.93 C661.00,451.37 660.03,449.03 658.84,446.71 C655.52,440.23 655.21,430.12 658.04,420.60 C659.39,416.03 659.95,412.56 659.41,412.05 C657.74,410.45 629.64,402.95 618.00,400.99 C598.51,397.71 538.88,392.34 495.50,389.95 C470.59,388.57 403.92,388.15 395.80,389.32 L 390.09 390.13 L 397.58 398.82 C404.88,407.29 408.20,412.68 409.55,418.25 C409.99,420.06 409.82,421.00 409.05,421.00 C408.41,421.00 403.62,418.49 398.41,415.42 C380.35,404.79 369.50,401.04 356.72,401.01 C343.99,400.99 332.13,406.73 320.46,418.58 C310.60,428.59 308.50,432.78 308.50,442.50 C308.50,455.78 301.64,454.42 364.78,453.65 C394.88,453.28 473.84,452.97 540.25,452.96 ZM 765.41 449.65 C766.25,445.16 764.60,434.05 762.47,429.95 C759.88,424.94 747.19,412.98 739.93,408.72 C730.52,403.19 724.48,401.70 713.44,402.18 C704.96,402.55 703.45,402.94 695.60,406.83 C683.96,412.60 675.47,421.07 670.06,432.30 C665.78,441.21 663.43,449.08 664.35,451.48 C664.86,452.81 671.14,453.00 714.86,453.00 L 764.78 453.00 L 765.41 449.65 ZM 858.00 372.50 L 858.00 292.00 L 513.00 292.00 L 168.00 292.00 L 167.98 294.75 C167.95,298.83 164.72,305.04 160.62,308.95 C158.63,310.84 157.00,313.09 157.00,313.94 C157.00,314.79 159.32,320.94 162.17,327.61 L 167.33 339.74 L 173.73 340.34 C180.79,341.00 189.56,343.47 192.53,345.65 C195.04,347.48 193.55,350.09 189.15,351.55 C187.42,352.13 185.46,353.14 184.80,353.80 C180.35,358.25 219.99,350.13 245.00,341.47 C258.18,336.91 274.42,330.12 297.50,319.52 C326.02,306.43 344.32,300.11 364.50,296.37 C372.43,294.90 379.36,294.52 398.00,294.52 C418.73,294.53 422.91,294.81 433.47,296.92 C444.77,299.17 446.18,299.24 458.47,298.15 C489.76,295.38 517.50,298.00 542.06,306.02 C555.11,310.28 577.09,320.48 589.95,328.23 C606.99,338.49 617.81,346.88 634.00,362.37 C655.11,382.58 651.44,380.69 674.11,383.04 C711.20,386.90 747.57,393.56 766.02,399.87 C790.08,408.11 805.96,418.74 815.10,432.74 C817.79,436.88 820.00,440.65 820.00,441.13 C820.00,441.61 813.96,442.00 806.58,442.00 C793.70,442.00 793.03,441.90 790.17,439.49 C786.61,436.50 779.98,434.00 775.58,434.00 C772.43,434.00 772.40,434.06 771.20,441.02 C770.54,444.88 770.00,449.15 770.00,450.52 L 770.00 453.00 L 814.00 453.00 L 858.00 453.00 L 858.00 372.50 ZM 611.00 390.47 C618.49,388.74 623.00,387.07 623.00,386.03 C623.00,385.09 620.07,382.55 617.39,381.17 C615.66,380.28 614.67,380.53 611.95,382.54 C607.82,385.59 603.20,385.70 599.38,382.84 C593.90,378.72 588.00,372.58 588.00,370.98 C588.00,370.10 589.42,368.33 591.16,367.04 C594.19,364.80 594.24,364.65 592.41,363.27 C585.09,357.76 560.61,347.45 545.62,343.56 C526.04,338.47 492.91,337.32 468.28,340.88 C435.66,345.58 408.98,352.16 405.35,356.38 C403.32,358.74 399.16,373.49 400.23,374.56 C400.47,374.81 426.29,376.35 457.59,377.99 C573.42,384.05 594.55,385.29 596.75,386.11 C598.27,386.68 599.00,387.77 599.00,389.48 C599.00,392.54 601.23,392.73 611.00,390.47 ZM 636.45 371.25 C600.41,336.25 575.93,321.67 539.53,313.54 C516.61,308.41 509.57,307.61 487.00,307.57 C451.41,307.52 428.50,312.48 392.34,328.07 C377.39,334.52 362.82,340.31 352.32,343.97 C347.81,345.54 341.74,348.04 338.82,349.52 C335.89,351.00 331.25,352.89 328.50,353.72 C325.75,354.55 321.40,356.29 318.82,357.59 C316.25,358.89 310.90,361.05 306.93,362.39 L 299.71 364.82 L 305.46 365.54 C314.06,366.61 341.48,365.37 349.76,363.53 C353.75,362.64 367.92,358.55 381.26,354.44 C440.70,336.10 476.63,329.86 513.95,331.40 C547.49,332.79 575.62,342.29 616.00,365.87 C625.87,371.63 639.43,377.97 641.95,377.99 C642.75,377.99 640.27,374.96 636.45,371.25 ZM 139.00 357.96 C139.00,355.41 135.87,355.38 133.58,357.91 C131.94,359.72 131.95,359.87 133.65,360.82 C136.01,362.15 139.00,360.55 139.00,357.96 ZM 252.00 357.05 C259.43,355.94 271.81,353.47 279.50,351.57 C298.41,346.91 306.16,344.19 369.00,320.07 C379.17,316.17 392.23,311.66 398.00,310.06 C412.09,306.14 430.27,302.00 433.37,302.00 C434.75,302.00 436.19,301.50 436.57,300.89 C437.06,300.09 429.58,299.92 409.37,300.27 C385.68,300.68 380.01,301.08 371.61,302.93 C353.07,307.00 334.73,313.55 310.50,324.76 C268.02,344.42 238.84,353.53 209.29,356.36 C196.40,357.60 195.54,358.02 203.00,359.41 C208.54,360.44 239.25,358.96 252.00,357.05 ZM 151.26 345.40 C152.07,344.60 151.02,342.00 149.89,342.00 C149.40,342.00 149.00,342.90 149.00,344.00 C149.00,345.95 150.06,346.61 151.26,345.40 ZM 290.00 256.70 L 290.00 231.52 L 271.98 249.51 L 253.96 267.50 L 236.53 249.50 L 219.10 231.50 L 219.05 256.74 L 219.00 281.97 L 253.75 282.24 C272.86,282.38 288.84,282.36 289.25,282.19 C289.66,282.02 290.00,270.55 290.00,256.70 ZM 673.92 281.69 C672.67,280.75 631.83,244.04 628.25,240.63 L 624.00 236.58 L 624.00 259.27 L 624.00 281.97 L 648.75 282.23 C672.23,282.49 674.90,282.43 673.92,281.69 ZM 748.06 278.37 C746.93,276.26 746.00,272.84 746.00,270.76 L 746.00 267.00 L 751.00 267.00 C755.26,267.00 756.00,267.28 756.00,268.92 C756.00,273.67 760.08,277.00 765.90,277.00 C772.15,277.00 776.00,273.33 776.00,267.39 C776.00,263.52 774.60,261.54 761.22,246.61 C754.38,238.97 748.16,231.23 747.39,229.39 C746.60,227.51 746.00,222.66 746.00,218.23 C746.00,211.25 746.33,209.88 748.98,205.70 L 751.96 201.00 L 738.48 201.00 L 725.00 201.00 L 724.98 211.25 C724.96,219.15 724.52,222.46 723.06,225.68 C720.86,230.52 715.52,234.45 709.25,235.84 L 705.00 236.79 L 705.00 231.39 C705.00,226.48 705.20,226.00 707.25,225.97 C709.94,225.93 712.25,224.30 713.84,221.32 C716.13,217.01 715.40,216.00 710.00,216.00 L 705.00 216.00 L 705.00 208.50 L 705.00 201.00 L 695.00 201.00 L 685.00 201.00 L 685.00 241.49 L 685.00 281.97 L 717.25 282.24 C734.99,282.38 749.64,282.44 749.81,282.36 C749.98,282.28 749.19,280.49 748.06,278.37 ZM 858.00 241.47 L 858.00 201.00 L 824.52 201.00 L 791.03 201.00 L 793.06 204.89 C794.18,207.04 795.35,210.41 795.68,212.39 L 796.26 216.00 L 791.38 215.99 C786.64,215.98 786.45,215.87 784.83,211.99 C780.72,202.22 766.00,205.29 766.00,215.92 C766.00,220.26 766.61,221.13 781.50,237.81 C794.39,252.26 796.01,255.23 795.98,264.41 C795.96,271.39 793.69,278.84 791.10,280.44 C790.50,280.81 790.00,281.43 790.00,281.81 C790.00,282.19 805.30,282.38 824.00,282.22 L 858.00 281.95 L 858.00 241.47 ZM 96.91 277.75 C95.73,275.41 92.35,271.17 89.38,268.31 C84.33,263.45 84.00,262.83 84.01,258.31 C84.03,245.81 97.68,233.70 118.13,228.03 C133.97,223.64 143.83,224.42 149.58,230.52 C152.44,233.55 152.75,234.54 153.23,242.18 C153.69,249.59 154.44,252.14 159.87,264.79 C163.24,272.63 166.00,279.71 166.00,280.53 C166.00,281.78 169.22,282.00 187.50,282.00 L 209.00 282.00 L 209.00 241.50 L 209.00 201.00 L 140.00 201.00 L 71.00 201.00 L 71.00 241.50 L 71.00 282.00 L 85.02 282.00 L 99.04 282.00 L 96.91 277.75 ZM 330.01 248.25 C330.01,228.12 330.43,213.00 331.04,210.78 C331.61,208.74 333.22,205.70 334.63,204.03 L 337.18 201.00 L 323.59 201.00 L 310.00 201.00 L 310.00 241.50 L 310.00 282.00 L 320.00 282.00 L 330.00 282.00 L 330.01 248.25 ZM 371.00 264.50 L 371.00 247.00 L 360.50 247.00 L 350.00 247.00 L 350.00 264.50 L 350.00 282.00 L 360.50 282.00 L 371.00 282.00 L 371.00 264.50 ZM 411.00 241.50 L 411.00 201.00 L 397.33 201.00 L 383.65 201.00 L 385.78 203.26 C390.77,208.58 391.00,210.52 391.00,247.47 L 391.00 282.00 L 401.00 282.00 L 411.00 282.00 L 411.00 241.50 ZM 452.00 269.07 C452.00,255.24 451.41,252.39 447.87,249.10 C446.01,247.36 444.35,247.00 438.31,247.00 L 431.00 247.00 L 431.00 264.50 L 431.00 282.00 L 441.50 282.00 L 452.00 282.00 L 452.00 269.07 ZM 502.00 244.25 L 502.00 206.50 L 492.25 206.50 L 482.50 206.50 L 482.18 203.75 L 481.87 201.00 L 473.26 201.00 L 464.65 201.00 L 466.78 203.26 C475.59,212.64 472.97,233.20 462.27,238.62 L 458.09 240.75 L 462.29 241.31 C465.29,241.71 467.29,242.76 469.25,244.95 L 472.00 248.03 L 472.00 265.02 L 472.00 282.00 L 487.00 282.00 L 502.00 282.00 L 502.00 244.25 ZM 563.00 241.50 L 563.00 201.00 L 553.07 201.00 L 543.13 201.00 L 542.82 203.75 L 542.50 206.50 L 532.75 206.50 L 523.00 206.50 L 523.00 244.25 L 523.00 282.00 L 543.00 282.00 L 563.00 282.00 L 563.00 241.50 ZM 614.00 241.50 L 614.00 201.00 L 598.50 201.00 L 583.00 201.00 L 583.00 241.50 L 583.00 282.00 L 598.50 282.00 L 614.00 282.00 L 614.00 241.50 ZM 673.67 201.34 C673.46,201.13 662.22,201.08 648.68,201.23 L 624.05 201.50 L 648.78 223.71 L 673.50 245.91 L 673.77 223.81 C673.92,211.65 673.87,201.54 673.67,201.34 ZM 293.85 201.75 C293.93,201.34 277.12,201.00 256.50,201.00 C235.88,201.00 219.00,201.30 219.00,201.67 C219.00,202.04 227.44,210.55 237.75,220.58 L 256.50 238.82 L 275.10 220.66 C285.33,210.67 293.77,202.16 293.85,201.75 ZM 370.50 224.33 C370.50,212.84 370.36,212.01 368.09,209.59 C363.03,204.22 354.25,205.77 351.42,212.53 C349.94,216.07 349.37,235.04 350.70,236.37 C351.09,236.75 355.70,236.94 360.95,236.78 L 370.50 236.50 L 370.50 224.33 ZM 445.57 235.54 C449.92,233.72 452.00,229.19 452.00,221.50 C452.00,215.17 450.05,209.63 447.29,208.16 C446.26,207.60 442.29,207.04 438.46,206.90 L 431.50 206.65 L 431.22 220.52 C431.07,228.16 431.17,234.99 431.44,235.70 C432.13,237.49 441.14,237.38 445.57,235.54 ZM 219.00 494.92 C219.00,482.91 219.02,482.83 221.92,479.92 C226.56,475.28 233.96,476.28 237.33,481.99 C238.62,484.16 239.00,487.35 239.00,495.90 L 239.00 507.00 L 229.00 507.00 L 219.00 507.00 L 219.00 494.92 ZM 449.00 547.32 C448.17,547.01 446.26,545.60 444.75,544.19 L 442.00 541.63 L 442.00 512.24 L 442.00 482.85 L 444.92 479.92 C448.12,476.73 452.03,476.15 456.53,478.19 C461.67,480.54 462.00,482.59 462.00,511.89 C462.00,526.73 461.57,540.00 461.04,541.38 C459.51,545.43 452.78,548.74 449.00,547.32 ZM 633.17 494.92 L 633.50 482.83 L 636.77 479.92 C642.74,474.59 650.80,477.02 652.96,484.80 C653.53,486.83 653.99,492.66 653.99,497.75 L 654.00 507.00 L 643.42 507.00 L 632.83 507.00 L 633.17 494.92 ZM 714.00 492.00 L 714.00 477.00 L 720.05 477.00 C726.56,477.00 731.29,478.81 732.97,481.94 C733.54,483.00 734.00,487.76 734.00,492.51 C734.00,500.73 733.86,501.30 731.08,504.08 C728.40,506.76 727.57,507.00 721.08,507.00 L 714.00 507.00 L 714.00 492.00 Z" fill="rgba(0,0,0,1)"/>
</g>
</svg>