<?xml version="1.0" encoding="utf-8"?>
<!-- Generator: Adobe Illustrator 22.1.0, SVG Export Plug-In . SVG Version: 6.00 Build 0)  -->
<svg version="1.1" id="Layer_1" xmlns="http://www.w3.org/2000/svg" xmlns:xlink="http://www.w3.org/1999/xlink" x="0px" y="0px"
	 viewBox="0 0 500 500" style="enable-background:new 0 0 500 500;" xml:space="preserve">
<g>
	<path d="M105,289.2c-11.1-8.4-21.6-11.7-28.8-9c-6.9,2.6-12.5,11.6-15.3,24.6c-0.2,0.8-0.3,1.6-0.5,2.4c-0.3,1.5-0.5,3.2-0.7,4.9
		c-0.2,1.6-0.3,3.2-0.4,4.8c-0.2,3.1-0.2,6.3-0.1,9.5c0,0.8,0.1,1.6,0.1,2.4c0.1,1.5,0.2,3,0.4,4.5c0.2,1.6,0.4,3.2,0.7,4.7
		c0.9,5,2.2,9.6,4,13.8c0.4,0.9,0.7,1.6,1.1,2.4c0.8,1.6,1.6,3.1,2.5,4.5c1.1,1.7,2.2,3.3,3.5,4.8c6.5,7.6,18.6,14.9,39.1,7.1
		c6.9-2.6,11.9-5.9,15.5-9.4c6.8-0.3,15.3,1.8,16,3.8c0.8,2.5-8.9,8.1-1.9,8.7c7,0.6,17.7,0.6,25.2-7.6c7.5-8.3,30.8-4.7,34.4-11.7
		c0,0-8.4,1.2-9.8-3.1c-1.4-4.3,1.2-35.5-14-59.4c-15.3-24-2.5-37.7-12.8-51c0,0,5.5-14.5,3-25c0,0,17.7-16.6,17.5-38.3
		c0,0-8,1.6-17,8l0,0c0,0,1.1-7.1-0.8-10.6c0,0-13.3,7-15.4,19.4c-23.1-5.7-20.4,6.9-29.6,11.2c-5,2.3-4.4,20.9,0,28.5
		c0,0-17.9,8.6-14.3,48.9c0,0,0.3,3-0.7,7C105.6,289.7,105.2,289.4,105,289.2z M62.6,305.2c2.5-0.3,5.2-0.8,8-1.4
		c9.1-1.9,21-5.7,33.3-13.2c0.5,0.4,0.9,0.7,1.4,1.1c-0.1,0.3-0.2,0.6-0.3,0.9c-6.1,3.7-12.1,6.5-17.7,8.7c-6,2.3-11.5,3.8-16.3,4.8
		c-3.2,0.7-6.2,1.2-8.9,1.5C62.3,306.7,62.5,305.9,62.6,305.2z M61.4,312.3c3.5-0.3,7.6-0.9,12-1.9c7.7-1.7,17.6-4.7,27.9-10.2
		c-0.8,2.8,0.6,4.4,5.6,2.2c-5.6,3.2-11,5.8-16.2,7.7c-6,2.3-11.6,3.8-16.5,4.9c-5,1.1-9.4,1.7-13.2,2
		C61.1,315.4,61.3,313.8,61.4,312.3z M60.9,326.3c4.5-0.2,10.5-0.8,17.4-2.3c9.2-2,21.4-5.9,33.8-13.5c0,0.8-0.1,1.7-0.1,2.7
		c-5.8,3.5-11.6,6.2-17,8.3c-6,2.3-11.5,3.8-16.3,4.8c-7.1,1.5-13.2,2.1-17.7,2.3C61,327.8,60.9,327,60.9,326.3z M62.1,337.6
		c-0.3-1.5-0.5-3-0.7-4.6c4.5-0.1,11.5-0.6,19.7-2.3c8.5-1.8,19.5-5.3,30.9-11.9c0,1.6,0.1,3.4,0.2,5.1c-4.7,2.6-9.4,4.7-13.8,6.4
		c-6,2.3-11.6,3.8-16.5,4.9C73.7,336.9,66.8,337.5,62.1,337.6z M67,353.3c-0.4-0.8-0.7-1.5-1-2.3c4.4,0,12.2-0.3,21.8-2.4
		c7.4-1.6,16.8-4.4,26.6-9.5c0.2,0.8,0.4,1.5,0.6,2.2c-3.6,1.8-7.1,3.4-10.5,4.7c-6,2.3-11.5,3.8-16.3,4.8
		C79,352.8,71.6,353.3,67,353.3z M107.8,355c-6,2.3-11.6,3.8-16.5,4.9c-7.5,1.6-14,2.2-18.6,2.4c-1.2-1.4-2.3-2.9-3.3-4.5
		c4.4,0,12-0.4,21.2-2.4c7.3-1.6,16.4-4.4,26.1-9.3c0.7,1.5,1.5,2.8,2.4,3.9C115.1,351.9,111.4,353.6,107.8,355z"/>
	<path d="M439.8,298.3c-0.3-2.1-0.7-4.2-1-6.1c-0.2-1.1-0.4-2.1-0.7-3c-3.9-16.7-11.3-28-20.3-31c-8.6-2.9-20.9,1.2-33.7,11.4
		c-0.8,0.6-1.6,1.3-2.4,1.9c-1.5,1.2-3,2.6-4.5,4c-1.4,1.3-2.8,2.7-4.1,4.2c-2.6,2.8-5.2,5.8-7.5,8.9c-0.6,0.8-1.2,1.6-1.7,2.3
		c-1.1,1.5-2.1,3-3.1,4.6c-1.1,1.7-2.1,3.4-3,5c-0.7,1.3-1.3,2.6-1.9,3.8c-11.6-2.2-19.5,3.2-23.9,8c0.3-1.5,0.5-3,0.7-4.5l1.1-9.6
		c0.1-1.6,0.6-3,0.9-4.6c0.3-1.5,0.7-3,1.2-4.5c0.8-2.8,2-5.4,3.3-7.9c20,4.6,36.3-10.8,36.3-10.8c-14.2-7.2-24.2-3.7-30.5,1.2
		c3.4-5,7.1-9.9,10.4-15.1c3.1-5,5.6-10.5,7.2-16.2c14.8-2.3,21.5-17.2,21.5-17.2c-11.3-0.9-17,4-19.9,8.9c0.3-3.2,0.4-6.5,0.3-9.7
		c0.8-2.2,6.8-20.1-13.8-28.7c0,0-0.9,16.8,10.9,26.9c0.1,5.8-0.1,11.6-1.6,17.1c-1.6,6.1-4.2,11.8-7.7,17.1
		c-0.6,0.9-1.3,1.9-1.9,2.8c1.1-6.3,0.7-18.1-14.9-24.7c0,0-1,18.2,12.4,28c-6,8.3-12.8,16.6-16.2,26.9c0.9-8.1-0.8-21.7-19.4-28.8
		c0,0-0.6,23.6,17.6,35.1c-0.3,1.2-0.6,2.3-0.7,3.5l-1.3,9.7c-0.6,4.3-1.7,8.6-3.3,12.7c-3.2-1.1-6.1-1.3-8.5-0.4
		c-3.8,1.4-6.9,6.1-8.8,12.9c-5.3-28.2-16.5-48.6-16.5-87.6c0-19.6,2.9-119,31.7-119c1.7,0,3.8,0.4,5.8,1.3
		c18.4,7.9,16.7,38.4,40.1,43.8c1.7,0.4,3.8,0.4,5.4,0.4c13.8,0,23-13.4,23-32.6c0-21.7-16.3-35.9-48.8-35.9H200.4
		c-32.6,0-48.8,14.2-48.8,35.9c0,19.2,8.8,32.6,23,32.6c1.7,0,3.8,0,5.4-0.4c23.4-5.4,21.7-35.9,40.1-43.8c2.1-0.8,4.2-1.3,5.8-1.3
		c28.8,0,31.7,99.3,31.7,119c0,28.1-5.9,46.6-11.1,65.2c-2.1-2.5-4.3-4.1-6.8-4.8c-6.5-1.8-15.8,3.1-24.4,12.7
		c-0.6,0.7-1.3,1.5-2,2.3c-1.4,1.7-2.7,3.5-3.9,5.3c-0.5,0.7-1,1.5-1.4,2.2c-3.7,6-6.1,12.2-6.9,17.9c-2.2,14.1,4.9,24.1,19.9,28.2
		c7.4,2,13.8,1.8,19.1-0.5c4.4,14.6,16.9,23.7,34.2,23.7c20.4,0,34.2-12.6,35.7-32.2c0.4,0.7,0.8,1.5,1.2,2.1c0.7,1,1.4,2,2.1,2.9
		c3.9,4.6,11.3,9.1,23.8,4.3c11.8-4.5,14.6-12.1,14.9-17.7c0.1-1.1,0-2.3-0.1-3.6c-0.1-1-0.3-2.1-0.6-3.2c-0.1-0.5-0.3-1-0.4-1.5
		c-0.8-2.7-2-5.4-3.6-8.1c-0.5-0.8-1-1.6-1.5-2.4c-0.5-0.8-1.1-1.6-1.6-2.3c-0.3-0.4-0.6-0.8-0.9-1.1c-1.2-1.5-2.5-3-3.9-4.4
		c-0.7-0.7-1.4-1.3-2.1-2c-0.8-0.7-1.6-1.4-2.3-2c-0.4-0.3-0.8-0.7-1.2-0.9c-1.5-1.2-3-2.2-4.5-3c0.4-1,0.8-2.1,1.1-3.1
		c7.6,1.6,14.6,0.4,20.3-1.8c-0.3,0.9-0.5,1.9-0.8,2.7c-0.5,2.1-0.9,4.2-1.2,6.2c-0.3,2.5-0.5,4.9-0.4,7.2
		c0.3,12.3,5.9,28.7,31.6,37.4c24.3,8.2,38.5-0.1,46.1-8.5c1.6-1.7,3-3.7,4.4-5.8c1.1-1.8,2.2-3.7,3.2-5.7c0.5-0.9,0.9-1.9,1.3-2.9
		c2.2-5.2,3.8-11,4.8-17.3c0.3-1.8,0.6-3.8,0.8-5.8c0.2-1.9,0.3-3.8,0.4-5.7c0-1,0.1-1.9,0.1-2.9c0.1-4,0-8-0.4-11.9
		C440.3,302.3,440.1,300.3,439.8,298.3z M232.9,315.5c0.6-2.2,2.9-3.5,5.1-2.9c2.2,0.6,3.5,2.9,2.9,5.1c-0.6,2.2-2.9,3.5-5.1,2.9
		C233.6,320,232.3,317.7,232.9,315.5z M216.3,318.8c2.1,0.2,4.5-0.2,6.6-2l1.2-0.9l0.7,1.3c0.3,0.5,6.4,11.2,18.1,6.6
		c-0.2,1-0.4,1.9-0.6,2.9c-10.3,3.2-16.8-4.1-18.9-7.1c-2.9,1.9-6.2,2-9,1.4C215,320.3,215.6,319.5,216.3,318.8z M210.5,326.3
		c0.4,0.2,0.9,0.3,1.4,0.5c2.6,0.7,5.9,0.8,8.8-1.6l1.2-0.9l0.7,1.3c0.3,0.5,6.7,11.5,18.7,6.3c-0.2,1-0.3,2-0.5,3
		c-10.7,3.7-17.4-3.8-19.6-6.9c-4,2.5-8.6,1.9-12,0.5C209.5,327.7,210,327,210.5,326.3z M233.8,343.3c-0.6,2.2-2.9,3.5-5.1,2.9
		c-2.2-0.6-3.5-2.9-2.9-5.1c0.6-2.2,2.9-3.5,5.1-2.9C233.1,338.9,234.4,341.1,233.8,343.3z M207.2,336.1c0.6-2.2,2.9-3.5,5.1-2.9
		c2.2,0.6,3.5,2.9,2.9,5.1c-0.6,2.2-2.9,3.5-5.1,2.9C207.9,340.5,206.6,338.3,207.2,336.1z M221.3,372.7
		c-16.3-4.5-20.8-15.2-19-26.8c10.7,2.8,14.5-3,14.5-3c6.4,14.2,19.8,7.6,22.1,6.4c-0.3,3.8-0.5,7.7-0.5,11.9
		c0,3.9,0.5,7.6,1.4,10.9C235,374.3,228.9,374.8,221.3,372.7z M350.9,356.5c-5.3,3.8-10.6,6.5-15.5,8.4c-3.7,1.4-7.1,2.3-10,2.9
		c-4.6,1-8.5,1.3-11.3,1.4c-0.7-0.8-1.4-1.8-2-2.8c2.7,0,7.3-0.2,12.8-1.4c6.9-1.5,16.6-4.8,25.8-12
		C350.9,354.3,350.9,355.4,350.9,356.5z M349.8,348.6c0.1,0.5,0.3,1,0.4,1.5c-5.7,4.4-11.5,7.4-16.8,9.4c-3.6,1.4-7,2.3-9.9,2.9
		c-5.5,1.2-10,1.4-12.8,1.5c-0.2-0.4-0.3-0.8-0.5-1.2c0-0.1,0-0.2,0-0.2c2.7,0,7.4-0.2,13.1-1.4
		C330.3,359.5,340.3,356.1,349.8,348.6z M344.8,338.3c0.5,0.8,1,1.6,1.5,2.4c-5.6,4.3-11.4,7.2-16.6,9.2c-3.7,1.4-7.1,2.3-10,2.9
		c-3.8,0.8-7.1,1.2-9.7,1.4c0-0.9-0.1-1.9-0.1-2.8c2.5-0.2,5.7-0.5,9.4-1.3C326.1,348.6,335.6,345.4,344.8,338.3z M342.4,335
		c0.3,0.4,0.6,0.7,0.9,1.1c-5.3,3.9-10.6,6.6-15.5,8.4c-3.6,1.4-7,2.3-9.9,2.9c-3.1,0.7-5.8,1-8.1,1.2c0-0.5-0.1-0.9-0.1-1.4
		c2.3-0.2,5-0.6,8-1.2C324.2,344.6,333.4,341.6,342.4,335z M336.5,328.7c0.7,0.6,1.4,1.3,2.1,2c-4.6,3.1-9.2,5.4-13.5,7
		c-3.7,1.4-7.1,2.3-10,2.9c-2.2,0.5-4.3,0.8-6.1,1c-0.1-0.9-0.2-1.9-0.4-2.8c1.8-0.2,3.8-0.5,6-1
		C320.5,336.5,328.5,333.9,336.5,328.7z M334.2,326.7c-3.8,2.4-7.7,4.2-11.2,5.5c-3.6,1.4-7,2.3-9.9,2.9c-1.8,0.4-3.4,0.6-5,0.9
		c-0.1-0.4-0.1-0.7-0.2-1.1c0-0.1,0-0.2,0.1-0.3c1.5-0.2,3.1-0.5,4.9-0.9c3.5-0.7,7.7-2,12.2-4c0.1,0,0.1,0.1,0.2,0.1
		c0.1-0.1,0.1-0.2,0.2-0.3c2.5-1.1,5-2.3,7.6-3.9C333.5,326.1,333.8,326.4,334.2,326.7z M385.5,271.2c2.6,1.6,5.5,3.3,8.7,5
		c10.2,5.3,24.5,11,41.9,13.5c0.2,1,0.4,1.9,0.6,2.9c-9.1-1.2-17.4-3.3-24.7-5.8c-7.4-2.5-13.9-5.4-19.2-8.2
		c-3.5-1.8-6.8-3.7-9.6-5.5C383.9,272.5,384.7,271.8,385.5,271.2z M367.1,303.1c1.2-3.7,5.2-5.7,8.9-4.4c3.7,1.2,5.7,5.2,4.4,8.9
		c-1.2,3.7-5.2,5.7-8.9,4.4C367.9,310.8,365.9,306.8,367.1,303.1z M424.3,360.7c-13.2-0.8-25-3.5-35-6.9c-7.5-2.5-14-5.5-19.4-8.3
		c-8.4-4.4-15-8.9-19.6-12.3c0-2.3,0.1-4.6,0.4-6.9c4.2,3.4,11.7,9,21.9,14.3c12.7,6.6,32,13.9,55.8,14.6
		C427.2,357.2,425.8,359,424.3,360.7z M431.5,349.7c-14.6-0.4-27.6-3.3-38.5-7c-7.4-2.5-13.9-5.4-19.2-8.2
		c-10.1-5.3-17.6-10.7-21.9-14.2c0.2-1,0.5-2,0.8-3c4.1,3.4,11.8,9.2,22.5,14.8c13.1,6.8,33,14.3,57.6,14.8
		C432.4,347.9,432,348.8,431.5,349.7z M388.5,314.1c1.8-5.2,7.4-8,12.5-6.2c5.2,1.8,8,7.4,6.2,12.5c-1.8,5.2-7.4,8-12.5,6.2
		C389.5,324.9,386.7,319.3,388.5,314.1z M417.6,320.2c1.2-3.7,5.2-5.7,8.9-4.4s5.7,5.2,4.4,8.9c-1.2,3.7-5.2,5.7-8.9,4.4
		C418.3,327.8,416.3,323.8,417.6,320.2z M408.3,297.9c-7.5-2.5-14-5.5-19.4-8.3c-5.5-2.9-10.3-5.8-14.1-8.4c1.3-1.4,2.7-2.8,4.1-4.1
		c3.6,2.4,7.9,5.1,12.9,7.6c10.9,5.7,26.8,11.9,46.1,13.9c0.3,1.9,0.5,3.8,0.6,5.8C427.1,303.3,417,300.8,408.3,297.9z"/>
</g>
</svg>
