<svg xmlns="http://www.w3.org/2000/svg" xmlns:xlink="http://www.w3.org/1999/xlink" version="1.1" id="Layer_1" x="0px" y="0px" viewBox="0 0 330.24 184.32" style="enable-background:new 0 0 330.24 184.32;" xml:space="preserve" xmlns:svg="http://www.w3.org/2000/svg" xmlns:rdf="http://www.w3.org/1999/02/22-rdf-syntax-ns#" xmlns:cc="http://creativecommons.org/ns#" xmlns:dc="http://purl.org/dc/elements/1.1/">
<g>
	<path d="M73.142,101.039c6.583-1.562,11.75-10.72,15.521-17.406c0.544-0.964,1.059-1.876,1.534-2.686   c1.41,0.462,2.711,0.716,4.086,0.984c0.349,0.068,0.699,0.136,1.053,0.208c-0.098,0.552-0.222,1.189-0.353,1.861   c-1.184,6.079-3.166,16.254,3.075,18.376c0.818,0.278,1.611,0.416,2.372,0.416c1.46,0,2.798-0.51,3.945-1.519   c0.021-0.019,0.034-0.046,0.034-0.075c0-0.028-0.012-0.056-0.034-0.074c-1.245-1.109-1.967-2.243-2.34-3.677   c-1.287-4.948,0.35-13.042,0.911-15.518c1.13-0.169,2.037-0.506,2.995-0.861c0.229-0.085,0.46-0.171,0.7-0.257   c-1.084,3.23-2.122,7.339-0.863,10.875c0.498,1.398,1.666,2.557,2.906,2.882c4.09,1.069,6.729-3.54,8.66-6.905   c0.102-0.177,0.201-0.351,0.299-0.519c0.046,0.417,0.076,0.818,0.104,1.208c0.076,1.042,0.147,2.027,0.539,3.034   c1.056,2.713,3.562,3.478,5.383,2.823c2.84-1.023,4.88-4.525,6.52-7.339c0.194-0.333,0.383-0.658,0.568-0.969   c0.214,3.547,0.526,7.895,5.1,8.219c1.243,0.084,2.138-0.296,2.903-1.242c2.957-3.66,5.436-7.879,7.579-12.896   c0.273,0.122,0.535,0.234,0.788,0.342c0.603,0.258,1.174,0.502,1.718,0.816c-0.595,2.659-0.606,4.84-0.036,6.857   c0.564,1.997,1.83,3.592,3.564,4.49c1.726,0.895,3.746,1.009,5.688,0.323c2.05-0.722,3.921-2.011,5.561-3.833l2.192-2.434   c-0.008,0.398-0.051,0.783-0.092,1.158c-0.087,0.788-0.169,1.532,0.061,2.312c0.574,1.944,2.923,3.638,5.726,2.989   c0.039-0.009,0.069-0.041,0.076-0.081l0.653-3.791c0.585-3.385,5.308-14.001,8.69-15.832c0.335,0.396,0.184,0.833,0.022,1.294   l-2.785,8.068c-0.788,2.287-2.25,7.823,1.204,9.848c4.095,2.402,7.87-2.033,10.402-5.715c0.274,2.563,0.618,4.948,3.46,6.007   c3.948,1.47,6.823-2.539,8.928-5.464l0.008-0.012l0.471,2.073c0.347,1.531,1.689,2.498,2.733,2.86   c2.752,0.958,5.701-0.956,8.546-5.539c0.097,3.234,1.422,5.438,3.667,6.074c3.038,0.858,6.313-1.46,9.745-6.895   c2.795-4.428,4.995-9.856,5.955-12.234c1.065,0.031,2.061,0.183,3.203,0.358c-1.959,3.295-6.16,11.14-4.825,15.809   c0.379,1.326,1.181,2.312,2.384,2.93c1.888,0.97,3.867,0.742,5.883-0.679c1.674-1.178,3.149-3.014,4.271-4.535   c0.562,3.311,2.047,5.7,4.416,7.103c2.452,1.452,5.476,1.553,8.512,0.282c3.712-1.554,6.741-4.676,8.311-8.567   c0.497-1.232,0.633-2.52,0.384-3.626c-0.207-0.926-0.757-1.728-1.507-2.2c-0.652-0.41-1.392-0.535-2.13-0.367   c-0.039,0.009-0.068,0.04-0.076,0.079c-1.475,7.734-4.371,10.4-6.541,11.274c-0.836,0.336-1.661,0.349-2.387,0.038   c-0.734-0.315-1.302-0.931-1.64-1.783c-0.703-1.771-0.84-3.82-0.407-6.09c5.46-0.805,11.349-6.054,11.098-11.93   c-0.099-2.356-1.703-4.141-4.087-4.547c-3.406-0.578-6.146,1.236-7.838,2.862c-3.256,3.132-4.725,7.273-5.845,10.91   c-0.653,2.124-4.198,7.053-5.578,7.053c-0.021,0-0.042-0.001-0.062-0.003c-0.288-0.034-0.455-0.342-0.494-0.917   c-0.188-2.729,2.353-7.583,4.032-10.796c0.216-0.411,0.415-0.792,0.59-1.134c0.548-1.07,0.521-2.069-0.078-2.97   c-1.813-2.723-2.733-2.618-4.255-2.443c-0.953,0.11-2.135,0.245-3.95-0.305c1.422-4.922,1.013-8.089-1.214-9.415   c-1.51-0.899-3.263-0.959-4.811-0.168c-1.557,0.796-2.719,2.199-3.271,3.948c-0.567,1.79-0.4,3.75,0.456,5.376   c0.984,1.87,2.581,2.78,4.275,3.609c-0.633,2.354-6.048,13.842-8.79,14.887c-0.28,0.107-0.512,0.095-0.709-0.041   c-1.419-0.978,1.618-9.343,2.763-12.492c0.183-0.505,0.33-0.91,0.422-1.179c0.517-1.513,0.548-2.62,0.095-3.383   c-1.037-1.751-3.316-2.615-5.533-2.094c-0.037,0.008-0.066,0.038-0.075,0.075c-1.293,5.61-3.071,10.315-5.437,14.384   c-0.997,1.711-2.341,3.588-3.124,3.725c-0.129,0.023-0.232-0.004-0.322-0.079c-0.896-0.753,0.404-4.708,1.553-8.196   c0.738-2.245,1.437-4.366,1.658-5.824c0.23-1.506-0.351-2.82-1.592-3.604c-1.483-0.936-3.328-1.093-4.815-0.409   c-0.025,0.012-0.045,0.033-0.053,0.06c-0.181,0.553-0.173,1.108-0.165,1.646c0.007,0.476,0.014,0.969-0.115,1.445l-0.254,0.943   c-1.664,6.19-1.764,6.561-5.664,12.554c-0.503,0.773-1.815,2.409-2.658,2.527c-0.159,0.022-0.291-0.012-0.4-0.106   c-0.899-0.779,0.066-5.623,2.869-14.396c0.076-0.238,0.141-0.44,0.191-0.6l2.523-7.994c6.874,0.874,16.416,1.432,20.37-3.6   c1.867-2.377,1.129-4.785,0.857-5.466c-0.348-0.876-0.894-1.511-1.359-1.581c-0.375-0.058-0.601,0.312-0.927,0.875   c-0.492,0.849-1.316,2.271-3.47,3.418c-3.966,2.114-8.467,2.737-14.153,1.955c0.083-0.334,0.176-0.674,0.269-1.016   c0.721-2.655,1.536-5.665-1.625-7.082c-1.78-0.799-3.381-0.825-4.629-0.072c-0.03,0.018-0.049,0.051-0.048,0.086   c0.021,2.674-0.268,4.814-0.938,6.924l-15.013-4.094c-13.29-3.623-20.438-2.031-22.312-1.457c-2.238,0.686-3.984,1.717-5.338,3.154   c-2.057,2.183-2.114,4.789-1.481,6.5c0.311,0.842,0.786,1.436,1.18,1.478c0.164,0.015,0.3-0.057,0.396-0.206   c1.026-1.607,2.36-2.704,4.198-3.452c7.125-2.898,17.731-1.604,25.375-0.009l11.878,2.48l-4.559,14.914   c-0.413,1.349-4.614,8.77-6.519,9.313c-0.195,0.055-0.347,0.031-0.468-0.075c-0.902-0.788,0.913-5.383,1.597-7.113   c0.075-0.191,0.14-0.355,0.19-0.485c0.118-0.307,0.251-0.642,0.394-0.997c1.125-2.82,2.826-7.083,1.509-9.481   c-0.493-0.897-1.375-1.471-2.62-1.705c-4.225-0.804-7.641,4.029-9.48,6.62c-0.039,0.055-0.104,0.146-0.115,0.159   c0,0-0.009-0.005-0.023-0.028l0.593-3.106c0.214-1.123-0.146-2.052-1.041-2.687c-1.329-0.944-3.773-1.229-4.931-0.188   c-0.018,0.016-0.029,0.037-0.032,0.06c-1.112,7.859-2.211,10.843-7.818,16.862c-0.979,1.052-3.577,3.128-5.377,2.845   c-0.601-0.096-1.052-0.459-1.34-1.081c-0.55-1.187-0.617-2.603-0.18-3.8c5.321-1.051,10.903-6.128,10.437-11.775   c-0.177-2.156-1.751-3.748-4.012-4.056c-2.596-0.351-5.193,0.652-7.511,2.905c-1.852,1.8-3.488,4.383-4.497,7.095   c-0.708-0.007-2.018-0.458-2.045-1.082c0.155-0.911,0.403-1.806,0.642-2.671c0.538-1.946,1.095-3.959,0.628-6.271   c-0.349-1.729-1.605-3.016-3.127-3.204c-1.608-0.203-3.178,0.601-3.989,2.041c-1.861,3.3-1.354,7.64,1.291,11.073   c-1.784,4.528-3.66,8.088-5.895,11.183c-0.457-1.342-0.346-2.522-0.229-3.768l1.01-11.067c0.105-1.148-0.01-2.713-1.151-3.647   c-1.723-1.408-4.378-1.39-6.178,0.045c-0.03,0.024-0.043,0.063-0.035,0.101c0.798,3.437,0.791,6.249-0.024,8.595   c-0.496,1.432-4.068,8.876-5.834,9.704c-0.157,0.074-0.291,0.09-0.402,0.047c-0.84-0.317-1.335-3.603,4.792-22.04l0.205-0.619   c0.19-0.579,0.382-1.148,0.573-1.714c0.682-2.016,1.325-3.919,1.784-6.006c0.248-1.129,0.404-2.442-0.321-3.611   c-0.616-0.997-1.925-1.807-3.334-2.063c-1.156-0.213-2.188-0.021-2.907,0.534c-0.021,0.016-0.034,0.038-0.038,0.063   c-0.112,0.714-0.178,1.447-0.247,2.223c-0.119,1.325-0.241,2.695-0.613,3.938l-3.538,11.841c-1.011-1.002-2.321-1.417-3.899-1.234   c-1.29,0.15-2.713,0.712-4.007,1.584c-1.47,0.99-2.202,1.949-2.848,2.796c-1.115,1.461-2.081,2.726-6.398,3.663   c1.631-7.461,3.802-14.314,6.557-22.295c0.347-1.003,0.459-2.36-0.264-3.161c-1.207-1.337-3.839-2.324-5.884-2.2   c-1.003,0.061-1.741,0.39-2.135,0.95c-2.626,3.739-4.828,7.493-6.635,10.671L87.967,75.19c-4.463-2.082-9.186-3.943-13.604-2.123   c-2.889,1.189-3.615,3.764-3.359,5.608c0.125,0.904,0.48,1.542,0.881,1.588c0.17,0.02,0.491,0.025,0.733-0.166   c3.763-2.955,9.065-1.776,12.776-0.596c-2.809,4.69-6.298,10.491-10.698,14.353c-1.439,1.265-3.366,2.295-4.455,1.388   c-0.857-0.711-1.165-2.075-0.845-3.743c0.458-2.39,2.272-5.361,4.732-6.16c0.052-0.017,0.081-0.072,0.065-0.124   c-0.318-1.054-1.164-1.49-1.772-1.727c-2.354-0.916-4.992-0.308-7.055,1.625c-3.363,3.148-4.024,8.439-1.54,12.309   C65.828,100.54,69.396,101.925,73.142,101.039z M92.377,76.967c1.006-1.848,1.981-3.711,2.926-5.515   c1.794-3.428,3.646-6.966,5.718-10.405c-0.539,1.959-1.111,3.882-1.667,5.748c-1.139,3.827-2.214,7.443-3.043,11.368   C95.091,77.988,93.903,77.627,92.377,76.967z M112.151,87.125c0.31-3.964,1.927-7.879,4.677-11.321   c0.369-0.462,1.414-1.234,2.123-1.234c0.158,0,0.3,0.039,0.414,0.127c0.877,0.686-2.061,7.609-4.541,11.32   c-1.053,1.576-1.881,2.353-2.277,2.132C112.283,88,112.117,87.569,112.151,87.125z M145.116,68.052L145.116,68.052   c0.026-0.004,0.052-0.006,0.076-0.006c0.125,0,0.222,0.053,0.3,0.165c0.572,0.81-0.166,4.041-0.596,5.058   c-0.474-0.938-0.668-3.641-0.189-4.778C144.82,68.224,144.958,68.076,145.116,68.052z M231.537,68.075   c-1.173-1.188-1.513-2.846-0.843-4.167c0.148-0.292,0.435-0.479,0.734-0.479c0.006,0,0.013,0,0.019,0   c0.154,0.004,0.276,0.087,0.376,0.256C232.33,64.545,231.958,67.108,231.537,68.075z M252.057,79.991   c0.206-1.696,2.523-6.288,4.461-7.915c0.493-0.415,0.935-0.624,1.313-0.624c0.021,0,0.044,0.001,0.065,0.002   c0.345,0.773,0.236,1.828-0.314,3.056C256.52,76.877,254.02,79.346,252.057,79.991z M156.342,79.532   c0.281-1.687,2.448-5.895,4.25-7.315c0.416-0.328,0.789-0.494,1.111-0.494c0.029,0,0.059,0.001,0.087,0.004   c0.404,0.457,0.331,0.976,0.247,1.575c-0.012,0.086-0.024,0.173-0.029,0.236C160.917,76.396,158.961,78.465,156.342,79.532z"/>
	<path d="M215.414,136.37c-4.835,2.146-9.834,4.365-12.827,8.862c-1.087,1.634-1.741,3.452-1.841,5.121   c-0.115,1.921,0.501,3.587,1.781,4.817c1.152,1.106,2.748,1.714,4.455,1.714c0.217,0,0.436-0.01,0.655-0.029   c8.34-0.753,12.903-12.438,15.631-19.419l0.178-0.454c3.062-1.448,6.526-3.091,9.64-5.357c2.12-1.543,6.936-5.631,5.875-10.254   c-0.28-1.219-1.063-2.237-2.148-2.795c-0.993-0.51-2.097-0.557-3.114-0.131c-0.047,0.02-0.072,0.072-0.057,0.122   c1.521,4.837-4.151,11.333-8.678,13.65c0.319-1.125,0.641-2.24,0.96-3.349c1.315-4.566,2.558-8.88,3.559-13.427   c0.381-1.728-0.19-2.987-1.7-3.744c-1.26-0.635-2.958-1.035-3.942-0.26c-0.02,0.016-0.033,0.038-0.037,0.062   c-0.929,5.615-4.282,13.001-7.635,16.814c-0.31,0.352-0.849,0.535-1.159,0.395c-0.271-0.124-0.375-0.605-0.318-1   c0.266-1.825,1.024-4.022,1.826-6.349c0.711-2.061,1.446-4.192,1.813-6.057c0.331-1.683-0.202-3.054-1.501-3.862   c-1.586-0.986-3.432-1.125-4.936-0.372c-0.036,0.019-0.058,0.057-0.055,0.097c0.131,1.872-0.144,3.671-0.919,6.017l-1.667,5.044   c-0.48,1.454-3.764,7.225-5.405,7.225c-0.049,0-0.097-0.005-0.143-0.016c-0.108-0.024-0.198-0.096-0.273-0.217   c-0.605-0.976,0.07-4.59,0.383-5.9c0.875-3.673,2.043-7.45,3.677-11.89l4.069-11.061c0.327-0.889,0.254-1.741-0.212-2.466   c-0.613-0.956-1.924-1.695-3.339-1.884c-1.136-0.153-2.11,0.084-2.75,0.663c-0.013,0.013-0.023,0.027-0.028,0.045   c-0.348,1.143-0.653,2.308-0.948,3.434c-0.451,1.716-0.917,3.49-1.534,5.199l-2.64,7.307c-1.145-1.008-2.45-1.455-3.9-1.334   c-2.795,0.237-5.545,2.593-7.187,4.718c-2.133,2.764-3.165,5.841-4.259,9.098c-0.285,0.851-2.417,4.189-3.735,4.749   c-0.213,0.09-0.393,0.104-0.534,0.036c-2.005-0.954,2.558-15.964,4.004-20.045c4.027-0.195,7.586-1.604,9.529-3.776   c1.33-1.487,1.934-3.305,1.794-5.403c-0.181-2.719-2.15-4.706-4.902-4.945c-0.29-0.025-0.573-0.037-0.85-0.037   c-5.556,0-8.577,4.954-10.801,9.895c-2.489-0.502-4.787-1.371-7.219-2.291l-0.271-0.103c-0.554-0.209-1.104-0.419-1.653-0.628   c-3.326-1.267-6.467-2.463-9.86-3.445c-3.143-0.91-10.934-2.655-15.411,0.786c-2.356,1.812-2.934,5.018-1.315,7.295   c0.214,0.303,0.564,0.538,0.814,0.548c0.007,0.001,0.014,0.001,0.021,0.001c0.27,0,0.411-0.23,0.547-0.454   c0.045-0.073,0.091-0.148,0.142-0.217c3.253-4.293,12.558-2.797,15.333-2.237c2.597,0.524,5.263,1.279,7.841,2.009   c3.104,0.879,6.313,1.787,9.55,2.346l-1.156,3.761c-1.296-1.061-2.946-1.372-4.783-0.901c-1.541,0.396-3.15,1.335-4.416,2.578   c-2.762,2.713-4.677,6.327-6.027,11.376c-0.198,0.742-2.537,4.67-3.838,4.936c-0.219,0.047-0.39-0.018-0.526-0.192   c-1.111-1.421,1.479-8.547,2.584-11.59c0.146-0.402,0.269-0.739,0.356-0.991l0.098-0.276c0.362-1.018,0.813-2.285,0.393-3.348   c-0.694-1.757-3.161-3.109-5.593-2.243c-0.032,0.011-0.056,0.037-0.063,0.07c-1.353,5.604-3.231,10.455-5.744,14.83   c-0.934,1.627-2.184,3.248-2.887,2.893c-0.942-0.467,0.457-4.716,0.916-6.112c0.046-0.14,0.085-0.26,0.117-0.357   c0.2-0.622,0.407-1.236,0.613-1.848c0.583-1.729,1.187-3.516,1.567-5.376c0.355-1.731-0.326-3.233-1.778-3.921   c-1.295-0.612-3.191-0.946-4.623-0.042c-0.025,0.017-0.042,0.043-0.046,0.072c-0.061,0.483-0.083,1.002-0.105,1.55   c-0.062,1.495-0.126,3.041-0.989,3.993c-0.94,0.68-2.054,1.062-3.232,1.467c-0.917,0.315-1.865,0.642-2.725,1.121   c-1.396-1.914-3.096-2.832-5.204-3.583c2.638-1.837,4.326-3.781,5.307-6.106c1.411-3.345,1.062-7.042-0.91-9.649   c-1.456-1.924-3.781-3.21-6.725-3.718c-8.44-1.458-18.568,2.563-24.083,9.56c-1.958,2.482-2.986,4.855-3.143,7.253   c-0.227,3.438,2.007,6.35,5.196,6.771c0.729,0.092,1.497,0.103,2.169-0.486c0.031-0.027,0.042-0.072,0.027-0.111   c-1.401-3.661-0.497-7.934,2.48-11.722c3.769-4.794,9.916-7.694,14.951-7.052c2.757,0.352,4.501,2.504,4.242,5.233   c-0.391,4.123-4.228,9.028-8.81,9.523c0.191-0.707,0.52-1.561,0.865-2.461c1.057-2.753,2.373-6.179,0.694-7.925   c-1.326-1.381-4.021-1.729-5.657-0.729c-0.023,0.014-0.04,0.038-0.046,0.065c-0.71,3.494-1.555,6.578-2.583,9.426   c-2.525,6.998-4.23,12.617-5.528,18.219c-0.305,1.313-0.527,2.708-0.099,4c0.792,2.392,3.517,3.867,6.068,3.289   c0.044-0.01,0.076-0.048,0.078-0.093c0.278-5.206,1.825-11.591,4.727-19.516c1.245,0.93,2.15,0.651,3.285,0.306   c0.658-0.2,1.404-0.428,2.375-0.492c2.077-0.141,3.824,0.988,4.378,2.809c-2.841,1.615-6.461,3.877-9.42,7.088   c-1.475,1.6-6.032,7.153-2.756,11.419c1.139,1.484,2.948,2.158,5.234,1.945c1.842-0.17,3.915-0.913,5.688-2.039   c3.06-1.942,5.606-4.809,7.17-8.068c1.664-3.469,2.109-7.096,1.29-10.492l0.528-0.24c1.132-0.519,2.117-0.97,3.266-1.325   c-0.133,0.52-0.297,1.098-0.471,1.707c-1.064,3.734-2.522,8.85,0.219,11.337c1.868,1.694,4.526,1.212,6.188-0.141   c1.313-1.068,2.223-2.35,3.187-3.705c0.165-0.232,0.332-0.468,0.502-0.704c0.1,1.691,0.441,3.531,1.921,4.76   c1.574,1.305,3.889,1.28,5.76-0.057c0.921-0.659,1.629-1.466,2.378-2.319c0.261-0.298,0.531-0.604,0.814-0.911   c0.474,1.294,1.114,2.691,2.517,3.358c4.348,2.072,7.582-3.597,9.514-6.982c0.114-0.201,0.225-0.395,0.33-0.577   c-0.143,2.842,0.101,6.493,3.05,7.536c3.326,1.176,5.566-1.64,7.547-4.119l0.215-0.269c0.426,1.443,0.94,2.789,2.216,3.588   c1.003,0.627,2.044,0.81,3.103,0.546c3.064-0.771,5.568-5.061,7.097-7.733c-0.117,2.583-0.131,6.17,2.879,7.336   c3.32,1.289,5.647-1.488,7.518-3.72c0.232-0.276,0.454-0.541,0.671-0.789c0.218,1.843,0.909,3.119,2.056,3.797   c3.518,2.075,6.592-1.471,8.717-4.132l-1.916,6.093C216.455,135.907,215.936,136.138,215.414,136.37z M204.959,152.061   c-0.551-0.384-0.663-1.219-0.66-1.843c0.183-1.993,1.613-4.104,4.136-6.102c2.596-2.057,5.46-3.343,6.763-3.869   c-0.407,1.093-1.555,3.979-3.249,6.774c-1.705,2.814-3.429,4.62-4.984,5.222C206.031,152.455,205.448,152.404,204.959,152.061z    M191.316,127.43c0.288-4.426,3.745-10.551,6.02-11.722c0.249-0.129,0.476-0.193,0.678-0.193c0.157,0,0.3,0.04,0.427,0.118   c0.207,0.128,0.364,0.648,0.249,1.026c-1.151,3.751-3.04,7.376-5.943,11.41c-0.295,0.41-0.817,0.529-1.05,0.431   C191.374,128.362,191.288,127.857,191.316,127.43z M186.005,106.083c0.741-2.087,3.174-7.341,5.534-6.569   c0.511,0.169,0.861,0.794,0.873,1.556c0.017,1.167-0.442,2.243-1.327,3.11c-1.195,1.171-3.124,1.904-4.973,1.904   C186.076,106.084,186.041,106.084,186.005,106.083z M172.831,117.18c0.241-0.276,1.037-1.113,1.836-1.113   c0.074,0,0.148,0.007,0.223,0.022c0.1,0.021,0.177,0.08,0.236,0.181c0.19,0.325,0.123,0.964,0.014,1.312   c-1.258,4.011-3.185,7.748-5.726,11.106c-0.284,0.377-0.758,0.506-0.948,0.424c-0.23-0.099-0.46-0.545-0.411-0.971   C168.526,124.069,170.223,120.177,172.831,117.18z M130.276,127.021c-0.381,3.791-2.138,7.432-4.959,10.269   c-0.913,0.916-2.458,1.872-3.558,1.872c-0.018,0-0.035,0-0.053-0.001c-0.383-0.011-0.69-0.143-0.911-0.392   c-0.233-0.264-0.218-0.7-0.204-1.124l0.002-0.105c0.335-1.622,1.207-2.88,2.307-4.351   C125.082,130.618,127.496,128.599,130.276,127.021z"/>
	<path d="M201.832,35.519c-0.012,0-0.023,0-0.035,0c-1.689,0-2.763,1.051-2.951,2.902c-0.103,0.999-0.051,2.033,0,3.032   c0.024,0.486,0.049,0.988,0.057,1.479c0.026,1.799,1.092,3.01,2.854,3.247c0.857,1.365,2.262,2.215,3.96,2.396   c2.108,0.223,4.241,0.334,6.432,0.334c2.062,0,4.176-0.099,6.367-0.296c1.72-0.155,3.069-0.976,4.012-2.441   c1.698-0.153,2.822-1.323,2.869-2.994c0.01-0.342,0.029-0.711,0.05-1.097c0.108-2.075,0.242-4.658-0.97-5.879   c-0.484-0.487-1.15-0.73-1.991-0.703c-0.193-1.041-0.284-2.029-0.381-3.073c-0.041-0.449-0.083-0.902-0.134-1.363   c-0.026-0.24,0.049-0.486,0.152-0.827c0.278-0.911,0.744-2.435-0.129-6.103c-0.271-1.135-1.077-1.813-2.211-1.86l-4.299-0.181   c-0.532-1.734-1.808-2.765-3.427-2.765c-0.005,0-0.011,0-0.016,0c-1.596,0.007-2.897,1.078-3.413,2.798   c-0.232,0.003-0.463,0.005-0.691,0.007c-1.312,0.011-2.551,0.022-3.824,0.24c-1.692,0.29-1.897,2.008-2.078,3.525   c-0.048,0.402-0.094,0.782-0.163,1.133c-0.191,0.954-0.021,1.771,0.157,2.635c0.059,0.281,0.118,0.571,0.166,0.868   c0.193,1.21,0.002,2.471-0.184,3.69C201.947,34.648,201.881,35.088,201.832,35.519z M200.415,39.118   c-0.093-0.51-0.043-1.201,0.287-1.601c0.188-0.228,0.45-0.344,0.778-0.344c0.014,0,0.028,0,0.043,0.001   c0.165,0.005,0.184,0.275,0.186,0.358C201.723,38.122,201.27,39.001,200.415,39.118z M200.507,40.614   c0.16-0.139,0.502-0.357,0.766-0.357c0.057,0,0.109,0.01,0.155,0.033l-0.161,3.993c-0.236-0.023-0.439-0.232-0.606-0.624   C200.21,42.603,200.271,40.819,200.507,40.614z M212.042,21.095c0.514,0,1.171,0.185,1.442,1.034   c-1.147,0.113-2.022,0.104-2.883-0.026c0.243-0.643,0.762-1.008,1.438-1.008C212.04,21.095,212.041,21.095,212.042,21.095z    M206.825,29.613l0.745,0.009l-0.024,1.84l-0.744-0.01L206.825,29.613z M207.725,25.341c-0.076,0.816-0.154,1.659-0.126,2.621   c-0.072,0.14-0.174,0.225-0.294,0.246c-0.13,0.023-0.28-0.031-0.405-0.142c0.021-1.544,0.088-2.863,0.344-4.258   c0.021-0.119,0.224-0.179,0.403-0.159c0.121,0.013,0.195,0.058,0.194,0.092C207.822,24.286,207.774,24.798,207.725,25.341z    M218.276,40.76c-0.106,0.154-0.247,0.248-0.419,0.278c-3.544,0.629-7.231,0.645-11.271,0.046   c-0.371-0.055-0.562-0.394-0.702-0.641c-0.029-0.052-0.056-0.099-0.081-0.139c-0.083-0.132-0.115-0.528,0.011-0.786   c0.061-0.123,0.148-0.19,0.26-0.201c1.94-0.184,3.856-0.248,5.817-0.248c1.791,0,3.619,0.054,5.535,0.12   c0.524,0.018,0.982,0.275,1.043,0.585C218.514,40.002,218.483,40.46,218.276,40.76z M205.559,42.379   c0.007-0.099,0.014-0.197,0.021-0.295c2.609,0.838,5.854,0.725,8.723,0.626c0.683-0.024,1.33-0.046,1.951-0.056   c0.009,0.181-0.007,0.357-0.021,0.529c-0.026,0.301-0.054,0.611,0.051,0.93c0.058,0.177,0.182,0.308,0.359,0.377   c0.217,0.084,0.481,0.064,0.685-0.049c0.437-0.244,0.399-0.865,0.369-1.365c-0.013-0.214-0.027-0.457,0.019-0.521   c0.108-0.152,0.339-0.211,0.721-0.309c0.068-0.018,0.143-0.037,0.221-0.058c0.079,0.93,0.152,1.89-0.104,2.894   c-0.187,0.725-1.053,1.13-1.829,1.21c-3.295,0.341-6.423,0.326-9.561-0.047C205.295,46.023,205.429,44.171,205.559,42.379z    M206.94,34.95c0.046-0.041,0.143-0.064,0.25-0.064c0.026,0,0.053,0.001,0.079,0.004c0.109,0.012,0.167,0.044,0.173,0.044   l0.005,0.068c0.021,0.241,0.058,0.688-0.261,0.829c-0.048,0.018-0.104-0.052-0.145-0.116   C206.885,35.469,206.829,35.047,206.94,34.95z M207.924,33.577c-0.141,0.122-1.334,0.172-1.524-0.04   c-0.039-0.044-0.075-0.191-0.042-0.322c0.021-0.085,0.065-0.14,0.131-0.163c0.167-0.059,0.49-0.153,0.831-0.153   c0.217,0,0.441,0.039,0.638,0.149c0.017,0.01,0.066,0.038,0.077,0.144C208.051,33.347,207.972,33.534,207.924,33.577z    M205.767,26.951c-0.016,0.368-0.032,0.739-0.056,1.122c-0.006,0.107-0.15,0.197-0.303,0.292c-0.204,0.127-0.457,0.285-0.421,0.565   c0.04,0.307,0.226,0.441,0.389,0.559c0.281,0.203,0.546,0.396,0.137,1.557c-0.803-0.221-1.395-0.71-1.759-1.456   c-0.743-1.52-0.408-3.941,0.308-5.557c0.337-0.354,1.105-0.308,1.671-0.274c0.111,0.007,0.218,0.013,0.313,0.016   C205.857,24.917,205.813,25.906,205.767,26.951z M204.662,32.588c0.071,0.042,0.139,0.082,0.201,0.112   c0.24,0.117,0.252,0.361,0.241,0.75c-0.006,0.223-0.012,0.453,0.073,0.638c0.314,0.684,0.494,1.215,0.638,1.641   c0.29,0.858,0.436,1.288,1.259,1.437c0.433,0.078,1.061-0.23,1.231-0.765l0.453-1.434c0.067-0.215,0.158-0.416,0.247-0.61   c0.151-0.335,0.309-0.682,0.361-1.121l5.359,0.03c0.089,0.13,0.1,0.295,0.11,0.47c0.013,0.19,0.025,0.386,0.136,0.562   c0.364,0.578,0.556,1.115,0.708,1.546c0.269,0.754,0.464,1.303,1.339,1.303c0.019,0,0.038,0,0.058,0   c1.203-0.032,1.72-2.598,1.968-3.831c0.047-0.232,0.095-0.473,0.107-0.503c0.195-0.212,0.604-0.456,1.182-0.531   c0.419,3.53,0.802,7.351,0.786,11.386c-0.005,1.287-0.372,2.149-1.122,2.629c0.396-2.27,0.327-4.636-0.205-7.04   c-0.184-0.832-1.101-1.366-1.881-1.401c-2.153-0.099-4.154-0.148-6.073-0.148c-1.864,0-3.651,0.047-5.424,0.14   c-1.161,0.062-1.985,0.785-2.149,1.888c-0.344,2.295-0.34,4.663,0.007,6.531c-1.628-0.661-1.056-6.637-0.674-10.63   c0.142-1.483,0.255-2.671,0.238-3.332C204.185,32.307,204.447,32.462,204.662,32.588z M216.144,33.409   c-0.023-0.157,0.011-0.301,0.085-0.359c0.148-0.117,0.395-0.175,0.659-0.175c0.255,0,0.526,0.055,0.744,0.164   c0.144,0.073,0.176,0.215,0.183,0.273c0.014,0.104-0.016,0.207-0.071,0.254c-0.193,0.166-1.241,0.167-1.496,0.069   C216.216,33.623,216.163,33.544,216.144,33.409z M216.761,34.951c0.056-0.036,0.124-0.055,0.196-0.055   c0.046,0,0.092,0.007,0.138,0.022c0.084,0.027,0.122,0.067,0.127,0.079c0.107,0.333,0.027,0.611-0.237,0.826   c-0.021,0.016-0.036,0.015-0.055,0.007c-0.108-0.045-0.251-0.296-0.273-0.55C216.647,35.188,216.65,35.022,216.761,34.951z    M220.44,29.677c-0.386,0.759-1.003,1.226-1.833,1.387c-0.191-0.337-0.251-0.682-0.172-1.001c0.089-0.358,0.341-0.669,0.73-0.899   c0.024-0.014,0.042-0.038,0.047-0.066c0.006-0.028,0-0.057-0.018-0.08l-0.735-0.995l-0.321-4.286   c0.091-0.002,0.19-0.008,0.297-0.013c0.678-0.034,1.605-0.083,1.869,0.452C220.717,25.009,221.361,27.865,220.44,29.677z    M209.391,28.964c0.074-0.257-0.149-0.411-0.329-0.535c-0.104-0.071-0.22-0.151-0.231-0.221c-0.238-1.486,0.008-3.012,0.257-4.508   l5.999-0.003c0.662,4.329,0.217,4.565-0.079,4.723c-0.107,0.057-0.229,0.122-0.292,0.308c-0.122,0.36,0.075,0.507,0.267,0.65   c0.316,0.237,0.749,0.56,0.311,2.15l-6.447-0.082c-0.43-1.524-0.099-1.789,0.193-2.024   C209.18,29.307,209.326,29.189,209.391,28.964z M217.029,28.366c-0.019,0.014-0.045,0.024-0.095,0.001   c-0.183-0.085-0.381-0.459-0.386-0.54l-0.229-4.099c-0.001-0.015,0.045-0.048,0.153-0.059c0.021-0.002,0.042-0.003,0.062-0.003   c0.198,0,0.397,0.083,0.411,0.178C217.458,27.604,217.175,28.258,217.029,28.366z M217.267,31.418   c-0.017,0.054-0.182,0.126-0.38,0.123c-0.133-0.004-0.234-0.045-0.248-0.099c-0.103-0.425-0.091-0.793-0.078-1.183   c0.005-0.154,0.01-0.308,0.007-0.467c0-0.054,0.013-0.094,0.041-0.121c0.058-0.056,0.173-0.066,0.274-0.066   c0.038,0,0.073,0.001,0.104,0.002l0.042,0.002c0.064,0.002,0.115,0.031,0.16,0.093C217.457,30.071,217.303,31.296,217.267,31.418z    M223.84,39.052c-0.381-0.056-0.68-0.217-0.892-0.479c-0.267-0.331-0.378-0.807-0.323-1.378c0.263-0.149,0.626-0.049,0.904,0.25   l0.026,0.069C223.769,38.066,223.938,38.508,223.84,39.052z M223.467,40.387c0.045,0.023,0.086,0.044,0.122,0.061   c0.278,0.127,0.487,1.25,0.326,2.332c-0.06,0.398-0.255,1.303-0.819,1.479l-0.186-4.012   C223.024,40.162,223.287,40.296,223.467,40.387z"/>
	<path d="M128.053,49.689c0.016,0.04,0.052,0.063,0.098,0.062c2.046-0.109,3.668-1.353,5.237-2.556c1.232-0.944,2.505-1.921,4-2.381   c0.599-0.185,1.146-0.529,1.674-0.862c0.609-0.384,1.238-0.78,1.96-0.944c0.145,0.339,0.177,0.7,0.208,1.051   c0.045,0.503,0.091,1.022,0.477,1.452c0.036,0.041,0.099,0.043,0.14,0.008l3.143-2.764c0.312,0.067,0.685,0.481,1.045,0.882   c0.44,0.49,0.865,0.951,1.26,0.93c0.168-0.01,0.318-0.104,0.444-0.28c0.193-0.272,0.319-0.536,0.452-0.815   c0.163-0.344,0.332-0.7,0.645-1.087c0.902,0.746,1.908,1.006,2.882,1.257c0.332,0.085,0.674,0.174,1.01,0.28   c0.561,0.178,1.285,0.822,2.124,1.568c1.386,1.234,3.116,2.765,4.813,2.68c0.041-0.002,0.077-0.03,0.09-0.069   c0.013-0.039,0-0.083-0.032-0.108c-1.679-1.359-3.054-2.732-4.748-4.742c-0.076-0.09-0.19-0.19-0.324-0.306   c-0.376-0.329-0.844-0.737-0.661-1.102c1.103-2.2,3.416-3.4,5.134-4.117l-0.568,2.757c-0.008,0.041,0.009,0.082,0.044,0.104   c0.035,0.021,0.08,0.021,0.113-0.004l3.934-2.926l1.913,3.956c0.017,0.034,0.051,0.056,0.089,0.057h0   c0.038,0,0.073-0.021,0.089-0.056l1.782-3.589c0.32,0.262,0.595,0.611,0.86,0.948c0.463,0.59,0.907,1.146,1.475,1.013   c0.378-0.086,0.578-0.557,0.79-1.056c0.12-0.284,0.244-0.576,0.402-0.802c1.049,0.761,2.09,1.207,3.098,1.639   c1.381,0.592,2.573,1.103,3.396,2.284c1.753,2.52,7.082,7.753,10.062,8.58c0.009,0.002,0.018,0.004,0.026,0.004   c0.033,0,0.064-0.017,0.084-0.045c0.023-0.037,0.021-0.084-0.006-0.118c-0.677-0.841-1.409-1.564-2.117-2.264   c-1.101-1.088-2.142-2.117-2.896-3.483c0.241-0.194,0.474-0.387,0.702-0.577c0.669-0.558,1.302-1.084,2.007-1.485   c0.248,0.252,0.453,0.521,0.652,0.781c0.277,0.363,0.564,0.738,0.958,1.054c0.036,0.028,0.086,0.03,0.12,0.003l1.857-1.319   c0.714,0.428,1.121,0.777,1.42,1.034c0.674,0.578,0.808,0.628,2.083-0.033c0.272-0.143,1.291,0.758,2.271,1.633   c1.531,1.365,3.426,3.053,4.779,3.053c0.041,0,0.083-0.001,0.123-0.005c0.039-0.003,0.073-0.029,0.086-0.065   c0.014-0.037,0.004-0.078-0.023-0.105l-11.357-11.171c-0.701-0.69-1.562-0.724-2.36-0.096c-0.278,0.219-0.651,0.537-1.084,0.906   c-1.504,1.28-3.958,3.371-4.98,3.371c-0.065,0-0.125-0.009-0.179-0.027c-0.373-0.127-0.978-0.933-1.678-1.865   c-0.929-1.238-2.085-2.778-3.415-3.762c-2.316-1.713-3.182-2.957-4.098-4.274c-0.782-1.125-1.591-2.287-3.337-3.849   c-0.648-0.583-1.495-0.517-2.104,0.16c-1.979,2.198-4.106,4.264-6.163,6.262c-0.729,0.708-1.46,1.418-2.191,2.14   c-0.325,0.321-0.655,0.687-1.004,1.075c-1.025,1.139-2.084,2.316-3.038,2.334c-0.335,0.016-0.631-0.13-0.912-0.418   c-0.167-0.172-0.394-0.421-0.662-0.715c-1.626-1.787-4.349-4.778-5.482-3.783l-8.317,7.291l-8.29,7.306   C128.048,49.605,128.037,49.65,128.053,49.689z M144.88,40.071c0.064-0.276,0.121-0.554,0.18-0.845   c0.172-0.854,0.35-1.735,0.77-2.611l5.027,5.463c-0.39,0.011-0.745-0.105-1.084-0.216c-0.461-0.151-0.896-0.294-1.394-0.113   c-0.256,0.093-0.388,0.291-0.541,0.521c-0.127,0.191-0.27,0.405-0.517,0.601c-0.433-0.369-0.679-0.976-0.897-1.514   c-0.239-0.587-0.464-1.142-0.896-1.307c-0.087-0.033-0.179-0.05-0.276-0.05C145.135,40,145.012,40.024,144.88,40.071z    M163.909,34.491c0.543-1.09,0.84-2.193,1.153-3.356c0.159-0.592,0.324-1.203,0.525-1.824c1.343,1.33,2.412,2.744,3.445,4.113   c0.382,0.506,0.777,1.029,1.181,1.54c0.423,0.537,0.921,0.987,1.402,1.422c0.542,0.49,1.1,0.994,1.572,1.637   c-0.797-0.106-1.424-0.48-2.032-0.844c-0.478-0.285-0.972-0.581-1.541-0.741c-0.025-0.007-0.052-0.004-0.076,0.009   c-0.334,0.186-0.452,0.479-0.59,0.818c-0.109,0.271-0.232,0.574-0.489,0.901c-0.234-0.228-0.433-0.47-0.624-0.705   c-0.459-0.561-0.894-1.092-1.688-1.237c-0.167-0.798-0.311-1.432-0.581-2.188c-0.019-0.052-0.075-0.077-0.126-0.061L163.909,34.491   z M186.479,38.984c1.419,1.081,2.554,2.333,3.752,3.656l0.162,0.179c0.002,0.001,0.006,0.019-0.006,0.056   c-0.036,0.11-0.153,0.227-0.171,0.239l-0.662-0.3c-0.24-0.108-0.451-0.233-0.655-0.354c-0.41-0.243-0.783-0.464-1.254-0.464   c-0.21,0-0.438,0.044-0.698,0.149L186.479,38.984z"/>
	<path d="M250.875,121.534c-1.143-0.543-2.13-1.013-2.604-1.849c-0.645-1.134-1.129-2.273-1.641-3.479   c-0.187-0.438-0.377-0.888-0.577-1.338c0.587,0.385,1.055,0.854,1.51,1.309c0.401,0.402,0.816,0.818,1.309,1.171   c1.497,1.074,3.329,2.116,5.614,1.711c0.028-0.005,0.053-0.021,0.067-0.046s0.019-0.054,0.011-0.081   c-1.024-3.442-4.177-5.829-7.845-5.94c-1.329-0.041-2.311-0.492-3.091-1.42c-2.616-3.115-6.031-5.508-9.876-6.917   c-0.21-0.076-0.463-0.026-0.68,0.133c-0.183,0.135-0.296,0.316-0.288,0.464c0.021,0.411,0.668,0.702,1.74,1.185   c1.908,0.859,5.101,2.297,7.644,5.775c0.881,1.203,1.027,2.591,0.411,3.907c-1.344,2.871-1.272,6.087,0.195,8.822   c0.014,0.027,0.04,0.046,0.069,0.052c0.028,0.004,0.061-0.003,0.084-0.022c2.799-2.397,2.416-5.199,2.045-7.907   c-0.045-0.335-0.092-0.678-0.133-1.02c3.638,5.544,2.365,7.164,0.763,9.202c-1.275,1.622-2.72,3.461-1.964,7.656   c0.005,0.028,0.022,0.054,0.048,0.068c0.026,0.017,0.058,0.02,0.082,0.009c3.694-1.234,4.091-5.559,4.277-8.612   c0.927,1.938,0.502,3.868,0.089,5.738c-0.548,2.487-1.115,5.059,1.421,7.682c0.02,0.02,0.045,0.03,0.072,0.03   c0.003,0,0.006,0,0.009,0c0.029-0.003,0.057-0.019,0.073-0.043c2.803-4.076,1.876-6.536,0.803-9.385   c-0.59-1.565-1.198-3.181-1.248-5.229c1.469,2.187,3.426,4.334,6.696,4.36h0.001c0.029,0,0.058-0.013,0.077-0.036   c0.019-0.022,0.026-0.054,0.021-0.083C255.324,123.65,252.857,122.478,250.875,121.534z"/>
	<path d="M239.413,51.783c-0.027,0.008-0.05,0.027-0.062,0.053c-1.106,2.284-1.317,4.653-0.595,6.669   c0.45,1.257,1.329,2.207,2.178,3.125c0.314,0.34,0.64,0.692,0.939,1.055c0.755,0.915,0.143,1.961-0.305,2.725   c-0.307,0.525-0.55,0.939-0.228,1.141c0.068,0.042,0.146,0.064,0.232,0.064c0.054,0,0.112-0.008,0.173-0.025   c1.065-0.299,3.104-3.322,3.557-4.228c0.892-1.786,2.408-2.549,3.914-3.108c3.67-1.366,5.855-4.608,5.567-8.259   c-0.002-0.028-0.016-0.054-0.038-0.071s-0.054-0.025-0.078-0.02c-3.244,0.555-5.94,3.012-7.211,6.571   c-0.052,0.145-0.09,0.291-0.127,0.432c-0.12,0.462-0.234,0.9-0.792,1.234c0.045-1.777,0.6-3.225,1.136-4.626   c0.887-2.317,1.724-4.506,0.065-7.757l-0.08-0.158c-0.594-1.166-1.154-2.268-2.333-3.061c-0.022-0.015-0.051-0.019-0.077-0.015   c-0.027,0.006-0.05,0.022-0.064,0.046c-3.057,5.082-1.432,8.45-0.356,10.679c0.396,0.819,0.707,1.467,0.707,1.999   c-0.004,2.203-0.698,4.371-2.065,6.448c-0.215-0.321-0.159-0.694-0.062-1.053c1.038-3.817-0.498-7.683-3.914-9.85   C239.471,51.779,239.441,51.775,239.413,51.783z M240.985,56.857c0.692,1.068,1.083,2.274,1.186,3.663   C241.653,59.398,241.285,58.259,240.985,56.857z M246.129,49.155c0.446,1.568,0.724,3.048,0.235,4.729   C245.999,52.508,245.92,50.921,246.129,49.155z M248.957,57.911c0.633-1.17,1.501-2.141,2.64-2.95   C250.936,56.209,250.032,57.219,248.957,57.911z"/>
	<path d="M84.356,54.417c0.054-0.004,0.108-0.007,0.16-0.01c-0.355,0.751-0.839,1.436-1.309,2.098   c-0.396,0.559-0.805,1.137-1.143,1.761c-0.014,0.025-0.016,0.054-0.006,0.081c0.187,0.535,0.832,0.447,1.456,0.359   c0.087-0.012,0.175-0.024,0.26-0.035c-0.178,0.54-0.859,1.49-1.465,2.337c-0.786,1.096-1.227,1.729-1.158,1.993   c0.111,0.441,1.171,0.336,2.772,0.125c0.475-0.063,0.925-0.122,1.187-0.126c0.094,0.417,0.034,0.858-0.03,1.325   c-0.079,0.575-0.16,1.169,0.076,1.715c0.132,0.306,0.628,0.412,1.055,0.412c0.038,0,0.075-0.001,0.111-0.002   c0.442-0.019,0.954-0.156,1.062-0.484v0c0.188-0.565,0.112-1.106,0.04-1.629c-0.063-0.454-0.123-0.885,0.009-1.273l3.299,0.284   c0.312,0.028,0.501-0.038,0.588-0.195c0.23-0.413-0.449-1.323-1.236-2.377c-0.592-0.793-1.203-1.611-1.31-2.098   c0.188-0.005,0.362,0.016,0.531,0.035c0.428,0.046,0.833,0.093,1.2-0.308c0.031-0.034,0.035-0.084,0.01-0.122   c-0.285-0.435-0.571-0.847-0.848-1.246c-0.608-0.875-1.183-1.704-1.662-2.642c0.119-0.005,0.235-0.001,0.349,0.004   c0.337,0.019,0.684,0.034,1.03-0.302c0.034-0.033,0.04-0.086,0.014-0.126c-1.13-1.744-1.876-3.446-2.667-5.249   c-0.131-0.3-0.265-0.603-0.401-0.911c-0.017-0.038-0.054-0.068-0.095-0.06c-0.041,0.002-0.077,0.028-0.09,0.067   c-0.736,2.082-1.625,3.914-2.973,6.125c-0.019,0.032-0.02,0.072,0,0.104C83.431,54.479,83.944,54.444,84.356,54.417z"/>
	<path d="M90.358,114.514c0.922-1.278,1.725-1.919,2.256-2.342c0.6-0.479,0.93-0.742,0.637-1.362   c-0.02-0.041-0.065-0.063-0.107-0.056c-0.41,0.072-0.751,0.261-1.081,0.443c-0.339,0.188-0.659,0.365-1.028,0.401   c-0.72,0.067-1.544-0.192-2.506-0.495c-3.119-0.983-7.393-2.331-13.405,5.225c-0.019,0.023-0.026,0.054-0.02,0.083   c0.006,0.029,0.025,0.054,0.051,0.067c2.685,1.43,5.19,2.139,7.445,2.139C85.738,118.617,88.39,117.241,90.358,114.514z    M83.236,114.869c-0.019-0.018-0.043-0.027-0.069-0.027c-0.003,0-0.006,0-0.009,0c-0.594,0.053-1.164,0.18-1.714,0.303   c-0.813,0.182-1.585,0.349-2.433,0.312l3.913-1.261c0.032-0.01,0.057-0.036,0.066-0.068c0.009-0.032,0-0.067-0.022-0.093   c-0.284-0.321-0.617-0.508-0.911-0.673c-0.296-0.167-0.559-0.314-0.741-0.565c1.064,0.159,1.504,0.485,1.861,0.751   c0.587,0.437,0.975,0.723,3.289-0.114c0.032-0.011,0.055-0.038,0.063-0.07c0.008-0.033-0.001-0.067-0.024-0.092   c-0.296-0.312-0.614-0.494-0.922-0.669c-0.32-0.183-0.625-0.355-0.874-0.666c0.003,0,0.006,0,0.01,0   c0.468,0,0.869,0.288,1.257,0.567c0.392,0.282,0.786,0.573,1.256,0.54l2.35-0.175c-0.25,0.242-0.581,0.35-0.903,0.455   c-0.362,0.117-0.736,0.239-0.979,0.55c-0.241,0.31-0.427,0.658-0.607,0.996c-0.324,0.607-0.631,1.184-1.231,1.54   c0.071-0.318,0.235-0.581,0.408-0.856c0.206-0.327,0.438-0.698,0.541-1.214c0.006-0.029-0.002-0.06-0.021-0.083   c-0.03-0.036-0.084-0.037-0.13-0.037c-2.23,0-2.623,0.636-3.075,1.371c-0.277,0.449-0.562,0.912-1.331,1.29   c0.1-0.254,0.267-0.472,0.442-0.7c0.271-0.353,0.55-0.717,0.571-1.234C83.268,114.917,83.257,114.889,83.236,114.869z"/>
	<path d="M85.973,95.086c0.189-0.317,0.389-0.63,0.587-0.94c0.792-1.24,1.609-2.521,1.73-4.034c0.003-0.043-0.021-0.084-0.062-0.1   c-0.042-0.019-0.087-0.006-0.115,0.028c-0.966,1.15-1.828,2.29-2.661,3.392c-1.221,1.615-2.375,3.142-3.756,4.58   c-8.291,8.634-14.554,5.752-16.861,4.112c-0.761-0.541-1.411-1.2-1.933-1.729c-0.792-0.803-1.362-1.387-1.835-1.095   c-0.152,0.093-0.324,0.294-0.278,0.725c0.151,1.413,2.435,4.106,5.813,5.281c1.25,0.435,2.532,0.65,3.83,0.65   c2.462,0,4.979-0.777,7.434-2.314C80.946,101.713,83.825,98.675,85.973,95.086z"/>
	<path d="M92.823,125.22c0.015,0.025,0.039,0.043,0.067,0.048c0.006,0.002,0.013,0.002,0.02,0.002c0.022,0,0.043-0.007,0.062-0.021   c4.315-3.351,5.732-6.905,4.46-11.185c-0.001-0.003-0.002-0.007-0.003-0.01c-0.533-1.298-0.096-2.206,0.193-2.808   c0.152-0.317,0.263-0.547,0.186-0.735c-0.04-0.097-0.123-0.168-0.256-0.216c-0.422-0.15-0.801,0.33-1.28,0.942   c-0.424,0.543-0.905,1.158-1.529,1.474C90.482,115.669,90.552,121.242,92.823,125.22z M95.577,114.457   c-0.049,0.226-0.1,0.459-0.028,0.695c0.079,0.262,0.166,0.518,0.252,0.771c0.246,0.719,0.479,1.401,0.515,2.183   c-0.204-0.246-0.298-0.536-0.404-0.861c-0.125-0.386-0.267-0.822-0.633-1.231c-0.025-0.027-0.063-0.036-0.098-0.031   c-0.036,0.009-0.064,0.036-0.073,0.072l-1.406,5.285c-0.179-1.016,0.022-1.944,0.234-2.922c0.091-0.419,0.185-0.853,0.248-1.299   c0.005-0.035-0.009-0.069-0.037-0.092c-0.018-0.015-0.04-0.021-0.062-0.021c-0.012,0-0.024,0.002-0.036,0.006l-1.009,0.388   c0.105-0.432,0.42-0.716,0.751-1.014c0.133-0.119,0.27-0.243,0.396-0.379c0.271-0.292,0.437-0.639,0.597-0.974   c0.196-0.412,0.399-0.837,0.806-1.191C95.67,114.025,95.626,114.229,95.577,114.457z"/>
	<path d="M228.771,103.574c0.653,0.089,1.269,0.173,1.943-0.039c0.029-0.01,0.053-0.032,0.063-0.062   c0.011-0.028,0.008-0.062-0.009-0.087l-2.009-3.195c0.085-0.005,0.171-0.004,0.262,0c0.297,0.006,0.627,0.016,0.896-0.278   c0.029-0.031,0.035-0.078,0.015-0.115c-0.253-0.46-0.537-0.859-0.811-1.244c-0.375-0.527-0.73-1.027-0.946-1.605   c0.089-0.012,0.178-0.01,0.267-0.007c0.215,0.006,0.432,0.011,0.705-0.158c0.023-0.014,0.04-0.037,0.046-0.063   s0.001-0.054-0.014-0.076c-0.669-1.019-1.123-2-1.604-3.039c-0.246-0.531-0.501-1.081-0.792-1.65   c-0.018-0.036-0.048-0.056-0.094-0.055c-0.039,0.002-0.073,0.026-0.088,0.062c-0.717,1.778-1.409,3.048-2.214,4.523   c-0.061,0.111-0.039,0.227,0.059,0.318c0.154,0.144,0.486,0.213,0.732,0.202c-0.244,0.69-0.62,1.214-1.017,1.766   c-0.23,0.321-0.469,0.653-0.69,1.031c-0.023,0.039-0.017,0.089,0.015,0.121c0.247,0.251,0.536,0.24,0.815,0.231   c0.151-0.006,0.304-0.012,0.462,0.021c-0.255,0.51-0.593,0.955-0.921,1.387c-0.426,0.562-0.866,1.144-1.114,1.857   c-0.009,0.027-0.007,0.057,0.007,0.081c0.014,0.025,0.037,0.043,0.065,0.05c0.706,0.164,1.335,0.092,1.945,0.022   c0.332-0.038,0.649-0.074,0.976-0.074c0.008,0,0.016,0,0.024,0l0.043,2.108c0.006,0.263,0.238,0.449,0.623,0.5   c0.063,0.008,0.129,0.013,0.195,0.013c0.447,0,0.924-0.19,1.029-0.555c0.128-0.439,0.087-0.834,0.051-1.181   c-0.034-0.338-0.064-0.633,0.058-0.906C228.097,103.482,228.439,103.529,228.771,103.574z"/>
	<path d="M114.511,63.61c0.409-0.055,0.796-0.107,1.19-0.057c0.046,0.273,0.008,0.561-0.032,0.864   c-0.059,0.438-0.119,0.891,0.089,1.314c0.1,0.205,0.446,0.292,0.774,0.292c0.03,0,0.06,0,0.09-0.002   c0.369-0.018,0.631-0.143,0.702-0.333c0.181-0.488,0.124-0.94,0.073-1.339c-0.034-0.265-0.065-0.516-0.029-0.757l2.955,0.062   c0,0,0.001,0,0.002,0c0.036,0,0.068-0.019,0.086-0.049c0.018-0.031,0.018-0.07,0-0.102l-1.811-3.083   c0.537,0.05,0.829-0.019,0.938-0.211c0.175-0.31-0.211-0.799-0.7-1.417c-0.384-0.487-0.815-1.033-0.952-1.495   c0.292-0.004,0.759-0.043,0.88-0.25c0.026-0.044,0.059-0.136-0.01-0.255c-0.885-1.514-1.48-2.861-2.102-4.419   c-0.015-0.037-0.05-0.062-0.09-0.063c-0.001,0-0.002,0-0.002,0c-0.039,0-0.075,0.023-0.091,0.059   c-0.173,0.384-0.332,0.757-0.487,1.121c-0.489,1.148-0.951,2.233-1.725,3.328c-0.028,0.039-0.024,0.092,0.009,0.126   c0.252,0.266,0.501,0.297,0.743,0.327c0.056,0.007,0.11,0.014,0.164,0.023c-0.471,0.935-1.034,1.684-1.74,2.624l-0.042,0.056   c-0.027,0.037-0.026,0.087,0.002,0.123c0.235,0.292,0.525,0.279,0.807,0.267c0.146-0.007,0.293-0.013,0.449,0.015   c-0.335,0.667-0.748,1.22-1.184,1.805c-0.281,0.377-0.571,0.767-0.839,1.189c-0.016,0.025-0.02,0.056-0.011,0.084   s0.03,0.051,0.058,0.062C113.312,63.772,113.921,63.69,114.511,63.61z"/>
	<path d="M82.549,103.314c-0.029,0.007-0.053,0.026-0.066,0.054s-0.013,0.059,0,0.086c1.846,3.918,4.556,5.973,7.779,5.973   c0.77,0,1.569-0.117,2.393-0.354c0.389-0.111,0.777-0.18,1.153-0.246c0.729-0.129,1.418-0.251,2.092-0.659   c0.026-0.016,0.043-0.042,0.047-0.071c0.004-0.03-0.005-0.06-0.025-0.082c-0.452-0.498-0.899-0.559-1.293-0.613   c-0.254-0.034-0.495-0.067-0.712-0.216C91.083,103.311,87.471,102.077,82.549,103.314z M89.274,106.949   c-0.322-0.223-0.666-0.395-0.999-0.561c-0.502-0.251-0.981-0.489-1.392-0.891c0.626,0.084,1.138,0.336,1.675,0.601   c0.507,0.249,1.031,0.508,1.668,0.622c0.038,0.007,0.073-0.007,0.096-0.036c0.023-0.028,0.028-0.067,0.014-0.101l-0.585-1.405   c0.568,0.384,0.721,0.645,0.895,0.941c0.225,0.384,0.478,0.815,1.662,1.578l-3.164-0.319c-0.003,0-0.007,0-0.01,0s-0.007,0-0.01,0   c-0.049,0.005-0.085,0.008-0.113,0.008c0.029-0.031,0.066-0.067,0.096-0.095c0.063-0.062,0.135-0.131,0.188-0.199   c0.017-0.022,0.024-0.05,0.02-0.077C89.312,106.989,89.296,106.965,89.274,106.949z"/>
	<path d="M126.948,42.043c0.047,0,0.094,0,0.142-0.001c0.052-0.001,0.096-0.042,0.099-0.095c0.146-2.784-0.709-4.969-2.548-6.498   c-1.638-1.182-3.614-1.882-6.041-2.142c-0.029-0.001-0.059,0.007-0.08,0.028c-0.021,0.021-0.033,0.049-0.03,0.079   C118.881,38.827,122.04,42.043,126.948,42.043z M124.132,38.782l-2.194-2.353c1.548,0.849,2.748,2.095,3.507,3.644   c-0.934-0.75-1.891-0.975-3.26-1.297l-0.03-0.007c0.39-0.275,0.928-0.109,1.495,0.065c0.129,0.04,0.258,0.079,0.383,0.113   c0.043,0.012,0.088-0.007,0.112-0.045C124.168,38.863,124.163,38.814,124.132,38.782z"/>
	<path d="M225.916,139.482c-0.894,0.5-1.186,1.321-1.469,2.115c-0.097,0.271-0.188,0.528-0.303,0.774l-0.171,0.368   c-3.317,7.127-5.937,12.755-13.492,16.275c-0.037,0.018-0.061,0.056-0.058,0.097c0.002,0.041,0.03,0.077,0.069,0.09   c0.397,0.127,0.777,0.184,1.146,0.184c1.034,0,1.99-0.444,3.067-1.006c6.964-3.638,10.433-12.095,11.356-18.797   c0.006-0.038-0.011-0.075-0.042-0.097C225.989,139.467,225.95,139.464,225.916,139.482z"/>
	<path d="M248.307,64.83c-1.227,0.945-2.027,1.932-2.038,2.513c-0.002,0.076,0.043,0.149,0.121,0.2   c0.067,0.043,0.177,0.082,0.266,0.038c0.027-0.013,0.067-0.027,0.113-0.043c0.102-0.036,0.229-0.081,0.312-0.145   c3.23-2.458,6.395-3.673,9.675-3.715c0.053-0.001,0.104-0.001,0.154-0.001c5.476,0,6.958,3.877,7.674,5.75   c0.237,0.62,0.38,0.995,0.589,1.074c0.027,0.011,0.056,0.016,0.083,0.016c0.039,0,0.078-0.01,0.116-0.029   c0.356-0.185,0.504-0.906,0.386-1.882c-0.236-1.945-1.747-5.505-5.915-6.516C255.374,61.005,250.952,62.792,248.307,64.83z"/>
	<path d="M97.129,129.19c0.014-0.021,0.02-0.045,0.017-0.069c-0.016-0.126-0.101-0.227-0.239-0.28   c-0.289-0.114-0.772-0.021-1.036,0.198c-4.311,3.581-6.654,8.9-6.269,14.23c0.151,2.099,0.561,4.481,2.458,6.237   c0.019,0.018,0.043,0.026,0.068,0.026c0.017,0,0.034-0.004,0.05-0.013c0.038-0.021,0.057-0.065,0.048-0.108   C90.384,141.021,92.432,136.018,97.129,129.19z"/>
	<path d="M269.087,83.187c-0.021-0.028-0.059-0.043-0.09-0.04c-0.035,0.003-0.065,0.025-0.08,0.056   c-0.433,0.901-0.732,1.778-1.023,2.626c-0.154,0.452-0.314,0.919-0.492,1.382c-2.517,6.561-8.066,10.671-15.626,11.573   c-0.048,0.006-0.085,0.045-0.088,0.093s0.028,0.092,0.074,0.104c1.048,0.27,2.051,0.386,3.001,0.386   c3.009,0,5.49-1.163,7.195-2.297c3.903-2.597,6.742-7.042,7.407-11.601l0.016-0.103C269.49,84.632,269.604,83.873,269.087,83.187z"/>
	<path d="M266.871,95.989l-3.849,3.09c-2.177,1.747-5.148,2.491-9.347,2.357c-0.379-0.013-0.763-0.078-1.134-0.141   c-0.822-0.139-1.674-0.282-2.552,0.122c-0.034,0.016-0.057,0.05-0.058,0.088s0.02,0.073,0.053,0.092   c1.933,1.017,4.293,1.536,6.684,1.536c1.777,0,3.571-0.287,5.218-0.87c2.955-1.047,5.144-2.932,6.163-5.308   c0.162-0.377,0.073-0.816-0.107-0.975C267.722,95.787,267.159,95.757,266.871,95.989z"/>
	<path d="M161.951,18.743c0.344,0.248,0.67,0.481,0.952,0.795c0.001,0.471-0.136,0.906-0.281,1.366   c-0.183,0.58-0.372,1.179-0.26,1.854c0.005,0.032,0.026,0.06,0.056,0.074c0.03,0.013,0.064,0.012,0.093-0.005l2.703-1.594   c0.354,0.205,0.667,0.448,0.969,0.683c0.518,0.403,1.006,0.783,1.67,0.966c0.009,0.002,0.018,0.003,0.026,0.003   c0.024,0,0.049-0.009,0.067-0.026c0.025-0.023,0.037-0.058,0.031-0.092l-0.598-3.206c0.291-0.289,0.625-0.525,0.949-0.753   c0.506-0.357,1.03-0.727,1.394-1.304c0.018-0.029,0.021-0.065,0.005-0.097c-0.015-0.031-0.045-0.052-0.079-0.056l-3.238-0.358   c-0.197-0.371-0.312-0.774-0.423-1.165c-0.17-0.6-0.347-1.22-0.825-1.692c-0.024-0.024-0.058-0.031-0.09-0.027   c-0.033,0.007-0.06,0.029-0.072,0.06l-1.193,2.901c-0.421,0.074-0.845,0.07-1.26,0.064c-0.611-0.006-1.242-0.015-1.868,0.233   c-0.028,0.011-0.05,0.035-0.059,0.063c-0.009,0.029-0.004,0.061,0.013,0.086C161.013,18.068,161.49,18.411,161.951,18.743z"/>
	<path d="M229.568,41.755c0.019,0.02,0.045,0.031,0.072,0.031c0.011,0,0.021-0.002,0.031-0.005c0.646-0.213,1.116-0.574,1.57-0.924   c0.359-0.276,0.73-0.562,1.187-0.771l5.286-2.42c1.148-0.526,2.488-1.647,2.743-2.611c0.09-0.34,0.043-0.64-0.14-0.892   c-0.281-0.388-0.72-0.593-1.271-0.593c-0.011,0-0.021,0-0.033,0c-3.769,0.058-8.015,4.304-9.468,8.079   C229.533,41.686,229.542,41.727,229.568,41.755z"/>
	<path d="M221.803,106.066c0.031,0,0.062-0.016,0.08-0.041s0.023-0.059,0.015-0.089c-0.182-0.571-0.521-1.028-0.851-1.471   c-0.217-0.291-0.423-0.567-0.587-0.875c0.099-0.039,0.192-0.067,0.276-0.094c0.204-0.063,0.38-0.118,0.526-0.273   c0.03-0.031,0.036-0.078,0.016-0.116c-0.166-0.309-0.358-0.578-0.545-0.839c-0.256-0.358-0.52-0.729-0.719-1.206   c0.175-0.025,0.435-0.097,0.529-0.236c0.046-0.066,0.052-0.143,0.017-0.215l-1.631-3.393c-0.016-0.034-0.05-0.057-0.088-0.057   c-0.039,0.005-0.071,0.019-0.09,0.053c-0.234,0.438-0.432,0.861-0.623,1.271c-0.303,0.651-0.59,1.267-0.993,1.879   c-0.154,0.235,0.056,0.475,0.209,0.649c0.054,0.062,0.145,0.165,0.148,0.192l-1.133,1.956c-0.024,0.042-0.015,0.097,0.024,0.128   c0.16,0.128,0.355,0.17,0.544,0.209c0.071,0.016,0.14,0.029,0.205,0.048l-1.388,2.316c-0.018,0.03-0.019,0.068-0.002,0.1   s0.049,0.051,0.084,0.052l2.278,0.09c0.029,0.211,0.009,0.427-0.012,0.637c-0.033,0.343-0.063,0.667,0.125,0.927   c0.121,0.163,0.361,0.233,0.598,0.233c0.096,0,0.191-0.012,0.277-0.033c0.271-0.067,0.444-0.226,0.474-0.434   c0.046-0.311,0.033-0.565,0.023-0.791c-0.01-0.205-0.019-0.385,0.019-0.561L221.803,106.066z"/>
	<path d="M162.047,64.717c4.305-0.97,8.061-1.308,11.817-1.064c0.002,0,0.004,0,0.005,0l8.373,0.156   c0.04,0.001,0.093-0.035,0.101-0.084s-0.021-0.096-0.068-0.111c-5.447-1.733-15.95-2.828-20.689-0.272   c-0.378,0.203-0.59,0.616-0.578,0.898c0.006,0.128,0.071,0.243,0.188,0.332c0.147,0.112,0.365,0.173,0.59,0.173   C161.874,64.745,161.961,64.736,162.047,64.717z"/>
	<path d="M128.017,151.739c0.419-0.597,0.511-1.276,0.257-1.914c-0.247-0.617-0.841-1.053-1.55-1.137   c-1.602-0.191-2.933,0.602-4.218,1.366l-1.714,1.023c-0.036,0.021-0.055,0.062-0.047,0.104c0.047,0.256,0.089,0.503,0.13,0.743   c0.125,0.73,0.243,1.419,0.454,2.12c0.013,0.042,0.052,0.07,0.096,0.07c0,0,0,0,0.001,0   C123.877,154.089,126.579,153.785,128.017,151.739z"/>
	<path d="M109.862,150.263c-0.258-1.098-1.218-2.311-2.334-2.949c-0.809-0.464-1.572-0.901-2.377-1.579   c-0.037-0.03-0.089-0.031-0.126-0.003l-2.372,1.858c-0.036,0.028-0.048,0.076-0.031,0.117c0.377,0.917,0.902,1.688,1.407,2.397   c1.024,1.442,2.707,2.479,4.017,2.479c0.011,0,0.023,0,0.034,0c0.678-0.01,1.226-0.298,1.584-0.833   C109.929,151.354,109.997,150.839,109.862,150.263z"/>
	<path d="M234.752,144.971c0.209,0.018,0.411,0.025,0.607,0.025c0.629,0,1.196-0.077,1.749-0.152   c0.211-0.028,0.418-0.057,0.622-0.079c0.046-0.005,0.082-0.041,0.089-0.087c0.324-2.449,0.511-5.207-1.394-6.934   c-0.465-0.421-1.109-0.586-1.729-0.432c-0.483,0.118-0.878,0.482-1.145,1.054c-0.519,1.114-0.47,2.848,0.114,4.03   c0.154,0.314,0.28,0.707,0.402,1.087c0.17,0.533,0.347,1.084,0.61,1.446C234.696,144.953,234.723,144.969,234.752,144.971z"/>
	<path d="M145.484,153.381c-1.52,0.38-2.441,1.354-3.416,2.387c-0.416,0.44-0.845,0.895-1.337,1.321   c-0.035,0.029-0.044,0.079-0.024,0.12l1.344,2.674c0.018,0.034,0.052,0.055,0.089,0.055c0.011,0,0.021-0.001,0.032-0.005   c2.544-0.847,4.742-1.578,5.728-3.997c0.333-0.818,0.067-1.59-0.262-2.002C147.04,153.183,146.137,153.216,145.484,153.381z"/>
	<path d="M231.635,146.803c-0.187-0.565-0.526-0.958-0.983-1.135c-0.78-0.305-1.543-0.163-2.201,0.409   c-1.525,1.324-2.216,4.689-1.771,6.593c0.01,0.039,0.04,0.068,0.079,0.076c0.307,0.057,0.603,0.125,0.889,0.191   c0.646,0.15,1.261,0.293,1.93,0.293c0.091,0,0.184-0.003,0.276-0.009c0.044-0.002,0.08-0.033,0.091-0.075   c0.218-0.867,0.498-1.305,0.821-1.811l0.118-0.185C231.715,149.829,232.031,148.001,231.635,146.803z"/>
	<path d="M145.924,139.999c-1.914-0.516-4.968,0.746-6.419,2.218c-0.028,0.028-0.037,0.071-0.021,0.108   c0.086,0.208,0.168,0.408,0.247,0.603c0.311,0.767,0.579,1.428,1.004,2.124c0.019,0.03,0.051,0.048,0.085,0.048   c0.009,0,0.018-0.001,0.027-0.004c0.809-0.229,1.544-0.303,2.256-0.374c1.266-0.127,2.461-0.246,3.68-1.271   c0.61-0.514,0.905-1.235,0.749-1.838C147.316,140.771,146.775,140.229,145.924,139.999z"/>
	<path d="M183.538,157.417c-0.135-0.056-0.255-0.058-0.35-0.009c-0.12,0.064-0.178,0.229-0.196,0.298   c-0.05,0.18-0.034,0.362,0.042,0.488c1.159,1.929,1.39,3.803,1.613,5.615c0.281,2.296,0.548,4.464,2.826,6.132   c0.017,0.013,0.037,0.019,0.059,0.019c0.009,0,0.019-0.001,0.027-0.003c0.029-0.009,0.054-0.03,0.065-0.059   c0.903-2.177,0.893-4.459-0.033-6.973C187.302,162.022,184.629,157.86,183.538,157.417z"/>
	<path d="M235.163,50.658c0.029-0.025,0.041-0.066,0.031-0.104c-0.011-0.038-0.043-0.065-0.081-0.071l-2.793-0.434   c-0.139-0.3-0.223-0.621-0.305-0.931c-0.15-0.569-0.292-1.106-0.736-1.502c-0.039-0.036-0.101-0.033-0.139,0.006   c-0.341,0.358-0.469,0.819-0.593,1.264c-0.123,0.445-0.24,0.865-0.565,1.077c-0.346,0.225-0.802,0.192-1.282,0.158   c-0.471-0.034-0.955-0.068-1.397,0.126c-0.05,0.021-0.073,0.079-0.053,0.129c0.206,0.504,0.614,0.822,1.009,1.13   c0.321,0.25,0.652,0.509,0.866,0.866c-0.021,0.38-0.144,0.727-0.273,1.093c-0.171,0.479-0.348,0.976-0.283,1.562   c0.003,0.029,0.019,0.055,0.043,0.071c0.023,0.016,0.052,0.022,0.081,0.015c0.605-0.152,1.051-0.48,1.482-0.798   c0.296-0.218,0.576-0.425,0.901-0.575c0.324,0.202,0.611,0.433,0.89,0.657c0.455,0.366,0.885,0.712,1.409,0.879   c0.01,0.003,0.021,0.005,0.03,0.005c0.018,0,0.034-0.004,0.049-0.013c0.024-0.014,0.042-0.037,0.049-0.064   c0.118-0.501-0.076-1.055-0.248-1.543c-0.199-0.566-0.371-1.055-0.051-1.328L235.163,50.658z"/>
	<path d="M180.093,155.123c-0.031-0.025-0.074-0.029-0.11-0.011c-0.035,0.019-0.057,0.057-0.053,0.097   c0.24,2.599,0.118,4.436-0.419,6.338c-0.595,2.104-0.042,3.853,1.479,4.676c0.016,0.008,0.031,0.012,0.048,0.012   c0.028,0,0.056-0.012,0.075-0.034c1.228-1.408,1.828-3.45,1.648-5.602C182.577,158.391,181.579,156.344,180.093,155.123z"/>
	<path d="M89.11,132.935c-0.042-0.017-0.085,0-0.111,0.034c-0.769,1.004-1.698,1.952-2.777,1.352   c-0.504-0.279-0.681-0.775-0.885-1.351c-0.126-0.355-0.257-0.724-0.48-1.068c-0.017-0.025-0.045-0.043-0.076-0.045   c-0.031-0.001-0.062,0.01-0.082,0.033c-0.983,1.094-1.385,4.533-0.442,6.171c0.326,0.566,0.785,0.858,1.341,0.858   c0.118,0,0.24-0.014,0.366-0.04c3-0.625,3.248-4.301,3.216-5.852C89.178,132.984,89.15,132.947,89.11,132.935z"/>
	<path d="M192.732,27.837c0.254,0.187,0.516,0.38,0.73,0.624l-0.494,2.384c-0.006,0.028,0.001,0.058,0.018,0.081   c0.018,0.023,0.045,0.037,0.073,0.039c0.024,0.002,0.049,0.002,0.073,0.002c0.447,0,0.787-0.276,1.116-0.544   c0.35-0.285,0.68-0.555,1.124-0.493c0.377,0.052,0.67,0.296,0.953,0.531c0.311,0.257,0.631,0.523,1.053,0.523   c0.018,0,0.034,0,0.052-0.001c0.045-0.002,0.083-0.035,0.093-0.079c0.089-0.402-0.059-0.811-0.2-1.206   c-0.16-0.441-0.311-0.859-0.13-1.234c0.137-0.282,0.422-0.461,0.725-0.651c0.374-0.235,0.762-0.478,0.95-0.948   c0.012-0.029,0.009-0.061-0.007-0.088s-0.043-0.044-0.073-0.048l-2.445-0.306c-0.109-0.258-0.191-0.525-0.271-0.785   c-0.148-0.49-0.303-0.996-0.646-1.428c-0.021-0.026-0.05-0.033-0.088-0.037c-0.034,0.003-0.063,0.024-0.079,0.054l-1.158,2.265   c-0.312,0.04-0.623,0.044-0.924,0.048c-0.453,0.006-0.921,0.012-1.39,0.143c-0.029,0.008-0.053,0.029-0.064,0.058   c-0.013,0.028-0.011,0.06,0.004,0.087C191.975,27.278,192.36,27.562,192.732,27.837z"/>
	<path d="M90.021,131.483c0.019-0.024,0.025-0.056,0.018-0.085c-0.116-0.477-0.165-0.989-0.217-1.532   c-0.079-0.828-0.16-1.684-0.502-2.398c-0.193-0.403-0.531-0.65-0.979-0.714c-0.605-0.078-1.327,0.189-1.753,0.669   c-1.151,1.293-1.378,3.221-0.58,4.91c0.233,0.495,0.705,0.799,1.203,0.799c0.086,0,0.173-0.01,0.259-0.028   c0.629-0.136,0.931-0.765,1.174-1.27c0.136-0.285,0.276-0.583,0.4-0.552c0.057,0.013,0.111,0.04,0.173,0.072   c0.146,0.075,0.328,0.168,0.693,0.168C89.95,131.521,89.996,131.515,90.021,131.483z"/>
	<path d="M193.889,162.938c-1.395-0.772-2.59-1.683-3.854-2.646c-0.957-0.729-1.947-1.484-3.045-2.186   c-0.033-0.021-0.075-0.021-0.108,0c-0.032,0.021-0.05,0.06-0.044,0.099c0.162,1.094,0.718,1.854,1.255,2.589   c0.278,0.38,0.565,0.773,0.788,1.204c0.729,1.407,2.538,3.097,4.193,3.373c0.161,0.026,0.318,0.04,0.47,0.04   c0.601,0,1.124-0.21,1.562-0.628c0.017-0.016,0.027-0.037,0.03-0.061C195.206,164.119,194.369,163.204,193.889,162.938z"/>
	<path d="M174.533,21.271c-0.072,0.291-0.186,0.569-0.294,0.839c-0.173,0.426-0.352,0.867-0.367,1.354   c-0.001,0.034,0.015,0.065,0.042,0.085c0.026,0.02,0.062,0.024,0.094,0.012l2.268-0.877c0.236,0.139,0.439,0.343,0.636,0.541   c0.301,0.302,0.612,0.614,1.052,0.71c0.007,0.001,0.015,0.002,0.021,0.002c0.003,0,0.007,0,0.01,0   c0.1-0.01,0.177-0.052,0.229-0.125c0.138-0.195,0.05-0.551-0.062-1.001c-0.127-0.519-0.272-1.106-0.02-1.375   c0.183-0.195,0.425-0.324,0.682-0.46c0.378-0.202,0.77-0.411,1.029-0.854c0.017-0.027,0.019-0.06,0.007-0.089   c-0.013-0.029-0.037-0.051-0.067-0.059l-2.264-0.591c-0.274-0.072-0.322-0.469-0.379-0.929c-0.051-0.413-0.107-0.881-0.361-1.188   c-0.032-0.038-0.09-0.048-0.132-0.02c-0.426,0.279-0.602,0.732-0.771,1.171c-0.108,0.28-0.22,0.57-0.397,0.813l-2.361,0.039   c-0.038,0.001-0.072,0.023-0.089,0.058c-0.016,0.035-0.011,0.076,0.013,0.105L174.533,21.271z"/>
	<path d="M152.233,21.575c0.244,0.195,0.125,0.605-0.013,1.08c-0.121,0.417-0.247,0.848-0.153,1.232   c0.007,0.031,0.029,0.056,0.058,0.068c0.013,0.005,0.026,0.008,0.04,0.008c0.017,0,0.034-0.004,0.05-0.013l2.163-1.241   c0.235-0.137,0.502,0.075,0.813,0.316c0.341,0.265,0.727,0.567,1.171,0.459c0.027-0.006,0.05-0.024,0.063-0.048   c0.014-0.024,0.017-0.053,0.008-0.08l-0.691-2.17c0.175-0.237,0.382-0.436,0.601-0.646c0.326-0.313,0.663-0.638,0.931-1.122   c0.015-0.026,0.017-0.058,0.005-0.086c-0.012-0.028-0.035-0.049-0.064-0.058c-0.445-0.132-0.875-0.086-1.332-0.038   c-0.319,0.034-0.648,0.069-0.988,0.039l-1.193-2.048c-0.016-0.028-0.044-0.046-0.076-0.049c-0.031-0.001-0.063,0.009-0.085,0.033   c-0.295,0.331-0.35,0.833-0.398,1.277c-0.051,0.472-0.095,0.88-0.395,0.958l-2.198,0.573c-0.037,0.009-0.064,0.039-0.072,0.076   s0.005,0.075,0.035,0.099L152.233,21.575z"/>
	<path d="M193.782,145.772c0.011,0,0.021-0.001,0.031-0.005c0.039-0.013,0.066-0.048,0.068-0.089c0.125-2.075-1.19-4.897-4.37-6.189   c-1.545-0.627-3.126-0.496-4.339,0.357c-0.022,0.017-0.038,0.041-0.042,0.069c-0.003,0.027,0.005,0.056,0.022,0.077   c0.797,0.952,1.995,1.354,2.827,1.574c2.384,0.631,3.958,2.063,5.726,4.17C193.725,145.76,193.753,145.772,193.782,145.772z"/>
	<path d="M238.22,44.041c0.012-0.001,0.022-0.005,0.032-0.011c0.521-0.287,0.808-0.613,0.854-0.967   c0.046-0.35-0.059-0.67-0.349-1.049c-0.721-0.702-1.837-1.025-3.197-0.931c-2.213,0.148-4.67,1.339-5.843,2.833   c-0.025,0.033-0.028,0.079-0.005,0.115c0.022,0.036,0.064,0.051,0.106,0.044c2.598-0.594,3.891-0.366,5.14-0.144   c0.623,0.11,1.224,0.217,1.957,0.217C237.305,44.146,237.732,44.116,238.22,44.041z"/>
	<path d="M130.57,42.078c0.014,0.007,0.029,0.011,0.045,0.011c0.017,0,0.033-0.004,0.048-0.012c3.246-1.767,4.777-4.457,4.312-7.574   c-0.005-0.03-0.022-0.056-0.048-0.071c-0.025-0.016-0.056-0.019-0.085-0.008c-3.212,1.162-4.829,3.996-4.326,7.58   C130.521,42.035,130.541,42.063,130.57,42.078z"/>
	<path d="M68.386,74.749c0.03,0.005,0.06,0.008,0.09,0.008c0.479,0,0.901-0.657,1.109-0.982c0,0,0,0,0,0   c1.287-2.012,3.258-3.207,6.026-3.652c0.36-0.058,0.721-0.064,1.103-0.07c0.697-0.012,1.418-0.023,2.121-0.377   c0.033-0.017,0.054-0.049,0.055-0.086c0.001-0.037-0.018-0.071-0.049-0.09c-3.277-1.922-7.694-0.863-10.058,2.414   c-0.511,0.709-0.941,1.863-0.469,2.783C68.328,74.724,68.354,74.743,68.386,74.749z"/>
	<path d="M216.603,52.714c-2.773,2.9-5.558,3.445-7.054,3.738c-0.747,0.146-1.197,0.235-1.276,0.532   c-0.035,0.132,0.001,0.252,0.104,0.35c0.21,0.2,0.719,0.295,1.399,0.295c1.14,0,2.76-0.266,4.263-0.75   c1.47-0.474,3.988-1.542,4.339-3.376c0.089-0.469-0.274-0.971-0.624-1.039C217.486,52.414,216.872,52.432,216.603,52.714z"/>
	<path d="M177.5,155.301c-0.039,0.003-0.073,0.028-0.087,0.065c-0.558,1.54-1.256,2.587-2.494,3.731   c-0.953,0.881-1.935,2.637-1.132,3.78c0.017,0.023,0.042,0.038,0.07,0.042c0.075,0.009,0.152,0.014,0.231,0.014   c0.988,0,2.166-0.708,2.754-1.43c1.515-1.859,1.796-4.158,0.753-6.15C177.577,155.319,177.545,155.307,177.5,155.301z"/>
	<path d="M128.975,37.953c0,0,0.001,0,0.001,0c0.032,0,0.061-0.016,0.08-0.042c1.775-2.453,1.768-5.611-0.018-8.046   c-0.018-0.024-0.045-0.039-0.075-0.041c-0.034-0.01-0.059,0.009-0.079,0.032c-1.634,1.76-2.328,5.032,0.011,8.057   C128.915,37.938,128.944,37.953,128.975,37.953z"/>
	<path d="M239.651,104.23c0,1.216,0.989,2.205,2.206,2.205c1.216,0,2.205-0.989,2.205-2.205c0-1.217-0.989-2.206-2.205-2.206   C240.641,102.024,239.651,103.014,239.651,104.23z"/>
	<path d="M254.825,113.771c-0.03,0.004-0.058,0.021-0.073,0.049c-0.015,0.026-0.018,0.059-0.006,0.087   c0.825,2.033,2.799,3.839,5.13,3.839c0.439,0,0.893-0.064,1.353-0.203c0.051-0.016,0.081-0.068,0.067-0.12   C260.596,114.673,257.461,113.403,254.825,113.771z"/>
	<path d="M226.315,27.302c0.179,0.129,0.364,0.263,0.522,0.42l-0.344,1.932c-0.005,0.029,0.003,0.058,0.021,0.081   c0.019,0.022,0.046,0.036,0.075,0.037c0.396,0.008,0.684-0.215,0.969-0.433c0.301-0.229,0.56-0.427,0.895-0.343   c0.278,0.071,0.499,0.248,0.711,0.417c0.257,0.205,0.521,0.416,0.872,0.416c0.035,0,0.072-0.002,0.109-0.007   c0.044-0.005,0.079-0.039,0.087-0.082c0.057-0.324-0.087-0.67-0.227-1.004c-0.15-0.363-0.281-0.677-0.111-0.852l1.325-1.36   c0.022-0.022,0.032-0.053,0.027-0.084c-0.004-0.031-0.022-0.058-0.05-0.073c-0.303-0.169-0.693-0.152-1.034-0.139   c-0.374,0.014-0.698,0.029-0.812-0.18l-0.918-1.706c-0.015-0.027-0.04-0.046-0.07-0.051c-0.031-0.006-0.061,0.004-0.084,0.024   c-0.297,0.266-0.397,0.629-0.485,0.95c-0.088,0.317-0.163,0.591-0.396,0.727c-0.25,0.144-0.546,0.131-0.867,0.117   c-0.353-0.014-0.727-0.032-1.04,0.186c-0.041,0.028-0.055,0.081-0.033,0.125C225.646,26.819,225.986,27.064,226.315,27.302z"/>
	<path d="M164.328,97.006c-0.039,0.014-0.064,0.051-0.065,0.092s0.023,0.078,0.062,0.094l8.047,3.376   c0.112,0.048,0.225,0.097,0.337,0.146c0.583,0.256,1.182,0.519,1.872,0.519c0.231,0,0.474-0.029,0.729-0.099   c0.036-0.01,0.064-0.04,0.072-0.077c0.007-0.038-0.008-0.076-0.038-0.1C173.68,99.691,167.97,95.667,164.328,97.006z"/>
	<path d="M254.654,110.666c0.115,0.026,0.232,0.039,0.35,0.039c0.387,0,0.771-0.14,1.058-0.395c0.349-0.31,0.513-0.745,0.462-1.227   c-0.163-1.541-1.508-2.877-3.062-3.042c-0.024-0.002-0.049-0.004-0.072-0.004c-0.638,0-1.036,0.898-1.101,1.38   C252.092,108.888,253.131,110.314,254.654,110.666z"/>
	<path d="M138.124,62.41c0.005,0.049,0.044,0.087,0.094,0.09c0.016,0.001,0.031,0.001,0.046,0.001c0.505,0,0.713-0.503,0.826-0.777   c0.656-1.59,1.608-2.814,3.286-4.225c0.032-0.027,0.044-0.072,0.029-0.112c-0.015-0.039-0.052-0.065-0.094-0.065   c0,0-0.001,0-0.002,0c-1.631,0.032-2.469-0.087-3.061-1.267c-0.02-0.04-0.06-0.06-0.109-0.053c-0.897,0.181-1.463,0.764-2.07,1.389   c-0.02,0.021-0.03,0.048-0.028,0.077s0.016,0.054,0.038,0.072c1.302,1.025,1.215,1.881,1.093,3.066   C138.119,61.133,138.058,61.729,138.124,62.41z"/>
	<path d="M251.815,106.219c0.096-0.257,0.078-0.525-0.054-0.797c-0.263-0.545-1.434-1.336-2.493-1.501   c-0.598-0.091-1.073,0.03-1.381,0.355c-0.787,0.832,0.429,2.467,1.588,3.69c0.036,0.039,0.054,0.055,0.05,0.047l0.936,2.153   c0.069,0.159,0.212,0.274,0.392,0.316c0.046,0.011,0.093,0.017,0.139,0.017c0.133,0,0.262-0.044,0.361-0.128   c0.394-0.33-0.063-1.035-0.548-1.782c-0.258-0.397-0.523-0.807-0.604-1.096C250.852,107.207,251.598,106.806,251.815,106.219z"/>
	<path d="M229.921,33.659c-1.251,1.736-1.669,3.862-1.178,5.987c0.01,0.042,0.046,0.073,0.089,0.077c0.003,0,0.006,0,0.009,0   c0.04,0,0.076-0.023,0.092-0.061c0.314-0.731,0.997-1.616,1.657-2.472c1.236-1.604,2.516-3.263,1.614-4.191   c-0.195-0.201-0.458-0.298-0.761-0.273C230.859,32.771,230.224,33.24,229.921,33.659z"/>
	<path d="M142.438,23.938c0.255,0.132,0.495,0.258,0.614,0.495c0.118,0.234,0.074,0.513,0.028,0.808   c-0.053,0.341-0.108,0.693,0.078,1.017c0.018,0.031,0.052,0.05,0.087,0.05c0.006,0,0.012,0,0.018-0.002   c0.291-0.053,0.498-0.267,0.698-0.473c0.206-0.213,0.401-0.414,0.672-0.438c0.306-0.028,0.564,0.108,0.841,0.251   c0.29,0.15,0.59,0.303,0.936,0.254c0.028-0.004,0.053-0.02,0.068-0.043c0.016-0.024,0.021-0.053,0.014-0.08l-0.454-1.786   c-0.051-0.2,0.127-0.352,0.427-0.578c0.285-0.215,0.607-0.459,0.604-0.839c0-0.043-0.029-0.082-0.07-0.095   c-0.299-0.092-0.635-0.035-0.961,0.019c-0.382,0.066-0.712,0.121-0.855-0.091l-0.949-1.41c-0.018-0.026-0.047-0.043-0.078-0.044   c-0.04-0.004-0.062,0.013-0.083,0.037c-0.26,0.318-0.319,0.685-0.376,1.04c-0.041,0.257-0.081,0.5-0.189,0.731l-1.784,0.402   c-0.031,0.007-0.058,0.029-0.07,0.059c-0.013,0.03-0.01,0.063,0.006,0.091C141.856,23.635,142.166,23.796,142.438,23.938z"/>
	<path d="M183.894,23.616c0.156,0.14,0.318,0.285,0.447,0.46l-0.596,1.664c-0.01,0.025-0.008,0.053,0.003,0.077   c0.012,0.024,0.032,0.042,0.058,0.051c0.405,0.145,0.701-0.059,0.987-0.255c0.225-0.153,0.449-0.295,0.699-0.284   c0.302,0.017,0.502,0.218,0.733,0.451c0.198,0.199,0.423,0.424,0.739,0.539c0.012,0.004,0.022,0.006,0.034,0.006   c0.037,0,0.073-0.021,0.09-0.057c0.182-0.377,0.125-0.746,0.075-1.071c-0.046-0.301-0.086-0.562,0.044-0.799   c0.12-0.221,0.353-0.33,0.598-0.445c0.299-0.14,0.608-0.285,0.742-0.644c0.017-0.044,0-0.094-0.04-0.12   c-0.25-0.159-0.561-0.19-0.861-0.22c-0.341-0.034-0.662-0.066-0.866-0.273c-0.166-0.168-0.199-0.414-0.237-0.699   c-0.044-0.323-0.093-0.688-0.358-1.007c-0.02-0.023-0.045-0.033-0.081-0.036c-0.03,0.001-0.06,0.017-0.077,0.042l-1.077,1.502   c-0.107,0.149-0.334,0.113-0.69,0.038c-0.315-0.065-0.676-0.143-1-0.017c-0.047,0.018-0.073,0.068-0.061,0.117   C183.309,23.092,183.606,23.358,183.894,23.616z"/>
	<circle cx="146.954" cy="53.835" r="2.011"/>
	<path d="M75.298,66.741c0.231,0,0.443-0.033,0.624-0.104c0.05-0.02,0.076-0.076,0.058-0.127c-0.65-1.8-1.747-3.107-3.258-3.886   c-0.011-0.005-0.022-0.009-0.034-0.01c-0.631-0.075-1.318-0.076-1.635,0.463c-0.302,0.515-0.173,1.124,0.371,1.76   C72.262,65.819,74.067,66.741,75.298,66.741z"/>
	<path d="M91.627,100.971c0.057,0,0.1-0.018,0.131-0.039c0.11-0.075,0.139-0.24,0.085-0.489c-0.556-2.594-0.85-4.721-0.952-6.896   c-0.012-0.251-0.191-0.477-0.355-0.604c-0.156-0.121-0.316-0.174-0.44-0.151c-0.229,0.047-0.588,0.319-0.652,0.656   c-0.745,3.913,1.038,6.855,1.907,7.423C91.467,100.945,91.558,100.971,91.627,100.971z"/>
	<path d="M120.322,154.069c0.002-0.004,0.003-0.008,0.004-0.012c0.164-0.6-0.004-1.184-0.166-1.749   c-0.098-0.343-0.2-0.697-0.22-1.041c-0.002-0.043-0.032-0.079-0.074-0.091c-0.958-0.258-2.246-0.116-2.963,0.779   c-0.294,0.368-0.388,0.851-0.257,1.325c0.148,0.538,0.55,0.977,1.075,1.173c0.274,0.102,0.729,0.18,1.185,0.18   C119.527,154.634,120.15,154.49,120.322,154.069z"/>
	<path d="M227.88,157.514c0.026,0.001,0.052,0.002,0.078,0.002c0.48,0,0.879-0.176,1.184-0.523c0.588-0.67,0.699-1.864,0.548-2.751   c-0.007-0.039-0.035-0.07-0.072-0.08c-0.988-0.266-1.828-0.404-2.899-0.481c-0.036,0.002-0.074,0.017-0.094,0.05   c-0.524,0.904-0.554,2.061-0.076,2.945C226.82,157.179,227.318,157.492,227.88,157.514z"/>
	<path d="M237.569,145.845c-0.6-0.287-1.308-0.171-1.992-0.062c-0.336,0.055-0.653,0.105-0.939,0.105c-0.007,0-0.013,0-0.019,0   h-0.001c-0.047,0-0.087,0.032-0.098,0.077c-0.264,1.163-0.211,3.119,1.058,3.418c0.159,0.037,0.312,0.057,0.46,0.057   c0.501,0,0.926-0.221,1.29-0.667c0.545-0.666,0.881-2.356,0.266-2.912C237.586,145.854,237.578,145.849,237.569,145.845z"/>
	<path d="M102.196,146.774c0.942-0.372,1.752-1.227,2.237-1.738c0.021-0.021,0.03-0.051,0.026-0.08   c-0.085-0.691-0.69-1.519-1.408-1.923c-0.522-0.296-1.043-0.341-1.506-0.134c-0.48,0.216-1.022,0.772-0.97,1.631   c0.031,0.514,0.406,1.521,0.947,1.995c0.196,0.171,0.396,0.258,0.594,0.258C102.144,146.783,102.171,146.784,102.196,146.774z"/>
	<path d="M139.823,157.503c-0.527-0.136-1.601,0.223-2.248,0.918c-0.461,0.495-0.605,1.048-0.417,1.599   c0.256,0.748,0.816,1.159,1.579,1.159c0.005,0,0.011,0,0.016,0c0.489-0.004,1.641-0.164,2.076-0.636   c0.132-0.143,0.192-0.304,0.179-0.478c-0.079-1.084-0.886-2.208-1.132-2.526C139.863,157.521,139.844,157.509,139.823,157.503z"/>
	<path d="M138.466,142.661c-0.859,0.247-1.479,0.649-2.01,1.306c-0.362,0.446-0.483,1.104-0.308,1.677   c0.147,0.483,0.48,0.827,0.938,0.967c0.191,0.059,0.385,0.085,0.58,0.085c0.889,0,1.775-0.56,2.301-1.182   c0.025-0.029,0.031-0.069,0.016-0.104c-0.501-1.148-0.837-1.894-1.406-2.71C138.551,142.664,138.506,142.646,138.466,142.661z"/>
	<path d="M197.789,140.573c-0.853-1.315-2.744-1.64-4.166-1.276c-0.048,0.012-0.08,0.057-0.075,0.105   c0.085,0.947,0.732,1.246,1.418,1.562c0.937,0.433,1.999,0.924,1.916,3.283c-0.002,0.04,0.021,0.077,0.058,0.095   c0.013,0.006,0.027,0.009,0.042,0.009c0.024,0,0.048-0.009,0.066-0.025C198.173,143.32,198.499,141.672,197.789,140.573z"/>
	<circle cx="261.09" cy="58" r="1.795"/>
	<path d="M103.974,43.038c0,0.974,0.792,1.766,1.766,1.766s1.766-0.792,1.766-1.766s-0.792-1.766-1.766-1.766   S103.974,42.064,103.974,43.038z"/>
	<path d="M82.34,122.371c-0.942,0-1.708,0.766-1.708,1.708c0,0.941,0.766,1.707,1.708,1.707s1.708-0.766,1.708-1.707   C84.048,123.137,83.282,122.371,82.34,122.371z"/>
	<circle cx="76.005" cy="109.124" r="1.597"/>
	<circle cx="236.089" cy="98.902" r="1.556"/>
	<path d="M177.392,99.753c0.019,0.029,0.05,0.046,0.084,0.046c0.033-0.01,0.07-0.021,0.088-0.053   c0.328-0.615,0.376-1.299,0.14-1.977c-0.304-0.873-1.081-1.69-1.98-2.084c-0.195-0.086-0.421-0.078-0.636,0.026   c-0.202,0.098-0.366,0.269-0.407,0.426c-0.171,0.644,0.224,0.985,0.821,1.503C176.009,98.08,176.705,98.683,177.392,99.753z"/>
	<path d="M233.589,111.659c0.764,0,1.385-0.62,1.385-1.384s-0.621-1.385-1.385-1.385s-1.385,0.621-1.385,1.385   S232.825,111.659,233.589,111.659z"/>
	<path d="M93.41,40.729c0.053,0.018,0.107,0.027,0.165,0.027c0.336,0,0.749-0.295,1.217-0.628c0.414-0.295,0.882-0.629,1.345-0.787   c0.037-0.013,0.063-0.045,0.067-0.083c0.089-0.799-0.586-1.267-1.294-1.376c-0.411-0.065-0.808,0.115-1.158,0.515   c-0.506,0.576-0.818,1.534-0.738,1.809C93.096,40.494,93.226,40.665,93.41,40.729z"/>
	<path d="M95.271,143.899c0.14,0.064,0.307,0.098,0.463,0.098c0.118,0,0.229-0.02,0.319-0.058c0.558-0.24,0.828-1.448,0.678-2.288   c-0.108-0.607-0.406-0.955-0.839-0.979c-0.022-0.002-0.044-0.002-0.066-0.002c-0.305,0-0.553,0.12-0.737,0.356   c-0.487,0.623-0.384,1.91-0.224,2.429C94.924,143.65,95.065,143.804,95.271,143.899z"/>
	<path d="M177.39,142.555c0.023-0.005,0.044-0.019,0.058-0.037c0.368-0.48,0.377-1.028,0.024-1.501   c-0.009-0.013-0.021-0.022-0.035-0.029c-0.747-0.376-1.556-0.487-2.412-0.329c-0.013,0.003-0.026,0.008-0.037,0.016   c-0.344,0.23-0.522,0.614-0.478,1.025c0.027,0.25,0.153,0.457,0.374,0.616c0.35,0.251,0.901,0.351,1.46,0.351   C176.707,142.666,177.073,142.624,177.39,142.555z"/>
	<path d="M97.045,136.343c-0.447-0.101-0.837,0.082-1.042,0.482c-0.361,0.708-0.735,1.675-0.464,2.261   c0.106,0.23,0.301,0.381,0.579,0.447c0.08,0.019,0.158,0.028,0.233,0.028c0.168,0,0.326-0.048,0.47-0.143   c0.404-0.267,0.697-0.914,0.87-1.924C97.793,136.903,97.54,136.45,97.045,136.343z"/>
	<path d="M243.325,146.656c-0.996,0.219-1.033,1.957-0.964,2.608c0.054,0.503,0.544,0.729,0.877,0.729c0.001,0,0.001,0,0.002,0   c0.288,0,0.532-0.132,0.724-0.39c0.495-0.669,0.484-1.96,0.341-2.437C244.163,146.699,243.646,146.584,243.325,146.656z"/>
	<path d="M193.898,157.759c-0.319,0.13-0.501,0.499-0.485,0.985c0.013,0.42,0.514,0.861,1.004,1.112   c0.309,0.157,0.692,0.28,1.049,0.28c0.227,0,0.442-0.05,0.622-0.171c0.167-0.113,0.272-0.288,0.305-0.506   c0.04-0.27-0.04-0.583-0.199-0.78C195.979,158.414,194.684,157.444,193.898,157.759z"/>
	<path d="M239.389,154.913c-0.374,0.23-1.334,1.133-1.379,1.896c-0.018,0.297,0.097,0.546,0.34,0.738   c0.161,0.128,0.339,0.192,0.53,0.192c0.063,0,0.128-0.007,0.194-0.021c0.747-0.16,1.41-1.16,1.603-1.532   c0.229-0.44,0.129-0.971-0.23-1.231C240.197,154.771,239.742,154.695,239.389,154.913z"/>
	<path d="M157.121,153.276c-0.271,0.067-0.461,0.231-0.566,0.488c-0.269,0.659,0.12,1.8,0.467,2.363   c0.175,0.284,0.442,0.396,0.712,0.396c0.159,0,0.318-0.039,0.46-0.105c0.195-0.092,0.331-0.247,0.404-0.463   c0.266-0.783-0.39-2.087-0.465-2.233C157.938,153.348,157.542,153.171,157.121,153.276z"/>
	<path d="M242.473,151.03c-0.911-0.267-1.405,0.981-1.699,1.724c-0.213,0.538-0.048,1.085,0.384,1.271   c0.165,0.071,0.325,0.106,0.478,0.106c0.355,0,0.665-0.191,0.873-0.555l0.042-0.074c0.27-0.47,0.502-0.875,0.583-1.355   C243.228,151.584,242.987,151.177,242.473,151.03z"/>
	<path d="M172.977,140.687c-0.32-0.172-1.534-0.341-2.244,0.039c-0.325,0.173-0.507,0.433-0.541,0.773   c-0.038,0.374,0.165,0.934,0.734,1.006c0.166,0.021,0.332,0.03,0.502,0.03c0.469,0,0.976-0.079,1.632-0.248   c0.021-0.005,0.038-0.017,0.052-0.033c0.238-0.29,0.345-0.674,0.279-1.001C173.341,141.004,173.194,140.802,172.977,140.687z"/>
	<path d="M197.911,159.734c-0.21,0.028-0.441,0.192-0.576,0.407c-0.095,0.151-0.186,0.397-0.083,0.711   c0.236,0.724,1.269,1.221,2.091,1.221c0.1,0,0.195-0.008,0.286-0.022c0.451-0.073,0.667-0.467,0.608-1.109   c-0.018-0.198-0.146-0.394-0.381-0.581C199.356,159.961,198.431,159.653,197.911,159.734z"/>
	<path d="M99.559,132.588c-0.423-0.335-0.924-0.335-1.275-0.004c-0.544,0.512-1.07,1.423-1.009,2.062   c0.026,0.271,0.149,0.479,0.367,0.616c0.166,0.104,0.333,0.157,0.5,0.157c0.073,0,0.145-0.011,0.217-0.03   c0.62-0.173,1.063-1.054,1.356-1.637l-0.078-0.067l0.089,0.045C99.965,133.255,99.823,132.795,99.559,132.588z"/>
	<path d="M219.845,163.417c-0.518,0.021-1.158,0.156-1.406,0.474c-0.155,0.196-0.226,0.53-0.17,0.812   c0.045,0.229,0.164,0.403,0.345,0.506c0.307,0.174,0.712,0.26,1.132,0.26c0.428,0,0.871-0.089,1.241-0.269   c0.229-0.111,0.376-0.304,0.423-0.557c0.067-0.355-0.078-0.743-0.249-0.928C220.929,163.464,220.33,163.391,219.845,163.417z"/>
	<path d="M156.707,151.609c0.105,0.278,0.316,0.462,0.628,0.546c0.077,0.021,0.15,0.03,0.22,0.03c0.805,0,1.157-1.295,1.354-2.017   c0.125-0.464-0.066-0.918-0.466-1.106c-0.379-0.178-0.906-0.137-1.187,0.286C156.897,149.892,156.455,150.941,156.707,151.609z"/>
	<path d="M191.796,158.014c0.094,0,0.184-0.012,0.269-0.037c0.208-0.063,0.479-0.276,0.595-0.561   c0.091-0.224,0.074-0.457-0.046-0.677c-0.434-0.783-1.469-1.377-2.228-1.267c-0.247,0.035-0.439,0.158-0.557,0.354   c-0.184,0.31-0.142,0.714-0.04,0.99C189.906,157.132,190.986,158.014,191.796,158.014z"/>
	<path d="M201.619,161.432c-0.208,0.145-0.357,0.43-0.38,0.728c-0.021,0.278,0.068,0.528,0.254,0.703   c0.416,0.395,1.09,0.686,1.723,0.686c0.273,0,0.54-0.054,0.774-0.179c0.194-0.103,0.319-0.281,0.362-0.517   c0.054-0.299-0.041-0.666-0.226-0.873C203.896,161.72,202.276,160.979,201.619,161.432z"/>
	<path d="M96.934,147.979c0.331-0.654-0.023-1.835-0.284-2.43c-0.218-0.495-0.823-0.454-1.174-0.308   c-0.187,0.078-0.323,0.227-0.407,0.44c-0.265,0.678,0.075,1.828,0.281,2.279c0.152,0.332,0.489,0.481,0.803,0.481   c0.07,0,0.138-0.007,0.203-0.021C96.621,148.362,96.815,148.213,96.934,147.979z"/>
	<path d="M236.72,157.887c-0.018-0.001-0.034-0.002-0.052-0.002c-0.677,0-1.44,0.693-1.842,1.113   c-0.352,0.366-0.253,0.961,0.057,1.265c0.18,0.176,0.394,0.265,0.638,0.265c0.006,0,0.011,0,0.016,0   c0.615-0.01,1.28-0.57,1.729-1.039c0.435-0.454,0.329-0.953,0.106-1.242C237.2,158.021,236.981,157.9,236.72,157.887z"/>
	<path d="M239.394,134.162c-0.216-0.032-0.4,0.022-0.556,0.16c-0.235,0.208-0.353,0.449-0.351,0.718   c0.005,0.638,0.702,1.314,1.309,1.833c0.223,0.19,0.443,0.24,0.612,0.24c0.034,0,0.066-0.003,0.096-0.006   c0.232-0.025,0.453-0.149,0.589-0.331c0.249-0.33,0.273-0.729,0.063-1.065C240.8,135.14,240.036,134.256,239.394,134.162z"/>
	<path d="M169.094,157.486c-0.501,0.102-0.934,0.276-1.471,0.524c-0.266,0.123-0.459,0.331-0.545,0.585   c-0.083,0.243-0.062,0.513,0.057,0.739c0.119,0.226,0.295,0.376,0.522,0.445c0.102,0.031,0.21,0.045,0.323,0.045   c0.508,0,1.106-0.282,1.597-0.548c0.473-0.257,0.675-0.698,0.526-1.153C169.999,157.796,169.612,157.38,169.094,157.486z"/>
	<path d="M100.19,131.475c0.178,0.203,0.385,0.306,0.618,0.306c0.052,0,0.104-0.005,0.158-0.016c0.733-0.136,1.48-1.209,1.638-1.638   c0.162-0.437-0.057-0.928-0.364-1.114c-0.187-0.112-0.523-0.184-0.854-0.015c-0.487,0.246-1.271,0.942-1.409,1.651   C99.915,130.966,99.987,131.243,100.19,131.475z"/>
	<path d="M169.03,146.912c0.299-0.129,0.474-0.568,0.425-1.068c-0.037-0.371-0.604-0.77-1.115-0.982   c-0.683-0.284-1.289-0.289-1.628-0.015c-0.385,0.314-0.374,0.959-0.108,1.326c0.119,0.162,1.24,0.81,2.034,0.81   C168.782,146.982,168.915,146.962,169.03,146.912z"/>
	<path d="M163.28,145.268c0.592-0.237,1.067-0.521,1.497-0.892c0.192-0.165,0.291-0.402,0.278-0.669   c-0.011-0.234-0.108-0.474-0.265-0.657c-0.356-0.412-1.204-0.222-1.859,0.183c-0.582,0.358-1.116,0.95-0.872,1.537   c0.13,0.312,0.428,0.578,0.829,0.578C163.009,145.348,163.141,145.323,163.28,145.268z"/>
	<path d="M207.956,162.806c-0.329-0.137-1.455-0.556-2.111-0.231c-0.218,0.108-0.359,0.286-0.423,0.528   c-0.119,0.46,0.065,0.893,0.472,1.104c0.5,0.259,1.073,0.395,1.67,0.395c0.062,0,0.124-0.002,0.187-0.005   c0.532-0.026,0.771-0.504,0.802-0.818C208.595,163.349,208.367,162.977,207.956,162.806z"/>
	<path d="M99.728,153.229c-0.534-0.12-0.941,0.027-1.116,0.408c-0.189,0.411-0.042,0.95,0.404,1.48   c0.397,0.473,1.025,0.902,1.48,0.902c0.054,0,0.106-0.006,0.155-0.019c0.39-0.104,0.645-0.435,0.65-0.843   C101.309,154.445,100.038,153.299,99.728,153.229z"/>
	<path d="M243.034,142.231c-0.294,0.101-0.607,0.433-0.609,0.85c-0.007,1.144,0.177,1.862,0.559,2.197   c0.158,0.14,0.349,0.209,0.567,0.209c0.049,0,0.1-0.003,0.151-0.011c0.284-0.038,0.497-0.188,0.631-0.445   c0.352-0.671,0.057-1.932-0.207-2.449C243.911,142.158,243.423,142.103,243.034,142.231z"/>
	<path d="M180.935,143.634c0.199,0,0.371-0.02,0.494-0.058c0.189-0.059,0.332-0.186,0.414-0.368   c0.124-0.276,0.099-0.673-0.065-1.034c-0.007-0.017-0.019-0.03-0.033-0.04c-0.832-0.594-1.675-0.801-2.442-0.597   c-0.423,0.113-0.517,0.599-0.505,0.867c0.011,0.299,0.166,0.556,0.461,0.766C179.717,143.496,180.415,143.634,180.935,143.634z"/>
	<path d="M187.383,153.329c-0.525-0.227-1.107-0.024-1.318,0.464c-0.147,0.343-0.099,0.849,0.281,1.153   c0.341,0.274,1.148,0.863,1.796,0.863c0.072,0,0.142-0.007,0.209-0.022c0.241-0.057,0.423-0.213,0.54-0.466   c0.121-0.26,0.134-0.518,0.038-0.767C188.758,154.108,188.238,153.695,187.383,153.329z"/>
	<path d="M172.888,154.788c-0.415-0.169-0.813-0.097-1.089,0.206c-0.669,0.736-1.502,1.651-0.799,2.396   c0.157,0.166,0.381,0.299,0.629,0.299c0.141,0,0.289-0.042,0.438-0.145c0.578-0.395,1.009-0.933,1.246-1.554   C173.525,155.436,173.265,154.943,172.888,154.788z"/>
	<path d="M97.813,149.821c-0.361-0.372-0.764-0.472-1.136-0.276c-0.276,0.146-0.432,0.4-0.45,0.739   c-0.042,0.794,0.667,1.886,1.147,2.206c0.127,0.085,0.265,0.128,0.406,0.128c0.055,0,0.109-0.006,0.164-0.02   c0.271-0.064,0.498-0.279,0.603-0.464C98.796,151.695,98.392,150.42,97.813,149.821z"/>
	<path d="M158.932,147.956c0.192,0.158,0.401,0.237,0.624,0.237c0.076,0,0.153-0.009,0.231-0.027   c0.763-0.177,1.436-1.181,1.643-1.639c0.201-0.445-0.126-0.873-0.38-1.038c-0.314-0.204-0.809-0.174-1.099,0.067   c-0.303,0.254-1.29,1.135-1.287,1.851C158.665,147.626,158.755,147.812,158.932,147.956z"/>
	<path d="M103.499,156.141c-0.561-0.24-1.035-0.24-1.334,0c-0.396,0.319-0.392,0.96-0.124,1.319   c0.217,0.291,1.212,0.985,1.945,0.985c0.093,0,0.183-0.012,0.265-0.036c0.416-0.126,0.565-0.628,0.528-1.071   C104.744,156.923,104.087,156.394,103.499,156.141z"/>
	<path d="M189.596,147.033c0.177-0.307,0.12-0.738,0.04-0.953c-0.128-0.337-1.452-1.38-2.256-1.155   c-0.167,0.044-0.407,0.203-0.539,0.449c-0.097,0.182-0.114,0.375-0.051,0.561c0.244,0.699,1.215,1.424,2.106,1.424   c0.087,0,0.173-0.007,0.257-0.021C189.348,147.304,189.501,147.198,189.596,147.033z"/>
	<path d="M224.967,162.887c-0.331-0.018-2.075,0.032-2.312,0.71c-0.119,0.345-0.155,0.967,0.257,1.168   c0.273,0.135,0.63,0.203,0.991,0.203c0.308,0,0.618-0.049,0.885-0.149c0.402-0.15,0.687-0.404,0.823-0.731   c0.155-0.37,0.065-0.644-0.037-0.809C225.414,163.024,225.147,162.896,224.967,162.887z"/>
	<path d="M216.687,163.796c-0.74-0.417-1.685-0.335-2.291-0.07c-0.205,0.091-0.345,0.268-0.402,0.513   c-0.075,0.315-0.001,0.71,0.172,0.918c0.225,0.273,0.836,0.378,1.333,0.385c0.019,0,0.037,0,0.056,0c0.51,0,1.12-0.098,1.363-0.376   c0.146-0.167,0.217-0.493,0.169-0.776C217.055,164.203,216.959,163.949,216.687,163.796z"/>
	<path d="M172.595,153.311c0.153,0.268,0.447,0.37,0.732,0.37c0.178,0,0.353-0.04,0.487-0.104c0.231-0.111,0.396-0.434,0.46-0.909   c0.097-0.702-0.049-1.644-0.458-2.003c-0.312-0.273-0.744-0.258-1.157,0.042C172.063,151.14,172.44,153.038,172.595,153.311z"/>
	<path d="M242.628,141.044c0.043,0,0.085-0.003,0.128-0.011c0.313-0.054,0.659-0.278,0.692-0.749   c0.032-0.43-0.261-1.743-0.947-2.233c-0.288-0.205-0.604-0.236-0.94-0.094c-0.415,0.179-0.533,0.795-0.303,1.568   C241.491,140.307,242.026,141.044,242.628,141.044z"/>
	<path d="M184.747,153.692c0.189-0.087,0.32-0.246,0.388-0.473c0.105-0.35,0.056-0.667-0.147-0.942   c-0.465-0.63-1.603-0.842-2.08-0.846c-0.002,0-0.005,0-0.007,0c-0.523,0-0.753,0.502-0.78,0.842   c-0.034,0.445,0.191,0.807,0.619,0.989c0.049,0.021,0.104,0.046,0.164,0.073c0.384,0.172,0.968,0.433,1.452,0.433   C184.497,153.769,184.63,153.746,184.747,153.692z"/>
	<path d="M168.329,143.039l0.083-0.029c0.557-0.196,0.81-0.698,0.627-1.248c-0.088-0.268-0.264-0.449-0.521-0.542   c-0.667-0.242-1.697,0.199-2.094,0.448c-0.43,0.271-0.57,0.74-0.365,1.225c0.152,0.365,0.472,0.487,0.842,0.487   C167.371,143.38,167.927,143.183,168.329,143.039z"/>
	<path d="M159.932,157.127c-0.5-0.129-0.873-0.011-1.078,0.341c-0.247,0.422-0.128,0.899,0.332,1.346   c0.449,0.435,1.212,0.797,1.736,0.797c0.144,0,0.27-0.027,0.367-0.088c0.283-0.178,0.465-0.565,0.453-0.965   C161.73,158.171,160.757,157.337,159.932,157.127z"/>
	<path d="M171.765,149.528c0.078,0.021,0.192,0.041,0.319,0.041c0.172,0,0.367-0.035,0.526-0.147   c0.175-0.123,0.271-0.312,0.289-0.562c0.034-0.473-0.198-1.017-0.622-1.453c-0.402-0.417-0.894-0.667-1.318-0.639   c-0.243,0.009-0.458,0.133-0.605,0.349c-0.16,0.236-0.221,0.563-0.145,0.777C170.336,148.253,171.353,149.411,171.765,149.528z"/>
	<path d="M183.545,142.931c-0.184,0.04-0.445,0.198-0.586,0.45c-0.106,0.191-0.125,0.402-0.053,0.611   c0.238,0.688,1.241,1.254,2.141,1.254c0.097,0,0.191-0.007,0.284-0.021c0.219-0.031,0.389-0.147,0.492-0.336   c0.161-0.293,0.131-0.714,0.02-0.961C185.629,143.457,184.221,142.782,183.545,142.931z"/>
	<path d="M151.255,145.215c-0.544-0.172-1.362,0.168-1.952,0.485c-0.486,0.262-0.602,0.828-0.433,1.224   c0.101,0.238,0.259,0.399,0.471,0.48c0.109,0.041,0.228,0.06,0.352,0.06c0.475,0,1.03-0.262,1.46-0.464l0.11-0.052   c0.246-0.115,0.419-0.3,0.502-0.533c0.089-0.254,0.065-0.543-0.067-0.815C151.605,145.409,151.456,145.279,151.255,145.215z"/>
	<path d="M145.331,147.496c-0.414,0.277-0.432,0.818-0.312,1.115c0.108,0.267,0.314,0.441,0.593,0.506   c0.086,0.02,0.177,0.028,0.27,0.028c0.633,0,1.386-0.421,1.772-0.77c0.308-0.277,0.383-0.681,0.205-1.107   c-0.089-0.212-0.243-0.353-0.458-0.417C146.658,146.631,145.464,147.407,145.331,147.496z"/>
	<path d="M193.239,149.247c0.144-0.349,0.077-0.799-0.154-1.047c-0.458-0.493-1.206-1.068-1.812-1.068c-0.001,0-0.003,0-0.004,0   c-0.239,0.001-0.44,0.09-0.599,0.263c-0.315,0.347-0.408,0.934-0.016,1.315c0.487,0.475,1.136,1.015,1.856,1.015   c0.017,0,0.034,0,0.052-0.001C192.872,149.713,193.118,149.539,193.239,149.247z"/>
	<path d="M110.069,158.941c-0.207,0.111-0.339,0.289-0.384,0.514c-0.061,0.308,0.054,0.623,0.187,0.784   c0.254,0.313,1.053,0.545,1.729,0.545c0.347,0,0.661-0.061,0.852-0.203c0.166-0.124,0.339-0.41,0.351-0.719   c0.01-0.249-0.086-0.47-0.277-0.638C111.93,158.702,110.758,158.566,110.069,158.941z"/>
	<path d="M233.288,160.206c-0.73-0.222-1.862,0.514-2.081,0.663c-0.411,0.282-0.435,0.81-0.282,1.181   c0.141,0.344,0.477,0.542,0.889,0.542c0.082,0,0.166-0.008,0.253-0.023c0.39-0.072,1.355-0.438,1.69-1.055   c0.146-0.269,0.158-0.551,0.039-0.839C233.695,160.434,233.524,160.276,233.288,160.206z"/>
	<path d="M227.308,162.217c-0.448,0.212-0.662,0.627-0.556,1.083c0.088,0.372,0.381,0.742,0.945,0.742   c0.055,0,0.111-0.004,0.171-0.011c0.579-0.07,0.997-0.225,1.447-0.436c0.237-0.111,0.41-0.306,0.488-0.548   c0.088-0.274,0.051-0.588-0.102-0.86C229.279,161.434,228.021,161.883,227.308,162.217z"/>
	<path d="M104.1,128.779c0.12,0,0.247-0.022,0.378-0.071c0.624-0.232,1.102-0.56,1.423-0.973c0.351-0.45,0.164-1.05-0.106-1.311   c-0.616-0.594-1.427,0.03-2.02,0.485c-0.069,0.054-0.136,0.105-0.201,0.153c-0.427,0.318-0.471,0.821-0.332,1.154   C103.372,128.525,103.693,128.779,104.1,128.779z"/>
	<path d="M210.867,163.201c-0.004,0-0.009,0-0.013,0c-0.313,0-0.729,0.05-0.955,0.283c-0.18,0.184-0.288,0.476-0.275,0.742   c0.011,0.23,0.104,0.428,0.273,0.57c0.365,0.311,0.925,0.477,1.478,0.477c0.37,0,0.737-0.075,1.04-0.229   c0.202-0.104,0.33-0.28,0.369-0.51c0.056-0.329-0.088-0.708-0.258-0.886C212.305,163.418,211.514,163.204,210.867,163.201z"/>
	<path d="M130.736,154.888c-0.077,0.039-0.151,0.077-0.221,0.111c-0.244,0.119-0.422,0.32-0.501,0.566   c-0.078,0.239-0.055,0.504,0.062,0.725c0.134,0.253,0.347,0.404,0.634,0.451c0.063,0.011,0.129,0.016,0.196,0.016   c0.698,0,1.549-0.525,1.799-0.764c0.347-0.33,0.352-0.88,0.138-1.186C132.329,154.076,131.408,154.545,130.736,154.888z"/>
	<path d="M137.773,151.44c-0.372,0.323-0.309,0.892-0.121,1.178c0.139,0.211,0.334,0.336,0.581,0.373   c0.052,0.008,0.105,0.011,0.16,0.011c0.733,0,1.585-0.674,1.759-0.818c0.396-0.328,0.399-0.912,0.153-1.251   c-0.133-0.183-0.324-0.289-0.567-0.316C139.073,150.546,138.2,151.068,137.773,151.44z"/>
	<path d="M135.943,152.572c-0.19-0.032-1.309,0.207-1.854,0.782c-0.252,0.267-0.344,0.562-0.274,0.882   c0.06,0.274,0.218,0.492,0.446,0.612c0.104,0.055,0.249,0.104,0.436,0.104c0.149,0,0.325-0.031,0.528-0.113   c0.644-0.26,1.446-0.582,1.532-1.259C136.827,153.021,136.33,152.636,135.943,152.572z"/>
	<path d="M128.676,156.188c-0.461-0.212-1.186-0.03-1.667,0.19c-0.467,0.215-0.789,0.492-0.86,0.741   c-0.064,0.226-0.048,0.601,0.14,0.89c0.125,0.191,0.305,0.309,0.522,0.339c0.066,0.01,0.136,0.014,0.209,0.014   c0.642,0,1.524-0.347,1.942-0.934c0.196-0.275,0.185-0.532,0.14-0.699C129.03,156.457,128.836,156.262,128.676,156.188z"/>
	<path d="M106.087,157.921c-0.308,0.182-0.628,0.65-0.375,1.12c0.303,0.566,1.124,0.94,1.874,0.94c0.253,0,0.498-0.043,0.713-0.135   c0.222-0.096,0.365-0.271,0.412-0.505c0.063-0.314-0.065-0.682-0.22-0.842C108.108,158.103,106.696,157.559,106.087,157.921z"/>
	<path d="M165.541,158.67c-0.655-0.276-1.497-0.3-2.309-0.066c-0.401,0.113-0.456,0.601-0.424,0.871   c0.032,0.282,0.169,0.506,0.407,0.664c0.297,0.198,0.71,0.268,1.131,0.268c0.51,0,1.031-0.103,1.37-0.202   c0.025-0.007,0.046-0.023,0.059-0.047c0.199-0.353,0.258-0.761,0.154-1.064C165.861,158.894,165.727,158.747,165.541,158.67z"/>
	<path d="M124.507,157.481c-0.306-0.038-1.514,0.062-2.079,0.583c-0.213,0.196-0.315,0.431-0.304,0.695   c0.021,0.466,0.266,0.77,0.674,0.834c0.097,0.016,0.209,0.023,0.332,0.023c0.556,0,1.315-0.166,1.737-0.562   c0.23-0.218,0.333-0.475,0.305-0.766C125.148,158.036,124.977,157.541,124.507,157.481z"/>
	<path d="M177.927,151.337c-0.023,0.319,0.122,0.639,0.277,0.788c0.225,0.22,1.047,0.409,1.705,0.409   c0.07,0,0.139-0.002,0.205-0.007c0.381-0.026,0.643-0.127,0.775-0.298c0.135-0.173,0.236-0.512,0.171-0.826   c-0.049-0.232-0.185-0.415-0.392-0.527c-0.727-0.393-1.802-0.546-2.454-0.075C178.043,150.925,177.943,151.11,177.927,151.337z"/>
	<path d="M116.637,159.21c-0.703-0.425-1.787-0.411-2.467,0.032c-0.166,0.107-0.268,0.281-0.295,0.501   c-0.04,0.322,0.087,0.656,0.227,0.807c0.284,0.305,0.922,0.343,1.223,0.343c0.013,0,0.026-0.001,0.038-0.001   c0.515-0.005,1.134-0.121,1.354-0.368c0.141-0.159,0.264-0.527,0.215-0.844C116.899,159.47,116.797,159.308,116.637,159.21z"/>
	<path d="M141.296,149.684c-0.164,0.434-0.072,1.034,0.363,1.248c0.112,0.055,0.246,0.079,0.392,0.079   c0.422,0,0.947-0.202,1.341-0.443c0.23-0.143,0.768-0.518,0.772-0.938c0.004-0.438-0.217-0.809-0.549-0.924   C142.845,148.444,141.433,149.321,141.296,149.684z"/>
	<path d="M155.204,143.986c-0.679-0.217-1.716,0.198-2.111,0.434c-0.266,0.157-0.381,0.467-0.333,0.896   c0.027,0.234,0.185,0.649,0.604,0.716c0.128,0.021,0.254,0.03,0.379,0.03c0.562,0,1.109-0.192,1.729-0.479   c0.018-0.009,0.034-0.022,0.044-0.04c0.265-0.446,0.326-0.8,0.191-1.114C155.614,144.213,155.444,144.063,155.204,143.986z"/>
	<path d="M120.197,158.438c-0.482-0.028-1.427,0.053-1.896,0.484c-0.172,0.158-0.263,0.349-0.271,0.566   c-0.024,0.668,0.331,0.871,0.632,0.925c0,0,0,0,0,0c0.196,0.034,0.389,0.051,0.581,0.051c0.436,0,0.862-0.088,1.292-0.265   c0.519-0.215,0.655-0.753,0.522-1.175C120.97,158.755,120.639,158.458,120.197,158.438z"/>
	<path d="M244.875,109.437c0,0.693,0.563,1.257,1.257,1.257s1.257-0.563,1.257-1.257c0-0.692-0.563-1.256-1.257-1.256   S244.875,108.744,244.875,109.437z"/>
	<path d="M238.572,112.918c0-0.673-0.547-1.22-1.22-1.22c-0.672,0-1.219,0.547-1.219,1.22s0.547,1.22,1.219,1.22   C238.025,114.138,238.572,113.591,238.572,112.918z"/>
	<path d="M103.373,35.146c0.478,0.238,1.057,0.467,1.812,0.467c0.16,0,0.327-0.01,0.502-0.033c0.021-0.002,0.042-0.012,0.057-0.027   c0.234-0.226,0.357-0.486,0.357-0.752c0-0.248-0.107-0.481-0.309-0.675c-0.008-0.008-0.018-0.014-0.028-0.019   c-0.707-0.316-1.528-0.589-2.264-0.223c-0.153,0.076-0.26,0.211-0.309,0.392c-0.07,0.259-0.012,0.603,0.142,0.835   C103.343,35.126,103.356,35.138,103.373,35.146z"/>
	<path d="M159.282,143.423c-0.667-0.296-1.926-0.138-2.283,0.29c-0.126,0.15-0.246,0.448-0.209,0.745   c0.025,0.201,0.119,0.365,0.272,0.475c0.251,0.181,0.621,0.268,1.008,0.268c0.513,0,1.055-0.152,1.385-0.44   c0.219-0.189,0.318-0.442,0.278-0.71C159.692,143.777,159.511,143.525,159.282,143.423z"/>
	<path d="M114.374,43.521c0.017,0.001,0.051,0.004,0.096,0.004c0.147,0,0.414-0.028,0.602-0.206c0.138-0.13,0.203-0.311,0.194-0.538   c-0.036-0.91-0.894-1.912-1.669-1.948c-0.203-0.006-0.354,0.061-0.479,0.199c-0.228,0.252-0.265,0.656-0.236,0.851   C112.951,42.346,113.757,43.459,114.374,43.521z"/>
	<path d="M92.519,41.554c-0.168-0.008-0.307,0.053-0.426,0.17c-0.591,0.578-0.937,1.755-0.514,2.465   c0.098,0.164,0.276,0.263,0.501,0.277c0.021,0.001,0.041,0.002,0.062,0.002c0.269,0,0.56-0.111,0.682-0.266   c0.239-0.305,0.804-1.828,0.347-2.327c0,0,0,0,0,0C93.064,41.759,92.808,41.562,92.519,41.554z"/>
	<path d="M261.852,105.854c-0.663,0-1.202,0.539-1.202,1.202c0,0.664,0.539,1.203,1.202,1.203c0.664,0,1.203-0.539,1.203-1.203   C263.055,106.394,262.516,105.854,261.852,105.854z"/>
	<path d="M117.565,46.453c0.004,0,0.008,0,0.012,0c0.211,0,0.391-0.077,0.52-0.224c0.188-0.214,0.221-0.515,0.193-0.708   c-0.078-0.537-1.235-1.417-1.758-1.442c-0.079-0.005-0.455-0.011-0.688,0.206c-0.11,0.103-0.169,0.236-0.173,0.397   c-0.01,0.375,0.163,0.766,0.486,1.102C116.546,46.19,117.086,46.446,117.565,46.453z"/>
	<path d="M123.685,46.083c-0.26,0.207-0.398,0.418-0.402,0.609c-0.006,0.375,0.138,0.8,0.564,0.867   c0.06,0.01,0.13,0.014,0.208,0.014c0.454,0,1.165-0.165,1.612-0.542c0.278-0.234,0.422-0.518,0.427-0.842   c0.005-0.296-0.189-0.639-0.572-0.719C125.011,45.365,124.162,45.702,123.685,46.083z"/>
	<path d="M92.341,48.284c0.096,0.051,0.201,0.076,0.311,0.076c0.107,0,0.218-0.024,0.328-0.073c0.215-0.095,0.388-0.269,0.429-0.431   c0.125-0.492-0.351-1.924-0.736-2.22c0,0,0,0,0,0c-0.178-0.136-0.468-0.195-0.701-0.139c-0.184,0.041-0.322,0.145-0.402,0.299   C91.16,46.59,91.557,47.869,92.341,48.284z"/>
	<path d="M108.936,37.445c0.04,0,0.078-0.004,0.113-0.012c0.198-0.044,0.473-0.226,0.592-0.474c0.09-0.188,0.085-0.396-0.015-0.6   c-0.352-0.716-1.415-1.416-2.154-1.215c-0.18,0.049-0.317,0.174-0.396,0.36c-0.112,0.263-0.081,0.599,0.014,0.771   C107.273,36.608,108.338,37.445,108.936,37.445z"/>
	<path d="M119.52,46.322c-0.198,0.128-0.311,0.326-0.334,0.588c-0.021,0.23,0.06,0.436,0.24,0.608   c0.377,0.363,1.116,0.499,1.664,0.499c0.122,0,0.234-0.006,0.331-0.019c0.473-0.061,0.72-0.48,0.712-0.845   c-0.006-0.265-0.206-0.613-0.562-0.737C121.14,46.268,120.076,45.96,119.52,46.322z"/>
	<circle cx="243.746" cy="39.777" r="1.187"/>
	<path d="M96.333,37.583c0.006,0,0.013,0,0.019,0c0.658,0,1.476-0.657,1.817-1.138v0c0.275-0.389,0.113-0.876-0.194-1.106   c-0.414-0.307-1.297,0.093-1.88,0.64c-0.488,0.458-0.649,0.903-0.441,1.222C95.815,37.449,96.043,37.578,96.333,37.583z"/>
	<path d="M111.493,40.199c0.099,0.036,0.221,0.056,0.347,0.056c0.175,0,0.359-0.04,0.502-0.135c0.162-0.108,0.253-0.274,0.263-0.481   c0.043-0.863-0.846-1.707-1.501-1.932c-0.188-0.063-0.374-0.047-0.541,0.049c-0.233,0.133-0.379,0.386-0.416,0.564   C109.995,39.063,111.115,40.062,111.493,40.199z"/>
	<path d="M99.493,35.487c0.221,0.12,0.517,0.178,0.832,0.178c0.638,0,1.349-0.242,1.64-0.705c0.145-0.23,0.167-0.484,0.063-0.716   c-0.093-0.206-0.283-0.377-0.453-0.406c-0.645-0.11-1.792,0.079-2.158,0.455c-0.14,0.144-0.259,0.467-0.214,0.757   C99.232,35.249,99.333,35.4,99.493,35.487z"/>
	<path d="M95.627,50.311c0.273-0.015,0.64-0.079,0.831-0.298c0.109-0.125,0.208-0.385,0.185-0.643   c-0.018-0.201-0.109-0.372-0.263-0.494c-0.606-0.482-1.717-0.582-2.287-0.207c-0.178,0.116-0.282,0.3-0.3,0.531   c-0.021,0.257,0.074,0.544,0.226,0.683c0.318,0.291,0.947,0.431,1.461,0.431C95.53,50.314,95.579,50.313,95.627,50.311z"/>
	<path d="M76.083,54.623c0.026,0,0.053-0.001,0.08-0.004c0.255-0.023,0.498-0.153,0.603-0.324c0.207-0.335,0.648-1.932,0.038-2.338   c-0.218-0.145-0.789-0.327-1.067,0.07c-0.424,0.606-0.717,1.77-0.165,2.38C75.698,54.548,75.877,54.623,76.083,54.623z"/>
	<path d="M76.991,50.906c0.006,0,0.012,0,0.019,0c0.242-0.005,0.503-0.112,0.635-0.26c0.308-0.345,0.788-1.279,0.648-1.912   c-0.054-0.245-0.193-0.418-0.415-0.514c-0.477-0.207-0.955,0.025-1.242,0.608l-0.027,0.055c-0.269,0.545-0.638,1.292-0.134,1.816   C76.606,50.835,76.784,50.906,76.991,50.906z"/>
	<path d="M81.222,44.484c0.084,0,0.161-0.011,0.224-0.032c0.481-0.156,1.531-0.958,1.382-1.806   c-0.024-0.137-0.123-0.406-0.343-0.549c-0.132-0.087-0.289-0.112-0.45-0.072c-0.689,0.167-1.697,0.964-1.647,1.787   c0.013,0.212,0.115,0.389,0.296,0.512C80.848,44.436,81.049,44.484,81.222,44.484z"/>
	<path d="M78.77,47.435c0.183,0,0.368-0.042,0.509-0.106c0.2-0.09,1.268-1.191,0.912-2.042c-0.126-0.303-0.436-0.458-0.832-0.42   c-0.325,0.032-0.86,0.548-1.145,1.106c-0.231,0.452-0.263,0.864-0.091,1.159C78.251,47.351,78.509,47.435,78.77,47.435z"/>
	<path d="M257.945,53.162c0.042,0,0.086-0.003,0.13-0.01c0.23-0.037,0.456-0.168,0.562-0.326c0.229-0.341,0.572-1.48,0.279-2.081   c-0.108-0.222-0.296-0.348-0.543-0.365c-0.028-0.002-0.056-0.003-0.082-0.003c-0.449,0-0.764,0.263-0.891,0.747l-0.039,0.147   c-0.153,0.561-0.361,1.33,0.191,1.761C257.662,53.119,257.796,53.162,257.945,53.162z"/>
	<path d="M99.187,46.551c-0.284-0.055-0.581,0.047-0.73,0.171c-0.159,0.13-1.22,1.209-1.005,1.872   c0.072,0.222,0.25,0.401,0.474,0.479c0.084,0.029,0.171,0.044,0.259,0.044c0.176,0,0.358-0.058,0.529-0.171   c0.761-0.501,1.318-1.384,0.911-2.099C99.534,46.689,99.382,46.586,99.187,46.551z"/>
	<path d="M84.149,42.022c0.062,0,0.124-0.007,0.183-0.021c0.467-0.108,1.243-0.527,1.485-1.031c0.103-0.215,0.106-0.426,0.01-0.629   c-0.11-0.229-0.279-0.39-0.489-0.463c-0.229-0.08-0.493-0.053-0.763,0.078c-0.474,0.231-1.355,0.661-1.238,1.395   c0.036,0.225,0.15,0.407,0.33,0.528C83.806,41.972,83.98,42.022,84.149,42.022z"/>
	<path d="M246.946,35.635c0.204,0,0.396-0.024,0.551-0.077c0.139-0.046,0.315-0.193,0.399-0.417c0.057-0.151,0.09-0.389-0.072-0.665   c-0.449-0.762-1.755-0.868-2.369-0.534c-0.14,0.077-0.232,0.211-0.271,0.389c-0.062,0.286,0.032,0.608,0.151,0.766   C245.574,35.411,246.321,35.635,246.946,35.635z"/>
	<path d="M256.762,43.263c-0.265,0.718,0.026,1.881,0.783,2.25c0.129,0.063,0.247,0.085,0.349,0.085   c0.099,0,0.183-0.021,0.248-0.045c0.173-0.066,0.32-0.204,0.385-0.36c0.319-0.779-0.259-2.052-0.663-2.251c0,0,0,0,0,0   c-0.188-0.093-0.494-0.141-0.747-0.039C256.946,42.969,256.823,43.095,256.762,43.263z"/>
	<path d="M97.115,39.762c-0.375,0.411-0.097,1.088,0.344,1.577c0.313,0.347,0.746,0.639,1.109,0.639c0.12,0,0.233-0.032,0.331-0.104   c0.476-0.353,0.489-0.889,0.036-1.512h0c-0.23-0.315-0.692-0.848-1.202-0.876C97.5,39.474,97.294,39.566,97.115,39.762z"/>
	<path d="M87.047,40.169c0.116,0.037,0.247,0.053,0.384,0.053c0.414,0,0.889-0.149,1.223-0.34c0.335-0.191,0.551-0.429,0.606-0.668   c0.088-0.38-0.085-0.729-0.476-0.958c-0.291-0.168-0.806-0.011-1.088,0.098c-0.439,0.168-0.95,0.468-1.034,0.729   c-0.088,0.274-0.073,0.557,0.04,0.776C86.783,40.014,86.905,40.125,87.047,40.169z"/>
	<path d="M78.039,64.994c0.161,0.303,0.414,0.511,0.694,0.571c0.056,0.012,0.112,0.018,0.168,0.018c0.185,0,0.367-0.064,0.524-0.188   c0.197-0.154,0.29-0.389,0.27-0.681c-0.045-0.647-0.632-1.44-0.92-1.605v0c-0.313-0.179-0.896-0.255-1.148,0.158   c-0.309,0.505-0.009,1.01,0.255,1.455C77.938,64.814,77.992,64.905,78.039,64.994z"/>
	<path d="M77.822,61.758c0.215-0.467-0.003-1.15-0.107-1.423c-0.128-0.334-0.354-0.758-0.572-0.853   c-0.21-0.093-0.534-0.134-0.785-0.016c-0.16,0.074-0.271,0.203-0.322,0.372c-0.215,0.716,0.082,1.89,0.771,2.274   c0.104,0.058,0.215,0.087,0.328,0.087c0.07,0,0.141-0.011,0.212-0.035C77.58,62.088,77.753,61.905,77.822,61.758z"/>
	<path d="M256.907,54.088c-0.673,0.329-1.269,1.393-1.006,2.165c0.057,0.166,0.175,0.289,0.341,0.355   c0.1,0.04,0.213,0.057,0.325,0.057c0.183,0,0.365-0.045,0.487-0.109c0.416-0.217,1.062-1.425,0.779-2.108v0   c-0.071-0.17-0.229-0.319-0.411-0.387C257.254,53.999,257.074,54.007,256.907,54.088z"/>
	<path d="M75.935,58.431c0.063,0.013,0.131,0.02,0.199,0.02c0.193,0,0.392-0.052,0.512-0.14c0.251-0.185,0.323-0.573,0.338-0.867   c0.03-0.57-0.134-1.36-0.426-1.626c-0.137-0.125-0.401-0.201-0.634-0.178c-0.187,0.018-0.337,0.095-0.435,0.225   c-0.47,0.629-0.339,1.644,0.022,2.28C75.596,58.291,75.742,58.39,75.935,58.431z"/>
	<path d="M250.671,37.073c0.083,0,0.161-0.01,0.232-0.03c0.164-0.048,0.386-0.221,0.483-0.487c0.059-0.159,0.091-0.405-0.087-0.677   c-0.441-0.673-1.415-1.07-2.087-0.854c-0.183,0.06-0.314,0.197-0.382,0.398c-0.089,0.268-0.045,0.626,0.103,0.834   C249.103,36.495,250.026,37.073,250.671,37.073z"/>
	<path d="M255.299,41.535c0.243,0.342,0.538,0.55,0.832,0.586c0.032,0.004,0.063,0.006,0.095,0.006c0.196,0,0.383-0.076,0.557-0.226   c0.351-0.303,0.335-0.831-0.042-1.411c-0.385-0.591-0.761-0.915-1.12-0.962c-0.224-0.033-0.438,0.044-0.636,0.222   c-0.585,0.521-0.045,1.28,0.277,1.732L255.299,41.535z"/>
	<path d="M91.227,39.204c0.033,0,0.066,0.001,0.099,0.001c0.617,0,1.051-0.122,1.289-0.362c0.146-0.146,0.216-0.334,0.209-0.559   c-0.008-0.288-0.109-0.509-0.3-0.657c-0.373-0.288-0.991-0.225-1.444-0.12c-0.62,0.143-0.952,0.528-0.865,1.006   C90.298,38.959,90.638,39.191,91.227,39.204z"/>
	<path d="M253.565,39.246c0.052,0.012,0.111,0.019,0.175,0.019c0.18,0,0.394-0.055,0.556-0.192c0.117-0.1,0.252-0.285,0.229-0.597   c-0.063-0.871-1.001-1.584-1.764-1.617c-0.17-0.002-0.332,0.057-0.462,0.188c-0.209,0.212-0.29,0.542-0.277,0.758   C252.048,38.261,253.112,39.138,253.565,39.246z"/>
	<path d="M100.421,43.532c-0.067-0.253-0.202-0.579-0.458-0.687c-0.474-0.2-0.912,0-1.087,0.29c-0.217,0.359-0.269,1.918,0.279,2.31   c0.144,0.103,0.327,0.152,0.505,0.152c0.233,0,0.458-0.084,0.581-0.245C100.545,44.953,100.571,44.096,100.421,43.532z"/>
	<path d="M93.28,56.588c0.625,0,1.132-0.508,1.132-1.132c0-0.625-0.508-1.132-1.132-1.132c-0.624,0-1.132,0.508-1.132,1.132   C92.148,56.08,92.656,56.588,93.28,56.588z"/>
	<path d="M257.831,46.808c-0.341,0.375-0.302,1.063-0.248,1.44c0.066,0.479,0.153,0.889,0.541,1.044   c0.122,0.048,0.243,0.071,0.36,0.071c0.196,0,0.38-0.067,0.529-0.198c0.305-0.266,0.391-1.318,0.162-1.974   c-0.139-0.398-0.375-0.616-0.684-0.631C258.205,46.553,257.992,46.631,257.831,46.808z"/>
	<circle cx="242.619" cy="98.09" r="1.098"/>
	<path d="M194.602,151.646c0.187,0.128,0.473,0.249,0.762,0.249c0.088,0,0.177-0.012,0.262-0.037   c0.245-0.073,0.433-0.255,0.544-0.525c0.266-0.647-0.143-1.16-0.613-1.423c-0.457-0.257-1.067-0.322-1.401,0.11   c-0.178,0.23-0.248,0.475-0.208,0.728C193.997,151.068,194.235,151.396,194.602,151.646z"/>
	<path d="M250.929,46.158c0,0.59,0.479,1.07,1.069,1.07s1.069-0.48,1.069-1.07c0-0.59-0.479-1.07-1.069-1.07   S250.929,45.568,250.929,46.158z"/>
	<path d="M87.786,121.221c-0.564,0-1.023,0.458-1.023,1.022s0.459,1.022,1.023,1.022c0.564,0,1.023-0.458,1.023-1.022   S88.35,121.221,87.786,121.221z"/>
	<path d="M255.253,57.421c-0.449,0.058-1.027,0.537-1.288,1.067c-0.175,0.355-0.188,0.681-0.036,0.942   c0.116,0.199,0.284,0.302,0.487,0.302c0.073,0,0.152-0.014,0.234-0.042c0.604-0.206,1.288-1.15,1.219-1.685   c-0.019-0.151-0.097-0.37-0.255-0.492C255.512,57.435,255.392,57.402,255.253,57.421z"/>
	<path d="M155.186,28.624c0,0.554,0.45,1.004,1.004,1.004s1.004-0.45,1.004-1.004s-0.451-1.004-1.004-1.004   S155.186,28.07,155.186,28.624z"/>
	<path d="M140.075,51.399c0.563,0,1.021-0.458,1.021-1.021s-0.458-1.021-1.021-1.021s-1.021,0.458-1.021,1.021   S139.512,51.399,140.075,51.399z"/>
	<path d="M80.212,66.192c-0.321,0.149-0.417,0.371-0.44,0.532c-0.054,0.372,0.209,0.794,0.487,1.039   c0.202,0.178,0.604,0.533,0.98,0.533c0.035,0,0.07-0.003,0.105-0.01c0.179-0.034,0.323-0.156,0.428-0.361   c0.213-0.422-0.041-0.972-0.387-1.331C81.002,66.197,80.54,66.037,80.212,66.192z"/>
	<circle cx="99.767" cy="124.356" r="0.976"/>
	<circle cx="179.336" cy="35.59" r="0.973"/>
	<path d="M179.46,29.165c0,0.542,0.441,0.984,0.984,0.984c0.542,0,0.983-0.441,0.983-0.984c0-0.543-0.441-0.984-0.983-0.984   C179.901,28.181,179.46,28.622,179.46,29.165z"/>
	<path d="M148.231,31.688c0.501,0,0.909-0.408,0.909-0.909c0-0.501-0.408-0.909-0.909-0.909s-0.909,0.408-0.909,0.909   C147.322,31.28,147.729,31.688,148.231,31.688z"/>
	<path d="M151.65,34.115c0,0.505,0.412,0.917,0.917,0.917s0.917-0.412,0.917-0.917c0-0.506-0.412-0.917-0.917-0.917   S151.65,33.609,151.65,34.115z"/>
	<path d="M173.489,30.466c0,0.5,0.406,0.906,0.905,0.906c0.5,0,0.906-0.407,0.906-0.906s-0.406-0.906-0.906-0.906   C173.896,29.56,173.489,29.966,173.489,30.466z"/>
	<path d="M98.73,108.438c0.5,0,0.906-0.406,0.906-0.905c0-0.5-0.407-0.906-0.906-0.906s-0.906,0.406-0.906,0.906   C97.824,108.032,98.23,108.438,98.73,108.438z"/>
	<path d="M140.356,32.59c0.407,0,0.737-0.331,0.737-0.737s-0.331-0.737-0.737-0.737c-0.406,0-0.737,0.331-0.737,0.737   S139.95,32.59,140.356,32.59z"/>
	<path d="M184.604,32.573c0,0.43,0.35,0.78,0.779,0.78c0.431,0,0.78-0.35,0.78-0.78c0-0.43-0.35-0.78-0.78-0.78   C184.954,31.793,184.604,32.143,184.604,32.573z"/>
	<path d="M243.318,35.024c0.409,0,0.741-0.333,0.741-0.742c0-0.409-0.332-0.742-0.741-0.742s-0.742,0.333-0.742,0.742   C242.576,34.691,242.909,35.024,243.318,35.024z"/>
	<path d="M127.567,43.964c-0.394,0-0.715,0.321-0.715,0.715c0,0.394,0.321,0.715,0.715,0.715c0.395,0,0.715-0.321,0.715-0.715   C128.282,44.285,127.961,43.964,127.567,43.964z"/>
	<path d="M206.614,45.626c0.414,0.229,0.962,0.395,1.486,0.395c0.348,0,0.685-0.073,0.965-0.25c0.033-0.02,0.051-0.057,0.047-0.095   c-0.005-0.039-0.03-0.071-0.066-0.083l-0.088-0.031c-1.418-0.502-2.274-0.806-2.661-2.07c-0.012-0.038-0.044-0.065-0.084-0.07   c-0.035-0.005-0.077,0.014-0.098,0.048c-0.234,0.393-0.301,0.842-0.188,1.263C206.032,45.117,206.282,45.443,206.614,45.626z"/>
	<path d="M219.789,24.302c-0.165-0.113-0.322-0.14-0.423-0.07c-0.067,0.047-0.094,0.13-0.07,0.223c0,0,0,0,0,0l0.8,3.202   c0.011,0.044,0.051,0.076,0.097,0.076c0.047,0,0.087-0.032,0.098-0.077C220.882,25.195,219.977,24.431,219.789,24.302z    M219.393,24.431L219.393,24.431L219.393,24.431L219.393,24.431z"/>
	<path d="M204.804,24.056c-0.359,0.119-0.644,0.384-0.82,0.767c-0.25,0.541-0.265,1.283-0.037,1.847   c0.013,0.03,0.038,0.052,0.069,0.06c0.008,0.002,0.016,0.003,0.023,0.003c0.024,0,0.048-0.009,0.066-0.025   c0.2-0.176,1.22-2.144,0.978-2.567C205.057,24.095,204.979,23.998,204.804,24.056z"/>
</g>
<metadata xmlns=""><rdf:RDF><cc:Work rdf:about=""><dc:title>Hand lettering adventure buddy typography with mountain backpack and hiking trail decorative vector art design</dc:title><dc:description>Bold hand lettering spells adventure buddy surrounded by mountain peaks backpack footprints and foliage in a decorative vector style suitable for outdoor branding and apparel designs vibrant and dynamic</dc:description><dc:subject><rdf:Bag><rdf:li>lettering</rdf:li><rdf:li>adventure</rdf:li><rdf:li>buddy</rdf:li><rdf:li>mountain</rdf:li><rdf:li>backpack</rdf:li><rdf:li>hiking</rdf:li><rdf:li>footprints</rdf:li><rdf:li>trail</rdf:li><rdf:li>leaves</rdf:li><rdf:li>foliage</rdf:li><rdf:li>travel</rdf:li><rdf:li>outdoor</rdf:li><rdf:li>explore</rdf:li><rdf:li>nature</rdf:li><rdf:li>camping</rdf:li><rdf:li>journey</rdf:li><rdf:li>vector</rdf:li><rdf:li>art</rdf:li><rdf:li>design</rdf:li><rdf:li>typography</rdf:li><rdf:li>letter</rdf:li><rdf:li>script</rdf:li><rdf:li>hand</rdf:li><rdf:li>calligraphy</rdf:li><rdf:li>black</rdf:li><rdf:li>white</rdf:li><rdf:li>forest</rdf:li><rdf:li>path</rdf:li><rdf:li>wilderness</rdf:li><rdf:li>summit</rdf:li><rdf:li>climb</rdf:li><rdf:li>hike</rdf:li><rdf:li>trip</rdf:li><rdf:li>scenic</rdf:li><rdf:li>wild</rdf:li><rdf:li>rustic</rdf:li><rdf:li>tour</rdf:li><rdf:li>backcountry</rdf:li><rdf:li>adventure gear</rdf:li></rdf:Bag></dc:subject></cc:Work></rdf:RDF></metadata></svg>