<?xml version="1.0" encoding="iso-8859-1"?>
<!-- Generator: Adobe Illustrator 22.1.0, SVG Export Plug-In . SVG Version: 6.00 Build 0)  -->
<svg version="1.1" id="Layer_1" xmlns="http://www.w3.org/2000/svg" xmlns:xlink="http://www.w3.org/1999/xlink" x="0px" y="0px"
	 width="864px" height="864px" viewBox="0 0 864 864" enable-background="new 0 0 864 864" xml:space="preserve">
<path d="M646.427,524.533c-2.011-2.975-5.996-4.061-9.252-2.569c-4.722,2.163-4.219,6.729-4.348,11.059
	c-0.297,9.977-5.009,16.327-13.414,21.417c-6.771-8.128-14.639-15.927-19.201-25.611c-2.165-4.595-4.5-10.955-3.59-16.043
	c0.475-2.655,3.132-7.774,6.921-7.216c3.897,0.574,8.194,4.843,7.348,11.607c-1.098,8.781,9.615,9.31,12.074,4.391
	c2.195-4.391,2.243-10.614-2.036-18.22c-4.413-7.843-12.626-13.569-22.124-13.263c-1.858,0.06-3.59,0.301-5.223,0.678v-22.876
	h-13.139c0,4.431,1.059,9.832-2.022,13.484c-5.369,6.365-16.182,5.145-20.349-1.868c-2.023-3.405-2.649-7.025-2.649-10.803
	c0-10.446,0-24.584,0-24.584s11.614-0.26,13.597,0.957c1.726,1.06,1.891,3.707,1.891,6.842h11.954v-29.249h-11.954
	c0,2.947-0.168,4.961-1.961,6.499c-2.626,2.253-13.528,1.642-13.528,1.642s0-9.917,0-22.061h76.645V280.351H477.465v-155.69h-77.076
	c0.971-4.943,2.494-10.21,2.428-15.126c-0.042-3.155-1.097-6.373-4.529-7.066c-4.19-0.846-8.751,2.367-11.761,4.855
	c-5.741,4.746-10.111,11.149-13.418,17.764c-11.577-1.286-20.582,5.145-21.868,23.154c-9.004-1.286-12.863,5.145-12.863,20.582
	c-4.933,1.959-12.864,2.573-5.145,27.013c-7.718-1.286-6.483,16.985-1.286,24.441c0,0-34.275-19.506-45.949-33.791
	c-11.675-14.285-19.374-32.117-20.03-50.554c-4.77,3.305-8.227,12.444-7.343,18.741c-3.705-6.184-10.41,0.645-12.531,4.298
	c-3.99,6.872-5.385,15.322-3.796,23.103c-4.225-0.174-6.081,4.177-6.121,9.825c-0.049,6.918,2.627,15.782,7.012,20.661
	c-5.362,2.681-6.223,7.225-4.469,12.067c3.294,9.098,15.816,19.252,25.051,20.092c-7.519,5.75-6.37,11.804-0.421,17.378
	c8.199,7.682,25.513,14.451,41.813,18.255h-88.879v128.396h154.604v24.475c-5.928-4.706-13.454-7.162-21.783-5.922
	c-15.669,2.331-25.815,16.28-31.118,30.114c-15.374,4.542-30.98,13.39-38.452,28.17c-11.463,22.676,2.057,46.794,26.194,51.788
	c-0.538,7.144-1.316,14.125-2.323,20.85c-11.087-2.601-23.847-3.155-33.855,3.141c-9.512,5.984-15.048,18.511-9.273,28.988
	c5.526,10.025,18.269,12.502,28.747,11.082c12.544-1.699,23.83-9.13,31.127-19.362c15.807,8.644,33.787,17.971,50.736,15.134v151.03
	h106.579V582.789c10.524-13.654,15.299-31.837,18.878-48.418c4.702,1.205,9.021,1.46,12.795,1.288
	c-8.419,21.192-1.484,49.448,22.841,55.519c23.934,5.974,43.649-13.889,51.182-34.69c2.727,4.908,5.924,9.551,9.526,13.743
	c-8.208,6.967-14.162,17.711-10.116,28.538c3.481,9.318,13.185,14.252,22.78,14.225c9.805-0.029,19.305-5.139,24.268-13.682
	c5.998-10.323,3.439-22.522-1.859-32.552c7.161-4.473,13.695-10.446,17.028-18.359C647.241,542.577,650.325,530.299,646.427,524.533
	z M284.856,585.678c-3.608,0.756-10.43,1.15-11.983-3.327c-1.203-3.465,5.141-8.093,7.336-8.761
	c5.97-1.817,13.457-1.531,18.598,2.11C295.824,580.847,290.655,584.463,284.856,585.678z M307.125,518.697
	c-10.754-3.526-17.26-13.34-13.471-24.492c3.017-8.879,10.948-15.009,19.11-18.956C309.611,489.536,308.36,504.146,307.125,518.697z
	 M236.039,388.989v-88.88h80.001c-0.5,1.395-0.871,2.522-1.011,3.142c-0.98,4.346-1.729,6.066-5.764,8.286
	c-6.899,3.796-14.041,7.279-20.29,12.128c-3.672,2.849-13.924,11.114-5.414,14.334c-3.196,1.893-7.18,4.971-6.392,9.241
	c0.496,2.688,4.289,5.004,6.422,2.881c-0.916,1.76,0.615,4.241,2.353,4.904c3.079,1.175,6.076-1.853,7.337-4.326
	c0.694,3.515,5.179,3.152,7.477,1.772c3.549-2.13,6.413-6.312,8.769-9.62c4.267-5.993,6.839-13.02,11.228-18.916
	c5.632-7.566,12.881-8.183,21.514-9.904c27.137-5.412,52.971-30.464,62.191-46.469c5.396-9.367,18.629-37.547,22.044-39.993
	c7.005-5.016,12.053,3.288,18.642,4.285c-3.734-4.978-5.094-11.965-6.888-17.804c-1.885-6.135-5.704-10.719-11.641-13.494
	c-6.504-3.04-14.568-0.149-19.502,4.638c-5.541,5.377-8.936,12.464-13.844,18.349c-5.507-19.192-0.316-55.91,3.632-79.125h60.805
	v155.69h154.605v88.88h-56.887c0-11.309,0-21.128,0-23.588c0-7.147,3.688-12.86,11.439-13.417
	c5.294-0.381,11.931,2.028,12.811,7.994c0.476,3.229,0.059,6.752,0.059,10.012h13.14v-31.544c-21.234,0-136.348,0-147.728,0v13.497
	c1.98,0,3.853-0.146,5.435,1.306c1.956,1.795,3.992,4.639,4.189,7.143c0.134,1.7,0,80.918,0,85.155
	c-10.387-5.061-23.511-7.868-34.974-9.039c0-23.797-0.14-74.963,0-76.739c0.44-5.589,2.996-7.827,8.474-7.827v-13.497H375.19v13.497
	c3.025,0,6.002,0.224,7.447,3.315c1.096,2.344,1.008,5.265,1.026,7.788c0.005,0.75,0.007,11.442,0.007,25.942H236.039z
	 M493.218,481.195c-1.4-3.297-1.134-7.045-1.134-10.577c0-3.869,0-100.486,0-105.017c0-4.401-0.72-10.78,3.215-13.657
	c4.176,0,14.608-0.515,20.755,0c2.714,2.559,2.735,8.096,2.767,11.524c0.053,5.675,0,103.921,0,110.546
	c0,3.569,0.012,10.486-4.639,11.458c-2.358,0.493-5.175,0.048-7.576,0.048C501.489,485.52,495.63,486.878,493.218,481.195z
	 M419.794,451.559c11.624,1.46,34.974,11.668,34.974,11.668v17.13c0,0-1.637,5.133-11.785,5.256
	c-0.618,0.008-15.843,0.393-17.956-1.035c-3.754-2.537-5.218-7.635-5.234-11.713C419.767,465.762,419.794,458.66,419.794,451.559z
	 M340.258,468.509c5.425-0.441,14.557,1.224,16.667-5.544c2.793-8.96-8.259-10.309-14.231-9.809
	c5.355-12.943,20.875-11.491,25.229,1.516c7.359,21.974-11.3,49.392-29.466,60.219C339.462,499.447,339.418,483.96,340.258,468.509z
	 M328.52,566.358c3.603-8.844,6.145-18.741,7.721-30.039c16.9-6.662,31.832-20.896,40.54-37.925c3.436,0,7.938,0,13.295,0
	c-0.338,3.812,0.698,7.802,3.598,11.275c-10.938,3.992-15.343,19.689-17.399,29.801c-2.502,12.31-1.584,24.893,4.023,36.281
	C364.164,588.039,343.893,572.931,328.52,566.358z M390.643,728.477V588.89c0-0.303-0.017-0.601-0.044-0.897
	c12.009,7.859,26.83,1.869,35.928-7.695c5.896,13.347,18.922,18.887,31.179,16.218v131.96H390.643z M460.607,579.183
	c-2.8,2.416-7.419,4.667-9.59,1.089c-1.946-3.208-1.783-7.855-1.511-11.439c0.769-10.108,2.133-19.73,5.784-29.088
	c2.702-6.924,6.158-13.475,2.077-20.602c-4.037-7.051-10.42-9.785-17.67-6.081c-16.089,8.219-19.397,32.661-17.799,48.546
	c-2.006,3.619-15.172,19.232-17.936,14.238c-4.371-7.897,1.588-21.855,3.747-28.942c2.975-9.769,10.846-22.668,3.392-32.144
	c7.669-2.531,11.219-9.57,10.816-16.366c15.041,0,32.088,0,49.464,0c-0.459,8.559,3.238,19.584,12.182,25.369
	C480.149,540.775,474.274,567.393,460.607,579.183z M556.212,571.365c-3.477,3.048-10.585,8.068-15.359,4.947
	c-4.665-3.05-4.662-12.25-4.609-16.98c14.934-3.302,28.608-17.592,26.193-33.778c-3.076-20.613-29.839-17.387-41.64-6.996
	c-7.003,2.339-14.982,3.131-22.117,1.069c0.711-6.721,1.113-14.237-0.174-21.232c33.907,0,65.703,0,82.653,0
	c-7.521,8.963-9.124,23.502-6.664,35.159C570.985,547.209,567.232,561.704,556.212,571.365z M535.717,547.766
	c0.733-6.163,1.826-12.431,4.152-18.216c1.506-3.745,5.92-12.203,11.058-7.967c4.682,3.86,2.376,11.857-0.281,16.145
	C547.232,543.239,542.041,546.538,535.717,547.766z M609.76,594.112c-1.692,4.326-8.29,4.507-11.483,1.916
	c-5.788-4.696,1.071-12.184,4.942-15.211C606.237,583.809,611.607,589.387,609.76,594.112z"/>
<g>
</g>
<g>
</g>
<g>
</g>
<g>
</g>
<g>
</g>
<g>
</g>
<g>
</g>
<g>
</g>
<g>
</g>
<g>
</g>
<g>
</g>
<g>
</g>
<g>
</g>
<g>
</g>
<g>
</g>
</svg>
