<?xml version="1.0" encoding="utf-8"?>
<!-- Generator: Adobe Illustrator 27.7.0, SVG Export Plug-In . SVG Version: 6.00 Build 0)  -->
<svg version="1.1" id="Layer_1" xmlns="http://www.w3.org/2000/svg" xmlns:xlink="http://www.w3.org/1999/xlink" x="0px" y="0px"
	 viewBox="0 0 432 432" style="enable-background:new 0 0 432 432;" xml:space="preserve">
<style type="text/css">
	.st0{fill:#412309;}
	.st1{fill:#E0D2C1;}
	.st2{fill:#AF2222;}
	.st3{fill:#88BCD3;}
	.st4{fill:#DB3E7E;}
	.st5{fill:#FEC9D9;}
	.st6{fill:#68C3BB;}
	.st7{fill:#EA6A6D;}
</style>
<g>
	<path class="st4" d="M129.722,112.917c-5.401,4.013-10.797,8.032-16.208,12.031c-2.525,1.866-3.666,1.686-5.565-0.854
		c-2.928-3.917-5.833-7.849-8.749-11.775l0.002,0.001c-2.963-3.989-5.932-7.971-8.881-11.971c-1.693-2.296-1.501-3.525,0.754-5.236
		c0.218-0.165,0.438-0.33,0.659-0.488c2.203-1.573,3.46-1.419,5.083,0.724c2.36,3.12,4.675,6.273,7.007,9.414
		c1.962,2.637,3.913,5.28,5.879,7.912c1.995,2.667,3.128,2.827,5.841,0.826c3.18-2.346,6.342-4.717,9.526-7.055
		c2.224-1.632,3.479-1.428,5.145,0.777c0.33,0.437,0.665,0.876,0.941,1.346c0.774,1.318,0.588,2.566-0.521,3.612
		C130.351,112.45,130.036,112.685,129.722,112.917z M133.761,72.569c-0.134-3.102,0.393-3.864,3.253-5.101
		c0.323-0.139,0.647-0.278,0.971-0.415c3.094-1.305,4.033-1.116,6.316,1.293c6.947,7.328,13.89,14.655,20.828,21.991
		c0.59,0.624,1.174,1.267,1.679,1.958c0.963,1.319,0.744,2.373-0.653,3.246c-0.528,0.33-1.112,0.571-1.67,0.851v0.001
		c-2.745,1.129-3.776,0.923-5.868-1.196c-0.439-0.446-0.906-0.868-1.312-1.342c-1.335-1.557-2.964-1.798-4.78-1.052
		c-2.316,0.951-4.623,1.929-6.911,2.944c-1.743,0.774-2.682,2.082-2.523,4.079c0.081,1.012,0.092,2.034,0.075,3.05
		c-0.027,1.587-0.735,2.777-2.195,3.459c-0.956,0.45-1.905,0.93-2.947,1.149c-1.48,0.313-2.362-0.244-2.627-1.739
		c-0.376-2.127-0.325-4.291-0.426-6.439C134.55,90.396,134.143,81.483,133.761,72.569z M142.295,84.818
		c0.29,2.193,1.631,2.923,3.677,2.03c1.798-0.784,2.311-2.024,1.377-3.51c-0.691-1.1-1.591-2.046-2.641-2.802
		c-1.251-0.901-2.274-0.426-2.493,1.123C142.067,82.709,142.159,83.771,142.295,84.818z M174.391,78.734
		c1.197-0.181,2.383-0.452,3.574-0.684l0.001,0.001l0.006,0.032c1.192-0.23,2.381-0.474,3.574-0.687
		c0.93-0.166,1.865-0.199,2.801-0.013c1.222,0.244,2.073,0.9,2.352,2.155c0.29,1.302-0.237,2.291-1.266,3.052
		c-0.51,0.376-1.088,0.643-1.701,0.773c-1.531,0.325-3.062,0.658-4.61,0.888c-1.09,0.163-2.241,0.166-3.177-0.508
		c-1.903-1.37-3.925-1.344-6.051-0.74c-2.361,0.67-2.965,2.204-1.589,4.253c2.343,3.493,5.635,5.379,9.846,5.45
		c3.238,0.056,6.375-0.65,9.403-1.77c1.669-0.618,3.117-1.625,4.316-2.964c3.212-3.585,3.832-7.71,2.69-12.273
		c-1.073-4.274-4.407-6.992-8.81-7.031c-0.946-0.009-1.87,0.124-2.795,0.301c-2.114,0.402-4.221,0.871-6.348,1.172
		c-2.475,0.349-4.039-0.53-4.391-2.28c-0.357-1.786,0.725-3.177,3.134-3.816c1.434-0.381,2.909-0.623,4.377-0.848
		c1.142-0.174,2.298-0.071,3.278,0.606c1.801,1.251,3.707,1.207,5.73,0.703c2.532-0.629,3.248-2.14,1.811-4.294
		c-2.253-3.375-5.435-5.328-9.519-5.344c-3.457-0.012-6.848,0.717-10.084,1.946c-2.383,0.907-4.129,2.637-5.435,4.813
		c-2.24,3.734-2.054,7.643-0.655,11.544C166.276,77.141,170.213,79.365,174.391,78.734z M200.341,60.104
		c1.135,0.013,2.274-0.044,3.401,0.048c1.625,0.133,2.468,0.971,2.691,2.587c0.09,0.654,0.084,1.326,0.09,1.99
		c0.065,6.652,0.219,13.305,0.147,19.957c-0.051,4.782,1.804,4.869,5.307,4.634c1.642-0.113,2.557-1.082,2.683-2.725
		c0.055-0.702,0.032-1.409,0.027-2.112c-0.057-6.965-0.133-13.93-0.169-20.897c-0.014-2.581,0.966-3.547,3.533-3.624
		c1.056-0.034,2.113-0.019,3.168-0.073c0.922-0.046,1.854-0.25,2.377-1.07c1.084-1.689,0.929-3.56,0.298-5.31
		c-0.538-1.488-2.004-1.569-3.377-1.559c-3.405,0.025-6.808,0.06-10.213,0.089h-0.001c-3.365,0.031-6.73,0.043-10.095,0.095
		c-2.748,0.043-3.621,0.968-3.621,3.741c0,0.156,0,0.313,0.004,0.469C196.646,59.199,197.517,60.072,200.341,60.104z
		 M244.584,88.751c1.461-4.912,2.976-9.807,4.469-14.709c-0.003-0.001-0.006-0.002-0.009-0.002l-0.002,0
		c1.447-4.753,2.883-9.508,4.347-14.255c0.836-2.705,1.94-3.286,4.677-2.466c4.008,1.201,8.013,2.419,12.011,3.656
		c6.689,2.069,10.252,7.61,8.811,14.464c-1.043,4.961-2.5,9.873-4.506,14.548c-2.469,5.758-8.495,8.539-14.559,6.853
		c-4.372-1.215-8.695-2.594-13.027-3.949C244.585,92.197,243.926,90.966,244.584,88.751z M256.692,87.792
		c1.326,0.469,2.675,0.894,4.044,1.214c3.393,0.797,5.646-0.477,6.726-3.787c0.764-2.343,1.454-4.71,2.171-7.067
		c0.332-1.086,0.685-2.166,0.972-3.262c0.882-3.356-0.287-5.573-3.546-6.712c-1.217-0.425-2.459-0.788-3.701-1.142
		c-2.546-0.729-3.737-0.115-4.556,2.413c-0.747,2.306-1.422,4.638-2.128,6.957l-0.001,0l0.009,0.002
		c-0.728,2.394-1.508,4.777-2.175,7.189C253.889,85.85,254.516,87.022,256.692,87.792z M278.578,93.878
		c6.783-5.797,13.574-11.582,20.384-17.35c2.368-2.006,3.291-2.058,6.023-0.557c0.308,0.172,0.615,0.342,0.923,0.514
		c2.927,1.644,3.355,2.5,2.851,5.782c-1.53,9.981-3.063,19.959-4.605,29.937c-0.131,0.849-0.281,1.703-0.518,2.527
		c-0.45,1.569-1.416,2.043-2.964,1.474c-0.584-0.215-1.132-0.53-1.697-0.797c-2.573-1.476-3.044-2.417-2.652-5.369
		c0.083-0.62,0.13-1.248,0.254-1.86c0.413-2.009-0.395-3.444-2.098-4.419c-2.171-1.249-4.359-2.471-6.564-3.656
		c-1.68-0.903-3.289-0.842-4.769,0.508c-0.75,0.685-1.55,1.319-2.364,1.929c-1.269,0.952-2.644,1.121-4.08,0.386
		c-0.939-0.479-1.902-0.933-2.713-1.623c-1.154-0.979-1.256-2.017-0.236-3.143C275.205,96.561,276.945,95.275,278.578,93.878z
		 M295.167,94.93c1.722,0.94,3.015,0.585,3.617-1.064c0.444-1.22,0.641-2.512,0.594-3.804c-0.057-1.54-1.059-2.057-2.417-1.281
		c-0.919,0.525-1.702,1.251-2.445,2.001C292.961,92.355,293.208,93.861,295.167,94.93z M342.248,105.232
		c0.76-0.852,0.702-1.681,0.058-2.545c-0.545-0.733-1.283-1.258-1.986-1.817c-1.874-1.483-3.08-1.591-5.162-0.386
		c-2.709,1.568-5.381,3.198-8.089,4.771c-0.898,0.524-1.947,1.293-2.903,0.464c-0.878-0.761-0.386-1.903-0.062-2.863
		c0.95-2.818,1.953-5.618,2.888-8.441c0.963-2.901,0.653-3.871-1.724-5.799l-0.002,0.002c-0.152-0.124-0.3-0.252-0.454-0.371
		c-2.305-1.804-3.646-1.408-4.645,1.369c-0.025,0.073-0.051,0.147-0.075,0.222c-2.173,6.412-4.396,12.804-6.491,19.24
		c-1.163,3.57-2.488,7.008-5.166,9.755c-0.163,0.166-0.29,0.37-0.412,0.57c-0.961,1.574-0.548,2.865,1.427,4.473
		c1.979,1.61,3.346,1.78,4.661,0.495c0.641-0.628,1.201-1.342,1.752-2.051c1.241-1.602,2.77-2.847,4.516-3.867
		c6.753-3.953,13.492-7.932,20.237-11.898C341.228,106.194,341.772,105.766,342.248,105.232z M309.536,256.4
		c-0.435-0.667-0.728-1.312-0.518-2.182c0.683-2.835-0.274-5.172-2.33-7.149c-0.736-0.707-1.26-1.505-1.629-2.442
		c-0.861-2.184-1.425-4.531-3.454-6.148c-0.199-0.159-0.311-0.471-0.357-0.731c-0.544-3.065-2.568-4.959-5.5-6.105
		c-0.791-0.309-1.298-0.764-1.708-1.454c-2.978-5.016-5.976-10.058-9.203-14.981c-5.629-8.587-12.122-16.753-19.625-24.048
		c-1.529-1.486-3.066-2.966-4.686-4.526c0.282-0.031,0.374-0.067,0.445-0.046c0.6,0.181,1.198,0.378,1.794,0.56
		c9.269,2.824,19.139,4.757,28.956,3.98c4.427-0.35,8.719-1.308,12.529-3.537c4.063-2.376,6.173-5.595,5.462-10.283
		c-0.41-2.701-0.682-5.425-1.013-8.132c-1.484-12.094-2.787-24.369-5.176-36.222c-0.355-1.764-1.019-3.403-2.174-4.903
		c-2.896-3.762-7.018-5.782-11.358-7.163c-6.783-2.159-16.332-1.654-23.038,0.158c-7.041,1.903-15,5.469-21.166,9.283
		c-5.091,3.148-9.984,6.777-14.713,10.492c-2.16,1.696-2.877,1.738-4.684,0.52c-0.426-0.287-0.899-0.525-1.378-0.737
		c-6.524-2.887-13.13-2.403-19.755,0.965c-0.979,0.498-1.642,0.491-2.308-0.197c-0.215-0.221-0.475-0.41-0.698-0.621
		c-5.417-5.123-12.309-10.262-18.952-13.9c-6.375-3.492-14.45-6.694-21.786-8.141c-6.048-1.193-12.175-1.868-18.236-0.476
		c-3.903,0.896-6.982,2.67-8.524,6.056c-2.645,5.808-5.054,11.802-7.192,17.787c-2.703,7.568-5.406,15.166-8.126,22.728
		c-0.958,2.664-0.752,5.266,0.815,7.859c2.312,3.825,5.835,6.387,9.939,8.262c6.282,2.871,12.968,3.934,19.812,4.143
		c6.876,0.21,13.622-0.698,20.288-2.192c1.159-0.26,2.304-0.602,3.714-0.691c-0.363,0.393-0.591,0.653-0.834,0.901
		c-2.395,2.443-4.805,4.906-7.049,7.396c-12.941,14.358-23.07,29.929-30.608,47.218c-0.839,1.923-1.455,3.996-2.665,5.823
		c-0.439,0.663-0.681,1.275-0.697,2.023c-0.26,12.659-0.687,54.852-0.766,63.233c-0.004,0.379-0.031,0.769,0.038,1.132
		c0.294,1.551,1.759,1.989,3.301,1.019c1.24-0.779,2.36-1.651,3.334-2.705c2.503-2.708,5.059-5.34,7.613-7.892
		c11.456-11.447,23.386-22.625,35.29-33.761c2.976-2.784,6.355-5.416,8.664-8.58c4.762-6.525,8.443-13.428,11.77-20.788
		c5.229-11.566,8.746-23.967,11.477-36.281c0.538-2.425,1.039-4.9,1.558-7.355c0.526,2.976,0.991,5.945,1.614,8.865
		c2.533,11.883,7.035,23.599,12.762,34.519c4.644,8.855,10.908,17.039,15.662,25.794c1.036,1.909,2.636,3.653,3.688,5.677
		c0.675,1.298,1.937,2.348,2.951,3.498c0.565,0.641,0.777,1.355,0.967,2.166c0.707,3.008,2.026,5.827,5.086,7.345
		c1.423,0.706,2.222,1.66,2.914,2.86c0.717,1.241,1.397,2.501,2.122,3.738c2.739,4.67,5.541,9.307,9.176,13.401
		c2.536,2.856,5.814,4.18,9.689,4.248c5.326,0.093,10.257-1.598,15.011-3.857c7.884-3.745,14.973-9.029,20.02-15.783
		c4.005-5.36,4.793-10.566,1.764-15.91C315.252,265.542,312.506,260.95,309.536,256.4z M105.531,253.118
		c-0.154-3.197-1.092-6.458-3.245-9.566c-0.331-0.478-0.943-0.676-1.492-0.48c-0.358,0.126-7.166,2.768-7.407,17.967
		c-0.927-2.59-1.775-5.206-2.54-7.845c-1.154-3.977-0.104-8.246,2.742-11.255c4.475-4.731,9.738-12.181,9.324-20.765
		c-0.101-2.098-0.541-4.262-1.416-6.471c-0.214-0.542-0.764-0.872-1.343-0.808c-0.445,0.05-9.49,1.339-13.243,20.992
		c-0.603-4.257-1.007-8.538-1.18-12.825l-0.002-0.042c-0.104-2.455,1.074-4.795,3.132-6.137
		c6.025-3.927,15.971-12.229,15.404-23.976c-0.049-1.021-0.178-2.066-0.395-3.138c-0.115-0.571-0.599-0.993-1.18-1.03
		c-0.445-0.029-9.517-0.35-16.655,18.148c0.061-0.755,0.128-1.509,0.202-2.263c0.586-5.981,2.465-11.785,5.694-16.854
		c5.833-9.156,7.109-15.556,6.91-19.672c-0.191-3.956-1.737-5.806-1.886-5.974c-0.385-0.437-1.015-0.56-1.537-0.303
		c-12.751,6.285-12.936,21.81-12.199,29.325c0.234,2.388,0.215,4.795-0.115,7.172l-0.072,0.516
		c-1.181-3.926-3.201-7.748-6.565-10.706c-3.459-3.042-4.313-3.197-4.697-3.079c-1.776,0.549-2.038,4.359-2.14,5.844
		c-0.542,7.893,5.108,18.006,9.809,25.019c1.45,2.163,2.308,4.671,2.422,7.273c0.001,0.014,0.001,0.028,0.002,0.041
		c0.011,0.266,0.377,6.123,0.665,8.777c-2.84-3.971-6.96-7.33-12.893-7.999c-0.578-0.065-1.129,0.265-1.344,0.806
		c-0.148,0.379-3.136,8.599,12.968,20.282c2.475,1.796,4.295,4.364,5.082,7.319c0.853,3.209,1.823,6.39,2.908,9.532
		c-3.921-3.626-9.085-6.325-15.588-5.662c-0.579,0.059-1.047,0.5-1.142,1.074c-0.073,0.432-1.335,9.809,18.546,18.449
		c2.986,1.298,5.511,3.51,7.048,6.381c0.228,0.426,0.458,0.85,0.692,1.273c0.497,0.901,1.611,1.373,2.55,0.951
		c0.761-0.342,1.181-1.097,1.144-1.861c-0.014-0.287-0.092-0.574-0.24-0.842c-0.353-0.638-0.7-1.278-1.041-1.922
		c-1.743-3.289-1.687-7.219,0.129-10.469C103.61,264.264,105.805,258.794,105.531,253.118z M358.337,255.281
		c-6.503-0.663-11.667,2.036-15.588,5.662c1.085-3.143,2.055-6.323,2.908-9.532c0.786-2.955,2.606-5.523,5.082-7.319
		c16.104-11.682,13.116-19.903,12.968-20.282c-0.214-0.541-0.765-0.872-1.344-0.806c-5.932,0.669-10.053,4.028-12.893,7.999
		c0.288-2.654,0.654-8.512,0.665-8.777c0-0.014,0.001-0.027,0.002-0.041c0.115-2.602,0.973-5.11,2.422-7.273
		c4.701-7.013,10.351-17.126,9.809-25.019c-0.102-1.485-0.364-5.295-2.14-5.844c-0.384-0.119-1.238,0.037-4.697,3.079
		c-3.364,2.958-5.384,6.78-6.565,10.706l-0.072-0.516c-0.33-2.377-0.349-4.784-0.115-7.172c0.737-7.515,0.552-23.04-12.199-29.325
		c-0.522-0.257-1.153-0.134-1.537,0.303c-0.149,0.168-1.695,2.018-1.886,5.974c-0.198,4.116,1.077,10.516,6.91,19.672
		c3.229,5.068,5.108,10.873,5.694,16.854c0.074,0.753,0.141,1.508,0.202,2.263c-7.138-18.497-16.21-18.177-16.655-18.148
		c-0.581,0.038-1.065,0.459-1.18,1.03c-0.218,1.072-0.346,2.117-0.395,3.138c-0.567,11.747,9.379,20.05,15.404,23.976
		c2.058,1.341,3.236,3.682,3.133,6.137l-0.002,0.042c-0.173,4.286-0.577,8.567-1.18,12.825
		c-3.753-19.653-12.799-20.943-13.243-20.992c-0.579-0.064-1.129,0.266-1.343,0.808c-0.875,2.209-1.314,4.374-1.416,6.471
		c-0.414,8.584,4.849,16.034,9.324,20.765c2.846,3.009,3.896,7.278,2.742,11.255c-0.766,2.639-1.613,5.255-2.54,7.845
		c-0.241-15.199-7.049-17.841-7.407-17.967c-0.549-0.196-1.161,0.002-1.492,0.48c-2.152,3.109-3.09,6.369-3.245,9.566
		c-0.274,5.677,1.921,11.147,4.183,15.196c1.816,3.25,1.872,7.18,0.129,10.469c-0.341,0.644-0.688,1.284-1.041,1.922
		c-0.148,0.268-0.226,0.555-0.24,0.842c-0.037,0.765,0.384,1.519,1.144,1.861c0.939,0.422,2.053-0.05,2.55-0.951
		c0.233-0.423,0.464-0.847,0.692-1.273c1.537-2.87,4.062-5.083,7.048-6.381c19.881-8.64,18.619-18.016,18.546-18.449
		C359.384,255.78,358.916,255.34,358.337,255.281z M136.374,328.243c1.333,0.719,2.602,1.569,3.853,2.429
		c0.973,0.67,1.762,1.553,2.017,2.744c0.469,2.191,1.92,3.492,3.779,4.531c2.326,1.303,3.918,0.678,4.353-1.933
		c0.683-4.091-0.322-7.771-3.355-10.64c-2.566-2.426-5.603-4.256-8.876-5.602c-2.407-0.992-4.92-0.924-7.415-0.215
		c-4.28,1.215-6.876,4.258-8.563,8.143c-1.714,3.953-0.335,8.363,3.218,10.816c1.02,0.703,2.093,1.328,3.142,1.99v0.001
		l-0.019,0.028c1.05,0.662,2.105,1.312,3.144,1.988c0.81,0.526,1.53,1.155,2.096,1.948c0.741,1.036,0.916,2.12,0.246,3.251
		c-0.694,1.174-1.778,1.541-3.078,1.39c-0.643-0.076-1.259-0.283-1.808-0.614c-1.367-0.828-2.74-1.652-4.055-2.562
		c-0.926-0.641-1.786-1.443-2.013-2.601c-0.459-2.353-1.984-3.746-3.991-4.782c-2.229-1.153-3.75-0.433-4.158,2.057
		c-0.697,4.241,0.437,7.949,3.524,10.947c2.373,2.306,5.204,3.975,8.244,5.258c1.676,0.707,3.459,0.969,5.288,0.81
		c4.902-0.425,8.248-3.065,10.588-7.265c2.191-3.934,1.607-8.291-1.646-11.399c-0.699-0.668-1.48-1.216-2.293-1.731
		c-1.857-1.178-3.753-2.301-5.55-3.566c-2.088-1.471-2.64-3.221-1.677-4.77C132.35,327.315,134.129,327.035,136.374,328.243z
		 M174.416,336.944c-2.137-1.218-4.525-1.799-6.829-2.578c-6.203-2.099-12.301,0.379-15.329,6.169
		c-1.249,2.39-1.831,5.027-2.456,6.604h0.002c-1.03,3.004-1.8,5.066-2.445,7.166c-2.017,6.557,0.622,12.691,6.766,15.645
		c2.015,0.969,4.164,1.65,6.34,2.184c2.711,0.664,5.396,0.515,7.989-0.591c1.872-0.798,3.481-1.962,4.714-3.593
		c0.978-1.295,0.979-2.466,0.074-3.357c-1.472-1.451-5.117-2.242-6.967-1.269c-2.431,1.281-4.763,1.021-7.159,0.059
		c-3.479-1.396-4.651-3.819-3.478-7.384c1.101-3.34,2.261-6.662,3.425-9.98c0.236-0.674,0.559-1.33,0.935-1.938
		c0.68-1.096,1.656-1.832,2.947-2.088c2.781-0.552,7.26,1.258,8.518,3.766c1.104,2.203,2.852,3.216,5.058,3.818
		c2.283,0.625,3.55-0.215,3.524-2.592C180.002,342.638,178.3,339.156,174.416,336.944z M209.974,342.148
		c-0.474-0.079-0.953-0.12-1.432-0.161c-3.001-0.261-4.023,0.565-4.337,3.55c-0.264,2.504-0.456,5.017-0.749,7.517
		c-0.273,2.321-1.301,3.166-3.613,3.021c-1.555-0.098-3.108-0.254-4.656-0.436c-2.403-0.284-3.324-1.374-3.146-3.769
		c0.161-2.152,0.332-4.309,0.606-6.448c0.571-4.445-0.617-5.271-5.149-5.383c-0.041,0-0.081,0.002-0.12,0.005
		c-1.58,0.092-2.433,0.77-2.795,2.302c-0.146,0.619-0.209,1.261-0.27,1.896c-0.921,9.629-1.838,19.26-2.748,28.891
		c-0.064,0.676-0.137,1.357-0.113,2.033c0.051,1.385,0.827,2.357,2.159,2.678c1.129,0.271,2.292,0.387,3.452,0.32
		c1.316-0.073,2.245-0.859,2.563-2.146c0.151-0.617,0.206-1.261,0.271-1.896c0.25-2.466,0.445-4.938,0.74-7.398
		c0.233-1.945,1.133-2.893,2.871-2.92c2.117-0.031,4.238,0.17,6.312,0.607c1.479,0.311,2.155,1.227,2.226,2.727
		c0.027,0.596-0.029,1.198-0.082,1.793c-0.219,2.471-0.498,4.933-0.661,7.406c-0.14,2.122,0.801,3.203,2.896,3.532
		c0.396,0.062,0.793,0.097,1.192,0.133c3.024,0.269,3.988-0.513,4.291-3.57c0.495-5.012,0.96-10.028,1.437-15.042l0.007,0.001
		c0.304-3.184,0.609-6.366,0.908-9.55c0.202-2.148,0.44-4.295,0.575-6.449C212.727,343.508,211.82,342.453,209.974,342.148z
		 M247.468,363.328c0.891,6.859-3.224,12.746-10.007,14.203c-2.339,0.502-4.71,0.923-7.127,0.885
		c-5.245-0.08-9.76-3.33-11.516-8.275c-0.618-1.743-0.973-3.543-1.199-5.371c-0.474-3.805-1.388-7.557-1.465-11.408
		c-0.131-6.59,4.171-11.723,10.644-12.75c1.501-0.239,3.002-0.463,4.508-0.671c7.01-0.965,12.986,3.369,14.215,10.341
		c0.396,2.244,0.68,4.506,1.016,6.76h0.002C246.851,359.137,247.194,361.228,247.468,363.328z M239.162,363
		c-0.421-3.25-0.938-6.489-1.444-9.728c-0.105-0.666-0.304-1.327-0.541-1.961c-0.814-2.186-2.408-3.292-4.739-3.374
		c-1.049-0.037-2.075,0.127-3.097,0.312c-3.578,0.648-5.15,2.757-4.717,6.387c0.213,1.786,0.521,3.561,0.784,5.34h0.002
		c0,0,0.006,0,0.009-0.001c0.276,1.858,0.488,3.729,0.843,5.573c0.666,3.476,2.805,5.039,6.333,4.73
		c0.398-0.035,0.794-0.095,1.188-0.158C237.954,369.442,239.704,367.174,239.162,363z M281.473,350.22
		c2.516,6.442-0.062,13.146-6.293,16.192c-2.149,1.051-4.35,2.029-6.704,2.574c-5.11,1.184-10.273-0.883-13.167-5.26
		c-1.021-1.543-1.799-3.205-2.458-4.925c-1.374-3.579-3.166-7-4.168-10.719c-1.712-6.365,1.227-12.382,7.262-14.937
		c1.398-0.593,2.803-1.172,4.214-1.736c6.571-2.623,13.413,0.145,16.284,6.615c0.924,2.082,1.745,4.209,2.613,6.316h0.001
		C279.865,346.301,280.702,348.246,281.473,350.22z M273.333,351.901c-1.19-3.055-2.472-6.073-3.743-9.094
		c-0.262-0.621-0.614-1.215-0.997-1.773c-1.316-1.926-3.129-2.615-5.411-2.134c-1.027,0.218-1.983,0.622-2.932,1.048
		c-3.315,1.49-4.334,3.916-3.04,7.334c0.637,1.683,1.362,3.33,2.047,4.994h0.002c0,0,0.005-0.002,0.008-0.003
		c0.715,1.737,1.371,3.502,2.16,5.206c1.482,3.213,3.934,4.216,7.284,3.066c0.378-0.129,0.747-0.282,1.115-0.439
		C273.712,358.444,274.863,355.821,273.333,351.901z M315.916,336.489c-1.663-2.281-2.942-2.512-5.242-0.885
		c-3.295,2.334-6.564,4.701-9.855,7.042c-2.807,1.997-3.962,1.813-5.952-0.946c-1.964-2.723-3.912-5.456-5.868-8.186
		c-2.329-3.25-4.639-6.512-6.995-9.74c-1.62-2.218-2.901-2.396-5.18-0.828c-0.229,0.158-0.456,0.322-0.682,0.488
		c-2.332,1.707-2.551,2.959-0.862,5.334c2.942,4.139,5.908,8.258,8.864,12.385l-0.002-0.001c2.91,4.062,5.809,8.13,8.73,12.185
		c1.896,2.628,3.061,2.83,5.672,0.969c5.598-3.99,11.183-8.002,16.77-12.008c0.324-0.232,0.651-0.467,0.945-0.736
		c1.152-1.05,1.364-2.32,0.596-3.681C316.581,337.395,316.246,336.941,315.916,336.489z M211.657,306.04L211.657,306.04
		c0.003,2.119,0.036,4.238-0.003,6.355c-0.128,6.915-5.063,12.133-11.986,12.577c-2.388,0.153-4.795,0.22-7.18-0.173
		c-5.176-0.852-9.164-4.729-10.174-9.878c-0.355-1.816-0.441-3.649-0.396-5.49c0.092-3.833-0.262-7.679,0.229-11.499
		c0.84-6.538,5.85-10.982,12.403-11.047c1.519-0.016,3.038-0.017,4.557,0c7.076,0.076,12.35,5.241,12.54,12.318
		C211.708,301.482,211.656,303.761,211.657,306.04z M203.489,301.015c-0.005-0.674-0.104-1.356-0.246-2.019
		c-0.483-2.282-1.897-3.61-4.191-4.034c-1.032-0.191-2.071-0.181-3.109-0.147c-3.635,0.115-5.499,1.971-5.604,5.624
		c-0.052,1.799-0.009,3.599-0.009,5.397l0.002,0.001c0,0,0.005,0,0.008,0c0,1.879-0.065,3.761,0.015,5.637
		c0.147,3.536,2.032,5.396,5.568,5.609c0.398,0.024,0.799,0.023,1.199,0.019c4.226-0.058,6.289-2.044,6.367-6.252
		C203.549,307.573,203.514,304.293,203.489,301.015z M229.318,295.057c4.317-0.045,8.636-0.032,12.953-0.022
		c1.435,0.003,2.902-0.17,3.393-1.686c0.593-1.831,0.743-3.774-0.375-5.543c-0.287-0.455-0.803-0.673-1.325-0.752
		c-0.629-0.098-1.271-0.168-1.905-0.168c-6.836-0.012-13.673-0.013-20.511,0c-0.636,0-1.28,0.054-1.903,0.176
		c-1.084,0.213-1.781,0.907-1.991,1.987c-0.136,0.699-0.18,1.428-0.182,2.142c-0.014,4.919-0.008,9.837-0.008,14.755l-0.002-0.002
		c-0.001,4.679-0.003,9.356,0.002,14.034c0.001,0.799-0.02,1.604,0.067,2.396c0.18,1.621,1.182,2.496,2.907,2.628
		c3.255,0.251,4.72-0.299,5.218-1.999c0.133-0.453,0.172-0.944,0.183-1.419c0.028-1.239,0.016-2.479,0.022-3.719
		c0.009-1.639-0.039-3.281,0.049-4.916c0.103-1.896,1.049-2.813,2.934-2.987c0.596-0.055,1.198-0.042,1.798-0.046
		c2.238-0.009,4.478-0.014,6.717-0.021c1.111-0.003,2.152-0.337,2.641-1.351c0.813-1.693,0.793-3.543,0.09-5.239
		c-0.634-1.529-2.162-1.559-3.605-1.553c-2.479,0.011-4.959,0.04-7.437-0.035c-2.099-0.062-3.137-1.208-3.154-3.277
		C225.872,296.235,226.984,295.081,229.318,295.057z M131.803,198.883c-3.155-0.288-4.223-1.352-4.763-4.742
		c-0.062-0.388-0.105-0.781-0.134-1.173c-0.151-2.025-0.829-2.306-1.538-2.307c0,0-0.001,0-0.002,0
		c-0.873,0-1.498,0.403-1.713,2.371c-0.508,4.633-1.23,5.413-5.52,5.961c-1.555,0.198-2.177,0.756-2.149,1.927
		c0.025,1.049,0.63,1.545,2.16,1.768c3.626,0.532,4.527,1.504,5.074,5.475c0.032,0.227,0.053,0.461,0.074,0.695
		c0.053,0.586,0.103,1.139,0.312,1.548c0.357,0.695,1.017,1.103,1.752,1.038c0.711-0.056,1.282-0.527,1.525-1.263
		c0.155-0.469,0.263-1.052,0.32-1.732c0.331-3.954,1.229-5.035,4.805-5.785c1.399-0.295,2.194-0.72,2.114-2.021
		C134.051,199.507,133.423,199.03,131.803,198.883z M313.694,198.883c-3.155-0.288-4.223-1.352-4.763-4.742
		c-0.062-0.388-0.105-0.781-0.134-1.173c-0.151-2.025-0.829-2.306-1.538-2.307c0,0-0.001,0-0.002,0
		c-0.873,0-1.498,0.403-1.713,2.371c-0.508,4.633-1.23,5.413-5.52,5.961c-1.555,0.198-2.177,0.756-2.149,1.927
		c0.025,1.049,0.63,1.545,2.16,1.768c3.626,0.532,4.527,1.504,5.074,5.475c0.032,0.227,0.053,0.461,0.074,0.695
		c0.053,0.586,0.103,1.139,0.312,1.548c0.357,0.695,1.017,1.103,1.752,1.038c0.711-0.056,1.282-0.527,1.525-1.263
		c0.155-0.469,0.263-1.052,0.32-1.732c0.331-3.954,1.229-5.035,4.805-5.785c1.399-0.295,2.194-0.72,2.114-2.021
		C315.942,199.507,315.314,199.03,313.694,198.883z M222.749,109.022c-3.155-0.288-4.223-1.352-4.763-4.742
		c-0.062-0.388-0.105-0.781-0.134-1.173c-0.151-2.025-0.829-2.306-1.538-2.307c0,0-0.001,0-0.002,0
		c-0.873,0-1.498,0.403-1.713,2.371c-0.508,4.633-1.23,5.413-5.52,5.961c-1.555,0.198-2.177,0.756-2.149,1.927
		c0.025,1.049,0.63,1.545,2.16,1.768c3.626,0.532,4.527,1.504,5.074,5.475c0.032,0.227,0.053,0.461,0.074,0.695
		c0.053,0.586,0.103,1.139,0.312,1.548c0.357,0.695,1.017,1.103,1.752,1.038c0.711-0.056,1.282-0.527,1.525-1.263
		c0.155-0.469,0.263-1.052,0.32-1.732c0.331-3.954,1.229-5.035,4.805-5.785c1.399-0.295,2.194-0.72,2.114-2.021
		C224.996,109.646,224.368,109.169,222.749,109.022z M222.749,258.305c-3.155-0.288-4.223-1.352-4.763-4.742
		c-0.062-0.388-0.105-0.781-0.134-1.173c-0.151-2.025-0.829-2.306-1.538-2.307c0,0-0.001,0-0.002,0
		c-0.873,0-1.498,0.403-1.713,2.371c-0.508,4.633-1.23,5.413-5.52,5.961c-1.555,0.198-2.177,0.756-2.149,1.927
		c0.025,1.049,0.63,1.545,2.16,1.768c3.626,0.532,4.527,1.504,5.074,5.475c0.032,0.227,0.053,0.461,0.074,0.695
		c0.053,0.586,0.103,1.139,0.312,1.548c0.357,0.695,1.017,1.103,1.752,1.038c0.711-0.056,1.282-0.527,1.525-1.263
		c0.155-0.469,0.263-1.052,0.32-1.732c0.331-3.954,1.229-5.035,4.805-5.785c1.399-0.295,2.194-0.72,2.114-2.021
		C224.996,258.929,224.368,258.451,222.749,258.305z"/>
	<path class="st5" d="M195.926,172.171c-13.19,5.299-26.056,9.477-40.391,10.852c-7.452,0.715-17.012-0.519-23.821-3.544
		c-2.998-1.332-5.804-3.056-8.03-5.484c-4.361-4.756-3.309-10.099,2.498-12.457c3.375-1.37,7.13-1.898,10.803-1.87
		c8.552,0.065,16.978,1.096,25.513,2.54c6.876,1.163,13.954,2.509,20.974,3.294c3.375,0.377,6.78,0.685,10.198,0.508
		c1.9-0.098,2.838,0.606,3.349,2.133c-1.407,0.295-2.829,0.253-4.245,0.264c-7.412,0.055-15.284-1.018-22.504-2.396
		c-6.833-1.304-13.835-2.517-20.799-3.264c-6.057-0.649-12.131-1.157-18.124-0.19c-1.723,0.278-3.368,0.761-4.867,1.544
		c-3.107,1.622-3.754,4.31-1.745,7.293c2.076,3.083,5.252,4.87,8.675,6.299c5.709,2.384,11.74,3.096,17.843,3.063
		c10.633-0.057,21.16-2.422,31.048-5.89c4.574-1.604,9.262-2.993,13.989-4.263c0.44-0.118,0.879-0.261,1.407-0.172
		C197.395,171.279,196.769,171.833,195.926,172.171z M232.753,145.769c4.529-3.718,9.361-7.203,14.285-10.341
		c6.009-3.829,13.916-7.404,20.821-9.28c6.759-1.837,16.669-1.964,23.29,0.747c3.549,1.453,6.943,3.394,9.95,6.254
		c-0.099-1.399-0.493-2.444-1.16-3.439c-1.315-1.962-3.107-3.437-5.181-4.59c-5.128-2.85-10.686-3.881-16.396-3.702
		c-6.274,0.197-12.589,1.569-18.237,3.989c-10.387,4.453-19.632,10.512-28.354,17.529c-1.266,1.018-1.253,1.318-0.313,2.689
		C231.839,146.182,232.076,146.325,232.753,145.769z M158.051,123.034c6.976,1.226,15.265,4.143,21.482,7.468
		c6.74,3.605,13.771,8.842,19.231,14.016c1.234,1.169,1.211,1.12,2.484-0.15c0.992-0.99,0.126-1.453-0.419-1.964
		c-4.716-4.415-9.768-8.477-15.406-11.917c-8.261-5.04-17.509-8.855-27.339-10.443c-5.169-0.835-10.341-1.103-15.31,0.419
		c-2.643,0.81-4.75,2.151-5.791,4.701c0.247-0.05,0.365-0.051,0.453-0.095C143.158,122.258,151.929,121.958,158.051,123.034z
		 M269.742,139.795c-0.905,0.109-1.115,0.436-1.005,1.228c0.441,3.161,0.858,6.327,1.24,9.499c0.104,0.863,0.583,0.964,1.371,0.94
		c4.476-0.14,8.954-0.153,13.382,0.673c0.968,0.18,1.049-0.203,0.957-0.937c-0.446-3.54-0.879-7.082-1.289-10.627
		c-0.08-0.691-0.436-0.989-1.131-1.028c-1.854-0.106-3.707-0.211-5.561-0.299C275.041,139.313,272.39,139.477,269.742,139.795z
		 M151.084,136.067c1.213,0.22,1.817-0.14,2.21-1.182c1.138-3.017,2.377-6.005,3.614-8.998c0.249-0.602,0.178-0.807-0.603-0.915
		c-4.407-0.608-8.732-0.487-12.998,0.373c-0.533,0.107-0.693,0.424-0.862,0.814c-1.261,2.905-2.273,5.899-3.386,8.859
		c-0.333,0.886-0.161,1.175,0.959,1.071c2.823-0.264,5.673-0.46,8.545-0.234C149.402,135.92,150.26,135.917,151.084,136.067z
		 M235.262,151.172c-0.601,0.282-0.786,0.621-0.676,1.226c0.238,1.301,0.435,2.614,0.384,3.956
		c-0.001,0.274,0.002,0.549-0.002,0.823c-0.018,1.424-0.015,1.437,1.469,0.99c5.444-1.642,10.966-2.968,16.506-4.169
		c0.907-0.197,1.293-0.476,1.157-1.431c-0.347-2.426-0.574-4.871-0.853-7.305c-0.176-1.536-0.188-1.56-1.714-1.028
		C245.956,146.176,240.604,148.667,235.262,151.172z M267.034,129.425c-0.089-0.692-0.388-0.856-1.087-0.64
		c-4.58,1.415-8.962,3.329-13.192,5.612c-0.479,0.258-0.666,0.549-0.597,1.064c0.303,2.27,0.586,4.544,0.844,6.824
		c0.101,0.884,0.468,1.09,1.412,0.787c4.246-1.365,8.55-2.482,12.95-3.119c0.886-0.128,1.003-0.598,0.912-1.279
		C267.867,135.594,267.432,132.508,267.034,129.425z M179.845,154.062c4.577,1.286,9.075,2.729,13.547,4.224
		c0.757,0.253,1.112,0.191,1.169-0.649c0.133-1.974,0.481-3.931,1.299-5.816c0.257-0.593-0.198-0.745-0.564-0.945
		c-3.834-2.097-7.774-4.028-11.854-5.762c-0.223-0.095-0.456-0.175-0.648-0.248c-0.45-0.016-0.523,0.289-0.61,0.522
		c-0.97,2.593-1.93,5.184-2.882,7.771C179.133,153.616,179.247,153.894,179.845,154.062z M182.587,143.64
		c0.889-2.182,1.814-4.358,2.724-6.544c0.044-0.107,0.07-0.219,0.101-0.33c0.002-0.314-0.282-0.43-0.504-0.582
		c-3.537-2.421-7.403-4.396-11.368-6.283c-0.788-0.375-1.172-0.223-1.466,0.538c-1.059,2.745-2.156,5.473-3.262,8.192
		c-0.231,0.568-0.139,0.893,0.547,1.105c4.118,1.272,8.102,2.78,12.07,4.296C181.986,144.245,182.339,144.249,182.587,143.64z
		 M135.468,148.291c-0.475,0.085-0.97,0.143-1.174,0.661c-1.146,2.914-2.318,5.823-3.562,8.947c4.47-0.559,8.698-0.692,12.971-0.4
		c0.609,0.042,0.92-0.141,1.11-0.638c1.032-2.699,2.079-5.392,3.141-8.081c0.206-0.521,0.219-0.813-0.568-0.874
		C143.36,147.597,139.376,147.596,135.468,148.291z M134.62,147.13c0.884-2.538,1.778-5.068,2.62-7.614
		c0.329-0.994,0.823-1.951,0.887-3.09c-1.888,0.082-3.493,0.621-5.141,1.039c-1.073,0.272-1.68,0.85-2.001,1.817
		c-0.457,1.377-1.074,2.697-1.582,4.06c-0.763,2.049-1.492,4.114-2.355,6.511c2.374-0.748,4.433-1.237,6.525-1.64
		C134.277,148.077,134.449,147.621,134.62,147.13z M149.506,147.758c4.608,0.373,9.104,1.263,13.582,2.179
		c0.784,0.16,1.112-0.083,1.363-0.741c1.055-2.762,2.113-5.529,3.299-8.258c0.449-1.033,0.219-1.442-0.93-1.741
		c-4.115-1.07-8.247-2.101-12.692-2.576c-0.391,0.155-1.116-0.531-1.482,0.332c-1.398,3.294-2.562,6.658-3.773,10.008
		C148.68,147.493,148.889,147.708,149.506,147.758z M161.574,160.106c2.067,0.344,4.122,0.73,6.182,1.088
		c2.47,0.428,4.939,0.845,7.409,1.251c0.725,0.165,0.779-0.374,0.911-0.737c0.794-2.182,1.53-4.383,2.349-6.565
		c0.318-0.845,0.137-1.246-0.853-1.512c-4.075-1.092-8.178-2.114-12.359-2.956c-0.743-0.15-1.144-0.023-1.419,0.663
		c-0.998,2.495-1.998,4.99-3.128,7.433C160.208,159.765,160.643,159.951,161.574,160.106z M299.033,144.486
		c-0.815-0.513-0.9-0.151-0.818,0.543c0.413,3.495,0.822,6.989,1.189,10.482c0.096,0.918,0.513,1.514,1.363,2.021
		c1.45,0.866,2.823,1.858,4.342,2.879c0.002-0.829,0.076-1.574-0.009-2.312c-0.262-2.251-0.854-4.522-0.822-6.749
		c0.048-3.276-1.771-5.195-4.679-6.57C299.406,144.688,299.211,144.598,299.033,144.486z M232.466,181.818
		c0.155,0.417,0.433,0.631,0.96,0.471c2.596-0.787,5.261-1.371,7.998-2.47c-3.589-2.049-7.376-3.176-11.404-4.62
		C230.911,177.607,231.685,179.712,232.466,181.818z M222.647,188.576c0.039,2.906,0.573,5.775,1.021,8.648
		c0.106,0.68,0.337,0.802,1.062,0.508c3.533-1.432,7.149-2.678,10.88-3.586c1.006-0.245,1.008-0.647,0.715-1.393
		c-1.162-2.964-2.32-5.923-3.393-8.9c-0.303-0.841-0.772-0.961-1.586-0.759c-1.721,0.428-3.447,0.836-5.176,1.231
		C222.586,185.146,222.601,185.154,222.647,188.576z M231.509,222.819c0.372,0.863,0.764,0.904,1.574,0.574
		c4.493-1.828,8.997-3.657,13.518-5.47c0.588-0.236,0.659-0.452,0.434-0.954c-1.52-3.384-3.022-6.765-4.525-10.134
		c-0.115-0.257-0.186-0.531-0.569-0.53c-0.161,0.049-0.323,0.094-0.481,0.146c-4.407,1.465-8.81,2.93-13.225,4.344
		c-0.847,0.271-1.054,0.643-0.797,1.459C228.564,215.842,230.006,219.331,231.509,222.819z M252.493,189.27
		c-2.438-2.326-4.704-4.583-7.344-6.489c0.797,1.687,1.685,3.312,2.587,4.934C249.163,190.282,249.167,190.283,252.493,189.27z
		 M254.671,185.06c-1.433-1.623-3.499-2.003-5.395-2.723c-0.077,0.087-0.154,0.175-0.231,0.262c1.544,1.563,3.081,3.168,4.637,4.702
		c9.549,9.415,18.17,19.579,25.579,30.453c2.514,3.691,4.799,7.622,7.072,11.49c0.304,0.517,0.468,1.239,1.372,1.215
		c1.177-0.031,2.355-0.016,3.553-0.023c0.029-0.627-0.345-1.079-0.619-1.555c-5.105-8.875-10.77-17.599-17.298-25.622
		c-4.324-5.314-9.437-10.696-14.849-15.125C257.228,187.1,255.748,186.279,254.671,185.06z M237.556,194.968
		c1.407,3.337,2.817,6.684,4.354,9.994c0.306,0.659,0.674,0.661,1.264,0.468c3.658-1.202,7.319-2.403,10.982-3.603
		c0.489-0.16,0.683-0.344,0.398-0.859c-1.799-3.262-3.568-6.527-5.344-9.776c-0.176-0.322-0.333-0.652-0.818-0.596
		c-0.083,0.017-0.166,0.031-0.247,0.05c-3.447,0.807-6.792,1.915-10.105,3.117C237.347,194.015,237.32,194.41,237.556,194.968z
		 M295.66,131.441c-3.641-2.347-7.663-3.579-11.88-4.199c-0.686-0.101-1.015,0.034-0.908,0.785c0.492,3.454,0.96,6.911,1.416,10.369
		c0.098,0.743,0.449,1.084,1.27,1.189c2.729,0.35,5.398,1.002,7.97,2.041c1.327,0.536,2.656,1.071,4.009,1.625
		c0.055-0.2,0.118-0.312,0.111-0.424c-0.214-3.464-0.633-6.919-1.174-10.371C296.393,131.946,296.065,131.702,295.66,131.441z
		 M301.237,170.551c-5.048-2.85-10.575-4.234-16.213-5.147c-6.449-1.043-12.957-0.943-19.459-0.726
		c-5.318,0.178-10.624,0.69-15.946,0.892c-5.24,0.199-10.46,0.219-15.651-0.269c-0.749-0.07-1.947,0.964-1.934,1.766
		c0.012,0.699,0.797,0.537,1.25,0.619c1.848,0.335,3.742,0.466,5.627,0.551c7.031,0.317,14.213-0.286,21.256-0.667
		c1.602-0.236,3.36-0.186,5.066-0.26c7.453-0.324,15.943-0.297,23.335,1.263c4.6,0.971,9.106,2.299,13.004,5.069
		c4.975,3.534,4.602,8.084-0.807,10.647c-3.99,1.891-8.324,2.382-12.716,2.493c-6.623,0.167-14.223-1.041-20.426-2.98
		c-8.704-2.72-16.889-6.128-25.252-9.846c-3.561-1.583-6.996-3.407-10.753-4.604c-1.313-0.418-1.637,0.47-1.979,1.105
		c-0.355,0.659,0.573,0.699,0.968,0.878c4.286,1.947,8.61,3.925,12.9,5.857c7.912,3.563,15.937,6.983,24.083,9.177
		c8.401,2.262,16.247,3.197,24.978,2.613c3.645-0.244,7.432-1.311,10.683-3.213c5.199-3.042,5.9-7.809,1.756-12.3
		C303.928,172.303,302.65,171.349,301.237,170.551z M246.833,249.95c0.529,0.757,1.054,0.708,1.6,0.097
		c2.577-2.886,5.551-5.406,8.623-7.851c0.244-0.195,0.583-0.344,0.559-0.77c-0.077-0.231-0.142-0.506-0.256-0.762
		c-1.381-3.087-2.791-6.159-4.141-9.247c-0.337-0.771-0.745-0.771-1.455-0.495c-4.191,1.631-8.12,3.732-12.195,5.533
		c-0.782,0.346-0.776,0.753-0.419,1.391C241.471,241.993,244.077,246.003,246.833,249.95z M270.75,233.384
		c0.377,0.836,0.836,0.866,1.647,0.569c3.539-1.299,7.163-2.365,10.92-2.947c1.049-0.163,0.996-0.545,0.644-1.253
		c-0.898-1.808-1.976-3.524-2.99-5.274c-0.473-0.817-1.056-1.194-1.722-1.034c-3.972,0.263-7.57,0.858-11.097,1.861
		c-0.829,0.236-0.958,0.592-0.616,1.295C268.63,228.852,269.722,231.105,270.75,233.384z M286.163,153.501
		c0.394,2.82,0.784,5.64,1.092,8.467c0.121,1.113,0.671,1.539,1.797,1.741c3.043,0.546,5.99,1.466,8.833,2.712
		c0.841,0.369,1.693,0.715,2.78,1.175c-0.464-3.491-0.901-6.768-1.333-10.047c-0.063-0.48-0.468-0.646-0.838-0.847
		c-3.609-1.961-7.468-3.189-11.468-3.977C286.272,152.577,286.062,152.784,286.163,153.501z M266.59,225.013
		c-0.072-0.158-0.151-0.343-0.238-0.525c-1.68-3.487-3.381-6.961-5.025-10.452c-0.306-0.649-0.725-0.534-1.22-0.41
		c-4,1.002-7.832,2.443-11.668,3.866c-0.71,0.263-0.735,0.581-0.483,1.169c1.527,3.562,3.033,7.142,4.524,10.736
		c0.233,0.561,0.497,0.726,1.128,0.472c4.055-1.632,8.202-3.053,12.412-4.331C266.265,225.465,266.647,225.46,266.59,225.013z
		 M270.929,209.944c-2.379-3.046-4.744-6.096-7.294-9.003c-0.533-0.607-1.141-0.79-1.888-0.638c-1.849,0.378-3.693,0.78-5.534,1.197
		c-0.602,0.136-0.936,0.374-0.558,1.076c1.726,3.208,3.396,6.452,5.093,9.691c0.164,0.313,0.313,0.683,0.936,0.572
		c0.17-0.038,0.457-0.099,0.743-0.166c2.652-0.621,5.297-1.291,8.02-1.578C271.499,210.984,271.492,210.664,270.929,209.944z
		 M255.444,153.756c-0.845,0.155-0.975,0.564-0.908,1.256c0.195,2.012,0.341,4.03,0.51,6.047c0.186,2.232,0.212,2.25,2.599,2.1
		c1.545-0.097,3.117-0.237,4.677-0.321c2.656-0.144,5.312-0.271,7.969-0.346c0.858-0.024,1.159-0.229,1.014-1.138
		c-0.442-2.76-0.779-5.537-1.12-8.31c-0.106-0.86-0.448-1.222-1.441-1.142C264.28,152.261,259.857,152.945,255.444,153.756z
		 M220.322,151.903c0.197-1.121,0.259-2.24,0.281-3.262c0.046-0.68,0.045-1.264,0.135-1.841c0.089-0.57-0.158-0.833-0.711-0.995
		c-2.795-0.823-5.647-0.782-8.555-0.011c-0.519,0.138-0.895,0.374-0.948,0.955c-0.16,1.763-0.427,3.523-0.43,5.286
		c-0.001,0.37,0.019,0.691,0.572,0.659c2.951-0.168,5.881-0.007,8.82,0.011C220.123,152.71,220.236,152.39,220.322,151.903z
		 M194.23,196.86c-1.602,3.185-3.212,6.355-4.856,9.501c-0.363,0.694-0.246,1.058,0.567,1.366c3.409,1.291,6.808,2.61,10.181,3.989
		c0.83,0.339,1.05,0.006,1.214-0.582c0.35-1.253,0.714-2.504,1.029-3.766c0.602-2.414,1.253-4.826,1.564-7.273
		c0.119-0.453-0.164-0.63-0.55-0.773c-2.638-0.978-5.28-1.941-7.9-2.946C194.796,196.112,194.505,196.312,194.23,196.86z
		 M214.393,174.537c-9.478,0.455-17.701-7.38-17.493-15.97c0.202-8.345,8.083-17.376,17.985-17.716
		c9.441-0.325,17.807,7.044,17.72,15.778C232.516,165.615,223.914,174.08,214.393,174.537z M230.052,156.762
		c0.169-7.617-6.458-13.895-14.84-13.421c-8.482,0.48-15.543,6.929-15.721,14.738c-0.17,7.482,6.393,14.299,14.688,14.081
		C222.962,171.929,229.874,164.812,230.052,156.762z M211.73,176.748c-1.714-0.186-1.714-0.185-2.196,2.339
		c-0.058,0.304-0.121,0.609-0.168,0.912c-1.165,7.525-2.106,15.26-3.608,22.676c-1.889,9.327-4.645,19.03-8.517,27.781
		c-3.532,7.983-7.731,15.352-12.91,22.531c-0.168,0.233-0.49,0.429-0.325,0.79c0.704,1.537,1.239,3.139,2.225,4.669
		c0.691-0.493,1.127-1.076,1.581-1.646c2.273-2.852,4.227-5.955,5.898-9.079c6.701-12.532,11.509-25.831,15.168-39.443
		c2.492-9.27,4.169-18.896,5.491-28.446C214.674,177.635,214.16,177.012,211.73,176.748z M218.456,161.811
		c-1.893,0.024-3.783-0.025-5.674-0.044c-0.001-0.02-0.001-0.04-0.002-0.06c-0.884,0.039-1.769,0.086-2.653,0.115
		c-0.509,0.016-0.748,0.196-0.783,0.697c-0.132,1.914-0.276,3.828-0.479,5.738c-0.095,0.891,0.328,1.301,1.195,1.555
		c2.672,0.783,5.354,0.666,8.071-0.101c0.714-0.201,1.034-0.576,1.067-1.26c0.091-1.855,0.203-3.711,0.366-5.566
		C219.635,162.078,219.324,161.8,218.456,161.811z M209.18,160.663c0.075-1.342,0.24-2.701,0.369-4.416
		c0.037-0.489,0.053-1.379,0.157-2.26c0.077-0.649-0.17-0.874-0.879-0.86c-1.812,0.036-3.624,0.043-5.432,0.009
		c-0.676-0.013-0.903,0.345-1.071,0.805c-0.804,2.207-1.042,4.423-0.632,6.67c0.096,0.528,0.295,0.764,0.946,0.767
		c1.852,0.008,3.702,0.067,5.548,0.148C208.918,161.559,209.145,161.296,209.18,160.663z M233.558,232.307
		c-7.653-15.348-12.656-30.871-13.397-47.552c-0.108-2.421-0.028-4.955-0.116-7.428c-0.039-1.113-0.59-1.345-2.048-1.122
		c-0.976,0.149-1.586,0.454-1.218,1.513c0.147,0.422,0.205,0.938,0.088,1.368c-0.953,3.499-0.691,7.006-0.433,10.488
		c0.522,7.015,1.811,14.568,3.977,21.282c3.52,10.907,8.141,21.358,13.868,31.405c2.815,4.939,6.008,9.883,9.628,14.837
		c0.596-1.129,1.023-2.1,1.601-2.983c0.462-0.706,0.361-1.254-0.096-1.933C241.134,245.815,236.928,239.064,233.558,232.307z
		 M300.099,272.397c3.664-1.416,7.462-2.409,11.41-2.218c1.102,0.054,2.184,0.24,3.525,0.381c-2.65-4.125-4.657-8.458-7.752-12.208
		c-1.377-1.668-2.918-3.261-5.363-3.699c-2.809-0.503-5.67-0.334-8.41,0.297c-10.779,2.481-20.906,8.323-28.2,15.971
		c-0.989,1.037-3.951,6.453-3.941,8.329c0.005,0.932-0.244,1.862,0.333,2.802c2.271,3.701,4.444,7.451,6.72,11.138
		c0.94,1.524,2.047,2.956,3.227,4.638c0.223-0.629,0.366-0.957,0.456-1.299c0.74-2.798,2.171-5.281,4.063-7.496
		C282.429,281.7,290.759,276.006,300.099,272.397z M312.787,272.361c-2.421-0.429-4.882-0.154-7.268,0.486
		c-10.662,2.859-20.331,9.302-27.356,17.116c-1.789,1.989-3.199,4.22-3.833,6.812c-0.742,3.034,0.627,5.319,3.777,6.217
		c2.488,0.71,5.025,0.552,7.523,0.04c6.301-1.29,12.025-4.102,17.378-7.762c4.386-2.998,8.424-6.429,11.405-10.787
		c1.536-2.245,2.758-4.605,2.741-7.185C317.135,274.373,315.894,272.912,312.787,272.361z M279.143,249.545
		c5.996-2.545,12.326-4.442,19.065-4.356c1.376,0.017,2.745,0.2,4.188,0.305c-0.324-1.624-1.002-3.041-1.67-4.473
		c-0.512-1.099-1.355-1.722-2.563-2.051c-2.963-0.809-5.988-0.841-9.027-0.501c-5.511,0.617-10.904,2.211-15.63,4.593
		c-7.83,3.946-13.855,8.202-19.662,14.327c-1.931,2.037-3.52,4.557-4.175,7.405c-0.258,1.123-0.049,2.083,0.872,2.956
		c0.753,0.714,1.399,1.529,2.078,2.311c1.121,1.289,1.176,1.325,1.948-0.078c1.604-2.912,3.641-5.562,5.977-7.962
		C265.38,257.052,272.577,252.333,279.143,249.545z M274.092,240.952c5.792-2.707,12.392-4.403,19.175-4.334
		c1.646,0.017,3.247,0.346,5.093,0.486c-0.483-1.567-1.448-2.512-2.796-3.087c-1.932-0.824-3.978-1.251-6.123-1.221
		c-6.541,0.09-12.673,1.85-18.507,4.399c-8.421,3.68-16.223,8.883-21.735,15.871c-1.341,1.7-2.413,3.563-2.912,5.671
		c-0.295,1.245-0.143,2.439,0.703,3.522c0.84,1.075,1.076,1.082,1.606-0.101c1.178-2.631,2.857-5.096,4.878-7.062
		C259.706,249.038,265.991,244.739,274.092,240.952z M272.523,261.537c7.525-4.608,14.125-7.638,22.743-9.234
		c3.412-0.632,7.269-0.547,10.53,1.238c0.713,0.39,0.928,0.168,1.082-0.499c0.411-1.777-0.977-4.214-2.906-5.129
		c-2.242-1.063-4.704-0.979-7.038-1.06c-2.647,0.07-5.157,0.389-7.623,0.995c-9.225,2.269-17.633,6.786-24.608,12.71
		c-3.853,3.273-7.125,6.98-9.229,11.494c-1.156,2.481-0.57,4.993,1.625,6.837c0.989,0.831,1.411,0.74,1.588-0.447
		c0.45-3.035,1.884-5.613,3.77-8.027C265.221,266.879,268.705,263.875,272.523,261.537z M227.75,154.208
		c-0.169-0.689-0.439-1.056-1.291-1.05c-1.385,0.011-2.764-0.093-4.269-0.152c-0.467,0.278-1.53-0.432-1.624,0.818
		c-0.173,2.282-0.328,4.564-0.511,6.844c-0.045,0.556,0.089,0.858,0.78,0.863c1.805,0.014,3.609,0.059,5.409,0.133
		c0.643,0.026,0.909-0.262,1.082-0.773C228.075,158.668,228.298,156.447,227.75,154.208z M172.907,202.401
		c1.727,0.543,1.927,0.485,3.032-0.833c0.201-0.24,0.387-0.495,0.539-0.761c1.646-2.876,3.459-5.677,5.275-8.488
		c0.168-0.26,0.302-0.538,0.421-0.754c0.063-0.432-0.287-0.479-0.538-0.571c-1.048-0.381-2.109-0.735-3.156-1.117
		c-0.624-0.227-1.086-0.107-1.555,0.348c-3.21,3.113-6.183,6.376-9.043,9.712c-0.486,0.567-0.301,0.779,0.394,0.985
		C169.832,201.382,171.361,201.915,172.907,202.401z M163.053,226.194c1.579-3.291,3.143-6.587,4.715-9.883
		c0.065-0.136,0.151-0.265,0.214-0.376c0.051-0.51-0.423-0.55-0.739-0.652c-2.809-0.902-5.631-1.771-8.44-2.672
		c-0.63-0.202-1.04-0.052-1.387,0.423c-2.453,3.352-4.588,6.864-6.667,10.418c-0.569,0.972-0.311,1.436,0.83,1.745
		c2.733,0.742,5.448,1.543,8.166,2.334C161.304,227.984,162.396,227.563,163.053,226.194z M182.806,218.831
		c1.596-3.308,3.2-6.622,4.878-9.916c0.479-0.941,0.174-1.33-0.804-1.645c-3.523-1.136-7.03-2.307-10.546-3.456
		c-0.314-0.103-0.648-0.161-0.889-0.219c-0.609-0.066-0.695,0.329-0.861,0.607c-1.997,3.345-3.82,6.755-5.59,10.186
		c-0.389,0.754-0.127,1.035,0.672,1.278c3.949,1.199,7.891,2.42,11.818,3.691C182.225,219.596,182.515,219.434,182.806,218.831z
		 M177.614,232.895c4.235,1.394,8.523,2.687,12.623,4.434c0.841,0.358,1.259,0.208,1.631-0.553
		c1.628-3.329,3.132-6.712,4.476-10.164c0.111-0.284,0.195-0.577,0.254-0.754c0.104-0.531-0.262-0.619-0.561-0.745
		c-4.129-1.741-8.309-3.353-12.587-4.74c-0.747-0.242-1.1-0.117-1.424,0.563c-1.706,3.58-3.446,7.136-5.051,10.739
		C176.653,232.396,176.861,232.647,177.614,232.895z M157.025,240.786c0.863-0.303,1.719-0.619,2.582-0.918
		c1.39-0.482,2.12-0.247,2.787,0.923c0.93,1.634,1.847,3.275,2.751,4.923c0.553,1.008,1.074,2.031,1.604,3.051
		c0.32,0.616,0.99,0.897,1.619,0.951c0.475,0.041,0.471-0.608,0.63-0.961c0.563-1.243,1.071-2.505,1.62-3.753
		c1.635-3.71,3.272-7.421,4.932-11.129c0.253-0.565,0.321-0.959-0.463-1.219c-4.039-1.343-8.096-2.619-12.234-3.667
		c-0.543-0.138-0.924-0.089-1.177,0.48c-1.666,3.742-3.373,7.472-5.106,11.301C156.863,240.782,156.956,240.81,157.025,240.786z
		 M179.839,250.268c-0.332-0.827-0.714-0.912-1.547-0.636c-2.154,0.714-4.291,1.525-6.521,2c-2.72,0.58-4.224,2.079-5.408,4.207
		c-4.207,7.559-8.487,15.116-12.798,22.629c-1.029,1.793-1.353,3.472-0.7,5.354c0.545,1.573,1.165,2.056,3.16,2.086
		c0.62,0.109,1.136-0.166,1.64-0.656c3.737-3.632,20.26-19.263,24.814-23.475c1.204-1.114,1.519-2.154,0.754-3.685
		C181.952,255.534,180.894,252.895,179.839,250.268z M205.393,185.596c0.623,0.252,0.88,0.182,0.963-0.498
		c0.307-2.509,0.669-5.017,0.997-7.435c0-0.287-0.015-0.479,0.004-0.669c0.119-1.171-0.931-1.307-1.758-1.571
		c-0.875-0.28-0.914,0.53-1.117,0.931c-1.12,2.209-2.148,4.447-3.261,6.645c-0.359,0.707-0.151,1.014,0.59,1.261
		C203.023,184.663,204.214,185.12,205.393,185.596z M142.461,240.794c-0.42-0.848-0.705-0.738-1.37-0.228
		c-1.743,1.338-3.503,2.675-5.331,3.943c-0.877,0.608-1.207,1.284-1.208,2.23c-0.012,10.785-0.629,21.689-0.703,32.482
		c-0.01,1.472,1.196,1.994,2.685,1.182c1.484-0.81,2.181-1.957,2.46-3.469c1.542-8.351,3.13-16.719,4.773-25.051
		C144.949,245.886,144.993,245.908,142.461,240.794z M165.609,252.043c-1.636-3.036-3.26-6.071-4.86-9.111
		c-0.328-0.623-0.727-0.814-1.463-0.529c-3.819,1.48-7.649,2.961-11.472,4.49c-0.704,0.281-1.075,0.723-1.212,1.451
		c-1.202,6.347-4.941,26.041-5.502,29.135c-0.082,1.659,2.012,3.982,3.353,4.166c0.422,0.058,0.829-0.028,1.246-0.139
		c1.141-0.304,2.28-0.664,3.443-0.81c0.974-0.123,1.469-0.53,1.895-1.272c4.901-8.527,9.677-17.131,14.515-25.688
		C165.88,253.154,165.931,252.639,165.609,252.043z M142.531,235.918c1.678-4.116,3.464-8.289,5.576-12.107
		c5.453-9.854,12.515-18.889,20.21-27.591c3.804-4.302,8.105-8.375,11.883-12.814c0.943-1.108,1.886-2.218,2.571-3.518
		c-1.588,0.003-4.063,0.943-5.194,1.944c-3.261,2.886-6.242,6.038-9.071,9.149c-6.136,6.746-11.915,13.863-16.874,21.251
		c-4.38,6.525-8.184,13.546-11.578,20.666c-1.19,2.497-2.353,5.088-3.387,8.019c1.657-1.209,3.019-2.24,4.439-3.197
		C141.82,237.237,142.234,236.648,142.531,235.918z M193.449,175.643c-1.985,0.63-3.839,1.312-5.5,2.694
		C191.312,178.723,191.711,178.526,193.449,175.643z M199.827,183.839c-2.793-1.177-5.59-2.344-8.378-3.525
		c-0.561-0.238-0.915-0.105-1.269,0.354c-2.401,3.111-4.522,6.355-6.727,9.54c-0.461,0.667-0.496,1.087,0.443,1.437
		c3.286,1.226,6.549,2.5,9.805,3.791c0.605,0.24,0.868,0.117,1.155-0.407c1.832-3.349,3.456-6.795,5.13-10.234
		c0.068-0.14,0.126-0.285,0.187-0.427C200.24,184.092,200.073,183.943,199.827,183.839z"/>
</g>
</svg>
