<svg xmlns="http://www.w3.org/2000/svg" id="Layer_2" data-name="Layer 2" viewBox="0 0 543.62 333.94"><defs><style>.cls-1{fill:none;stroke:#000;stroke-linecap:round;stroke-linejoin:round}</style></defs><path id="SPLINE" d="m40.88 327.22-3.62-4.27-3.69 4.23z" class="cls-1"/><path id="SPLINE-2" d="m10.79 327.16-3.41-4.39-.03 4.44z" class="cls-1" data-name="SPLINE"/><path id="SPLINE-3" d="M407.3 325.2c4.23 0 7.49-2.36 7.5-6.19l.04-24.5c-1.48-.84-3.06-1.37-4.71-1.37h-10.37c-1.65 0-3.28.54-4.62 1.47l.03 24.26c0 3.94 2.99 6.48 6.84 6.21l.19 2.13h4.95z" class="cls-1" data-name="SPLINE"/><path id="SPLINE-4" d="M124.56 317.99c1.42-5.85 1.44-12.12.03-17.98-1.62-6.76-8.13-7.61-13.97-7.24-.48.73-.94 1.85-.94 2.67v25.67c0 1.42.99 2.69 2.34 3.08 5.28 1.51 11.06-.12 12.53-6.19Z" class="cls-1" data-name="SPLINE"/><path id="SPLINE-5" d="m522.73 325.11.21 2.13 13.62-.05v-35.32c-5.75 5.29-13.82 6.08-21.3 4.3l.06 22.23c.01 4.19 3.49 6.92 7.42 6.71Z" class="cls-1" data-name="SPLINE"/><path id="SPLINE-6" d="M26.32 322.88c3.78-.07 6.91-1.77 8.67-4.89l-10.82-18.72-5.02-10.18c-2.1 1.9-3.04 4.25-3.33 6.88-.52 4.72-.62 9.41-.41 14.18.28 6.39 3.32 12.86 10.91 12.72Z" class="cls-1" data-name="SPLINE"/><path id="SPLINE-7" d="M241.33 306.55c1.37-9.67 1.36-19.33.13-29.02-.49-3.9-1.44-7.5-3.02-10.97-4.25-9.33-15.21-8.27-16.51-6.7-.49.59-.96 1.85-.96 2.87v54.83c-.01 1.25.19 2.52.39 3.53.45 2.26 2.18 2.87 4.17 3.05 10.71.98 14.54-8.68 15.79-17.59Z" class="cls-1" data-name="SPLINE"/><path id="SPLINE-8" d="M122.25 280.55c1.03-5.43.98-11.09-.18-16.49-.47-2.2-1.7-4.18-3.81-4.88-2.47-.81-8.57-1-8.57 2.89v22.71c0 .61.61 1.93 1.19 1.97 4.8.34 10.34-.71 11.38-6.21Z" class="cls-1" data-name="SPLINE"/><path id="SPLINE-9" d="M528.12 266.89c-.35-2.5-1.29-4.96-3.16-6.61-2.11-1.86-5.21-2.68-8-1.91-1.04.29-1.71 2.35-1.71 3.46l-.02 28.32c2.97.9 6.21 1.65 9.16.52 5.82-2.22 4.41-18.88 3.73-23.8Z" class="cls-1" data-name="SPLINE"/><path id="SPLINE-10" d="M28.51 282.08c4.6-6.08 4.85-14.34 3.62-21.17-.22-1.2-1.13-2.36-2.01-2.69-1.14-.43-2.63-.52-3.52.38-.72.73-1.19 2.07-1.33 3.15-.85 6.69-.32 14.28 3.23 20.33Z" class="cls-1" data-name="SPLINE"/><path id="SPLINE-11" d="M471.23 324c4.56-3.52 6.3-11.64 6.86-16.95 1.05-9.91 1.06-19.71.03-29.62-.62-5.95-2.45-14.13-7.16-18.15-3.3-2.81-8.45-3.21-12.09-.83-4.56 2.99-6.39 11.2-6.9 16.33-.95 9.56-.99 18.99-.25 28.59.5 6.46 2.06 16.08 7.23 20.39 3.38 2.82 8.67 3.02 12.28.24" class="cls-1" data-name="SPLINE"/><path id="SPLINE-12" d="M176.5 324.34c5.2-3.54 6.9-12.59 7.45-18.35.89-9.32.89-18.49 0-27.81-.59-6.17-2.39-14.83-7.32-18.96-3.33-2.78-8.49-3.14-12.11-.7-4.68 3.15-6.43 11.75-6.9 17.08-.85 9.6-.9 19.04-.09 28.62.53 6.25 2.2 15.7 7.39 19.74 3.22 2.5 8.08 2.77 11.58.39Z" class="cls-1" data-name="SPLINE"/><path id="SPLINE-13" d="m536.53 253.84-5.29.1c2 1.03 3.37 1.89 5.25 3.24z" class="cls-1" data-name="SPLINE"/><path id="SPLINE-14" d="M495.89 325.05c3.58.23 6.59-2.26 6.59-5.94l.05-55.72c0-3.84-3.7-5.33-7.13-5.42l-.11-4.09-19.98.07c16.51 9.14 18.21 32.05 16.03 48.22-1.64 9.93-5 18.58-12.64 25.04l16.85.03.34-2.18Z" class="cls-1" data-name="SPLINE"/><path id="SPLINE-15" d="M450.18 327.16c-3.42-3.23-5.73-6.1-7.5-9.9-2.04-4.36-3.24-8.86-4-13.68-1.11-8.67-1.03-17.22.37-25.85 1.95-9.75 5.6-18.8 14.84-23.83l-19.28-.05-.17 4.22c-5.34-.02-6.95 4.35-6.95 8.85l.02 51.92c0 3.98 3.01 6.47 6.86 6.23l.32 2.17z" class="cls-1" data-name="SPLINE"/><path id="SPLINE-16" d="M411.26 287.3c1.27 0 2.47-.43 3.58-.88l-.03-20.32c0-4.37-2.59-8.18-7.54-8.06l-.13-4.18-4.99.04-.09 4.16c-5.1-.06-6.91 4.17-6.91 8.49v19.71c1.28.56 2.63 1.05 3.95 1.05h12.17Z" class="cls-1" data-name="SPLINE"/><path id="SPLINE-17" d="M369.64 297.44c2.08 9.15 1.49 22.18-5.46 29.73l10.34.08.2-2.06c4.13-.02 7.74-1.94 7.73-6.65l-.09-53.17c0-4.53-3.52-7.53-7.66-7.27l-.13-4.22-7.2.02c.57 4.48 1.01 8.58 1.1 12.97l.23 11.1h-5.36c-1-6.42-2.06-13.51-5.97-18.39-1.57-1.95-3.67-2.66-6.09-2.44-3.6.32-6.58 2.46-7.65 6-.89 2.94-.87 6.25.36 9.14 1.03 2.42 3.05 4.25 5.3 5.61l11.26 6.83c4.66 2.83 7.84 7.17 9.1 12.72Z" class="cls-1" data-name="SPLINE"/><path id="SPLINE-18" d="m363.82 253.92-5.35-.03 2.69 3.91z" class="cls-1" data-name="SPLINE"/><path id="SPLINE-19" d="M353.2 325.93c4.16-.23 7.56-2.57 8.89-6.61 1.06-3.23 1.19-6.72.48-10.09-.64-3.01-2.48-5.36-5.15-6.79-3.61-1.93-7.1-3.75-10.51-6-6.62-4.35-10.63-11.23-11.29-19.1-.82-8.46.33-17.19 7.38-23.44l-34.56-.04-.11 4.19c-3.1 0-5.27 1.75-6.35 4.54l-13.8 35.56v23.02c.01 3.65 4.85 3.85 7.34 4.03l.24 2.03h39.31c-1.02-8.22-.91-15.84-.25-23.8h5.01c.11 8.3 2.41 23.12 13.37 22.51Z" class="cls-1" data-name="SPLINE"/><path id="SPLINE-20" d="M295.31 265.52c.69-1.82.44-4.06.26-5.9-1.7-1.52-3.67-1.42-5.8-1.64l-.07-4.11h-9.61l-.11 4.06-3.15.53c-.79.13-1.71.84-1.99 1.45-.29.64-.39 2.02-.12 2.71l11.19 27.74 9.38-24.83Z" class="cls-1" data-name="SPLINE"/><path id="SPLINE-21" d="M272.76 324.42c1.64-1 2.5-2.13 2.5-3.91V298.6l-12.97-32.23c-1.38-3.43-4.09-8.04-7.95-8.44l-.05-4.06-15.61.07c9.81 3.8 13.65 13.52 15.1 23.22s1.26 19.05.12 28.61c-1.47 8.91-4.06 16.8-12.25 21.44l25.77.02.2-1.98 5.15-.83Z" class="cls-1" data-name="SPLINE"/><path id="SPLINE-22" d="M206.6 323.63c1.19-1.33 1.57-3.51 1.57-5.42l.02-51.93c0-1.58-.22-3.02-.49-4.43-.68-3.44-4.56-2.7-6.91-3.88l-.09-4.11-19.78.07c16.69 8.9 18.42 32.42 16.1 48.68-1.71 9.67-4.89 18.04-12.58 24.59l16.48.03.24-2.13c2.05-.18 4.02.12 5.44-1.47" class="cls-1" data-name="SPLINE"/><path id="SPLINE-23" d="M131.45 327.2h24.59c-7.2-5.98-10.71-15.62-11.77-24.92-1.75-15.41-.71-39.68 15.21-48.37l-34.6.02c4.89 1.83 8.25 4.65 9.53 9.43 1.38 5.15 1.48 10.58-.02 15.74-1.55 4.58-5.19 7.53-9.77 9.43 2.84.98 5.54 1.79 7.83 3.58 6.87 5.39 6.95 17.8 5.15 25.37-.93 3.92-2.95 6.97-6.16 9.7Z" class="cls-1" data-name="SPLINE"/><path id="SPLINE-24" d="M45.1 313.59c1.88 2.49 6.37 9.84 9.7 8.07 2.89-1.54 4.71-3.98 5.98-7.04l2.7 1.68c-.29 3.94-1.68 7.55-3.95 10.92h30.11l.2-2c3.38-.17 7.1-1.3 7.1-5.39v-55.51c-.01-4.25-3.41-6.63-7.43-6.39l-.22-4.07-55.23.02c4.09 2.11 6.75 5.31 7.33 9.75.95 4.42.28 8.74-2.06 12.62-2.23 4-5.28 7.18-8.78 10.32l11.79 22.77c2.16-3.27 3.37-6.26 4.38-9.62.49-2.5.79-5.04.32-7.51-.58-3.11-3.11-4.86-6.32-4.71v-4.86h18.69v4.79c-4.17.24-6.15 4.77-7.16 8.15-1.84 6.18-3.53 12.37-7.16 18.01Z" class="cls-1" data-name="SPLINE"/><path id="SPLINE-25" d="M14.5 277.69c-2.72-6.24-1.94-13.19 1.84-18.67 1.77-2.39 3.96-3.82 6.69-5.11l-15.7-.04.03 43.58c2.67-5.08 5.89-9.18 10.14-12.59z" class="cls-1" data-name="SPLINE"/><path id="SPLINE-26" d="m371.1 247.07.17-2.74c1.74-.57 7.69-.78 7.05-3.17l-4.54-16.88c-.27-.99-2.43-1.73-3.39-1.73l-13.64-.02c-1.2 0-2.5.97-2.76 2.13l-3.03 13.43c-.5 2.22.74 4.39 2.81 5 1.39.41 2.74.54 4.25.69l.1 3.32 12.98-.02Z" class="cls-1" data-name="SPLINE"/><path id="SPLINE-27" d="m54.38 247.07.17-2.74c1.74-.57 7.69-.78 7.05-3.17l-4.54-16.88c-.27-.99-2.43-1.73-3.39-1.73l-13.64-.02c-1.2 0-2.5.97-2.76 2.13l-3.03 13.43c-.5 2.22.74 4.39 2.81 5 1.39.41 2.74.54 4.25.69l.1 3.32 12.98-.02Z" class="cls-1" data-name="SPLINE"/><path id="SPLINE-28" d="m432.8 247.1 10.67-.05c-.95-1.64-1.66-2.83-2.05-4.37l-4.49-17.5c-1.25-4.89-4.7-15.12-11.68-12.2v25.11c0 3.03 2.05 5.39 4.93 5.82l2.49.37.13 2.81Z" class="cls-1" data-name="SPLINE"/><path id="SPLINE-29" d="M371.78 216.17c-.31-1.9-.51-2.97-.92-4.36l-6.47-21.93-7.5 24.73c-.08.27-.02.92.14 1.11s.82.5 1.27.49z" class="cls-1" data-name="SPLINE"/><path id="SPLINE-30" d="M55.06 216.17c-.31-1.9-.51-2.97-.92-4.36l-6.47-21.93-7.5 24.73c-.08.27-.02.92.14 1.11s.82.5 1.27.49z" class="cls-1" data-name="SPLINE"/><path id="SPLINE-31" d="M437.67 200.94c1.36-5.44 2.13-17.76-3.58-21.03-2.14-1.23-5.02-1.63-7.39-.79-1.05.64-1.45 2.78-1.45 4.06l-.03 22.01c0 .37.46 1.4.88 1.43 5.17.36 10.1.24 11.58-5.67Z" class="cls-1" data-name="SPLINE"/><path id="SPLINE-32" d="M233.27 243.39c5.19-3.16 7.22-11.34 7.89-16.86 1.19-9.88 1.2-19.68.03-29.56-.72-6.12-2.93-14.57-8.36-18.13-3.62-2.38-8.66-2.6-12.42-.44-5.13 2.94-7.12 11.34-7.67 16.84-.94 9.37-1.01 18.58-.14 27.97.6 6.52 2.47 16.17 8.27 19.96 3.59 2.35 8.58 2.54 12.39.22Z" class="cls-1" data-name="SPLINE"/><path id="SPLINE-33" d="M495.79 213.59c-1.58-.68-3.4-.94-5.07-.85-1.43.08-2.54 1.34-2.53 2.75v22.3c.02 6.48 9.47 5.13 13.41 4.17 8.32-2.02 9.47-10.29 11.65-17.55l4.75.88-2.14 21.8 20.7-.04v-73.49l-22.06.01.66 21.83-5.1.51c-.77-6.11-2.4-15.18-9.45-16.27-2.88-.44-5.74-.55-8.65-.24-1.7.18-3.72 1.57-3.73 3.43l-.04 21.36c0 .65.5 1.78 1 1.95.45.15 1.44.2 2 .21 7.48.09 8.32-6.17 8.94-12.02l4.78.04v30.54l-4.81.04c-.42-3.66-.61-9.77-4.3-11.35Z" class="cls-1" data-name="SPLINE"/><path id="SPLINE-34" d="m460.68 236.72 2.66 1.04c-.03 3.57-1.8 6.48-4.04 9.29l7.5.04.14-2.79c3.75-.09 7.46-1.9 7.45-5.91l-.03-53.14c0-4.62-3.63-7.52-8.04-7.21l-.1-4.44-22.19.05c8.64 4.25 9.8 13.63 8.88 21.97-1.45 8.3-7.16 12.99-15.43 14.86 5.56 1.46 9.22 2.44 11.75 8.29 3.36 7.75 2.97 14.45 5.93 21.39.52 1.22 2.2 2.38 3.37 1.44 1.39-1.12 1.54-2.95 2.13-4.86Z" class="cls-1" data-name="SPLINE"/><path id="SPLINE-35" d="M404.02 244.1c4.07.27 7.03-2.12 7.03-6.03v-54.48c0-4.1-4.11-5.7-7.74-5.75l-.19-4.28-29.6.02 19.33 66.52c.91 3.14 4.25 3.62 6.63 4.4l.09 2.57h4.17z" class="cls-1" data-name="SPLINE"/><path id="SPLINE-36" d="M329.63 237.58c2.64-4.16 4.07-8.3 5.53-12.96l3.56 1.73c-1.73 8.16-4.96 15.06-11.41 20.71l11.16.03.16-3.35c3.54-.49 5.71-4.13 6.64-7.16l19.34-62.99-29.45-.02 1.82 10.39.68 15.3-5.88-.02c-.99-5.35-2.16-10.15-4.55-14.85-3.17-6.22-10.56-9.04-16.67-5.35-10.58 6.4-8.62 35.88-7.13 46.5.8 5.67 3.37 14.33 8.63 17.16 6.3 3.39 13.73.92 17.56-5.12Z" class="cls-1" data-name="SPLINE"/><path id="SPLINE-37" d="m331.55 173.57-8.27.06c1.98 1.24 3.76 2.44 5.34 4.12l2.92-4.19Z" class="cls-1" data-name="SPLINE"/><path id="SPLINE-38" d="M301.55 247.06c-3.91-3.1-6.63-6.09-8.57-10.16-2.06-4.1-3.1-8.37-3.84-12.99-1.32-9.82-.99-19.58.79-29.33 2.01-8.82 5.07-15.92 13.28-21h-65.79c11.41 5.45 16.42 15.72 18.33 27.61.92 7.02.84 13.9-.28 20.88-1.93 10.19-5.94 18.93-14.81 25h60.88Z" class="cls-1" data-name="SPLINE"/><path id="SPLINE-39" d="m183.32 247.1 28.79-.04c-8.92-6.22-12.33-15.21-13.88-25.29-.92-7.61-.86-15.08.27-22.67.93-5.15 2.38-9.93 4.93-14.41 2.82-4.95 6.76-8.56 12.15-11.09h-21.76v23.51l-4.82.54c-.6-7.73-1.41-18.46-11.33-17.96-1.27.06-3.38.53-3.38 2.34l.08 54.5c0 4.81 4.07 7.89 8.59 7.58z" class="cls-1" data-name="SPLINE"/><path id="SPLINE-40" d="m160.48 235.68.02-53.37c0-1.26-.8-2.57-1.92-2.85-3.39-.83-6.69.62-8.6 3.47-3.09 4.61-3.71 10.05-4.84 15.53l-5.12-.99 2.18-23.86h-3.63l-.05 4.3c-2.98-.07-5.39 1.55-6.23 4.42-.43 1.47-.65 3.07-.65 4.74v36.79c-.52 8.9-1.02 17.05-8.22 23.21l28.28.02.17-2.87c5.35.07 8.62-3.57 8.63-8.54Z" class="cls-1" data-name="SPLINE"/><path id="SPLINE-41" d="M113.89 244.19c4.94-.22 8.79-2.85 10.53-7.39 1.4-3.66 2.22-7.51 2.21-11.64l-.05-39.91c0-4.68-3.89-7.57-8.25-7.26l-.1-4.42-9.29.04-.06 4.28c-4.24-.02-7.74 2.18-7.74 6.63v39.66c0 5.6.97 12.02 4.28 16.41 2.06 2.73 4.97 3.77 8.47 3.61Z" class="cls-1" data-name="SPLINE"/><path id="SPLINE-42" d="m87.27 226.12-.02-41.94c0-4.1-3.71-6.4-7.73-6.31l-.09-4.31-22.63.02 19.33 66.52c.85 2.93 3.92 3.65 6.56 4.33l.23 2.67 14.35-.06c-6.81-5.27-9.74-12.38-10-20.92" class="cls-1" data-name="SPLINE"/><path id="SPLINE-43" d="m28.56 236.57 19.33-63H7.34v73.5h14.41l.17-3.35c3.83-.7 5.42-3.85 6.64-7.16Z" class="cls-1" data-name="SPLINE"/><path id="SPLINE-44" d="M490.52 166.88c-3-2.21-6.61-3.52-10.39-3.17-1.02.42-1.33 2.23-1.19 3.24z" class="cls-1" data-name="SPLINE"/><path id="SPLINE-45" d="M471.85 159.74c-4.13-5.23-8.95-9.62-14.44-13.12-7.91-5.05-14.64-5.02-23.73-3.9-5.87 2.08-11.17 4.98-15.7 9.23-4.3 4.14-7.33 9.05-9.48 14.99h65.64c-.36-2.42-.63-5.09-2.29-7.2" class="cls-1" data-name="SPLINE"/><path id="SPLINE-46" d="M162.6 166.94c-.54-7.06 2.37-19.28 7.08-24.07l.09-1.31c.02-.24-.88-.31-1.21-.3-3.8.14-7.98 1.17-11.51 3.09-4.75 2.58-9.05 5.66-12.8 9.54-4.07 4.2-4.49 7.26-4.52 13.06h22.87Z" class="cls-1" data-name="SPLINE"/><path id="SPLINE-47" d="M169.85 158.99c-1.65 2.53-2.82 5.11-2.73 7.95h234c-.41-4.63.04-9.12 1.46-13.53.5-1.56.72-3.03.65-4.8-9.31-2.97-18.38-5.52-27.94-7.19-6.13-1.07-11.92-1.7-18.16-2.33-22.41-2.25-44.65-4.2-67.24-5.25-19.59-.91-38.93-.83-58.42-.68-3.31.03-6.15.38-9.47.92l6.97 8.24c2.02 2.38 6.87 9.03 6.03 12.7-3.24-1.38-5.81-2.92-8.68-4.59-9.62-5.57-19.48-10.31-30.94-8.75-10.46 1.42-19.05 9.24-25.52 17.29Z" class="cls-1" data-name="SPLINE"/><path id="SPLINE-48" d="M22.98 154.48c-2.13.02-4.88 10.55-5.54 12.47h116.95c-.12-7 1.06-13.77 3.68-20.17 1.68-4.1 4.79-6.86 8.75-8.64 1.96-1.07 3.09-2.77 2.49-5.02l-1.31-4.89c-.46-1.71-.11-3.46.95-4.81l2.83-3.62c-.26-.41-1.11-.54-1.6-.4-12.43 3.55-39.4 1.15-51.41-1.99l-9.2-2.41c-.64 1.3-1.52 2.16-2.91 2.37-7.55 1.14-14.63.53-21.21-3.51-1.62-1-3.29-1.93-4.97-2.82-.94 8.74-4.49 12.17-4.41 21.08.04 4.49 3.59 5.46 2.68 6.3-1.11 1.02-7.78-.78-7.91-7.4-.07-3.44.21-6.63.47-10.31-3.21-1.13-5.9-1.06-8.13 1.95-1.78 2.4-3.14 4.94-4.23 7.69-1.5 3.77 4.5 5.14 6.48 7.53-2.93.07-5.18-.25-7.84-.51l-4.77 13.39c-2.6 7.28-3.99 2.31-3.32 12.42-1.14.28-6.01.82-6.33-.91-.07-.39.26-1.21.52-1.62 1.18-1.84 1.17-4.66-.71-6.18Z" class="cls-1" data-name="SPLINE"/><path id="SPLINE-49" d="M52.69 112.63c.03-.52-.18-1.23-.43-1.33-1.5-.61-2.96.67-3.97 2.17.62.84 1.53 1.23 2.5 1.12.76-.09 1.83-.88 1.89-1.96Z" class="cls-1" data-name="SPLINE"/><path id="SPLINE-50" d="M60.51 104.23c.45-.03.79-1.24.6-1.57-.16-.28-.7-.8-1.01-.9-.82.47-.89 2.56.41 2.47" class="cls-1" data-name="SPLINE"/><path id="SPLINE-51" d="M378.73 131.23c-1.25-1.62-2.88-3.02-4.87-3.47-.68-.15-1.98.72-2.58 1.19-2.61 2.05-6.33 2.17-8.99-.08-2.36-1.99-4.55-3.99-6.55-6.34-.76-.89-.69-2.09.2-2.87l3.18-2.8c-1.73-1.39-3.2-2.39-5.05-3.34-7.53-3.85-15.23-6.99-23.32-9.58-15.01-4.81-37.17-5.25-52.79-3.42-11.11 1.3-21.73 3.33-32.53 5.88-2.72.64-12.57 3.19-13.61 5.46-1.74 3.79-2.83 7.54-3.28 11.75l38.03 2.21 78.6 4.22 15.15 1.09c2.76.2 1.92 3.24 2.77 3.83 1.58 1.09 14.27-1.81 15.64-3.73" class="cls-1" data-name="SPLINE"/><path id="SPLINE-52" d="M272.56 96.22c11.1-1.62 21.67-2.16 32.64-1.73 13.99.54 27.37 3.52 40.32 8.85 9.03 3.71 17.46 8.02 25.9 12.9 5.34 3.09 10.52 5.9 16.14 8.35 1.31.57 2.46.96 4.02 1.21-1.73-2.46-3.45-4.06-5.44-5.96-16.55-15.78-32.94-29.02-55.51-35.21-22.06-6.05-35.03-7.09-58.01-5.62-17.83 1.14-32.68 6.23-48.92 13.15-8.44 3.6-16.66 7.04-25.32 10.12-4.81 1.71-9.07 3.9-13.8 5.69l-8.26 3.12c-4.96 1.87-9.47 4-14.67 5.85 6.85 1.62 25.97.52 32.46-.8s13.01-3.64 19.67-5.53l31.93-9.02c8.87-2.51 17.53-4.02 26.85-5.37" class="cls-1" data-name="SPLINE"/><path id="SPLINE-53" d="M126.2 112.06c15.84-2.02 30.74-5.97 45.43-11.54l31.92-12.08c7.29-2.76 14.21-5.45 21.67-7.71 8.21-2.48 16.35-4.35 24.74-5.97 1.16-.22 2.14.06 3.2-.86-1.19-.23-2.21-.44-3.38-.42l-30.34.54c-9.12.16-24.07 4.92-32.77 8.22-7.39 2.8-14.24 5.91-21.43 9.2-22.3 10.2-43.95 18.34-68.6 20.22-1.4.11-2.56.36-3.83.82 2.15.84 4.24 1.15 6.49 1.11 8.99-.15 17.68-.36 26.91-1.54Z" class="cls-1" data-name="SPLINE"/><path id="SPLINE-54" d="M236.74 69.74c12.75-.06 17.36 3.7 28.62 2.61 10.33-1 20.39-1.34 30.73-.44s20.15 2.65 29.86 6.14c10.46 3.76 20.31 8.44 29.9 13.99 9.67 5.59 18.38 12.1 26.47 19.77l12.59 11.92c2.98 2.82 6.3 4.36 10.45 4.76 15.04 1.45 29.79 3.28 44.67 6.07s30.19 6.33 43.75 14.68c7.2 4.43 12.91 10.27 16.82 17.72h25.85c.24-.05.45-.04.45-1.16 0-29.86 0-65.83.03-97.78l-464.5.02c-.09 2.41-.43 4.37-1.35 6.33-1.3 2.39-2.98 4.43-4.89 6.3-1.23 1.2-1.46 2.36-.82 3.9l6.54 15.62c2.73-.14 19.03 2.04 17.62 5.77-.89 2.35-5.07 2.08-6.19 4.23 1.71.29 3.19.33 4.93.04 27.18-4.52 43.85-11.26 68.57-22.5 7.46-3.39 14.58-6.61 22.23-9.51 10.01-3.8 25.21-8.31 35.83-8.35l21.83-.1Z" class="cls-1" data-name="SPLINE"/><path id="SPLINE-55" d="M39.66 101.36c.38-.21.89-1 .78-1.36-.75-2.38-7.71.16-8.54-2.99-.39-1.5.83-3.74 2.21-4.06 1.45 1.37 2.77 1.94 4.7 1.75l16.46-1.59c.84-1.53.01-3.61-1.45-4.51-5.22-3.22-13.5.1-22.9-15.78l-2.47-4.79-21.44.03.12 85.34.18 13.55 4.23-.02c2.12-5.92 4.1-11.45 5.8-17.5 2.48-8.75 6.37-16.81 10.8-24.71.96-1.72 1.69-3.25 2.45-5.22-.84-2.32-9.77-6.24-8.55-8.03s11.76-.31 14.71-1.9c-.59-.61-1.4-1.1-2.08-1.18l-8.45-1c-1.81-10.76 4.45-1.12 13.43-6.01Z" class="cls-1" data-name="SPLINE"/><path id="SPLINE-56" d="M210.34 61.36c.32-1.5.58-2.09 1.42-2.98.14-.45.19-1.61-.04-2.16l-3.61-8.46-32.52.4-4.54 7.92c-.41.71-.45 1.99-.12 2.61l1.13 2.66h38.27Z" class="cls-1" data-name="SPLINE"/><path id="SPLINE-57" d="M278.41 61.36c.17-1.54.35-2.11.88-3.28-.36-.98-.93-2.31-1.61-3.27L269 42.57l-20.6.03.4 13.31c.03.87.46 1.97.79 2.7 1.61.28 1.96 1.43 2.07 2.78h26.75Z" class="cls-1" data-name="SPLINE"/><path id="SPLINE-58" d="M133.82 58.87c.82-.26 1.42-1.37 1.44-2.37.17-11.21.4-22.17-.24-33.91l-21.01 38.74 19.44.1c-.32-.57-.6-1.1-.74-1.53-.1-.3.54-.73 1.1-1.04Z" class="cls-1" data-name="SPLINE"/><path id="SPLINE-59" d="m88.03 61.23 19.02.16c-2.01-3.14-3.56-5.91-5.3-9.11L85.48 22.4c-.42 11.53-.35 22.3-.14 33.43.08 4.13 2.73 1.76 2.67 5.41Z" class="cls-1" data-name="SPLINE"/><path id="SPLINE-60" d="m400.13 61.46 12.57-.04 19.57-.16-34.11-39.05-.03 26.85.23 8.1c.13 1.89 3.06 1.96 2.45 3.07z" class="cls-1" data-name="SPLINE"/><path id="SPLINE-61" d="m202.54 38.75-9.67-19.25c-.46-.92-.85-1.53-1.45-2.48-.68.99-1.12 1.64-1.59 2.54l-9.82 19.16z" class="cls-1" data-name="SPLINE"/><path id="SPLINE-62" d="M279.64 26.29c1.07-3.01.49-6.02-1.82-8.18-2.17-2.27-5.14-2.99-8.33-3.27l-21.09-.06.25 17.34 14.73-.17c3.65.02 7.26-.15 10.75-.8 2.76-.52 4.55-2.19 5.5-4.86Z" class="cls-1" data-name="SPLINE"/><path id="SPLINE-63" d="M504.1 29.14c6.34 1.85 16.3 4.97 19.84 10.78 2.08 4.03 2.22 8.82.24 12.91-2.73 4.37-6.89 6.88-11.75 8.5l24.49-.13V6.74l-20.2.03c2.52 1.11 4.89 1.09 7.42.66l.96.45c.9.43-7.77 13.73-9.73 13.25-1.09-.27-.26-2.68-.9-3.71-6.12-2.8-12.69-4.1-19.33-2.89-3.47.63-8.27 2.55-7.77 6.55.44 3.53 13.3 7.07 16.74 8.07Z" class="cls-1" data-name="SPLINE"/><path id="SPLINE-64" d="M513.55 49.86c1.25-1.29.75-4.24-.22-5.38-1.98-2.32-4.57-3.72-7.43-4.57l-11.71-3.45c-3.76-1.11-7.34-2.38-10.75-4.11-3.88-1.96-6.41-5.31-7.18-9.07-1.56-7.62 3.24-12.97 9.85-16.54h-20.29c2.62 3.62-.45 9.51-3.53 12.02-1.32 1.08-3.01 1.44-4.51.26l1.56-2.82c1.72-3.1-2.44-.91-4.19-4.87-.71-1.6-.63-3.13.75-4.59l-7.41.04c-.59.77-1.44 1.42-2.24 1.88-.54 2.48-.63 5.07-.64 7.8l-.05 44.95h18.22l23.66-.1-7-3.11c-2.19-.97-4.58-1.71-6.95-2.06-.21-.03-.62-.31-.72-.48-.69-1.23 10.26-10.5 12.24-11.45 1.73 1.03-.64 4.24 1.24 5.28 2.35 1.31 4.62 2.85 7.28 3.38 3.63.72 7.27.51 11.01.3 3.15-.17 6.68-.9 9.03-3.34Z" class="cls-1" data-name="SPLINE"/><path id="SPLINE-65" d="M434.81 12.45c0-1.46-.33-2.85-.63-3.81-1.05-.55-1.59-.99-2.26-1.9l-32.29.15 34.4 38.87c.75-1.27.81-2.67.81-4.13l-.03-29.17Z" class="cls-1" data-name="SPLINE"/><path id="SPLINE-66" d="M384.37 61.34c-.24-.97-.02-1.74.59-2.05l2.52-1.29V8.96c-1.44-.55-2.56-1.37-3.54-2.05l-6.4-.07-2.24 2c-.28 2.5-.49 4.76-.49 7.32l.02 35.16c0 2.41-.02 4.99.81 7.1.42 1.07 2.32 1.27 1.92 2.97l6.82-.04Z" class="cls-1" data-name="SPLINE"/><path id="SPLINE-67" d="M335.98 61.36h24.59c-.26-1.63.78-2.37 2.08-2.93.58-2.23.68-4.64.68-7.12V16.47c0-2.66-.17-5.05-.49-7.63l-2.28-2.09-5.53.07c.38 1.61 1.34 13.11-.39 12.42l-1.18-.47-2.22-3.96h-17.53l.02 36.18c0 2.11.14 3.91.27 6 .11 1.82 2.66 1.97 2.39 2.93l-.41 1.45Z" class="cls-1" data-name="SPLINE"/><path id="SPLINE-68" d="m322.1 56.88.23-10.09V14.78l-18.25.03-1.71 4.03-1.17.37c-1.22.39-.71-11.01-.66-12.21l-16.11-.09c-1.4 0-2.7-.28-4.31-.03 5.47 2.18 9.36 6.48 10.55 12.34 1.79 9.48-2.6 16.48-11.56 20.12 4.94 6.82 9.83 13.28 15.56 19.11.97.99 2.9 1.03 2.8 2.91l22.62-.03-.46-1.23c-.45-1.19 2.43-.93 2.48-3.24Z" class="cls-1" data-name="SPLINE"/><path id="SPLINE-69" d="M234.63 61.38c-.41-2.02.78-2.28 1.83-3.11.43-.61.75-2.07.75-3.08l.06-40.97c0-1.86.03-3.95-.74-5.47l-2.23-1.97-16.62.13-19.43.21 19.8 36.52c2.27 4.18 4.53 8.03 7.02 12.05 2.23 3.6 5.42 3.18 3.9 5.63l5.67.06Z" class="cls-1" data-name="SPLINE"/><path id="SPLINE-70" d="m148.97 61.5 4.66-.14c.93-2.87 2.79-2.12 4.39-4.89l4.83-8.37 22.13-41.33c-5.93-.02-11.41-.14-17.08.15-6.25.31-12.33.14-18.63-.01l-2.71 2.08c-.23 2.65-.44 5.1-.44 7.82l.09 37.74c0 1.27.26 3.02.71 3.88 1.31.75 2.14 1.22 2.04 3.08Z" class="cls-1" data-name="SPLINE"/><path id="SPLINE-71" d="m131.69 6.76-28.26.42c-1.5.02-2.85-.06-4.25-.43l-10.22.02 13.23 24.71 7.8 14.33c2.87-4.27 5.14-8.26 7.51-12.67l14.2-26.38Z" class="cls-1" data-name="SPLINE"/><path id="SPLINE-72" d="M61.55 28.96c1.58 3.49-.61 6.3 3.6 16.67l6.17 15.2c1.64-3.36 3.11-.68 3.11-6.61l.02-40.64c0-1.76-.3-3.43-.6-4.96l-2.19-1.87H7.02v54.5l18.68-.02c-1.49-3.97-3.91-6.75-6.73-9.51-.93-1-2.43-2.13-2.83-3.47-1.17-3.93.18-7.96 2.55-11.18 6.19-8.39 18.71-12.68 28.78-13.88 5.15-.62 11.68.48 14.08 5.78Z" class="cls-1" data-name="SPLINE"/><path id="SPLINE-73" d="M543.62 297.68v36.26L.26 333.92 0 172.84.28 0l384.24.24 158.78.1.24 177.02z" class="cls-1" data-name="SPLINE"/><path id="HATCH" d="m40.88 327.22-3.62-4.27-3.69 4.23 7.3.04m-30.08-.06-3.41-4.39-.03 4.44zm396.51-1.96c4.23 0 7.49-2.36 7.5-6.19l.04-24.5c-1.48-.84-3.06-1.37-4.71-1.37h-10.37c-1.65 0-3.28.54-4.62 1.47l.03 24.26c0 3.94 2.99 6.48 6.84 6.21l.19 2.13h4.95zm-282.74-7.21c1.42-5.85 1.44-12.12.03-17.98-1.62-6.76-8.13-7.61-13.97-7.24-.48.73-.94 1.85-.94 2.67v25.67c0 1.42.99 2.69 2.34 3.08 5.28 1.51 11.06-.12 12.53-6.19m398.18 7.11.21 2.13 13.62-.05v-35.32c-5.75 5.29-13.82 6.08-21.3 4.3l.06 22.23c.01 4.19 3.49 6.92 7.42 6.71m-496.42-2.23c3.78-.07 6.91-1.77 8.67-4.89l-10.82-18.72-5.02-10.18c-2.1 1.9-3.04 4.25-3.33 6.88-.52 4.72-.62 9.41-.41 14.18.28 6.39 3.32 12.86 10.91 12.72m215.01-16.32c1.37-9.67 1.36-19.33.13-29.02-.49-3.9-1.44-7.5-3.02-10.97-4.25-9.33-15.21-8.27-16.51-6.7-.49.59-.96 1.85-.96 2.87v54.83c-.01 1.25.19 2.52.39 3.53.45 2.26 2.18 2.87 4.17 3.05 10.71.98 14.54-8.68 15.79-17.59m-119.07-26c1.03-5.43.98-11.09-.18-16.49-.47-2.2-1.7-4.18-3.81-4.88-2.47-.81-8.57-1-8.57 2.89v22.71c0 .61.61 1.93 1.19 1.97 4.8.34 10.34-.71 11.38-6.21m405.86-13.65c-.35-2.5-1.29-4.96-3.16-6.61-2.11-1.86-5.21-2.68-8-1.91-1.04.29-1.71 2.35-1.71 3.46l-.02 28.32c2.97.9 6.21 1.65 9.16.52 5.82-2.22 4.41-18.88 3.73-23.8M28.51 282.08c4.6-6.08 4.85-14.34 3.62-21.17-.22-1.2-1.13-2.36-2.01-2.69-1.14-.43-2.63-.52-3.52.38-.72.73-1.19 2.07-1.33 3.15-.85 6.69-.32 14.28 3.23 20.33M471.23 324c4.56-3.52 6.3-11.64 6.86-16.95 1.05-9.91 1.06-19.71.03-29.62-.62-5.95-2.45-14.13-7.16-18.15-3.3-2.81-8.45-3.21-12.09-.83-4.56 2.99-6.39 11.2-6.9 16.33-.95 9.56-.99 18.99-.25 28.59.5 6.46 2.06 16.08 7.23 20.39 3.38 2.82 8.67 3.02 12.28.24m-294.73.34c5.2-3.54 6.9-12.59 7.45-18.35.89-9.32.89-18.49 0-27.81-.59-6.17-2.39-14.83-7.32-18.96-3.33-2.78-8.49-3.14-12.11-.7-4.68 3.15-6.43 11.75-6.9 17.08-.85 9.6-.9 19.04-.09 28.62.53 6.25 2.2 15.7 7.39 19.74 3.22 2.5 8.08 2.77 11.58.39m360.03-70.51-5.29.1c2 1.03 3.37 1.89 5.25 3.24zm-40.64 71.21c3.58.23 6.59-2.26 6.59-5.94l.05-55.72c0-3.84-3.7-5.33-7.13-5.42l-.11-4.09-19.98.07c16.51 9.14 18.21 32.05 16.03 48.22-1.64 9.93-5 18.58-12.64 25.04l16.85.03.34-2.18m-45.71 2.1c-3.42-3.23-5.73-6.1-7.5-9.9-2.04-4.36-3.24-8.86-4-13.68-1.11-8.67-1.03-17.22.37-25.85 1.95-9.75 5.6-18.8 14.84-23.83l-19.28-.05-.17 4.22c-5.34-.02-6.95 4.35-6.95 8.85l.02 51.92c0 3.98 3.01 6.47 6.86 6.23l.32 2.17zm-38.92-39.86c1.27 0 2.47-.43 3.58-.88l-.03-20.32c0-4.37-2.59-8.18-7.54-8.06l-.13-4.18-4.99.04-.09 4.16c-5.1-.06-6.91 4.17-6.91 8.49v19.71c1.28.56 2.63 1.05 3.95 1.05h12.17m-41.63 10.13c2.08 9.15 1.49 22.18-5.46 29.73l10.34.08.2-2.06c4.13-.02 7.74-1.94 7.73-6.65l-.09-53.17c0-4.53-3.52-7.53-7.66-7.27l-.13-4.22-7.2.02c.57 4.48 1.01 8.58 1.1 12.97l.23 11.1h-5.36c-1-6.42-2.06-13.51-5.97-18.39-1.57-1.95-3.67-2.66-6.09-2.44-3.6.32-6.58 2.46-7.65 6-.89 2.94-.87 6.25.36 9.14 1.03 2.42 3.05 4.25 5.3 5.61l11.26 6.83c4.66 2.83 7.84 7.17 9.1 12.72m-5.83-43.52-5.35-.04 2.7 3.91 2.66-3.88m-10.63 72.02c4.16-.23 7.56-2.57 8.89-6.61 1.06-3.23 1.19-6.72.48-10.09-.64-3.01-2.48-5.36-5.15-6.79-3.61-1.93-7.1-3.75-10.51-6-6.62-4.35-10.63-11.23-11.29-19.1-.82-8.46.33-17.19 7.38-23.44l-34.56-.04-.11 4.19c-3.1 0-5.27 1.75-6.35 4.54l-13.8 35.56v23.02c.01 3.65 4.85 3.85 7.34 4.03l.24 2.03h39.31c-1.02-8.22-.91-15.84-.25-23.8h5.01c.11 8.3 2.41 23.12 13.37 22.51m-57.89-60.42c.69-1.82.44-4.06.26-5.9-1.7-1.52-3.67-1.42-5.8-1.64l-.07-4.11h-9.61l-.11 4.06-3.15.53c-.79.13-1.71.84-1.99 1.45-.29.64-.39 2.02-.12 2.71l11.19 27.74 9.38-24.83m-22.53 58.89c1.64-1 2.5-2.13 2.5-3.91V298.6l-12.97-32.23c-1.38-3.43-4.09-8.04-7.95-8.44l-.05-4.06-15.61.07c9.81 3.8 13.65 13.52 15.1 23.22s1.26 19.05.12 28.61c-1.47 8.91-4.06 16.8-12.25 21.44l25.77.02.2-1.98 5.15-.83m-66.17-.79c1.19-1.33 1.57-3.51 1.57-5.42l.02-51.93c0-1.58-.22-3.02-.49-4.43-.68-3.44-4.56-2.7-6.91-3.88l-.09-4.11-19.78.07c16.69 8.9 18.42 32.42 16.1 48.68-1.71 9.67-4.89 18.04-12.58 24.59l16.48.03.24-2.13c2.05-.18 4.02.12 5.44-1.47m-75.15 3.57h24.59c-7.2-5.98-10.71-15.62-11.77-24.92-1.75-15.41-.71-39.68 15.21-48.37l-34.6.02c4.89 1.83 8.25 4.65 9.53 9.43 1.38 5.15 1.48 10.58-.02 15.74-1.55 4.58-5.19 7.53-9.77 9.43 2.84.98 5.54 1.79 7.83 3.58 6.87 5.39 6.95 17.8 5.15 25.37-.93 3.92-2.95 6.97-6.16 9.7M45.1 313.59c1.88 2.49 6.37 9.84 9.7 8.07 2.89-1.54 4.71-3.98 5.98-7.04l2.7 1.68c-.29 3.94-1.68 7.55-3.95 10.92h30.11l.2-2c3.38-.17 7.1-1.3 7.1-5.39v-55.51c-.01-4.25-3.41-6.63-7.43-6.39l-.22-4.07-55.23.02c4.09 2.11 6.75 5.31 7.33 9.75.95 4.42.28 8.74-2.06 12.62-2.23 4-5.28 7.18-8.78 10.32l11.79 22.77c2.16-3.27 3.37-6.26 4.38-9.62.49-2.5.79-5.04.32-7.51-.58-3.11-3.11-4.86-6.32-4.71v-4.86h18.69v4.79c-4.17.24-6.15 4.77-7.16 8.15-1.84 6.18-3.53 12.37-7.16 18.01m-30.59-35.9c-2.72-6.24-1.94-13.19 1.84-18.67 1.77-2.39 3.96-3.82 6.69-5.11l-15.7-.04.03 43.58c2.67-5.08 5.89-9.18 10.14-12.59zm356.6-30.62.17-2.74c1.74-.57 7.69-.78 7.05-3.17l-4.54-16.88c-.27-.99-2.43-1.73-3.39-1.73l-13.64-.02c-1.2 0-2.5.97-2.76 2.13l-3.03 13.43c-.5 2.22.74 4.39 2.81 5 1.39.41 2.74.54 4.25.69l.1 3.32 12.98-.02m-316.72-.01.17-2.74c1.74-.57 7.69-.78 7.05-3.17l-4.54-16.88c-.27-.99-2.43-1.73-3.39-1.73l-13.64-.02c-1.2 0-2.5.97-2.76 2.13l-3.03 13.43c-.5 2.22.74 4.39 2.81 5 1.39.41 2.74.54 4.25.69l.1 3.32 12.98-.02m378.42.02 10.67-.05c-.95-1.64-1.66-2.83-2.05-4.37l-4.49-17.5c-1.25-4.89-4.7-15.12-11.68-12.2v25.11c0 3.03 2.05 5.39 4.93 5.82l2.49.37.13 2.81m-61.02-30.92c-.31-1.9-.51-2.97-.92-4.36l-6.47-21.93-7.5 24.73c-.08.27-.02.92.14 1.11s.82.5 1.27.49zm-316.72 0c-.31-1.9-.51-2.97-.92-4.36l-6.47-21.93-7.5 24.73c-.08.27-.02.92.14 1.11s.82.5 1.27.49zm382.61-15.23c1.36-5.44 2.13-17.76-3.58-21.03-2.14-1.23-5.02-1.63-7.39-.79-1.05.64-1.45 2.78-1.45 4.06l-.03 22.01c0 .37.46 1.4.88 1.43 5.17.36 10.1.24 11.58-5.67m-204.41 42.44c5.19-3.16 7.22-11.34 7.89-16.86 1.19-9.88 1.2-19.68.03-29.56-.72-6.12-2.93-14.57-8.36-18.13-3.62-2.38-8.66-2.6-12.42-.44-5.13 2.94-7.12 11.34-7.67 16.84-.94 9.37-1.01 18.58-.14 27.97.6 6.52 2.47 16.17 8.27 19.96 3.59 2.35 8.58 2.54 12.39.22m262.53-29.8c-1.58-.68-3.4-.94-5.07-.85-1.43.08-2.54 1.34-2.53 2.75v22.3c.02 6.48 9.47 5.13 13.41 4.17 8.32-2.02 9.47-10.29 11.65-17.55l4.75.88-2.14 21.8 20.7-.04v-73.49l-22.06.01.66 21.83-5.1.51c-.77-6.11-2.4-15.18-9.45-16.27-2.88-.44-5.74-.55-8.65-.24-1.7.18-3.72 1.57-3.73 3.43l-.04 21.36c0 .65.5 1.78 1 1.95.45.15 1.44.2 2 .21 7.48.09 8.32-6.17 8.94-12.02l4.78.04v30.54l-4.81.04c-.42-3.66-.61-9.77-4.3-11.35m-35.12 23.12 2.66 1.04c-.03 3.57-1.8 6.48-4.04 9.29l7.5.04.14-2.79c3.75-.09 7.46-1.9 7.45-5.91l-.03-53.14c0-4.62-3.63-7.52-8.04-7.21l-.1-4.44-22.19.05c8.64 4.25 9.8 13.63 8.88 21.97-1.45 8.3-7.16 12.99-15.43 14.86 5.56 1.46 9.22 2.44 11.75 8.29 3.36 7.75 2.97 14.45 5.93 21.39.52 1.22 2.2 2.38 3.37 1.44 1.39-1.12 1.54-2.95 2.13-4.86m-56.64 7.36c4.07.27 7.03-2.12 7.03-6.03v-54.48c0-4.1-4.11-5.7-7.74-5.75l-.19-4.28-29.6.02 19.33 66.52c.91 3.14 4.25 3.62 6.63 4.4l.09 2.57h4.17zm-74.39-6.52c2.64-4.16 4.07-8.3 5.53-12.96l3.56 1.73c-1.73 8.16-4.96 15.06-11.41 20.71l11.16.03.16-3.35c3.54-.49 5.71-4.13 6.64-7.16l19.34-62.99-29.45-.02 1.82 10.39.68 15.3-5.88-.02c-.99-5.35-2.16-10.15-4.55-14.85-3.17-6.22-10.56-9.04-16.67-5.35-10.58 6.4-8.62 35.88-7.13 46.5.8 5.67 3.37 14.33 8.63 17.16 6.3 3.39 13.73.92 17.56-5.12m1.93-64.01-8.27.06c1.98 1.24 3.76 2.44 5.34 4.12l2.92-4.19m-29.99 73.5c-3.91-3.1-6.63-6.09-8.57-10.16-2.06-4.1-3.1-8.37-3.84-12.99-1.32-9.82-.99-19.58.79-29.33 2.01-8.82 5.07-15.92 13.28-21h-65.79c11.41 5.45 16.42 15.72 18.33 27.61.92 7.02.84 13.9-.28 20.88-1.93 10.19-5.94 18.93-14.81 25h60.88m-118.22.03 28.79-.04c-8.92-6.22-12.33-15.21-13.88-25.29-.92-7.61-.86-15.08.27-22.67.93-5.15 2.38-9.93 4.93-14.41 2.82-4.95 6.76-8.56 12.15-11.09h-21.76v23.51l-4.82.54c-.6-7.73-1.41-18.46-11.33-17.96-1.27.06-3.38.53-3.38 2.34l.08 54.5c0 4.81 4.07 7.89 8.59 7.58zm-22.84-11.42.02-53.37c0-1.26-.8-2.57-1.92-2.85-3.39-.83-6.69.62-8.6 3.47-3.09 4.61-3.71 10.05-4.84 15.53l-5.12-.99 2.18-23.86h-3.63l-.05 4.3c-2.98-.07-5.39 1.55-6.23 4.42-.43 1.47-.65 3.07-.65 4.74v36.79c-.52 8.9-1.02 17.05-8.22 23.21l28.28.02.17-2.87c5.35.07 8.62-3.57 8.63-8.54m-46.61 8.51c4.94-.22 8.79-2.85 10.53-7.39 1.4-3.66 2.22-7.51 2.21-11.64l-.05-39.91c0-4.68-3.89-7.57-8.25-7.26l-.1-4.42-9.29.04-.06 4.28c-4.24-.02-7.74 2.18-7.74 6.63v39.66c0 5.6.97 12.02 4.28 16.41 2.06 2.73 4.97 3.77 8.47 3.61m-26.62-18.08-.02-41.94c0-4.1-3.71-6.4-7.73-6.31l-.09-4.31-22.63.02 19.33 66.52c.85 2.93 3.92 3.65 6.56 4.33l.23 2.67 14.35-.06c-6.81-5.27-9.74-12.38-10-20.92m-58.71 10.45 19.33-63H7.34v73.5h14.41l.17-3.35c3.83-.7 5.42-3.85 6.64-7.16m461.96-69.68c-3-2.21-6.61-3.52-10.39-3.17-1.02.42-1.33 2.23-1.19 3.24zm-18.67-7.14c-4.13-5.23-8.95-9.62-14.44-13.12-7.91-5.05-14.64-5.02-23.73-3.9-5.87 2.08-11.17 4.98-15.7 9.23-4.3 4.14-7.33 9.05-9.48 14.99h65.64c-.36-2.42-.63-5.09-2.29-7.2m-309.25 7.2c-.54-7.06 2.37-19.28 7.08-24.07l.09-1.31c.02-.24-.88-.31-1.21-.3-3.8.14-7.98 1.17-11.51 3.09-4.75 2.58-9.05 5.66-12.8 9.54-4.07 4.2-4.49 7.26-4.52 13.06h22.87m7.25-7.96c-1.65 2.53-2.82 5.11-2.73 7.95h234c-.41-4.63.04-9.12 1.46-13.53.5-1.56.72-3.03.65-4.8-9.31-2.97-18.38-5.52-27.94-7.19-6.13-1.07-11.92-1.7-18.16-2.33-22.41-2.25-44.65-4.2-67.24-5.25-19.59-.91-38.93-.83-58.42-.68-3.31.03-6.15.38-9.47.92l6.97 8.24c2.02 2.38 6.87 9.03 6.03 12.7-3.24-1.38-5.81-2.92-8.68-4.59-9.62-5.57-19.48-10.31-30.94-8.75-10.46 1.42-19.05 9.24-25.52 17.29m-146.88-4.49c-2.13.02-4.88 10.55-5.54 12.47h116.95c-.12-7 1.06-13.77 3.68-20.17 1.68-4.1 4.79-6.86 8.75-8.64 1.96-1.07 3.09-2.77 2.49-5.02l-1.31-4.89c-.46-1.71-.11-3.46.95-4.81l2.83-3.62c-.26-.41-1.11-.54-1.6-.4-12.43 3.55-39.4 1.15-51.41-1.99l-9.2-2.41c-.64 1.3-1.52 2.16-2.91 2.37-7.55 1.14-14.63.53-21.21-3.51-1.62-1-3.29-1.93-4.97-2.82-.94 8.74-4.49 12.17-4.41 21.08.04 4.49 3.59 5.46 2.68 6.3-1.11 1.02-7.78-.78-7.91-7.4-.07-3.44.21-6.63.47-10.31-3.21-1.13-5.9-1.06-8.13 1.95-1.78 2.4-3.14 4.94-4.23 7.69-1.5 3.77 4.5 5.14 6.48 7.53-2.93.07-5.18-.25-7.84-.51l-4.77 13.39c-2.6 7.28-3.99 2.31-3.32 12.42-1.14.28-6.01.82-6.33-.91-.07-.39.26-1.21.52-1.62 1.18-1.84 1.17-4.66-.71-6.18m29.71-41.84c.03-.52-.18-1.23-.43-1.33-1.5-.61-2.96.67-3.97 2.17.62.84 1.53 1.23 2.5 1.12.76-.09 1.83-.88 1.89-1.96m7.83-8.4c.45-.03.79-1.24.6-1.57-.16-.28-.7-.8-1.01-.9-.82.47-.89 2.56.41 2.47m318.22 27c-1.25-1.62-2.88-3.02-4.87-3.47-.68-.15-1.98.72-2.58 1.19-2.61 2.05-6.33 2.17-8.99-.08-2.36-1.99-4.55-3.99-6.55-6.34-.76-.89-.69-2.09.2-2.87l3.18-2.8c-1.73-1.39-3.2-2.39-5.05-3.34-7.53-3.85-15.23-6.99-23.32-9.58-15.01-4.81-37.17-5.25-52.79-3.42-11.11 1.3-21.73 3.33-32.53 5.88-2.72.64-12.57 3.19-13.61 5.46-1.74 3.79-2.83 7.54-3.28 11.75l38.03 2.21 78.6 4.22 15.15 1.09c2.76.2 1.92 3.24 2.77 3.83 1.58 1.09 14.27-1.81 15.64-3.73M272.56 96.22c11.1-1.62 21.67-2.16 32.64-1.73 13.99.54 27.37 3.52 40.32 8.85 9.03 3.71 17.46 8.02 25.9 12.9 5.34 3.09 10.52 5.9 16.14 8.35 1.31.57 2.46.96 4.02 1.21-1.73-2.46-3.45-4.06-5.44-5.96-16.55-15.78-32.94-29.02-55.51-35.21-22.06-6.05-35.03-7.09-58.01-5.62-17.83 1.14-32.68 6.23-48.92 13.15-8.44 3.6-16.66 7.04-25.32 10.12-4.81 1.71-9.07 3.9-13.8 5.69l-8.26 3.12c-4.96 1.87-9.47 4-14.67 5.85 6.85 1.62 25.97.52 32.46-.8s13.01-3.64 19.67-5.53l31.93-9.02c8.87-2.51 17.53-4.02 26.85-5.37M126.2 112.06c15.84-2.02 30.74-5.97 45.43-11.54l31.92-12.08c7.29-2.76 14.21-5.45 21.67-7.71 8.21-2.48 16.35-4.35 24.74-5.97 1.16-.22 2.14.06 3.2-.86-1.19-.23-2.21-.44-3.38-.42l-30.34.54c-9.12.16-24.07 4.92-32.77 8.22-7.39 2.8-14.24 5.91-21.43 9.2-22.3 10.2-43.95 18.34-68.6 20.22-1.4.11-2.56.36-3.83.82 2.15.84 4.24 1.15 6.49 1.11 8.99-.15 17.68-.36 26.91-1.54m110.53-42.31c12.75-.06 17.36 3.7 28.62 2.61 10.33-1 20.39-1.34 30.73-.44 10.27.89 20.15 2.65 29.86 6.14 10.46 3.76 20.31 8.44 29.9 13.99s18.38 12.1 26.47 19.77l12.59 11.92c2.98 2.82 6.3 4.36 10.45 4.76 15.04 1.45 29.79 3.28 44.67 6.07s30.19 6.33 43.75 14.68c7.2 4.43 12.91 10.27 16.82 17.72h25.85c.24-.05.45-.04.45-1.16 0-29.86 0-65.83.03-97.78l-464.5.02c-.09 2.41-.43 4.37-1.35 6.33-1.3 2.39-2.98 4.43-4.89 6.3-1.23 1.2-1.46 2.36-.82 3.9l6.54 15.62c2.73-.14 19.03 2.04 17.62 5.77-.89 2.35-5.07 2.08-6.19 4.23 1.71.29 3.19.33 4.93.04 27.18-4.52 43.85-11.26 68.57-22.5 7.46-3.39 14.58-6.61 22.23-9.51 10.01-3.8 25.21-8.31 35.83-8.35l21.83-.1M39.66 101.36c.38-.21.89-1 .78-1.36-.75-2.38-7.71.16-8.54-2.99-.39-1.5.83-3.74 2.21-4.06 1.45 1.37 2.77 1.94 4.7 1.75l16.46-1.59c.84-1.53.01-3.61-1.45-4.51-5.22-3.22-13.5.1-22.9-15.78l-2.47-4.79-21.44.03.12 85.34.18 13.55 4.23-.02c2.12-5.92 4.1-11.45 5.8-17.5 2.48-8.75 6.37-16.81 10.8-24.71.96-1.72 1.69-3.25 2.45-5.22-.84-2.32-9.77-6.24-8.55-8.03s11.76-.31 14.71-1.9c-.59-.61-1.4-1.1-2.08-1.18l-8.45-1c-1.81-10.76 4.45-1.12 13.43-6.01m170.69-40.02c.32-1.5.58-2.09 1.42-2.98.14-.45.19-1.61-.04-2.16l-3.61-8.46-32.52.4-4.54 7.92c-.41.71-.45 1.99-.12 2.61l1.13 2.66h38.27m68.08.01c.17-1.54.35-2.11.88-3.28-.36-.98-.93-2.31-1.61-3.27L269 42.57l-20.6.03.4 13.31c.03.87.46 1.97.79 2.7 1.61.28 1.96 1.43 2.07 2.78h26.75m-144.59-2.52c.82-.26 1.42-1.37 1.44-2.37.17-11.21.4-22.17-.24-33.91l-21.01 38.74 19.44.1c-.32-.57-.6-1.1-.74-1.53-.1-.3.54-.73 1.1-1.04m-45.78 2.37 19.02.16c-2.01-3.14-3.56-5.91-5.3-9.11L85.48 22.4c-.42 11.53-.35 22.3-.14 33.43.08 4.13 2.73 1.76 2.67 5.41m312.12.22 12.57-.04 19.57-.16-34.11-39.05-.03 26.85.23 8.1c.13 1.89 3.06 1.96 2.45 3.07zM202.54 38.75l-9.67-19.25c-.46-.92-.85-1.53-1.45-2.48-.68.99-1.12 1.64-1.59 2.54l-9.82 19.16zm77.1-12.46c1.07-3.01.49-6.02-1.82-8.18-2.17-2.27-5.14-2.99-8.33-3.27l-21.09-.06.25 17.34 14.73-.17c3.65.02 7.26-.15 10.75-.8 2.76-.52 4.55-2.19 5.5-4.86m224.47 2.85c6.34 1.85 16.3 4.97 19.84 10.78 2.08 4.03 2.22 8.82.24 12.91-2.73 4.37-6.89 6.88-11.75 8.5l24.49-.13V6.74l-20.2.03c2.52 1.11 4.89 1.09 7.42.66l.96.45c.9.43-7.77 13.73-9.73 13.25-1.09-.27-.26-2.68-.9-3.71-6.12-2.8-12.69-4.1-19.33-2.89-3.47.63-8.27 2.55-7.77 6.55.44 3.53 13.3 7.07 16.74 8.07m9.44 20.71c1.25-1.29.75-4.24-.22-5.38-1.98-2.32-4.57-3.72-7.43-4.57l-11.71-3.45c-3.76-1.11-7.34-2.38-10.75-4.11-3.88-1.96-6.41-5.31-7.18-9.07-1.56-7.62 3.24-12.97 9.85-16.54h-20.29c2.62 3.62-.45 9.51-3.53 12.02-1.32 1.08-3.01 1.44-4.51.26l1.56-2.82c1.72-3.1-2.44-.91-4.19-4.87-.71-1.6-.63-3.13.75-4.59l-7.41.04c-.59.77-1.44 1.42-2.24 1.88-.54 2.48-.63 5.07-.64 7.8l-.05 44.95h18.22l23.66-.1-7-3.11c-2.19-.97-4.58-1.71-6.95-2.06-.21-.03-.62-.31-.72-.48-.69-1.23 10.26-10.5 12.24-11.45 1.73 1.03-.64 4.24 1.24 5.28 2.35 1.31 4.62 2.85 7.28 3.38 3.63.72 7.27.51 11.01.3 3.15-.17 6.68-.9 9.03-3.34m-78.76-37.38c0-1.46-.33-2.85-.63-3.81-1.05-.55-1.59-.99-2.26-1.9l-32.29.15 34.4 38.87c.75-1.27.81-2.67.81-4.13l-.03-29.17m-50.44 48.88c-.24-.97-.02-1.74.59-2.05l2.52-1.29V8.96c-1.44-.55-2.56-1.37-3.54-2.05l-6.4-.07-2.24 2c-.28 2.5-.49 4.76-.49 7.32l.02 35.16c0 2.41-.02 4.99.81 7.1.42 1.07 2.32 1.27 1.92 2.97l6.82-.04m-48.4.01h24.59c-.26-1.63.78-2.37 2.08-2.93.58-2.23.68-4.64.68-7.12V16.47c0-2.66-.17-5.05-.49-7.63l-2.28-2.09-5.53.07c.38 1.61 1.34 13.11-.39 12.42l-1.18-.47-2.22-3.96h-17.53l.02 36.18c0 2.11.14 3.91.27 6 .11 1.82 2.66 1.97 2.39 2.93l-.41 1.45m-13.88-4.49.23-10.09V14.78l-18.25.03-1.71 4.03-1.17.37c-1.22.39-.71-11.01-.66-12.21l-16.11-.09c-1.4 0-2.7-.28-4.31-.03 5.47 2.18 9.36 6.48 10.55 12.34 1.79 9.48-2.6 16.48-11.56 20.12 4.94 6.82 9.83 13.28 15.56 19.11.97.99 2.9 1.03 2.8 2.91l22.62-.03-.46-1.23c-.45-1.19 2.43-.93 2.48-3.24m-87.48 4.52c-.41-2.02.78-2.28 1.83-3.11.43-.61.75-2.07.75-3.08l.06-40.97c0-1.86.03-3.95-.74-5.47l-2.23-1.97-16.62.13-19.43.21 19.8 36.52c2.27 4.18 4.53 8.03 7.02 12.05 2.23 3.6 5.42 3.18 3.9 5.63l5.67.06m-85.67.12 4.66-.14c.93-2.87 2.79-2.12 4.39-4.89l4.83-8.37 22.13-41.33c-5.93-.02-11.41-.14-17.08.15-6.25.31-12.33.14-18.63-.01l-2.71 2.08c-.23 2.65-.44 5.1-.44 7.82l.09 37.74c0 1.27.26 3.02.71 3.88 1.31.75 2.14 1.22 2.04 3.08M131.69 6.76l-28.26.42c-1.5.02-2.85-.06-4.25-.43l-10.22.02 13.23 24.71 7.8 14.33c2.87-4.27 5.14-8.26 7.51-12.67l14.2-26.38m-70.15 22.2c1.58 3.49-.61 6.3 3.6 16.67l6.17 15.2c1.64-3.36 3.11-.68 3.11-6.61l.02-40.64c0-1.76-.3-3.43-.6-4.96l-2.19-1.87H7.02v54.5l18.68-.02c-1.49-3.97-3.91-6.75-6.73-9.51-.93-1-2.43-2.13-2.83-3.47-1.17-3.93.18-7.96 2.55-11.18 6.19-8.39 18.71-12.68 28.78-13.88 5.15-.62 11.68.48 14.08 5.78m482.07 268.71v36.26L.26 333.92 0 172.84.28 0l384.24.24 158.78.1.24 177.02z"/></svg>