<?xml version="1.0" encoding="UTF-8"?>
<svg id="Layer_1" data-name="Layer 1" xmlns="http://www.w3.org/2000/svg" xmlns:xlink="http://www.w3.org/1999/xlink" viewBox="0 0 259.56 97.6">
  <defs>
    <style>
      .cls-1 {
        fill: url(#linear-gradient);
      }

      .cls-1, .cls-2 {
        stroke-width: 0px;
      }

      .cls-2 {
        fill: #3a3b3a;
      }
    </style>
    <linearGradient id="linear-gradient" x1="12.2" y1="-56.39" x2="227.54" y2="-56.39" gradientTransform="translate(9.91 86.82)" gradientUnits="userSpaceOnUse">
      <stop offset="0" stop-color="#e28526"/>
      <stop offset="1" stop-color="#e9aa23"/>
    </linearGradient>
  </defs>
  <path class="cls-1" d="M106.83,46.56h24.97s0,13.12,0,13.12h-39.78s0-58.51,0-58.51h14.8s0,45.39,0,45.39ZM171.28,33.1c0,10.03-3.74,14.04-9.87,14.04-6.21,0-9.94-4.01-9.94-14.04V1.17s-14.8,0-14.8,0v32.43c0,17.47,9.12,27.25,24.6,27.25,15.48,0,24.6-9.78,24.6-27.25V1.17s-14.58,0-14.58,0v31.93ZM207.77,18.14c0-2.93,2.24-5.27,8.45-5.27,4.56,0,9.5,1.5,14.51,4.51l4.56-12.29C230.12,1.76,223.09,0,216.29,0c-15.55,0-23.18,8.53-23.18,18.97,0,21.73,29.76,14.96,29.76,24.24,0,2.84-2.39,4.76-8.52,4.76-6.06,0-12.64-2.34-17.27-5.77l-4.86,12.2c4.93,3.85,13.46,6.44,22.06,6.44,15.55,0,23.18-8.69,23.18-18.89,0-21.57-29.68-14.88-29.68-23.82ZM49.91,22.37v-3.27h-14.06v3.27s0,10.46,0,10.46h-13.73s0,13.11,0,13.11h13.73s0,13.73,0,13.73h14.06s0-13.73,0-13.73h13.73s0-13.11,0-13.11h-13.73s0-10.46,0-10.46ZM61.26,1.17h-25.41s0,12.77,0,12.77h6.08s14.37,0,14.37,0c6.64,0,12.03,5.39,12.03,12.03v19.68s0,0,0,0l.14-.04h0c9.7-2.65,15.66-11.05,15.66-21.59,0-12.63-10.24-22.86-22.86-22.86Z"/>
  <g>
    <path class="cls-2" d="M22.83,97.09l-.07-13.4-6.5,10.91h-3.18l-6.47-10.55v13.04H0v-25.29h5.89l8.89,14.6,8.67-14.6h5.89l.07,25.29h-6.58Z"/>
    <path class="cls-2" d="M54.77,91.56v5.53h-20.31v-25.29h19.84v5.53h-12.75v4.26h11.24v5.35h-11.24v4.62h13.22Z"/>
    <path class="cls-2" d="M81.58,97.09l-.07-13.4-6.5,10.91h-3.18l-6.47-10.55v13.04h-6.61v-25.29h5.89l8.89,14.6,8.67-14.6h5.89l.07,25.29h-6.58Z"/>
    <path class="cls-2" d="M117.28,90.15c0,4.37-3.61,6.94-10.41,6.94h-13.66v-25.29h12.93c6.65,0,9.9,2.71,9.9,6.61,0,2.42-1.23,4.37-3.4,5.49,2.85,1.01,4.62,3.18,4.62,6.25ZM100.3,76.97v4.88h4.91c2.38,0,3.61-.83,3.61-2.46s-1.23-2.42-3.61-2.42h-4.91ZM110.05,89.36c0-1.73-1.3-2.57-3.76-2.57h-6v5.13h6c2.46,0,3.76-.83,3.76-2.57Z"/>
    <path class="cls-2" d="M141.31,91.56v5.53h-20.31v-25.29h19.84v5.53h-12.75v4.26h11.24v5.35h-11.24v4.62h13.22Z"/>
    <path class="cls-2" d="M156.34,90.37h-3.9v6.72h-7.15v-25.29h11.56c6.9,0,11.24,3.58,11.24,9.36,0,3.72-1.81,6.47-4.95,7.99l5.46,7.95h-7.66l-4.59-6.72ZM156.41,77.44h-3.97v7.41h3.97c2.96,0,4.44-1.37,4.44-3.69s-1.48-3.72-4.44-3.72Z"/>
    <path class="cls-2" d="M170.25,94.81l2.35-5.27c2.24,1.48,5.42,2.49,8.35,2.49s4.12-.83,4.12-2.06c0-4.01-14.38-1.08-14.38-10.48,0-4.52,3.69-8.2,11.2-8.2,3.29,0,6.68.76,9.18,2.2l-2.2,5.31c-2.42-1.3-4.81-1.95-7.01-1.95-3,0-4.08,1.01-4.08,2.28,0,3.87,14.34.98,14.34,10.3,0,4.41-3.69,8.17-11.2,8.17-4.16,0-8.27-1.12-10.66-2.78Z"/>
    <path class="cls-2" d="M219.46,71.8v25.29h-7.15v-9.86h-9.76v9.86h-7.15v-25.29h7.15v9.5h9.76v-9.5h7.15Z"/>
    <path class="cls-2" d="M224.52,71.8h7.15v25.29h-7.15v-25.29Z"/>
    <path class="cls-2" d="M259.56,81.16c0,5.74-4.34,9.32-11.24,9.32h-4.41v6.61h-7.15v-25.29h11.56c6.9,0,11.24,3.58,11.24,9.36ZM252.34,81.16c0-2.35-1.48-3.72-4.44-3.72h-3.97v7.41h3.97c2.96,0,4.44-1.37,4.44-3.69Z"/>
  </g>
</svg>