<?xml version="1.0" encoding="UTF-8"?>
<!DOCTYPE svg PUBLIC "-//W3C//DTD SVG 1.1//EN" "http://www.w3.org/Graphics/SVG/1.1/DTD/svg11.dtd">
<!-- Creator: CorelDRAW -->
<svg xmlns="http://www.w3.org/2000/svg" xml:space="preserve" width="300mm" height="300mm" version="1.1" style="shape-rendering:geometricPrecision; text-rendering:geometricPrecision; image-rendering:optimizeQuality; fill-rule:evenodd; clip-rule:evenodd"
viewBox="0 0 30000 30000"
 xmlns:xlink="http://www.w3.org/1999/xlink"
 xmlns:xodm="http://www.corel.com/coreldraw/odm/2003">
 <defs>
  <style type="text/css">
   <![CDATA[
    .str0 {stroke:black;stroke-width:7.62;stroke-miterlimit:2.61313}
    .str1 {stroke:blue;stroke-width:7.62;stroke-miterlimit:2.61313}
    .fil0 {fill:none}
   ]]>
  </style>
 </defs>
 <g id="Layer_x0020_1">
  <metadata id="CorelCorpID_0Corel-Layer"/>
  <path class="fil0 str0" d="M15812.91 23964.05c92.24,-270.77 414.42,-805.75 655.93,-1008.34 134.8,-113.08 250.24,-124.45 269.63,-105.07 9.22,9.2 -119.41,68.78 -240.22,175.81 -293.52,260.04 -436.21,619.91 -601.15,908.28 -61.64,107.76 -114.23,117.49 -84.19,29.32z"/>
  <path class="fil0 str0" d="M16060.78 24093.21c221.44,-396.12 666.74,-1095.83 1091.54,-1275.43 31.06,-13.12 3.28,-67.18 -45.25,-52.77 -253.21,75.21 -619.74,536.72 -816.47,799.84 -156.14,208.84 -247.55,430.91 -310.7,554.43 -11.31,22.11 19.74,95.15 80.88,-26.07z"/>
  <path class="fil0 str0" d="M16239.81 24071.24c211.84,-264.09 726.58,-909.93 993.77,-1098.11 65.96,-46.46 81.05,-38.15 78,-22.34 -3.07,15.8 -24.27,39.08 -112.04,134.72 -219.79,239.55 -688.32,762.5 -901.16,1022.2 -107.88,131.63 -125.19,165.48 -145.55,177.83 -20.35,12.36 -43.76,3.22 -46.68,-3.8 -2.93,-7.01 -7.71,-34.24 133.66,-210.5z"/>
  <path class="fil0 str0" d="M16359.5 24340.44c291.53,-221.13 753.12,-649.82 941.59,-976.88 71.32,-123.76 74.65,-198.06 76.49,-232.71 2.49,-46.97 11.91,-36.17 -93.07,134.23 -313.81,509.37 -570.19,672.44 -1006.33,1050.38 -144.9,125.55 -101.28,163.51 81.32,24.98z"/>
  <path class="fil0 str0" d="M16491.2 24472.57c243.5,-118.13 607.09,-391.32 777.04,-624.67 146.84,-201.61 173.99,-417.93 150.63,-392.66 -20.93,22.64 -69.71,210.99 -237.2,394.89 -166.44,182.74 -526.5,435.03 -718.55,569.73 -84.44,59.23 -105.99,73.61 -101.49,83.45 4.49,9.82 35.01,15.11 129.57,-30.74z"/>
  <path class="fil0 str0" d="M18043.24 24864.67c123.94,81.89 443.79,293.74 584.09,283.43 36.73,-2.7 20.75,-35.87 -54.49,-70.05 -155.59,-70.69 -426.98,-268.87 -588.27,-303.09 -44.28,-9.41 -30.46,30.81 58.67,89.71z"/>
  <path class="fil0 str0" d="M17730.03 24986.96c221.05,183.76 622.68,506.76 918.06,538.77 98.45,10.67 -48.21,-104.2 -67.91,-111.99 -276.89,-109.42 -587.42,-323.92 -826.31,-505.95 -107.26,-81.72 -195.62,-63.67 -23.84,79.17z"/>
  <path class="fil0 str0" d="M20839.41 23238.09c42.55,-26.28 373.55,-229.27 382.66,-254.14 5.6,-15.25 -6.99,-32.39 -27.76,-31.89 -44.93,1.07 -498.6,319.72 -461.54,338.59 7.92,4.03 31.37,-6.09 106.64,-52.56z"/>
  <path class="fil0 str0" d="M20667.58 23477.2c138.42,-8.88 666.75,-26.48 778.58,-80.47 33.87,-16.34 32.82,-32.57 17.72,-39.43 -27.41,-12.5 -413.18,26.7 -511.41,34.99 -110.97,9.37 -419.11,23.19 -414.95,88.04 0.58,9.05 6.33,4.8 130.06,-3.13z"/>
  <path class="fil0 str0" d="M20636.09 20416.31c4.27,-24.73 79.89,-112.79 85.15,-100.93 11.73,26.47 -32.13,110.16 -52.46,119.72 -22.11,10.4 -33.16,4.12 -32.69,-18.79z"/>
  <path class="fil0 str0" d="M20460.77 20396.05c160.28,-198.34 224.93,-211.54 185.87,-166.38l-132.84 167.96c-12.28,19.46 -84.9,45.46 -53.03,-1.58z"/>
  <path class="fil0 str0" d="M23372.38 21085.63c85.99,-30.37 543.04,-187.86 619.03,-159.84 76.49,28.19 -297.87,118.02 -352.3,132.78 -77.81,21.09 -365.89,110.54 -368.63,73.27 -0.24,-3.33 -0.74,-9.99 101.9,-46.21z"/>
  <path class="fil0 str0" d="M23231.51 20877.43c183.73,-122.13 413.13,-256.85 639.24,-264.17 55.28,-1.8 54.98,9.63 47.81,16.7 -7.18,7.08 -21.23,9.84 -88.69,31.61 -222.09,71.7 -360.04,133.1 -555.7,261.84 -56.76,37.34 -75.39,51.48 -91.93,51.83 -16.54,0.36 -31,-13.05 -33.6,-24.94 -2.58,-11.88 6.71,-22.26 82.87,-72.87z"/>
  <path class="fil0 str0" d="M23126.3 20701.46c155.59,-243.12 336.25,-407.87 602.47,-523.68 79.16,-34.43 93.24,-28.75 100.45,-23.71 7.2,5.02 7.52,9.38 -60.36,52.04 -322.91,202.91 -353.99,239.91 -603.12,521.43 -98.01,110.75 -116.28,94.03 -39.44,-26.08z"/>
  <path class="fil0 str0" d="M23565.08 21353.6l665.76 -127.44c38.52,-13.82 26.02,-27.87 7.99,-32.23 -32.14,-7.77 -543.26,76.06 -612.87,89.97 -196.62,39.29 -229.06,93.17 -60.88,69.7z"/>
  <path class="fil0 str0" d="M22950.43 20495.16c173.52,-318.6 414.65,-548.54 734.45,-717.1 174.76,-92.12 87.69,23.22 -9.72,98.24 -83.77,64.51 -233.51,162.32 -363.13,283.77 -129.61,121.44 -239.09,266.52 -301.68,345.75 -112.92,142.92 -125.44,109.66 -59.92,-10.66z"/>
  <path class="fil0 str0" d="M22802.27 20324.72c174.75,-345.99 418,-764.81 721.56,-1011.22 74.65,-60.6 85.29,-52.6 78.49,-32.42 -6.79,20.17 -31.02,52.52 -91.66,124.13 -231.82,273.75 -380.96,476.52 -576.53,808.9 -86.6,147.17 -141.06,285.97 -196.48,290.03 -19.28,1.41 -7.41,-36.84 64.62,-179.42z"/>
  <path class="fil0 str0" d="M22639.51 20211.56c193.02,-464.56 404.59,-905.5 761.5,-1270.22 87.58,-89.5 97.05,-80.17 104.31,-66.88 27.15,49.67 -19.72,53.47 -125.64,182.44 -277.79,338.24 -467.86,732.1 -653.59,1119.93 -60.38,126.08 -133.9,280.71 -156.53,235.86 -5.15,-10.21 -0.45,-31.73 69.95,-201.13z"/>
  <path class="fil0 str0" d="M14112.26 24849.18c-135.6,-220.2 -570.71,-257.54 -874.83,-265.63 -265.3,-7.05 -828.46,10.95 -941.86,149 -24.49,29.8 -12.51,46.86 68.26,45.47 80.78,-1.4 230.38,-21.21 438.66,0.41 297.77,30.91 758.66,127.15 1013.02,274.15 -364.96,305.8 -894.46,295.72 -1007.66,360.09 -243.32,138.36 829.03,98.52 1246.61,-94.81 402.79,-186.47 900.08,-590.31 945.1,-1054.03 20.67,-212.92 -47.47,-440.3 -145.01,-606.54 -97.54,-166.26 -224.44,-271.37 -280.3,-299.95 -55.85,-28.6 -40.63,19.33 -14.55,159.31 26.08,139.97 63.03,371.98 32.24,604.32 -30.8,232.33 -129.33,464.98 -268.55,598.43 -63.25,60.64 -134.9,100.81 -211.13,129.78z"/>
  <path class="fil0 str0" d="M22903.12 21231.72c-314.07,53.57 -848.25,155.44 -1407.88,386.85 -612.88,253.42 -1256.36,662.23 -1894.3,971.48 -637.94,309.24 -1180.67,477.39 -1523.01,551.53 -342.34,74.14 -350.78,21.58 -359.85,103.02 -9.06,81.44 -90.35,356.69 -218.76,607.72 -164.73,322.04 -806.7,864.25 -1131.87,836.19 -278.77,-24.07 -357.89,-201.28 -503.1,-355.11 -43.14,-45.7 -56.51,-17.17 -90.7,98.3 -34.19,115.46 -94.22,323.2 -144.51,458.68 -50.3,135.48 -90.83,198.69 198.5,137.87 289.32,-60.84 908.52,-245.73 1606.93,-480.34 698.41,-234.64 1476.01,-519.01 2086.64,-888.36 610.65,-369.34 1054.32,-823.7 1430.78,-1157.88 755.77,-670.93 1056.09,-824.47 2028.47,-735.1 137.58,8.92 153.86,-48.75 139.92,-210.61 -7.31,-84.85 -25.23,-212.66 -63.21,-273.85 -37.98,-61.2 -96.02,-55.8 -154.05,-50.39z"/>
  <path class="fil0 str0" d="M10263.54 22309.96c105.72,223.78 95.32,401.79 -65.59,616.75 -143.31,191.46 -271.93,203.37 -217.18,203.37 164.05,0 321.59,-75.46 431.93,-237.9 164.86,-242.7 58.88,-478.99 -66.47,-677.64 -17.57,-27.84 -18.14,-38.72 -107.5,-12.86 -40.72,11.78 -20.14,13.12 24.81,108.28z"/>
  <path class="fil0 str0" d="M8846.76 22227.61c-216.9,192.61 -644.04,594.64 -689.62,879.52 -16.53,103.35 36.38,152.38 130.95,177.84 61.89,16.66 435.17,58.53 338.62,-31.12 -28.43,-26.4 -85.28,-62.22 -106,-140.48 -40.9,-154.51 42.09,-454.22 269.23,-538.51 117.96,-43.78 283.33,-43.78 408.54,-16.98 175.48,37.57 388.9,196.19 427.49,129.87 64.08,-110.13 -469.77,-511.72 -469.77,-696.59 0,-22.48 0,-22.48 -43.59,12.26 -43.59,34.74 -130.76,104.22 -265.85,224.19z"/>
  <path class="fil0 str0" d="M18576.07 19011.18c-2.21,-35.62 -1.27,-69.87 2.41,-101.66 -360.3,40.09 -879.3,88.47 -1473.67,151.31l20.7 121.76c483.81,-55.04 968.11,-109.03 1450.56,-171.41z"/>
  <path class="fil0 str0" d="M16840.4 19215.44l-0.44 -126.16c-523.03,57.02 -1090.42,123.77 -1637.95,190.73 13.55,40.14 23.32,85.88 27.94,134.81l1610.45 -199.38z"/>
  <path class="fil0 str0" d="M14922.65 19451.81c-3.81,-45.05 -2.74,-93.01 3.79,-137.81l-1217.54 154.94c20.99,47.38 36.27,105.72 42.72,169.75 284.87,-46.4 856.07,-141.89 1171.03,-186.88z"/>
  <path class="fil0 str0" d="M13446.02 19693.53c-6.37,-63.12 -4.41,-129.39 9.96,-191.3l-1268.64 166.94c-78.79,20.13 -59,77.18 -204.5,62.27 -42.99,-4.41 -106.93,-12.12 -141.11,-13.22 -34.17,-1.11 -38.58,4.4 -70.55,33.3 -31.97,28.88 -91.51,81.17 -124.03,115.89 -32.52,34.7 -38.03,51.84 -127.88,76.39 -89.85,24.55 -264.03,56.52 -353.33,73.6 -137.54,26.31 -85.8,17.9 -221.04,-54 -25.91,-13.77 -29.21,-10.47 -133.39,29.55 -104.18,40.02 -309.24,116.75 -408.46,155.12 -99.21,38.37 -92.6,38.37 -102.52,128.93 -9.92,90.56 -36.38,271.69 -54.02,374.37 -17.64,102.68 -26.46,126.93 -140.01,254.75 -113.55,127.83 -331.83,359.24 -440.42,477.15 -108.59,117.9 -107.49,122.31 20.39,83.2 63.71,-19.49 158.91,-49.79 259.11,-82.98 251.02,-600.95 484.61,-828.57 1105.03,-1072.78 656.04,-258.21 1618.18,-472.98 2395.41,-617.18z"/>
  <path class="fil0 str0" d="M17500.16 20652.38c277.23,-514.97 1048.24,-1171.33 897.21,-952.03 -46.4,67.37 -73.18,87.24 -211.86,232.6 -165.8,173.76 -562.34,683.57 -562.34,683.57 -49.41,24.77 -81.85,27.7 -123.01,35.86z"/>
  <path class="fil0 str0" d="M17928.94 20587.99c109.66,-195.42 444.95,-667.16 675.92,-744.46 87.01,-29.13 -140.07,166.73 -380.28,463.41 -105.49,130.3 -157.96,206.88 -203.23,272.31 -23.73,2.94 -69.99,5.87 -92.41,8.74z"/>
  <path class="fil0 str0" d="M18375.06 20535.01c41.93,-56.16 389.85,-537.87 464.21,-477.58 12.46,10.1 -6.22,33.53 -80.53,124.68l-295.26 343.24c-29.69,3.19 -59.2,6.42 -88.42,9.66z"/>
  <path class="fil0 str0" d="M18770.04 20500.41c66.65,-77.04 185.46,-207.16 241,-257.23 72.25,-65.15 110.69,-28.81 101.88,-12.43 -8.81,16.39 -35.11,33.5 -97.9,101.5 -37.34,40.44 -87.59,98.88 -134.61,151.52 -18.25,1.65 -91.98,14.92 -110.37,16.64z"/>
  <path class="fil0 str0" d="M21473.71 22459.34c-12.43,12.52 -25.12,25.44 -38.08,38.75 49.03,44.29 400.98,160.79 408.28,112.95 3.8,-24.9 -311,-147.01 -370.2,-151.7z"/>
  <path class="fil0 str0" d="M20372.7 23587.65c-8.1,8.13 -16.21,16.24 -24.34,24.26 43.36,31.63 80.48,33.35 191.4,56.8 131.31,27.76 855.34,191.08 958.78,121.77 46.99,-31.49 -189.67,-42.95 -299.32,-58.51 -131.72,-18.7 -305.57,-49.84 -440.28,-76.42 -139.34,-27.51 -304.78,-67.55 -386.24,-67.9z"/>
  <path class="fil0 str0" d="M17885.13 19827.61c-604.37,-16.62 -1208.13,-41.87 -1812.48,-63.5 -809.57,-28.98 -1590.42,-10.29 -2232.05,568.25 -937.89,845.7 -2224.16,2905.83 -2052.9,3417.89 41.97,125.52 246.22,405.84 255.56,438.71 15.2,53.54 -198.39,-15.93 -214.1,-11.62 -44.18,12.12 178.66,272.59 -21.1,134.52 -131.06,-90.59 -115.65,-86.17 -121.55,17.86 -4,70.46 -22.76,281.99 -75.99,114.6 -33.29,-104.7 -23,-116.23 -74.03,55.37 -98.04,329.68 -16.17,-314.45 -14.24,-329.83 4.12,-32.86 0.9,-21.73 -53.93,84 -113.6,219 -299.53,538.96 -341.16,781.94 -31.51,183.9 -30.23,424.25 161.57,503.98 123.56,51.37 267.02,8.72 342.77,-113.85 32.81,-53.08 60.71,-121.14 81.75,-163.38 43.76,-87.85 38.75,-60.22 -86.07,-52.32 -118.07,7.48 -59.37,-40.79 -10.91,-88.02 52.68,-51.34 146.51,-140.04 226.37,-208.2 30.64,-26.17 27.52,-18.02 30.32,-36.64 46.99,-311.9 830.09,-1219.19 1191.59,-1602.28 384.34,-407.31 817.34,-802 1346.15,-1174.18 528.82,-372.18 1153.48,-721.85 1656.32,-952.13 357.43,-163.68 724.15,-327.61 1106.99,-429.54 171.14,-366.15 489.44,-667.02 711.12,-891.63z"/>
  <path class="fil0 str0" d="M5269.79 20710.76c227.41,378.64 474.74,743.78 742.9,1092.43 387.28,-210.67 763.7,-409.58 984.77,-507.89 250.24,-111.29 309.78,-93.67 477.35,39.86 167.57,133.52 443.18,382.94 583.19,493.13 140.01,110.19 144.42,81.18 340.65,-99.73 196.24,-180.92 584.29,-513.7 783.83,-697.73 199.54,-184.03 210.57,-219.29 232.61,-316.25 22.05,-96.98 55.13,-255.66 70.56,-340.51 15.44,-84.86 13.23,-95.87 -44.62,-92.56 -57.84,3.29 -171.35,20.93 -905.56,98.06 -701.04,73.64 -1973.18,200.85 -3265.68,331.19z"/>
  <path class="fil0 str0" d="M6374.7 22251.35c250.51,294.07 516.33,578.04 794.84,845.45 68.27,-119.25 136.43,-227.83 177.41,-295.14 61.73,-101.38 77.18,-114.61 131.19,-148.77 243.32,-153.88 234.51,-152.65 66.25,-297.53 -111.34,-95.87 -303.22,-258.95 -413.49,-334.99 -110.26,-76.04 -138.93,-65 -276.73,1.11 -107.88,51.76 -290.16,137.01 -479.47,229.87z"/>
  <path class="fil0 str0" d="M10110.83 25152.63c61.8,-118.36 216.97,-296.4 72.04,-181.49 -44.26,35.1 -138.1,129.63 -54.88,-44.2 28.79,-60.12 75.96,-141.01 127.77,-200.67 63.67,-73.35 338.75,-259.37 -54.07,-120.88 -53.37,18.81 -80.43,31.21 -49.25,-14.05 261.26,-379.31 1513.21,-1039.36 1144.32,-894.59 -71.52,28.07 -194.17,81.3 -268.34,103.88 -74.17,22.57 -99.88,14.51 -139.71,27.12 -56.9,18.01 -248.83,142.69 -208.81,72.17 20.26,-35.71 101.44,-121.43 164.04,-172.77 65.01,-53.31 199.05,-107.87 52.03,-95.44 -50.63,4.27 -127.91,20.1 -183.51,32.55 -55.6,12.47 -89.53,21.57 -59.4,-10.46 112.97,-120.14 374.52,-250.65 564.41,-254.65 112.02,-2.36 171.99,-25.08 228.17,21.17 16.5,13.58 1071.9,-2641.1 2574.29,-3563.5 -89.54,14.62 -192.77,31.91 -306.44,51.71 -43.36,84.31 -114.24,102.4 -177.02,31.43 -944.38,170.88 -2406.73,487.22 -2924.58,896.97 -149.63,118.4 -240.39,259.73 -325.64,426.71 244.77,-94.44 325.82,-165.74 557.22,-73.22 124.03,49.59 294.91,146.57 382.55,238.03 116.09,121.14 135.92,328.8 1.57,410.29 -65.13,39.5 -181.99,70.35 -239.32,87.43 -57.32,17.08 -55.12,20.38 2.21,88.71 57.33,68.32 169.77,201.65 219.93,375.22 71.79,248.41 32.64,687.3 -144.97,857.31 -106.38,101.83 -251.74,117.23 -367.66,126.73 -70.92,5.81 -234.08,84.47 -305.37,119.01 -118.48,57.38 -262.49,189.9 -439.32,170.25 -127.04,-14.11 -111.27,-58.48 -173.64,3.86 -104.43,104.39 -100.63,94.97 -225.27,164 -122.37,67.77 -362.7,198.9 -514.29,276.59 -151.58,77.68 -214.42,101.93 -281.67,94.22 -195.97,-22.49 -286.19,-280.89 -364.35,-423.16 -36.93,-67.22 -52.38,-67.22 -176.95,-26.24 -52.1,17.14 -128.73,46.31 -211.04,74.78 649.93,514.07 1352.24,959.47 2104.95,1325.18z"/>
  <path class="fil0 str0" d="M10552.09 25356.16c150.13,65.12 210.01,92.13 363.4,150.96 -184.12,-226.13 132.99,-882.32 18.84,-715.22 -96.39,141.1 -251.46,440.84 -382.24,564.26z"/>
  <path class="fil0 str0" d="M16954.08 25041.32c364.12,340.04 623.36,660.79 1089.87,897.83 -2151.51,557.77 -4381.21,501.6 -6477.89,-197.36 276.17,-69.05 388.93,-452.53 466,-703.8 204.05,25.19 524.9,-68.03 1031.54,65.53 107.06,28.22 -467.42,166.76 -526.14,174.41 -198.97,25.93 -350.14,31.9 -438.88,88.63 -88.73,56.72 -63.71,157.8 31.53,257.47 328.88,344.19 1092.21,294.19 1705.45,209.61 507.14,-69.95 1135.3,-201.52 1675.9,-345.46 513.26,-136.67 907.88,-271.46 1442.62,-446.86z"/>
  <path class="fil0 str0" d="M18398.77 25840.75c36.24,-10.67 112.06,-33.75 148.15,-44.77 -402.44,-167.27 -662.72,-346.18 -984.03,-632.82 -75.64,-67.48 -250.94,-303.98 -281.47,-172.66 -5.06,21.75 33.81,58.39 126.31,155.23 295.43,309.27 576.47,507.28 991.04,695.02z"/>
  <path class="fil0 str0" d="M18885.49 25685.36c-8.49,-93.83 113.39,-180.58 31.43,-336.29 -40.42,-76.8 -101.19,-140.69 -88.68,-241.08 8.31,-66.74 82.68,-158.51 -48.96,-233.36 -55.68,-31.65 -108.2,-42.5 -224.88,-101.04 -79.84,-40.05 -183.48,-102.53 -283.67,-161.58 235.09,-77.98 415.05,-139.6 619.65,-213.34 485.29,-174.91 841.45,-329.12 1179.45,-567.78 160.8,12 329.49,28.85 532.51,66.6 263.51,49 584.89,133.29 805.03,156 625.38,64.5 344.04,-347.88 338.72,-489.92 -5.24,-139.93 31.48,-209.35 -107.76,-320.88 -124.35,-99.6 -78.23,-60.32 -137.77,-191.3 -75.71,-166.59 -76.27,-161.78 -163.51,-215.36 -31.32,-19.24 -74.8,-74.41 -115.75,-109.6l55.9 -60.49c169.21,47.63 604.19,207.54 755.1,92.33 145.02,-110.71 -266.96,-359.19 -320.42,-514.27 192.82,-161.15 325.72,-213.11 632.98,-244.39 266.7,-27.15 632.16,-8.86 1024.87,106.57 162.49,47.76 304.67,141.22 480.81,204.77 -1318.6,1537.14 -3008.78,2702.05 -4965.05,3374.41z"/>
  <path class="fil0 str0" d="M24007.27 22125.56c17.13,-20.69 34.19,-41.45 51.16,-62.26 -153.03,-49.22 -287.84,-101.25 -378.59,-136.88 -134,-52.62 -218.19,-97.64 -274.23,-47.59 -7.66,6.84 5.44,4.61 110.27,50.87 96.27,42.47 269.89,125.84 491.39,195.86z"/>
  <path class="fil0 str0" d="M24289.58 21770.47c-14.83,19.42 -29.73,38.81 -44.69,58.15 -26.75,-4.2 -53.37,-8.34 -79.72,-12.34 -125.84,-19.11 -696.66,-83.3 -613.06,-131.47 31.21,-17.98 597.16,67.12 737.47,85.66z"/>
  <path class="fil0 str0" d="M24453.73 21550.05c13.19,-18.16 26.34,-36.36 39.42,-54.6l-755.16 14.41c-178.9,8.78 -234.02,25.38 -111.69,35.49 162.34,13.41 585.27,14.85 827.43,4.7z"/>
  <path class="fil0 str0" d="M23409.73 6813.65c-109.77,37.74 -149.78,6.09 -163.77,-67.74 -9.38,-49.54 -36.64,-50.32 -11.2,-43.22 21.79,6.1 52.58,17.44 86.55,20.55 29.64,29.98 59.11,60.13 88.42,90.41z"/>
  <path class="fil0 str0" d="M6483.54 7237.8c112.72,21.04 3.27,73.84 19.54,86.71 12.21,9.66 69.18,13.72 109.37,23.38 40.18,9.66 63.57,24.91 85.95,33.05 22.38,8.13 43.74,9.15 35.61,17.28 -8.14,8.14 -45.78,23.39 -93.09,24.41 -100.33,2.16 -175.8,-42.11 -254.92,-71.93 32.27,-37.83 64.79,-75.48 97.54,-112.9z"/>
  <path class="fil0 str0" d="M6151.65 7634.55c50.97,23.72 145.42,-26.71 159.68,-17.71 15.6,9.85 -34.91,98.98 46.28,96.61 45.73,-1.34 189.15,-57.08 246.7,-15.25 36.97,26.87 -57.53,91.1 -136.32,86.42 -64.6,-3.83 -105.56,-30.48 -124.39,14.39 -10.19,24.31 6.69,76.86 -104.48,44.9 -239.38,-68.8 -156.41,-15.01 -250.88,0 53.67,-70.42 108.16,-140.22 163.41,-209.36z"/>
  <path class="fil0 str0" d="M5920.83 7933.26c37.18,15.29 78.27,21.52 91.41,33.38 31.39,28.35 -70.87,57.75 99.18,70.68 185.71,14.12 77.95,32.79 95.63,61.51 8.13,13.23 54.93,20.34 71.72,34.08 16.78,13.72 3.56,34.05 -43.74,31.01 -102.65,-6.62 -379.29,-133.92 -253.82,21.35 26.62,32.93 97.4,92.44 -33.57,48.81 -59.08,-19.68 -127.88,-60.64 -125.13,-12.71 1.02,17.79 10.17,45.25 -46.79,52.88 -25.69,3.44 -64.82,2.84 -101.68,2.37 80.2,-116.01 162.48,-230.49 246.79,-343.36z"/>
  <path class="fil0 str0" d="M4166.86 18247.4c-437,-1392.74 -607.52,-2877.86 -488.1,-4372.32l22926.08 0c119.47,1494.32 -51.18,2979.73 -488.11,4372.32l-21949.87 0z"/>
  <path class="fil0 str0" d="M16508.05 18797.98l-12152.88 0c113.68,306.61 240.09,607.05 378.55,900.67 1410.69,-175.71 2758.71,-343.73 3491.37,-435.97 815.79,-102.72 868.71,-111.54 906.19,-98.32 37.49,13.23 59.54,48.48 88.2,63.91 28.67,15.43 63.94,11.02 443.18,-35.26 379.24,-46.28 1102.43,-134.44 1481.67,-180.72 536.98,-65.53 405.67,-63.92 549,123.43 28.67,37.46 50.72,41.87 105.84,30.85 100.31,-20.05 235.92,-79.09 286.63,-39.67 95.59,74.32 23.83,82.2 416.72,28.65 291.05,-39.68 842.27,-119.01 1122.28,-147.66 280.02,-28.65 286.86,-11.28 295.68,10.76 151.57,6.15 708.78,-59.3 888.89,-77.99 159.3,-16.53 170.33,-16.54 195.68,-21.49 200.68,-39.24 134.46,-33.77 184.22,10.83 11.57,10.37 15.89,5.11 298.09,-24.53 352.87,-37.07 684.71,-59.57 1020.69,-107.49z"/>
  <path class="fil0 str0" d="M18860.52 18973.23c312.12,-43.39 629.6,-95.37 933.79,-175.25l-592.48 0c-81.77,43.95 -270.08,67.57 -361.01,79.83 8.87,29.29 15.63,61.42 19.7,95.42z"/>
  <path class="fil0 str0" d="M18823.49 19240.63c-41.57,75.78 -106.92,87.18 -163.24,21.69 -531.18,69.35 -1066.17,128.76 -1600.07,189.62 -16.29,17.15 -34.97,27.46 -55.31,29.02 -18.57,1.44 -36.93,-4.48 -54.26,-16.51 -156.5,17.91 -312.88,36.05 -469.01,54.65 553.71,20.75 1107.14,42.28 1661.21,55.09 20.58,-7.66 404.12,-403.62 458.51,-190.16 21.48,84.31 -13.38,153.89 56.86,199.43 590.94,7.32 1358.64,6.06 1936.84,-57.86 283.97,-31.4 773.86,-106.39 1003.23,-296.09 254.65,-210.6 -29.05,-422.64 -60.82,-431.53l-918.48 0 -562.44 195.43c-396.5,122.62 -819.55,191.08 -1233.02,247.22z"/>
  <path class="fil0 str0" d="M18889.32 19845.51c116.01,222.91 291.21,86.93 344.53,238.3 15.08,42.81 40.06,111.6 65.33,148.02 41.01,59.06 166.07,99.67 150.86,210.85 321.23,-15.68 544.52,-25.28 677.24,-14.36 141.49,11.65 167.92,-43.89 332.52,-241.6 63.45,-76.21 165.51,-156.5 220.97,-170.63 87.74,-22.34 65.45,135.92 154.02,301.18 74.72,139.42 119.68,118.04 309.97,100.19 185.81,-17.45 542.23,-53.71 730.44,-72.58 188.2,-18.87 208.19,-20.34 260.41,-248.83 86.68,-379.23 171.15,-864.84 489.75,-1298.07l-730.71 0c130.3,227.81 69.66,466.1 -130.65,631.77 -456.27,377.35 -1605.71,401.05 -2194.95,412.05 -226.46,4.23 -453.12,5.09 -679.73,3.71z"/>
  <path class="fil0 str0" d="M23004.79 18797.98l100.2 0c-311.18,445.64 -488.22,924.29 -640.07,1404.31 -46.34,146.49 -56.11,167.28 -74.08,170.5 -17.97,3.19 -44.14,-11.2 -12.97,-159.07 85.82,-407.16 369.1,-1033.11 626.92,-1415.74z"/>
  <path class="fil0 str0" d="M24646.52 21276.37c-217.29,-140.38 -149.41,-298.89 -293.39,-377.1 -136.44,-74.12 -189.94,-37.11 -205.43,-310.8 -4.17,-73.74 6.31,-183.61 -29.27,-257.55 -35.58,-73.93 -90.79,-178.09 -118.76,-285.19 -49.37,-189.07 86.46,-281.13 -11.49,-467.56 -29.2,-55.58 -187.29,-107.93 -192.86,-166.51 -5.57,-58.57 56.67,-242.4 37.06,-321.27 -24.21,-97.32 -119.16,-128.2 -176.74,-292.41l2272.78 0c-327.13,882.29 -759.52,1713.5 -1281.9,2478.39z"/>
  <path class="fil0 str0" d="M23694.51 7118.86c1521.5,1690.82 2548.42,3835.24 2853,6205.64l-3109.13 0c7.22,-494.93 -66.33,-396.37 237.89,-195.27 66,43.63 204.56,81.97 196.34,45.75 -5.08,-22.36 -46.79,-75.23 0.51,-81.33 47.31,-6.1 183.61,34.56 246.68,38.12 63.07,3.55 52.91,-30.01 71.73,-47.29 59.68,-54.81 233.39,64.23 269.07,63.55 26.46,-0.5 15.27,-43.19 40.2,-67.6 24.92,-24.4 85.95,-30.5 111.38,-43.74 25.43,-13.22 15.26,-33.56 38.66,-25.43 29.96,10.43 173.84,104.93 228.88,81.35 14.25,-6.1 4.08,-21.35 24.93,-20.33 20.85,1.01 72.73,18.3 92.57,12.71 28.04,-7.91 -15.7,-95.29 78.34,-104.23 32.04,-3.05 70.7,10.16 95.63,9.14 28.86,-1.18 33.29,-23.68 108.33,-53.37 166.27,-65.81 -194.84,-101.62 -213.12,-106.27 -27.97,-7.11 -34.08,-20.33 -65.61,-23.89 -7.47,-0.84 -196.28,9.62 -145.48,-28.46 14.24,-10.68 49.85,-18.83 66.12,-34.58 16.28,-15.76 13.23,-39.15 38.16,-52.37 24.92,-13.21 77.82,-16.27 91.55,-27.46 13.73,-11.18 -11.7,-30.5 -6.11,-44.75 5.59,-14.23 42.22,-23.39 56.46,-42.7 14.25,-19.32 6.11,-48.81 27.48,-68.13 28.34,-25.63 188.79,-52.5 158.19,-77.77 -11.7,-9.67 -58.5,-13.75 -59.51,-25.43 -1.02,-11.71 43.74,-31.02 36.11,-44.74 -7.64,-13.74 -67.65,-21.86 -71.21,-36.61 -5.15,-21.32 174.6,-87.1 127.67,-109.31 -38.33,-18.14 -154.41,10.45 -164.81,-43.22 -3.05,-15.76 1.02,-35.09 -17.8,-42.2 -71.11,-26.89 -161.67,80.92 -247.71,104.73 -229.57,63.54 -684.4,-187.11 -650.56,-206.42 24.02,-13.7 141.76,38.48 152.6,17.79 18,-34.33 -38.67,-66.95 107.83,-18.81 121.25,39.85 76.09,-12.76 113.42,-44.74 102.8,-88.06 306.67,114.64 247.72,-22.88 -10.68,-24.92 -24.92,-46.27 18.31,-61.01 92.43,-31.53 362.66,-22.06 339.77,-51.35 -12.71,-16.27 -92.06,-46.78 -78.33,-66.61 13.74,-19.83 120.56,-28.98 171.93,-46.78 51.37,-17.79 47.3,-44.22 25.43,-55.92 -21.88,-11.68 -61.55,-8.64 -66.63,-18.81 -12.3,-24.59 92.74,-58.78 -184.13,-48.3 -225.15,8.53 -117.95,-39.36 -189.73,-55.92 -68.47,-15.79 -166.76,35.05 -299.59,3.05l-356.05 -112.87c-50.87,-23.9 -107.84,-61.53 -95.12,-68.64 12.71,-7.12 95.11,16.26 215.66,26.94 106,9.39 476.98,17.07 534.59,-36.1 13.22,-12.2 -2.04,-21.35 20.34,-30 21.33,-8.23 182.9,-29.83 160.24,-71.69 -18.09,-33.4 -67.84,-14.64 139.87,-43.72 148.61,-20.81 26.43,-34.1 8.14,-69.15 -12.21,-23.39 7.12,-59.99 46.79,-83.37 39.68,-23.39 99.7,-33.57 122.08,-47.8 22.38,-14.23 7.12,-32.53 -66.63,-37.1 -73.76,-4.59 -206,4.56 -270.6,-7.13 -64.6,-11.7 -61.56,-44.23 -88,-56.95 -43.97,-21.14 -308.21,28.09 -394.21,-55.41 -65.41,-63.51 142.06,-41.3 177.52,-40.67 173.84,3.1 113.37,-51.67 126.15,-79.32 6.11,-13.22 32.55,-11.18 47.81,-18.3 15.26,-7.13 19.34,-23.39 37.65,-34.58 18.31,-11.19 50.86,-17.3 61.54,-30 10.68,-12.71 -0.51,-32.03 17.3,-45.24 17.8,-13.23 64.59,-20.34 91.04,-33.57 26.45,-13.21 32.56,-32.52 10.18,-40.15 -30.88,-10.53 -198.9,3.34 -260.94,-22.37 -20,-8.29 5.12,-48.93 -111.39,-28.48 -60.6,10.64 -147.46,58.09 -243.65,10.68 -37.13,-18.31 -59.51,-49.82 -81.9,-66.6 -22.38,-16.79 -44.75,-18.82 -55.94,-30.51 -11.19,-11.7 -11.19,-33.06 12.72,-39.16 60.05,-15.34 311.81,86.37 328.07,25.44 4.07,-15.26 -18.31,-38.65 -14.24,-47.29 5.15,-10.95 120.71,6.23 136.82,-56.94 10.76,-42.16 -50.15,-108.41 5.6,-151.02 17.3,-13.22 41.71,-18.3 44.76,-30.5 3.05,-12.21 -15.25,-31.53 -48.83,-33.56 -47.47,-2.87 -313.79,79.22 -429.3,37.63 -85.83,-30.9 86.59,-52.15 96.64,-57.45 29.42,-15.52 -46.21,-45.98 13.74,-57.96 62.56,-12.51 59.49,4.43 98.68,-57.96 68.34,-108.8 -24.89,-49.36 -303.16,-56.44 -79.86,-2.03 -179.55,-8.13 -240.59,-25.17 -61.04,-17.04 -83.42,-45.02 -63.58,-59.02 36,-25.38 187.87,-3.66 259.41,-23.39 83.8,-23.1 71.37,-61.46 0.01,-96.29 -51.12,-24.96 -3.15,-10.15 125.63,-31.03 89.65,-14.53 19.28,-53.83 36.61,-79.81 8.84,-13.26 138.8,-11.67 169.39,-52.88 11.69,-15.77 -11.71,-31.02 -13.23,-43.22 -1.53,-12.2 18.83,-21.35 12.22,-40.68 -6.62,-19.32 -40.19,-48.8 -78.85,-62.53 -65.98,-23.42 -195.23,-0.72 -206.51,-24.4 -5.08,-10.68 22.39,-30 16.28,-41.7 -19.03,-36.44 -190.65,17.83 -232.45,22.38 -53.52,5.83 -403.58,-13.62 -442.02,-45.26 -17.29,-14.23 20.35,-31.52 28.49,-50.33 8.13,-18.81 -13.23,-39.15 17.79,-45.25 42.26,-8.3 284.06,16.6 384.04,-12.71 29.5,-8.65 10.17,-18.81 23.9,-21.35 17.47,-3.23 197.46,14.74 207.53,-13.22 4.58,-12.71 -34.08,-34.07 -33.56,-49.83 0.74,-22.88 107.67,-41.06 111.38,-98.63 1.01,-15.77 -12.21,-23.89 8.14,-38.64 33.01,-23.92 171.92,-70.21 102.75,-85.42 -25.43,-5.6 -76.29,-5.6 -102.74,-14.74 -43.18,-14.94 -32.2,-80.3 -96.65,-87.45 -46,-5.11 -168.23,51.17 -216.18,29.99 -37.03,-16.35 1.99,-91.6 -86.97,-70.67 -84.95,19.99 -149.72,68.59 -279.25,19.84 -39.17,-14.75 -64.6,-34.07 -104.27,-46.26 -116.68,-35.88 -109.6,1.24 -193.8,-82.89 -43.94,-43.9 -59,-42.69 85.45,-48.3 141.66,-5.5 142.01,-13.8 258.4,31.53 39.16,15.25 92.06,32.53 127.67,33.55 35.6,1.01 53.91,-14.24 50.35,-28.98 -3.56,-14.75 -29,-28.98 -3.56,-36.1 33.27,-9.3 225.54,-1.84 162.77,-71.19 -43.7,-48.29 -121.3,-61.54 24.93,-65.07 159.93,-3.86 80.63,-37.31 113.93,-62.53 16.78,-12.72 65.61,-15.76 95.12,-27.97 29.5,-12.2 39.68,-33.55 19.85,-43.73 -33.8,-17.32 -139.9,0.29 -148.54,-54.91 -2.55,-16.26 5.59,-33.54 -12.21,-28.97 -7.01,1.8 -153.48,79.98 -160.22,24.41 -2.04,-16.79 20.34,-42.22 3.56,-49.84 -16.79,-7.63 -72.74,2.55 -110.38,23.9 -83.15,47.17 -47.34,94.09 -218.22,54.4 -248.21,-57.64 -392.24,-172.43 -210.06,-143.37 70.68,11.27 182.39,60.38 217.7,18.3 18.09,-21.57 11.11,-84.06 164.8,-40.16 35.61,10.16 49.85,21.35 68.16,20.33 71.25,-3.95 21.5,-66.61 30.52,-70.67 13.47,-6.06 152.96,27.68 172.43,-8.65 7.63,-14.23 -12.72,-37.62 -2.55,-52.88 10.48,-15.72 116.12,-54.09 91.55,-99.13 -9.15,-16.77 -58.5,-23.91 -91.05,-32.54 -64.53,-17.12 -81.76,-51.11 -161.74,-43.22 -110.46,10.91 -88.34,51.61 -142.93,-12.71 -43.3,-51.01 -121.35,-61.63 -176.49,-42.72 -92.58,31.76 -120.27,79.21 -197.36,25.43 -26.96,-18.81 -60.53,-45.25 -99.18,-63.04 -38.66,-17.8 -82.41,-26.96 -85.97,-42.21 -3.55,-15.25 33.06,-36.59 69.18,-32.02 48.97,6.2 123.32,84.33 129.19,12.21 1.53,-18.82 -5.59,-39.16 16.28,-33.57 22.5,5.76 166.05,92.04 208.55,56.95 11.7,-9.66 -1.52,-27.97 12.21,-33.05 17.49,-6.45 94.43,18.65 184.24,-47.29 104.18,-76.48 -10.15,-63.59 -21.86,-70.16 -20.85,-11.67 -32.96,-48.32 -57.87,-63.04 -44.93,-26.57 -63.1,16.04 -112.15,-49.32 -56.11,-74.78 -117.41,-42.55 -164.8,-70.68 -36.82,-21.85 232.36,-110.59 76.3,-131.68 -37.64,-5.09 -95.63,-5.09 -124.62,-17.79 -29,-12.72 -29,-38.13 -4.07,-46.77 36.92,-12.81 95.91,9.5 172.37,-26.68z"/>
  <path class="fil0 str0" d="M5595.9 8391.13c77.29,38.53 237.05,26.41 289.18,66.16 30,22.87 30.01,38.12 51.88,44.22 21.87,6.11 65.62,3.05 88.5,-8.64 22.89,-11.7 24.93,-32.03 46.29,-14.75 21.36,17.29 62.05,72.2 103.25,109.82 41.2,37.62 82.91,57.97 99.19,86.95 16.27,28.98 7.12,66.59 -33.57,83.89 -49.27,20.93 -295.36,18.24 -356.56,8.13 -55.44,-9.15 -108.35,-30.5 -121.06,-26.44 -23.31,7.46 70.8,71.46 -48.32,84.91 -31.54,3.56 -65.11,1.53 -63.58,18.82 1.53,17.28 38.15,53.9 77.32,71.69 39.16,17.8 80.87,16.77 87.99,28.47 14.81,24.33 -80.16,61.97 69.68,85.42 42.21,6.6 89.01,10.66 115.97,27.45 52.16,32.46 29.17,91.56 -143.44,62.53 -53.64,-9.02 -176.05,-55.73 -179.55,15.76 -1.02,20.85 15.26,44.24 -3.05,50.85 -18.31,6.61 -71.21,-3.57 -91.56,6.1 -20.34,9.65 -8.14,39.14 27.47,56.94 35.61,17.79 94.61,23.89 123.09,39.66 52.58,29.09 -4.2,69.42 124.11,95.06 168.74,33.72 200.72,-49.65 237.03,-39.14 28.07,8.13 34.66,145.54 -82.9,186.1 -57.48,19.82 -148.03,22.87 -209.57,28.97 -32.07,3.18 -222.81,34.22 -214.65,48.31 5.6,9.65 63.58,21.85 60.02,30.49 -9.41,22.85 -395.89,21.82 -125.64,129.36 32.56,12.95 39.68,12.95 40.19,26.94 0.51,14 -5.6,41.98 13.73,59.02 19.33,17.04 64.09,23.14 82.91,35.33 19.46,12.62 9.84,69.51 228.89,43.23 138.44,-16.6 154.41,-48.3 352.5,-48.3 185.45,0 -43.76,77.28 -111.4,96.6 -123.29,35.22 -255.1,37.45 -156.15,63.56 3.94,1.04 287.39,64.41 182.09,100.65 -106.98,36.83 -531.87,11.74 -689.21,21.36 -124.63,7.63 -239.58,30 -269.08,48.3 -51.06,31.67 153.63,49.86 115.97,92.53 -15.26,17.29 -70.2,37.63 -73.76,61.01 -11.75,77.28 377.54,73.56 421.16,80.34 85.14,13.22 -74.57,73.04 76.82,89.99 59,6.61 160.73,0.51 197.35,4.07 36.63,3.56 8.14,16.77 36.63,27.45 28.48,10.67 113.93,18.82 149.02,39.15 35.1,20.33 19.84,52.88 -45.26,77.29 -65.11,24.4 -180.07,40.67 -269.07,37.11 -113.35,-4.53 -267.52,-69.83 -292.98,-24.91 -8.65,15.25 8.63,40.67 -33.58,41.18 -42.22,0.51 -143.95,-23.9 -156.15,-17.79 -12.21,6.1 65.11,42.72 73.76,73.73 8.65,31.02 -51.39,56.43 -74.78,85.41 -23.4,28.97 -10.19,61.51 -11.2,89.47 -1.02,27.96 -16.27,51.35 27.47,75.76 43.74,24.4 146.5,49.82 202.96,56.43 98.75,11.57 78.93,-48.94 148.01,-25.92 42.38,14.12 165.94,99.52 32.04,132.7 -149.26,36.98 -500.94,4.36 -570.99,30.5 -42.22,15.77 -0.87,52.37 34.56,69.65 35.42,17.3 64.91,15.26 44.24,24.91 -20.67,9.67 -91.51,31.02 -126.93,58.98 -35.43,27.97 -35.43,62.54 23.9,77.28 70.84,17.61 365.84,-0.5 280.37,63.57 -57.61,43.17 -154.54,48.33 84.44,86.42 255.28,40.69 112.82,35.42 128.19,58.48 10.23,15.35 186.56,49 -186.68,74.73 -132.77,9.16 -310.79,13.23 -359.62,27.46 -48.84,14.23 31.53,38.63 57.47,62.53 25.94,23.9 -2.54,47.28 27.98,58.47 30.52,11.18 120.05,10.17 155.65,17.8 35.6,7.63 17.29,23.89 35.1,34.06 17.8,10.17 71.72,14.24 107.33,27.46 35.6,13.22 52.89,35.59 17.28,43.72 -56.31,12.87 -279.34,-11.51 -404.37,61.52 -39.17,22.88 -41.2,47.28 -65.11,63.04 -23.91,15.76 -69.68,22.89 -35.09,33.56 34.58,10.69 149.54,24.91 179.22,40.17 48.63,25 -173.65,71.77 -83.42,107.28 37.46,14.74 132.07,21.86 158.01,35.08 25.94,13.22 -16.79,32.54 -26.96,50.84 -10.17,18.3 12.2,35.6 61.03,27.97 48.84,-7.63 124.11,-40.17 158.71,-39.15 34.59,1.02 28.48,35.59 47.81,32.53 19.33,-3.05 64.09,-43.72 104.78,-45.24 45.57,-1.71 183.93,103.41 -45.59,115.92 -102.56,5.59 -279.22,-1.53 -381.45,6.1 -102.24,7.63 -130.08,30 -115.5,48.81 14.57,18.81 71.53,34.06 62.89,54.9 -8.65,20.86 -82.91,47.29 -115.47,76.28 -32.55,28.98 -23.4,60.49 10.18,74.73 33.57,14.23 91.55,11.18 109.54,23.39 25.55,17.33 -51.79,102.92 101.22,77.79 58.82,-9.66 142.25,-39.15 213.97,-45.76 71.71,-6.6 131.73,9.66 115.96,21.35 -11.01,8.17 -279.97,39.5 -199.39,88.48 25.93,15.76 91.05,23.89 105.29,45.24 14.24,21.35 -22.38,55.92 -7.12,71.69 15.26,15.75 82.4,12.71 110.89,23.39 42.73,16.01 -4.07,107.94 125.63,75.24 58.49,-14.74 145.98,-59.48 193.79,-64.06 73.41,-7.02 77.36,122.22 148.02,99.15 24.93,-8.14 45.27,-44.75 56.46,-46.27 11.2,-1.53 13.23,32.02 38.66,43.72 90.8,41.75 196.26,-139.42 222.79,-157.1 50.33,-33.54 12.17,88.66 139.37,-53.9 136.9,-153.43 84.12,-19.51 123.08,-7.62 38.83,11.86 118.51,-139.35 150.57,-148.97 20.35,-6.11 43.74,13.21 55.44,44.23 32.61,86.44 -103.92,330.81 -157.86,464.24l-2894.48 0c235.89,-1835.7 863.3,-3474.46 1859.81,-4933.37z"/>
  <path class="fil0 str0" d="M12829.51 24324.59c73.25,18.62 200.61,43.29 349.58,28.48 148.96,-14.8 319.54,-69.09 422.11,-126.34 120.23,-67.11 195.42,-193.5 105.25,-138.38 -105.64,64.57 15.45,-92.69 -169.78,-207.97 -158.29,-98.51 -410.84,-87.88 -513.55,44.37 -57.01,73.4 -69.39,113.05 -63.78,163.87 12.76,115.48 10.5,13.36 69.63,-78.77 90.03,-140.29 306.99,-142.73 414.29,-67.68 149.14,104.32 50.98,279.91 -3.47,284.89 -31.31,2.86 26.74,-101.94 -54.77,-165.87 -77.91,-61.08 -281.13,-7.84 -232.65,143.95 24.07,75.3 81.58,72.99 -4.82,78.76 -133.75,8.93 -199.35,14.89 -336.26,4.22 -110.66,-8.63 -82.42,10.93 18.22,36.47z"/>
  <path class="fil0 str0" d="M14449.88 22665.97c584.41,18.15 1093.83,165.78 1123.86,827.51 12.5,275.24 -92.93,481.14 -185.39,686.16 -26.45,58.67 -27.81,72.58 7.87,33.07 153.44,-169.83 287.5,-453.24 289.91,-739.98 6.32,-750.79 -705.45,-961.07 -1393.98,-894.91 -135.16,12.97 -148.23,73.78 -115.24,87.23 32.98,13.48 114.64,-4 272.97,0.92z"/>
  <path class="fil0 str0" d="M15859.18 21547.75c-120.43,43.07 -186.88,86.67 -92.38,181.45 41.36,41.48 107.58,91.06 158.24,94.15 99.05,6.05 168.13,-197.37 158.14,-252.1 -15.08,-82.66 -163.4,-45.13 -224,-23.5z"/>
  <path class="fil0 str0" d="M15827 22656.3c-66.88,185.24 99.6,293.72 177.53,229.9 116.47,-95.4 -21.22,-239.76 -133.53,-259.35 -21.77,-3.78 -32.73,-1.79 -44,29.45z"/>
  <path class="fil0 str0" d="M15456.24 22156.62c-106.68,47.01 -70.71,110.01 -6.46,143.41 132.83,69.02 213.78,-234.91 6.46,-143.41z"/>
  <path class="fil0 str0" d="M16478.18 21276c-12.24,74.29 80.91,209.7 159.05,156.9 52.06,-35.18 73.12,-151.98 -78.34,-187.06 -42.19,-9.76 -75.13,-3.76 -80.71,30.16z"/>
  <path class="fil0 str0" d="M17175.19 21058.77c11.14,27.15 30.99,68.24 76.75,78.65 102.65,23.38 245,-80.39 133.94,-120.64 -46.98,-17.03 -136.81,-14.32 -180.52,-6.35 -43.71,7.97 -41.3,21.17 -30.17,48.34z"/>
  <path class="fil0 str0" d="M16974.66 21619.14c5.8,50.7 14.87,137.95 57.96,174.57 43.06,36.59 120.19,22.55 153.77,-11.76 33.59,-34.28 23.64,-88.81 13.48,-144.54 -10.17,-55.75 -20.56,-112.7 -59.97,-129.1 -39.38,-16.39 -107.8,7.76 -140.69,26.89 -32.93,19.14 -30.35,33.26 -24.55,83.94z"/>
  <path class="fil0 str0" d="M16362.6 21984.37c-13.16,116.07 61.55,120.14 108.03,89.3 59.82,-39.73 60.48,-157.01 25.87,-200.15 -44.15,-55.01 -119.27,-18.33 -133.9,110.85z"/>
  <path class="fil0 str0" d="M21719.52 20507.41c-90.54,-11.57 -184.12,84.47 -104.76,126.83 50.94,27.17 180.97,0.2 178.85,-57.76 -1.03,-27.85 -31.05,-63.56 -74.09,-69.07z"/>
  <path class="fil0 str0" d="M22131.39 20728.48c-59.01,95.84 -11.11,208.39 75.15,168.92 90.4,-41.36 92.63,-205.5 36.04,-231.14 -31.79,-14.39 -83.16,16.68 -111.19,62.22z"/>
  <path class="fil0 str0" d="M21585.84 21027.98c-1.05,46.11 62.42,173.3 121.71,97.14 44.91,-57.71 42.67,-143.11 -60.97,-142.5 -33.06,0.19 -59.98,13.01 -60.74,45.36z"/>
  <path class="fil0 str0" d="M16383.29 22438.39c-7.05,90.51 46.25,258.42 167.6,160.9 82.14,-66.01 180.92,-266.62 -108.76,-213.8 -34.04,6.21 -55.54,10.12 -58.84,52.9z"/>
  <path class="fil0 str0" d="M14729.24 22176.1c-69.49,76.42 81.32,135.77 141.54,95.67 35.91,-23.92 37.75,-85 21.72,-112.45 -24.93,-42.64 -141.1,-7.62 -163.26,16.78z"/>
  <path class="fil0 str0" d="M15080.25 23251.52c8.46,113.74 107,175.73 131,52.11 16.51,-85.05 -28.66,-223.45 -87.4,-176.44 -24.49,19.6 -47.53,71.43 -43.6,124.33z"/>
  <path class="fil0 str0" d="M14489.02 22948.61c-24.05,102.26 75.1,129.23 113.88,86.51 39.54,-43.62 14.17,-156.43 -65.19,-140.14 -24.43,5.02 -41.75,24.09 -48.69,53.63z"/>
  <path class="fil0 str0" d="M13511.82 23331.44c-18.47,70.49 66.67,131.03 118.33,78.85 47.14,-47.63 33.72,-155.2 -49.88,-139.96 -30.5,5.58 -60.39,30.42 -68.45,61.11z"/>
  <path class="fil0 str0" d="M13890.85 22891.66c-96.46,247.77 206.68,157.25 149.42,9.91 -14.29,-36.82 -106.68,-119.77 -149.42,-9.91z"/>
  <path class="fil0 str0" d="M14048.58 23663.45c5.4,36.9 37.38,85.27 65.48,86.76 28.09,1.5 52.26,-43.92 46.85,-80.78 -11.45,-78.1 -125.36,-94.69 -112.33,-5.98z"/>
  <path class="fil0 str0" d="M21096.96 20819.68c31.27,43.26 95.51,97.77 136.26,93.27 60.57,-6.71 88.67,-167.07 -34.02,-202.43 -67.99,-19.58 -173.01,11.3 -102.24,109.16z"/>
  <path class="fil0 str0" d="M17724.22 21633.9c39.63,197.97 237.63,14.26 196.56,-70.78 -19.18,-39.7 -132.83,-117.16 -190.22,8.45 -11.16,24.45 -11.75,35.42 -6.34,62.33z"/>
  <path class="fil0 str0" d="M17706.72 22212.04c86.45,136.34 174.18,52.59 178.19,-22.89 9.39,-176.15 -278.27,-134.95 -178.19,22.89z"/>
  <path class="fil0 str0" d="M16985.16 22237.8c144,118.9 259.1,47.39 242.86,-28.26 -29.5,-137.38 -386.8,-90.57 -242.86,28.26z"/>
  <path class="fil0 str0" d="M17922.6 21151.13c75.07,-0.4 209.84,-17.79 266.4,-73.95 93.67,-92.93 -16.44,-312.71 -199.16,-176.7 -64.25,47.85 -118.7,132.84 -138.21,183.64 -19.51,50.8 -4.1,67.41 70.97,67.01z"/>
  <path class="fil0 str0" d="M18454.05 21601.58c52.84,7.69 136.71,-0.44 161.86,-32.8 37.36,-48.11 -58.2,-179.98 -169.03,-116.57 -61.4,35.13 -112.37,131.98 7.17,149.37z"/>
  <path class="fil0 str0" d="M18834.99 20969.84c108.44,10.51 223.51,20.57 146.69,-114.4 -82.77,-145.39 -228.8,55.27 -234.68,70.62 -13.23,34.54 30.91,38.24 87.99,43.78z"/>
  <path class="fil0 str0" d="M19335.65 21106.77c169.78,109.41 175.71,-160.53 86.07,-190.29 -41.85,-13.89 -176.62,13.69 -126.4,142.34 9.79,25.01 17.25,33.08 40.33,47.95z"/>
  <path class="fil0 str0" d="M19581.45 21810.82c158.07,32.93 159.06,-88.33 107.66,-143.77 -119.95,-129.39 -290.69,105.64 -107.66,143.77z"/>
  <path class="fil0 str0" d="M19008.53 21721.42c185.63,-20.48 214.43,-152.86 148.82,-193.89 -119.19,-74.51 -334.4,214.4 -148.82,193.89z"/>
  <path class="fil0 str0" d="M19706.05 20780.39c33.15,82.35 185.65,214.11 209.46,-16.37 13.66,-132.29 -107.38,-116.69 -161.53,-90.86 -40.31,19.22 -68.64,55.75 -47.93,107.23z"/>
  <path class="fil0 str0" d="M20262.14 21190.82c46.26,5.94 123.14,0.91 141.76,-34.66 36.04,-68.77 -119.63,-215.19 -192.94,-140.05 -22.35,22.92 -58.76,160.61 51.18,174.71z"/>
  <path class="fil0 str0" d="M20762.67 21367.4c36.71,-19.19 100.37,-43.33 102.02,-74.46 1.63,-31.14 -58.78,-69.26 -114.92,-65.18 -103.64,7.55 -164.64,130.07 -57.87,165.12 24.3,8 34.07,-6.28 70.77,-25.48z"/>
  <path class="fil0 str0" d="M20590.54 20815.25c33.51,38.98 121.77,97.27 150.44,97.53 44.09,0.4 12.27,-221.27 -67.93,-222 -28.66,-0.26 -116.02,85.5 -82.51,124.47z"/>
  <path class="fil0 str0" d="M19862.02 21406c32.94,27.81 104.95,50.93 125.58,31.82 33.06,-30.61 -61.23,-176.73 -131.91,-111.25 -20.62,19.11 -26.67,51.63 6.33,79.43z"/>
  <path class="fil0 str0" d="M23030.53 6439.32c19.53,55.15 -0.62,85.33 -29.75,51.36 -6.85,-7.99 -87,-152.2 -119.03,-132.19 -30.2,18.86 33.62,106.1 -104.78,39.14 -154.41,-74.68 64.8,177.26 35.1,203.38 -14.72,12.94 -121.64,15.98 -20.86,77.79 67.44,41.36 223.02,-22.66 201.42,35.6 -31.58,85.18 -261.33,-34.83 -231.94,38.63 16.8,41.98 127.63,147.15 99.7,162.19 -53.5,28.81 -203.21,-117.95 -317.9,-119.48 -38.15,-0.52 -57.48,19.82 -42.73,41.69 14.75,21.86 63.58,45.24 71.72,60 8.13,14.73 -24.42,20.84 -45.78,38.12 -21.37,17.29 -31.54,45.76 -11.7,64.57 18.88,17.9 175.09,55.22 117.5,102.71 -25.14,20.73 -148.29,39 -108.34,106.26 23.66,39.83 157.11,12.83 244.15,28.47 114.72,20.62 4.65,74.14 20.85,86.95 12.21,9.66 69.18,13.72 109.37,23.38 40.18,9.66 63.57,24.91 85.95,33.05 22.38,8.13 43.74,9.15 35.61,17.28 -8.14,8.14 -45.78,23.39 -93.09,24.41 -137.41,2.96 -328.65,-127.96 -368.76,-81.86 -10.18,11.69 10.17,37.12 2.54,47.28 -23.88,31.82 -162.51,-60.42 -193.29,-73.2 -39.16,-16.28 -79.85,-20.35 -85.45,-8.65 -5.6,11.68 23.9,39.14 7.12,50.84 -17.59,12.24 -205.27,4.93 -179.04,60.5 23.87,50.58 232.86,63.15 242.12,78.3 5.59,9.14 -57.49,19.32 -82.91,37.12 -25.44,17.79 -13.24,43.21 18.3,51.86 31.54,8.63 82.4,0.51 106.82,7.62 36.87,10.75 12.74,69.13 127.68,41.7 112.13,-26.77 71.64,-32.76 73.24,39.14 2.27,101.8 212.32,-35.2 295.02,24.92 36.97,26.87 -57.52,91.11 -136.32,86.42 -64.61,-3.84 -238.54,-85.04 -257.38,-40.15 -10.21,24.32 73.55,100.08 -37.64,68.12 -116.23,-33.42 -124.71,-58.92 -149.54,4.07 -23.91,60.66 -139.22,2.81 -173.45,28.46 -18.31,13.73 8.13,54.4 49.34,77.79 41.2,23.39 97.15,29.5 112.92,43.73 31.39,28.35 -70.87,57.75 99.18,70.68 185.71,14.12 77.95,32.79 95.63,61.51 8.13,13.23 54.93,20.34 71.72,34.08 16.78,13.72 3.56,34.05 -43.74,31.01 -102.65,-6.62 -379.29,-133.92 -253.82,21.35 26.62,32.93 97.4,92.44 -33.57,48.81 -59.08,-19.68 -127.88,-60.64 -125.13,-12.71 1.02,17.79 10.16,45.25 -46.79,52.88 -139.82,18.71 -363.19,-18.06 -75.93,116.57 73.74,34.56 155.28,43.59 185.29,66.47 30,22.87 30.01,38.12 51.88,44.22 21.87,6.11 65.62,3.05 88.5,-8.64 22.89,-11.7 24.93,-32.03 46.29,-14.75 21.36,17.29 62.05,72.2 103.25,109.82 41.2,37.62 82.91,57.97 99.19,86.95 16.27,28.98 7.12,66.59 -33.57,83.89 -49.27,20.93 -295.36,18.24 -356.56,8.13 -55.44,-9.15 -108.35,-30.5 -121.06,-26.44 -23.31,7.46 70.8,71.46 -48.32,84.91 -31.54,3.56 -65.11,1.53 -63.58,18.82 1.53,17.28 38.15,53.9 77.32,71.69 39.16,17.8 80.87,16.77 87.99,28.47 14.81,24.33 -80.16,61.97 69.68,85.42 42.21,6.6 89.01,10.66 115.97,27.45 52.16,32.46 29.17,91.56 -143.44,62.53 -53.64,-9.02 -176.05,-55.73 -179.55,15.76 -1.02,20.85 15.26,44.24 -3.05,50.85 -18.31,6.61 -71.21,-3.57 -91.56,6.1 -20.34,9.65 -8.14,39.14 27.47,56.94 35.61,17.79 94.61,23.89 123.09,39.66 52.58,29.09 -4.2,69.42 124.11,95.06 168.74,33.72 200.72,-49.65 237.03,-39.14 28.07,8.13 34.66,145.55 -82.9,186.1 -57.47,19.82 -148.04,-16.79 -209.57,-10.71 -32.06,3.17 -269.29,-2.85 -280.79,8.64 -53.3,53.28 129.72,101.21 126.16,109.84 -9.4,22.85 -395.89,21.82 -125.64,129.36 32.56,12.95 39.68,12.95 40.19,26.94 0.51,14 -5.6,41.98 13.73,59.02 19.33,17.04 130.25,-16.53 149.06,-4.34 19.46,12.61 -56.31,109.17 162.74,82.9 138.43,-16.6 154.41,-48.3 352.5,-48.3 185.45,0 -43.76,77.28 -111.4,96.6 -123.29,35.22 -255.1,37.45 -156.15,63.56 3.94,1.04 287.39,64.41 182.09,100.65 -106.98,36.83 -531.87,11.74 -689.21,21.36 -124.63,7.63 -239.58,30 -269.08,48.3 -51.06,31.67 153.63,49.86 115.97,92.53 -15.26,17.29 -70.2,37.63 -73.76,61.01 -11.75,77.28 377.54,73.56 421.16,80.34 85.14,13.22 -74.57,73.04 76.82,89.99 59,6.61 160.73,0.51 197.35,4.07 36.63,3.56 8.14,16.77 36.63,27.45 28.48,10.67 113.93,18.82 149.02,39.15 35.1,20.33 19.84,52.88 -45.26,77.29 -65.11,24.4 -180.07,40.67 -269.07,37.11 -113.35,-4.53 -267.52,-69.83 -292.98,-24.91 -8.65,15.25 8.63,40.67 -33.58,41.18 -42.22,0.51 -143.95,-23.9 -156.15,-17.79 -12.21,6.1 65.11,42.72 73.76,73.73 8.65,31.02 -51.39,56.43 -74.78,85.41 -23.4,28.97 -10.19,61.51 -11.2,89.47 -1.02,27.96 -16.27,51.35 27.47,75.76 43.74,24.4 146.5,49.82 202.96,56.43 98.75,11.57 78.93,-48.94 148.01,-25.92 42.38,14.12 165.94,99.52 32.04,132.7 -149.26,36.98 -500.94,4.36 -570.99,30.5 -42.22,15.77 -0.87,52.37 34.56,69.65 35.42,17.3 64.91,15.26 44.24,24.91 -20.67,9.67 -91.51,31.02 -126.93,58.98 -35.43,27.97 -35.43,62.54 23.9,77.28 70.84,17.61 365.84,-0.5 280.37,63.57 -57.61,43.17 -154.54,48.33 84.44,86.42 255.28,40.69 112.82,35.42 128.19,58.48 10.23,15.35 186.56,49 -186.68,74.73 -132.77,9.16 -310.79,13.23 -359.62,27.46 -48.84,14.23 31.53,38.63 57.47,62.53 25.94,23.9 -2.54,47.28 27.98,58.47 30.52,11.18 120.05,10.17 155.65,17.8 35.6,7.63 17.29,23.89 35.1,34.06 17.8,10.17 71.72,14.24 107.33,27.46 35.6,13.22 52.89,35.59 17.28,43.72 -56.31,12.87 -279.34,-11.51 -404.37,61.52 -39.17,22.88 -41.2,47.28 -65.11,63.04 -23.91,15.76 -69.68,22.89 -35.09,33.56 34.58,10.69 149.54,24.91 179.22,40.17 48.63,25 -173.65,71.77 -83.42,107.28 37.46,14.74 132.07,21.86 158.01,35.08 25.94,13.22 -16.79,32.54 -26.96,50.84 -10.17,18.3 12.2,35.6 61.03,27.97 48.84,-7.63 124.11,-40.17 158.71,-39.15 34.59,1.02 28.48,35.59 47.81,32.53 19.33,-3.05 64.09,-43.72 104.78,-45.24 45.57,-1.71 183.93,103.41 -45.59,115.92 -102.56,5.59 -279.22,-1.53 -381.45,6.1 -102.24,7.63 -130.08,30 -115.5,48.81 14.57,18.81 71.53,34.06 62.89,54.9 -8.65,20.86 -82.91,47.29 -115.47,76.28 -32.55,28.98 -23.4,60.49 10.18,74.73 33.57,14.23 91.55,11.18 109.54,23.39 25.55,17.33 -51.79,102.92 101.22,77.79 58.82,-9.66 142.25,-39.15 213.97,-45.76 71.71,-6.6 131.73,9.66 115.96,21.35 -11.01,8.17 -279.97,39.5 -199.39,88.48 25.93,15.76 91.05,23.89 105.29,45.24 14.24,21.35 -22.38,55.92 -7.12,71.69 15.26,15.75 82.4,12.71 110.89,23.39 42.73,16.01 -4.07,107.94 125.63,75.24 58.49,-14.74 145.98,-59.48 193.79,-64.06 73.41,-7.02 77.36,122.22 148.02,99.15 24.93,-8.14 45.27,-44.75 56.46,-46.27 11.2,-1.53 13.23,32.02 38.66,43.72 90.8,41.75 196.26,-139.42 222.79,-157.1 50.33,-33.54 12.17,88.66 139.37,-53.9 136.9,-153.43 84.12,-19.51 123.08,-7.62 38.83,11.86 118.51,-139.35 150.57,-148.97 20.35,-6.11 43.74,13.21 55.44,44.23 32.61,86.44 -103.92,330.81 -157.86,464.24l-4415.12 -0.04c1480.18,-1058.44 2444.9,-2791.13 2444.9,-4749.01 0,-1968.38 -985.41,-3719.44 -2479.06,-4776.28 1710.26,522.98 3295.44,1444.14 4564.16,2640.15z"/>
  <path class="fil0 str0" d="M11714.99 13324.5c-1480.2,-1058.44 -2444.9,-2791.17 -2444.9,-4749.05 0,-1956.85 963.68,-3688.72 2442.52,-4747.31 -1707.63,532.53 -3244.36,1452.29 -4507.25,2656.42 15.93,19.82 73.96,68.37 -13.57,84.92 -102.93,19.46 -50.22,-24.31 -124.93,49.35 23.32,21.56 71.01,49.39 71.01,70.65 0,39.59 -101.1,39.13 -162.75,20.82 -22.71,22.89 -45.33,45.88 -67.85,68.97 0.44,53.43 6.69,127.84 14.94,171.53 10.17,53.9 23.4,61.02 48.83,51.36 93.63,-35.57 120.04,-136.06 160.74,-200.32 78.96,-124.69 104.87,-52.42 135.29,-67.62 22.38,-11.2 56.97,-56.95 91.05,-77.79 34.08,-20.85 67.65,-16.78 67.65,8.65 0,25.41 -33.57,72.19 -48.32,95.07 -14.75,22.88 -10.68,21.86 18.31,26.95 56.42,9.88 159.24,33.01 70.71,94.55 -22.42,15.59 -119.22,48.05 -64.1,85.94 52.74,36.25 163.87,37.07 70.19,111.34 -114.69,90.92 -187.14,49.85 -235.5,66.61 -24.93,8.64 -24.93,34.05 4.07,46.77 28.99,12.7 86.98,12.7 124.62,17.79 156.06,21.09 -113.12,109.83 -76.3,131.68 47.39,28.13 108.68,-4.1 164.8,70.68 49.05,65.37 110.21,22.74 155.15,49.32 24.92,14.73 32.04,51.35 52.9,63.04 20.85,11.69 55.44,-1.53 67.14,7.12 11.7,8.65 0.51,39.14 -32.04,63.04 -89.82,65.95 -218.02,40.83 -235.51,47.29 -13.74,5.08 -0.51,23.39 -12.21,33.05 -42.5,35.09 -186.05,-51.19 -208.55,-56.95 -21.87,-5.59 -14.75,14.75 -16.28,33.57 -5.87,72.12 -80.22,-6.01 -129.19,-12.21 -36.12,-4.57 -72.73,16.77 -69.18,32.02 3.56,15.25 47.31,24.41 85.97,42.21 38.65,17.79 72.22,44.23 99.18,63.04 77.09,53.78 104.78,6.33 197.36,-25.43 55.14,-18.91 133.19,-8.29 176.49,42.72 54.59,64.32 32.46,23.62 142.93,12.71 79.98,-7.9 143.5,26.09 208.04,43.22 32.56,8.64 75.28,15.76 84.44,32.54 24.58,45.05 -120.75,83.41 -131.24,99.13 -10.17,15.27 10.18,38.65 2.55,52.88 -19.47,36.33 -158.96,2.59 -172.43,8.65 -9.02,4.06 40.73,66.72 -30.52,70.67 -18.31,1.02 -32.55,-10.17 -68.16,-20.33 -153.69,-43.9 -146.71,18.59 -164.8,40.16 -35.31,42.08 -147.02,-7.03 -217.7,-18.3 -182.18,-29.06 -38.15,85.73 210.06,143.37 170.88,39.69 135.07,-7.23 218.22,-54.4 37.64,-21.35 93.59,-31.53 110.38,-23.9 16.78,7.62 -5.6,33.05 -3.56,49.84 6.74,55.57 153.21,-22.61 160.22,-24.41 17.8,-4.57 9.66,12.71 12.21,28.97 8.64,55.2 114.74,37.59 148.54,54.91 19.83,10.18 9.65,31.53 -19.85,43.73 -29.51,12.21 -78.34,15.25 -95.12,27.97 -33.3,25.22 46,58.67 -113.93,62.53 -146.23,3.53 -68.63,16.78 -24.93,65.07 62.77,69.35 -129.5,61.89 -162.77,71.19 -25.44,7.12 0,21.35 3.56,36.1 3.56,14.74 -14.75,29.99 -50.35,28.98 -35.61,-1.02 -88.51,-18.3 -127.67,-33.55 -116.39,-45.33 -116.74,-37.03 -258.4,-31.53 -144.45,5.61 -129.39,4.4 -85.45,48.3 84.2,84.13 77.12,47.01 193.8,82.89 39.67,12.19 65.1,31.51 104.27,46.26 129.53,48.75 194.3,0.15 279.25,-19.84 88.96,-20.93 49.94,54.32 86.97,70.67 47.95,21.18 170.18,-35.1 216.18,-29.99 64.45,7.15 53.47,72.51 96.65,87.45 26.45,9.14 77.31,9.14 102.74,14.74 69.17,15.21 -69.74,61.5 -102.75,85.42 -20.35,14.75 -7.13,22.87 -8.14,38.64 -3.71,57.57 -110.64,75.75 -111.38,98.63 -0.52,15.76 38.14,37.12 33.56,49.83 -10.07,27.96 -190.06,9.99 -207.53,13.22 -13.73,2.54 5.6,12.7 -23.9,21.35 -99.98,29.31 -341.78,4.41 -384.04,12.71 -31.02,6.1 -9.66,26.44 -17.79,45.25 -8.14,18.81 -45.78,36.1 -28.49,50.33 38.44,31.64 388.5,51.09 442.02,45.26 41.8,-4.55 213.42,-58.82 232.45,-22.38 6.11,11.7 -21.36,31.02 -16.28,41.7 11.28,23.68 140.53,0.98 206.51,24.4 38.66,13.73 72.23,43.21 78.85,62.53 6.61,19.33 -13.75,28.48 -12.22,40.68 1.52,12.2 24.92,27.45 13.23,43.22 -30.59,41.21 -160.55,39.62 -169.39,52.88 -17.33,25.98 53.04,65.28 -36.61,79.81 -128.78,20.88 -176.75,6.07 -125.63,31.03 71.36,34.83 83.79,73.19 -0.01,96.29 -71.54,19.73 -223.41,-1.99 -259.41,23.39 -19.84,14 2.54,41.98 63.58,59.02 61.04,17.04 160.73,23.14 240.59,25.17 278.27,7.08 371.5,-52.36 303.16,56.44 -39.19,62.39 -36.12,45.45 -98.68,57.96 -59.95,11.98 15.68,42.44 -13.74,57.96 -10.05,5.3 -182.47,26.55 -96.64,57.45 115.51,41.59 381.83,-40.5 429.3,-37.63 33.58,2.03 51.88,21.35 48.83,33.56 -3.05,12.2 -27.46,17.28 -44.76,30.5 -55.75,42.61 5.16,108.86 -5.6,151.02 -16.11,63.17 -131.67,45.99 -136.82,56.94 -4.07,8.64 18.31,32.03 14.24,47.29 -16.26,60.93 -268.02,-40.78 -328.07,-25.44 -23.91,6.1 -23.91,27.46 -12.72,39.16 11.19,11.69 33.56,13.72 55.94,30.51 22.39,16.78 44.77,48.29 81.9,66.6 96.19,47.41 183.05,-0.04 243.65,-10.68 116.51,-20.45 91.39,20.19 111.39,28.48 62.04,25.71 230.06,11.84 260.94,22.37 22.38,7.63 16.27,26.94 -10.18,40.15 -26.45,13.23 -73.24,20.34 -91.04,33.57 -17.81,13.21 -6.62,32.53 -17.3,45.24 -10.68,12.7 -43.23,18.81 -61.54,30 -18.31,11.19 -22.39,27.45 -37.65,34.58 -15.26,7.12 -41.7,5.08 -47.81,18.3 -12.78,27.65 47.69,82.42 -126.15,79.32 -35.46,-0.63 -242.93,-22.84 -177.52,40.67 86,83.5 350.24,34.27 394.21,55.41 26.44,12.72 23.4,45.25 88,56.95 64.6,11.69 196.84,2.54 270.6,7.13 73.75,4.57 89.01,22.87 66.63,37.1 -22.38,14.23 -82.4,24.41 -122.08,47.8 -39.67,23.38 -59,59.98 -46.79,83.37 18.29,35.05 140.47,48.34 -8.14,69.15 -207.71,29.08 -157.96,10.32 -139.87,43.72 22.66,41.86 -138.91,63.46 -160.24,71.69 -22.38,8.65 -7.12,17.8 -20.34,30 -57.61,53.17 -428.59,45.49 -534.59,36.1 -120.55,-10.68 -202.95,-34.06 -215.66,-26.94 -12.72,7.11 44.25,44.74 95.12,68.64l356.05 112.87c132.83,32 231.12,-18.84 299.59,-3.05 71.78,16.56 -35.42,64.45 189.73,55.92 276.87,-10.48 171.83,23.71 184.13,48.3 5.08,10.17 44.75,7.13 66.63,18.81 21.87,11.7 25.94,38.13 -25.43,55.92 -51.37,17.8 -158.19,26.95 -171.93,46.78 -13.73,19.83 65.62,50.34 78.33,66.61 22.89,29.29 -247.34,19.82 -339.77,51.35 -43.23,14.74 -28.99,36.09 -18.31,61.01 58.95,137.52 -144.92,-65.18 -247.72,22.88 -37.33,31.98 7.83,84.59 -113.42,44.74 -146.5,-48.14 -89.83,-15.52 -107.83,18.81 -10.84,20.69 -128.58,-31.49 -152.6,-17.79 -33.84,19.31 420.99,269.96 650.56,206.42 86.04,-23.81 176.6,-131.62 247.71,-104.73 18.82,7.11 14.75,26.44 17.8,42.2 10.4,53.67 126.48,25.08 164.81,43.22 46.93,22.21 -132.82,87.99 -127.67,109.31 3.56,14.75 63.57,22.87 71.21,36.61 7.63,13.72 -37.13,33.03 -36.11,44.74 1.01,11.68 47.81,15.76 59.51,25.43 30.6,25.27 -129.85,52.14 -158.19,77.77 -21.37,19.32 -13.23,48.81 -27.48,68.13 -14.24,19.31 -50.87,28.47 -56.46,42.7 -5.59,14.25 19.84,33.57 6.11,44.75 -13.73,11.19 -66.63,14.25 -91.55,27.46 -24.93,13.22 -21.88,36.61 -38.16,52.37 -16.27,15.75 -51.88,23.9 -66.12,34.58 -50.8,38.08 138.01,27.62 145.48,28.46 31.53,3.56 37.64,16.78 65.61,23.89 18.28,4.65 379.39,40.46 213.12,106.27 -75.04,29.69 -79.47,52.19 -108.33,53.37 -24.93,1.02 -63.59,-12.19 -95.63,-9.14 -94.04,8.94 -50.3,96.32 -78.34,104.23 -19.84,5.59 -71.72,-11.7 -92.57,-12.71 -20.85,-1.02 -10.68,14.23 -24.93,20.33 -55.04,23.58 -198.92,-70.92 -228.88,-81.35 -23.4,-8.13 -13.23,12.21 -38.66,25.43 -25.43,13.24 -86.46,19.34 -111.38,43.74 -24.93,24.41 -13.74,67.1 -40.2,67.6 -35.68,0.68 -209.39,-118.36 -269.07,-63.55 -18.82,17.28 -8.66,50.84 -71.73,47.29 -63.07,-3.56 -199.37,-44.22 -246.68,-38.12 -47.3,6.1 -5.59,58.97 -0.51,81.33 8.22,36.22 -130.34,-2.12 -196.34,-45.75 -304.22,-201.1 -230.67,-299.66 -237.89,195.27l4561.69 0z"/>
  <path class="fil0 str0" d="M17562.55 13324.46c261.55,-135.36 510.52,-291.69 744.64,-466.74 -929.7,-211.76 -1947.13,-312.81 -2995.11,-288.52l0 755.26 2250.47 0z"/>
  <path class="fil0 str0" d="M14903.44 5169.58c-32.24,32.02 -66.6,56.53 -108.58,88.91 -112.92,87.11 -100.72,154.4 -169.42,308.17 -44.77,100.22 -110.34,254.3 -96.5,287.49 18.61,44.65 108.44,60.8 174.63,25.65 111.79,-59.36 151.22,-203.95 199.87,-308.41l0 -401.81z"/>
  <path class="fil0 str0" d="M14903.44 5947.82c-118.04,262.03 -304.89,174.11 -520.66,174.11 -57.46,0 -79.45,-5.16 -129.98,46.17 -50.56,51.27 -165.07,123.62 -250.86,194.08 -133.98,110.04 -402.11,240.36 -442.76,423.38 -7.64,34.45 -7.64,71.19 -9.94,84.19 -2.3,13.02 -6.88,2.32 26.05,-13 33.5,-15.58 344.47,-111.47 384.52,-120.97 45.2,-10.71 52.85,-4.6 54.38,15.32 8.45,109.69 -135.43,269.26 -231.33,320.03 -119.62,63.34 -155.65,22.87 -209.1,134.74 -61.45,128.7 -53.76,120.57 57.45,235.05 76.6,78.86 209.87,218.23 297.97,303.98 180.11,175.34 206.39,128.35 503.24,117.9 145.55,-5.14 322.94,0.82 471.02,35.71l0 -1950.69z"/>
  <path class="fil0 str0" d="M15997.46 12339.9c60.51,-127.92 115.53,-234.61 258.67,-301.09 74.81,-34.74 165.49,-52.89 172.3,-40.79 11.27,20.04 -152.12,81.83 -222.93,219.8 -43.71,85.19 78.93,-22.7 179.11,-67.97 55.14,-24.93 95.96,-26.45 92.95,-12.09 -5.26,24.98 -129.86,84.34 -129.86,210.96 35.42,1.31 70.76,2.79 106.03,4.38 27.74,-20.44 53.68,-40.95 73.28,-61.72 63.66,-67.39 57.05,-155.88 63.49,-245.86 8.29,-115.74 47.66,74.33 54.79,112.68 37.51,201.77 -3.15,117.52 134.88,-40.47 144.2,-165.04 -38.71,100.63 35.85,199.26 237.06,-250.89 323.42,-881.02 405.25,-1235.47 60.8,-263.41 65.03,-265.68 -50.98,-456.31 -89.5,-147.06 -275.06,-511.73 -358.01,-679.11 -48.53,-97.93 -43.98,-208.33 -140.94,-194.48 -67.78,9.67 -32.55,67.32 -272.7,96.48 -132.5,16.05 -359.23,28.33 -498.63,34.44 -139.42,6.12 -191.52,6.12 -242.06,16.86 -122.03,25.87 -145.25,40.88 -345.87,49.44l0 2282.06c57.84,-68.6 127.44,-127.1 153.99,-192.84 24.7,-61.2 24.7,-142.76 45.77,-145.03 21.08,-2.27 63.23,74.79 71.76,150.32 8.52,75.52 -16.58,149.55 -16.58,173.72 0,24.18 25.1,-1.52 54.58,-53.63 29.48,-52.13 63.38,-130.67 133.96,-183.54 70.59,-52.88 177.9,-80.08 193.75,-66.47 15.82,13.59 -59.83,67.96 -110.45,125.38 -70.8,80.3 -103.39,193.81 -120.8,300.23 29.69,-0.21 36.13,-0.29 65.94,-0.29 23.54,-40.19 217.25,-355.8 220.6,-313.37 2.82,55.34 -71.47,313.69 -7.14,314.52z"/>
  <path class="fil0 str0" d="M9765.07 8371.21c49.73,-1322.27 544.72,-2486.25 1386.08,-3393.18 42.87,251.88 273.49,226.04 342.82,371.33 23.75,49.76 43.69,123.25 78.93,202.11 109.66,245.45 218.11,315.2 38.83,312.15 -265.94,-4.51 -247.23,-181.15 -332.22,-338.16 -105.85,-195.53 -140.22,508.79 279.89,581.72 88.08,15.28 234.1,2.76 291.51,2.76 83.06,0 274.93,179.12 345.47,237.04 195.97,160.94 236.37,126.28 446.88,372.48 49.44,52.33 89.56,114.1 81.04,178.64 -165.75,-86.8 -204.87,-156.56 -389.88,-182.99 -63.71,-9.1 -83.62,-0.45 -52.85,103.35 35.9,121.09 110.72,191.65 226.73,258.77 210.14,121.66 244.44,55.82 259.65,319.28 13.57,234.7 9.67,737.17 38.82,974.7l-3041.7 0z"/>
  <path class="fil0 str0" d="M13878.94 3373.22c337.35,-35.81 679.07,-57.05 1024.5,-63.07l0 1648.17c-5.23,20.35 -82.47,128.46 -176.14,139.76 -19.12,2.32 -29.88,0.77 -35.23,-33.66 -16.48,-105.91 95.52,-437.78 119.73,-570.14 26.02,-142.27 -26.02,-562.99 -187.91,-512.86 -17.33,5.37 56.34,168.05 17.09,371.8 -35.28,274.04 -60.28,130.34 -150.43,-91.29 -60.12,-147.82 -103.13,-215.04 -240.55,-308.36 -61.51,-41.77 -212.12,-89.7 -196.66,-45.75 20.73,58.96 389.87,436.03 307.29,542.28 -27.37,35.23 -98.82,19.67 -175.91,-11.1 -325.74,-129.95 -435.96,-378.31 -456.42,-322.84 -8.62,23.35 24.38,134.54 61.36,200.94 91.94,165.22 245.86,210.99 372.46,283.23 61.14,34.88 197.57,106.19 163.05,136.4 -82.13,71.86 -532.58,-119.64 -534.42,-83.54 -1.14,22.39 133.76,180.5 265.76,234.34 246.6,100.59 396.36,65.1 369.85,236.6 -11.47,74.27 -13.89,75.8 -49.1,117.89 -61.95,74.03 -178.83,-129.72 -235.61,-199.06 -85.44,-104.38 -48.03,165.12 15.31,250.85 92.77,125.52 120.58,179.5 124.28,257.67 5.62,118.9 40.9,157.21 -33.86,269.92 -183.35,276.42 -161.51,170.15 -180.15,1.42 -10.6,-95.96 -21.34,-241.14 -46.28,-225.79 -99.48,61.22 -79.49,413.95 -114.28,489.95 -39.9,87.14 -108.53,184.05 -194.66,203.38 -168.14,37.75 -4.2,-278.45 -133.92,-544.78 -37.8,-77.61 -102.18,-178.12 -123.25,-170.22 -83.39,31.3 -32.53,140.61 -14.63,238.85 28.9,158.86 6.7,380.94 -20.54,530.83 -27.75,152.38 -53.54,225.84 -144.65,344.8 -68.63,89.62 -61.87,108.41 -174.73,108.85 -103.75,-0.65 -122.16,-52.36 -176.99,-124.01 -91.15,-118.99 -152.34,-211.72 -180.05,-364.14 -27.93,-153.7 -0.02,-324.47 27.8,-468.9 12.79,-66.6 53.48,-292.03 -2.58,-292.03 -38.92,0 -143.16,164.96 -164.57,211.65 -67.31,146.51 -16.8,382.49 -46.73,483.88 -9.98,33.69 -58.9,9.67 -100.62,0.3 -86.14,-19.34 -145.94,-65.3 -185.82,-152.46 -33.58,-73.37 -54.29,-582.56 -103.83,-533.09 -17.62,17.6 -53.25,218.97 -57.09,274.11 -6.86,98.91 -28.68,101.83 -84.37,53.69 -97.18,-84.02 -151.49,-177.78 -174.81,-340.64 -20.56,-143.55 115.6,-125.12 208.4,-250.74 63.57,-86.04 66.46,-372.86 -18.93,-268.53 -56.71,69.3 -157.11,273.12 -219.05,199.07 -35.23,-42.11 -49.39,-91.02 -60.85,-165.3 -25.7,-166 50.42,-115.16 240.49,-167.16 116.38,-31.84 505.43,-285.96 359.21,-267.2 -121.49,15.57 -404.99,165.8 -486.75,94.36 -91.22,-79.69 339.41,-221.52 374.75,-240.93 130.18,-71.53 285.73,-208.33 222.1,-379.63 -8.59,-23.34 -33.09,5.72 -71.41,47.87 -38.28,42.08 -90.34,97.21 -157.79,147.75 -53.88,40.39 -373.46,207.4 -419.57,182.22 -28.68,-15.68 -29.65,-58.05 -17.77,-104.9 601.15,-472.99 1306.28,-819.88 2075.48,-1000.71z"/>
  <path class="fil0 str0" d="M9767.04 8779.68c155.97,1834.74 957.99,3200.08 2157.11,4089.83 -11.93,-57.04 -24.24,-132.29 -31.2,-181.37 -28.97,-204.05 52.21,103.31 176.02,155.43 44.43,18.7 -52.41,-115.81 -79.28,-195.17 -18.22,-53.81 -18.22,-102.6 -8.69,-102.6 9.52,0 28.58,48.79 65.01,94.94 28.64,36.28 193.71,196.04 218.87,125.16 11.17,-31.47 1.7,-106.17 -39.52,-167.79 -56.3,-84.18 -272.33,-215.73 -160.68,-193.94 160.9,31.38 327.49,175.33 424.91,297.7 61.47,77.19 -0.99,13.77 3.44,-201.88 1.64,-80.15 16.39,-157.3 25.37,-164.2 13.47,-10.35 3.97,131.99 149.51,269.01 102.52,96.53 19.7,-52.47 48.8,-86.83 4.82,-5.7 12.33,13.58 42.9,38.65 30.57,25.06 31.97,86.78 180.52,86.78 -55.04,-88.77 -144.53,-182.46 -224.62,-243.2 -49.87,-37.82 -83.14,-49.65 -46.11,-49.65 157.44,0 285.58,69.85 408.14,200.27 30.76,-123.83 16.65,-288.25 -21.65,-404.03 -30.22,-91.35 -75.58,-144.25 -77.84,-162.36 -4.25,-34.01 154.31,33.7 281.61,347.7 51.64,127.38 53.72,161.95 61.46,-71.28 2.26,-67.95 5.3,-119.32 49.17,-183.52 84.28,-123.33 293.54,-272.65 249.37,-169.95 -54.68,127.11 -164.07,182.62 -96.71,420.2 18.19,64.18 39.46,117.23 70.44,117.23 30.99,0 71.67,-53.05 91.27,-111.93 19.59,-58.89 18.06,-123.6 33.94,-200.53 15.86,-76.93 49.11,-166.06 67.57,-144.98 25.75,29.43 15.59,209.36 88.21,285.76 53.89,-71.41 143.11,-159.45 191.13,-369.34 32.94,-143.9 51.31,-353.7 54.36,-506.82 7.51,-374.25 -80.9,-388.06 -108.77,-626.3 -13.76,-117.91 -4.56,-272.57 -10.7,-394.29 -8.03,-159.5 -50.9,-329.22 -117.97,-435.67 -112.55,-178.63 -403.46,-260.43 -489.43,-607.12 -22.23,-89.59 -19.14,-169.22 -28.36,-212.85 -9.16,-43.66 -135.71,-106.84 -168.04,-136.89 -101,-93.93 -158.2,-159.19 -195.37,-204.17l-3234.19 0z"/>
  <path class="fil0 str0" d="M18650.78 12577.99c-0.06,-35.41 0.58,-68.82 2.7,-98.15 11.68,-161.14 19.05,-90.52 -83.14,-1.57 -35.69,31.05 -186.51,117.2 -105.4,36.34 22.67,-22.59 55.15,-53.57 67.62,-93.98 12.46,-40.42 4.92,-90.24 1.14,-90.24 -3.78,0 -3.78,49.82 -39.3,81.18 -35.53,31.35 -106.54,44.22 -151.89,55.52 -45.34,11.29 -64.98,21.02 -80.47,2.91 -15.48,-18.13 -26.84,-64.14 2.27,-96.96 38.68,-43.6 230.27,-88.94 61.05,-86.26 -42.81,0.68 -104.07,5.87 -151.33,19.78 23.64,-55.43 9.17,-126.99 39.98,-169.22 55.72,-76.37 122.5,-16.6 138.63,-248.86 16.82,-242.42 3.06,-870.51 -16.08,-1120.88 -11.51,-150.06 -26.81,-202.12 -78.15,-273.32 -119.74,-166.16 -345.73,-358.93 -410.55,-608.7 -31.39,-120.93 -17.63,-244.98 16.86,-336.1 63.1,-166.86 162.42,-181.02 204.51,-466.29 4.12,-27.97 27.43,-195.55 41.86,-303.51l2341.4 0c-91.85,1635.09 -793.3,2905.74 -1801.71,3798.31z"/>
  <path class="fil0 str0" d="M16336.61 3373.22c2296.59,539.94 4022.14,2560.03 4113.84,4997.99l-2592.66 0c-8.49,-4.56 -17.17,-9.18 -26.01,-13.82 -145.56,-76.56 -335.5,-163.86 -476.45,-224.32 -140.92,-60.49 -232.85,-94.18 -393.69,-111.02 -308.29,-32.3 -1141.22,-2.07 -1464.54,-0.75 -84.72,0.35 -141.28,-0.72 -185.02,-4.41l0 -4706.74c345.44,6.02 687.17,27.26 1024.53,63.07z"/>
  <path class="fil0 str0" d="M11272.72 4851.91c68.03,-69.99 137.97,-138.13 209.73,-204.33 19.19,144.41 35.67,325.18 23.8,401.64 -5.35,34.44 -16.08,36 -35.22,33.68 -104.39,-12.56 -210.03,-148.14 -198.31,-230.99z"/>
  <path class="fil0 str0" d="M14903.44 13324.46l0 -739.26c-982.71,53.9 -1899.97,218.24 -2713.37,469.42 149.3,97.37 303.65,187.49 462.59,269.84l2250.78 0z"/>
  <path class="fil0 str0" d="M14903.44 9951.39c-229.95,-7 -227.96,-57.3 -239.71,235.87 -13.43,335.12 -104.03,440.79 -186.9,769.46 -22.96,91.11 -26.03,143.17 -20.69,271.81 7.74,186.12 40.13,571.01 41.21,755.53 9.2,-20.62 18.71,-42.6 28.68,-65.36 195.21,-446.32 106.71,-154.4 83.88,59.3 -12.46,116.7 -0.38,189.21 3.4,257.19 3.77,67.98 -0.76,131.42 24.13,137.45 24.88,6.07 79.19,-45.3 124.14,-135.19 43.42,-86.8 74.77,-205.42 141.86,-287.2l0 -1998.86z"/>
  <path class="fil0 str0" d="M17153.21 12365.07c126.82,-9.7 132.32,-204.64 152.9,-191.24 34.38,22.39 45.36,108.81 46.87,150.65 4.4,122.16 47.51,-97.62 231.22,-189.83 101.98,-51.18 -10.12,41.2 -44.21,92.15 -48.88,73.05 -26.49,136.12 43.08,153.33 58.16,14.37 126.13,-47.73 141.98,-112.11 12.45,-50.6 28.83,-132.14 33.34,-149.29 7.03,-26.7 63.74,150.3 93.31,275.35 25.18,-27.81 68.53,-157.4 101.1,-213.87 121.96,-211.45 186.94,-551.47 161.63,-808.51 -28.15,-286.09 -113.76,-472.26 -271.17,-678.37 -207.56,-271.7 -62.93,1.32 -162.38,176.11 -22.21,39.05 -51.33,48.24 -69.7,88.06 -123.81,268 -175.43,882.7 -320.32,1112.45 -35.23,55.89 -92.83,74.3 -111.98,117.15 -25.68,57.47 -3.92,140.22 -25.67,177.97z"/>
  <path class="fil0 str1" d="M15141.66 2308.51c6903.56,0 12500,5596.44 12500,12500 0,6903.56 -5596.44,12500 -12500,12500 -6903.56,0 -12500,-5596.44 -12500,-12500 0,-6903.56 5596.44,-12500 12500,-12500z"/>
 </g>
</svg>
