<?xml version="1.0" encoding="utf-8"?>
<!-- Generator: Adobe Illustrator 26.1.0, SVG Export Plug-In . SVG Version: 6.00 Build 0)  -->
<svg version="1.1" id="Слой_1" xmlns="http://www.w3.org/2000/svg" xmlns:xlink="http://www.w3.org/1999/xlink" x="0px" y="0px"
	 width="992.12598px" height="1139.47034px" viewBox="0 0 992.12598 1139.47034" enable-background="new 0 0 992.12598 1139.47034"
	 xml:space="preserve">
<path fill="none" stroke="#FF0000" stroke-miterlimit="10" d="M783.76123,601.59692h-71.09521
	c-118.78052-125.89478-335.33792-125.89478-454.11819,0h-71.0952c-9.27246,22.89331-30.48926,40.65356-56.91504,47.30322v247.60522
	c26.42578,6.6499,47.64258,24.41016,56.91504,47.30347c0.13379,0,0.79834,0,596.30859,0
	c9.27246-22.89331,30.48926-40.65356,56.91504-47.30347V648.90015C814.25049,642.25049,793.03369,624.49023,783.76123,601.59692z
	 M824.67627,884.8042c-21.97119,8.39331-40.07861,23.67358-50.93506,43.00464H197.47264
	c-10.85645-19.33105-28.96387-34.61133-50.93506-43.00464v-39.50977h8.11377v34.62305
	c20.0603,8.71289,36.80029,22.92651,47.80518,40.61597h567.97729c11.00488-17.68945,27.74487-31.90308,47.80518-40.61597v-34.62305
	h6.43726V884.8042z M812.23901,692.09326H160.65135v-22.74023c18.63135-8.82886,34.104-22.03711,45.07642-38.4812h66.28612
	c59.78076-63.35706,130.37866-94.42114,214.4314-94.42114c84.03885,0,154.64578,31.05591,214.43094,94.42114h66.28662
	c10.97192,16.44409,26.44482,29.6521,45.07617,38.4812V692.09326z M812.23901,845.29443v30.7583
	c-18.63159,8.8291-34.104,22.03687-45.07568,38.48071H205.72704c-10.97168-16.44385-26.44434-29.65161-45.07568-38.48071v-30.7583
	H812.23901z M824.67627,692.09326h-6.43726v-26.60498c-20.0603-8.71265-36.80029-22.92627-47.80566-40.61646h-66.96899
	c-60.52344-64.14563-134.32031-94.42114-217.01907-94.42114c-82.48999,0-156.35938,30.13074-217.01929,94.42114h-66.96873
	c-11.00562,17.69019-27.74561,31.90381-47.80591,40.61646v26.60498h-8.11377v-31.49194
	c21.97119-8.39307,40.07861-23.67334,50.93506-43.00439h67.97655c60.98535-64.63672,138.52637-94.42114,220.15771-94.42114
	c81.17606,0,158.88528,29.4801,220.15775,94.42114h67.97656c10.85645,19.33105,28.96387,34.61133,50.93506,43.00439V692.09326z"/>
<path fill="none" stroke="#FF0000" stroke-miterlimit="10" d="M839.2674,415.3392V167.73392
	c-26.42584-6.64972-47.64258-24.41003-56.91486-47.30331h-71.09528C656.78455,62.6954,575.289,26.00962,484.19809,26.00962
	S311.6116,62.6954,257.13892,120.43061h-71.09529c-9.27228,22.89327-30.48903,40.65359-56.91484,47.30331V415.3392
	c26.42581,6.64969,47.64256,24.41,56.91484,47.30328c0.134,0,0.79858,0,596.3089,0
	C791.62482,439.74921,812.84155,421.98889,839.2674,415.3392z"/>
<polygon fill="none" stroke="#FF0000" stroke-miterlimit="10" points="578.21936,652.59833 582.60486,660.62384 
	574.53516,656.23834 568.57153,676.49921 562.6507,656.23834 554.5816,660.62384 558.96704,652.59833 538.75006,646.63416 
	558.96704,640.66998 554.5816,632.60059 562.6507,636.98602 568.57153,616.76904 574.53516,636.98602 582.60486,632.60059 
	578.21936,640.66998 598.43634,646.63416 "/>
<polygon fill="none" stroke="#FF0000" stroke-miterlimit="10" points="732.49792,664.91284 735.18884,669.83728 730.2373,667.14636 
	726.578,679.57843 722.94501,667.14636 717.99377,669.83728 720.68469,664.91284 708.27954,661.25323 720.68469,657.59363 
	717.99377,652.64227 722.94501,655.33319 726.578,642.92804 730.2373,655.33319 735.18884,652.64227 732.49792,657.59363 
	744.90302,661.25323 "/>
<polygon fill="none" stroke="#FF0000" stroke-miterlimit="10" points="399.19647,652.59833 394.811,660.62384 402.88065,656.23834 
	408.8443,676.49921 414.76514,656.23834 422.83426,660.62384 418.44879,652.59833 438.66577,646.63416 418.44879,640.66998 
	422.83426,632.60059 414.76514,636.98602 408.8443,616.76904 402.88065,636.98602 394.811,632.60059 399.19647,640.66998 
	378.97949,646.63416 "/>
<polygon fill="none" stroke="#FF0000" stroke-miterlimit="10" points="244.91794,664.91284 242.22702,669.83728 
	247.17856,667.14636 250.83784,679.57843 254.47086,667.14636 259.42206,669.83728 256.73114,664.91284 269.13626,661.25323 
	256.73114,657.59363 259.42206,652.64227 254.47086,655.33319 250.83784,642.92804 247.17856,655.33319 242.22702,652.64227 
	244.91794,657.59363 232.51282,661.25323 "/>
<path fill="none" stroke="#FF0000" stroke-miterlimit="10" d="M228.4642,1091.92554h-28.09727c-2.09357,0-2.09357-5.00793,0-5.00793
	h2.35136c0-8.23389,0-28.97192,0-48.18298c23.41905-3.81641,24.23036-29.27429,4.05188-29.27429h-3.13654l0.39189,3.13654
	c0,1.177,0,4.18201-1.30724,6.4046c0-12.7392,0.98076-21.04181-4.31221-21.04181c-10.19341,0-16.98991,26.66119-1.43741,26.66119
	c11.10873,0,9.8015-12.28436,9.8015-12.28436c18.16559,0,14.63716,23.91522-9.93169,23.91522
	c-34.89514,0-29.53604-46.26288,5.87981-46.26288c15.81422,0,23.5247,7.3172,23.5247,24.83057c0,7.18707,0,58.50653,0,72.09821
	h2.22121C230.55757,1086.9176,230.55757,1091.92554,228.4642,1091.92554z M247.80685,1048.66772l-6.66498,3.65857l-3.65997,6.66638
	l-3.6586-6.66638l-6.66634-3.65857l6.66634-3.66003l3.6586-6.66492l3.65997,6.66492L247.80685,1048.66772z M275.64377,1091.92554
	h-28.22882c-2.07225,0-2.07225-5.6875,0-5.6875h2.35138v-82.33252h-2.35138c-2.07285,0-2.07285-5.55255,0-5.55255h28.22882
	c2.07144,0,2.10895,5.19537,0,5.55255h-2.35275v82.33252h2.35275C277.71512,1086.23804,277.71512,1091.92554,275.64377,1091.92554z"
	/>
<path fill="none" stroke="#FF0000" stroke-miterlimit="10" d="M307.13898,1082.37549
	c-23.32687,0-25.31161-31.66553-7.54352-31.66553c11.51407,0,11.61398,14.69153,2.87875,14.69153
	c0,0,0.99188-4.86353-2.48224-4.86353c-5.26111,0-3.47409,15.38574,5.4599,15.38574c15.68341,0,15.78333-57.77228,1.38943-57.77228
	c-9.42941,0-10.22455,20.44916-10.12463,30.67267c-6.75046,1.29053-11.11755,7.14697-11.11755,14.98914
	c0,3.47412,0.89297,6.94824,2.58112,10.02576c-14.98923-11.11743-14.49277-62.53589,19.35632-62.53589
	C343.9657,1011.3031,344.36328,1082.37549,307.13898,1082.37549z"/>
<path fill="none" stroke="#FF0000" stroke-miterlimit="10" d="M413.86819,1014.18744c0,0-2.71649-6.46777-11.38269-6.46777
	c-8.40717,0-35.57074,0-40.61584,0c-18.75507,0-19.66101,17.59149-7.11334,17.59149c10.99347,0,9.70099-12.15851,9.70099-12.15851
	c17.97931,0,14.48706,23.66998-9.83118,23.66998c-31.0437,0-29.87872-37.51013,2.71649-37.51013
	c40.35681,0,34.53595-6.72681,51.09259-6.72681C428.74313,992.58569,424.99185,1014.18744,413.86819,1014.18744z
	 M392.78452,1091.92554h-27.81049c-2.07004,0-2.07004-6.35742,0-6.35742h2.19977v-48.22742
	c7.50122-3.2345,11.51154-9.31311,11.51154-15.13397c0-6.59662-4.78607-10.86597-10.99481-11.64172h22.76538v75.00311h2.32861
	C394.85483,1085.56812,394.85483,1091.92554,392.78452,1091.92554z"/>
<path fill="none" stroke="#FF0000" stroke-miterlimit="10" d="M510.33728,1033.06177c-7.56491,0-6.60162-5.91516-6.60162-5.91516
	c7.28946-7.28809,8.38977-24.06757-0.13843-24.06757c-21.45456,0-29.84433,79.90741-4.40109,79.90741
	c16.91794,0,23.38113-28.88257,14.44199-28.88257c-8.93918,0-7.15253,13.06482-7.15253,13.06482
	c-17.19046,0-15.95319-25.30469,6.87708-25.30469c27.36975,0,23.65656,50.06152-17.74133,50.06152
	c-54.87656,0-40.98544-98.47351,6.3262-98.47351C531.65485,993.45203,527.6662,1033.06177,510.33728,1033.06177z"/>
<path fill="none" stroke="#FF0000" stroke-miterlimit="10" d="M560.12122,1078.22498
	c-23.32684,0-25.31158-31.66553-7.54352-31.66553c11.5141,0,11.61401,14.69153,2.87878,14.69153
	c0,0,0.99188-4.86353-2.48224-4.86353c-5.26111,0-3.47412,15.38574,5.4599,15.38574c15.68341,0,15.78333-57.77228,1.3894-57.77228
	c-9.42938,0-10.22455,20.44916-10.12463,30.67267c-6.75043,1.29053-11.11755,7.14697-11.11755,14.98914
	c0,3.47412,0.89301,6.94824,2.58112,10.02588c-14.9892-11.11755-14.49274-62.53595,19.35632-62.53595
	C596.948,1007.15265,597.34552,1078.22498,560.12122,1078.22498z"/>
<path fill="none" stroke="#FF0000" stroke-miterlimit="10" d="M641.20056,1033.2085c-7.44958,0-6.50098-5.82507-6.50098-5.82507
	c7.17834-7.17694,8.26184-23.70068-0.13495-23.70068c-21.12897,0-29.39087,78.68945-4.33398,78.68945
	c16.65863,0,23.02338-28.44226,14.2204-28.44226c-8.80432,0-7.04346,12.86572-7.04346,12.86572
	c-16.92987,0-15.71008-24.91919,6.77228-24.91919c26.95264,0,23.29596,49.29871-17.47095,49.29871
	c-54.04022,0-40.36084-96.97272,6.2298-96.97272C662.19324,994.20245,658.26538,1033.2085,641.20056,1033.2085z"/>
<path fill="none" stroke="#FF0000" stroke-miterlimit="10" d="M693.62329,1078.22498c-23.3269,0-25.31165-31.66553-7.54358-31.66553
	c11.5141,0,11.61401,14.69153,2.87878,14.69153c0,0,0.99188-4.86353-2.48224-4.86353c-5.26111,0-3.47406,15.38574,5.4599,15.38574
	c15.68341,0,15.78229-57.77228,1.38947-57.77228c-9.43048,0-10.22357,20.44916-10.12469,30.67267
	c-6.75043,1.29053-11.11749,7.14697-11.11749,14.98914c0,3.47412,0.89294,6.94824,2.58112,10.02588
	c-14.98926-11.11755-14.4928-62.53595,19.35626-62.53595C730.45001,1007.15265,730.8476,1078.22498,693.62329,1078.22498z"/>
<path fill="none" stroke="#FF0000" stroke-miterlimit="10" d="M793.76404,1091.5896h-27.61121
	c-1.95544,0-2.77039-5.95032-0.66992-5.95032h0.95264l-18.10071-73.211l-19.02667,73.55084h1.76837
	c2.10791,0,1.38959,5.61047-0.55969,5.61047h-13.46545c-1.79779,0-1.31744-5.61047,0.55969-5.61047h2.17627l23.37921-91.77667
	h24.89014l22.45325,91.43683h2.58411C794.97107,1085.63928,795.56226,1091.5896,793.76404,1091.5896z M751.46375,1059.21802
	l7.07214,3.80774l-7.07214,3.8092l-3.80914,6.93665l-3.6723-6.93665l-7.07355-3.8092l7.07355-3.80774l3.6723-6.93665
	L751.46375,1059.21802z"/>
<path fill="none" stroke="#000000" stroke-miterlimit="10" d="M191.84721,190.86877l8.2832-2.44362l-1.7968-3.30617l3.30627,1.7968
	l2.44339-8.2832l2.42586,8.2832l3.30605-1.7968l-1.7968,3.30617l8.28322,2.44362l-8.28322,2.44362l1.7968,3.28816l-3.30605-1.7968
	l-2.42586,8.30121l-2.44339-8.30121l-3.30627,1.7968l1.7968-3.28816L191.84721,190.86877z M786.36688,190.86877l-8.2832-2.44362
	l1.79675-3.30617l-3.30627,1.7968l-2.44336-8.2832l-2.42584,8.2832l-3.30609-1.7968l1.79681,3.30617l-8.2832,2.44362l8.2832,2.44362
	l-1.79681,3.28816l3.30609-1.7968l2.42584,8.30121l2.44336-8.30121l3.30627,1.7968l-1.79675-3.28816L786.36688,190.86877z
	 M633.10089,190.86877l-8.2832-2.44362l1.79675-3.30617l-3.30621,1.7968l-2.44342-8.2832l-2.42584,8.2832l-3.30609-1.7968
	l1.79681,3.30617l-8.2832,2.44362l8.2832,2.44362l-1.79681,3.28816l3.30609-1.7968l2.42584,8.30121l2.44342-8.30121l3.30621,1.7968
	l-1.79675-3.28816L633.10089,190.86877z M351.57755,193.31239l-1.79681,3.28816l3.30627-1.7968l2.44342,8.30121l2.42584-8.30121
	l3.30603,1.7968l-1.79678-3.28816l8.2832-2.44362l-8.2832-2.44362l1.79678-3.30617l-3.30603,1.7968l-2.42584-8.2832l-2.44342,8.2832
	l-3.30627-1.7968l1.79681,3.30617l-8.2832,2.44362L351.57755,193.31239z M323.98093,149.87987
	c15.59814,15.60776-7.42175,38.56299-22.99316,22.98438C285.41785,157.28709,308.40909,134.30466,323.98093,149.87987z
	 M324.70798,163.92381c-2.09918-7.49437-15.3096-20.24602-22.61377-12.94629c-7.12125,7.1207,5.19687,20.40215,12.95459,22.60449
	C321.34985,175.37241,326.47525,170.23138,324.70798,163.92381z M353.66354,136.47557
	c4.16028,7.1189,1.41656,7.4762-8.21436,14.81445c-17.08765-22.42207-18.14774-22.36264-14.70605-24.9873l-1.11182-1.46289
	l-2.74854,2.09375l-0.02881-0.03711l-8.47607,6.51952l1.11719,1.46094c1.06195-0.80984,1.90732-1.3544,3.16992-0.6582
	c1.00391,0.55078,2.03516,1.79785,2.99951,3.06348c13.47128,17.67729,14.63876,17.93542,11.27783,20.49219l1.11523,1.46094
	l21.7876-16.60352l-4.69629-7.29004L353.66354,136.47557z M375.7529,132.99315l-12.64844,7.24707l-0.91162-1.59668
	c3.7337-2.13834,2.33163-2.86487-8.41553-21.62304c-0.98682-1.72266-1.77051-2.92285-2.62793-3.58496
	c-1.17816-0.90894-2.09912-0.49033-3.28955,0.19336l-0.91504-1.5957l12.64746-7.24609
	C378.34888,94.03455,394.73026,122.12194,375.7529,132.99315z M374.83981,131.39745
	c6.00848-3.44215,4.14694-10.97516,0.68896-17.00878c-3.44751-6.02094-9.02448-11.4413-15.02295-8.00586l-3.36768,1.92969
	l14.3335,25.01464L374.83981,131.39745z M410.35007,85.14843l0.44238,1.78516c4.09726-1.02122,3.62021,0.25335,8.94629,21.61133
	c0.89966,3.81059,1.07492,5.56642-1.97803,6.32812l0.4458,1.78418l3.35693-0.83789l0.01221,0.04492l10.3125-2.61914
	l-0.44434-1.78516c-3.88681,0.96975-3.86337-1.23655-6.53564-11.94922c7.66629-1.91043,9.42825-2.76323,10.71045,2.37598
	l1.78418-0.44531l-2.80176-11.24023l-1.78613,0.44531c1.25497,5.02998-0.48709,5.11987-8.35107,7.08008l-3.33594-13.37109
	c11.71237-2.92091,13.80524-4.84251,16.74951,2.83984l1.76465-0.44238l-2.70508-8.23535L410.35007,85.14843z M474.99362,106.23144
	l0.20117,1.8291l-14.06494,1.52832l-0.19727-1.82812c3.6879-0.39889,1.78107-3.20393-0.47705-7.24121l-11.48389,1.24707
	c-0.50717,1.6792-1.3909,4.19755-1.20361,5.91113c0.15591,1.44675,1.06296,1.39699,2.43359,1.24902l0.19775,1.8291l-8.68652,0.94336
	l-0.19775-1.82812c3.91885-0.42387,3.02026,0.04633,12.93457-32.25781l1.37354-0.15039l0.28125,0.43066
	C472.02185,106.41801,471.2753,106.63362,474.99362,106.23144z M459.46481,98.77636l-6.17139-11.09277l-3.72412,12.16895
	L459.46481,98.77636z M487.68942,81.43749c0.19711-7.73465,14.19788-3.4958,13.92871,7.10449l1.88379,0.04785l0.31738-12.37012
	l-1.88477-0.0498c-0.14526,5.72163-0.15494-0.2818-11.09863-0.56348c-5.11035-0.11719-10.62061,1.84668-10.77197,7.78027
	c-0.24649,9.65125,17.99799,11.07341,17.82178,17.99121c-0.23749,9.30866-17.49963,6.71832-17.13477-7.57324l0.0127-0.5
	l-1.83887-0.04688l-0.36768,14.42285l1.83691,0.04688c0.04944-1.87462,0.31787-1.94904,1.04297-1.93262
	c0.65967,0.0166,1.38281,0.37305,2.29834,0.82324c9.70248,4.78204,21.5181,1.0454,21.71973-6.81836
	C505.73615,88.79679,487.52786,87.75782,487.68942,81.43749z M545.41211,83.58398l0.49316,0.07812l0.28906-1.81641
	l-13.97363-2.20996l-0.28711,1.81641c4.01923,0.63545,3.05634,2.76188,1.29883,13.87109l-11.35156-1.7959
	c1.74573-11.03859,1.48773-13.42866,5.51465-12.79199l0.28711-1.81738L513.71094,76.708l-0.28711,1.81738l0.49414,0.07812
	c2.49219,0.39355,2.62891,2.25391,1.99316,6.27441c-3.43048,21.70081-2.81665,22.78809-6.99222,22.12793l-0.28516,1.81641
	l13.96976,2.20996l0.28906-1.81641c-3.99829-0.63213-3.08936-2.56105-1.2998-13.87109l11.35156,1.79395
	c-1.78271,11.28851-1.52838,13.42419-5.51465,12.79395l-0.28711,1.81641l13.97363,2.20996l0.28516-1.81641
	c-4.29053-0.67968-3.16003-2.09928,0.1709-23.15918C542.22656,84.85155,542.90332,83.18749,545.41211,83.58398z M566.16895,89.20702
	l0.47949-1.77734l-13.66113-3.68457l-0.47559,1.77539c4.26282,1.14769,2.85846,2.64448-2.64941,23.05957
	c-1.08203,4.00684-1.92773,5.57129-4.38184,4.91602l-0.48242-0.13086l-0.47949,1.77637l13.66016,3.68457l0.47949-1.77539
	l-0.48242-0.12988c-3.46832-0.93748-2.34949-2.62036,3.11621-22.88477c0.52344-1.9375,0.98047-3.3125,1.64355-4.17578
	C563.84735,88.67115,564.88007,88.85812,566.16895,89.20702z M573.90918,123.67773
	c-20.1629-7.80942-8.21545-38.65227,11.94629-30.83984C606.06372,100.66819,593.99078,131.45485,573.90918,123.67773z
	 M574.57324,121.96288c9.64484,3.7335,16.55963-13.20794,15.45703-20.95996c-1.20374-8.44671-12.52563-11.55102-18.55078,4.00098
	C568.15723,113.58593,569.31348,119.92577,574.57324,121.96288z M628,115.94628l0.88672-1.61035l-7.70117-4.23047l-0.88574,1.6123
	c3.6582,2.01244,2.17603,3.20242-5.45898,17.10058l-2.38574-23.50878l-8.39258-4.61133l-0.88281,1.61133l0.4375,0.24121
	c2.22656,1.22363,1.74316,2.9541-0.27246,6.62207c-10.5387,19.18084-10.33911,20.45272-14.05176,18.41406l-0.88672,1.61034
	l7.66113,4.20996l0.88379-1.61426c-3.72913-2.04767-2.51825-2.57677,8.58203-22.78222l3.22656,31.37011l1.44531,0.79297
	C624.52679,115.10788,624.1308,113.82167,628,115.94628z M640.87598,152.29393c-5.60938,6.00873-6.67645,3.56471-16.5918-3.62305
	l8.08789-11.1543c6.34521,4.60217,8.16046,5.46323,5.07324,9.72363l1.48828,1.0791l6.79688-9.37598l-1.48828-1.0791
	c-3.03168,4.17984-4.21802,2.92696-10.79102-1.83691l7.75977-10.70116c9.25818,6.71497,12.10162,7.19746,8.11914,14.35155
	l1.47656,1.07129l4.54785-7.43848l-21.72363-15.75097l-1.08105,1.48828c1.10779,0.80155,1.87567,1.46887,1.52832,2.92188
	c-0.25195,1.05371-1.02441,2.26172-2.19141,3.86816c-12.70868,17.53111-12.80261,19.06031-16.26172,16.5537l-1.0791,1.48926
	l22.2168,16.10742l5.58496-6.62695L640.87598,152.29393z M650.55273,172.41991l-10.58984-10.02539l1.26465-1.33691
	c0.97217,0.91995,1.78461,1.57779,3.14355,0.97559c0.98438-0.4375,2.03418-1.42578,3.40918-2.87891
	c14.97784-15.82304,16.35278-16.12505,13.27637-19.04395l1.2627-1.33691l10.5918,10.02539
	C688.59674,163.64571,666.48737,187.49335,650.55273,172.41991z M648.99707,168.41405l2.82129,2.66895
	c5.94043,5.61914,13.51367-1.09668,16.49414-4.24609c6.20703-6.55859,7.45312-12.80273,3.33398-16.70312l-2.81934-2.66895
	L648.99707,168.41405z M511.36813,182.50804c-2.62988,5.85986-6.79541,11.65967-13.25049,16.66614h-20.61279
	c-20.0415-15.54358-18.04858-38.71765-16.37524-47.61584c-0.55176-1.1145-0.84668-2.50977-0.72485-3.89526
	c0.27441-3.11621,2.47461-4.99414,5.89746-5.04688c-0.00586-0.00781-0.01172-0.0166-0.01709-0.02441
	c-0.5-0.72461-1.43066-2.07422-0.50488-4.11719c0.53564-1.18262,1.60156-2.03906,2.92432-2.34863
	c0.59473-0.13867,1.18359-0.15137,1.66992-0.05078c0.05127-1.18359,0.3667-2.98535,1.69287-4.21191
	c1.16357-1.07617,2.84375-1.49219,4.99658-1.2334c0.09961,0.01367,0.2002-0.01758,0.26611-0.08301
	c0.03516-0.03418,0.0752-0.0918,0.06689-0.1709c-0.11279-1.05762,0.09863-1.8916,0.62988-2.47948
	c0.96631-1.06738,2.73096-1.05957,4.14307-1.04688c0.62402,0.00781,1.56348,0.01172,1.72168-0.15723
	c0.07715-0.18262,0.03613-0.70703-0.11426-0.99512c-0.32666-0.60156-1.31592-0.51758-2.47949-0.35547
	c-0.89453,0.12305-1.66406,0.23047-1.95654-0.37207c-0.30029-0.62109,0.01709-1.45898,0.84961-2.24316
	c1.70703-1.60742,4.97168-2.53906,8.10547-0.7832c1.27344,0.70703,2.45361,1.82031,2.45654,3.04102
	c1.69531-0.16602,5.18262-0.00586,6.8457,1.7793c1.03125,1.10742,1.19727,2.60546,0.49316,4.45116l-0.01172,0.03223
	c0.1582,0.04102,0.42871,0.07715,0.64062,0.10449c0.92773,0.12305,2.33105,0.30762,3.5791,1.39453
	c1.55859,1.35156,2.78418,3.87109,2.0498,5.93945c3.40723-0.13867,6.27637,1.5127,8.00394,4.54688
	c0.92065,1.61731,1.39062,3.43945,1.4209,5.11401c0.30249,1.12134,1.06396,4.24268,1.46069,8.56409
	c5.32959-2.96729,12.01978,0.48181,12.97144,6.84875C529.51196,172.49669,520.66406,179.66356,511.36813,182.50804z
	 M494.04636,175.84154c1.09814-0.63354,2.31909-1.33801,3.62964-2.09412c0.17871,0.10413-0.0083,0.03674,4.06763,1.12903
	c0.50586,0.1355,1.10645-0.17969,1.22388-0.70654c0.28369-1.27417-1.14551-1.34131-2.88867-1.80835
	c0.58276-0.33643,1.17603-0.67847,1.77734-1.02539c1.03735-0.59802,0.10059-2.22058-0.93604-1.62122
	c-0.60107,0.34729-1.19385,0.68982-1.77661,1.02661c0.44019-1.6427,1.15747-3.00378-0.12183-3.40588
	c-0.51489-0.16187-1.08813,0.20093-1.22363,0.70654c-1.12061,4.18164-1.05688,3.88184-1.05615,4.08716
	c-1.31006,0.75696-2.53052,1.46204-3.62842,2.09631c0.45483-1.69714,0.90942-3.39417,1.36426-5.09119
	c0.13135-0.4906-0.1333-0.96655-0.5708-1.17102c-0.90015-0.62915-1.11914-0.08899-5.02661,3.81824
	c0.00049-1.26782,0.00098-2.67737,0.00146-4.19043c0.17822-0.10205-0.06543,0.11865,3.01147-2.95825
	c0.37012-0.37012,0.39771-1.04797,0-1.41309c-0.96167-0.88269-1.73462,0.32153-3.0105,1.59766
	c0.00024-0.6731,0.00049-1.35767,0.00073-2.052c0.00073-1.19751-1.8728-1.19751-1.87207,0
	c0.00024,0.69434,0.00049,1.37891,0.00073,2.052c-1.20264-1.20264-2.02246-2.50439-3.01025-1.59766
	c-0.39795,0.36511-0.37036,1.04297,0,1.41309c3.06104,3.06128,2.83301,2.8562,3.01147,2.95825
	c0.00049,1.51306,0.00073,2.92261,0.00122,4.19043c-1.24243-1.24231-2.48462-2.48462-3.72705-3.72705
	c-0.35913-0.35913-0.90381-0.36792-1.29956-0.09119c-0.99487,0.46484-0.63647,0.92468,0.79346,6.26221
	c-1.0979-0.63428-2.31836-1.33936-3.62842-2.09631c0.00073-0.20557,0.07007,0.11597-1.05615-4.08716
	c-0.3501-1.30713-2.26147-0.71973-1.93018,0.51721l0.58472,2.18213c-0.58252-0.33679-1.17554-0.67932-1.77661-1.02661
	c-1.03662-0.59937-1.97339,1.02319-0.93604,1.62122c0.60132,0.34692,1.19458,0.68896,1.77759,1.02539
	c-1.64307,0.44006-3.18018,0.49951-2.88892,1.80835c0.11743,0.52686,0.71826,0.84204,1.22388,0.70654
	c4.18164-1.12048,3.89014-1.02563,4.06763-1.12903c1.31055,0.7561,2.53149,1.46057,3.62964,2.09412
	c-1.69727,0.45483-3.39404,0.90942-5.09131,1.36426c-0.99902,0.26758-0.99902,1.89185,0,2.15955
	c1.69727,0.45471,3.39404,0.9093,5.09131,1.36414c-1.09814,0.63354-2.31909,1.33813-3.62964,2.09424
	c-0.17773-0.10352,0.1355-0.00281-4.06763-1.12903c-1.30713-0.35046-1.75415,1.59875-0.51733,1.9303l2.18237,0.58459
	c-1.39526,0.80481-2.71094,1.22351-2.08545,2.28394c0.60742,1.07471,1.60498,0.15393,3.02051-0.66394
	c-0.44019,1.6427-1.15747,3.00378,0.12183,3.40576c0.51489,0.16199,1.08813-0.20093,1.22363-0.70654
	c1.12061-4.18152,1.05688-3.88171,1.05615-4.08716c1.31006-0.75684,2.53052-1.46191,3.62842-2.09619
	c-0.45459,1.69702-0.90942,3.39404-1.36401,5.09106c-0.13159,0.49072,0.13306,0.96667,0.57056,1.17114
	c0.39575,0.27661,0.94043,0.26782,1.29956-0.09131c1.24243-1.24231,2.48462-2.48462,3.72705-3.72705
	c-0.00049,1.26794-0.00073,2.67749-0.00122,4.19043c-0.17847,0.10217,0.06519-0.11865-3.01147,2.95825
	c-0.37036,0.37012-0.39795,1.0481,0,1.41309c0.96143,0.88281,1.73438-0.32141,3.01025-1.59753
	c-0.00024,0.67297-0.00049,1.35767-0.00073,2.052c-0.00073,1.19739,1.8728,1.19739,1.87207,0
	c-0.00024-0.69434-0.00049-1.37903-0.00073-2.052c1.20264,1.20264,2.02271,2.50427,3.0105,1.59753
	c0.39771-0.36499,0.37012-1.04297,0-1.41309c-3.06128-3.06116-2.83325-2.8562-3.01147-2.95825
	c-0.00049-1.51294-0.00098-2.92249-0.00146-4.19043c3.5708,3.57068,4.05688,4.49622,5.02661,3.81836
	c0.4375-0.20447,0.70215-0.68042,0.5708-1.17114c-0.45483-1.69702-0.90942-3.39404-1.36426-5.09106
	c1.0979,0.63428,2.31836,1.33936,3.62842,2.09619c-0.00073,0.20557-0.07007-0.11597,1.05615,4.08716
	c0.1355,0.50562,0.70874,0.86853,1.22363,0.70654c1.24536-0.39136,0.58887-1.66272,0.12183-3.40576
	c1.39453,0.80566,2.41479,1.7356,3.02051,0.66394c0.23706-0.40173,0.21216-0.95886-0.30786-1.25867
	c-0.60132-0.34692-1.19458-0.68896-1.77734-1.02527c1.64282-0.44006,3.17993-0.49951,2.88867-1.80835
	c-0.11743-0.52698-0.71802-0.84204-1.22388-0.70654c-4.18164,1.12048-3.89014,1.02551-4.06763,1.12903
	c-1.31055-0.7561-2.53149-1.46069-3.62964-2.09424c4.87769-1.30701,5.92236-1.26514,5.82007-2.44385
	c0.04175-0.4812-0.23828-0.94849-0.72876-1.07983C497.4404,176.75096,495.74362,176.29637,494.04636,175.84154z
	 M511.48434,143.72752c-0.91016-1.59766-3.06055-4.25391-7.14941-4.03906c-0.35156,0.01855-0.66895-0.13672-0.86035-0.40527
	c-0.1748-0.24609-0.21289-0.56055-0.10156-0.84082c0.57031-1.43555-0.18848-3.60547-1.72852-4.94141
	c-1.02246-0.88965-2.19727-1.04492-3.05469-1.15723c-0.66211-0.08789-1.18555-0.15625-1.43457-0.57227
	c-0.12402-0.20898-0.14551-0.45312-0.06348-0.72656v-0.03711l0.05762-0.12207c0.5752-1.47266,0.48926-2.61133-0.28223-3.44042
	c-1.64648-1.7666-5.90625-1.58984-6.60156-1.37109l-1.06494,0.33203l0.46045-1.01562
	c0.41309-0.91211-0.73926-1.95605-1.85205-2.57324c-3.10254-1.74023-5.89111-0.34375-6.93262,0.6377
	c-0.47949,0.45117-0.63086,0.80859-0.64551,0.98438c0.20215,0.00977,0.61572-0.04492,0.9292-0.08887
	c1.1875-0.16504,2.81543-0.39062,3.5,0.87793c0.25293,0.4834,0.37891,1.3291,0.14648,1.8623
	c-0.30957,0.77539-1.39209,0.77246-2.64307,0.75879c-1.21973,0.00098-2.72949-0.01758-3.39502,0.71777
	c-0.33643,0.37207-0.45996,0.92969-0.37695,1.70312c0.03809,0.36719-0.09326,0.72754-0.36084,0.99023
	c-0.28467,0.2793-0.68311,0.41113-1.08691,0.36133c-1.84814-0.2168-3.25928,0.1084-4.19775,0.97559
	c-1.34326,1.24316-1.40918,3.30566-1.37549,4.13477l0.01318,0.32324l-0.28906,0.21289l-0.28906,0.14355l-0.25-0.20508
	c-0.19287-0.15625-0.82568-0.29492-1.62305-0.10742c-0.59814,0.14062-1.68457,0.55859-2.24121,1.78711
	c-0.69238,1.52832-0.05127,2.45801,0.41699,3.1377c0.26025,0.37695,0.50635,0.7334,0.31738,1.12793
	c-0.19434,0.40625-0.69775,0.44336-0.93945,0.46191c-4.26514,0.00098-4.97559,2.89258-5.08496,4.13672
	c-0.20312,2.30859,0.97656,4.81934,2.38184,5.06836c2.26416,0.40234,2.72656,0.94824,2.86084,1.94629
	c0.02881,0.21484,0.05176,0.38379,0.1665,0.55957c0.28076,0.42871,1.02148,0.41309,1.67822,0.39648
	c0.10889-0.00293,0.2168-0.00488,0.32227-0.00488c0.51709,0,0.97266,0.06055,1.18115,0.47656
	c0.24365,0.48438-0.08545,1.06934-0.65479,1.79785c-1.00391,1.28418-1.03809,3.4541-0.4917,4.81055
	c0.19043,0.47266,0.62695,1.2832,1.4082,1.39453c0.79004,0.11426,1.39844-0.00684,1.86865-0.3623
	c0.62793-0.47363,1.04346-1.41895,1.23535-2.80859c0.13818-1.00391-0.01514-1.68848-0.16357-2.35059
	c-0.21143-0.94336-0.41113-1.83594,0.30859-3.22461c0.71338-1.36914,3.0752-3.15137,5.13037-2.83691
	c0.71045,0.11035,1.22217,0.65918,1.7168,1.18945c0.3877,0.41602,0.78857,0.8457,1.19678,0.93164
	c0.2002,0.04199,0.59033,0.03711,0.96533,0.03418c0.91602-0.01465,1.85352-0.02148,2.31885,0.46289
	c0.18457,0.19238,0.2749,0.43848,0.26123,0.71289c-0.01855,0.36328-0.08154,0.69141-0.13721,0.98047
	c-0.14502,0.75293-0.25,1.29785,0.42627,2.19238c0.34131,0.45215,0.80811,0.65527,1.4082,0.60547
	c0.51709-0.04395,1.1167-0.29004,1.60352-0.6582c0.67383-0.50977,0.65967-1.24512,0.64307-2.0957
	c-0.01904-0.99023-0.04297-2.22266,1.45068-2.67383c0.30811-0.09277,0.58203-0.1875,0.83105-0.27344
	c1.29102-0.44434,2.2251-0.76855,3.64062,0.79883c1.23438,1.36816,0.88721,2.63672,0.6333,3.5625
	c-0.0835,0.30566-0.1626,0.59473-0.17773,0.8457c-0.00781,0.12695-0.16357,3.06543,2.24512,3.39258
	c0.4502,0.05469,0.93457-0.09473,1.37695-0.43359c0.5957-0.45898,0.99219-1.1582,1.08789-1.9209
	c0.13184-1.07715-0.11621-1.42773-0.52832-2.00879c-0.22754-0.32129-0.48535-0.68457-0.72363-1.21777
	c-0.14355-0.32227-0.31348-0.80371-0.11719-1.25098c0.20703-0.47266,0.69336-0.63672,1.12207-0.78125
	c0.33203-0.11133,0.6748-0.22656,0.88672-0.46289c0.20801-0.2334,0.30664-0.61621,0.40137-0.98633
	c0.13086-0.51172,0.2666-1.04199,0.76562-1.23047c0.46973-0.17969,0.96191,0.09668,1.29102,0.31934
	c0.58594,0.39648,0.84473,0.25586,1.12012,0.1084c0.19336-0.10352,0.5918-0.32031,0.95508,0.00391
	c0.52441,0.47168,0.29199,1.21777,0.08691,1.87695c-0.1123,0.35938-0.22852,0.73242-0.21875,1.00391
	c0.0293,0.83203,0.4375,1.40332,1.09082,1.5293c0.52344,0.10059,1.21973-0.10938,1.52734-0.80371
	c0.21191-0.48047-0.01562-1.01953-0.25781-1.58887c-0.30859-0.72852-0.73145-1.72559,0.1582-2.54199
	c0.0791-0.07324,0.33691-0.28125,0.65332-0.2666c0.32129,0.03027,0.5,0.26758,0.61914,0.4248
	c0.13379,0.17871,0.21289,0.27344,0.40527,0.29688c1.16504,0.13379,2.05957-0.25488,2.66507-1.16602
	C513.22266,149.72264,512.98926,146.37108,511.48434,143.72752z M515.47241,161.22557
	c0.08374,4.59705-0.36523,9.99512-1.99585,15.55847c4.49609-1.96033,8.57764-5.16113,9.42383-9.65198
	C523.84424,162.13133,519.09302,158.82347,515.47241,161.22557z M484.19821,184.77977
	c2.77734-2.77759,2.59717-2.63037,2.81714-2.7395c0-0.85767,0.00024-1.58154,0.00024-2.14087
	c-0.48413,0.27979-1.11084,0.64185-1.85352,1.0708C485.17722,181.21434,485.21359,180.98997,484.19821,184.77977z
	 M491.69699,171.79124c-2.77759,2.77759-2.59741,2.63037-2.81714,2.73962c-0.00024,0.85754-0.00049,1.58142-0.00049,2.14075
	c0.48413-0.27979,1.11108-0.64185,1.85376-1.0708C490.71774,175.35667,490.68137,175.58116,491.69699,171.79124z
	 M484.19821,171.79124c1.0166,3.79431,0.97925,3.56458,0.96387,3.80957c0.74268,0.42896,1.36938,0.79102,1.85352,1.0708
	c0-0.55933-0.00024-1.2832-0.00024-2.14075C486.79611,174.4221,486.97238,174.56566,484.19821,171.79124z M490.73312,180.9702
	c-0.74268-0.42896-1.36963-0.79102-1.85376-1.0708c0,0.55933,0.00024,1.2832,0.00049,2.14087
	c0.21899,0.10864,0.04272-0.03491,2.81714,2.7395C490.68015,180.98558,490.71774,181.21532,490.73312,180.9702z
	 M486.08395,178.28563c-0.48438-0.27954-1.11133-0.64136-1.85425-1.07007c-0.20361,0.13525,0.00879,0.05444-3.78101,1.07007
	c3.79419,1.0166,3.57666,0.93408,3.78101,1.06995C484.97263,178.92686,485.59958,178.56505,486.08395,178.28563z M489.811,178.28563
	c0.48438,0.27942,1.11133,0.64124,1.85425,1.06995c0.20386-0.13538-0.00879-0.05457,3.78101-1.06995
	c-3.79419-1.01672-3.57642-0.9342-3.78101-1.07007C490.92233,177.64427,490.29538,178.00609,489.811,178.28563z
	 M650.88086,396.13281c-31.05566-0.10156-83.32715-0.23145-84.48926,0.03906l0.44141,1.89844l0.09766,1.04785
	c2.21875-0.20605,61.34473-0.05859,83.94043,0.01465L650.88086,396.13281z M409.46481,396.13281
	c-31.05469-0.10059-83.32568-0.23145-84.48926,0.03906l0.44141,1.89844l0.09766,1.04785
	c2.21973-0.20703,61.34521-0.05859,83.94043,0.01465L409.46481,396.13281z M666.63647,385.74036
	c-4.89392,1.02319-3.48596,8.12244,1.36401,7.29395c7.88721-1.57446,15.98169-1.42322,23.30096,1.40799
	c7.73718,2.94171,13.81598,8.25439,19.99652,13.80109c7.35413,6.79114,13.90649,11.37927,24.44781,11.48392
	c12.75604,0.36426,32.32062-5.99408,31.97485-21.4845c-0.78931-8.93903-8.67517-18.36722-17.38672-20.71939
	c-9.25684-2.4906-19.52032,1.4744-24.75269,9.50748c-1.98291,2.95901-3.01471,8.04044-0.34662,11.06586
	c5.47736,6.88,21.28827,10.02429,24.42761-0.53574c0.27032-1.59042,1.29834-4.90985-1.09827-5.08334
	c-0.83215,0.00171-1.50433,0.68259-1.49615,1.51447c0.31879,9.51352-11.80267,7.95505-17.05231,3.8291
	c-3.52246-2.45987-3.31824-5.49597-1.21545-8.7713c2.04639-3.13,5.43433-5.52576,9.06104-6.85181
	c3.64551-1.34143,7.65454-1.56689,11.25897-0.46555c5.52936,1.60315,9.78192,6.43567,12.2616,11.5647
	c5.13495,10.00711-4.67072,17.03152-13.60852,19.33588c-7.32678,1.94318-16.14966,2.13708-22.80121-1.52402
	c-3.25122-1.84619-6.30688-4.68018-9.42084-7.55176C701.1922,389.4144,687.32721,382.04272,666.63647,385.74036L666.63647,385.74036
	z M672.25049,398.021c-3.57532-0.10617-3.58533,5.13602-0.0282,5.06503c13.07202,0.26334,26.55682,10.16885,31.92218,22.08774
	c0.25372,0.58679,1.12433,0.23187,0.93524-0.35468C700.49426,411.36838,686.67975,399.4751,672.25049,398.021L672.25049,398.021z
	 M301.84152,392.83728c4.9278,0.85828,6.25681-6.24774,1.42712-7.28152c-20.27231-3.78864-33.49124,4.01376-47.12375,18.09146
	c-5.92705,5.94714-10.867,9.99356-19.50079,10.12912c-9.57385,0.39685-25.34882-4.24112-25.02618-15.84238
	c0.78088-6.8367,6.43837-14.40186,13.05482-16.43765c7.97969-2.66321,20.01869,3.13528,20.61133,12.07437
	c-0.74792,5.92831-13.46368,10.04581-17.34708,5.11694c-1.00568-1.23886-1.40805-3.03265-1.40332-4.8941
	c-0.03255-1.95154-2.9201-1.98773-2.99956-0.03317c-0.33356,5.12656,2.92223,9.77628,8.32996,10.30246
	c5.77391,0.56754,11.82292-1.58838,15.50291-6.16443c3.95906-5.34225-0.23573-12.45547-4.58032-16.02051
	c-9.52187-8.05624-22.9557-6.79391-30.50424,3.22253c-15.87285,19.80884,4.73889,34.79379,24.51028,34.44818
	c4.47266-0.09155,9.08618-0.87793,13.35043-3.18018c7.7021-4.45602,12.69722-11.08463,19.46507-16.15143
	C278.69962,392.76398,290.29254,390.19376,301.84152,392.83728L301.84152,392.83728z M297.87741,402.89539
	c1.51794,0.09912,2.80884-1.19968,2.68652-2.71912c-0.10205-1.39783-1.31812-2.44824-2.71582-2.34619
	c-4.02563,0.29395-7.5293,1.60229-10.78638,3.2341c-9.47745,4.89719-17.33371,13.43369-20.55927,23.57138
	c-0.19553,0.60156,0.70679,0.90988,0.93723,0.34735c2.68399-6.27704,7.23489-11.54266,12.62814-15.45331
	C285.16714,405.87302,291.69028,402.8082,297.87741,402.89539L297.87741,402.89539z"/>
<path fill="none" stroke="#000000" stroke-miterlimit="10" d="M361.4975,736.28809c0.85037,0,2.38248,0,4.3569,0
	c-16.28918,0-18.11371,14.24567-8.80481,16.16254c-0.66684,0.12775-1.37482,0.21759-2.17563,0.21759
	C343.19031,752.66821,344.03384,736.28809,361.4975,736.28809z M507.27942,794.96759
	c1.38669,0.49146,2.96442,0.77863,4.75415,0.77863c0,0-1.37091-10.04675,4.32269-12.5174
	c-0.52216-0.34338-1.13055-0.54749-1.8493-0.54749C506.87357,782.68134,507.06177,792.18439,507.27942,794.96759z
	 M514.17468,760.77026c0.69781,0.16187,1.51031,0.25421,2.45612,0.25421c17.32892,0,21.3175-39.60974-8.38977-39.60974
	c-0.82199,0-1.63141,0.03656-2.43295,0.09497C531.79364,723.38275,529.13806,757.63849,514.17468,760.77026z M201.22789,727.55499
	c-0.55484-0.36346-1.22829-0.55542-2.05374-0.55542c-11.07063,0-17.20413,27.49542,0.93181,24.28809
	C188.79283,749.14581,193.13763,730.96088,201.22789,727.55499z M297.2897,777.35986
	c-7.7511,1.48889-10.56152,6.43195-11.06659,13.54095c0.74506,2.31738,0.77148,3.27289,1.85944,5.11407
	c-1.96567-7.34631,1.37943-15.86334,8.62137-17.34222c2.1066-0.50415,3.27634,0.07709,5.36441-0.32202
	c-0.09048-9.26318,0.45444-27.9118,7.59018-31.14734c-0.70486-0.33142-1.45111-0.51611-2.24414-0.51611
	C297.98499,746.68719,297.18982,767.13635,297.2897,777.35986z M302.34372,790.55151
	c-0.29755-0.84882-0.92413-1.54871-2.19644-1.54871c-4.91769,0-3.24731,14.38153,5.10355,14.38153
	c0.73489,0,1.43149-0.14148,2.09323-0.39929C302.43982,801.19562,300.78491,793.80261,302.34372,790.55151z M302.55493,778.74567
	c6.76166,1.34631,8.26718,8.56866,5.33832,12.27271c0.12335,1.13086-0.0885,2.19257-0.0885,2.19257
	c8.73514,0,8.63525-14.69153-2.87888-14.69153C304.08664,778.51941,303.30588,778.61102,302.55493,778.74567z M560.26489,742.62262
	c-9.42657,0-10.22418,20.43665-10.12469,30.66309c1.94647,0.58209,3.45477,0.24353,4.67914,0.00952
	c-0.09058-9.26318,0.55389-26.92096,7.68964-30.15649C561.80414,742.80731,561.05786,742.62262,560.26489,742.62262z
	 M694.15643,742.76978c-9.43048,0-10.22357,19.91187-10.12469,29.86682c0,0,1.85278-0.48901,4.62531,0.01312
	c0.01837-0.00354,0.03528-0.00964,0.05377-0.01312c-0.08954-9.0199,0.55316-26.21368,7.68958-29.36426
	C695.69562,742.94971,694.94934,742.76978,694.15643,742.76978z M644.90027,760.91174
	c0.69434,0.164,1.50244,0.25952,2.44849,0.25952c17.06476,0,20.99268-39.00616-8.26184-39.00616
	c-0.81671,0-1.62073,0.03711-2.41699,0.0957C662.18311,724.14294,659.58954,757.77509,644.90027,760.91174z M688.82367,786.54315
	c-0.28876-0.82874-0.89691-1.51208-2.13177-1.51208c-4.77289,0-3.15167,14.04126,4.95331,14.04126
	c0.71326,0,1.38922-0.13824,2.03149-0.38995C688.91687,796.93524,687.31079,789.71722,688.82367,786.54315z M689.09558,774.74841
	c6.76147,1.34631,8.26703,8.56866,5.33813,12.27271c0.12335,1.1308-0.0885,2.19263-0.0885,2.19263
	c8.73517,0,8.63525-14.69159-2.87885-14.69159C690.62714,774.52216,689.8465,774.61383,689.09558,774.74841z M632.91144,808.52875
	c-19.95758-4.24146-13.61859-69.30212,3.75848-74.89954c-0.58167-0.25598-1.23761-0.39465-1.97125-0.39465
	c-19.784,0-27.51996,75.51123-4.05811,75.51123C631.42438,808.74579,632.17688,808.65967,632.91144,808.52875z M555.32709,786.6142
	c-0.28632-0.81671-0.88928-1.49005-2.1134-1.49005c-4.73187,0-3.12463,13.83783,4.91052,13.83783
	c0.70709,0,1.37738-0.13617,2.0141-0.38422C555.41943,796.85596,553.82703,789.74231,555.32709,786.6142z M555.35376,774.47308
	c6.76141,1.34631,8.26709,8.56879,5.33807,12.27283c0.12329,1.1308-0.0885,2.1925-0.0885,2.1925
	c8.73523,0,8.63525-14.69159-2.87872-14.69159C556.88531,774.24683,556.10468,774.33856,555.35376,774.47308z M638.13611,794.85248
	c1.38293,0.50055,2.96051,0.79413,4.75494,0.79413c0,0-1.34729-9.84589,4.21002-12.31104
	c-0.51923-0.34833-1.12671-0.55463-1.84552-0.55463C637.76105,782.78094,637.9223,792.07874,638.13611,794.85248z
	 M503.13016,810.72815c-21.70169-4.36542-14.80539-72.48218,4.07892-78.24927c-0.62299-0.25873-1.32266-0.4007-2.10507-0.4007
	c-21.45453,0-29.8443,78.87091-4.40103,78.87091C501.54041,810.9491,502.34454,810.86084,503.13016,810.72815z M593.33185,760.15485
	c-2.35968-15.00311-11.32745-25.68433-26.78711-25.68433c-0.80603,0-1.57562,0.05658-2.34406,0.11475
	c16.93896,1.50665,24.755,19.35327,24.4704,36.92841c-0.27533,16.99933-8.09045,33.74469-24.81525,35.20386
	c0.74091,0.07141,1.50146,0.11499,2.29132,0.11499c13.30951,0,21.77655-9.26721,25.53717-21.15466
	C590.27686,778.02625,591.44836,764.55402,593.33185,760.15485z M650.03802,769.83929c-0.8811,0-1.71796,0.05133-2.53394,0.12549
	c24.12457,2.53992,20.15784,47.86725-17.52679,49.50732c0.84601,0.05133,1.70782,0.0802,2.58978,0.0802
	C673.33405,819.55231,676.99066,769.83929,650.03802,769.83929z M215.90695,760.11658
	c6.15709-6.10211,5.89806-14.03491,1.90514-18.33636c-1.76718-0.95093-3.40639-1.80756-6.18993-1.80756
	c0,0,0.02347,0.25018,0.03719,0.65314c12.06007,3.67145,7.99335,22.38721-12.03061,23.78448
	c0.71901,0.04254,1.43179,0.09204,2.18858,0.09204C208.15306,764.50232,212.38078,762.47705,215.90695,760.11658z
	 M531.54572,777.07062c-2.91595-4.20032-6.91113-7.73071-13.31641-7.73071c-0.88568,0-1.72736,0.05048-2.54816,0.12372
	c24.55981,2.50629,21.01245,48.77106-17.3266,50.38519c0.85217,0.05072,1.72043,0.07904,2.6084,0.07904
	c23.23871,0,33.44012-15.53192,34.09668-29.3714C533.25946,786.74664,532.05731,782.07574,531.54572,777.07062z
	 M731.86456,813.68085c2.03546,0,1.32251,5.8714-0.55963,5.8714h4.51807c1.80731,0,2.64832-5.8714,0.55969-5.8714h-1.70758
	l5.46198-19.7738l-3.90259-2.63452l-6.07751,22.40833H731.86456z M750.72131,752.94135l-2.21106-8.82245l-11.91833,46.04236
	l4.06152-2.20892L750.72131,752.94135z M413.88492,719.85223c-0.99615,0-1.90753,0.02637-2.75659,0.07361
	c15.58994,1.17957,14.91251,16.75702,7.57507,21.09857c0.42487,0.66882,0.61453,1.12573,0.61453,1.12573
	C430.44156,742.15015,434.19287,719.85223,413.88492,719.85223z M799.07666,813.21741l-2.71185-0.51721l-22.34467-90.5351h-4.67908
	l22.47247,91.05231h2.58405c1.82965,0,2.48041,6.33484,0.65082,6.33484h4.67908
	C801.52533,819.55225,800.95386,813.21741,799.07666,813.21741z M699.57562,734.47052c-0.80609,0-1.57562,0.05658-2.34406,0.11475
	c33.323,2.96393,33.67126,69.16449-0.34479,72.13226c0.74091,0.07141,1.50146,0.11499,2.29132,0.11499
	C736.40234,806.83252,736.00476,734.47052,699.57562,734.47052z M232.00299,742.41034
	c0-17.59778-7.71053-24.95032-23.52477-24.95032c-0.67802,0-1.32405,0.0481-1.98,0.0816
	c13.98952,0.82281,20.82568,8.30511,20.82568,24.86871c0,3.5611-0.04054,17.74475-0.0817,33.36798l4.76077-2.54175
	C232.00299,758.3316,232.00299,745.80817,232.00299,742.41034z M234.22417,813.84698h-2.22118c0-6.63855,0-18.08167,0-33.6438
	l-4.76146-2.70221c-0.0421,15.98431-0.08453,30.05219-0.08453,36.93848h2.22118c1.91801,0,2.5598,5.44885,0.16692,5.44885h4.67908
	C236.89021,819.88831,236.62909,813.84698,234.22417,813.84698z M241.48817,780.70081l-1.45758,2.60925l2.37398,4.52515
	l4.04106-7.23444l1.94963-2.35028v-1.48895L241.48817,780.70081z M246.44563,772.65851l-4.04106-7.23303l-2.37398,4.49896
	l1.45758,2.6087l6.90709,3.96606v-1.4895L246.44563,772.65851z M398.28955,813.05463h-2.32867v-74.52692h-4.67899v74.52692h2.32858
	c1.71555,0,1.86249,6.83368,0,6.83368h4.67908C400.00656,819.88831,400.64557,813.05463,398.28955,813.05463z M378.37811,750.18878
	c0-3.04352-1.02774-5.58368-2.73505-7.52185c-1.7576-0.96143-3.54187-1.88318-6.32919-1.88318c0,0,0.02362,0.25513,0.03708,0.66321
	c11.88489,3.67169,7.62112,20.95935-9.22278,23.08502c-0.65701,0.10138-1.60275,0.25342-0.82294,0.25342
	c6.08945,0,10.2287-1.09033,13.69629-3.31549C376.30566,758.30548,378.37811,754.0069,378.37811,750.18878z M281.4996,813.68658
	h-2.35272v-26.21692c-2.18259-3.00842-1.8909-18.81708,0-23.85748v-31.03027c6.22427,0,3.47025-6.26624,2.35272-6.26624h-4.67899
	c1.76651,0,2.3161,5.92059,0,5.92059h-2.35272v81.45032h2.35272c1.93472,0,2.073,6.20172,0,6.20172h4.67899
	C283.14792,819.88831,283.3558,813.70154,281.4996,813.68658z M331.71689,745.75507
	c-4.48206-5.19611-10.42255-7.22736-18.2403-7.22736c-0.80606,0-1.57559,0.05621-2.34402,0.11389
	c15.15942,1.33807,22.95001,15.86871,24.32999,31.36542c1.65347,18.56775-6.13342,38.61176-24.67477,40.21704
	c0.741,0.07086,1.5015,0.11407,2.29129,0.11407c23.80945,0,32.99734-28.03058,26.43939-49.20538
	C336.948,760.54651,330.61548,752.25653,331.71689,745.75507z M752.17889,795.05963l-1.45758,2.60931l2.37396,4.52509
	l4.04108-7.23444l1.94965-2.35022v-1.48895L752.17889,795.05963z M757.13635,787.0174l-4.04108-7.23309l-2.37396,4.49902
	l1.45758,2.60864l6.9071,3.96613v-1.4895L757.13635,787.0174z"/>
<path fill="none" stroke="#00FF00" stroke-miterlimit="10" d="M601.73615,164.64453l-20.21698-5.96419l4.38544-8.0694
	l-8.06964,4.38548l-5.96362-20.217l-5.92084,20.217l-8.06915-4.38548l4.3855,8.0694l-20.21698,5.96419l20.21698,5.96419
	l-4.3855,8.0255l8.06915-4.38548l5.92084,20.26088l5.96362-20.26088l8.06964,4.38548l-4.38544-8.0255L601.73615,164.64453z
	 M748.20282,179.26363l-12.40515-3.65962l2.69092-4.95137l-4.95154,2.69093l-3.6593-12.40514l-3.633,12.40514l-4.95117-2.69093
	l2.69092,4.95137l-12.40515,3.65962l12.40515,3.65962l-2.69092,4.92444l4.95117-2.69093l3.633,12.43207l3.6593-12.43207
	l4.95154,2.69093l-2.69092-4.92444L748.20282,179.26363z M402.49625,170.60872l-4.38547,8.0255l8.06964-4.38548l5.96365,20.26088
	l5.92084-20.26088l8.06912,4.38548l-4.38547-8.0255l20.21698-5.96419l-20.21698-5.96419l4.38547-8.0694l-8.06912,4.38548
	l-5.92084-20.217l-5.96365,20.217l-8.06964-4.38548l4.38547,8.0694l-20.21698,5.96419L402.49625,170.60872z M248.21773,182.92325
	l-2.69093,4.92444l4.95154-2.69093l3.65929,12.43207l3.63301-12.43207l4.9512,2.69093l-2.69092-4.92444l12.40512-3.65962
	l-12.40512-3.65962l2.69092-4.95137l-4.9512,2.69093l-3.63301-12.40514l-3.65929,12.40514l-4.95154-2.69093l2.69093,4.95137
	l-12.40514,3.65962L248.21773,182.92325z"/>
<path fill="none" stroke="#00FF00" stroke-miterlimit="10" d="M228.4642,819.88831h-28.09727c-2.09357,0-2.09357-5.00793,0-5.00793
	h2.35136c0-8.23395,0-28.97186,0-48.18298c23.41905-3.81647,24.23036-29.27435,4.05188-29.27435h-3.13654l0.39189,3.13654
	c0,1.17706,0,4.18207-1.30724,6.4046c0-12.7392,0.98076-21.04175-4.31221-21.04175c-10.19341,0-16.98991,26.66125-1.43741,26.66125
	c11.10873,0,9.8015-12.28442,9.8015-12.28442c18.16559,0,14.63716,23.91522-9.93169,23.91522
	c-34.89514,0-29.53604-46.26288,5.87981-46.26288c15.81422,0,23.5247,7.3172,23.5247,24.83057c0,7.18701,0,58.50653,0,72.09821
	h2.22121C230.55757,814.88037,230.55757,819.88831,228.4642,819.88831z M247.80685,776.63043l-6.66498,3.65857l-3.65997,6.66638
	l-3.6586-6.66638l-6.66634-3.65857l6.66634-3.65997l3.6586-6.66498l3.65997,6.66498L247.80685,776.63043z M275.64377,819.88831
	h-28.22882c-2.07225,0-2.07225-5.6875,0-5.6875h2.35138v-82.33258h-2.35138c-2.07285,0-2.07285-5.55255,0-5.55255h28.22882
	c2.07144,0,2.10895,5.19543,0,5.55255h-2.35275v82.33258h2.35275C277.71512,814.20081,277.71512,819.88831,275.64377,819.88831z
	 M307.13898,810.3382c-23.32687,0-25.31161-31.66553-7.54352-31.66553c11.51407,0,11.61398,14.69159,2.87875,14.69159
	c0,0,0.99188-4.86353-2.48224-4.86353c-5.26111,0-3.47409,15.38574,5.4599,15.38574c15.68341,0,15.78333-57.77234,1.38943-57.77234
	c-9.42941,0-10.22455,20.44916-10.12463,30.67267c-6.75046,1.29053-11.11755,7.14697-11.11755,14.9892
	c0,3.47412,0.89297,6.94824,2.58112,10.02582c-14.98923-11.11755-14.49277-62.53595,19.35632-62.53595
	C343.9657,739.26587,344.36328,810.3382,307.13898,810.3382z M413.86819,742.15021c0,0-2.71649-6.46777-11.38269-6.46777
	c-8.40717,0-35.57074,0-40.61584,0c-18.75507,0-19.66101,17.59143-7.11334,17.59143c10.99347,0,9.70099-12.15845,9.70099-12.15845
	c17.97931,0,14.48706,23.66998-9.83118,23.66998c-31.0437,0-29.87872-37.51013,2.71649-37.51013
	c40.35681,0,34.53595-6.72681,51.09259-6.72681C428.74313,720.54846,424.99185,742.15021,413.86819,742.15021z M392.78452,819.88831
	h-27.81049c-2.07004,0-2.07004-6.35742,0-6.35742h2.19977v-48.22742c7.50122-3.23456,11.51154-9.31311,11.51154-15.13397
	c0-6.59662-4.78607-10.86597-10.99481-11.64172h22.76538v75.00311h2.32861
	C394.85483,813.53088,394.85483,819.88831,392.78452,819.88831z M510.33728,761.02454c-7.56491,0-6.60162-5.91522-6.60162-5.91522
	c7.28946-7.28802,8.38977-24.0675-0.13843-24.0675c-21.45456,0-29.84433,79.90735-4.40109,79.90735
	c16.91794,0,23.38113-28.88251,14.44199-28.88251c-8.93918,0-7.15253,13.06482-7.15253,13.06482
	c-17.19046,0-15.95319-25.30475,6.87708-25.30475c27.36975,0,23.65656,50.06158-17.74133,50.06158
	c-54.87656,0-40.98544-98.47351,6.3262-98.47351C531.65485,721.41479,527.6662,761.02454,510.33728,761.02454z M560.12122,806.18774
	c-23.32684,0-25.31158-31.66559-7.54352-31.66559c11.5141,0,11.61401,14.69159,2.87878,14.69159
	c0,0,0.99188-4.86353-2.48224-4.86353c-5.26111,0-3.47412,15.38574,5.4599,15.38574c15.68341,0,15.78333-57.77228,1.3894-57.77228
	c-9.42938,0-10.22455,20.4491-10.12463,30.67261c-6.75043,1.29059-11.11755,7.14697-11.11755,14.98926
	c0,3.47406,0.89301,6.94818,2.58112,10.02576c-14.9892-11.11755-14.49274-62.53595,19.35632-62.53595
	C596.948,735.11536,597.34552,806.18774,560.12122,806.18774z M641.20056,761.17126c-7.44958,0-6.50098-5.82507-6.50098-5.82507
	c7.17834-7.17694,8.26184-23.70074-0.13495-23.70074c-21.12897,0-29.39087,78.68951-4.33398,78.68951
	c16.65863,0,23.02338-28.44226,14.2204-28.44226c-8.80432,0-7.04346,12.86572-7.04346,12.86572
	c-16.92987,0-15.71008-24.91913,6.77228-24.91913c26.95264,0,23.29596,49.29858-17.47095,49.29858
	c-54.04022,0-40.36084-96.97272,6.2298-96.97272C662.19324,722.16516,658.26538,761.17126,641.20056,761.17126z
	 M693.62329,806.18774c-23.3269,0-25.31165-31.66559-7.54358-31.66559c11.5141,0,11.61401,14.69159,2.87878,14.69159
	c0,0,0.99188-4.86353-2.48224-4.86353c-5.26111,0-3.47406,15.38574,5.4599,15.38574c15.68341,0,15.78229-57.77228,1.38947-57.77228
	c-9.43048,0-10.22357,20.4491-10.12469,30.67261c-6.75043,1.29059-11.11749,7.14697-11.11749,14.98926
	c0,3.47406,0.89294,6.94818,2.58112,10.02576c-14.98926-11.11755-14.4928-62.53595,19.35626-62.53595
	C730.45001,735.11536,730.8476,806.18774,693.62329,806.18774z M793.76404,819.55231h-27.61121
	c-1.95544,0-2.77039-5.95026-0.66992-5.95026h0.95264l-18.10071-73.211l-19.02667,73.55084h1.76837
	c2.10791,0,1.38959,5.61041-0.55969,5.61041h-13.46545c-1.79779,0-1.31744-5.61041,0.55969-5.61041h2.17627l23.37921-91.77673
	h24.89014l22.45325,91.43689h2.58411C794.97107,813.60205,795.56226,819.55231,793.76404,819.55231z M751.46375,787.18073
	l7.07214,3.80774l-7.07214,3.8092l-3.80914,6.93665l-3.6723-6.93665l-7.07355-3.8092l7.07355-3.80774l3.6723-6.93665
	L751.46375,787.18073z"/>
<path fill="#E94E1B" d="M929.9444,84.0316h0.02698c0,0.29718-0.04016,1.79791-0.04016,4.12238h-2.39276L929.9444,84.0316z
	 M927.95752,47.82238c0-0.1637-0.07288-0.4046-0.45148-0.4046h-0.80481v0.82605h0.75726
	C927.79419,48.24382,927.95752,48.12774,927.95752,47.82238z M918.15204,65.04445h-1.7254v1.71228h1.66217
	c0.65942,0,1.039-0.2854,1.039-0.9364C919.12781,65.25862,918.64014,65.04445,918.15204,65.04445z M918.08429,53.30495h-1.38232
	v4.45392h1.40186c1.17096,0,1.56451-1.16559,1.56451-2.28369C919.66833,53.46584,918.69873,53.30495,918.08429,53.30495z
	 M936.03156,62.4225c-0.73193,0-1.76178,0.44586-1.76178,2.23846c0,1.79254,1.02985,2.23846,1.76178,2.23846
	c0.73163,0,1.76141-0.44592,1.76141-2.23846C937.79297,62.86836,936.76318,62.4225,936.03156,62.4225z M918.97412,63.25185
	c0-0.52618-0.37921-0.68665-0.99341-0.68665h-1.55408v1.40009h1.59003C918.54962,63.96529,918.97412,63.76009,918.97412,63.25185z
	 M939.43671,47.82238c0-0.1637-0.07318-0.4046-0.45184-0.4046h-0.80408v0.82605h0.7572
	C939.27338,48.24382,939.43671,48.12774,939.43671,47.82238z M943.25385,62.5652h-1.6897v1.71234h1.59003
	c0.70471,0,1.04828-0.24072,1.04828-0.87396C944.20245,63.06447,944.04865,62.5652,943.25385,62.5652z M969.79132,24.68648v72h-72
	v-72H969.79132z M948.88397,41.28709h2.35345v-5.12854c0-1.36157,0.80707-2.06799,1.84961-2.06799
	c1.4964,0,1.52991,1.10962,1.52991,1.76538v5.43115h2.35413v-6.18756c0-1.96735-1.36151-2.99274-3.11053-2.99274
	c-1.27802,0-2.28632,0.65576-2.5896,1.39575h-0.03351v-4.28796h-2.35345V41.28709z M948.09052,63.93837v-1.34631h3.44232v-1.13281
	h-4.77008v6.4035h4.92346v-1.13251h-3.5957V65.0713h3.16205v-1.13293H948.09052z M952.00745,58.9341v-1.20343h-3.82074v-1.76282
	h3.35999v-1.20374h-3.35999v-1.4306h3.65784v-1.20374h-5.06866v6.80432H952.00745z M952.08618,49.97356v-0.54633h-1.71216v-0.80042
	h1.50562v-0.54633h-1.50562v-0.64954h1.63965v-0.54633H949.742v3.08893H952.08618z M946.49634,48.43346
	c0,1.06702,0.58954,1.62177,1.41193,1.62177c0.77411,0,1.21271-0.46906,1.34161-1.13989h-0.64514
	c-0.0769,0.37866-0.32666,0.58075-0.68402,0.58075c-0.54633,0-0.76599-0.49908-0.76599-1.05414
	c0-0.87335,0.45624-1.07983,0.76599-1.07983c0.53381,0,0.63275,0.34857,0.68402,0.53351h0.64514
	c-0.03369-0.45624-0.40863-1.09302-1.33356-1.09302C947.1203,46.8026,946.49634,47.35332,946.49634,48.43346z M939.00885,37.06694
	c0,1.88312,0.77356,4.45563,4.13666,4.45563c3.27826,0,4.0011-2.57251,4.08533-3.49731h-2.3877
	c0,0.42029-0.4032,1.56348-1.59698,1.56348c-1.78253,0-1.8161-1.93378-1.8161-2.90857c0-1.10962,0.38678-2.5896,1.86676-2.5896
	h0.117c1.00903,0,1.34583,0.87415,1.44647,1.44641h2.38763c-0.21906-2.7915-2.53894-3.43018-3.95111-3.43018
	C940.26978,32.1068,939.00885,34.17473,939.00885,37.06694z M945.66589,67.86275v-0.16956
	c-0.28906-0.10675-0.28906-0.33875-0.28906-1.27515c0-1.19501-0.28906-1.39142-0.82202-1.62347
	c0.64148-0.21387,1.00256-0.82019,1.00256-1.52496c0-0.55304-0.31628-1.81036-2.04163-1.81036h-3.27936v6.4035h1.32776v-2.5061
	h1.40057c1.00269,0,1.0567,0.33875,1.0567,1.21277c0,0.6601,0.05444,0.99017,0.14459,1.29333H945.66589z M943.72308,70.30403
	v4.16583h-0.01642l-2.40533-4.16583h-1.33362v5.98236h1.1817v-4.26593h0.01678l2.47241,4.26593h1.26654v-5.98236H943.72308z
	 M945.91803,53.33351v-1.20374h-5.60608v1.20374h2.08313v5.60059h1.43976v-5.60059H945.91803z M941.28802,48.08049v-0.64954h1.63898
	v-0.54633h-2.27173v3.08893h2.34497v-0.54633h-1.71222v-0.80042h1.50568v-0.54633H941.28802z M946.013,49.97356v-3.08893h-0.60199
	v2.15082h-0.00873l-1.22595-2.15082h-0.68036v3.08893h0.60272v-2.20282h0.00879l1.26038,2.20282H946.013z M937.5484,49.97356
	h0.63239v-1.20905h0.66644c0.47742,0,0.50378,0.16364,0.50378,0.58508c0,0.3186,0.02563,0.47754,0.06885,0.62396h0.71405v-0.0816
	c-0.1377-0.0517-0.1377-0.1637-0.1377-0.61554c0-0.57635-0.1377-0.67084-0.39178-0.7829
	c0.30536-0.10327,0.47748-0.39581,0.47748-0.7356c0-0.26697-0.15015-0.87329-0.9718-0.87329h-1.56171V49.97356z M939.14838,64.66096
	c0-3.00568-2.25873-3.37134-3.11682-3.37134c-0.85846,0-3.11676,0.36566-3.11676,3.37134s2.2583,3.37134,3.11676,3.37134
	C936.88965,68.0323,939.14838,67.66664,939.14838,64.66096z M937.57782,70.30403v5.98236h1.26593v-5.98236H937.57782z
	 M929.03625,64.03682v-1.44476h3.26129v-1.13281h-4.61633v6.4035h1.35504v-2.69342h2.85486v-1.13251H929.03625z M928.66785,71.36232
	v4.92407h1.26581v-4.92407h1.48425v-1.05829h-4.5816v1.05829H928.66785z M923.63684,54.76411v-1.4306h3.65771v-1.20374h-5.0686
	v6.80432h5.23157v-1.20343h-3.82068v-1.76282h3.35999v-1.20374H923.63684z M933.49933,58.9341v-1.23193h-3.42712v-5.57239h-1.43976
	v6.80432H933.49933z M929.80884,48.08049v-0.64954h1.63934v-0.54633h-2.27167v3.08893h2.34485v-0.54633h-1.71252v-0.80042h1.50604
	v-0.54633H929.80884z M932.69312,48.12774v-0.69678h1.55286v-0.54633h-2.19836v3.08893h0.64551v-1.29913h1.35919v-0.54669H932.69312
	z M939.7323,58.9341v-1.20343h-3.82074v-1.76282h3.36005v-1.20374h-3.36005v-1.4306h3.65778v-1.20374h-5.06866v6.80432H939.7323z
	 M937.02228,49.42723h-1.71252v-0.80042h1.50598v-0.54633h-1.50598v-0.64954h1.63928v-0.54633h-2.27167v3.08893h2.34491V49.42723z
	 M929.25146,41.28709h2.35345v-5.12854c0-1.36157,0.80707-2.06799,1.84961-2.06799c1.4964,0,1.52997,1.10962,1.52997,1.76538
	v5.43115h2.35406v-6.18756c0-1.96735-1.36151-2.99274-3.11047-2.99274c-1.69836,0-2.37054,1.00897-2.69025,1.547h-0.03357v-1.31152
	h-2.25281V41.28709z M927.63055,46.88463h-1.56171v3.08893h0.63239v-1.20905h0.66711c0.47754,0,0.50317,0.16364,0.50317,0.58508
	c0,0.3186,0.02594,0.47754,0.06885,0.62396h0.71436v-0.0816c-0.1377-0.0517-0.1377-0.1637-0.1377-0.61554
	c0-0.57635-0.1377-0.67084-0.39142-0.7829c0.30536-0.10327,0.47748-0.39581,0.47748-0.7356
	C928.60309,47.49096,928.45221,46.88463,927.63055,46.88463z M924.64185,31.28258h2.35406v-2.18573h-2.35406V31.28258z
	 M924.64185,41.28709h2.35406v-8.94482h-2.35406V41.28709z M922.00153,49.97356h2.34491v-0.54633h-1.71252v-0.80042h1.50604
	v-0.54633h-1.50604v-0.64954h1.63928v-0.54633h-2.27167V49.97356z M921.6521,67.86275h4.92346v-1.13251h-3.5957V65.0713h3.16211
	v-1.13293h-3.16211v-1.34631h3.44238v-1.13281h-4.77014V67.86275z M919.1521,49.97356h2.41333v-0.54633h-1.6261l1.61768-2.0351
	v-0.50751h-2.36212v0.54633h1.55328l-1.59607,1.99628V49.97356z M918.04065,49.97356h0.6452v-3.08893h-0.6452V49.97356z
	 M916.37982,46.8026c-1.0025,0-1.18781,0.60675-1.18781,0.95093c0,0.67993,0.48187,0.79169,0.98132,0.90771l0.33099,0.07764
	c0.32703,0.07727,0.55951,0.14203,0.55951,0.383c0,0.32666-0.33978,0.39984-0.64557,0.39984
	c-0.56354,0-0.64954-0.32697-0.65399-0.49908h-0.61951c0,0.383,0.19373,1.03259,1.32074,1.03259
	c0.27136,0,1.2179-0.08167,1.2179-1.01099c0-0.55505-0.38745-0.72717-0.80884-0.83044l-0.75323-0.18494
	c-0.12891-0.03003-0.32666-0.0816-0.32666-0.32257c0-0.27972,0.29224-0.37018,0.5376-0.37018
	c0.56384,0,0.61511,0.32697,0.63269,0.46466h0.61957C917.58014,47.42217,917.32605,46.8026,916.37982,46.8026z M919.48016,64.41115
	c0.27112-0.13361,0.79486-0.39209,0.79486-1.31079c0-0.6601-0.40643-1.64111-1.9964-1.64111h-3.15289v6.4035h2.74646
	c1.3277,0,1.68005-0.22296,2.05048-0.5799c0.34351-0.32971,0.56018-0.81152,0.56018-1.31982
	C920.48285,65.32985,920.27502,64.70558,919.48016,64.41115z M916.18689,73.32033c0-1.69135,0.89447-2.09125,1.50232-2.09125
	c1.04663,0,1.24078,0.67468,1.3418,1.0329h1.2663c-0.06781-0.88306-0.80206-2.11639-2.6167-2.11639
	c-1.5614,0-2.78503,1.06653-2.78503,3.15808c0,2.06616,1.15625,3.14117,2.76819,3.14117c1.5191,0,2.38025-0.90845,2.63354-2.20795
	h-1.2663c-0.15186,0.73303-0.64117,1.12482-1.3418,1.12482C916.61737,75.36171,916.18689,74.39491,916.18689,73.32033z
	 M910.61157,33.06511h2.84149v8.22198h2.35413V29.34947h-1.93378c-0.05066,0.89056-0.65582,2.06799-2.92572,2.06799h-0.33612
	V33.06511z M913.88916,90.07341h-4.16302c0.21631-0.44574,0.87885-0.8783,2.14948-1.77032
	c0.93225-0.63562,2.00037-1.47369,2.00037-3.12238c0-1.94647-1.4599-3.02789-3.29797-3.02789
	c-0.85187,0-3.13617,0.2702-3.13617,3.3927h1.8385c0.01324-0.70276,0.05396-1.79785,1.37854-1.79785
	c0.91901,0,1.32458,0.72968,1.32458,1.3653c0,1.08136-0.68951,1.56781-2.41974,2.82471
	c-2.08118,1.51392-2.1626,2.68994-2.22974,3.81201h6.55518V90.07341z M921.47626,88.55956c0-2.20288-1.6217-3.09552-2.90619-3.09552
	c-0.93274,0-1.36523,0.284-1.71637,0.52722l0.33789-2.08124h3.90607v-1.5954h-5.27142l-0.66199,5.27191l1.68945,0.08093
	c0.36487-0.67578,1.01367-0.68951,1.27063-0.68951c0.99988,0,1.40552,0.86505,1.40552,1.71698
	c0,1.0274-0.52722,1.79785-1.4325,1.79785c-0.83807,0-1.25739-0.52722-1.33826-1.3114h-1.89252
	c0.0946,1.93323,1.62225,2.82526,3.12238,2.82526C920.81421,92.00664,921.47626,89.8709,921.47626,88.55956z M921.13715,55.37062
	c0-1.28864-0.47998-3.24084-2.8031-3.24084h-3.04297v6.80432h2.98553C920.55164,58.9341,921.13715,56.83022,921.13715,55.37062z
	 M924.91351,89.77623h-2.0274v1.97345h1.13538c-0.06775,1.13525-0.62195,1.37854-1.13538,1.55463v0.71594h0.01379
	c1.14856-0.2702,2.01361-0.8783,2.01361-2.54077V89.77623z M926.11578,74.19521v-3.89117h-1.29138v3.94098
	c0,0.72491-0.35455,1.14148-1.22363,1.14148c-0.591,0-1.08032-0.36676-1.08032-1.19983v-3.88263h-1.29163v3.96606
	c0.01715,0.59979,0.14362,1.08313,0.47278,1.44983c0.54022,0.59155,1.36731,0.72491,1.92426,0.72491
	C925.15363,76.44484,926.11578,75.76979,926.11578,74.19521z M932.8913,88.15398h-1.06818v-6.00116h-2.14893l-3.52802,5.83936
	v1.6355h3.78503v2.12201h1.89191v-2.12201h1.06818V88.15398z M936.92499,70.30403h-4.61395v1.05829h1.5166v4.92407h1.26587v-4.92407
	h1.83148V70.30403z M948.22559,86.77544c0-1.5816-1.09515-2.40594-2.50061-2.40594c-1.14905,0-1.67627,0.79736-1.91949,1.14911
	c-0.487-0.77051-0.95972-1.14911-2.00092-1.14911c-1.27008,0-1.79724,0.77039-2.04053,1.24371h-0.02753v-1.05444h-1.81104v7.19092
	h1.89246v-4.37939c0-0.78412,0.28406-1.40594,1.17603-1.40594c1.13525,0,1.13525,0.85181,1.13525,1.4599v4.32544h1.89252v-4.31171
	c0-0.85181,0.33789-1.47363,1.28394-1.47363c0.55414,0,1.0274,0.35162,1.0274,1.41919v4.36615h1.89252V86.77544z
	 M948.63818,76.44484c1.10577,0,1.57037-0.54175,1.89062-0.90845l0.12714,0.75h0.84399v-3.22455h-2.53247v1.00812h1.40948
	c-0.26117,1.20831-1.18964,1.31653-1.46863,1.31653c-0.86041,0-1.76343-0.42474-1.76343-2.05798
	c0-1.53296,0.83496-2.14966,1.73871-2.14966c0.89404,0,1.32495,0.75,1.32495,0.98334h1.26593
	c-0.06732-0.82495-0.80206-2.0166-2.659-2.0166h-0.01642c-2.03424,0-2.94556,1.54175-2.94556,3.16626
	C945.85352,75.41158,947.17853,76.44484,948.63818,76.44484z M960.24866,86.77544c0-1.5816-1.09509-2.40594-2.50055-2.40594
	c-1.14911,0-1.67627,0.79736-1.91949,1.14911c-0.48706-0.77051-0.95978-1.14911-2.00092-1.14911
	c-1.27014,0-1.79736,0.77039-2.04059,1.24371h-0.02747v-1.05444h-1.8111v7.19092h1.89252v-4.37939
	c0-0.78412,0.28394-1.40594,1.17603-1.40594c1.13525,0,1.13525,0.85181,1.13525,1.4599v4.32544h1.89252v-4.31171
	c0-0.85181,0.33789-1.47363,1.28381-1.47363c0.5542,0,1.02747,0.35162,1.02747,1.41919v4.36615h1.89252V86.77544z"/>
</svg>
