<?xml version="1.0" encoding="UTF-8"?>
<svg id="Layer_1" xmlns="http://www.w3.org/2000/svg" version="1.1" viewBox="0 0 432 432">
  <!-- Generator: Adobe Illustrator 30.2.1, SVG Export Plug-In . SVG Version: 2.1.1 Build 1)  -->
  <defs>
    <style>
      .st0 {
        fill: #231f20;
      }

      .st1 {
        fill: #ff9caa;
      }

      .st2 {
        fill: #bf8864;
      }

      .st3 {
        fill: #fff;
      }

      .st4 {
        fill: #57ad5f;
      }

      .st5 {
        fill: #f4921e;
      }

      .st6 {
        fill: #d8c4ad;
      }

      .st7 {
        fill: #efcea8;
      }
    </style>
  </defs>
  <path id="circle-base" class="st2" d="M396,217c0,99.41-80.59,180-180,180S36,316.41,36,217,116.59,37,216,37s180,80.59,180,180Z"/>
  <path class="st7" d="M36.2,224.46c2.62,56.7,31.48,106.55,74.71,137.69h210.17c43.23-31.14,72.09-80.99,74.71-137.69H36.2ZM387.16,235.6l-7.08,10.19-1.59-2.29,5.49-7.9h3.18ZM379.31,235.6l-3.15,4.54-3.15-4.54h6.3ZM347.47,235.6l-7.08,10.19-1.59-2.29,5.49-7.9h3.18ZM339.61,235.6l-3.15,4.54-3.15-4.54h6.3ZM318.51,335l-3.15,4.54-3.15-4.54h6.3ZM313.47,256.42l3.17-4.56,3.17,4.56h-6.33ZM323.18,335h3.18l-7.08,10.19-1.59-2.29,5.49-7.9ZM324.47,256.42l-5.5-7.92,1.59-2.29,7.09,10.21h-3.18ZM322.9,242.85l1.45-2.09,10.89,15.67h-2.91l-9.43-13.57ZM323.22,235.6l-14.47,20.83h-.7l-1.25-1.8,13.22-19.03h3.2ZM315.36,235.6l-10.89,15.67-1.45-2.09,9.43-13.57h2.91ZM307.77,235.6l-7.09,10.21-1.59-2.29,5.5-7.92h3.18ZM295.2,235.6h4.72l-3.17,4.56-3.17-4.56h1.61ZM288.84,235.6h.7l14.47,20.83h-3.2l-13.22-19.03,1.25-1.8ZM296.14,256.42h-2.91l-9.43-13.57,1.45-2.09,10.89,15.67ZM278.81,335l-3.15,4.54-3.15-4.54h6.3ZM274.37,256.42l3.17-4.56,3.17,4.56h-6.33ZM283.48,335h3.18l-7.08,10.19-1.59-2.29,5.49-7.9ZM285.37,256.42l-5.5-7.92,1.59-2.29,7.09,10.21h-3.18ZM284.13,235.6l-14.47,20.83h-.67l-1.26-1.82,13.21-19.01h3.2ZM276.26,235.6l-10.87,15.65-1.45-2.09,9.42-13.55h2.91ZM268.67,235.6l-7.08,10.19-1.59-2.29,5.49-7.9h3.18ZM260.82,235.6l-3.15,4.54-3.15-4.54h6.3ZM249.14,235.6h.67l7.84,11.28h0s3.93,5.65,3.93,5.65l2.7,3.89h-3.17l-13.22-19.03,1.25-1.8ZM256.44,256.42h-2.91l-9.43-13.57,1.45-2.09,10.89,15.67ZM239.75,335l-3.15,4.54-3.15-4.54h6.3ZM234.67,256.42l3.17-4.56,3.17,4.56h-6.33ZM244.43,335h3.18l-7.08,10.19-1.59-2.29,5.49-7.9ZM245.68,256.42l-5.5-7.92,1.59-2.29,7.09,10.21h-3.18ZM244.43,235.6l-14.47,20.83h-.67l-1.26-1.82,13.21-19.01h3.2ZM236.56,235.6l-10.87,15.65-1.45-2.09,9.42-13.55h2.91ZM228.98,235.6l-7.08,10.19-1.59-2.29,5.49-7.9h3.18ZM221.12,235.6l-3.15,4.54-3.15-4.54h6.3ZM210.09,235.6h.7l14.47,20.83h-3.2l-13.22-19.03,1.25-1.8ZM217.39,256.42h-2.91l-9.43-13.57,1.45-2.09,10.89,15.67ZM200.06,335l-3.15,4.54-3.15-4.54h6.3ZM195.61,256.42l3.17-4.56,3.17,4.56h-6.33ZM204.73,335h3.18l-7.08,10.19-1.59-2.29,5.49-7.9ZM206.62,256.42l-5.5-7.92,1.59-2.29,7.09,10.21h-3.18ZM205.37,235.6l-14.47,20.83h-.67l-1.26-1.82,13.21-19.01h3.2ZM197.51,235.6l-10.87,15.65-1.45-2.09,9.42-13.55h2.91ZM189.92,235.6l-7.08,10.19-1.59-2.29,5.49-7.9h3.18ZM182.07,235.6l-3.15,4.54-3.15-4.54h6.3ZM170.39,235.6h.67l7.84,11.28h0s3.93,5.65,3.93,5.65l2.7,3.89h-3.17l-13.22-19.03,1.25-1.8ZM177.69,256.42h-2.91l-9.43-13.57,1.45-2.09,10.89,15.67ZM160.36,335l-3.15,4.54-3.15-4.54h6.3ZM155.92,256.42l3.17-4.56,3.17,4.56h-6.33ZM165.04,335h3.18l-7.08,10.19-1.59-2.29,5.49-7.9ZM166.92,256.42l-5.5-7.92,1.59-2.29,7.09,10.21h-3.18ZM165.68,235.6l-14.47,20.83h-.67l-1.26-1.82,13.21-19.01h3.2ZM157.81,235.6l-10.87,15.65-1.45-2.09,9.42-13.55h2.91ZM150.23,235.6l-7.08,10.19-1.59-2.29,5.49-7.9h3.18ZM142.37,235.6l-3.15,4.54-3.15-4.54h6.3ZM130.7,235.6h.67l7.84,11.28h0s3.93,5.65,3.93,5.65l2.7,3.89h-3.17l-13.22-19.03,1.25-1.8ZM138,256.42h-2.91l-9.43-13.57,1.45-2.09,10.89,15.67ZM120.67,335l-3.15,4.54-3.15-4.54h6.3ZM116.22,256.42l3.17-4.56,3.17,4.56h-6.33ZM125.34,335h3.18l-7.08,10.19-1.59-2.29,5.49-7.9h0ZM127.23,256.42l-5.5-7.92,1.59-2.29,7.09,10.21h-3.18ZM125.98,235.6l-14.47,20.83h-.67l-1.26-1.82,13.21-19.01s3.2,0,3.19,0ZM118.12,235.6l-10.87,15.65-1.45-2.09,9.42-13.55h2.91ZM110.53,235.6l-7.08,10.19-1.59-2.29,5.49-7.9s3.18,0,3.18,0ZM102.68,235.6l-3.15,4.54-3.15-4.54h6.3ZM91,235.6h.67l14.47,20.83h-3.17l-13.22-19.03s1.25-1.8,1.25-1.8ZM98.3,256.42h-2.91l-9.43-13.57,1.45-2.09,10.89,15.67ZM70.84,235.6l-7.08,10.19-1.59-2.29,5.49-7.9s3.18,0,3.18,0ZM62.98,235.6l-3.15,4.54-3.15-4.54h6.3ZM43.14,235.97l.26-.37h3.2l-2.97,4.27c-.18-1.3-.34-2.59-.49-3.9ZM47.84,256.42l-1.7-2.45c-.47-2.14-.9-4.28-1.29-6.44l6.18,8.89h-3.18ZM55.7,256.42l-9.43-13.57,1.45-2.09,10.89,15.67h-2.91ZM63.28,256.42l-13.22-19.03,1.25-1.8h.67l7.84,11.28h0s3.93,5.65,3.93,5.65l2.7,3.89s-3.17,0-3.17,0ZM66.09,249.15l9.42-13.55h2.91l-10.87,15.65-1.45-2.09ZM71.15,256.42l-1.26-1.82,13.21-19.01h3.2l-14.47,20.83h-.67ZM76.53,256.42l3.17-4.56,3.17,4.56h-6.33ZM87.53,256.42l-5.5-7.92,1.59-2.29,7.09,10.21s-3.18,0-3.18,0ZM92.96,339.04c-.45-.45-.88-.9-1.32-1.35l1.86-2.68h2.91l-3.07,4.41c-.13-.13-.26-.25-.39-.38ZM96.13,342.13l4.95-7.13h3.2l-6.21,8.93c-.65-.6-1.3-1.19-1.94-1.8ZM100.97,346.55l.65-.93,2.58,3.72c-1.09-.91-2.16-1.84-3.23-2.79ZM113.39,355.83l-9.43-13.57,1.45-2.09,10.89,15.67h-2.91ZM120.97,355.83l-13.22-19.03,1.25-1.8h.67l7.84,11.28h0s3.93,5.65,3.93,5.65l2.7,3.89h-3.17ZM123.78,348.55l9.42-13.55h2.91l-10.87,15.65-1.45-2.09ZM128.84,355.83l-1.26-1.82,13.21-19.01h3.2l-14.47,20.83h-.67ZM134.22,355.83l3.17-4.56,3.17,4.56h-6.33ZM145.22,355.83l-5.5-7.92,1.59-2.29,7.09,10.21h-3.18ZM153.08,355.83l-9.43-13.57,1.45-2.09,10.89,15.67h-2.91ZM160.66,355.83l-13.22-19.03,1.25-1.8h.67l14.47,20.83h-3.17ZM163.48,348.55l9.42-13.55h2.91l-10.87,15.65-1.45-2.09ZM168.53,355.83l-1.26-1.82,13.21-19.01h3.2l-14.47,20.83h-.67ZM173.91,355.83l3.17-4.56,3.17,4.56h-6.33ZM184.92,355.83l-5.5-7.92,1.59-2.29,7.09,10.21h-3.18ZM192.78,355.83l-9.43-13.57,1.45-2.09,10.89,15.67h-2.91ZM200.36,355.83l-13.22-19.03,1.25-1.8h.67l7.84,11.28h0s3.93,5.65,3.93,5.65l2.7,3.89h-3.17ZM203.17,348.55l9.42-13.55h2.91l-10.87,15.65-1.45-2.09ZM208.23,355.83l-1.26-1.82,13.21-19.01h3.2l-14.47,20.83h-.67ZM213.61,355.83l3.17-4.56,3.17,4.56h-6.33ZM224.61,355.83l-5.5-7.92,1.59-2.29,7.09,10.21h-3.18ZM232.47,355.83l-9.43-13.57,1.45-2.09,10.89,15.67h-2.91ZM240.05,355.83l-13.22-19.03,1.25-1.8h.67l7.84,11.28h0s3.93,5.65,3.93,5.65l2.7,3.89h-3.17ZM242.87,348.55l9.42-13.55h2.91l-10.87,15.65-1.45-2.09ZM247.92,355.83l-1.26-1.82,13.21-19.01h3.2l-14.47,20.83h-.67ZM253.3,355.83l3.17-4.56,3.17,4.56h-6.33ZM264.31,355.83l-5.5-7.92,1.59-2.29,7.09,10.21h-3.18ZM272.17,355.83l-9.43-13.57,1.45-2.09,10.89,15.67h-2.91ZM279.75,355.83l-13.22-19.03,1.25-1.8h.7l14.47,20.83h-3.2ZM281.93,348.55l9.42-13.55h2.91l-10.87,15.65-1.45-2.09ZM286.98,355.83l-1.26-1.82,13.21-19.01h3.2l-14.47,20.83h-.67ZM292.36,355.83l3.17-4.56,3.17,4.56h-6.33ZM303.37,355.83l-5.5-7.92,1.59-2.29,7.09,10.21h-3.18ZM311.22,355.83l-9.43-13.57,1.45-2.09,10.89,15.67h-2.91ZM319.62,355.83h-.81l-13.22-19.03,1.25-1.8h.67l7.84,11.28h0s3.93,5.65,3.93,5.65l1.89,2.72c-.51.39-1.02.79-1.54,1.17ZM321.62,348.55l9.42-13.55h2.91l-10.87,15.65-1.45-2.09ZM338.95,339.12c-2.93,2.93-5.95,5.73-9.05,8.42l8.72-12.54h3.2l-2.86,4.12ZM339.91,256.42l-13.22-19.03,1.25-1.8h.67l7.84,11.28h0s3.93,5.65,3.93,5.65l2.7,3.89h-3.17ZM342.73,249.15l9.42-13.55h2.91l-10.87,15.65-1.45-2.09ZM347.78,256.42l-1.26-1.82,13.21-19.01h3.2l-14.47,20.83h-.67ZM353.16,256.42l3.17-4.56,3.17,4.56h-6.33ZM364.17,256.42l-5.5-7.92,1.59-2.29,7.09,10.21h-3.18ZM372.02,256.42l-9.43-13.57,1.45-2.09,10.89,15.67h-2.91ZM379.61,256.42l-13.22-19.03,1.25-1.8h.67l14.47,20.83h-3.17ZM383.87,251.25l-1.45-2.09,5.83-8.4c-.26,1.81-.53,3.61-.84,5.4l-3.54,5.09Z"/>
  <path class="st3" d="M258.1,160.87c18.34,11.46,30.29,30.11,30.29,51.18,0,4.25-.49,8.39-1.42,12.4h-143.06c-.92-4.01-1.42-8.16-1.42-12.4,0-21.3,12.21-40.12,30.89-51.55-7.21-5.14-19.08-14.95-33.43-31.94-6.44-7.62-14.81-19.56-19.76-27.83,1.19-2.93,7.64-18.01,19.7-24.16,21.48-10.94,29.82-8.34,31.09-8.52,2.07-.28,10.08,13.18,15.14,30.23,7.54,25.43,9.66,45.74,10.2,52.85,3.07-.72,6.22-1.26,9.43-1.63-.82-.72-1.58-1.54-2.24-2.47-.66-.93-1.23-1.99-1.4-3.2-.17-1.21.14-2.6.98-3.36.88-.79,2.07-.71,3.13-.51,3.38.64,6.61,2.2,9.39,4.54-3.21-4.2-5.78-9.09-7.57-14.4-.57-1.69-1.05-3.63-.42-5.33.85-2.29,3.36-3.02,5.37-2.55,3.8.91,6.61,4.98,7.62,9.46,1.01,4.49.5,9.33-.41,13.92,1.72-2.46,3.98-4.38,6.47-5.5.7-.32,1.52-.56,2.15-.12.66.46.86,1.55.66,2.46-.21.91-.73,1.67-1.26,2.38-1.26,1.67-2.65,3.19-4.14,4.55,3.95.4,7.81,1.08,11.54,2.01.51-6.87,2.59-27.37,10.23-53.12,5.06-17.05,13.09-29.85,15.14-30.23,5.41-1.02,19.25.93,32.23,8.91,10.97,6.75,17.34,20.58,18.48,23.39-4.94,8.26-13.23,20.58-19.67,28.2-14.7,17.42-26.79,27.28-33.95,32.31h0Z"/>
  <path class="st5" d="M346.64,179.52c-.71-.21-1.44-.46-2.13-.77-3.72-1.62-6.63-4.65-6.63-4.65,0,0,2.8,1.42,7.78,2.66.53.13,1.02.23,1.47.31.33-1.99.47-3.99.35-6v-.16c-.52-9.83-8.26-15.36-17.48-11.82-3.33,1.24-6.18,3.3-8.67,5.8.67.9,1.43,1.83,2.25,2.71,2.76,2.94,6.72,5.57,9.05,6.74-3.1-.08-8.5-4.23-10.15-5.94-.85-.88-1.53-1.72-2.1-2.51-2.84,3.1-5.18,6.74-7.19,10.34.52.53,1.2,1.13,2.09,1.78,4.15,3.03,7.04,4.25,7.04,4.25,0,0-4.2-.28-7.83-2.09-.91-.45-1.79-1-2.58-1.57-1.72,3.41-3.72,8.26-5.75,13.86.65.8,1.36,1.58,2.15,2.31,3.53,3.29,9.02,5.63,12.35,6.43-4.82,1.15-12.15-2.88-14.28-4.78-.44-.39-.83-.79-1.2-1.18-1.72,4.95-3.42,10.35-4.95,15.77,2.18,1.27,4,3.08,5.29,5.25.78-1.32,1.76-2.5,2.9-3.52-2.56-2.1-3.14-3.73-3.14-3.73,0,0,1.6,1.41,3.98,3.04,2.48-1.9,5.59-3.03,8.96-3.03,1.5,0,2.95.23,4.31.65-1.05-1.04-1.67-1.83-1.67-1.83,0,0,2.64,1.7,7.48,3.43.86.31,1.6.51,2.25.65,5.03-7.9,9.22-15.21,11.4-19.8,1.82-4,3.63-8.24,4.66-12.59ZM325.34,192.34c-7.16-2.65-8.85-5.9-8.85-5.9,0,0,4.37,2.97,9.41,4.89,4.03,1.54,8.97,2.45,11.68,2.67-2.81.91-9.85-.78-12.24-1.66ZM366.12,203.44v.11c-.1,1.47-.38,2.92-.79,4.34-.32-.09-.67-.21-1.04-.35-3.52-1.34-5.43-2.61-5.43-2.61,0,0,1.86,2.46,4.42,3.97.48.28.98.53,1.48.74,0,0,0,.01,0,.02-3.57,1.08-6.56,3.46-8.42,6.61-2.11-3.55-5.65-6.13-9.83-6.96-.67-.42-2.32-1.55-4.43-3.51-.59-.55-1.03-1.04-1.37-1.48,1.78-2.44,3.8-4.89,6.14-6.9.34.63.77,1.3,1.31,2.01,1.05,1.39,4.62,4.88,6.87,5.21-1.59-1.05-4.25-3.31-6-5.69-.53-.71-.99-1.46-1.4-2.17,2.03-1.6,4.29-2.85,6.82-3.47,7.02-1.77,12.17,2.93,11.69,10.13ZM341.31,207.3c1.39.91,2.95,1.49,4.06,1.83-.58-.07-1.16-.11-1.75-.11-2.5,0-4.86.63-6.93,1.73,1.03-1.87,2.01-3.51,2.88-4.82.53.48,1.12.96,1.74,1.37ZM132.46,210.34c.07.28.14.56.21.84-2.06,1.26-3.79,3-5.02,5.08-.9-1.51-2.06-2.85-3.42-3.95,1.55-.07,4.17-.34,6.63-1.27.55-.21,1.08-.45,1.6-.7ZM89.38,199.14c-2.48,1.63-5.51,2.2-5.51,2.2,0,0,1.99-1.15,4.75-3.71.59-.55,1.03-1.04,1.37-1.48-1.78-2.44-3.8-4.89-6.14-6.9-.34.63-.77,1.3-1.31,2.01-1.05,1.39-4.62,4.88-6.87,5.21,1.59-1.05,4.25-3.31,6-5.69.53-.71.99-1.46,1.4-2.17-2.03-1.6-4.29-2.85-6.82-3.47-7.02-1.77-12.17,2.93-11.69,10.13v.11c.1,1.47.38,2.92.79,4.34.32-.09.67-.21,1.04-.35,3.52-1.34,5.43-2.61,5.43-2.61,0,0-1.86,2.46-4.42,3.97-.48.28-.98.53-1.48.74,1.13,3.08,2.82,6,4.49,8.76.05.09.12.19.18.27,2.6,1.27,4.77,3.28,6.25,5.75,2.57-4.34,7.29-7.24,12.7-7.24,1.75,0,3.43.31,5,.87.21-.22.42-.43.61-.66.51-.6.96-1.24,1.36-1.87-1.96-3.9-3.84-7.26-5.39-9.59-.53.48-1.12.96-1.74,1.37ZM82.55,208.95c-1.66.85-6.63,2.7-8.76,2.28,1.95-.4,5.47-1.49,8.27-2.96,3.51-1.84,6.42-4.38,6.42-4.38,0,0-.95,2.51-5.93,5.06h0ZM131.82,207.82c-1.84-7.05-4.06-14.28-6.3-20.74-.37.39-.76.79-1.2,1.18-2.13,1.9-9.46,5.92-14.28,4.78,3.33-.8,8.82-3.13,12.35-6.43.78-.73,1.5-1.52,2.15-2.31-2.02-5.6-4.03-10.45-5.75-13.86-.8.57-1.67,1.12-2.58,1.57-3.63,1.81-7.83,2.09-7.83,2.09,0,0,2.89-1.23,7.04-4.25.89-.65,1.57-1.25,2.09-1.78-2.01-3.6-4.35-7.24-7.19-10.34-.57.79-1.25,1.63-2.1,2.51-1.65,1.71-7.05,5.86-10.15,5.94,2.33-1.17,6.29-3.8,9.05-6.74.83-.88,1.58-1.81,2.25-2.71-2.49-2.5-5.34-4.56-8.67-5.8-9.22-3.54-16.97,1.99-17.47,11.82v.16c-.13,2.01.02,4.02.34,6,.45-.08.94-.17,1.47-.31,4.99-1.24,7.78-2.66,7.78-2.66,0,0-2.91,3.03-6.63,4.65-.69.3-1.42.56-2.13.77,1.04,4.35,2.84,8.59,4.66,12.59,2.18,4.59,6.37,11.9,11.4,19.8.65-.14,1.39-.34,2.25-.65,4.84-1.73,7.48-3.43,7.48-3.43,0,0-2.59,3.31-6.13,5.3-.7.39-1.43.73-2.16,1.02,1.34,2.08,2.74,4.18,4.16,6.28,1.01-.81,2.12-1.49,3.31-2.01-1.09.16-2.08.2-2.81.04,2.56-.47,7.17-1.83,10.83-3.73,4.58-2.38,8.38-5.71,8.38-5.71,0,0-1.19,3.36-7.71,6.65-.83.42-2.31,1.02-3.96,1.57.4-.03.8-.05,1.2-.05,3.34,0,6.41,1.11,8.88,2.97,1.22-.47,3.52-1.46,6.47-3.18.59-.34,1.08-.67,1.52-.99h0ZM105.35,184.19c-2.39.88-9.42,2.58-12.24,1.66,2.7-.22,7.64-1.13,11.68-2.67,5.05-1.93,9.41-4.89,9.41-4.89,0,0-1.69,3.25-8.85,5.9Z"/>
  <path class="st4" d="M69.79,163.45c4.04,5.83,5.58,14.33,4.22,21.35-3.85-.23-6.91,1.61-8.43,4.73-5.55-.85-10.94-2.72-15.82-5.49-.52-.3-1.06-.62-1.4-1.11-.34-.49-.44-1.21-.08-1.68.45-.58,1.31-.5,2.04-.46,4.45.22,6.42,1.14,10.12,2.1-5.95-3.98-8.92-6.42-12.87-12.39-.57-.86-1.09-2.05-.45-2.87.4-.51,1.13-.65,1.77-.52.63.14,1.18.51,1.71.88,5.58,3.93,8.19,6.34,13.02,11.17-2.07-3.33-4.81-8.9-4.9-9.68-.09-.78.27-1.67,1.01-1.93.82-.29,1.69.27,2.35.83,3.03,2.59,5.31,6.04,6.54,9.83-.26-4.75-.52-9.5-.78-14.25-.03-.47,0-1.03.39-1.27.55-.34,1.19.24,1.56.77ZM93.48,119.19c-.58.27-.7,1.02-.74,1.66-.42,6.48-.84,12.95-1.26,19.43-1.04-5.34-3.58-10.37-7.26-14.38-.81-.88-1.89-1.78-3.05-1.51-1.04.24-1.68,1.38-1.68,2.46,0,1.07,2.8,9.07,5.06,13.91-5.75-7.32-8.9-11-15.82-17.24-.66-.59-1.34-1.18-2.18-1.48-.83-.29-1.85-.22-2.48.41-.99,1-.48,2.69.15,3.95,4.38,8.74,8,12.52,15.42,18.88-4.86-1.9-7.37-3.47-13.37-4.48-.98-.17-2.13-.41-2.83.3-.57.59-.56,1.57-.17,2.29.38.72,1.06,1.25,1.72,1.73,6.16,4.54,13.16,7.95,20.53,10.01,2.56-3.97,7.01-5.97,12.18-5.03,2.99-9.29,2.28-21.06-2.24-29.61-.41-.77-1.19-1.66-1.99-1.29ZM383.12,178.64c.57-.86,1.09-2.05.45-2.87-.4-.51-1.13-.65-1.77-.52s-1.18.51-1.71.88c-5.58,3.93-8.19,6.34-13.02,11.17,2.07-3.33,4.81-8.9,4.9-9.68.09-.78-.27-1.67-1.01-1.93-.82-.29-1.69.27-2.35.83-3.03,2.59-5.31,6.04-6.54,9.83l.78-14.25c.03-.47,0-1.03-.39-1.27-.55-.34-1.19.24-1.56.77-4.04,5.83-5.58,14.33-4.22,21.35,3.85-.23,6.91,1.61,8.43,4.73,5.55-.85,10.94-2.72,15.82-5.49.52-.3,1.06-.62,1.4-1.11.34-.49.44-1.21.08-1.68-.45-.58-1.31-.5-2.04-.46-4.45.22-6.42,1.14-10.12,2.1,5.95-3.98,8.92-6.42,12.87-12.39ZM367.42,151.54c.38-.72.4-1.71-.17-2.29-.7-.71-1.85-.46-2.83-.3-5.99,1.01-8.51,2.58-13.37,4.48,7.42-6.36,11.04-10.14,15.42-18.88.63-1.26,1.14-2.95.15-3.95-.62-.63-1.64-.7-2.48-.41-.83.29-1.52.89-2.18,1.48-6.92,6.23-10.07,9.92-15.82,17.24,2.26-4.84,5.07-12.84,5.06-13.91,0-1.07-.64-2.22-1.68-2.46-1.16-.26-2.24.63-3.05,1.51-3.68,4.01-6.22,9.04-7.26,14.38-.42-6.48-.84-12.95-1.26-19.43-.04-.64-.16-1.39-.74-1.66-.8-.37-1.58.52-1.99,1.29-4.52,8.55-5.23,20.32-2.24,29.61,5.17-.94,9.62,1.06,12.18,5.03,7.37-2.06,14.37-5.46,20.53-10.01.66-.49,1.33-1.01,1.72-1.73Z"/>
  <path class="st0" d="M212.14,175.68c0,3.86-2.04,6.99-4.56,6.99s-4.56-3.13-4.56-6.99,2.04-6.99,4.56-6.99,4.56,3.13,4.56,6.99ZM221.86,168.68c-2.52,0-4.56,3.13-4.56,6.99s2.04,6.99,4.56,6.99,4.56-3.13,4.56-6.99-2.04-6.99-4.56-6.99h0Z"/>
  <path class="st1" d="M321.06,362.14c-5.04,3.64-10.27,7.03-15.69,10.14-1.19-1.02-2.21-2.22-3.01-3.57-2.48,4.18-7.04,6.99-12.25,6.99s-9.79-2.8-12.27-6.99c-2.48,4.18-7.03,6.99-12.25,6.99s-9.78-2.8-12.25-6.99c-2.48,4.18-7.04,6.99-12.25,6.99s-9.78-2.8-12.25-6.99c-2.48,4.18-7.04,6.99-12.27,6.99s-9.78-2.8-12.25-6.99c-2.48,4.18-7.03,6.99-12.25,6.99s-9.78-2.8-12.25-6.99c-2.48,4.18-7.04,6.99-12.25,6.99s-9.78-2.8-12.25-6.99c-2.48,4.18-7.04,6.99-12.25,6.99s-9.79-2.8-12.26-6.99c-.9,1.53-2.09,2.87-3.48,3.96-5.66-3.21-11.12-6.74-16.38-10.52h210.11ZM395.86,209.09c-.47-.04-.94-.08-1.42-.08-5.41,0-10.13,2.91-12.7,7.24-2.57-4.34-7.3-7.24-12.7-7.24s-10.13,2.91-12.7,7.24c-2.58-4.34-7.3-7.24-12.72-7.24s-10.13,2.91-12.7,7.24c-2.57-4.34-7.29-7.24-12.7-7.24s-10.13,2.91-12.7,7.24c-2.57-4.34-7.3-7.24-12.7-7.24-1.56,0-3.07.25-4.48.7.03.78.05,1.55.05,2.33,0,4.25-.49,8.39-1.42,12.4h108.81c.13-2.8.22-5.62.22-8.46,0-2.31-.06-4.61-.14-6.91ZM142.58,209.19c-.72-.11-1.46-.17-2.21-.17-5.41,0-10.15,2.91-12.72,7.24-2.57-4.34-7.29-7.24-12.7-7.24s-10.13,2.91-12.7,7.24c-2.57-4.34-7.3-7.24-12.7-7.24s-10.13,2.91-12.7,7.24c-2.58-4.34-7.3-7.24-12.72-7.24s-10.13,2.91-12.7,7.24c-2.57-4.34-7.29-7.24-12.7-7.24-.88,0-1.75.09-2.59.23-.08,2.24-.14,4.49-.14,6.75,0,2.84.09,5.65.22,8.46h107.69c-.92-4.01-1.42-8.16-1.42-12.4,0-.96.03-1.91.08-2.86ZM178.82,137.18c-3.62,3.09-8.36,2.43-13.39-.46,3.76-12.72,6.4-27.94,7.17-45.21,6.92,16.56,13.37,39.58,6.23,45.67ZM259.41,91.51c-6.92,16.56-13.37,39.58-6.23,45.67,3.62,3.09,8.36,2.43,13.39-.46-3.76-12.72-6.4-27.94-7.17-45.21ZM213.37,183.96c-15.93,0-28.84,7.29-28.84,16.28s12.91,16.28,28.84,16.28,28.84-7.29,28.84-16.28h0c0-8.99-12.91-16.28-28.83-16.28h0Z"/>
  <path class="st6" d="M180.94,194.59c-6.83-.29-13.58.93-20.34,1.67-1.13.12-1.74-1.59-.49-1.85,7.15-1.46,13.6-1.32,20.78-.5h0c.46.05.58.7.05.67h0ZM181.45,190.98c-8.19-2.02-16.42-3.79-24.56-6.08-1.34-.38-1.01-2.11.38-1.83,8.37,1.69,16.23,4.7,24.34,7.26h0c.47.15.33.77-.16.65h0ZM183.05,187.55c-6.1-3.17-12.83-4.82-19.3-6.98-1.22-.41-.46-1.99.66-1.74,7.11,1.61,12.81,4.47,19,8.15h0c.44.26.07.8-.36.57h0ZM245.15,187.56c-.38.2-.87-.33-.43-.59,6.18-3.68,11.74-6.52,18.84-8.13,1.22-.28,2.16,1.34.77,1.81-6.43,2.16-13.12,3.77-19.18,6.91h0ZM267.48,196.24c-6.72-.75-13.41-1.93-20.2-1.65-.4.02-.61-.61-.15-.67,7.18-.82,13.57-.98,20.73.48h0c1.41.29.98,1.98-.38,1.83ZM271.47,184.89c-8.18,2.32-16.46,4.07-24.71,6.09-.44.11-.74-.5-.25-.66,8.06-2.56,15.86-5.57,24.19-7.24h0c1.21-.24,2.19,1.41.77,1.81h0Z"/>
  <path class="st3" d="M171.18,68.07c.73.18,1.35.96,1.39,1.93,3.05,67.54-22.06,111.32-39.91,109.05-13.36-1.7-18.31-25.51-16.44-60.79.66-12.44,5.41-24.16,14.14-34.33,11.84-12.12,33.51-17.77,40.83-15.86h0ZM301.65,83.93c8.73,10.17,13.48,21.89,14.14,34.33,1.87,35.27-3.08,59.09-16.44,60.79-17.85,2.27-42.96-41.51-39.91-109.05.04-.98.67-1.75,1.39-1.93,7.79-1.91,30.44,3.77,40.83,15.86h0ZM151.14,221.73c-.78,4.69-3.88,8.56-8.31,9.67-4.68,1.18-9.52-1.06-12.38-5.26.18,6.87-4.34,12.71-10.45,13.25-5.9.53-11.22-4.07-12.51-10.51-4.58,5.05-11.81,6.17-16.61,2.4-2.25-1.87-3.63-4.49-4-7.29,0,0,0,0,0-.01-.93-4.18.71-10.52,4.01-13.26,4.8-3.77,12.1-1.87,15.8.1,1.56-3.54,5.22-7.44,12.28-7.52,6.14-.08,8.6,2.68,11.72,7.37,4.91-4.44,13.59-2.68,15.56-1.62,4.44,2.4,6.16,7.16,4.9,12.68ZM285.76,209.05c1.97-1.07,10.65-2.82,15.56,1.62,3.13-4.69,5.59-7.44,11.72-7.37,7.05.09,10.71,3.99,12.28,7.52,3.7-1.97,11-3.87,15.8-.1,3.29,2.74,4.93,9.08,4.01,13.26,0,0,0,0,0,.01-.37,2.8-1.75,5.42-4,7.29-4.8,3.77-12.03,2.64-16.61-2.4-1.29,6.43-6.6,11.03-12.51,10.51-6.11-.54-10.63-6.38-10.45-13.25-2.87,4.2-7.7,6.44-12.38,5.26-4.43-1.11-7.52-4.98-8.31-9.67-1.26-5.52.46-10.28,4.9-12.68Z"/>
  <path class="st3" d="M359.75,286.77c-1.25-.61-2.61.04-3.29,1.71-.78,1.91-1.47,3.86-2.19,5.8-1.64,4.44-3.48,8.75-5.88,12.63-1.82,2.95-3.99,5.44-6.96,6.57-.93.35-1.85.65-2.88.07-1.45-4.32-2.47-8.8-2.74-13.17,2.2-2.98,4.37-5.62,6.26-8.53,3.33-5.12,5.7-10.86,6.82-17.35.59-3.41.76-6.8-.31-10.09-1.04-3.21-2.91-5.34-5.71-6.07-3.37-.87-6.26.51-8.87,2.98-3.39,3.2-5.61,7.5-7.04,12.41-1.68,5.75-2.58,11.65-2.63,17.71-1.81,5.35-3.59,10.71-5.47,16.03-1.35,3.84-2.76,7.66-4.79,11.05-.73,1.22-1.48,2.45-2.85,2.87-.98-1.41-1.4-3.07-1.58-4.73-.29-2.7-.51-5.44-.53-8.16-.04-6.16.13-12.32.09-18.48-.01-2.2-.19-4.46-.63-6.59-1.22-5.92-5.06-7.89-9.41-4.99-.55.36-1.11.74-1.56,1.25-1.86,2.15-3.83,4.2-5.49,6.58-1.89,2.7-3.49,5.7-5.23,8.6.11-1.05.21-2.06.31-3.07.46-4.83.86-9.67,1.38-14.49.57-5.26.91-10.54.72-15.84-.06-1.6-.32-3.23-.71-4.77-.92-3.61-3.52-4.93-6.25-3.28-.49.3-.94.71-1.39,1.1-2.48,2.16-4.19,5.18-5.88,8.2-4.15,7.42-7.25,15.52-9.92,23.89-.61,1.91-1.19,3.83-1.91,6.16,0-1.17-.07-1.86.01-2.52.47-3.88.95-7.76,1.48-11.63.46-3.38-1.17-5.93-3.91-5.98-.55-.01-1.11.09-1.65.02-2.77-.38-4.03,1.62-4.3,4.53-.36,3.87-.69,7.74-1.01,11.62-1.84,2.48-3.65,5.01-5.57,7.38-1.77,2.18-3.85,3.87-6.26,4.84-.4.16-.86.12-1.29.17-.03-.32-.05-.41-.04-.49.12-.58.24-1.15.38-1.72,1.24-5.29,1.89-10.67,1.6-16.19-.15-2.93-.66-5.75-1.7-8.39-1.4-3.53-3.41-6.2-6.91-7.06-1.41-2.47-3.32-2.45-5.35-1.53-.77.35-1.52.8-2.22,1.33-3.51,2.68-5.94,6.63-7.94,10.94-2.24,4.84-3.54,9.96-4,15.28-2.05,4.59-3.96,9.28-6.62,13.4-2.26,3.5-4.77,6.65-8.19,8.44-1.16.61-2.33,1.02-3.84.62-.32-.85-.76-1.8-1.04-2.82-1.13-4.17-1.69-8.5-1.64-12.85.04-4.08.31-8.21.88-12.23.74-5.25,2.27-10.21,4.84-14.58.51-.87.98-1.86,1.99-2.08,1.09,1.07,1.43,2.57,1.64,4.07.69,4.92-.16,9.49-2.24,13.73-.35.71-.67,1.45-.93,2.04.64,2.42,1.09,3.09,2.2,3.27,1.34.22,2.21-.72,2.95-1.92.13-.2.27-.39.37-.62,2.79-6.5,4.04-13.26,1.96-20.46-2.12-7.34-8.49-10.86-14.43-5.8-2.94,2.51-4.94,5.99-6.35,9.93-1.77,4.93-2.84,9.98-3.29,15.13-.39,1.69-.79,3.39-1.19,5.08-1.34,5.65-2.61,11.33-4.04,16.95-.96,3.76-2.32,7.32-4.1,10.61-.69,1.28-1.51,2.39-2.57,3.25-2.69-6.35-3.48-37.03-1.36-50.21.12-.18.24-.39.39-.57.25-.29.52-.56.79-.82,7.95-7.9,13.02-17.99,15.04-30.39.51-3.14.51-6.28-.27-9.36-.88-3.45-2.65-5.75-5.62-6.38-2.63-.56-4.89.61-6.91,2.56-3,2.89-5.19,6.61-6.94,10.72-5.52,13-7.92,27.1-9.11,41.54-.18,2.18-.27,4.37-.34,6.57-.52,1.36-1.03,2.74-1.53,4.11-1.64,4.44-3.48,8.75-5.88,12.63-1.82,2.95-3.99,5.44-6.96,6.57-.93.35-1.85.65-2.88.07-1.45-4.32-2.47-8.8-2.74-13.17,2.2-2.98,4.37-5.62,6.26-8.53,3.33-5.12,5.7-10.86,6.82-17.35.59-3.41.76-6.8-.31-10.09-1.04-3.21-2.91-5.34-5.71-6.07-3.37-.87-6.26.51-8.87,2.98-3.39,3.2-5.61,7.5-7.04,12.41-1.49,5.11-2.37,10.33-2.59,15.69-1.02.9-2.1,1.69-3.28,2.29-1.33.67-2.68,1.29-4.24.93-.04-.44-.11-.77-.08-1.09.32-3.65.7-7.29.97-10.95.5-6.81-.02-13.49-1.89-19.95-.71-2.45-1.84-4.61-3.53-6.21-2.63-2.49-5.89-2.28-8.31.49-1.72,1.97-2.83,4.4-3.5,7.15-1.15,4.73-1.53,9.55-.8,14.44,1.21,8.12,3.93,15.1,9.79,19.68.34.26.62.63,1.03,1.05-1.53,7.3-3.63,14.19-7.61,19.99-.46.67-1.1,1.16-1.87,1.95-.64-2.01-1.23-3.64-1.69-5.32-1.48-5.48-2.12-11.12-2.15-16.89-.02-3.16-.23-6.32-.28-9.48-.04-2.68-1.84-4.75-4.17-4.37-.95.15-1.89.42-2.85.65-1.28,1.52-2.18,3.21-2.75,5.34-1.54,5.75-3.24,11.44-4.95,17.12-.51,1.68-1.14,3.35-2.27,4.89-.16-1.19-.36-2.11-.4-3.03-.23-6.33-.2-12.66.47-18.95.75-6.95,1.9-13.81,3.31-20.6.17-.82.32-1.67.36-2.52.14-3.22-1.28-4.83-3.82-4.39-.89.15-1.77.37-2.66.45-1.63.14-2.7,1.18-3.31,2.98-.29.86-.52,1.77-.71,2.67-1.11,5.38-2.05,10.79-2.59,16.32-.78,7.92-1.11,15.83-.28,23.76.3,2.89.82,5.73,1.94,8.33,1.69,3.92,4.73,5.57,7.57,3.83,1.25-.76,2.36-2.08,3.3-3.4,1.94-2.71,3.18-5.97,4.29-9.31.16-.5.41-.96.73-1.7.58,3.35,1.03,6.34,1.62,9.29.66,3.28,1.83,6.27,3.79,8.7,2.46,3.05,5.77,3.73,8.93,1.84,1.89-1.14,3.49-2.78,4.81-4.77,2.25-3.38,4.08-7.11,5.34-11.22,1.02-3.34,1.94-6.74,2.98-10.35,3.06.1,6.11-.54,8.87-2.41.22,3.47.63,6.87,1.63,10.17,1.13,3.75,2.72,7.09,5.22,9.69,2.13,2.22,4.54,3.49,7.35,3.57,4.33.12,7.88-2.07,10.95-5.66,2.55-2.98,4.51-6.4,6.18-10.04.27,5.35,1.08,10.62,2.38,15.77.85,3.36,2.02,6.55,3.87,9.29,3.07,4.55,7.93,5.21,11.25,1.87,1.16-1.17,2.25-2.53,3.19-3.98,2.27-3.51,3.8-7.57,4.87-11.82.56-2.21,1.09-4.43,1.62-6.66.8,3.52,2.17,6.74,4.38,9.44,2.35,2.86,5.24,4.29,8.42,4.14,2.96-.14,5.82-1.27,8.31-3.5,2.65-2.37,4.97-5.14,6.99-8.32,1.09-1.71,2.07-3.51,3.01-5.35.56,4.06,1.67,7.93,3.9,11.22,2.85,4.22,6.72,5.6,10.94,3.25,2.28-1.26,3.93-3.46,5.42-5.82,1.14-1.8,2.11-3.78,3.22-5.82,5.97-.26,10.69-3.75,14.71-8.92-.36,4.81-.68,9.63-.96,14.45-.14,2.3-.16,4.62-.12,6.93.04,1.82,1.12,3.37,2.48,3.6,1.67.29,3.31.24,4.66-1.35.34-.41.75-.79,1.18-1.01,1.22-.62,1.75-1.83,2.07-3.3.69-3.13,1.39-6.26,2.1-9.38,2.87-12.62,6.39-24.92,11.59-36.4,1.06-2.33,2.07-4.71,3.77-7.2-.11,2.4-.13,4.28-.31,6.13-.46,4.66-.97,9.32-1.5,13.97-.75,6.6-1.53,13.19-2.3,19.78-.43,3.63-.92,7.26-1.3,10.9-.4,3.86,1.52,5.89,4.52,4.85,1.46-.51,2.89-1.11,4.34-1.67.87-.33,1.36-1.15,1.68-2.12.26-.79.45-1.61.66-2.43,1.47-5.72,3.33-11.22,5.73-16.44,1.92-4.18,4.14-8.08,6.95-11.42.48-.57,1.02-1.07,1.94-2.04.26,1.71.54,2.78.55,3.86.04,3.33,0,6.67-.05,10.01-.09,4.87-.33,9.74-.29,14.6.02,2.54.34,5.12.84,7.59,1.03,5.04,4.03,7.46,7.82,7.64,1.03.05,2.08-.77,3.14-1.1,2.39-.77,4.24-2.55,5.58-5,1.54-2.82,3.09-5.7,4.22-8.78,1.17-3.19,2.3-6.4,3.41-9.63.19.88.41,1.75.67,2.62,1.13,3.75,2.72,7.09,5.22,9.69,2.13,2.22,4.54,3.49,7.35,3.57,4.33.12,7.88-2.07,10.95-5.66,5.59-6.52,8.36-15.15,11.41-23.56.62-1.72-.29-3.64-1.28-4.12h0ZM180.4,237.32c.73,2.16.69,4.32.32,6.36-1.45,8.15-4.33,15.43-8.98,21.56-.14.18-.33.3-.75.68,2.07-10.31,4.59-20.01,9.41-28.6h0ZM113.54,279.73c-.12,2.47-.42,4.92-.67,7.38-.1,1-.3,1.99-.51,3.4-3.43-7.15-3.96-23.7-1.38-29.28.69.56.85,1.47,1.09,2.31,1.47,5.26,1.74,10.7,1.47,16.19h0ZM142.49,264.64c1.28.09,1.76,1.05,2.05,2.11.45,1.62.65,3.29.4,5.04-.45,3.14-1.23,6.17-2.47,8.94-1.33,2.98-2.9,5.81-4.42,8.65-.44.83-1.1,1.48-1.65,2.22.02-9.85,1.31-19.06,6.09-26.95h0ZM226.86,314.36c-1.48-5.95-2.26-11.75-1.92-18.3,2.01,4.66,4.47,8.15,8.13,10.45-1.75,3.11-3.12,6.36-6.21,7.85h0ZM237.6,287.21c-.21,4.01-.84,7.92-1.9,11.73-.15.55-.4,1.06-.71,1.88-1.02-.95-2.04-1.68-2.82-2.68-4.16-5.33-5.1-14.64-2.2-21.19.75-1.71,1.68-3.31,3.41-3.21,1.65.1,2.38,1.84,3,3.48,1.21,3.17,1.41,6.57,1.23,10h0ZM341.74,264.64c1.28.09,1.76,1.05,2.05,2.11.45,1.62.65,3.29.4,5.04-.45,3.14-1.23,6.17-2.47,8.94-1.33,2.98-2.9,5.81-4.42,8.65-.44.83-1.1,1.48-1.65,2.22.02-9.85,1.31-19.06,6.09-26.95h0Z"/>
</svg>