<?xml version="1.0" encoding="UTF-8"?>
<svg id="Layer_1" xmlns="http://www.w3.org/2000/svg" version="1.1" viewBox="0 0 881.6 879.5">
  <!-- Generator: Adobe Illustrator 30.2.1, SVG Export Plug-In . SVG Version: 2.1.1 Build 1)  -->
  <defs>
    <style>
      .st0 {
        fill: #c4173d;
      }

      .st0, .st1, .st2, .st3 {
        fill-rule: evenodd;
      }

      .st1 {
        fill: #1e534c;
      }

      .st2 {
        fill: #b69987;
      }

      .st3 {
        fill: #f0ab5e;
      }
    </style>
  </defs>
  <path class="st2" d="M658.69,256.13c-10.82,3.27-27.45,17.18-33.96,28.39-3.12,5.38-3.91,6.05-9.66,8.21-7.8,2.92-14.79,7.66-16.67,11.3-2.07,4.01-6.78,9.13-8.4,9.13-.82,0-1.15.61-.81,1.49.32.82.02,1.94-.64,2.49-6.33,5.21-9.88,7.9-10.84,8.22-4.84,1.61-.26,24.36,6.75,33.55,3.18,4.16,2.55,5.96-2.33,6.73-7.91,1.25-9.79,2.1-12.08,5.5-3.36,4.98-2.65,7.24,2.77,8.83,5.91,1.73,7.93,2.7,11.28,5.38,5.62,4.52,39.29,2.89,55.7-2.69,7.48-2.54,8.74-2.19,8.16,2.3-.85,6.6,18.4,7.55,32.37,1.6,3.01-1.28,7.18-1.73,16.99-1.81,16.72-.15,21.98-3.23,15.5-9.09-2.37-2.14-2.61-5.75-.5-7.5,4.12-3.42-.05-15.85-6.08-18.1-.59-.22-2.76-3.91-4.81-8.2-5.35-11.19-16.31-18.83-30.35-21.17-9.27-1.54-6.81-3.19,15.9-10.63,36.36-11.92,50.14-27.96,31.53-36.71-16.93-7.96-40.28.14-59.36,20.58l-6.17,6.61-4.08-2.83c-5.47-3.79-5.41-3.96,5.17-12.55,22.25-18.09,25.28-23.01,17.52-28.45-2.34-1.64-8.49-1.92-12.92-.58"/>
  <path class="st1" d="M123.56,46.41c-.91.69-2.35,2.94-3.21,5-1.82,4.42-2.73,4.59-6.7,1.25-7.38-6.21-14.78.86-9.32,8.91,3.21,4.73,3.18,4.95-1.03,6.47-9.56,3.46-6.92,14.99,2.84,12.39,5.9-1.58,6.04-2.51-2.78,18.51-3.45,8.22-6.12,20.82-7.61,35.97-1.4,14.15-1.85,14.58-5.91,5.61-6.32-13.93-21.57-33.36-26.19-33.36-2.83,0-3.95,7.39-2.68,17.67,2.6,20.92,17.76,44.65,34.91,54.64,2.82,1.64,5.19,3.99,6.23,6.17,3.32,6.97,7.16,3.21,4.44-4.35l-1.62-4.5,5.33-8.07c12.38-18.76,21.28-48.57,14.5-48.57-5.19,0-20.94,20.93-20.94,27.82,0,.65-.67,1.18-1.5,1.18-4.99,0,2.92-48.81,9.05-55.84.16-.19,1.87.23,3.79.92,4.63,1.67,8.1-.48,9.78-6.07,1.44-4.8,1.86-4.87,5.73-1,7.47,7.47,16.12-.42,9.15-8.35-3.76-4.28-3.76-5.33-.03-6.15,2.7-.59,8.03-5.53,8.03-7.45,0-3.56-4.48-6.27-9.66-5.84l-5.34.44v-4.7c0-7.58-4.8-12.09-9.28-8.72M791.89,114.42c-4.16,2.11-6.45,7.37-7.03,16.13-.65,9.92-1.91,10.46-6.08,2.65-6.11-11.47-14.31-16.69-18.95-12.05-4.06,4.06-1.67,12.63,5.97,21.46,5.05,5.84,4.41,6.35-4.51,3.6-9.39-2.9-12.96-2.71-16.54.86-6.96,6.96,2.83,16.08,17.26,16.08,5.16,0,5.02,2.32-.25,3.9-9.78,2.93-17.25,14.8-12.18,19.37,4.39,3.96,9.74,3.03,17.04-2.95,5.32-4.36,7.63-3.4,4.46,1.86-4.15,6.89-13.85,25.74-18.96,36.82-5.91,12.83-7.42,13.95-8.51,6.35-1.18-8.19-4.59-16.35-6.83-16.35-5.52,0-7.78,25.9-3.43,39.31,1.51,4.68,1.65,6.19.68,7.74-3.47,5.55.74,8.23,4.64,2.95,1.37-1.86,3.11-3,4.58-3,16.49,0,50.73-21.45,44.38-27.8-3.05-3.05-18.38-.94-28.6,3.94-8.15,3.89-8.28,3.62-3.82-7.4,9.92-24.51,18.93-38.87,19.9-31.7.66,4.91,3.13,7.96,6.44,7.96,6.72,0,9.62-5.15,9.71-17.24.07-9.86.86-10.43,4.41-3.19,5.29,10.77,12.68,17.32,17.49,15.49,8.19-3.11,6.53-13.03-3.92-23.48-5.73-5.73-5.51-6.03,2.62-3.47,9.63,3.03,17.12,3.01,20.37-.03,6.37-5.97,1.12-12.95-10.94-14.55-12.35-1.64-13.45-2.99-5.66-6.94,13.39-6.79,16.73-20.6,4.97-20.6-3.63,0-13.27,5.56-17.24,9.95-3.69,4.08-5.28,2.75-3.07-2.55,4.1-9.81,2.58-21.28-3.09-23.44-3.02-1.15-2.38-1.18-5.33.31M76.2,202.52c-3.31,2.84-3.66,9.45-.88,16.35,2.42,6,1.58,6.92-3.01,3.25-8.67-6.91-14.87-8.58-18.48-4.97-4.09,4.09-1.1,10.6,6.67,14.54,7.84,3.98,9,6.45,3.02,6.46-12.01.02-19.23,7.55-13.11,13.67,3.09,3.09,11.34,2.75,17.2-.71,7.19-4.24,7.62-2.79,1.66,5.56-5.58,7.82-6.48,11.89-3.46,15.72,4.34,5.52,12.48.85,16.09-9.24,1.54-4.29,3.93-6.58,3.93-3.76,0,7.07,5.7,17.3,10.18,18.29,2.18.48,3.91,2.12,6.52,6.21,1.95,3.06,6.35,8.77,9.78,12.69,3.42,3.93,6.77,8.16,7.44,9.42l1.22,2.28-7.32-.81c-20.01-2.22-37.36,3.51-29.8,9.85,8.88,7.43,32.34,9.9,46.29,4.88,5.52-1.99,7.13-2.23,8.5-1.24,7.39,5.31,10.99,3.21,4.43-2.58l-4.22-3.72,1.17-7.26c2.41-14.94-4.93-39.31-9.94-32.99-2.19,2.76-3.52,12.18-2.96,20.91.32,4.86.21,8.84-.23,8.84-5.09,0-24.07-25.68-24.07-32.56,0-2.4-.94-6.88-2.1-9.97-2.63-7.04-2.09-7.57,3.29-3.21,7.83,6.33,13.06,7.49,16.81,3.74,3.93-3.93.74-10.64-7-14.72-7.42-3.91-7.67-6.22-.7-6.26,5.78-.03,12.7-4.93,12.7-9,0-6.52-7.11-8.63-16.95-5.04-6.45,2.36-6.87,2.17-3.78-1.6,7-8.54,8.74-15.85,4.5-18.82-4.99-3.49-11.65.38-15.78,9.17-2.49,5.29-4.97,4.22-5.02-2.17-.07-9.76-7.07-15.97-12.62-11.2M794.69,267.68c-2.66,1.45-6.85,8.65-6.85,11.8s-1.93,1.76-5.57-3.73c-4.1-6.17-7.67-8.2-11.71-6.67-4.44,1.69-4.92,9.99-.85,14.53,3.4,3.79,3.56,5.88.4,5.17-8.69-1.93-11.73-1.85-14.51.35-6.31,4.99-2.35,10.64,9.2,13.11,6.08,1.3,6.41,2.93,1.07,5.29-7.2,3.18-9.99,9.39-6.47,14.41,1.82,2.59,6.1,2.95,9,.76,5.35-4.04,5.92.11.89,6.47-1.96,2.47-7.24,9.42-11.75,15.45-9.91,13.24-10.03,13.27-10.86,2.32-1.22-15.96-7.29-28.49-10.68-22.02-3.65,6.96-3.68,22.59-.08,37.03l2.07,8.29-3.07,3.5c-3.34,3.8-3.97,7.15-1.53,8.09,1.02.39,2.76-.82,5.08-3.53l3.53-4.12h7.74c11.2,0,21.5-3.4,28.6-9.44l3-2.55-2.19-1.87c-3.05-2.6-9.18-3.36-16.96-2.12-9.92,1.59-10.01,1.93,4.9-19.3,5.36-7.64,9.77-14.19,9.79-14.55.06-1.18,4.86-6.61,5.37-6.09.27.27.9,3.07,1.39,6.22,2.4,15.32,15.2,13.18,13.9-2.33-.66-7.85.27-8.78,4.38-4.33,5.06,5.49,11.66,6.73,15.47,2.92,4.58-4.57,2.05-9.6-7.79-15.47-3.82-2.28-4.86-4.08-2.36-4.08,2.76,0,11.6-3.33,13.01-4.89,7.06-7.84-3.05-15.96-13.28-10.67-5.17,2.67-6.46,1.53-4.11-3.65,4.62-10.18-.19-18.6-8.16-14.27M553.85,346.63c-8.47,15.9-20.78,23.58-28.8,17.96-4.59-3.22-6.81-10.96-3.47-12.1,24.1-8.26,35.11-33.19,19.81-44.86-17.14-13.07-38.1,8.48-39.06,40.18-.37,12.03-.76,13.34-5.36,17.72-11.26,10.72-12.39-7.59-4.17-67.88,3.32-24.33,3.62-29.76,1.77-31.29-2.18-1.81-8.1-2.33-10.75-.95-3.22,1.67-4.59,5.96-6.69,20.94-1.9,13.55-2.29,14.2-9.34,15.71-11.86,2.54-12.58,1.89-10.98-9.84,1.34-9.74.82-11.83-3.34-13.57-7.8-3.26-11.9.7-13.71,13.25q-1.68,11.66-11.36,10.89-10.11-.78-8.62-10.46c1.42-9.12.79-11.22-3.97-13.19-7.24-3-11.77,1.29-12.75,12.09-.62,6.81-.94,7.15-8.18,8.75-11.02,2.43-11.56,8.63-.92,10.55,5.61,1.01,5.84,1.77,4.33,14.11-.74,6.05-1.67,17.23-2.06,24.85-.68,13.29-.83,14.04-3.81,18.47-11.43,17.01-15.2,4.19-10.23-34.83,1.81-14.24-1.7-19.49-10.72-16.06-5,1.9-8.65,19.81-8.65,42.42,0,12.31-12.41,23.18-16.71,14.64-2.86-5.68-.91-33.77,5.3-76.38,3.21-22-.87-29.57-11.99-22.28-4.38,2.87-12.57,58.4-12.59,85.36-.02,29.51,16.91,41.64,32.4,23.22,2.89-3.43,5.19-3.75,6.11-.85,2.69,8.49,17.24,7.56,27.56-1.76l3.99-3.61,3.26,3.56c7.45,8.13,18.86,7.13,29.39-2.57l4.5-4.15,3.13,3.69c6.97,8.2,18.68,7.9,29.23-.74,5.19-4.25,4.82-4.25,8.84.02,5.87,6.23,17.53,4.66,25.37-3.42,4.79-4.93,4.54-4.91,9.26-.65,15.53,14.03,42.51,1.26,50.1-23.72,3.66-12.05-.33-14.15-6.14-3.24ZM435.28,319.66c-.55,36.58-5.61,53.5-15.99,53.5-6.3,0-8.58-47.51-2.75-57.29.26-.43,4.59-.66,9.64-.5l9.17.29-.06,4ZM462.72,368.6c-10.47,8.81-14.32-4.69-10.9-38.21,1.53-15.04,1.37-14.76,9.94-16.14,3.49-.56,6.6-1.28,6.92-1.59,2.16-2.16,3.66.36,3.58,6.02-.53,35.95-1.99,43.58-9.53,49.93ZM527.57,318.53c6.98-6.47,10.77.71,5.9,11.18-2.32,4.99-9.71,12.44-12.34,12.44-4.82,0,0-17.65,6.44-23.63ZM76.47,347.18c-1.85,2.2-2.63,4.28-2.63,6.99,0,5.35-1.43,5.73-6.01,1.59-11.58-10.46-22.74.8-11.89,11.99,3.72,3.84,3.32,4.92-2.18,5.8-16.36,2.62-13.67,18.93,2.83,17.15,6-.65,6.15-.42,2.78,4-7.66,10.04.03,21.67,10.22,15.46,1.79-1.09,3.28-1.88,3.32-1.75.04.13.2,7.21.36,15.73.3,15.81,1.98,28.66,5.81,44.22,2.7,10.97,2.27,11.31-5.45,4.33-9.91-8.97-27.9-17.04-29.38-13.17-3.54,9.24,20.78,34.14,40.59,41.56,5.26,1.97,5.72,2.43,10.51,10.81,3.49,6.1,5.65,8.84,7.12,9.05,3.66.52,3.33-2.28-1.16-9.85-5.93-9.99-6.05-10.87-2.49-17.91,10.64-21.07,16.24-51.62,9.7-52.87-5.9-1.13-18.68,23.69-18.68,36.28,0,1.57-1.84.19-2.94-2.21-6.19-13.51-10.43-67.02-4.86-61.45,6.22,6.22,14.53-2.3,11.64-11.94-1.5-5.01-.9-5.44,4.02-2.93,8.25,4.21,15.14,1.16,15.14-6.71,0-4.57-2.38-7.22-8.75-9.75-4.72-1.87-5.51-3.94-1.86-4.85,1.31-.33,3.79-2.19,5.5-4.14,7.75-8.83-.58-18.14-11.15-12.47-6.04,3.23-6.67,2.85-6.48-3.98.3-10.87-7.64-16.11-13.63-9M803.5,369.29c-2.4,1.4-4.66,6.88-4.66,11.33s-1.21,4.43-5.65.53c-9.72-8.54-19.48,2.31-10.77,11.96,4.09,4.52,3.9,5.54-1.18,6.49-12.64,2.37-10.42,17.63,2.35,16.14,5.77-.67,6.02-.37,4.1,4.93-3.44,9.51,5.19,15.88,12.65,9.34,4.58-4.02,4.3-5.48,3.43,17.86-1.03,27.54-2.74,32.69-6.69,20.15-1.23-3.92-3.83-9.73-5.76-12.91-17.3-28.49-20.44.43-3.42,31.54l7.11,13-2.21,5c-3.39,7.68-3.67,10.5-1.02,10.5,1.67,0,2.73-1.28,4.62-5.55,1.69-3.82,3.44-6.08,5.59-7.25,16.98-9.19,33.41-28.89,34.12-40.91.45-7.61-10.03-3.48-22.1,8.71l-7.42,7.5.62-4.5c1.15-8.39,2.6-27.47,2.61-34.37,0-6.67.07-6.85,2.26-6.12,8.16,2.72,11.16-.13,10.39-9.85-.49-6.17-.38-6.76,1.16-6.08,7.59,3.38,15.2.29,15.2-6.17,0-3.83-4.69-8.42-8.61-8.42-3.68,0-4.25-2.9-1.03-5.25,5.78-4.21,7.09-10.39,3.06-14.42-3.17-3.17-7.66-2.78-12.75,1.1-4.54,3.46-4.68,3.38-4.68-2.98,0-10.04-4.98-15.01-11.34-11.32M568.27,600.15c-7.36,14-19.13,18.91-25.94,10.82-3.72-4.42-2.85-8.81,1.74-8.81,16.27,0,27.41-29.92,14.62-39.29-15.56-11.4-34.8,9.59-34.85,38-.02,11.72-6.34,19.29-10.63,12.75-1.55-2.37-1.55-3.56.11-18.01,2.36-20.6,1.43-25.37-5.62-29.02-5.79-2.99-13.47.87-19.05,9.57-3.06,4.78-1.91-18.07,1.87-37.18,1.15-5.8-8.08-10.36-12.07-5.95-2.24,2.48-3.29,6.42-4.15,15.6-.93,9.95-2.23,11.53-10.02,12.23-7.58.69-8.56-.27-7.4-7.19,1.84-11.03.02-14.89-6.76-14.31-5.1.44-7.37,3.88-8.04,12.21-.65,8.15-.54,8.07-12.4,8.09-10.2,0-13.86,1.47-13.86,5.54,0,2.9,2.12,3.67,11.95,4.33,12.07.82,11.58.07,10.19,15.34-3.95,43.51,6.1,60.26,26.18,43.64,3.61-2.99,5.07-2.95,6.49.16,3.5,7.68,14.17,2.06,14.2-7.47.08-21.6,9.12-47.31,14.68-41.75,1.45,1.45,1.47,2.64.2,12.41-4.55,34.99,5.13,48.12,22.59,30.66,4.99-4.98,5.51-5.13,8.1-2.21,11.06,12.43,36.21,3.39,43.29-15.56,4.61-12.34.46-15.83-5.45-4.58ZM470.51,590.78c-1.13,18.1-1.32,19.24-3.93,23.18-8.76,13.24-15.33,8.04-14.31-11.31,1.66-31.5,1.43-30.62,8.24-31.56,12.35-1.72,11.44-3.51,9.99,19.69ZM539.21,592.67c-.99-2.59,3.44-15.1,6.53-18.4,8.95-9.58,10.79,5.28,1.9,15.38-4,4.55-7.38,5.76-8.43,3.02ZM382.13,574.79c-1.77.87-4.38,3.11-5.8,4.98-3.13,4.11-4.06,4.23-4.96.65-1.05-4.18-2.41-5.26-6.65-5.26-7.64,0-8.31,2.07-9.39,29-.66,16.44-2.63,22.62-7.82,24.45-6.58,2.31-7.71-7-4.09-33.52,1.98-14.51,1.31-16.93-4.68-16.93-7.78,0-9.12,2.29-11.42,19.61-4.14,31.14-.8,43.4,11.84,43.39,4.93,0,6.4-.6,12.96-5.23,1.53-1.08,2.06-.91,3.61,1.13,5.54,7.28,13.56,1.39,14.5-10.65,1.74-22.38,6.68-38.48,12.23-39.87,4.58-1.15,4.85.49,2.51,14.83-4.43,27.05-1.96,35.79,10.12,35.79,9.23,0,16.67-6.26,20.25-17.04,4-12.05-.59-14.28-6.26-3.04-8.92,17.65-13.37,11.29-10.05-14.36,3.36-25.99-2.2-35.19-16.91-27.93M762.08,625.41c-16.32,20.28-13.57,59.58,4.93,70.51,4.15,2.45,4.22,3.83.81,17.4-3.53,14.02-11.89,43.09-12.61,43.81-.97.97-2.34-2.59-2.35-6.14-.08-19.79-12.63-54.6-19.33-53.63-11.07,1.61-9.88,47.14,2.24,85.67,3.67,11.65,3.01,13.45-11.93,32.68-6.55,8.43-7.42,10.23-5.89,12.08,4.4,5.3,6.89,3.53,18.54-13.11l8.65-12.36,7.51-3.27c17.63-7.69,37.45-24.03,48.03-39.61,7.81-11.5,16.2-31.17,14.83-34.75-2.42-6.31-34.79,15.39-46.92,31.46-4.16,5.5-4.22,3.05-.3-10.84,3.39-11.99,6.35-23.75,9.72-38.57l1.35-5.94,6.51-1.58c19.42-4.7,30.99-23.6,30.99-50.59,0-13.57-2.42-14.02-14.25-2.65-4.6,4.43-5.19,3.9-6.61-5.96-2.31-16.07-4.46-16.21-16.09-1.05-4.03,5.26-4.65,5.1-7.62-1.96-4.84-11.47-7.68-14.7-10.19-11.58M90.21,654.41c-.93,1.79-2.48,5.5-3.44,8.25-2.35,6.68-3.7,6.64-9.27-.31-9.51-11.86-12.21-10.7-14.13,6.06-.71,6.19-1.95,7.13-4.98,3.79-9.57-10.57-14.54-10.36-14.54.62,0,24.37,12.67,44.03,30.59,47.47,7.51,1.44,7.65,1.61,10.4,12.36,1.26,4.95,4.29,14.62,6.72,21.5,8,22.66,8.09,24.07,1.02,17.36-11.16-10.6-29.09-20.36-37.41-20.36-3.77,0,.32,10.26,8.2,20.56,10.81,14.13,26.29,24.33,44.64,29.42,6.46,1.79,7.55,2.5,13.08,8.54,11.24,12.27,16.58,6.5,6.23-6.73-6.27-8.01-6.1-6.76-2.82-20.79,3.88-16.62,1.85-50.85-3.28-55.1-4.67-3.88-11.16,14.19-12.25,34.1l-.63,11.5-4.23-9.57c-4.25-9.62-9.99-26.27-12.89-37.42-1.53-5.87-1.52-6.02.6-7.5,16.69-11.67,20.09-33.56,8.76-56.51-5.21-10.55-7.75-12.33-10.38-7.25"/>
  <path class="st0" d="M760.23,472.57c-7.24-1.36-10.06,3.04-5.89,9.18,6.45,9.5-1.03,24.06-16.33,31.82-11.37,5.76-11.31,13.44-.64-73.45,4.38-35.63,3.93-37.99-7.78-41.11-14.88-3.97-19.9,2.3-22.29,27.82-3.7,39.55-14.13,64.33-27.06,64.33-11.05,0-11.18-18.99-.44-61.41,4.62-18.22,4.97-23.13,1.94-26.98-6.62-8.42-24.74-7.66-29.34,1.24-3.51,6.78-10.58,51.17-10.58,66.42,0,16.76-17.17,31.93-21.94,19.39-1.64-4.32-1.3-9.54,2.06-31.66,7.85-51.6-2.11-71.21-30.27-59.63-8.66,3.56-17.42,11.84-22.49,21.25-2.81,5.21-3.6,4.07-2.84-4.09,1.18-12.65-1.2-15.55-12.75-15.5q-15.98.07-19.68,66.21c-.99,17.8-2.27,21.05-11.64,29.69-12.14,11.19-15.81-1.02-10.47-34.92,4.8-30.48,3.75-44.25-3.94-51.95-12.43-12.43-38.36-3.57-48.04,16.41-3.16,6.53-4.04,5.63-3.34-3.42,1.23-15.98-20.19-22.02-27.79-7.83-.95,1.78-3.25,32.59-4.42,59.29-.76,17.34-1.92,20.87-9.47,28.69-15.64,16.23-18.54-1.27-10.5-63.49,3-23.2,1.93-26.38-9.19-27.45-16.35-1.57-19.44,2.64-22.34,30.52-4.96,47.53-12.13,68.22-23.64,68.22-10.77,0-11.67-16.11-3.63-64.69,4.64-27.99,3.8-30.32-10.92-30.3-16.2.02-17.5,2.41-21.91,40.39-6.35,54.7-.11,76.58,22.32,78.31,11.62.9,25.74-7.58,31.87-19.13,3.13-5.9,4.19-5.77,6.25.77,5.51,17.49,27.14,19.52,43.63,4.1,3.32-3.11,5.14-4.23,5.4-3.32,2.33,8.42,4.09,9.85,12.15,9.83,15.44-.03,17.27-2.19,19.1-22.57,3.4-37.86,12.21-66.33,23.46-75.79,9.52-8.01,11.97-.03,7.49,24.48-9.67,52.99-5.26,71.01,17.41,71.15,8.42.05,15.82-3.08,22.86-9.66,5.78-5.41,5.83-5.42,6.67-1.58,1.23,5.59,4.84,7.31,14.2,6.74,14.11-.86,15.75-2.59,16.79-17.73,2.64-38.47,14.64-75.16,26.83-82,8.24-4.63,9.18,4.16,3.7,34.92-6.63,37.25-4.33,54.26,8.17,60.49,12.03,6,27.43,1.17,39.52-12.39l3.11-3.49,1.84,3.49c10.03,19.02,40.43,15.8,51.9-5.49,2.47-4.58,4.76-4.74,3.93-.27-.33,1.79-1.17,8.55-1.87,15.02-1.49,13.89-.81,12.98-12.13,16.26-58.53,16.96-78.96,79.66-32.82,100.72,32.43,14.8,58.78-14.67,68.38-76.46,2.24-14.42,3.75-18.79,6.51-18.79,5.99,0,25.68-10.12,32.8-16.85,15.71-14.85,14.55-40.64-1.96-43.73ZM694.37,545.41c-.28,1.24-1.63,7.94-3,14.9-7.89,39.9-20.38,56.95-35.11,47.97-18.99-11.58-2.61-48.04,27.94-62.18,7.8-3.61,10.88-3.82,10.18-.68ZM681.55,116.92c.83-5.65,1.72-5.97,12.83-4.66,48.89,5.77,79.75-18.94,58.92-47.17-8.97-12.16-23.85-12.57-17.93-.49,8.83,18.06-9.62,32.32-38.09,29.43-11.65-1.18-11.29-.5-8.63-16.16,3.32-19.57,2.72-21.35-8.02-23.75-13.79-3.09-19.69.74-22.78,14.81-3.65,16.6-1.47,15.52-21.1,10.38-37.07-9.71-66.79-7.68-80.36,5.5-13.7,13.31-9.54,33.78,4.26,20.96,13.35-12.4,35.64-14.14,75.56-5.92,15.28,3.15,14.44,1.78,11.84,19.08-2.71,18.05-4.11,30.91-5.05,46.49-.9,14.88.09,13.39-14.3,21.61-12.81,7.33-12.72,7.32-17.5,1.35-2.09-2.61-6.68-8.09-10.19-12.17-14.76-17.16-19.1-30.96-12.51-39.78,10-13.4,22.36-6.78,16.9,9.04-3.82,11.07-2.73,14.66,4.44,14.66,20.35,0,19.74-36.34-.74-44.03-32.68-12.26-61.31,22.74-45.7,55.85l3.45,7.32-4.77,10.68c-13.64,30.56-35.55,46.31-53.43,38.4-9.93-4.39-16.98-23.23-8.69-23.23,40.38,0,66.13-68.65,29.79-79.44-33.32-9.89-64.88,27.76-64.88,77.42v11.71l-3.95,6.11c-17.14,26.52-31.08,11.74-28.05-29.75,3.86-52.84,5.94-60.62,16.11-60.24,29.61,1.09,46.89-10.02,46.89-30.18,0-10.8-5.37-12.55-10.67-3.48-6.29,10.77-13.73,14.26-30.53,14.32-12.7.04-12.23.89-9.57-17.28,2.85-19.43,1.24-22.18-13.02-22.18-12.44,0-14.94,2.72-18.18,19.78-2.72,14.35-1.12,13.5-18.03,9.68-45.32-10.23-72.91-5.36-78.07,13.78-2.65,9.84,1.38,12.52,11.27,7.48,14.23-7.25,37.72-6.9,73.79,1.11,4.33.96,4.42,3.22,1.16,27.67-2.56,19.19-4.14,40.01-4.16,55-.02,12.49-2,17.5-10.1,25.61-12.95,12.95-17.57-4.81-11.99-46.11,6.28-46.57,6.29-44.1-.18-47.04-7-3.18-17.75-1.95-22.78,2.6-2.94,2.66-3.78,6.94-6.49,32.95-4.67,44.78-12.14,64.34-24.2,63.3-11.78-1.01-12.04-25.17-.82-76.3,3.43-15.62.8-20.64-11.18-21.32-18.98-1.07-23.2,8.85-27.1,63.82l-.89,12.5-5.05,8.5c-24.05,40.47-65.3,51.98-87.34,24.36-37.67-47.2,1.21-188.01,51.12-185.19,20.32,1.15,25.55,36.02,9.52,63.39-10.49,17.91-29.19,13.55-19.97-4.66,5.03-9.93-2.67-15.71-10.8-8.11-11.95,11.19-8.18,37.48,6.46,45.01,28.73,14.78,60.88-17.58,60.77-61.19-.09-36.24-28.77-60.4-62.98-53.07-91.83,19.69-127,199-46.5,237.03,22.78,10.76,54.16,7.83,76.49-7.15,9.91-6.65,29.01-26.75,29.01-30.54,0-2.68,2.87-.18,5.44,4.74,10.64,20.36,41.78,16.23,53.43-7.1,2.87-5.75,3.63-5.52,6.66,1.98,8.26,20.46,36.33,18.63,49.13-3.21,3.09-5.28,4.84-5.43,6.85-.61,8.6,20.58,37.39,20.59,56.01.01,3.01-3.33,5.47-6.42,5.47-6.88,0-2.27,3.24-.34,5.88,3.5,22.94,33.34,82.13,9.29,97.66-39.67,2.79-8.8,3.05-8.8,10.47-.23,7.35,8.5,7.35,8.45.06,12.95-32.89,20.3-32.01,56.18,1.46,59.31,31.62,2.95,53.41-25.17,43.16-55.72-3.06-9.13-3.1-9.04,5.5-12.84,9.5-4.2,9.81-4.14,9.81,1.81,0,55.78,65.43,50.24,80.1-6.79,4.79-18.61-3.83-23.67-10.88-6.39-11.35,27.79-30.05,37.51-35.84,18.62-3.1-10.11-1.68-38.36,3.71-74.17,1.14-7.53,2.31-15.38,2.61-17.43ZM514.75,144.57c12.29-8.35,18.18,5.29,9.8,22.72-7.09,14.75-28.71,29.7-28.71,19.86,0-13.71,10.19-36.65,18.91-42.58ZM594.14,249.79c-5.98,5.98-14.35,5.68-17.6-.64-4.1-7.97.96-18.27,13.68-27.82,10.27-7.71,13.88,18.5,3.92,28.46ZM211.13,316.25c-56.59,6.59-98.77,58.17-79.74,97.53,7.12,14.73,27.96,24.29,35.04,16.07,3.11-3.61,3.22-3.14-2.46-10.93-31.52-43.24,36.27-106.29,84.56-78.66,25.29,14.47,21.85,59.91-5.91,77.95-10.3,6.7-23.99,8.57-22.33,3.06,5.09-16.89,7.65-62.7,3.72-66.45-7.77-7.43-24.83-4.46-28.8,5.02-2.46,5.89-17.65,123.79-18.98,147.38-.99,17.37,2.87,22.95,15.83,22.94,13.21,0,13.71-1.33,21.32-56.5,4.15-30.11,3.48-28.75,13.47-27.4,63.49,8.58,42.66,100.74-22.79,100.88-43.95.09-72.73-41.85-46.29-67.44,9.51-9.2.57-17.25-12.43-11.19-19.61,9.13-25.38,39.24-12.08,63.03,22.05,39.42,90.5,50.15,134.26,21.03,44.22-29.43,42.87-94.16-2.41-115.14-6.43-2.98-6.46-3.4-.5-6.85,68.5-39.66,29.09-123.95-53.46-114.34M216.84,589.26c-67.86,7.69-114.87,78.43-78.34,117.89,15.17,16.38,38.76,14.13,27.32-2.61-28.33-41.48,18.35-105.29,70.59-96.49,36.51,6.15,50.9,51.14,30.09,94.1-7.42,15.31-32.76,31.63-43,27.7-2.33-.89-.56-19.64,6.81-72.15,3.65-25.99.05-33.55-15.99-33.55-10.24,0-16.4,5.29-17.92,15.41-4.92,32.83-16.32,127.23-20.63,170.83-1.94,19.59.46,23.94,13.54,24.6,18.69.94,21.8-3.54,24.49-35.34,4.35-51.24,3.7-49.04,14.75-49.93,106.77-8.62,115.95-149.98,10.42-160.53q-11.4-1.14-22.14.07M677.17,816.89c-13.39-8.52-15.99-27.59-9.29-68.23,4.27-25.91,4.79-47.52,1.3-54-10.88-20.21-39.84-14.22-54.85,11.35-6.12,10.44-5.91,6.54,3.12-56.68,4.84-33.85,2.77-38.36-16.12-35.22-5.01.83-8.09,2.49-9.93,5.34-3.82,5.92-10.6,61.27-14.09,115.07-1.74,26.85-1.85,27.23-10.76,38.47-18.37,23.18-44.91,24.27-52.59,2.17-8.7-25.04,7.02-72,24.1-72,7.68,0,8.99,7.93,3.27,19.86-6.41,13.38-1.45,20.24,10.29,14.25,19.94-10.18,14.68-44.54-7.52-49.16-34.62-7.2-63.01,25.65-63.86,73.87-.3,16.9-.27,16.82-7.74,24.93-18.97,20.58-29,2.89-24.26-42.75,5.28-50.8,4.28-48.31,19.54-48.62,24.3-.5,39.73-8.52,43.05-22.38,3.34-13.92-5.96-21.49-12.14-9.89-5.31,9.96-14.09,13.88-31.1,13.88-10.8,0-10.7.16-8.41-13.42,2.86-16.99,2.32-18.53-7.16-20.72-13.67-3.16-20.89,1.05-23.27,13.55-2.77,14.59-1.87,14.14-19.73,9.65-45.89-11.53-77.28-7.12-80.74,11.36-1.77,9.45,2.29,11.09,15.05,6.11,13.33-5.21,37.08-4.13,66.49,3.01,13.14,3.19,12.45,2.22,10.58,15.09-2.83,19.42-4.59,39.43-5.23,59.35-.7,21.76-1.02,22.98-8.21,31.13-17.81,20.2-21.11-2.44-10.28-70.56,2.65-16.7,1.72-18.79-9.15-20.51-7.36-1.16-14.42.84-17.98,5.11-2.36,2.82-3.02,3.13-4.5,2.09-37.76-26.66-84.48,34.46-69.71,91.18,8.34,32,42.66,35.76,60.62,6.65,5.28-8.55,5.89-8.65,8.05-1.31,4.76,16.2,18.6,21.53,35,13.45,6.16-3.03,16.81-12.73,16.81-15.31s3.93-.22,7,4.32c11.52,16.99,42.61,13.05,57.54-7.28,4.45-6.06,5.29-6.11,9.28-.55,15.54,21.64,65.76,15.86,80.94-9.31,2.58-4.27,4.24-2.56,4.24,4.36,0,19.85,28.75,17.48,30.41-2.5,3.64-43.74,17.57-82.14,31.02-85.51,7.14-1.79,7.85,6.66,2.73,32.78-11.05,56.41-5.11,86.21,18.5,92.84,19.84,5.57,34.52-5.86,19.67-15.32ZM362.33,740.72c-5.64,41.21-14.22,60.44-26.96,60.44-19.66,0-9.12-69.43,11.93-78.59,12.67-5.52,17.48.29,15.03,18.15Z"/>
  <path class="st3" d="M521.13,64.08c-1.91,4.86-3.2,5.1-5.54,1-3.9-6.85-8.88-2.22-6.26,5.82.65,1.99.39,2.25-2.18,2.25-3.31,0-5.32,1.57-5.32,4.17,0,2.11,2.89,3.83,6.43,3.83,3.09,0,3.24,1.32.57,4.73-2.39,3.03-2.51,4.6-.51,6.26,2.15,1.79,6.38.39,7.72-2.54,1.45-3.17,3.07-2.66,3.86,1.22.84,4.11,1.73,5.34,3.87,5.34,2.81,0,4.33-2.52,3.58-5.93l-.66-3.02,5.32.23c6.02.25,8.18-2.79,3.89-5.47-2.63-1.64-2.66-4.48-.06-5.31,5.81-1.84,3.75-8-2.67-8-3.72,0-3.85-.12-4.33-4-.76-6.09-5.4-6.44-7.7-.57M311.14,69.17c-7.62,3.07-5.44,15.32,2.72,15.32s11.08-11.16,3.91-14.87c-3.2-1.65-3.58-1.68-6.63-.45M778.43,84.23c-5.93,7.05,1.01,15.7,9.87,12.3,7.27-2.79,4.03-15.38-3.96-15.38-2.48,0-3.98.78-5.91,3.08M811.29,224.61c-4.62,4.62-.64,13.54,6.04,13.54,2.97,0,8.5-4.86,8.5-7.47,0-7.55-9.22-11.4-14.54-6.07M284.78,283.72c-1.03,1.24-1.05,2.25-.12,4.82,1.63,4.52,1.59,4.61-2.2,4.61-6.02,0-7.62,5.28-2.36,7.8,3.01,1.44,3.44,3.7,1.25,6.59-3.61,4.77,3.25,7.62,7.49,3.11,3.31-3.52,4.75-3.18,4.61,1.12-.23,7.22,6.58,7.25,7.2.03.34-3.95,1.22-4.52,3.23-2.1,2.24,2.7,7.4,1.49,7.78-1.83.27-2.33-.18-2.95-2.75-3.85-3.81-1.33-3.98-3.64-.32-4.44,4.88-1.07,5.25-1.34,5.25-3.78,0-3.08-2.37-5.05-5.19-4.31-3.29.86-4.95-.93-3.6-3.89,1.37-3-.36-5.45-3.84-5.45-1.75,0-2.84.94-4.06,3.5-.92,1.93-2.18,3.5-2.8,3.5s-1.88-1.57-2.8-3.5c-1.81-3.79-4.56-4.58-6.76-1.93M372.15,286.6c-9.44,4.17-8.08,21.56,1.69,21.56s15.74-11.91,9.25-18.95c-3.37-3.65-6.75-4.46-10.93-2.61M156.01,292.47c-6.67,7.1,3.49,17.12,10.37,10.23,3-3,3.13-6.42.38-9.91-2.71-3.44-7.68-3.59-10.75-.32M52.75,309.09c-5.3,5.3-2.22,13.06,5.17,13.06,6.87,0,10.21-7.32,5.67-12.41-3.69-4.13-7.15-4.34-10.84-.65M819.76,340.08c-4.63,4.63-1.35,13.08,5.08,13.08,3.03,0,8-5.26,8-8.47,0-6.73-8.1-9.58-13.08-4.61M47.47,509.23c-3.72,2.93-3.72,8.93,0,11.85,8.07,6.35,17.78-3.67,10.56-10.89-3.57-3.57-6.87-3.87-10.56-.97M795.48,526.22c-3.54,2.79-6.08,11.58-5.22,18.07.85,6.45-.47,6.14-4.28-1.01-5.67-10.64-12.74-15.2-17.92-11.57-4.51,3.16-.49,16.6,6.29,21.04,2.89,1.89,3.44,4.94.74,4.08-14.38-4.57-19.96-4.58-22.92-.05-3.81,5.82,1.53,10.6,13.99,12.54q9.31,1.45,1.14,6.17c-9.94,5.72-12.97,12.23-8,17.21,4.35,4.35,11.7,1.56,19.96-7.59,5.13-5.68,6.56-5.54,4.07.41-5.44,13.03-3.42,22.64,4.77,22.64,5.15,0,8.66-7.56,8.72-18.75.03-6.77,1.24-6.64,4.5.5,5.45,11.93,13.69,16.67,18.45,10.61,3.43-4.36,1.3-10.33-6.63-18.5-5.19-5.35-4.5-6.6,2.38-4.24,13.62,4.68,20.32,3.03,20.32-4.99,0-4.83-8.61-8.64-19.55-8.64-5.89,0-5.62-1.32.89-4.3,7.17-3.28,12.66-8.84,12.66-12.8,0-9.85-9.1-9.86-20.15-.04-4.93,4.38-7.58,5.38-6.33,2.39,6.95-16.73,2.1-31.03-7.87-23.18M84.28,539.22c-2.85,2.97-2.94,3.38-2.94,13,0,11.64.2,11.47-5.39,4.46-8.16-10.22-18.84-12.6-20.6-4.58-.96,4.38,1.84,9.32,8.83,15.55,7.22,6.43,7.05,6.9-1.99,5.49-11.37-1.76-19.91,2.77-17.44,9.27,1.71,4.5,5.42,6.1,15.22,6.57,10.13.48,10.26.61,4.78,4.67-8.91,6.59-11.44,12.54-7.39,17.35,4.43,5.27,8.58,3.93,17.8-5.74,7.23-7.58,6.95-7.66,6.13,1.74-1.12,12.89,3.77,20.65,10.96,17.38,3.76-1.71,5.8-7.43,5.44-15.24-.4-8.58.12-9.07,4.12-4.01,7.13,9,15.56,12.27,19.85,7.71,4.69-4.99.55-13.45-9.45-19.31-6.3-3.69-5.25-4.45,6.48-4.68,21.98-.42,19.93-15.67-2.11-15.69-6.93,0-7.24-1.04-1.72-5.77,9.63-8.24,10.12-19.24.87-19.24-3.48,0-10.21,4.44-14.31,9.45-4.82,5.88-5.17,5.76-4.75-1.57.92-16.3-5.1-24.45-12.41-16.81M594.57,541.91c-.87.96-1.73,3.55-1.91,5.75-.27,3.36-.64,3.95-2.32,3.67-1.1-.18-3.38-.56-5.06-.84-6.7-1.11-7.58,6.88-1.11,10.04l3.83,1.87-3.08,3.18c-5.47,5.64-3.24,12.29,3.25,9.68,6.44-2.59,6.67-2.57,6.67.62s2.62,6.27,5.27,6.27c2.21,0,4.73-3.85,4.73-7.22,0-3.07,1.98-3.71,4-1.28,1.7,2.05,5.34,1.89,7.34-.33,2.41-2.66,2.05-4.66-1.34-7.52-3.71-3.12-3.72-3.74-.13-5.78,3.65-2.08,4.87-6.41,2.53-9-1.81-2-6.86-2.56-7.89-.88-1.16,1.88-4.5,1.12-4.5-1.03,0-7.34-6.21-11.71-10.27-7.22M334.37,554.43c-4.33,4.33-4.53,7.58-.72,11.83,3.93,4.4,10.28,4.66,13.79.57,7.87-9.15-4.55-20.93-13.07-12.41M293.07,568.82c-.7.28-1.94,1.8-2.75,3.37-4.39,8.48,6.7,16.16,12.77,8.84,5.35-6.45-2.02-15.44-10.02-12.22M732.01,603.47c-4.64,4.94-1.09,12.69,5.83,12.69s10.45-7.64,5.54-12.54c-3.25-3.25-8.39-3.31-11.37-.14M703.53,641.31c-.93.52-1.69,2.02-1.69,3.34,0,3.41-1.67,4-5.51,1.93-4.69-2.53-9.91,3.34-5.44,6.11,1.79,1.1.52,2.68-3.1,3.85-2.68.87-3.53,1.73-3.77,3.86-.32,2.75.41,3.36,6.14,5.17,1.73.55,1.72.71-.25,3.22-2.32,2.95-2.68,6.36-.88,8.17,1.93,1.93,4.5,1.39,6.71-1.41,2.57-3.27,5.09-2.55,5.09,1.46,0,6.65,5.73,6.5,7.43-.19,1.04-4.12,2.43-4.57,5.07-1.65,4.15,4.58,10.22,1.06,7.21-4.18-2.2-3.84-2.15-4.82.23-4.82,5.11,0,5.72-6.09.86-8.6-2.87-1.48-2.91-1.59-1.32-4.02,3.55-5.42-.58-9.51-6.01-5.95-3.24,2.12-4.48,1.99-4.48-.49,0-4.58-3.21-7.52-6.31-5.78M542.04,644.36c-.66.66-1.2,2.43-1.2,3.94,0,3.6-1.64,4.49-4.12,2.25-1.52-1.38-2.39-1.55-3.69-.74-2.77,1.75-2.11,5.62,1.23,7.22l2.92,1.4-3.18,2.61c-4.95,4.07-2.59,10.42,2.45,6.61,3-2.27,4.39-1.78,4.39,1.54,0,5.46,6.16,5.12,6.82-.38.35-2.91,1.26-3.24,4.07-1.49,4.35,2.71,7.65-1.9,4.08-5.7l-2.29-2.43,2.7-2.5c2.24-2.08,2.52-2.85,1.63-4.51-1.17-2.18-4.93-2.68-6.72-.9-1.64,1.64-3.29.16-3.29-2.97,0-2.83-1.57-5.14-3.5-5.14-.61,0-1.64.54-2.3,1.2M690.34,768.43c-7.42,4.15-10.25,13.28-6.6,21.31,7.37,16.23,31.34,11.2,31.34-6.58,0-13.18-13.32-21.11-24.73-14.73M819.72,784.16c-.89.52-2.15,2.22-2.79,3.78-3.89,9.39,10.76,15.2,15.45,6.13,3.51-6.79-5.68-13.99-12.66-9.91"/>
</svg>