<svg xmlns="http://www.w3.org/2000/svg" viewBox="0.0 0.0 1320.7 378.6">
<!-- Layer: #000000 (unknown) -->
<path d="M -0 79.018 L -0 158.037 23.250 157.768 L 46.500 157.500 46.101 100.250 C 45.865 66.316, 46.072 43, 46.611 43 C 48.091 43, 49.216 45.132, 77.984 102.500 L 105.564 157.500 125.479 157.500 L 145.393 157.500 173.947 100.764 C 189.651 69.559, 202.950 44.174, 203.500 44.352 C 204.151 44.563, 204.500 64.363, 204.500 101.088 L 204.500 157.500 227.500 157.500 L 250.500 157.500 250.775 81 C 250.927 38.925, 250.806 3.488, 250.506 2.250 L 249.962 0 211.694 0 L 173.426 0 169.041 9.250 C 166.629 14.338, 163.347 21.425, 161.747 25 C 160.146 28.575, 157.576 34.200, 156.034 37.500 C 154.492 40.800, 151.986 46.200, 150.465 49.500 C 148.943 52.800, 145.478 60.225, 142.764 66 C 140.050 71.775, 136.911 78.525, 135.787 81 C 130.234 93.231, 126.799 100.534, 126.426 100.908 C 125.777 101.557, 122 97.823, 122 96.532 C 122 95.895, 120.819 92.928, 119.376 89.937 C 116.877 84.762, 114.027 78.597, 109 67.500 C 106.457 61.886, 102.875 54.097, 97.732 43 C 95.820 38.875, 93.241 33.250, 92 30.500 C 87.596 20.742, 83.128 11.135, 80.420 5.605 L 77.675 0 38.838 0 L 0 0 -0 79.018 M 281.494 2.250 C 281.194 3.488, 281.073 38.925, 281.225 81 L 281.500 157.500 306 157.500 L 330.500 157.500 330.775 81 C 330.927 38.925, 330.806 3.488, 330.506 2.250 L 329.962 0 306 0 L 282.038 0 281.494 2.250 M 1045 0.892 C 1045 1.382, 1043.763 2.071, 1042.250 2.423 C 1008.961 10.167, 1001.805 71.615, 1032 90.431 C 1041.329 96.244, 1042.214 96.331, 1097.846 96.939 L 1149.192 97.500 1151.591 100.500 C 1155.406 105.270, 1155.152 118.002, 1151.163 121.991 C 1147.172 125.982, 1144.569 126.189, 1103 125.822 C 1060.325 125.445, 1059 125.070, 1059 113.351 L 1059 111 1036 111 L 1013 111 1013 114.558 C 1013 134.234, 1021.720 149.845, 1036.842 157.243 L 1043.500 160.500 1105.500 160.500 C 1170.473 160.500, 1171.884 160.415, 1179 156.081 C 1187.530 150.886, 1195.064 141.975, 1197.070 134.707 C 1197.633 132.668, 1198.523 131, 1199.047 131 C 1200.678 131, 1200.257 95.676, 1198.586 92.331 C 1197.808 90.774, 1196.120 87.278, 1194.836 84.562 C 1190.470 75.332, 1179.995 67.232, 1168.384 64.108 C 1165.641 63.369, 1148.126 63, 1115.866 63 L 1067.464 63 1063.816 60.521 C 1061.530 58.968, 1059.925 56.937, 1059.518 55.082 C 1059.023 52.829, 1057.154 50.982, 1051.684 47.342 C 1043.886 42.152, 1039 38.097, 1039 36.813 C 1039 36.366, 1061.883 36, 1089.852 36 L 1140.704 36 1144.102 38.281 C 1146.631 39.979, 1147.777 41.706, 1148.584 45.031 L 1149.668 49.500 1171.834 49.769 L 1194 50.038 1193.985 41.769 C 1193.950 22.777, 1182.068 6.219, 1165.750 2.423 C 1164.237 2.071, 1163 1.382, 1163 0.892 C 1163 0.380, 1137.884 0, 1104 0 C 1070.116 0, 1045 0.380, 1045 0.892 M 795.116 2.360 C 794.295 3.350, 794.057 24.637, 794.244 80.610 L 794.500 157.500 817.500 157.500 L 840.500 157.500 841.057 139 C 841.364 128.825, 841.701 120.388, 841.807 120.250 C 842.515 119.332, 875.474 120.183, 877.316 121.167 C 878.517 121.809, 883.100 125.471, 887.500 129.304 C 891.900 133.137, 896.634 137.224, 898.020 138.386 C 899.406 139.549, 905.122 144.444, 910.723 149.264 L 920.905 158.028 953.182 157.764 L 985.459 157.500 972.479 146.894 C 965.341 141.061, 956.764 134.086, 953.420 131.394 C 942.079 122.265, 940.992 121.184, 941.589 119.630 C 941.907 118.801, 943.527 117.824, 945.189 117.458 C 989.762 107.669, 991.959 19.509, 948 4.684 C 937.767 1.233, 934.065 1.071, 864.872 1.035 C 808.198 1.006, 796.048 1.237, 795.116 2.360 M 362.244 2.828 C 361.250 3.459, 361.041 19.775, 361.244 81.063 L 361.500 158.500 385 158.500 L 408.500 158.500 408.143 101.250 C 407.925 66.250, 408.149 44, 408.719 44 C 410.181 44, 412.989 47.489, 423.205 62 C 428.432 69.425, 445.685 93.950, 461.544 116.500 C 477.403 139.050, 490.856 157.831, 491.439 158.235 C 493.361 159.565, 567.451 159.149, 568.800 157.800 C 570.875 155.725, 570.500 3.406, 568.418 2.607 C 565.947 1.659, 524.666 1.926, 523.128 2.900 C 521.984 3.625, 521.823 13.168, 522.162 60.384 C 522.385 91.523, 522.301 117, 521.975 117 C 520.080 117, 496.291 84.154, 461.943 34.112 C 458.400 28.949, 454.600 23.477, 453.500 21.953 C 452.400 20.428, 449.032 15.565, 446.014 11.145 C 442.997 6.726, 439.622 2.866, 438.514 2.569 C 435.295 1.703, 363.631 1.947, 362.244 2.828 M 821.053 40.946 C 819.413 41.984, 819.223 41.800, 832.657 52.191 C 841.994 59.413, 841.968 59.359, 841.986 71.793 L 842 81.086 881.750 80.793 C 919.432 80.515, 921.674 80.396, 924.845 78.500 C 936.388 71.599, 934.515 46.624, 922.082 41.649 C 917.398 39.775, 823.933 39.124, 821.053 40.946 M 170.460 188.244 C 170.192 188.943, 170.091 204.586, 170.236 223.007 L 170.500 256.500 180 256.500 L 189.500 256.500 190 245.795 C 190.640 232.093, 188.768 233.087, 214.530 232.770 L 236.500 232.500 236.794 225.250 L 237.088 218 215.199 218 C 191.888 218, 190 217.605, 190 212.722 C 190 211.831, 188.409 209.888, 186.465 208.406 C 180.391 203.772, 181.473 203.539, 211.583 203 L 239.500 202.500 239.500 195 L 239.500 187.500 205.224 187.237 C 178.240 187.030, 170.844 187.244, 170.460 188.244 M 279.446 189.483 C 263.489 197.493, 261.352 241.548, 276.343 253.449 L 280.187 256.500 314.343 256.500 C 353.259 256.500, 351.082 256.956, 357.247 247.524 L 360.500 242.548 360.500 223.524 C 360.500 198.835, 358.688 193.641, 348.445 188.975 C 340.997 185.582, 286.417 185.984, 279.446 189.483 M 404.243 188.629 C 393.732 193.880, 392 198.672, 392 222.500 C 392 256.421, 392.772 257, 438 257 C 483.259 257, 484 256.442, 484 222.367 C 484 199.491, 483.089 196.243, 475.121 190.709 L 470.500 187.500 439 187.251 C 411.578 187.035, 407.078 187.213, 404.243 188.629 M 515.419 188.349 C 515.135 189.091, 515.036 192.804, 515.201 196.599 L 515.500 203.500 530 204 L 544.500 204.500 545 230.500 L 545.500 256.500 556 256.500 L 566.500 256.500 566.771 235.003 L 567.041 213.505 563.021 209.793 C 556.824 204.071, 557.008 204, 578 204 L 597 204 597 195.500 L 597 187 556.469 187 C 523.376 187, 515.842 187.248, 515.419 188.349 M 628.473 188.210 C 628.198 188.927, 628.091 204.586, 628.236 223.007 L 628.500 256.500 665.046 256.500 C 705.553 256.500, 705.071 256.574, 708.408 249.883 C 711.173 244.342, 710.622 229.504, 707.500 225.411 C 706.125 223.608, 705 221.673, 705 221.111 C 705 220.549, 706.125 218.431, 707.500 216.405 C 712.450 209.110, 710.410 194.568, 703.771 189.833 C 699.788 186.992, 629.521 185.478, 628.473 188.210 M 766.912 196.750 C 764.038 202.113, 760.462 208.750, 758.965 211.500 C 757.467 214.250, 753.774 221.225, 750.757 227 C 747.740 232.775, 743.186 241.377, 740.636 246.116 C 734.442 257.628, 734.049 257, 747.441 257 C 760.595 257, 761.600 256.375, 756.308 251.487 C 750.686 246.294, 751.895 246.033, 781.595 246.015 C 810.657 245.998, 808.931 245.594, 812.486 253.250 L 814.228 257 825.614 257 C 838.691 257, 838.595 257.091, 834.145 248.812 C 828.281 237.900, 820.992 224.026, 812.967 208.500 C 808.419 199.700, 803.835 191.262, 802.781 189.750 L 800.864 187 786.500 187 L 772.137 187 766.912 196.750 M 864.468 188.222 C 864.196 188.933, 864.091 204.586, 864.236 223.007 L 864.500 256.500 898.750 256.763 L 933 257.026 933 248.532 L 933 240.037 909.750 239.768 L 886.500 239.500 886 213.500 L 885.500 187.500 875.232 187.215 C 867.550 187.001, 864.839 187.255, 864.468 188.222 M 962.468 188.222 C 962.196 188.933, 962.091 204.586, 962.236 223.007 L 962.500 256.500 996 256.500 L 1029.500 256.500 1029.500 248.500 L 1029.500 240.500 1007 240 L 984.500 239.500 984 213.500 L 983.500 187.500 973.232 187.215 C 965.550 187.001, 962.839 187.255, 962.468 188.222 M 640.567 203.892 C 640.264 204.382, 642.339 207.082, 645.178 209.892 L 650.340 215 668.605 215 C 691.816 215, 696.537 213.047, 691.587 205.493 L 689.954 203 665.536 203 C 652.106 203, 640.870 203.401, 640.567 203.892 M 281 204.961 C 281 205.490, 282.800 207.705, 285 209.883 L 289 213.843 289 224.366 C 289 234.048, 289.193 235.113, 291.413 237.694 L 293.827 240.500 314.308 240.500 C 340.746 240.500, 339 241.779, 339 222.418 C 339 202.599, 341.407 204, 307.365 204 C 291.162 204, 281 204.371, 281 204.961 M 405 205.154 C 405 205.788, 406.800 207.969, 409 210 L 413 213.693 413.022 224.596 C 413.041 233.793, 413.345 235.891, 414.965 238 L 416.886 240.500 438 240.500 L 459.114 240.500 461.035 238 C 464.301 233.749, 463.930 209.839, 460.545 206.455 L 458.091 204 431.545 204 C 412.159 204, 405 204.311, 405 205.154 M 785.323 205.238 C 781.369 210.536, 772.914 229.331, 774.136 230.105 C 776.169 231.393, 798.743 231.224, 799.552 229.915 C 801.262 227.150, 787.187 202.740, 785.323 205.238 M 641 230.784 C 641 231.766, 642.350 233.366, 644 234.341 C 645.650 235.316, 647 236.538, 647 237.057 C 647 244.041, 690.534 244.589, 692.402 237.628 C 693.331 234.165, 693.107 233.107, 691 231 C 688.066 228.066, 641 227.863, 641 230.784 Z" stroke="none" fill="#000000" fill-rule="evenodd"/>
<!-- Layer: #ed1c24 (unknown) -->
<path d="M 600 3.266 C 600 3.962, 605.390 10.600, 611.979 18.016 C 622.564 29.932, 623.960 31.922, 623.979 35.128 C 624.015 41.297, 620.746 41.037, 694.611 40.757 L 762.500 40.500 762.772 21.250 L 763.043 2 681.522 2 C 616.424 2, 600 2.255, 600 3.266 M 599.541 60.934 C 599.219 61.455, 600.428 63.588, 602.228 65.676 C 608.441 72.882, 610.762 75.527, 617.369 82.934 C 622.461 88.643, 624.004 91.079, 624.015 93.434 C 624.045 99.354, 620.013 99.028, 693.067 99.021 C 730.155 99.018, 761.072 99.012, 761.772 99.007 C 762.766 99.002, 762.984 94.797, 762.772 79.750 L 762.500 60.500 681.313 60.244 C 631.063 60.086, 599.902 60.349, 599.541 60.934 M 599 121.074 C 599 121.896, 605.814 129.803, 611 134.999 C 618.684 142.698, 624 150.214, 624 153.380 C 624 159.188, 621.991 159.037, 695.197 158.757 L 762.500 158.500 762.772 139.250 L 763.043 120 681.022 120 C 623.228 120, 599 120.317, 599 121.074 Z" stroke="none" fill="#ed1c24" fill-rule="evenodd"/>
<!-- Layer: #3a3a3a (unknown) -->
<path d="M 360.476 80.500 C 360.476 122.850, 360.599 140.029, 360.750 118.676 C 360.900 97.323, 360.900 62.673, 360.750 41.676 C 360.599 20.679, 360.476 38.150, 360.476 80.500 M 1080.320 161.749 C 1095.072 161.905, 1118.922 161.905, 1133.320 161.749 C 1147.719 161.593, 1135.650 161.465, 1106.500 161.466 C 1077.350 161.466, 1065.569 161.593, 1080.320 161.749 M 169.667 187.667 C 168.383 188.950, 168.897 255.497, 170.200 256.800 C 170.947 257.547, 174.644 258, 180 258 C 191.046 258, 191.047 257.999, 190.804 245.550 L 190.609 235.500 190.054 246 L 189.500 256.500 180 256.500 L 170.500 256.500 170.500 221.750 C 170.500 202.637, 170.463 187, 170.417 187 C 170.371 187, 170.033 187.300, 169.667 187.667 M 961.667 187.667 C 960.383 188.950, 960.897 255.497, 962.200 256.800 C 963.918 258.518, 1028.082 258.518, 1029.800 256.800 C 1031.114 255.486, 1031.505 241.432, 1030.250 240.652 C 1029.838 240.396, 1029.500 243.857, 1029.500 248.343 L 1029.500 256.500 996 256.500 L 962.500 256.500 962.500 221.750 C 962.500 202.637, 962.462 187, 962.417 187 C 962.371 187, 962.033 187.300, 961.667 187.667 Z" stroke="none" fill="#3a3a3a" fill-rule="evenodd"/>
</svg>