<?xml version="1.0" encoding="utf-8"?>
<!-- Generator: Adobe Illustrator 28.0.0, SVG Export Plug-In . SVG Version: 6.00 Build 0)  -->
<svg version="1.1" id="Layer_1" xmlns="http://www.w3.org/2000/svg" xmlns:xlink="http://www.w3.org/1999/xlink" x="0px" y="0px"
	 viewBox="0 0 432 432" style="enable-background:new 0 0 432 432;" xml:space="preserve">
<style type="text/css">
	.st0{fill:#748C7C;}
	.st1{fill:#8E4277;}
	.st2{fill:#CE6FB7;}
	.st3{fill:#F6856D;}
	.st4{fill:#FFB7A4;}
</style>
<g>
	<path class="st0" d="M230.432,18.036c2.2,2.17,4.631,4.104,7.294,5.803c3.633,2.316,7.666,4.525,12.097,6.626
		c2.736,1.298,4.586,2.186,5.548,2.664c0.064,0.031,0.116,0.083,0.147,0.147c0.078,0.16,0.011,0.354-0.15,0.433
		c-0.181,0.088-0.426,0.11-0.736,0.066c-4.346-0.616-8.884-0.958-13.617-1.029c-1.657-0.026-3.387,0.069-5.191,0.288
		c-2.364,0.282-5.737,0.984-6.811,2.978c-1.683,3.118,3.297,5.479,5.45,6.257c2.835,1.025,5.823,1.684,8.964,1.976
		c4.273,0.397,8.789,0.396,13.548-0.005c6.178-0.521,10.771-0.859,13.78-1.016c5.483-0.283,10.939,0.572,16.366,2.567
		c2.284,0.839,4.356,1.692,6.215,2.559c4.796,2.235,9.666,4.726,14.611,7.473c0.529,0.294,0.917,0.443,1.163,0.448
		c0.733,0.013,1.258-0.665,0.96-1.348c-0.781-1.791-2.216-2.762-3.978-3.833c-2.401-1.459-7.5-3.952-10.852-6.555
		c-2.672-2.079-4.11-4.812-5.054-7.948c-0.675-2.242-1.381-4.853-2.118-7.832c-0.492-1.989-1.082-3.84-1.767-5.553
		c-0.638-1.591-1.498-3.416-2.796-4.516c-0.638-0.543-1.554-0.665-2.163,0.026c-0.657,0.747-0.857,1.923-0.9,2.886
		c-0.206,4.872,1.87,9.554,3.68,14.034c0.036,0.088,0.039,0.186,0.009,0.276c-0.07,0.21-0.297,0.324-0.507,0.254
		c-0.023-0.007-0.066-0.05-0.129-0.129c-4.479-5.555-9.143-13.05-13.071-18.845c-1.672-2.469-3.386-4.614-5.141-6.434
		c-1.166-1.211-3.551-3.163-5.278-3.165c-4.031-0.008-2.622,5.387-1.694,7.531c1.907,4.4,5.128,8.623,8.354,12.216
		c2.801,3.122,4.98,5.457,6.537,7.006c0.176,0.174,0.251,0.314,0.224,0.419c-0.012,0.047-0.031,0.091-0.058,0.132
		c-0.14,0.212-0.441,0.266-0.673,0.121c-8.009-4.954-16.363-12.232-26.535-19.22c-3.447-2.369-6.838-4.274-10.174-5.716
		c-2.044-0.884-4.606-1.688-6.901-1.538c-2.511,0.164-3.242,2.234-2.35,4.31C227.491,14.625,228.724,16.353,230.432,18.036z
		 M263.799,17.809c-0.688-1.216-1.548-2.852-1.417-3.954c0.007-0.061,0.03-0.12,0.065-0.17c0.118-0.168,0.35-0.209,0.518-0.091
		c0.584,0.41,1.2,0.972,1.849,1.686c0.923,1.017,1.917,2.282,2.981,3.796c1.324,1.887,4.258,6.277,8.8,13.171
		c0.127,0.192,0.173,0.346,0.14,0.464c-0.016,0.055-0.044,0.105-0.083,0.147c-0.136,0.146-0.363,0.155-0.508,0.02
		C271.309,28.326,266.97,23.43,263.799,17.809z M233.262,12.668c1.997-0.084,4.801,1.525,6.5,2.614
		c2.884,1.854,5.546,3.782,7.985,5.785c4.604,3.784,8.671,7.055,12.2,9.81c0.04,0.031,0.069,0.074,0.084,0.123
		c0.04,0.131-0.033,0.268-0.163,0.307c-0.213,0.067-0.436,0.052-0.67-0.045c-6.41-2.641-12.918-5.885-18.439-9.686
		c-1.75-1.206-3.367-2.511-4.851-3.915c-1.206-1.137-3.023-3.113-3.1-4.495c0-0.002,0-0.004,0-0.006
		C232.797,12.899,233,12.679,233.262,12.668z M91.784,88.225c0.522-0.069,1.1-0.899,1.306-1.282
		c1.964-3.663,4.102-7.217,6.413-10.662c0.623-0.929,1.392-1.851,2.308-2.767c2.213-2.211,4.685-2.643,7.639-2.461
		c2.255,0.141,4.673,0.234,7.257,0.28c3.398,0.061,7.339-0.404,10.428-1.96c1.182-0.594,2.762-1.87,2.725-3.334
		c-0.095-3.68-6.228-3.519-8.679-3.308c-1.131,0.095-2.711,0.258-4.74,0.488c-0.02,0.002-0.041,0.003-0.061,0.001
		c-0.179-0.013-0.313-0.169-0.301-0.35c0.012-0.171,0.079-0.306,0.201-0.406c2.703-2.246,5.762-4.224,9.177-5.935
		c2.376-1.189,4.85-1.918,7.423-2.187c5.627-0.586,9.262-0.968,13.683-2.092c1.976-0.501,5.249-1.633,6.452-3.308
		c0.747-1.039,0.066-2.197-1.039-2.614c-3.239-1.219-7.244-0.411-10.504,0.686c-0.063,0.021-0.132,0.024-0.197,0.009
		c-0.179-0.042-0.286-0.21-0.239-0.375c0.012-0.044,0.08-0.103,0.203-0.177c10.318-6.227,21.39-9.755,33.216-10.583
		c2.583-0.181,4.842-0.322,6.777-0.422c0.63-0.033,1.087-0.145,1.372-0.335c1.179-0.786,0.396-2.118-0.441-2.701
		c-0.204-0.142-0.635-0.214-1.293-0.214c-4.546,0-8.561,0.189-12.045,0.567c-6.5,0.702-13.118,2.266-19.283,4.986
		c-4.418,1.952-8.667,4.36-12.749,7.223c-3.28,2.299-6.072,4.266-8.375,5.904c-0.083,0.06-0.189,0.079-0.288,0.051
		c-0.18-0.051-0.285-0.239-0.234-0.42c0.026-0.091,0.07-0.177,0.132-0.256c0.575-0.733,1.708-1.932,3.398-3.595
		c0.188-0.185,1.709-1.652,4.564-4.403c4.147-3.996,8.782-8.977,11.14-14.168c0.839-1.844,1.72-4.835,0.596-6.534
		c-1.704-2.575-6.046-0.984-8.178,0.135c-2.495,1.312-4.834,2.953-7.017,4.922c-4.319,3.897-8.041,8.417-11.166,13.559
		c-1.943,3.201-3.836,6.469-5.679,9.805c-2.2,3.983-4.71,7.694-7.529,11.132c-0.53,0.649-2.675,3.165-3.735,3.237
		c-0.002,0-0.005,0-0.007,0c-0.228,0.012-0.424-0.162-0.436-0.391c-0.047-0.947,0.604-2.313,1.111-3.537
		c1.504-3.64,5.089-10.393,6.98-15.764c0.82-2.321,1.519-4.548,1.493-6.906c-0.021-1.915-1.208-3.242-3.165-2.073
		c-0.868,0.52-1.694,1.343-2.274,2.113c-1.384,1.841-2.554,3.951-3.511,6.328c-1.365,3.387-2.551,6.951-3.559,10.691
		c-1.21,4.497-2.102,7.715-2.675,9.655c-1.263,4.273-2.834,8.863-4.714,13.77c-0.565,1.474-0.971,2.472-1.219,2.994
		c-0.752,1.593-1.781,3.543-1.944,5.249C90.42,87.347,90.742,88.36,91.784,88.225z M120.924,49.559
		c1.815-3.222,3.687-6.361,5.616-9.417c3.474-5.511,8.093-11,13.704-14.326c0.807-0.478,2.345-1.229,3.305-1.029
		c0.258,0.054,0.447,0.276,0.459,0.541c0.074,1.459-0.934,3.205-1.746,4.484c-0.909,1.431-1.836,2.705-2.78,3.82
		c-2.984,3.523-6.411,6.91-10.28,10.161c-2.685,2.258-5.315,4.437-7.89,6.537c-0.028,0.023-0.059,0.04-0.092,0.052
		c-0.157,0.054-0.328-0.029-0.382-0.186C120.769,49.996,120.798,49.784,120.924,49.559z M109.181,67.549
		c0.1-0.065,0.184-0.106,0.251-0.121c3.563-0.892,7.594-1.484,12.092-1.778c1.174-0.076,3.031-0.011,4.163,0.578
		c0.019,0.01,0.037,0.021,0.053,0.034c0.144,0.114,0.169,0.323,0.055,0.467c-0.739,0.926-2.461,1.398-3.622,1.625
		c-4.215,0.823-8.542,0.095-12.931-0.52c-0.044-0.007-0.083-0.032-0.108-0.07C109.087,67.692,109.108,67.596,109.181,67.549z
		 M233.946,75.067c0.95-3.429,2.175-6.575,3.677-9.438c0.968-1.844,2.503-3.865,4.355-5.139c1.596-1.1,3.392-1.786,5.405-2.453
		c2.309-0.765,5.373-1.596,9.19-2.493c1.145-0.269,2.2-0.47,3.165-0.601c0.055-0.007,0.111-0.001,0.162,0.019
		c0.17,0.066,0.254,0.257,0.189,0.427l-0.195,0.491c-0.007,0.019-0.019,0.034-0.034,0.045c-5.671,4.426-11.042,8.972-13.693,15.856
		c-1.242,3.226-1.691,7.542,0.288,10.523c1.498,2.258,4.542,3.45,6.954,1.986c0.855-0.517,1.515-1.084,1.981-1.701
		c1.322-1.748,2.44-3.707,3.353-5.877c1.986-4.724,4.26-10.945,6.801-16.078c1.232-2.493,2.548-4.461,5.278-5.273
		c1.718-0.514,3.704-0.738,5.959-0.673c4.076,0.118,8.367,0.643,12.873,1.575c5.14,1.06,11.172,2.654,18.093,4.78
		c0.478,0.148,0.902,0.204,1.272,0.169c0.346-0.033,0.634-0.29,0.715-0.638c0.134-0.579-0.033-1.071-0.499-1.477
		c-0.834-0.726-1.605-1.279-2.313-1.657c-7.281-3.89-15.041-6.244-23.282-7.062c-2.073-0.206-4.498-0.325-7.275-0.359
		c-11.311-0.137-22.369,1.109-33.174,3.738c-0.501,0.121-1.472,0.2-1.86,0.055c-5.339-2.002-10.773-3.846-16.205-4.45
		c-4.936-0.549-10.528,0.269-14.77,2.954c-1.546,0.976-3.334,2.706-3.031,4.669c0.383,2.461,4.648,3.144,6.59,3.239
		c2.527,0.125,5.252,0.041,8.175-0.251c2.066-0.206,4.176-0.422,6.328-0.649c0.269-0.028,0.477-0.003,0.623,0.077
		c0.056,0.03,0.101,0.078,0.127,0.136c0.068,0.149,0.001,0.325-0.148,0.394c-1.247,0.564-2.764,1.155-4.55,1.77
		c-8.705,2.999-18.909,4.888-27.6,7.223c-5.582,1.501-11.406,3.651-16.089,7.051c-1.854,1.348-3.78,3.247-4.777,5.366
		c-1.643,3.5-0.327,7.217,3.63,8.093c3.643,0.807,7.777-0.435,11.124-1.973c5.542-2.543,10.876-6.299,15.709-10.132
		c3.333-2.645,6.319-4.987,8.958-7.027c0.077-0.059,0.18-0.066,0.261-0.018l0.121,0.071c0.026,0.015,0.049,0.033,0.069,0.055
		c0.114,0.121,0.107,0.312-0.014,0.425c-5.005,4.704-9.977,9.203-14.917,13.495c-2.664,2.314-4.885,4.666-6.661,7.056
		c-1.815,2.437-3.318,6.202-2.374,9.188c1.097,3.461,5.009,3.941,7.956,2.728c4.155-1.707,7.423-5.389,9.779-9.209
		c1.337-2.168,2.413-4.104,3.229-5.809c3.419-7.143,4.556-10.011,7.428-14.593c2.269-3.616,5.082-6.739,8.439-9.37
		c0.315-0.246,0.608-0.346,0.878-0.298c0.06,0.01,0.116,0.037,0.162,0.077c0.164,0.144,0.172,0.429,0.018,0.635
		c-0.376,0.503-1.21,1.555-2.501,3.155c-4.645,5.756-9.251,12.591-8.555,20.373c0.229,2.585,1.551,5.508,4.521,5.458
		c1.791-0.029,3.632-1.659,4.682-3.097c1.523-2.084,2.699-4.443,3.53-7.078C232.133,81.458,232.957,78.632,233.946,75.067z
		 M261.329,59.382c0.092-0.044,0.202-0.004,0.246,0.088c0.074,0.157,0.058,0.332-0.047,0.525c-2.622,4.831-4.024,7.45-4.205,7.858
		c-1.389,3.118-2.414,5.322-3.073,6.613c-0.594,1.161-2.282,4.189-3.624,4.068c-0.322-0.028-0.595-0.274-0.681-0.612
		c-0.538-2.142,0.931-5.257,2.031-7.188c2.425-4.261,5.529-8.036,9.312-11.325C261.3,59.398,261.314,59.389,261.329,59.382z
		 M209.397,70.633c-0.229,0.179-3.191,2.359-8.887,6.539c-3.556,2.61-6.938,4.748-10.145,6.415
		c-1.984,1.032-4.049,1.727-6.196,2.084c-1.496,0.248-4.63,0.227-4.461-2.113c0.227-3.123,4.746-5.98,7.357-7.241
		c2.907-1.405,6.087-2.577,9.539-3.516c3.934-1.069,8.142-2.086,12.625-3.049c0.042-0.009,0.084-0.01,0.126-0.005
		c0.204,0.026,0.347,0.209,0.319,0.409C209.648,70.349,209.555,70.508,209.397,70.633z M220.044,57.05
		c-2.028,0.114-3.91,0.113-5.648-0.005c-0.988-0.067-1.854-0.268-2.596-0.604c-0.307-0.138-0.488-0.441-0.446-0.744
		c0.035-0.25,0.17-0.489,0.404-0.717c1.788-1.752,4.843-2.353,7.299-2.522c5.191-0.351,10.544,0.551,15.287,2.978
		c0.25,0.128,0.394,0.28,0.433,0.456c0.005,0.022,0.008,0.045,0.009,0.068c0.007,0.204-0.157,0.375-0.365,0.383
		C230.154,56.512,225.362,56.748,220.044,57.05z M225.024,87.906c-0.638,0.662-1.897,1.588-2.714,0.578
		c-0.944-1.171-0.731-3.461-0.327-4.88c1.108-3.886,3.398-7.51,5.84-10.702c1.468-1.919,3.03-3.833,4.685-5.743
		c0.044-0.05,0.099-0.089,0.16-0.115c0.221-0.092,0.474,0.013,0.565,0.234c0.018,0.04-0.011,0.127-0.084,0.258
		c-2.253,4.065-3.337,8.212-4.785,13.361C227.681,83.324,226.681,86.189,225.024,87.906z M347.51,73.519
		c1.928,0.72,4.363,1.192,6.487,1.591c4.873,0.913,9.628,0.958,14.263,0.134c3.823-0.679,7.61-1.706,11.361-3.081
		c1.252-0.459,2.229-0.927,2.931-1.403c1.931-1.314,1.221-3.11-0.198-4.4c-1.279-1.163-2.754-2.063-4.353-2.886
		c-6.413-3.295-13.435-2.865-19.71,0.417c-4.098,2.142-7.912,4.857-11.443,8.146c-0.264,0.246-0.299,0.651-0.082,0.937
		C346.956,73.223,347.204,73.405,347.51,73.519z M352.567,70.952c2.371-1.268,4.813-2.383,7.328-3.345
		c3.487-1.335,6.94-2.094,10.573-1.796c2.527,0.209,4.899,0.84,7.114,1.891c0.204,0.097,0.327,0.21,0.369,0.34
		c0.081,0.25-0.052,0.519-0.301,0.609c-8.067,2.894-16.513,4.041-24.984,2.852c-0.092-0.013-0.172-0.069-0.217-0.15
		C352.372,71.21,352.424,71.031,352.567,70.952z M338.433,85.352c3.5,4.669,6.714,9.449,9.109,14.64
		c1.235,2.678,2.131,5.389,1.19,8.354c-0.429,1.352-1.038,2.896-1.828,4.632c-1.008,2.216-2.295,4.947-3.862,8.193
		c-0.525,1.089-0.686,4.685,1.683,3.854c0.256-0.089,0.473-0.263,0.615-0.493c1.47-2.374,2.587-4.327,3.35-5.859
		c1.118-2.253,2.039-4.719,3.052-7.183c0.039-0.091,0.137-0.282,0.295-0.572c0.013-0.024,0.033-0.042,0.058-0.053
		c0.06-0.025,0.13,0.003,0.155,0.063c0.283,0.642,0.537,1.327,0.762,2.055c2.026,6.516,3.236,10.362,3.63,11.538
		c3.904,11.689,6.458,20.156,10.314,33.203c0.561,1.894,1.219,3.811,1.973,5.751c0.341,0.876,0.75,1.629,1.227,2.261
		c0.149,0.195,0.367,0.311,0.652,0.348c1.781,0.224,0.997-5.207,0.836-6.12c-1.129-6.378-3.055-12.599-5.255-18.959
		c-1.655-4.783-3.073-8.678-4.255-11.683c-0.113-0.288-0.144-0.528-0.095-0.718c0.02-0.08,0.067-0.151,0.134-0.2
		c0.159-0.118,0.384-0.085,0.502,0.074c1.86,2.501,12.279,16.872,16.015,13.675c1.546-1.322,0.269-6.822-0.09-8.713
		c-0.006-0.031-0.006-0.063,0-0.094c0.026-0.133,0.153-0.22,0.285-0.194c0.258,0.05,0.504,0.274,0.636,0.514
		c2.733,5.007,5.722,9.676,9.626,13.809c1.178,1.247,3.079,3.236,5.703,5.967c3.909,4.069,7.121,8.573,9.636,13.511
		c1.017,1.998,1.614,3.181,1.791,3.551c0.267,0.552,0.61,1.059,1.029,1.519c0.061,0.066,0.138,0.115,0.224,0.142
		c0.55,0.165,0.958-0.009,1.224-0.522c0.339-0.656,0.601-1.447,0.783-2.374c1.403-7.107,0.673-14.759-1.403-21.641
		c-2.126-7.046-5.476-13.372-10.552-18.523c-3.239-3.287-7.352-6.133-11.475-8.288c-3.35-1.752-5.578-2.986-6.684-3.704
		c-2.43-1.576-4.691-3.558-6.782-5.948c-4.029-4.604-7.078-8.195-9.146-10.773c-0.193-0.243-0.285-0.482-0.274-0.717
		c0.001-0.017,0.003-0.034,0.007-0.05c0.035-0.149,0.184-0.241,0.333-0.206c0.63,0.148,1.386,0.443,2.269,0.886
		c3.413,1.713,6.528,3.645,9.343,5.795c5.663,4.328,9.103,6.949,10.322,7.864c3.155,2.366,6.835,4.885,10.649,6.246
		c2.509,0.894,5.751,0.826,5.463-2.738c-0.24-2.994-2.403-6.08-4.511-8.291c-4.637-4.869-10.483-8.159-16.809-10.227
		c-5.993-1.963-13.817-3.78-20.47-6.555c-0.042-0.017-0.078-0.046-0.104-0.084c-0.075-0.108-0.049-0.256,0.059-0.33
		c0.193-0.134,0.428-0.177,0.704-0.129c4.353,0.762,12.308,1.311,17.12,2.01c1.945,0.283,4.554,0.689,7.827,1.219
		c1.009,0.164,1.913,0.201,2.709,0.113c0.82-0.092,1.456-0.712,1.111-1.572c-0.396-0.987-1.628-2.087-2.511-2.751
		c-6.347-4.769-14.849-7.901-22.852-7.141c-2.641,0.25-4.819,0.754-6.534,1.512c-2.332,1.032-3.657,1.614-3.975,1.744
		c-0.554,0.227-1.028,0.229-1.422,0.005c-3.989-2.276-8.193-3.938-12.612-4.986c-1.058-0.251-2.459-0.076-1.934,1.427
		C337.642,84.116,337.985,84.755,338.433,85.352z M378.608,122.478c0.192-0.032,0.419,0.026,0.681,0.172
		c12.939,7.212,22.185,19.122,25.709,33.525c0.092,0.377,0.106,0.757-0.092,1.082c-0.001,0.002-0.002,0.004-0.004,0.006
		c-0.073,0.114-0.225,0.147-0.339,0.073c-0.213-0.139-0.425-0.329-0.636-0.57c-6.104-6.948-12.514-13.865-17.801-21.48
		c-2.699-3.886-5.247-8.544-7.811-12.082c-0.042-0.057-0.07-0.124-0.082-0.194C378.191,122.759,378.358,122.521,378.608,122.478z
		 M374.926,101.14c0.369,0.005,0.96,0.169,1.773,0.491c5.993,2.379,11.997,5.355,16.418,10.082c0.71,0.757,1.783,2.192,1.891,3.226
		c0.004,0.036,0.004,0.073,0,0.109c-0.031,0.274-0.277,0.471-0.551,0.44c-1.928-0.219-3.938-1.427-5.614-2.619
		c-4.727-3.364-9.201-6.911-13.422-10.641c-0.214-0.19-0.575-0.401-0.731-0.723c-0.016-0.035-0.024-0.073-0.024-0.111
		C374.669,101.252,374.785,101.139,374.926,101.14z M346.463,89.13c0.151,0.014,0.272,0.047,0.361,0.1
		c1.892,1.092,4.048,2.654,6.468,4.685c3.814,3.202,7.252,7.368,10.206,11.538c4.004,5.656,7.035,11.748,9.093,18.278
		c1.111,3.528,1.829,6.723,2.152,9.586c0.037,0.327-0.001,0.601-0.113,0.823c-0.013,0.025-0.029,0.048-0.048,0.069
		c-0.114,0.124-0.308,0.132-0.432,0.018c-0.186-0.171-0.501-0.498-0.944-0.981c-2.286-2.495-4.735-5.444-7.347-8.845
		c-5.096-6.642-9.277-13.343-12.541-20.103c-4.402-9.118-6.781-14.036-7.138-14.754c-0.023-0.047-0.033-0.1-0.029-0.152
		C346.165,89.234,346.305,89.116,346.463,89.13z M37.577,132.587c4.661,6.344,8.13,10.657,10.858,16.693
		c0.958,2.126,1.237,4.353,1.683,6.727c0.174,0.923,1.018,1.588,1.889,0.847c0.515-0.441,0.837-1.063,0.965-1.865
		c0.264-1.649,0.541-3.057,0.802-4.904c0.54-3.79,0.954-6.307,1.242-7.552c1.217-5.235,2.018-8.724,2.403-10.467
		c0.566-2.559,0.944-4.801,1.132-6.727c0.095-0.981,0.076-3.181-1.53-2.514c-0.408,0.169-0.898,0.629-1.469,1.38
		c-2.332,3.065-3.669,6.632-4.788,10.372c-0.043,0.143-0.187,0.232-0.338,0.208c-0.016-0.002-0.026-0.006-0.032-0.013
		c-0.193-0.271-0.292-0.498-0.295-0.681c-0.076-2.844-0.214-5.516-0.496-8.225c-0.392-3.767-1.189-7.395-2.39-10.884
		c-1.894-5.513-5.21-10.958-8.961-15.78c-1.799-2.311-5.249-6.996-7.502-1.577c-1.427,3.437-2.084,7.41-2.203,11.179
		c-0.114,3.614,0.403,7.114,1.551,10.502C31.637,123.84,34.567,128.49,37.577,132.587z M34.138,105.311
		c0.055-0.277,0.302-0.457,0.551-0.401c0.271,0.06,0.48,0.304,0.628,0.733c1.618,4.696,3.55,9.723,5.795,15.084
		c1.971,4.711,3.577,9.003,4.859,13.685c0.055,0.199,0.04,0.354-0.042,0.464c-0.024,0.032-0.051,0.06-0.082,0.085
		c-0.205,0.166-0.503,0.136-0.667-0.067c-3.524-4.347-6.268-9.087-8.23-14.218c-1.887-4.931-2.828-10.016-2.823-15.255
		C34.127,105.385,34.13,105.348,34.138,105.311z M63.466,143.109c2.409-0.624,3.974-0.997,4.695-1.118
		c5.336-0.886,10.591-0.04,16.202,1.514c7.246,2.007,15.846,5.049,23.214,2.073c4.408-1.781,8.067-5.387,10.499-9.441
		c0.636-1.058,0.789-2.366-0.401-3.078c-0.812-0.487-1.577-0.864-2.292-1.132c-4.572-1.704-8.85-2.947-12.833-3.73
		c-7.017-1.381-13.862-0.997-20.536,1.15c-4.375,1.407-8.473,3.706-12.293,6.898c-0.1,0.084-0.187,0.129-0.261,0.135
		c-0.071,0.005-0.142-0.008-0.205-0.04c-0.198-0.097-0.279-0.335-0.182-0.533c1.943-3.96,4.193-8.527,6.75-13.699
		c1.876-3.799,3.7-7.669,5.471-11.612c0.733-1.635,1.744-3.846,1.446-5.402c-0.171-0.892-1.092-1.393-1.881-0.82
		c-0.359,0.262-0.579,0.476-0.662,0.641c-1.92,3.894-4.12,8.181-6.597,12.862c-5.007,9.46-7.584,13.965-10.19,19.874
		c-0.793,1.797-1.305,3.153-1.535,4.068C61.521,143.104,62.268,143.421,63.466,143.109z M76.626,137.179
		c0.053-0.165,0.155-0.288,0.306-0.369c5.429-2.914,11.324-4.11,17.685-3.588c2.733,0.227,5.64,0.691,8.412,1.308
		c5.11,1.14,7.849,1.737,8.214,1.791c0.065,0.011,0.128,0.057,0.187,0.14c0.006,0.008,0.012,0.017,0.016,0.027
		c0.055,0.106,0.01,0.239-0.101,0.298c-0.624,0.329-1.349,0.621-2.174,0.876c-6.301,1.938-12.761,2.387-19.381,1.348
		c-5.131-0.807-8.739-1.419-12.852-1.401c-0.035,0-0.07-0.005-0.103-0.016C76.665,137.538,76.571,137.353,76.626,137.179z
		 M384.923,241.174c-0.167,0.212-0.258,0.474-0.256,0.744l0.003,0.045c0.001,0.108,0.089,0.195,0.197,0.194
		c0.048,0,0.095-0.019,0.13-0.051c7.478-6.771,15.416-14.379,25.232-17.394c1.237-0.38,4.859-1.314,5.766-0.179
		c0.805,1.008-0.438,2.493-1.182,3.247c-0.997,1.009-2.175,2.051-3.535,3.123c-3.6,2.84-7.293,5.323-11.079,7.449
		c-1.49,0.835-4.536,2.471-9.14,4.907c-3.208,1.699-6.302,3.77-9.283,6.212c-0.346,0.283-0.566,0.55-0.659,0.802
		c-0.062,0.168,0.025,0.355,0.193,0.416c0.086,0.032,0.182,0.025,0.263-0.018c1.377-0.733,2.897-1.525,4.561-2.374
		c6.824-3.485,13.303-5.373,20.665-4.827c1.008,0.074,1.966,0.251,2.875,0.533c1.105,0.343,1.997,1.29,1.324,2.524
		c-0.364,0.67-0.993,1.293-1.886,1.87c-5.941,3.836-12.976,4.925-19.898,6.215c-1.785,0.332-3.52,0.753-5.205,1.261
		c-3.232,0.973-5.941,2.746-8.125,5.321c-3.308,3.899-5.774,8.101-8.66,12.509c-0.997,1.523-1.991,2.836-2.981,3.938
		c-0.549,0.609-2.287,1.533-2.335-0.098c-0.012-0.433,0.133-0.877,0.435-1.332c2.935-4.404,5.357-8.75,7.265-13.039
		c0.978-2.2,1.532-4.298,1.662-6.294c0.206-3.139-1.53-7.059-3.084-9.768c-1.49-2.597-2.748-4.87-3.775-6.819
		c-3.77-7.15-5.699-14.719-5.785-22.707c-0.014-1.277,0.05-2.476,0.193-3.598c0.099-0.777,0.288-1.417,0.567-1.92
		c1.419-2.548,4.36,1.912,5.118,3.018c1.525,2.223,2.674,3.989,3.448,5.3c3.741,6.322,6.011,13.109,6.811,20.359
		c0.121,1.108,0.237,2.342,0.346,3.704c0.011,0.145,0.136,0.255,0.279,0.245c0.049-0.003,0.096-0.021,0.135-0.05
		c0.077-0.056,0.125-0.149,0.142-0.28c0.691-5.052,0.222-9.995-0.633-15.624c-1.409-9.243-2.379-14.693-2.556-22.016
		c-0.056-2.367,0.325-4.493,1.145-6.378c0.188-0.434,0.518-0.635,0.989-0.601c0.092,0.007,0.178,0.047,0.243,0.113
		c0.659,0.686,0.884,1.976,1.045,2.873c1.572,8.863,3.044,17.204,3.627,26.21c0.01,0.155,0.112,0.288,0.259,0.335l0.011,0.003
		c0.105,0.034,0.218-0.024,0.252-0.129c0.005-0.014,0.008-0.029,0.009-0.045c0.712-7.916,1.82-16.007,4.582-23.248
		c0.744-1.952,2.511-5.743,4.611-6.534c1.957-0.736,2.986,1.351,3.237,2.952c0.288,1.832,0.325,3.7,0.111,5.603
		c-0.852,7.587-3.44,14.77-6.452,21.974c-0.109,0.259-0.13,0.484-0.063,0.675c0.046,0.135,0.194,0.207,0.33,0.159
		c0.054-0.019,0.1-0.054,0.132-0.101c6.645-9.871,13.693-19.681,23.335-26.798c0.617-0.454,6.806-5.133,6.529-1.96
		c-0.033,0.382-0.186,0.819-0.456,1.311c-0.593,1.082-1.465,2.407-2.617,3.975c-2.724,3.709-5.797,7.58-9.219,11.615
		c-0.322,0.38-5.114,5.911-14.377,16.592C388.266,237.014,386.356,239.369,384.923,241.174z M71.704,275.005
		c3.152-2.685,7.267-4.569,11.272-5.867c6.176-2.001,9.775-3.173,10.797-3.516c7.07-2.371,14.131-6.086,19.792-10.924
		c2.08-1.78,3.785-3.795,5.115-6.046c0.931-1.58-0.952-2.171-2.047-2.303c-4.571-0.549-9.541-0.662-13.965-0.082
		c-7.267,0.952-13.472,4.097-18.861,8.861c-3.259,2.882-6.43,5.914-9.515,9.096c-1.876,1.934-3.659,4.186-5.16,6.101
		c-0.114,0.146-0.232,0.23-0.353,0.251c-0.012,0.002-0.023,0.004-0.035,0.005c-0.244,0.021-0.46-0.164-0.482-0.413
		c-0.241-2.773-0.2-5.511,0.121-8.212c0.29-2.443,1.203-4.321,3.002-5.735c1.72-1.351,3.845-2.872,6.376-4.564
		c3.521-2.358,6.961-5.117,10.322-8.275c4.59-4.316,8.805-9.552,10.549-15.632c0.509-1.778,0.773-4.366-0.451-6.017
		c-1.804-2.435-5.009-0.153-6.518,1.29c-1.695,1.62-3.333,3.497-4.914,5.632c-4.471,6.038-7.157,10.069-11.306,14.21
		c-0.039,0.039-0.086,0.068-0.138,0.086c-0.188,0.064-0.391-0.036-0.456-0.223c-0.051-0.144-0.015-0.408,0.108-0.791
		c0.005-0.018,1.063-2.328,3.173-6.93c1.609-3.514,3.078-7.067,3.788-10.781c0.375-1.963,0.578-4.841-0.367-6.682
		c-0.736-1.427-2.237-1.802-3.471-0.786c-1.039,0.857-1.675,2.029-2.269,3.337c-0.994,2.189-1.86,4.794-2.598,7.813
		c-1.331,5.434-2.746,11.136-4.244,17.107c-0.017,0.069-0.055,0.131-0.109,0.178c-0.146,0.128-0.367,0.113-0.495-0.033
		c-0.065-0.074-0.104-0.171-0.116-0.29c-0.441-4.012-0.944-8.051-2.838-11.507c-0.649-1.184-2.184-2.965-3.683-2.775
		c-3.226,0.409-2.306,7.399-1.971,9.475c1.271,7.906,2.627,15.205,3.187,23.364c0.222,3.229,0.338,8.6,0.348,16.115
		c0,0.274-0.105,0.477-0.314,0.607c-0.222,0.137-0.504,0.092-0.652-0.103c-0.118-0.155-0.226-0.367-0.324-0.636
		c-2.499-6.948-5.07-13.407-7.713-19.375c-1.335-3.018-2.007-5.844-2.018-8.478c-0.012-3.352-0.018-5.067-0.016-5.144
		c0.011-0.51,0.104-4.047,0.28-10.61c0.179-6.724,0.805-14.519,1.192-21.111c0.134-2.274,0.191-4.472,0.171-6.595
		c-0.005-0.674-0.174-1.336-0.506-1.986c-0.427-0.831-1.485-1.48-2.371-0.881c-0.478,0.324-0.755,0.72-0.831,1.19
		c-1.208,7.479-2.08,15.029-2.617,22.649c-0.375,5.344-0.357,11.08,0.053,17.207c0.016,0.236-0.026,0.388-0.127,0.456
		c-0.023,0.016-0.048,0.03-0.073,0.042c-0.309,0.151-0.685,0.017-0.84-0.298c-4.413-9.072-9.473-18.708-17.547-24.968
		c-1.567-1.219-3.638-2.416-5.621-2.622c-3.102-0.324-4.231,2.427-3.92,4.988c0.28,2.307,0.99,4.515,2.131,6.624
		c3.102,5.724,7.658,11.032,11.989,15.408c4.052,4.096,7.643,7.783,10.773,11.061c0.058,0.061,0.069,0.153,0.026,0.227l-0.05,0.087
		c-0.01,0.017-0.021,0.033-0.034,0.048c-0.118,0.137-0.323,0.153-0.459,0.036c-1.574-1.359-3.429-2.813-5.566-4.36
		c-2.094-1.514-6.004-4.094-8.46-3.572c-1.844,0.393-2.079,1.839-1.332,3.305c1.224,2.403,3.846,4.532,6.136,6.162
		c5.962,4.242,13.395,8.302,18.413,14.477c0.19,0.232,0.227,0.477,0.111,0.736c-0.036,0.08-0.12,0.128-0.208,0.119
		c-0.375-0.039-0.72-0.163-1.037-0.372c-1.739-1.14-3.482-2.297-5.228-3.471c-3.577-2.409-7.151-4.397-10.723-5.964
		c-2.457-1.078-4.944-1.826-7.463-2.245c-1.406-0.235-3.092-0.33-4.416-0.016c-3.933,0.929-2.712,3.957-0.493,5.745
		c0.962,0.776,1.924,1.438,2.886,1.986c6.996,3.986,15.516,5.941,23.008,8.441c1.556,0.521,2.984,1.089,4.284,1.707
		c5.297,2.517,8.133,8.035,9.744,13.419c2.251,7.522,3.432,11.49,3.543,11.905c0.171,0.637,0.409,1.116,0.715,1.438
		c0.786,0.828,2.348,0.317,3.076-0.335c0.068-0.062,0.115-0.144,0.132-0.235c0.09-0.506,0.111-0.884,0.063-1.132
		c-0.244-1.326-0.587-2.953-1.029-4.88c-0.698-3.053-1.298-6.305-1.799-9.755c-0.389-2.663-0.506-5.284-0.351-7.864
		C68.066,279.505,69.388,276.981,71.704,275.005z M80.311,264.888c3.171-2.867,6.61-5.56,10.317-8.08
		c3.255-2.213,6.919-3.994,10.731-4.999c2.903-0.767,5.904-1.25,9.001-1.451c0.258-0.016,0.633,0.061,0.807,0.182
		c0.028,0.02,0.053,0.043,0.076,0.069c0.156,0.179,0.137,0.451-0.042,0.607c-1.045,0.906-2.103,1.731-3.176,2.477
		c-8.317,5.785-17.608,9.784-27.273,12.293c-0.032,0.008-0.064,0.014-0.096,0.017c-0.341,0.034-0.642-0.206-0.674-0.537
		C79.966,265.294,80.076,265.101,80.311,264.888z M42.497,248.4c-0.092,0.19-0.311,0.268-0.491,0.176
		c-0.046-0.023-0.084-0.047-0.113-0.074c-5.07-4.614-10.037-9.605-14.042-15.318c-1.498-2.134-3.092-4.983-3.255-7.542
		c-0.103-1.554,0.815-1.881,2.044-1.14c0.561,0.339,1.182,0.863,1.862,1.572c1.621,1.688,3.216,3.849,4.785,6.481
		c2.459,4.131,4.922,8.287,7.391,12.469c0.707,1.198,1.839,2.899,1.857,3.179C42.54,248.271,42.526,248.339,42.497,248.4z
		 M350.005,216.095c-0.675-1.527-1.746-3.068-3.234-3.846c-1.398-0.731-3.115-0.398-4.242,0.63c-1.001,0.916-1.734,2.098-2.2,3.545
		c-1.482,4.614-0.797,9.813,0.546,14.413c1.894,6.484,4.833,12.534,8.816,18.149c1.198,1.69,2.587,3.5,4.168,5.429
		c0.047,0.058,0.11,0.101,0.18,0.126c0.213,0.075,0.446-0.037,0.521-0.25c0.042-0.121,0.06-0.24,0.053-0.356
		c-0.513-7.562-0.915-13.84-1.205-18.835c-0.088-1.516-0.237-3.34-0.446-5.474C352.522,225.114,351.839,220.247,350.005,216.095z
		 M349.725,242.165c-0.104,0.058-0.236,0.021-0.294-0.084c-2.997-5.234-5.616-11.145-6.22-17.146
		c-0.172-1.723-0.129-5.453,1.601-6.489c0.075-0.044,0.163-0.063,0.248-0.053c0.549,0.076,0.957,0.361,1.224,0.855
		c0.827,1.523,1.395,3.215,1.707,5.075c1,5.943,1.44,13.915,1.844,17.626C349.845,242.037,349.802,242.122,349.725,242.165z
		 M363.414,306.554c-0.124-0.335-0.269-0.857-0.694-0.971c-0.433-0.116-0.821,0.057-1.166,0.52
		c-0.563,0.758-1.082,1.642-1.556,2.651c-2.606,5.533-5.552,10.826-8.837,15.88c-0.281,0.433-0.807,0.969-1.578,1.609
		c-0.073,0.059-0.155,0.106-0.243,0.137c-2.244,0.797-4.263,1.281-6.057,1.453c-4.21,0.408-8.47,0.171-12.781-0.712
		c-3.252-0.667-5.679-1.178-7.283-1.535c-1.834-0.41-3.647-0.667-5.439-0.773c-3.002-0.174-6.991,0.554-9.019,2.92
		c-0.702,0.818-0.681,1.936,0,2.796c1.245,1.57,3.508,2.651,5.495,3.358c2.757,0.985,5.713,1.517,8.866,1.596
		c8.051,0.2,15.734-1.353,23.05-4.661c0.063-0.029,0.136-0.023,0.194,0.015c0.092,0.061,0.118,0.185,0.057,0.278
		c-0.452,0.696-1.266,1.751-2.443,3.163c-1.435,1.725-3.37,3.988-5.806,6.787c-0.797,0.915-2.656,3.287-0.599,3.672
		c1.155,0.214,2.424-0.673,3.348-1.39c2.379-1.848,4.586-3.949,6.618-6.302c5.642-6.535,10.049-13.845,13.221-21.929
		c1.184-3.012,2.072-5.781,2.667-8.307C363.449,306.726,363.443,306.637,363.414,306.554z M335.421,331.577
		c-0.049,0.09-0.143,0.148-0.282,0.174c-5.052,0.973-10.515,1.237-15.611,0.43c-1.406-0.224-5.089-0.966-5.701-2.435
		c-0.033-0.079-0.023-0.169,0.026-0.24c0.997-1.438,5.962-0.823,7.555-0.541c4.089,0.725,7.27,1.284,9.544,1.678
		c1.396,0.243,2.809,0.416,4.239,0.52c0.041,0.003,0.081,0.014,0.117,0.034C335.444,331.272,335.495,331.442,335.421,331.577z
		 M135.032,329.633c1.585-1.783,2.921-3.873,4.01-6.27c1.475-3.25,1.883-6.588,1.221-10.013c-0.644-3.329-2.749-6.502-6.07-7.399
		c-5.36-1.448-8.95,4.236-11.127,8.159c-1.864,3.364-3.764,6.673-5.701,9.926c-1.949,3.271-3.999,6.458-6.632,9.391
		c-2.483,2.765-5.494,4.569-9.032,5.413c-6.017,1.435-12.09,0.607-18.025-1.129c-0.475-0.137-1.031-0.422-1.287-0.789
		c-1.927-2.768-3.912-5.562-5.954-8.383c-0.029-0.042-0.068-0.076-0.113-0.1c-0.396-0.216-0.747-0.215-1.053,0.003
		c-1.271,0.905-0.549,2.627,0.079,3.725c0.828,1.449,1.799,3.002,2.912,4.659c5.146,7.668,10.622,15.115,16.429,22.343
		c0.274,0.34,0.659,0.646,1.103,0.572c3.018-0.509,0.805-3.498-0.079-4.69c-4.024-5.425-6.937-9.373-8.739-11.844
		c-0.02-0.027-0.035-0.057-0.045-0.089c-0.05-0.16,0.039-0.33,0.198-0.38c0.181-0.058,0.359-0.064,0.533-0.018
		c3.751,0.983,7.407,1.503,10.968,1.559C112.122,344.492,125.989,339.815,135.032,329.633z M128.593,329.47
		c-3.097,2.817-6.735,5.197-10.298,7.091c-2.385,1.266-4.808,2.247-7.27,2.941c-0.057,0.016-0.117,0.018-0.175,0.006
		c-0.198-0.041-0.326-0.235-0.284-0.434c0.014-0.063,0.076-0.152,0.187-0.266c0.107-0.107,0.188-0.178,0.243-0.211
		c5.383-3.245,9.599-7.624,12.649-13.139c1.419-2.567,2.854-5.096,4.007-7.159c0.86-1.538,2.915-4.616,4.685-5.089
		c2.762-0.736,2.912,3.408,2.68,5.191C134.436,322.817,131.861,326.499,128.593,329.47z M368.605,315.388
		c-0.354,0.29-0.647,0.655-0.881,1.095c-1.577,2.965-2.858,6.123-3.841,9.475c-2.546,8.676-2.849,18.555,0.037,27.3
		c0.778,2.353,2.888,6.249,5.938,3.585c0.494-0.431,0.849-0.8,1.066-1.108c3.279-4.664,4.796-10.736,4.975-16.337
		c0.251-7.972-1.788-16.025-5.057-23.171C370.465,315.402,369.439,314.708,368.605,315.388z M370.581,346.439
		c-0.298,1.343-0.778,3.268-1.717,4.279c-0.028,0.03-0.061,0.055-0.098,0.074c-0.17,0.086-0.378,0.018-0.464-0.153
		c-0.918-1.828-1.187-4.519-1.266-6.624c-0.28-7.214,0.463-14.259,2.226-21.135c0.016-0.062,0.03-0.099,0.042-0.113
		c0.032-0.036,0.075-0.061,0.122-0.071c0.12-0.024,0.238,0.055,0.263,0.176C371.198,330.564,372.285,338.721,370.581,346.439z
		 M186.421,388.862c-0.508-0.07-1.454,0.084-2.838,0.462c-7.794,2.126-15.675,3.399-23.644,3.82
		c-8.848,0.467-17.468-0.501-25.838-3.413c-5.028-1.752-9.687-3.754-13.978-6.007c-3.104-1.628-4.854-2.535-5.249-2.72
		c-0.554-0.259-1.067-0.423-1.541-0.493c-0.329-0.048-0.647,0.132-0.77,0.435c-0.367,0.905,2.021,2.989,2.736,3.585
		c1.534,1.287,3.385,2.775,5.555,4.463c1.507,1.177,2.369,2.69,2.585,4.54c0.225,1.936,0.435,3.482,0.63,4.637
		c0.81,4.793,3.184,9.267,7.08,12.301c2.356,1.836,6.626,3.767,8.6,0.372c0.414-0.71,0.638-2.145,0.549-2.912
		c-0.625-5.292-3.638-9.272-7.217-13.044c-0.05-0.053-0.079-0.122-0.081-0.195c-0.006-0.166,0.124-0.305,0.29-0.311
		c0.114-0.005,0.242,0.017,0.382,0.066c1.375,0.484,3.147,1.194,5.315,2.131c1.564,0.678,2.255,2.1,2.77,3.635
		c2.137,6.376,4.513,12.62,8.006,17.975c2.248,3.448,5.97,7.835,10.217,8.486c1.12,0.171,2.018,0.054,2.693-0.351
		c3.187-1.915,0.754-7.518-0.63-9.8c-3.105-5.125-7.17-9.32-11.451-13.606c-0.19-0.192-0.288-0.334-0.295-0.427
		c-0.002-0.035,0-0.071,0.007-0.106c0.044-0.239,0.274-0.397,0.513-0.353c0.737,0.139,1.492,0.394,2.266,0.765
		c4.426,2.129,6.772,4.949,11.127,9.467c3.564,3.696,9.715,9.591,15.287,8.805c2.849-0.401,4.144-3.197,3.522-5.809
		c-0.971-4.073-4.379-7.407-7.787-9.75c-5.284-3.632-11.23-5.73-17.508-7.043c-0.035-0.007-0.068-0.02-0.099-0.037
		c-0.173-0.094-0.237-0.307-0.144-0.475c0.104-0.185,0.276-0.292,0.517-0.322c6.24-0.783,12.585-1.649,19.035-2.598
		c3.35-0.493,7.241-1.087,10.631-2.153c0.686-0.216,1.255-0.505,1.707-0.865c0.575-0.456,0.493-1.219-0.055-1.717
		C188.417,389.484,187.453,389.004,186.421,388.862z M136.483,407.05c-0.083,0.689-0.423,1.074-1.021,1.155
		c-0.121,0.017-0.246,0.006-0.364-0.034c-0.907-0.304-1.711-0.887-2.411-1.749c-2.728-3.366-4.271-7.497-5.79-11.96
		c-0.017-0.053-0.02-0.109-0.008-0.163c0.038-0.162,0.199-0.262,0.361-0.225c0.141,0.033,0.296,0.142,0.467,0.324
		c0.035,0.04,1.784,2.012,5.247,5.914C134.309,401.833,136.733,404.943,136.483,407.05z M151.524,408.47
		c2.648,3.165,4.666,5.503,6.452,8.457c0.754,1.248,1.913,3.432,1.625,4.899c-0.001,0.007-0.003,0.014-0.005,0.021
		c-0.057,0.226-0.286,0.363-0.512,0.306c-1.361-0.348-2.96-2.102-3.862-3.3c-3.187-4.226-5.732-8.78-7.637-13.662
		c-0.016-0.042-0.026-0.086-0.032-0.132c-0.019-0.204-0.018-0.321,0.003-0.351c0.019-0.029,0.042-0.055,0.067-0.078
		c0.18-0.166,0.459-0.156,0.624,0.023C148.775,405.219,149.868,406.491,151.524,408.47z M161.108,403.522
		c0.045-0.163,0.214-0.258,0.377-0.212c1.308,0.377,2.39,0.965,3.938,1.678c2.986,1.372,5.681,2.998,8.085,4.88
		c1.609,1.258,4.115,3.609,4.305,5.598c0.029,0.299-0.182,0.57-0.48,0.617c-0.997,0.158-2.548-0.554-3.406-1.079
		c-1.831-1.117-3.726-2.58-5.685-4.389c-1.628-1.505-3.981-3.77-7.056-6.793C161.108,403.743,161.078,403.629,161.108,403.522z
		 M324.184,381.334c0.014,0.046,0.02,0.094,0.021,0.142v0.704c0,0.062-0.015,0.125-0.045,0.182c-1.095,2.139-1.38,4.181-1.554,6.698
		c-0.12,1.736-0.248,4.368-0.385,7.895c-0.28,7.246-2.459,13.374-8.296,17.919c-0.807,0.628-2.68,1.81-3.606,1.348
		c-1.058-0.528-0.535-2.271-0.227-3.189c1.701-5.06,3.833-10.53,6.397-16.413c0.032-0.072,0.045-0.127,0.04-0.164
		c-0.023-0.162-0.173-0.274-0.336-0.25c-0.074,0.011-0.142,0.049-0.189,0.107c-0.726,0.893-1.287,1.632-1.683,2.216
		c-3.09,4.546-5.786,8.353-8.088,11.422c-1.338,1.783-2.979,3.687-4.922,5.711c-5.355,5.584-12.237,9.56-19.594,11.786
		c-1.599,0.483-3.574,1.124-5.273,0.907c-3.137-0.401,0.319-5.052,1.118-6.12c4.305-5.751,9.895-10.354,15.991-14.274
		c5.028-3.234,7.835-5.044,8.423-5.429c6.695-4.36,13.071-10.043,17.785-16.548c0.878-1.208,1.934-3.144,2.889-4.324
		c0.283-0.35,0.587-0.573,0.913-0.67C323.826,380.915,324.105,381.067,324.184,381.334z M283.335,388.582
		c0.199-0.334,0.559-0.789,1.082-1.364c1.678-1.844-1.068-1.915-2.047-1.907c-2.633,0.018-6.684-0.021-10.327-0.52
		c-3.646-0.499-7.449-1.596-11.182-2.453c-2.501-0.575-5.154-0.984-7.563-0.667c-2.071,0.272-4.759,1.551-3.936,4.178
		c1.079,3.429,6.524,4.951,9.66,5.45c4.535,0.72,8.225,0.646,13.543,0.546c0.401-0.008,0.863,0.063,1.153,0.288
		c0.058,0.045,0.105,0.103,0.137,0.169c0.113,0.235,0.014,0.517-0.221,0.63c-2.242,1.075-4.625,1.812-7.149,2.213
		c-3.42,0.543-6.807,0.244-10.159-0.897c-1.454-0.496-3.05-1.096-4.788-1.802c-2.047-0.831-5.513-1.823-7.518-0.256
		c-0.501,0.394-0.81,0.887-0.926,1.48c-0.617,3.176,3.706,5.497,6.067,6.429c0.862,0.341,2.197,0.853,4.004,1.535
		c0.255,0.096,0.385,0.38,0.29,0.636c-0.095,0.251-0.288,0.439-0.58,0.562c-5.795,2.437-11.528,5.028-16.695,8.357
		c-1.62,1.042-8.146,5.801-6.239,7.982c2.145,2.448,11.024-2.432,13.324-3.801c5.4-3.21,10.488-6.967,15.514-10.072
		c0.246-0.153,0.454-0.185,0.623-0.095c0.033,0.017,0.063,0.039,0.09,0.064c0.179,0.165,0.188,0.447,0.021,0.63
		c-2.258,2.46-4.496,4.841-6.714,7.143c-1.504,1.562-2.979,3.273-4.426,5.133c-1.33,1.709-5.028,7.12-2.247,8.964
		c2.693,1.789,7.587-1.981,9.489-3.838c4.685-4.569,7.31-9.75,10.81-15.957c1.63-2.895,3.419-5.547,5.366-7.956
		c0.325-0.403,0.633-0.734,0.923-0.995c0.058-0.051,0.13-0.082,0.206-0.089c0.202-0.02,0.381,0.128,0.401,0.329
		c0.002,0.019-0.022,0.121-0.071,0.306c-0.106,0.38-0.441,1.098-1.005,2.155c-2.42,4.528-3.725,6.983-3.915,7.362
		c-1.504,3.036-2.73,6.107-3.052,9.349c-0.156,1.583-0.105,4.176,1.738,4.643c1.699,0.433,3.88-1.546,4.925-2.812
		c3.933-4.761,5.941-11.145,7.067-17.186C279.995,397.142,280.774,392.901,283.335,388.582z M270.784,388.435
		c-0.153,0.1-0.36,0.157-0.62,0.169c-3.391,0.164-6.422,0.137-9.095-0.079c-1.511-0.123-2.938-0.362-4.281-0.718
		c-1.024-0.272-3.474-1.174-3.654-2.245c-0.069-0.406,0.1-0.727,0.506-0.963c1.467-0.86,4.437-0.108,6.001,0.369
		c4.324,1.319,8.025,2.393,11.103,3.224c0.032,0.008,0.06,0.029,0.078,0.056C270.863,388.311,270.846,388.394,270.784,388.435z
		 M275.888,401.513c-1.258,5.025-2.546,9.99-4.975,13.881c-0.301,0.477-1.174,1.593-1.712,1.593c-0.193,0-0.354-0.147-0.372-0.338
		c-0.195-2.145,0.997-4.772,1.931-6.618c1.453-2.875,3.013-5.849,4.68-8.921c0.036-0.066,0.099-0.113,0.174-0.128
		c0.136-0.026,0.267,0.063,0.293,0.199C275.926,401.278,275.92,401.389,275.888,401.513z"/>
	<path class="st1" d="M218.566,33.327c-1.124,2.754-4.318,4.21-7.146,4.783c-2.242,0.452-4.559,0.522-6.951,0.211
		c-0.159-0.021-0.305,0.091-0.326,0.25c-0.012,0.091,0.02,0.182,0.086,0.246c2.371,2.324,5.682,6.769,4.421,10.29
		c-0.343,0.957-0.993,1.514-1.949,1.672c-2.799,0.459-5.455-2.29-7.114-4.308c-0.1-0.119-0.278-0.135-0.398-0.035
		c-0.082,0.069-0.118,0.179-0.093,0.283c0.61,2.392,0.848,4.676,0.712,6.853c-0.108,1.731-0.807,4.144-2.561,4.809
		c-1.799,0.683-3.377-0.704-4.136-2.369c-0.558-1.219-0.934-2.568-1.129-4.049c-0.343-2.615-0.298-5.547,0.135-8.795
		c0.018-0.13-0.015-0.257-0.098-0.38c-0.068-0.104-0.207-0.132-0.312-0.063c-0.021,0.014-0.039,0.031-0.055,0.05
		c-2.197,2.841-5.07,5.948-9.014,5.582c-0.976-0.09-1.778-0.394-2.406-0.913c-1.918-1.575-1.177-3.862,0.243-5.561
		c1.591-1.902,3.946-3.21,6.257-4.281c0.132-0.062,0.189-0.218,0.129-0.35c-0.035-0.076-0.105-0.131-0.187-0.146
		c-2.704-0.538-5.846-1.453-8.03-3.181c-1.973-1.562-2.941-4.21-0.873-6.162c0.9-0.849,2.114-1.394,3.64-1.633
		c3.838-0.601,7.734,0.512,11.259,2.131c0.009,0.004,0.047,0.011,0.113,0.024c0.051,0.011,0.091,0.013,0.121,0.008
		c0.081-0.013,0.136-0.088,0.123-0.169c-0.002-0.012-0.005-0.023-0.01-0.034c-2.42-5.817-3.186-11.776-2.298-17.877
		c0.294-2.008,0.95-3.747,1.968-5.215c0.871-1.258,2.435-1.918,3.754-0.9c1.775,1.366,2.414,4.608,2.651,6.874
		c0.332,3.155,0.256,6.416-0.23,9.784c-0.021,0.157,0.089,0.302,0.246,0.324c0.067,0.009,0.135-0.006,0.192-0.042
		c0.144-0.091,0.241-0.171,0.29-0.24c2.495-3.392,5.139-6.608,8.489-8.913c1.351-0.929,3.545-1.905,5.118-1.137
		c2.488,1.211,1.19,4.999,0.272,6.779c-2.237,4.342-5.389,7.737-9.014,11.166c-0.067,0.063-0.106,0.106-0.116,0.129
		c-0.063,0.15,0.008,0.324,0.158,0.387c0.062,0.026,0.131,0.03,0.195,0.012c3.656-1.034,7.571-1.955,11.055-1.037
		C218.144,28.816,219.552,30.9,218.566,33.327z M348.847,131.903c-1.855-0.178-3.676,0.039-5.46,0.649
		c-0.071,0.024-0.148,0.017-0.213-0.019c-0.127-0.071-0.174-0.231-0.103-0.359c1.483-2.678,2.552-5.484,3.208-8.417
		c0.266-1.192,0.356-2.337,0.272-3.435c-0.108-1.358-0.934-2.58-2.469-2.047c-1.831,0.636-3.282,2.659-4.556,4.313
		c-0.07,0.091-0.17,0.153-0.283,0.175c-0.254,0.05-0.501-0.116-0.551-0.37c-0.302-1.56-0.601-2.942-0.897-4.147
		c-0.375-1.527-1.018-3.696-2.284-4.582c-1.068-0.747-2.234-0.259-2.941,0.77c-0.526,0.77-0.902,1.665-1.129,2.685
		c-0.529,2.392-0.769,5.09-0.72,8.096c0.004,0.227-0.039,0.422-0.127,0.586c-0.024,0.043-0.055,0.081-0.092,0.113
		c-0.166,0.14-0.413,0.119-0.551-0.047c-1.567-1.85-2.67-3.135-3.311-3.854c-1.535-1.723-3.395-3.527-5.6-4.144
		c-3.857-1.082-4.951,2.382-4.028,5.339c1.301,4.163,4.45,7.505,7.829,10.433c0.157,0.135,0.249,0.28,0.277,0.433
		c0.002,0.009,0.003,0.018,0.004,0.027c0.015,0.16-0.104,0.301-0.265,0.316c-2.902,0.253-5.255,0.441-7.864,1.264
		c-2.883,0.913-5.991,3.126-6.344,6.262c-0.158,1.43,0.199,2.606,1.071,3.53c2.29,2.424,6.141,2.1,9.045,1.031
		c1.134-0.417,2.404-0.996,3.809-1.738c0.004-0.002,0.007-0.004,0.011-0.005c0.14-0.065,0.306-0.005,0.372,0.135
		c0.09,0.195,0.086,0.434-0.011,0.715c-1.208,3.468-1.918,6.836-2.129,10.103c-0.156,2.403,0.369,7.763,4.076,6.951
		c1.348-0.295,2.609-1.63,3.382-2.838c2.155-3.369,3.097-7.328,3.828-11.375c0.025-0.134,0.067-0.228,0.127-0.282
		c0.04-0.037,0.087-0.066,0.138-0.086c0.234-0.093,0.5,0.021,0.593,0.255c1.01,2.559,2.297,4.888,3.862,6.988
		c1.013,1.361,2.675,2.664,4.521,2.298c0.11-0.023,0.214-0.065,0.309-0.124c0.95-0.603,1.508-1.5,1.675-2.691
		c0.504-3.59-0.797-7.136-2.358-10.486c-0.111-0.239-0.21-0.629-0.298-1.169c-0.016-0.104,0.02-0.209,0.098-0.28
		c0.206-0.19,0.444-0.31,0.715-0.359c3.11-0.578,9.275-1.3,10.122-5.207C354.255,134.317,351.603,132.167,348.847,131.903z
		 M125.052,361.177c-1.414-0.781-2.941-0.815-4.688-0.968c-0.047-0.004-0.093-0.021-0.131-0.05c-0.11-0.084-0.132-0.241-0.049-0.351
		c0.095-0.125,0.226-0.228,0.393-0.309c2-0.955,4.585-2.593,5.431-4.59c1.045-2.474-1.514-3.957-3.548-4.136
		c-1.639-0.144-3.281,0.059-4.925,0.609c-4.287,1.427-8.164,3.759-12.224,6.154c-0.101,0.061-0.228,0.059-0.327-0.006
		c-0.141-0.093-0.18-0.283-0.087-0.424c2.034-3.139,4.062-6.384,5.334-9.868c0.357-0.98,0.543-1.854,0.559-2.622
		c0.026-1.348-1.023-1.625-2.068-1.084c-1.87,0.968-3.537,3.216-4.703,5.083c-0.964,1.542-2.121,3.503-3.471,5.883
		c-0.127,0.223-0.307,0.309-0.541,0.256c-0.244-0.053-0.393-0.25-0.446-0.591c-0.412-2.667-2.284-15.891-6.051-15.54
		c-1.411,0.132-1.746,2.654-1.778,3.68c-0.035,1.131,0.057,2.371,0.277,3.722c0.586,3.573,1.749,7.267,3.49,11.079
		c0.088,0.193,0.117,0.361,0.087,0.504c-0.005,0.023-0.012,0.045-0.022,0.066c-0.077,0.171-0.278,0.248-0.447,0.171
		c-4.411-1.984-9.56-3.606-14.416-3.777c-1.992-0.069-5.336,0.435-4.664,3.213c0.39,1.612,2.878,3.176,4.207,3.878
		c2.826,1.495,5.879,2.682,9.159,3.561c0.069,0.018,0.13,0.058,0.175,0.112c0.122,0.146,0.103,0.364-0.043,0.487
		c-0.077,0.065-0.149,0.106-0.216,0.124c-5.482,1.514-11.594,3.329-15.706,7.354c-1.021,0.997-2.221,2.675-2.242,3.954
		c-0.025,1.535,0.711,2.545,2.208,3.028c2.664,0.86,6.049-0.375,8.586-1.672c2.872-1.47,5.758-3.391,8.658-5.761
		c0.06-0.048,0.135-0.072,0.211-0.067c0.17,0.01,0.3,0.156,0.29,0.326l-0.018,0.269c-0.003,0.045-0.016,0.088-0.037,0.127
		c-0.433,0.804-0.986,2.048-1.659,3.733c-0.95,2.381-1.488,4.511-1.614,6.389c-0.098,1.469,0.272,3.688,2.211,3.324
		c2.925-0.551,5.711-6.555,6.75-9.132c0.02-0.048,0.058-0.087,0.106-0.107c0.099-0.041,0.212,0.005,0.252,0.104
		c0.12,0.28,0.171,0.524,0.153,0.733c-0.356,4.416-0.477,8.9,0.074,13.213c0.255,2,0.725,3.785,1.411,5.358
		c0.562,1.285,1.849,2.567,3.337,1.765c1.556-0.839,2.419-3.084,2.767-4.764c0.662-3.181,0.541-6.484,0.135-9.75
		c-0.315-2.527-0.782-5.055-1.401-7.584c-0.01-0.047-0.01-0.096,0-0.142c0.009-0.042,0.013-0.065,0.013-0.069
		c0.01-0.061,0.043-0.116,0.093-0.152c0.103-0.076,0.247-0.054,0.321,0.049c1.271,1.73,2.513,3.276,3.725,4.637
		c1.308,1.467,6.323,6.793,8.307,3.865c0.422-0.625,0.441-1.999,0.253-2.662c-0.86-3.049-2.572-5.476-4.553-7.932
		c-0.051-0.062-0.076-0.141-0.073-0.221c0.008-0.18,0.161-0.32,0.342-0.312c0.116,0.005,0.195,0.018,0.237,0.04
		c2.662,1.311,5.321,2.422,8.201,2.451c1.533,0.016,3.582-0.76,3.282-2.691c-0.464-2.978-5.788-5.22-8.294-6.099
		c-0.202-0.07-0.326-0.178-0.372-0.322c-0.009-0.028-0.013-0.057-0.012-0.086c0.004-0.149,0.127-0.266,0.276-0.262
		c3.105,0.084,7.17,0.309,9.734-1.446C126.859,363.844,126.667,362.066,125.052,361.177z"/>
	<path class="st2" d="M343.096,68.024c-0.095,0.118-0.079,0.29,0.038,0.385c0.022,0.018,0.047,0.032,0.073,0.042
		c1.688,0.647,3.128,1.52,4.318,2.619c1.915,1.77,3.036,4.703,0.902,6.774c-3.793,3.677-12.137,0.989-16.257-0.886
		c-0.343-0.156-0.778-0.24-1.166-0.187c-0.107,0.014-0.182,0.112-0.168,0.219c0.005,0.037,0.02,0.072,0.044,0.1
		c1.655,2.007,3.133,4.019,4.434,6.038c1.765,2.738,3.392,6.099,3.437,9.362c0.014,1.161-0.258,2.095-0.815,2.804
		c-1.638,2.076-4.685,0.847-6.389-0.435c-2.128-1.604-3.942-3.563-5.442-5.877c-0.115-0.176-0.35-0.225-0.526-0.11
		c-0.028,0.018-0.053,0.04-0.076,0.065c-0.046,0.053-0.086,0.151-0.121,0.295c-0.019,0.077-0.022,0.186-0.008,0.324
		c0.353,3.429,0.971,12.301-3.01,13.865c-2.838,1.113-5.764-2.962-6.874-5.017c-2.342-4.326-3.5-9.251-4.213-14.268
		c-0.007-0.044-0.048-0.172-0.124-0.385c-0.058-0.164-0.128-0.274-0.208-0.332c-0.274-0.192-0.648-0.137-0.849,0.124
		c-2.342,3.044-4.429,5.875-7.252,8.106c-3.15,2.49-7.436,3.796-10.757,0.831c-2.324-2.076-2.295-5.376-1.092-8.119
		c1.459-3.334,4.864-6.334,7.75-8.389c0.074-0.052,0.125-0.131,0.142-0.219c0.002-0.004,0.008-0.036,0.018-0.098
		c0.033-0.186-0.091-0.365-0.277-0.398c-0.039-0.007-0.079-0.007-0.118,0c-2.339,0.394-4.753,0.686-7.241,0.876
		c-4.862,0.369-12.844-0.164-14.962-5.6c-0.638-1.646-0.324-3.622,0.638-5.191c2.614-4.268,9.035-5.587,13.664-5.925
		c4.569-0.335,8.797-0.269,14.173-0.264c1.015,0.002,1.939-0.119,2.772-0.361c0.182-0.052,0.288-0.242,0.235-0.424
		c-0.017-0.06-0.05-0.114-0.096-0.156c-3.005-2.838-5.395-6.661-7.241-10.517c-2.891-6.041-4.424-13.314-1.997-19.763
		c1.48-3.944,5.278-7.457,9.462-4.184c1.215,0.95,2.274,2.246,3.176,3.888c2.269,4.134,3.366,8.666,4.318,13.414
		c0.042,0.215,0.127,0.364,0.253,0.448c0.15,0.104,0.359,0.058,0.467-0.102c0.016-0.024,0.03-0.05,0.04-0.077
		c1.577-4.197,3.239-8.307,5.79-11.755c1.638-2.213,4.608-4.917,7.502-3.611c2.416,1.089,2.701,4.622,2.432,6.869
		c-0.48,4.025-2.419,7.848-4.759,11.367c-0.08,0.12-0.049,0.282,0.071,0.362c0.048,0.032,0.106,0.048,0.164,0.044l0.335-0.021
		c0.045-0.002,0.089-0.015,0.127-0.04c4.321-2.733,8.871-4.946,13.68-5.408c3.64-0.348,7.624,1.651,7.777,5.672
		c0.158,4.155-4.139,7.26-7.5,8.734c-0.566,0.248-1.158,0.502-1.775,0.762c-0.148,0.062-0.217,0.232-0.155,0.38
		c0.042,0.099,0.135,0.167,0.242,0.177c2.573,0.237,4.953,0.87,7.141,1.897c2.089,0.981,3.896,2.807,3.854,5.215
		c-0.047,2.762-2.778,4.529-5.136,5.162c-1.342,0.361-2.169,0.587-2.482,0.681C343.302,67.857,343.174,67.93,343.096,68.024z
		 M79.482,89.976c0.102-0.004,0.182-0.089,0.178-0.191c-0.001-0.022-0.006-0.044-0.014-0.065c-2.77-6.518-5.484-13.596-5.323-20.837
		c0.061-2.683,0.871-5.719,2.728-7.858c3.226-3.714,8.13-3.566,11.81-0.567c4.64,3.78,5.806,11.169,5.788,16.801
		c-0.007,2.142-0.093,4.177-0.259,6.104c-0.018,0.227,0.151,0.425,0.377,0.443c0.103,0.008,0.206-0.023,0.287-0.087
		c4.59-3.664,10.053-6.436,15.854-7.431c1.171-0.2,2.486-0.205,3.944-0.013c5.154,0.675,7.093,4.938,4.244,9.317
		c-2.878,4.421-8.549,7.207-13.538,8.433c-0.144,0.035-0.233,0.181-0.198,0.325c0.024,0.097,0.099,0.173,0.195,0.197
		c3.332,0.823,6.935,2.081,9.547,3.838c3.936,2.646,5.65,7.84,1.475,11.261c-5.223,4.276-13.485,1.973-18.771-0.902
		c-0.093-0.049-0.208-0.014-0.257,0.079c-0.029,0.054-0.029,0.119-0.002,0.174c1.741,3.419,3.387,7.125,2.327,10.913
		c-1.066,3.796-4.379,5.851-8.183,5.049c-5.421-1.145-8.476-7.046-9.296-12.018c-0.317-1.917-0.479-3.903-0.488-5.959
		c0-0.184-0.15-0.332-0.335-0.332c-0.012,0-0.024,0.001-0.037,0.002c-0.1,0.012-0.219,0.091-0.356,0.237
		c-4.78,5.033-11.343,12.475-18.877,12.826c-4.408,0.206-7.85-3.052-6.782-7.566c0.346-1.467,1.162-2.874,2.445-4.223
		c3.181-3.348,7.6-5.294,12.097-6.93c0.109-0.04,0.166-0.161,0.126-0.271c-0.003-0.008-0.006-0.015-0.01-0.022
		c-0.083-0.165-0.22-0.274-0.412-0.327c-2.198-0.594-4.107-1.21-5.727-1.847c-4.389-1.723-8.795-4.907-9.307-9.984
		c-0.332-3.316,1.591-6.025,4.653-7.225c6.885-2.701,14.986,3.355,19.333,8.286C78.918,89.828,79.208,89.984,79.482,89.976z
		 M49.903,315.459l-0.034-0.055c-0.038-0.065-0.096-0.117-0.166-0.148c-4.83-2.153-9.46-4.637-13.263-8.222
		c-3.648-3.435-6.075-8.275-4.854-13.387c0.855-3.585,3.279-6.405,6.574-8.059c3.041-1.528,6.298-1.924,9.771-1.187
		c4.64,0.984,8.655,4.126,11.886,7.755c2.772,3.114,5.152,6.691,7.141,10.731c0.083,0.165,0.182,0.279,0.298,0.34
		c0.206,0.109,0.462,0.029,0.57-0.177c0.016-0.031,0.029-0.063,0.037-0.097c1.071-4.448,2.757-8.72,5.06-12.818
		c2.799-4.988,7.178-10.132,13.037-11.348c3.727-0.773,6.824,1.105,8.275,4.542c0.767,1.818,1.068,3.825,0.905,6.02
		c-0.506,6.856-3.714,13.796-7.837,19.402c-0.994,1.356-1.82,2.245-1.873,2.852c-0.017,0.203,0.134,0.382,0.337,0.399
		c0.039,0.003,0.079,0,0.117-0.009c2.249-0.538,4.499-0.945,6.748-1.221c5.4-0.662,11.826-0.264,15.25,4.735
		c1.567,2.29,2.039,4.901,1.417,7.835c-0.699,3.303-3.458,6.212-6.539,7.966c-6.938,3.949-15.664,3.593-22.894,0.277
		c-0.839-0.383-1.664-0.746-2.474-1.087c-0.184-0.078-0.396,0.009-0.474,0.194c-0.011,0.027-0.019,0.055-0.024,0.083
		c-0.319,1.944-0.161,3.936-0.124,6.141c0.082,4.888-0.454,9.57-2.329,14.094c-1.836,4.434-5.772,8.911-10.902,9.267
		c-7.629,0.528-11.813-6.756-12.237-13.372c-0.2-3.109,0.069-6.27,0.81-9.483c0.074-0.313,0.031-0.571-0.129-0.773
		c-0.119-0.153-0.333-0.196-0.504-0.1c-3.297,1.873-6.608,3.556-10.211,4.136c-4.64,0.749-9.905-0.248-13.261-3.611
		c-2.346-2.355-3.272-5.121-2.778-8.299c0.649-4.178,3.917-7.595,7.631-9.591c3.962-2.129,8.497-3.031,12.891-3.113
		c1.5-0.028,2.761-0.045,3.783-0.05c0.205,0.029,0.394-0.114,0.423-0.319C49.964,315.618,49.947,315.532,49.903,315.459z
		 M343.273,368.521c3.171,1.81,6.004,4.052,8.059,7.093c0.749,1.105,1.533,2.662,1.409,4.007c-0.153,1.696-1.58,2.261-3.078,1.947
		c-2.654-0.551-5.334-2.662-7.336-4.532c-1.588-1.484-3.154-3.085-4.698-4.801c-0.106-0.118-0.288-0.127-0.406-0.021
		c-0.012,0.01-0.022,0.022-0.032,0.034c-0.103,0.132-0.156,0.369-0.129,0.535c0.528,3.253,1.121,6.415,1.287,9.678
		c0.127,2.464,0.05,8.373-2.387,9.583c-1.541,0.765-2.746-0.9-3.303-2.229c-1.285-3.078-1.422-6.553-1.345-10.058
		c0.002-0.083-0.018-0.17-0.061-0.261c-0.079-0.174-0.284-0.25-0.459-0.17c-0.074,0.034-0.133,0.092-0.169,0.165
		c-1.232,2.561-2.833,5.83-5.387,7.236c-2.635,1.451-3.917-0.773-3.83-3.076c0.039-1.022,0.248-2.111,0.628-3.268
		c0.784-2.39,1.874-4.731,3.268-7.022c0.113-0.186,0.15-0.329,0.113-0.427c-0.081-0.216-0.327-0.32-0.55-0.233
		c-0.046,0.018-0.088,0.043-0.126,0.075c-2.983,2.53-6.714,4.738-10.652,4.878c-2.902,0.103-5.951-1.19-7.555-3.659
		c-1.482-2.279-0.723-4.864,1.469-6.294c1.381-0.9,3.008-1.548,4.883-1.944c3.192-0.678,6.547-0.86,9.586-0.958
		c0.184-0.005,0.328-0.157,0.324-0.341c-0.004-0.141-0.096-0.265-0.231-0.308c-4.69-1.538-9.892-3.733-13.329-7.281
		c-1.409-1.456-2.648-3.77-1.783-5.751c0.955-2.184,4.226-1.818,5.993-1.19c1.885,0.67,3.766,1.65,5.642,2.941
		c2.334,1.606,4.365,3.111,6.094,4.516c0.121,0.099,0.258,0.155,0.409,0.169c0.167,0.017,0.316-0.104,0.333-0.271
		c0.008-0.075-0.013-0.151-0.058-0.212c-2.867-3.904-5.49-8.011-6.555-12.672c-0.301-1.322-0.38-3.603,0.794-4.527
		c1.583-1.248,3.677,0.201,4.833,1.483c2.873,3.194,4.78,7.534,6.334,11.665c0.026,0.071,0.071,0.133,0.129,0.179l0.111,0.092
		c0.163,0.134,0.404,0.112,0.539-0.051c0.051-0.062,0.081-0.138,0.087-0.218c0.216-3.399,0.762-6.628,1.638-9.686
		c0.649-2.262,1.552-4.239,2.709-5.933c1.198-1.754,3.603-3.097,4.506-0.111c0.208,0.688,0.296,1.524,0.266,2.509
		c-0.153,4.928-1.789,9.934-3.609,14.727c-0.095,0.251-0.107,0.445-0.037,0.58c0.111,0.212,0.378,0.289,0.597,0.171
		c0.037-0.02,0.071-0.045,0.102-0.073c2.854-2.699,5.948-5.447,9.256-7.246c1.588-0.865,4.875-2.065,6.054-0.095
		c0.76,1.272-0.33,3.408-1.145,4.545c-2.118,2.947-5.363,5.65-8.581,7.573c-0.044,0.026-0.083,0.059-0.116,0.098
		c-0.172,0.197-0.262,0.32-0.269,0.369c-0.04,0.267,0.144,0.515,0.411,0.555c0.055,0.008,0.11,0.007,0.165-0.003
		c2.601-0.503,5.044-0.689,7.328-0.557c1.715,0.099,3.1,0.51,4.155,1.235c1.944,1.335,1.541,3.522-0.367,4.732
		c-3.105,1.973-7.956,1.775-11.718,1.443c-0.196-0.018-0.37,0.125-0.388,0.321C343.08,368.317,343.15,368.452,343.273,368.521z
		 M193.503,32.536c0.96-2.609,3.481-4.082,5.632-3.291s3.116,3.548,2.156,6.156c-0.96,2.609-3.481,4.082-5.632,3.291
		S192.543,35.145,193.503,32.536z M328.686,131.442c-0.475,0.218-0.937,0.178-1.388-0.121c-2.696-1.789-4.905-4.155-6.626-7.099
		c-0.47-0.802-1.234-2.936,0.38-2.91c1.931,0.029,6.447,6.692,7.325,8.156c0.281,0.47,0.471,0.919,0.57,1.348
		C329.008,131.083,328.899,131.344,328.686,131.442z M202.602,25.09c-0.293-0.432-0.329-0.895-0.109-1.389
		c1.321-2.953,3.291-5.521,5.912-7.704c0.714-0.595,2.693-1.701,2.932-0.104c0.289,1.909-5.541,7.46-6.84,8.567
		c-0.417,0.355-0.829,0.616-1.236,0.784C203.01,25.349,202.734,25.284,202.602,25.09z M335.465,121.943
		c0.857,0.042,1.108,1.525,1.15,2.211c0.139,2.158-0.064,4.29-0.609,6.397c-0.215,0.83-0.554,1.234-1.018,1.211
		c-0.464-0.023-0.763-0.457-0.897-1.303c-0.338-2.151-0.332-4.294,0.016-6.429C334.218,123.354,334.611,121.901,335.465,121.943z
		 M332.76,143.575c-3.145-0.594-5.262-3.368-4.727-6.195c0.534-2.827,3.517-4.638,6.662-4.043s5.262,3.368,4.727,6.195
		C338.887,142.359,335.905,144.17,332.76,143.575z M326.111,138.926c0.15,0.583-0.834,1.242-1.3,1.501
		c-1.787,0.994-3.713,1.654-5.78,1.981c-0.939,0.148-3.216,0.425-3.519-0.757c-0.306-1.182,1.823-2.039,2.717-2.361
		c1.968-0.712,3.974-1.064,6.02-1.055C324.782,138.237,325.961,138.34,326.111,138.926z M341.031,147.523
		c0.39,1.008,1.261,3.461,0.773,4.255c-0.341,0.556-0.829,0.61-1.464,0.164c-1.037-0.731-1.744-2.131-2.197-3.297
		c-0.451-1.166-0.873-2.68-0.601-3.917c0.167-0.758,0.564-1.047,1.19-0.868C339.628,144.117,340.641,146.515,341.031,147.523z
		 M185.286,32.832c-1.066-0.177-3.621-0.677-4.056-1.501c-0.305-0.577-0.103-1.024,0.605-1.343c1.157-0.52,2.722-0.415,3.957-0.212
		c1.233,0.205,2.751,0.613,3.678,1.477c0.567,0.53,0.614,1.018,0.141,1.466C188.932,33.358,186.352,33.009,185.286,32.832z
		 M330.147,145.117c0.733,0.206,0.638,1.556,0.591,2.248c-0.179,2.568-0.685,4.906-1.517,7.017c-0.346,0.876-1.25,2.846-2.4,2.522
		c-1.147-0.324-0.889-2.477-0.725-3.403c0.394-2.235,1.186-4.494,2.377-6.777C328.791,146.109,329.417,144.911,330.147,145.117z
		 M121.716,354.511c0.005,1.343-3.559,3.031-4.714,3.588c-3.184,1.533-6.679,3.181-10.114,4.194
		c-0.427,0.127-0.858,0.163-1.293,0.108c-0.086-0.012-0.167-0.05-0.232-0.108c-0.612-0.554,0.116-1.269,0.591-1.657
		c3.035-2.469,6.274-4.441,9.715-5.917C116.572,354.335,121.708,352.483,121.716,354.511z M96.421,363.248
		c0.901-2.219,3.153-3.4,5.029-2.639c1.876,0.762,2.667,3.178,1.766,5.398c-0.901,2.219-3.153,3.4-5.029,2.639
		S95.52,365.467,96.421,363.248z M77.381,375.169c-0.235-0.915,1.469-2.065,2.179-2.49c3.097-1.847,6.366-3.479,9.808-4.899
		c0.57-0.237,3.609-1.651,3.804-0.398c0.051,0.334-0.123,0.662-0.522,0.984c-3.915,3.15-8.035,5.93-12.778,7.275
		c-0.404,0.113-1.271,0.214-1.754,0.14C77.752,375.724,77.462,375.484,77.381,375.169z M112.546,368.326
		c2.094,0.688,4.052,1.506,5.84,2.559c0.23,0.137,0.423,0.295,0.578,0.475c0.409,0.477,0.211,1.134-0.425,1.19
		c-0.584,0.049-1.241-0.009-1.971-0.174c-1.395-0.317-3.026-0.781-4.893-1.393c-1.868-0.612-3.457-1.203-4.769-1.773
		c-0.686-0.299-1.249-0.641-1.691-1.026c-0.48-0.422-0.251-1.068,0.361-1.211c0.232-0.053,0.481-0.066,0.747-0.04
		C108.392,367.142,110.452,367.64,112.546,368.326z M101,391.223c-0.902-0.098-1.121-2.4-1.187-3.289
		c-0.267-3.582-0.451-7.585-0.551-12.008c-0.018-0.736-0.045-2.036,0.306-2.799c0.039-0.083,0.108-0.146,0.193-0.177
		c0.475-0.172,0.813,0.02,1.016,0.578c1.593,4.389,2.254,8.902,1.981,13.538c-0.081,1.366-0.37,2.584-0.868,3.654
		C101.73,391.061,101.372,391.264,101,391.223z"/>
	<path class="st3" d="M398.207,281.615c-0.187,1.691-1.973,3.324-3.363,4.221c-1.975,1.277-4.294,2.253-6.956,2.928
		c-3.838,0.976-7.845,1.53-11.369,1.997c-0.237,0.032-0.385,0.077-0.443,0.137c-0.208,0.217-0.201,0.561,0.016,0.768
		c0.027,0.026,0.056,0.048,0.087,0.068c0.441,0.278,1.947,1.151,4.516,2.619c3.125,1.787,5.925,3.778,8.399,5.975
		c2.915,2.583,6.737,7.787,3.458,11.488c-0.863,0.976-1.976,1.488-3.537,2.398c-1.541,0.897-1.198,2.561-1.359,3.983
		c-0.334,2.983-1.955,4.769-4.862,5.36c-0.487,0.1-1.339,0.099-2.556-0.003c-1.716-0.144-3.619-0.742-5.708-1.794
		c-5.215-2.633-9.539-7.386-12.72-12.348c-0.397-0.621-1.2-1.958-2.408-4.012c-0.028-0.045-0.066-0.083-0.111-0.111l-0.15-0.09
		c-0.167-0.098-0.382-0.041-0.48,0.126c-0.012,0.02-0.022,0.042-0.029,0.064c-2,5.856-4.619,12.374-9.729,16.089
		c-1.082,0.786-2.155,1.296-3.221,1.53c-5.508,1.211-6.819-4.957-7.774-8.879c-0.035-0.146-0.182-0.235-0.328-0.2
		c-0.036,0.009-0.07,0.025-0.099,0.047c-0.431,0.324-1.033,0.781-1.807,1.372c-2.116,1.62-5.231,2.614-6.228-0.892
		c-0.243-0.853-0.357-1.795-0.343-2.825c0.016-1.338,0.171-3.037,0.467-5.096c0.028-0.204,0.018-0.434-0.032-0.688
		c-0.021-0.106-0.123-0.175-0.229-0.154c-0.008,0.002-0.016,0.004-0.024,0.006c-1.778,0.591-3.482,1.232-5.242,0.91
		c-1.475-0.271-2.334-1.072-2.575-2.403c-0.567-3.136,2.569-6.742,4.759-8.592c2.369-2.003,5.103-3.819,8.204-5.447
		c0.413-0.216,2.102-1.066,5.065-2.548c0.164-0.082,0.231-0.282,0.148-0.446c-0.048-0.095-0.138-0.162-0.243-0.179
		c-3.996-0.673-7.563-1.591-10.9-3.677c-4.366-2.73-7.906-7.473-7.639-12.725c0.174-3.482,2.445-5.785,6.025-5.817
		c0.909-0.007,1.951,0.041,3.126,0.145c0.341,0.032,0.668-0.147,0.826-0.451c0.109-0.209,0.171-0.514,0.187-0.913
		c0.103-2.488,0.066-8.059,2.548-9.533c3.255-1.939,6.447,3.735,7.655,5.872c2.778,4.906,5.666,11.652,7.304,14.978
		c0.484,0.983,0.992,1.896,1.525,2.738c0.1,0.159,0.31,0.207,0.469,0.107c0.105-0.066,0.166-0.184,0.159-0.307
		c-0.129-2.356-0.778-5.471-1.694-10.763c-0.622-3.596-0.867-7.064-0.733-10.404c0.135-3.358,2.116-8.507,6.56-6.553
		c0.656,0.288,1.198,0.552,1.625,0.791c1.29,0.723,2.261-0.103,3.667-0.9c2.153-1.219,4.664-1.382,6.418,0.594
		c2.234,2.514,2.506,6.231,2.332,9.494c-0.047,0.89-0.14,1.722-0.277,2.495c-0.739,4.157-1.916,8.288-3.532,12.393
		c-0.069,0.178,0.017,0.378,0.194,0.448c0.069,0.028,0.146,0.031,0.218,0.011c0.049-0.014,0.136-0.091,0.261-0.229
		c3.324-3.686,7.168-6.72,11.533-9.103c2.137-1.166,4.353-1.946,6.648-2.34c4.54-0.776,8.043,1.694,6.471,6.555
		c-0.802,2.474-2.018,4.345-3.503,6.919c-0.145,0.251-0.066,0.572,0.179,0.731c0.204,0.132,0.503,0.177,0.897,0.135
		c1.998-0.215,3.646-0.287,4.943-0.216C395.253,277.597,398.534,278.626,398.207,281.615z M115.149,167.847
		c0.338,0.345,0.399,0.713,0.185,1.105c-0.047,0.088-0.126,0.156-0.222,0.19c-0.573,0.195-1.121,0.262-1.643,0.2
		c-3.16-0.38-5.479-2.846-6.117-5.912c-0.849-4.068,0.348-8.191,2.593-11.762c3.464-5.519,8.782-9.644,14.456-12.491
		c0.15-0.077,0.239-0.237,0.224-0.406c-0.216-2.335-0.285-4.447-0.343-6.626c-0.195-7.444,0.26-15.429,1.366-23.955
		c1.883-14.509,5.701-28.846,12.448-41.719c3.408-6.502,7.7-12.578,13.372-17.228c5.35-4.389,13.066-6.975,18.969-1.781
		c4.513,3.97,5.761,10.805,5.616,16.537c-0.053,2.042-0.246,4.153-0.58,6.334c-0.716,4.66-1.886,9.297-3.511,13.91
		c-3.253,9.233-7.664,18.188-13.232,26.867c-4.263,6.646-8.768,12.638-13.514,17.977c-0.064,0.07-0.105,0.159-0.119,0.253
		c-0.691,4.729-0.972,10.206-0.842,16.431c0.104,4.896,0.725,9.84,1.865,14.833c0.76,3.327,1.839,6.424,3.237,9.291
		c1.089,2.229,2.596,4.553,4.798,5.759c2.609,1.427,5.495,0.541,7.616-1.372c1.572-1.416,2.91-3.133,4.015-5.152
		c1.646-3.005,2.947-6.208,3.901-9.607c0.029-0.107,0.031-0.22,0.005-0.327c-1.057-4.235-1.728-8.599-2.013-13.092
		c-0.2-3.157-0.047-6.304,0.462-9.441c0.988-6.12,3.301-11.677,6.938-16.672c0.054-0.075,0.08-0.167,0.071-0.259
		c-0.04-0.522-0.064-0.988-0.071-1.398c-0.063-3.818,1.288-6.924,4.054-9.32c1.825-1.581,4.018-2.593,6.579-3.036
		c4.078-0.709,7.827,0.054,11.245,2.287c4.178,2.733,6.761,7.394,8.104,12.261c0.093,0.336,0.319,0.492,0.678,0.467
		c0.08-0.005,0.157-0.031,0.224-0.074c2.587-1.706,5.016-3.683,7.289-5.933c0.06-0.058,0.096-0.136,0.103-0.219
		c0.203-2.619-0.193-7.803,2.656-9.481c0.623-0.368,1.313-0.648,2.071-0.842c1.883-0.478,3.425-0.73,4.624-0.754
		c1.066-0.021,1.868,0.112,2.406,0.398c1.659,0.886,2.514,2.809,3.089,4.585c0.929,2.868,1.689,6.327,2.282,10.375
		c0.549,3.758,0.91,6.6,1.084,8.526c0.03,0.32,0.636,6.495,1.818,18.526c0.229,2.316,0.532,4.426,0.91,6.331
		c0.091,0.455,0.263,0.85,0.514,1.184c0.138,0.182,0.396,0.222,0.58,0.09c0.588-0.422,1.005-2.406,1.206-3.321
		c1.145-5.167,2.184-9.579,3.118-13.237c2.39-9.37,5.523-18.414,9.399-27.131c3.888-8.75,8.739-17.355,14.896-24.667
		c0.952-1.132,4.115-4.78,5.518-4.405c0.301,0.081,0.488,0.382,0.427,0.688c-0.167,0.855-0.493,1.833-0.979,2.936
		c-1.264,2.865-3.78,7.315-5.178,10.206c-2.947,6.108-5.577,12.49-7.887,19.146c-0.031,0.09-0.042,0.186-0.032,0.28
		c0.464,4.189,2.337,8.407,5.719,10.99c0.322,0.244,0.665,0.387,1.029,0.427c0.276,0.029,0.536-0.133,0.63-0.393
		c3.748-10.293,12.802-24.82,25.822-23.258c4.569,0.549,8.462,3.366,10.536,7.355c2.651,5.102,1.688,11.256-0.886,16.286
		c-2.443,4.775-6.043,8.407-10.802,10.897c-3.865,2.022-7.933,3.194-12.203,3.514c-0.218,0.016-0.405,0.163-0.472,0.372
		c-0.127,0.39-0.19,0.756-0.19,1.097c-0.005,3.285,0.581,6.542,1.759,9.771c1.778,4.87,5.843,8.064,11.14,6.273
		c3.332-1.126,6.009-3.701,8.288-6.31c1.101-1.259,2.256-2.477,3.466-3.654c0.936-0.913,2.619-1.707,3.421-0.063
		c0.244,0.501,0.426,1.282,0.546,2.342c0.077,0.695,0.061,1.5-0.05,2.416c-0.338,2.791-1.27,5.427-2.796,7.908
		c-3.622,5.888-9.518,9.892-16.434,10.689c-5.635,0.646-11.251-1.374-15.295-5.302c-6.679-6.487-9.122-17.423-8.705-26.316
		c0.063-1.322,0.122-2.238,0.177-2.746c0.008-0.079-0.026-0.157-0.09-0.206c-1.611-1.224-2.844-2.334-3.698-3.329
		c-1.748-2.037-3.265-4.333-4.55-6.89c-0.049-0.098-0.16-0.149-0.266-0.121c-0.266,0.067-0.448,0.229-0.549,0.488
		c-0.255,0.663-1.019,3.099-2.292,7.307c-0.7,2.313-1.313,4.79-1.839,7.431c-1.62,8.117-3.548,17.977-5.579,26.339
		c-0.915,3.767-4.709,19.299-11.578,15.181c-3.107-1.865-5.199-5.832-6.592-9.238c-2.614-6.392-4.292-13.055-5.492-19.972
		c-1.145-6.593-2.029-13.378-2.651-20.354c-0.255-2.882-0.393-5.657-0.414-8.325c-0.002-0.362-0.035-0.661-0.1-0.897
		c-0.049-0.18-0.234-0.286-0.414-0.237c-0.054,0.015-0.104,0.043-0.145,0.082c-2.453,2.344-5.003,4.399-7.65,6.165
		c-0.072,0.048-0.114,0.129-0.111,0.214c0.062,2.859,0.059,5.038-0.008,6.537c-0.135,2.997-0.482,6.361-1.039,10.093
		c-0.652,4.372-1.628,8.426-2.925,12.163c-2.076,5.983-5.967,13.018-12.778,14.398c-2.437,0.492-4.729,0.308-6.874-0.554
		c-1.998-0.804-3.709-1.862-5.133-3.176c-0.549-0.506-1.529-1.477-2.941-2.912c-0.747-0.76-1.332,0.095-1.672,0.702
		c-0.239,0.427-0.821,1.645-1.746,3.653c-2.246,4.873-5.059,9.287-8.439,13.242c-0.587,0.689-1.484,1.535-2.691,2.538
		c-3.218,2.677-7.254,4.028-11.354,2.862c-8.486-2.416-14.3-12.327-17.466-19.924c-2.8-6.72-4.72-13.743-5.761-21.069
		c-0.044-0.309-0.204-0.558-0.48-0.747c-0.071-0.048-0.165-0.043-0.232,0.011c-2.691,2.191-5.031,4.404-7.022,6.64
		c-0.767,0.858-1.512,1.895-2.237,3.11c-1.451,2.432-2.039,5.027-1.765,7.784C114.092,166.373,114.474,167.16,115.149,167.847z
		 M277.336,129.553c2.728-0.362,5.322-1.007,7.782-1.934c3.076-1.155,5.695-2.807,6.972-5.872c0.981-2.361,0.897-5.619-1.337-7.178
		c-1.535-1.071-3.448-0.675-4.93,0.116c-4.709,2.519-7.782,8.684-9.109,13.696C276.584,128.864,276.674,129.642,277.336,129.553z
		 M186.175,119.278c1.58,3.796,5.65,5.381,9.628,5.139c0.209-0.013,0.368-0.194,0.355-0.403c-0.002-0.028-0.007-0.055-0.014-0.082
		c-0.997-3.382-3.226-7.136-6.727-8.323c-1.029-0.35-1.974-0.234-2.836,0.348c-0.077,0.052-0.142,0.12-0.193,0.2
		C185.782,117.126,185.711,118.167,186.175,119.278z M181.316,150.258c0.273,1.966,0.763,3.709,1.472,5.228
		c0.547,1.175,1.098,2.012,1.654,2.511c1.657,1.488,3.374,1.598,5.152,0.33c1.671-1.191,3.024-2.839,4.06-4.946
		c1.504-3.053,2.574-6.277,3.21-9.673c0.536-2.849,0.815-5.655,0.836-8.418c0.007-0.848-0.419-1.201-1.279-1.06
		c-4.3,0.702-8.43-0.046-12.39-2.242c-0.073-0.041-0.158-0.051-0.237-0.029c-0.411,0.111-0.677,0.332-0.797,0.662
		c-0.927,2.539-1.532,5.144-1.815,7.814C180.828,143.772,180.873,147.046,181.316,150.258z M145.251,114.403
		c-0.015,0.45,0.303,0.828,0.711,0.844c0.014,0,0.027,0.001,0.041,0c0.206-0.004,0.46-0.165,0.762-0.485
		c0.031-0.035,0.057-0.075,0.077-0.119c1.161-2.518,1.926-4.147,2.295-4.885c4.608-9.256,9.222-18.547,13.277-28.402
		c1.542-3.746,2.727-7.399,3.553-10.961c0.297-1.279,0.451-2.749,0.462-4.411c0.007-0.837-0.121-1.621-0.383-2.353
		c-1.361-3.799-5.104-0.81-6.566,0.884c-1.89,2.193-3.528,4.73-4.912,7.61c-3.959,8.236-6.463,17.136-7.835,26.173
		C145.924,103.627,145.43,108.995,145.251,114.403z M325.401,250.538c-2.485,4.83-5.817,8.789-10.665,11.079
		c-2.478,1.171-5.109,1.701-7.893,1.588c-9.238-0.375-14.137-8.135-15.703-16.342c-0.642-3.369-0.922-6.862-0.839-10.478
		c0.09-3.917,0.572-7.982,1.343-11.657c1.375-6.556,3.388-12.88,6.038-18.972c0.095-0.216-0.004-0.468-0.22-0.563
		c-0.051-0.023-0.107-0.035-0.163-0.036c-1.669-0.032-3.086-0.055-4.25-0.071c-1.273-0.016-2.283-0.078-3.028-0.187
		c-0.084-0.013-0.167,0.018-0.222,0.082c-0.306,0.364-0.469,0.617-0.488,0.76c-1.208,9.006-3.273,17.754-6.194,26.245
		c-1.671,4.859-3.691,9.324-6.062,13.395c-2.989,5.133-9.064,12.403-15.914,9.452c-7.906-3.406-10.462-14.253-10.887-22.087
		c-0.091-1.687-0.158-3.293-0.2-4.819c-0.006-0.207-0.177-0.37-0.383-0.365c-0.055,0.001-0.109,0.015-0.158,0.04
		c-0.109,0.056-0.215,0.218-0.317,0.485c-1.312,3.461-2.888,6.651-4.727,9.57c-2.087,3.316-5.12,6.584-8.969,7.631
		c-6.861,1.862-10.694-6.32-12.105-11.462c-0.816-2.977-1.32-6.08-1.512-9.309c-0.357-6.076,0.138-12.082,1.485-18.017
		c0.037-0.165-0.066-0.329-0.231-0.366c-0.08-0.018-0.164-0.003-0.233,0.041c-1.285,0.831-2.78,1.485-4.345,1.609
		c-0.691,0.055-1.298,0.114-1.82,0.179c-0.623,0.079-0.902,0.314-0.944,0.971c-0.108,1.709-0.05,3.614-0.185,5.384
		c-0.694,9.167-4.376,22.617-14.983,25.139c-2.114,0.503-4.251,0.489-6.41-0.042c-8.325-2.044-12.601-9.921-13.195-17.948
		c-0.102-1.388-0.164-2.881-0.185-4.482c-0.001-0.112-0.092-0.202-0.203-0.201c-0.004,0-0.007,0-0.011,0
		c-0.135,0.011-0.23,0.061-0.282,0.15c-3.126,5.255-7.507,9.847-11.942,14.123c-0.248,0.238-0.391,0.566-0.396,0.91
		c-0.054,3.03-0.122,5.614-0.203,7.753c-0.546,14.503-2.823,29.336-9.328,42.394c-3.822,7.676-9.565,15.136-18.283,17.379
		c-5.835,1.501-12.707,0.981-17.732-2.511c-3.894-2.704-6.088-7.331-6.553-11.989c-0.103-1.031-0.245-2.345-0.171-3.442
		c0.302-4.569,1.49-8.742,3.564-12.52c2.432-4.432,5.503-8.544,9.212-12.337c2.882-2.947,5.593-5.489,8.133-7.624
		c7.405-6.223,12.301-10.319,18.312-15.914c0.359-0.335,0.496-0.673,0.536-1.192c0.331-4.52,0.558-8.006,0.683-10.459
		c0.004-0.074-0.019-0.18-0.069-0.319c-0.036-0.103-0.148-0.158-0.251-0.123c-0.051,0.018-0.093,0.055-0.115,0.104
		c-2.625,5.59-5.927,10.813-10.436,14.931c-2.245,2.052-5.474,4.102-8.484,4.226c-1.98,0.079-3.792-0.565-5.434-1.931
		c-4.305-3.582-6.204-9.657-7.109-14.991c-1.108-6.516-1.271-13.113-0.955-19.855c0.211-4.509,0.571-8.932,1.079-13.269
		c0.137-1.184,0.388-2.419,1.469-3.076c1.49-0.907,3.026-1.285,4.608-1.132c2.873,0.277,4.326,2.907,4.754,5.637
		c0.295,1.889,0.41,4.032,0.343,6.431c-0.103,3.733-0.161,7.072-0.28,10.538c-0.081,2.357-0.022,4.824,0.177,7.402
		c0.216,2.796,1.235,10.771,6.022,8.887c2.052-0.807,3.775-2.765,5.041-4.645c1.806-2.675,3.435-5.729,4.885-9.161
		c2.202-5.213,4.077-10.656,5.627-16.331c0.072-0.266,0.23-0.73,0.472-1.393c0.791-2.155,1.997-2.78,4.302-3.158
		c0.522-0.086,1.492-0.208,2.91-0.364c1.584-0.176,2.493,0.527,2.725,2.108c0.167,1.143,0.26,2.282,0.28,3.416
		c0.09,5.105,0.135,10.572,0.137,16.4c0,2.445,0.095,4.5,0.137,6.94c0.004,0.24,0.199,0.433,0.437,0.43
		c0.037,0,0.074-0.006,0.109-0.016c0.137-0.039,0.268-0.128,0.393-0.266c4.79-5.279,8.852-11.076,12.184-17.389
		c0.043-0.081,0.065-0.173,0.063-0.266c-0.06-2.146,0.333-4.07,1.179-5.774c2.137-4.302,6.79-7.048,11.536-7.853
		c4.863-0.825,9.298,0.026,13.306,2.551c3.239,2.04,5.555,4.976,6.948,8.808c0.005,0.012,0.295,0.888,0.868,2.627
		c0.211,0.637,0.645,0.79,1.303,0.459c0.76-0.383,1.901-1.157,3.424-2.321c3.012-2.302,5.777-4.876,8.294-7.721
		c0.762-0.863,2.063-2.129,3.26-2.226c0.909-0.074,1.832-0.055,2.77,0.055c1.633,0.193,2.53,0.936,2.765,2.53
		c0.127,0.855,0.164,1.734,0.113,2.638c-0.098,1.743-0.31,3.653-0.633,5.73c-1.05,6.729-1.841,11.567-2.279,17.284
		c-0.186,2.43-0.224,4.783-0.113,7.056c0.055,1.132,0.517,7.898,3.184,6.342c0.48-0.28,0.79-0.506,0.929-0.678
		c2.688-3.313,4.363-7.771,5.682-11.652c2.522-7.428,4.376-14.237,6.698-22.828c0.025-0.09,0.253-0.701,0.686-1.833
		c0.781-2.044,2.482-2.87,4.545-3.11c1.804-0.211,3.473-0.339,5.007-0.385c0.253-0.009,0.576,0.056,0.968,0.195
		c0.776,0.272,1.026,1.319,1.053,2.036c0.05,1.382,0.047,3.039-0.1,4.566c-0.195,2.021-0.453,4.552-0.773,7.595
		c-0.457,4.374-0.808,8.68-1.053,12.92c-0.164,2.852-0.22,5.745-0.169,8.679c0.044,2.443,0.245,4.838,0.604,7.186
		c0.372,2.419,1.928,10.037,5.336,10.021c1.599-0.008,3.031-1.643,3.846-2.881c2.213-3.35,3.909-7.199,5.297-10.85
		c3.22-8.464,5.591-17.096,7.114-25.896c0.044-0.26-0.038-0.571-0.245-0.931c-0.044-0.076-0.116-0.132-0.2-0.156
		c-2.714-0.74-5.236-1.85-7.568-3.329c-6.154-3.899-9.496-10.842-6.642-17.927c1.957-4.862,6.877-8.259,12.216-6.186
		c6.397,2.485,8.708,9.444,9.296,15.717c0.132,1.396,0.193,2.733,0.182,4.01c0,0.075,0.057,0.137,0.132,0.142
		c3.382,0.282,6.109,0.037,10.259-0.274c1.593-0.119,3.226-0.09,4.601-0.074c0.049,0,0.099,0.004,0.148,0.011
		c0.304,0.04,0.683,0.111,1.137,0.211c4.318,0.963,3.767,5.096,2.783,8.349c-1.583,5.242-2.794,10.562-3.835,16.073
		c-0.958,5.072-1.423,10.147-1.393,15.226c0.029,4.566,0.52,9.28,1.723,13.577c0.963,3.45,3.176,7.526,7.558,6.136
		c3.614-1.145,5.511-5.078,6.611-8.515c1.453-4.545,2.234-9.035,3.1-13.97c0.401-2.286,0.954-4.435,1.659-6.447
		c0.088-0.248,0.301-0.633,0.638-1.155c1.245-1.934,2.983-0.733,3.791,0.736c1.551,2.833,1.646,6.268,1.329,9.349
		C329.521,240.411,327.965,245.554,325.401,250.538z M154.172,244.916c0.035-0.277-0.161-0.531-0.438-0.567
		c-0.057-0.007-0.115-0.005-0.171,0.007c-0.141,0.03-0.296,0.118-0.467,0.264c-3.34,2.861-6.88,6.092-10.62,9.692
		c-2.589,2.49-4.985,4.972-7.188,7.447c-3.477,3.901-6.626,8.309-8.549,13.139c-1.129,2.837-1.603,5.669-1.422,8.497
		c0.179,2.775,1.599,5.988,4.334,6.983c4.194,1.525,9.19-2.366,11.725-5.318c3.857-4.492,6.273-10.159,8.038-15.833
		c1.507-4.845,2.681-10.029,3.522-15.553C153.403,250.611,153.815,247.691,154.172,244.916z M207.128,216.456
		c0.013-0.443-0.084-1.047-0.142-1.498c-0.065-0.491-0.307-0.797-0.725-0.918c-0.079-0.024-0.164-0.026-0.245-0.005
		c-1.674,0.417-2.699,0.654-3.073,0.712c-2,0.306-4.033-0.057-6.099-1.089c-0.048-0.024-0.103-0.036-0.158-0.034
		c-0.406,0.019-0.637,0.2-0.694,0.543c-0.47,2.9-0.436,5.788,0.1,8.663c0.315,1.685,0.912,3.091,1.791,4.218
		c1.142,1.461,2.952,2.084,4.63,1.108c1.823-1.06,2.991-3.408,3.601-5.371C206.731,220.792,207.07,218.682,207.128,216.456z
		 M207.128,205.076c-1.053-4.165-4.403-8.763-8.927-9.404c-3.276-0.462-5.727,2.364-5.017,5.474c0.667,2.928,3.59,4.648,6.421,5.112
		c2.286,0.376,4.589,0.288,6.909-0.264c0.08-0.019,0.154-0.058,0.216-0.113C207.058,205.596,207.191,205.327,207.128,205.076z
		 M283.793,189.781c-0.15-2.139-1.029-7.368-4.002-7.384c-2.047-0.011-2.957,2.501-2.815,4.2c0.317,3.751,3.129,6.502,6.473,7.8
		c0.154,0.059,0.326-0.018,0.385-0.172c0.004-0.011,0.008-0.022,0.011-0.034c0.063-0.246,0.098-0.579,0.106-1
		C283.962,192.573,283.909,191.436,283.793,189.781z M318.208,317.079c-1.196,1.3-2.572,2.518-4.128,3.656
		c-7.742,5.656-15.548,9.892-24.627,11.968c-1.885,0.431-3.188,0.752-3.909,0.963c-0.259,0.076-0.418,0.145-0.478,0.208
		c-0.201,0.204-0.203,0.531-0.003,0.736c2.983,3.034,5.592,6.419,7.829,10.156c6.429,10.739,9.916,23.382,9.792,35.981
		c-0.021,2.244-0.264,4.573-0.728,6.988c-0.789,4.115-2.867,9.425-7.895,9.388c-3.667-0.026-7.27-2.881-9.61-5.471
		c-4.627-5.123-7.935-11.704-10.301-18.257c-2.24-6.201-3.883-12.603-4.928-19.207c-0.004-0.032-0.033-0.054-0.065-0.05
		c-0.02,0.003-0.038,0.016-0.046,0.034c-2.683,5.632-5.98,11.077-10.298,15.487c-2.002,2.044-4.622,3.891-7.473,4.632
		c-3.556,0.923-7.138-0.15-9.895-2.511c-2.091-1.794-3.864-3.977-5.318-6.55c-1.905-3.373-3.406-6.964-4.506-10.773
		c-1.381-4.787-2.36-9.711-2.939-14.772c-0.005-0.042-0.044-0.072-0.085-0.066c-0.019,0.002-0.037,0.012-0.049,0.027
		c-2.093,2.51-4.372,4.85-6.837,7.022c-2.675,2.353-5.724,4.355-9.156,5.484c-3.894,1.279-7.845,1.512-11.781,0.29
		c-9.454-2.931-13.496-13.335-14.709-22.209c-0.008-0.055-0.058-0.093-0.113-0.085c-0.005,0.001-0.011,0.002-0.016,0.004
		c-3.449,1.025-7.069,1.863-10.86,2.514c-0.057,0.011-0.096,0.065-0.086,0.121c0.002,0.009,0.005,0.019,0.009,0.027
		c1.891,3.874,3.196,7.93,3.917,12.169c0.995,5.847,1.049,11.744,0.161,17.69c-0.431,2.893-1.21,5.676-2.337,8.349
		c-2.029,4.81-5.191,8.834-9.486,12.074c-3.872,2.92-8.518,5.036-13.406,5.65c-9.438,1.192-16.714-4.748-20.285-13.1
		c-4.36-10.195-3.909-22.417,2.382-31.713c2.166-3.202,6.178-7.078,10.37-6.658c1.364,0.137,4.126,0.612,3.883,2.585
		c-0.077,0.642-0.39,1.403-0.939,2.284c-3.627,5.811-7.143,11.617-7.99,18.452c-0.512,4.12,0.303,8.294,3.514,11.058
		c3.611,3.11,8.834,3.147,12.786,0.623c4.814-3.07,7.304-9.019,7.779-14.569c0.082-0.968,0.211-2.279,0.161-3.4
		c-0.176-3.901-0.895-7.712-2.158-11.433c-2.124-6.249-3.812-9.528-7.61-18.104c-0.716-1.62-1.545-3.826-2.488-6.619
		c-1.199-3.556-1.961-7.018-2.284-10.385c-0.211-2.207-0.167-4.325,0.132-6.355c0.965-6.545,5.157-11.739,11.683-13.103
		c6.534-1.366,13.812,2.464,15.917,8.945c0.705,2.172,0.939,4.159,0.702,5.962c-0.072,0.554-0.18,0.973-0.324,1.256
		c-0.884,1.733-2.58,0.791-3.503-0.28c-1.282-1.49-2.007-3.25-3.01-4.988c-1.308-2.274-3.413-3.635-6.088-2.96
		c-2.899,0.736-4.545,3.701-4.87,6.682c-0.287,2.617,0.028,5.235,0.944,7.853c1.101,3.151,2.637,6.207,4.608,9.167
		c1.72,2.582,3.292,4.978,4.717,7.188c0.104,0.16,0.299,0.235,0.483,0.185l12.968-3.524c0.054-0.016,0.091-0.066,0.09-0.124
		c-0.243-8.536,1.926-16.967,7.534-23.562c3.279-3.857,7.734-6.919,12.651-7.969c2.318-0.494,4.467-0.486,6.447,0.024
		c4.711,1.216,7.732,5.331,8.383,10.09c0.62,4.513-1.1,8.8-4.263,12.103c-4.714,4.925-11.129,8.497-17.566,11.127
		c-0.076,0.032-0.124,0.108-0.121,0.19c0.141,2.817,0.629,5.497,1.464,8.04c1.691,5.141,5.526,9.483,11.438,8.154
		c1.767-0.396,3.504-1.192,5.21-2.39c4.411-3.093,8.084-6.932,11.021-11.514c0.096-0.149,0.145-0.324,0.14-0.501
		c-0.259-9.343,0.239-18.643,1.493-27.898c1.24-9.148,3.406-18.394,6.909-27.075c1.565-3.874,3.467-7.444,5.706-10.71
		c1.449-2.114,3.145-3.959,5.089-5.534c0.719-0.584,1.578-1.086,2.577-1.506c2.789-1.177,5.302-0.82,7.539,1.068
		c3.545,2.994,4.907,8.626,5.044,13.097c0.098,3.215-0.057,6.271-0.467,9.169c-0.626,4.43-1.725,9.016-3.297,13.759
		c-4.196,12.667-10.252,24.456-18.167,35.366c-0.046,0.063-0.07,0.141-0.069,0.222c0.118,5.093,0.632,10.119,1.543,15.078
		c0.95,5.181,2.532,10.554,5.194,15.131c0.531,0.911,1.258,1.833,2.182,2.767c2.361,2.387,5.215,2.05,7.631-0.011
		c2.044-1.741,3.722-4.276,5.054-6.827c2.244-4.303,4.161-8.855,5.751-13.654c0.021-0.065,0.031-0.132,0.029-0.198
		c-0.056-1.697-0.117-3.45-0.182-5.257c-0.091-2.517-0.105-4.922-0.04-7.217c0.001-0.041-0.031-0.075-0.07-0.076
		c-0.009,0-0.019,0.001-0.028,0.005c-1.395,0.524-2.753,1.002-4.076,1.432c-1.079,0.351-2.026,0.699-3.002,0.261
		c-0.575-0.257-0.862-0.741-0.86-1.453c0.005-1.944,2.791-3.901,4.411-4.669c0.514-0.243,1.766-0.84,3.756-1.791
		c0.152-0.072,0.253-0.221,0.266-0.39c0.505-6.799,1.624-13.528,3.358-20.188c2.234-8.586,5.751-17.291,10.829-24.635
		c2.683-3.883,6.537-7.877,11.106-9.212c3.851-1.124,7.689,0.446,10.304,3.332c3.245,3.582,4.837,7.688,4.777,12.316
		c-0.095,7.006-3.735,14.063-8.109,19.747c-5.32,6.91-11.634,12.816-18.943,17.719c-0.07,0.047-0.117,0.122-0.129,0.206
		c-0.239,1.78-0.32,3.449-0.243,5.007c0.04,0.821,0.49,1.172,1.348,1.053c2.596-0.362,5.232-0.944,7.908-1.744
		c5.487-1.641,11.024-3.773,16.611-6.397c4.78-2.246,7.338-3.447,7.674-3.603c1.132-0.525,3.379-1.453,4.519-0.501
		C319.864,314.644,319.081,316.132,318.208,317.079z M281.651,312.333c-0.004,0.023,0.012,0.045,0.034,0.049
		c0.012,0.002,0.025-0.001,0.034-0.009c4.527-3.403,8.411-7.387,11.652-11.952c3.424-4.822,6.257-10.565,7.025-16.384
		c0.301-2.29,0.203-5.244-1.306-7.038c-2.121-2.522-5.347-0.422-7.014,1.493c-2.862,3.287-4.69,7.441-6.07,11.657
		c-1.507,4.595-2.663,9.622-3.466,15.081C282.25,307.208,281.954,309.576,281.651,312.333z M240.271,314.174
		c-0.002,0.027,0.018,0.049,0.045,0.05c0.019,0.001,0.038-0.01,0.047-0.026c4.491-8.76,8.45-17.809,11.876-27.149
		c1.131-3.083,2.197-6.456,3.197-10.119c0.572-2.094,0.983-4.148,1.235-6.162c0.16-1.271,0.176-2.464,0.048-3.577
		c-0.158-1.351-0.834-3.448-2.72-2.625c-2.546,1.111-4.648,5.418-5.642,7.85c-1.63,3.997-2.965,8.294-4.004,12.889
		C242.225,294.719,240.865,304.342,240.271,314.174z M198.631,318.867c-0.002,0.022,0.014,0.041,0.036,0.043
		c0.007,0.001,0.013-0.001,0.019-0.003c3.378-1.447,6.546-3.202,9.504-5.265c1.314-0.916,2.518-1.999,3.614-3.247
		c0.9-1.025,1.45-2.173,1.649-3.442c0.012-0.082,0.013-0.167,0.003-0.251c-0.155-1.162-0.68-1.978-1.575-2.448
		c-1.804-0.947-4.218-0.303-5.888,0.731C201.433,307.807,199.209,313.568,198.631,318.867z M280.831,341.941
		c-0.021-0.026-0.059-0.031-0.085-0.01c-0.014,0.011-0.023,0.028-0.023,0.047c-0.042,1.099-0.046,2.085-0.011,2.957
		c0.229,5.661,0.831,11.719,1.807,18.175c0.857,5.666,2.422,11.427,4.97,16.463c1.026,2.029,2.836,4.611,4.946,5.482
		c2.804,1.158,3.746-2.337,3.888-4.379c0.149-2.114,0.049-4.266-0.301-6.455C294.145,362.475,288.378,351.168,280.831,341.941z
		 M81.872,152.12c-5.036,0.343-9.562,2.68-13.604,5.716c-0.023,0.018-0.048,0.033-0.074,0.046c-0.219,0.11-0.475,0.035-0.572-0.167
		c-0.025-0.053-0.035-0.146-0.032-0.28c0.003-0.08,0.024-0.157,0.061-0.227c2.538-4.883,4.722-10.76,4.564-16.17
		c-0.111-3.801-2.142-7.5-6.342-7.473c-2.205,0.016-4.511,1.272-6.181,2.688c-4.999,4.247-7.658,11.475-8.336,17.861
		c-0.003,0.025-0.018,0.046-0.041,0.056c-0.033,0.014-0.07-0.002-0.083-0.035c-1.696-3.812-3.524-7.341-6.233-10.38
		c-2.564-2.881-6.196-4.98-10.024-4.585c-5.624,0.586-7.5,6.323-6.481,11.195c0.512,2.446,1.404,4.784,2.677,7.014
		c1.479,2.589,3.262,5.004,5.35,7.246c0.063,0.07,0.08,0.171,0.044,0.259c-0.052,0.125-0.196,0.184-0.321,0.132
		c-5.373-2.364-10.95-2.2-15.656,1.364c-1.65,1.25-2.927,2.763-3.833,4.537c-1.604,3.139-1.672,6.895,0.493,9.702
		c4.16,5.384,11.807,5.893,18.067,6.41c0.099,0.008,0.186,0.07,0.228,0.16c0.064,0.139,0.003,0.303-0.136,0.367
		c-5.922,2.725-12.944,6.334-15.82,12.57c-1.124,2.437-1.34,4.888-0.649,7.352c1.765,6.305,8.505,8.655,13.894,4.98
		c0.283-0.193,0.83-0.572,1.641-1.134c0.015-0.01,0.031-0.018,0.048-0.024c0.098-0.032,0.204,0.021,0.237,0.119
		c0.781,2.335,1.467,4.395,3.187,6.175c1.504,1.558,3.226,2.159,5.168,1.802c4.345-0.799,6.774-6.547,7.734-10.29
		c0.29-1.136,0.572-2.368,0.844-3.696c0.004-0.017,0.017-0.032,0.034-0.037c0.025-0.007,0.05,0.007,0.055,0.031
		c0.902,2.954,1.831,5.54,3.659,8.03c1.923,2.619,5.207,4.608,8.412,4.31c3.231-0.301,5.387-2.01,6.471-5.128
		c0.23-0.663,0.363-1.315,0.398-1.955c0.149-2.691-0.389-5.3-1.614-7.827c-0.002-0.004-0.004-0.008-0.006-0.013
		c-0.084-0.192,0.002-0.416,0.193-0.499c0.005-0.004,0.026-0.009,0.063-0.016c0.04-0.01,0.082-0.009,0.121,0.003
		c0.61,0.183,1.122,0.322,1.535,0.417c3.377,0.776,7.415,0.47,9.544-2.445c1.027-1.409,1.519-3.074,1.475-4.996
		c-0.148-6.384-5.584-11.77-10.254-15.614c-0.072-0.061-0.115-0.149-0.117-0.244c-0.004-0.181,0.139-0.33,0.32-0.334
		c8.357-0.121,17.41-3.334,20.974-11.557c0.503-1.157,0.823-2.315,0.96-3.474C94.816,156.467,89.053,151.627,81.872,152.12z
		 M395.168,176.871c-1.648-1.036-3.631-1.941-5.951-2.717c-0.327-0.111-0.667-0.404-0.462-0.773
		c0.047-0.086,0.127-0.151,0.222-0.179c3.611-1.116,7.742-3.445,8.9-7.191c0.447-1.446,0.354-2.744-0.277-3.896
		c-1.852-3.374-5.582-3.379-8.679-1.567c-1.676,0.98-3.262,2.189-4.759,3.63c-0.03,0.029-0.066,0.053-0.104,0.069
		c-0.178,0.077-0.385-0.006-0.463-0.185c-0.069-0.158-0.132-0.472-0.111-0.649c0.564-4.769,0.475-10.124-1.854-14.29
		c-1.38-2.466-3.751-4.413-6.677-3.195c-2.87,1.198-4.115,5.044-4.424,7.829c-0.346,3.111-0.173,6.21,0.52,9.296
		c0.01,0.041,0.007,0.084-0.007,0.123c-0.041,0.115-0.169,0.176-0.286,0.135l-0.137-0.05c-0.063-0.022-0.118-0.065-0.156-0.121
		c-2.809-4.403-7.138-11.607-13.525-10.172c-2.989,0.673-5.102,3.221-5.144,6.299c-0.053,3.933,2.612,7.761,5.592,10.232
		c2.356,1.952,5.421,3.685,7.766,5.149c0.022,0.014,0.043,0.03,0.062,0.049c0.133,0.133,0.132,0.349-0.001,0.481l-0.061,0.061
		c-0.053,0.053-0.122,0.087-0.195,0.098c-5.073,0.688-11.235,2.044-13.662,7.183c-1.815,3.843-0.127,8.243,4.376,8.879
		c3.759,0.53,7.465-1.802,10.396-3.925c0.211-0.153,0.498-0.31,0.86-0.472c0.021-0.009,0.042-0.016,0.065-0.019
		c0.137-0.021,0.265,0.072,0.286,0.209c0.019,0.123,0.015,0.247-0.013,0.372c-1.026,4.598-1.308,9.591,0.565,13.838
		c1.327,3.005,4.031,5.405,7.42,4.991c4.247-0.52,6.898-4.287,7.777-8.259c0.723-3.276,0.361-6.495-0.116-9.866
		c-0.009-0.065,0.001-0.131,0.028-0.19c0.079-0.171,0.281-0.245,0.452-0.166c0.47,0.216,0.906,0.459,1.308,0.728
		c3.965,2.654,10.486,3.714,13.762-0.768C401.391,183.87,398.88,179.203,395.168,176.871z M225,376.018
		c-0.943,0.269-1.85,0.564-2.722,0.884c-0.051,0.019-0.106,0.029-0.16,0.03c-0.272,0.005-0.497-0.21-0.502-0.481
		c-0.098-4.912-1.781-9.787-5.666-12.878c-3.123-2.485-6.998-3.289-10.691-1.707c-4.619,1.976-6.558,6.661-6.872,11.398
		c-0.07,1.052-0.076,2.47-0.016,4.255c0.009,0.273-0.008,0.484-0.05,0.633c-0.002,0.006-0.003,0.012-0.005,0.017
		c-0.071,0.213-0.3,0.328-0.512,0.257c-3.543-1.184-7.275-1.931-10.855-0.712c-6.336,2.158-9.655,10.045-3.527,14.738
		c1.38,1.058,2.894,1.564,4.627,2.174c0.267,0.094,0.417,0.376,0.346,0.649c-0.086,0.331-0.16,0.557-0.222,0.681
		c-1.699,3.506-3.324,6.79-3.698,10.528c-0.322,3.181,0.918,7.36,5.054,6.531c1.517-0.303,2.844-1.192,4.234-1.963
		c0.007-0.004,0.015-0.008,0.023-0.011c0.146-0.066,0.318,0,0.384,0.146c0.123,0.276,0.188,0.428,0.195,0.456
		c0.681,3.242,1.366,6.439,3.654,9.051c1.773,2.024,3.931,2.998,6.476,2.92c5.115-0.153,8.431-5.339,9.423-9.826
		c0.236-1.066,0.397-1.76,0.485-2.084c0.009-0.034,0.025-0.067,0.047-0.095c0.091-0.117,0.26-0.139,0.378-0.048
		c1.096,0.858,2.178,1.619,3.247,2.282c4.236,2.627,9.496,2.762,13.089-1c3.152-3.303,3.3-8.449,1.461-12.43
		c-0.371-0.802-0.678-1.439-0.921-1.91c-0.493-0.958,0.132-1.691,0.823-2.24c1.324-1.052,2.568-2.181,3.73-3.387
		c2.902-3.015,3.962-7.354,2.274-11.243C236.287,376.466,230.104,374.559,225,376.018z"/>
	<path class="st4" d="M308.783,42.666c-1.431-2.868-2.517-5.872-3.255-9.011c-0.264-1.115-0.361-2.166-0.29-3.152
		c0.061-0.892,0.578-1.762,1.577-1.258c1.047,0.525,2.044,2.532,2.572,3.648c1.664,3.519,3.094,7.215,4.292,11.087
		c0.264,0.855,2.656,7.513,0.696,7.078c-0.093-0.021-0.267-0.174-0.522-0.459C312.182,48.73,310.492,46.086,308.783,42.666z
		 M326.763,30.529c-1.857-0.055-3.909,5.877-4.368,7.291c-0.923,2.856-1.632,5.772-2.126,8.747
		c-0.025,0.151-0.047,0.474-0.066,0.968c-0.024,0.638-0.14,1.488,0.609,1.625c0.085,0.015,0.172-0.003,0.243-0.05
		c0.394-0.266,0.648-0.484,0.762-0.654c2.422-3.598,4.276-7.544,5.563-11.836C327.742,35.417,328.786,30.59,326.763,30.529z
		 M323.087,60.891c-3.588-3.065-9.093-2.509-12.296,1.241c-3.203,3.75-2.89,9.274,0.698,12.339
		c3.588,3.065,9.093,2.509,12.296-1.241C326.987,69.48,326.675,63.956,323.087,60.891z M329.683,63.453
		c3.558,0.352,6.492,0.572,8.803,0.662c1.423,0.055,2.774,0.004,4.054-0.15c1.053-0.127,3.055-0.543,3.569-1.43
		c0.82-1.411-0.762-2.406-1.915-2.73c-3.791-1.06-8.375-0.253-12.14,0.878c-1.286,0.385-2.34,0.793-3.163,1.224
		c-0.074,0.04-0.137,0.098-0.182,0.169c-0.134,0.22-0.207,0.463-0.219,0.728c-0.005,0.095,0.035,0.186,0.108,0.245
		C328.878,63.274,329.24,63.409,329.683,63.453z M304.488,64.611c-0.438-0.274-0.955-0.476-1.551-0.604
		c-1.352-0.292-3.109-0.464-5.271-0.517c-5.326-0.129-11.38,0.324-16.112,3.055c-0.711,0.41-1.176,0.883-1.395,1.419
		c-0.035,0.083-0.046,0.175-0.034,0.266c0.103,0.86,1.266,0.923,1.976,0.894c1.257-0.047,2.774-0.193,4.55-0.435
		c8.587-1.175,13.294-1.827,14.121-1.957c1.121-0.174,3.195-0.456,3.849-1.155c0.028-0.03,0.053-0.063,0.075-0.097
		C304.878,65.184,304.785,64.795,304.488,64.611z M85.073,88.468c0.221,0.254,0.595,0.303,0.868,0.113
		c0.567-0.396,0.309-1.506,0.084-2.079c-0.109-0.281-0.605-1.519-1.488-3.711c-1.226-3.044-2.034-6.279-2.424-9.705
		c-0.22-1.934-0.441-3.873-0.665-5.817c-0.088-0.761-0.273-1.452-0.557-2.071c-0.359-0.786-1.216-0.899-1.786-0.261
		c-0.987,1.108-1.377,3.068-1.49,4.608c-0.204,2.758,0.143,5.394,1.042,7.908C80.124,81.559,82.262,85.23,85.073,88.468z
		 M320.828,99.014c0.857,0.356,1.332-0.752,1.467-1.422c0.91-4.59-0.44-10.235-2.047-14.691c-0.364-1.013-0.787-1.903-1.269-2.67
		c-0.741-1.184-1.591-0.113-1.585,0.786c0.005,1.083,0.088,2.247,0.248,3.493c0.44,3.41,0.98,6.893,1.622,10.449
		C319.459,96.041,319.894,98.624,320.828,99.014z M115.021,82.037c-1.076-0.335-2.799,0.448-4.308,1.026
		c-0.491,0.188-3.901,1.745-10.232,4.669c-0.737,0.341-1.618,0.825-2.643,1.451c-0.297,0.181-0.475,0.424-0.533,0.728
		c-0.001,0.007-0.002,0.013-0.003,0.02c-0.049,0.331,0.198,0.644,0.552,0.697c0.888,0.132,1.905,0.122,3.052-0.029
		c3.797-0.503,7.405-1.75,10.823-3.741c1.324-0.773,3.83-2.651,3.849-4.068C115.582,82.448,115.356,82.141,115.021,82.037z
		 M82.137,98.639c0.005,2.968,3.108,5.368,6.931,5.361c3.823-0.007,6.918-2.418,6.912-5.385s-3.108-5.368-6.931-5.361
		C85.226,93.26,82.132,95.671,82.137,98.639z M90.61,120.695c0.446,0.372,1.406,1.01,1.918,0.802
		c0.35-0.143,0.551-0.493,0.475-0.828c-0.19-0.832-0.529-1.655-1.018-2.469c-1.883-3.139-3.51-6.343-4.88-9.613
		c-0.116-0.274-0.372-0.645-0.768-1.111c-0.056-0.066-0.136-0.108-0.224-0.119c-0.431-0.042-0.691,0.147-0.781,0.567
		c-0.199,0.932-0.215,1.911-0.05,2.936C85.864,114.501,87.711,118.271,90.61,120.695z M385.021,268.998
		c0.127-1.469-1.754-1.169-2.633-0.907c-4.094,1.221-7.734,4.192-10.589,7.415c-1.876,2.116-3.624,4.265-4.529,6.613
		c-0.088,0.229-0.085,0.419,0.008,0.57c0.164,0.261,0.495,0.362,0.776,0.235c0.399-0.183,0.856-0.482,1.369-0.897
		c5.55-4.472,9.632-7.688,12.245-9.647C382.758,271.565,384.947,269.834,385.021,268.998z M85.086,282.797
		c-6.141,2.759-9.156,10.027-10.069,16.308c-0.309,2.137-0.459,4.221,0.187,6.17c0.086,0.262,0.344,0.43,0.623,0.404
		c0.586-0.055,0.939-1.079,1.089-1.562c0.324-1.025,0.755-2.316,1.295-3.872c1.844-5.313,4.814-10.182,8.149-14.996
		c0.397-0.572,0.669-1.165,0.815-1.781c0.019-0.082,0.024-0.168,0.013-0.253C87.046,282.111,85.703,282.52,85.086,282.797z
		 M351.799,286.496c-3.851,3.052-4.601,8.519-1.676,12.21c2.926,3.691,8.419,4.209,12.27,1.157c3.851-3.052,4.601-8.519,1.676-12.21
		C361.144,283.962,355.65,283.444,351.799,286.496z M328.1,301.397c0.754,0.417,1.825-0.269,2.525-0.794
		c3.387-2.554,6.797-5.074,10.23-7.56c0.679-0.494,1.081-0.904,1.205-1.229c0.467-1.232-1.076-1.087-1.736-0.905
		c-2.393,0.659-4.6,1.844-6.632,3.052c-2.363,1.405-4.2,3.279-5.511,5.621c-0.294,0.524-0.376,1.056-0.248,1.596
		C327.956,301.27,328.016,301.35,328.1,301.397z M388.231,304.621c-1.182-0.934-2.492-1.888-3.93-2.862
		c-2.626-1.776-5.815-3.792-9.568-6.049c-1.013-0.607-3.862-2.369-4.878-2.139c-0.03,0.007-0.06,0.016-0.089,0.028
		c-0.269,0.111-0.399,0.41-0.291,0.668c0.167,0.394,0.407,0.757,0.72,1.089c4.334,4.614,9.417,8.853,15.279,11.166
		c1.282,0.505,2.417,0.737,3.406,0.696c0.081-0.003,0.16-0.027,0.229-0.069C390.305,306.454,388.883,305.135,388.231,304.621z
		 M338.713,296.852c-1.657,1.475-2.918,2.972-3.785,4.49c-0.865,1.519-1.512,3.368-1.939,5.545c-0.127,0.652-0.414,2.564,0.575,2.67
		c0.588,0.063,1.264-1.034,1.527-1.514c0.918-1.687,1.849-3.357,2.794-5.012c0.944-1.657,1.908-3.309,2.891-4.957
		c0.28-0.472,0.881-1.612,0.528-2.087C340.71,295.19,339.209,296.411,338.713,296.852z M75.347,314.79
		c-1.266-0.522-2.629-0.84-4.089-0.952c-3.342-0.256-6.935,0.15-9.626,2.358c-0.878,0.721-1.48,1.531-1.807,2.43
		c-1.393,3.836,2.604,6.062,5.642,6.716c2.318,0.499,4.599,0.519,6.843,0.058c2.49-0.514,5.213-1.989,5.962-4.506
		C79,318.438,77.747,315.781,75.347,314.79z M45.865,318.063c-6.072-0.398-11.198,1.854-12.799,8.148
		c-0.1,0.396-0.11,0.808-0.029,1.237c0.056,0.308,0.349,0.515,0.662,0.47c0.392-0.058,0.764-0.273,1.116-0.644
		c0.368-0.389,1-1.013,1.897-1.873c2.43-2.332,5.252-3.87,8.584-4.587c1.639-0.353,2.697-0.587,3.173-0.702
		c0.334-0.081,0.538-0.302,0.612-0.665C49.284,318.464,46.491,318.105,45.865,318.063z M104.852,320.931
		c-0.448-0.193-0.904-0.179-1.366,0.042c-4.483,2.153-9.183,3.693-14.1,4.622c-1.952,0.367-4.339,0.137-6.183,0.169
		c-0.589,0.012-1.099,0.104-1.53,0.274c-0.314,0.125-0.474,0.484-0.367,0.823c0.253,0.802,2.079,1.409,2.891,1.651
		c4.782,1.424,9.511,1.082,14.187-1.029c2.188-0.987,4.031-2.244,5.529-3.772c0.633-0.646,1.43-1.649,1.124-2.58
		C105.006,321.041,104.939,320.968,104.852,320.931z M338.436,360.921c2.091-1.05,4.26-2.51,6.508-4.382
		c0.892-0.744,3.35-3.11,2.39-4.21c-0.96-1.103-3.64,1.01-4.498,1.791c-2.161,1.97-3.905,3.918-5.231,5.846
		c-0.241,0.35-0.258,0.645-0.05,0.884C337.762,361.088,338.056,361.111,338.436,360.921z M324.853,359.821
		c-2.667-2.316-5.906-4.477-9.28-5.482c-0.683-0.206-2.654-0.649-2.902,0.24c-0.259,0.923,1.097,1.82,1.773,2.218
		c2.328,1.381,5.268,2.768,8.818,4.163c0.512,0.202,1.031,0.306,1.559,0.311c0.039,0.001,0.079-0.003,0.117-0.012
		c0.291-0.063,0.475-0.36,0.413-0.664C325.295,360.319,325.129,360.06,324.853,359.821z M333.912,360.496
		c-2.1-0.988-4.588-0.12-5.557,1.939c-0.969,2.059-0.052,4.529,2.048,5.517c2.1,0.988,4.588,0.12,5.557-1.939
		C336.929,363.954,336.012,361.484,333.912,360.496z M323.268,367.418c-1.351-0.169-2.812,0.232-4.975,0.657
		c-2.283,0.45-4.251,1.315-5.906,2.596c-0.577,0.445-0.926,0.842-1.047,1.192c-0.847,2.422,4.31,0.501,5.173,0.164
		c1.767-0.695,3.359-1.366,4.775-2.013c0.774-0.355,1.488-0.76,2.142-1.213C323.983,368.416,324.07,367.516,323.268,367.418z
		 M338.568,367.817c-0.32-0.167-0.594-0.14-0.82,0.082c-0.066,0.065-0.107,0.151-0.113,0.243c-0.021,0.317,0.081,0.609,0.306,0.878
		c1.755,2.084,3.701,4.051,5.838,5.901c0.765,0.662,2.49,2.102,3.421,2.055c1.543-0.082,0.514-1.839,0.005-2.49
		C345.044,371.71,341.646,369.431,338.568,367.817z M219.423,250.506c0.309-3.912-0.923-9.715-5.798-10.269
		c-4.426-0.504-9.101,3.574-11.615,6.743c-3.612,4.549-6.071,9.676-7.376,15.379c-0.005,0.025-0.024,0.044-0.049,0.049
		c-0.034,0.007-0.068-0.015-0.075-0.049c-1.39-5.859-5.516-12.678-11.736-14.279c-5.577-1.432-9.594,1.997-10.483,7.368
		c-0.689,4.168,0.551,8.8,2.432,12.546c1.637,3.26,3.747,6.318,6.328,9.172c4.089,4.516,8.448,8.287,13.079,11.311
		c0.589,0.383,1.218,0.648,1.886,0.794c1.353,0.295,2.743-1.179,3.624-2.25c4.258-5.177,8.483-11.044,12.675-17.6
		C215.923,263.78,218.896,257.209,219.423,250.506z M69.359,166.167c4.01-1.81,6.832-3.107,9.882-3.915
		c3.083-0.818,4.882-1.301,5.397-1.451c0.462-0.135,1.498-0.52,1.62-1.113c0.243-1.161-1.691-1.765-2.548-1.957
		c-3.152-0.715-6.595,0.15-9.362,1.757c-3.065,1.778-5.346,3.74-6.843,5.885c-0.042,0.059-0.07,0.126-0.082,0.195
		C67.206,166.859,68.778,166.431,69.359,166.167z M367.492,167.866c-0.409-3.408-2.2-7.075-5.516-8.365
		c-1.651-0.641-4.527-0.673-4.611,1.707c-0.111,3.129,4.643,6.553,7.072,7.745C365.548,169.499,367.745,169.99,367.492,167.866z
		 M36.973,169.238c0.332,0.053,0.594,0.006,0.786-0.14c0.291-0.221,0.349-0.639,0.132-0.944c-0.195-0.274-0.463-0.52-0.802-0.736
		c-2.706-1.73-6.447-2.168-9.19-0.293c-0.855,0.586-3.54,3.026-2.648,4.112c0.057,0.067,0.14,0.108,0.229,0.113
		c0.366,0.016,0.684-0.063,0.955-0.237c1.06-0.686,2.141-1.253,3.242-1.701C31.906,168.499,34.457,168.85,36.973,169.238z
		 M61.754,184.604c2.063-3.363,0.578-9.28-0.665-12.62c-0.436-1.173-0.772-1.95-1.008-2.332c-1.651-2.683-5.057-2.511-7.463-1.1
		c-2.569,1.506-4.677,4.3-4.666,7.365c0.013,3.173,1.825,5.864,4.21,7.874C54.732,185.957,59.361,188.508,61.754,184.604z
		 M374.034,181.541c2.839,0.863,5.825-0.689,6.669-3.466c0.844-2.777-0.774-5.727-3.614-6.59c-2.839-0.863-5.825,0.689-6.669,3.466
		C369.577,177.728,371.194,180.678,374.034,181.541z M391.983,180.855c-2.226-1.516-4.646-2.392-7.26-2.627
		c-0.774-0.07-1.273,0.108-1.498,0.536c-0.223,0.429-0.087,0.943,0.409,1.541c1.678,2.017,3.771,3.512,6.281,4.484
		c1.113,0.43,3.189,0.707,3.825-0.501C394.372,183.079,392.966,181.525,391.983,180.855z M373.211,185.601
		c-0.473,0.441-0.867,0.965-1.182,1.57c-1.264,2.422-1.992,5.294-1.324,7.887c0.306,1.195,1.24,2.54,2.522,2.712
		c2.625,0.353,3.535-3.023,3.585-4.972c0.058-2.212-0.245-4.258-0.91-6.138C375.498,185.519,374.311,184.575,373.211,185.601z
		 M36.831,194.699c1.279-1.045,2.313-1.878,3.102-2.501c0.2-0.158,0.404-0.427,0.609-0.807c0.051-0.094,0.068-0.202,0.048-0.306
		c-0.28-1.39-1.942-0.929-2.962-0.596c-4.669,1.527-8.494,4.68-9.903,9.531c-0.304,1.048-0.52,2.128-0.646,3.239
		c-0.132,1.184-0.29,3.421,0.346,3.901c0.272,0.205,0.659,0.169,0.897-0.084c0.241-0.253,0.445-0.57,0.612-0.95
		C30.982,201.494,32.945,197.88,36.831,194.699z M39.141,213.035c0.22,0.283,0.55,0.596,0.992,0.939
		c0.599,0.467,1.356,0.411,1.438-0.462c0.032-0.354,0.012-0.678-0.058-0.973c-0.568-2.385-0.888-3.783-0.96-4.194
		c-0.624-3.526-0.249-6.901,1.126-10.124c0.426-0.999,0.975-2.207,1.649-3.624c0.162-0.341,0.257-0.744,0.285-1.208
		c0.019-0.35-0.202-0.658-0.52-0.723c-0.873-0.182-2.058,0.871-2.567,1.446C35.636,199.648,34.414,206.947,39.141,213.035z
		 M209.173,367.595c-0.712,0.222-1.371,0.717-1.976,1.485c-2.865,3.64-2.105,9.549-0.348,13.519
		c0.412,0.926,1.074,2.282,2.269,1.889c0.073-0.024,0.142-0.062,0.203-0.111c1.567-1.295,2.503-4.45,2.991-6.484
		c0.549-2.3,0.984-4.93,0.48-7.373C212.399,368.632,211.262,366.946,209.173,367.595z M227.293,384.945
		c-3.107,0.208-5.872,1.733-8.259,3.762c-0.853,0.725-1.359,1.309-1.519,1.754c-0.955,2.683,1.752,2.931,3.561,2.778
		c2.525-0.209,4.863-0.746,7.012-1.609c1.488-0.599,3.83-2.116,3.466-4.065C231.199,385.67,229.015,384.829,227.293,384.945z
		 M203.306,389.34c-3.535,2.751-3.041,8.191-0.514,11.501c1.981,2.598,4.962,3.825,8.159,3.084c0.985-0.227,1.884-0.657,2.699-1.29
		c0.812-0.633,1.451-1.4,1.915-2.3c1.504-2.915,1.047-6.107-0.984-8.666C211.993,388.406,206.841,386.588,203.306,389.34z
		 M196.598,397.659c-1.271,0.448-2.079,1.124-3.324,2.076c-1.612,1.229-2.728,2.91-3.197,4.79c-0.301,1.211-0.024,2.823,1.287,3.263
		c1.854,0.623,3.487-0.968,4.279-2.522c0.862-1.688,1.496-3.581,1.902-5.679c0.098-0.509,0.272-1.108,0.029-1.554
		C197.386,397.688,196.973,397.529,196.598,397.659z M221.073,399.976c-0.96-0.44-1.744-0.644-2.35-0.612
		c-1.881,0.1-1.847,1.659-1.308,3.013c1.058,2.656,3.912,7.167,6.967,7.798c2.089,0.433,3.192-1.514,2.836-3.311
		C226.599,403.745,223.845,401.244,221.073,399.976z M207.506,406.51c-0.612-1.467-3.115-1.894-4.134-0.607
		c-0.452,0.572-0.759,1.144-0.921,1.717c-0.633,2.263-0.898,4.605-0.794,7.025c0.058,1.345,0.546,5.015,2.801,4.3
		c1.791-0.57,2.878-3.334,3.218-4.986c0.517-2.501,0.483-4.913-0.103-7.238C207.557,406.649,207.534,406.578,207.506,406.51z"/>
</g>
</svg>
