<?xml version="1.0" encoding="UTF-8"?>
<svg id="Layer_1" xmlns="http://www.w3.org/2000/svg" version="1.1" viewBox="0 0 720 1200">
  <!-- Generator: Adobe Illustrator 30.2.1, SVG Export Plug-In . SVG Version: 2.1.1 Build 1)  -->
  <defs>
    <style>
      .st0 {
        fill: #231f1f;
      }

      .st0, .st1, .st2 {
        fill-rule: evenodd;
      }

      .st1 {
        fill: #010100;
      }

      .st2 {
        fill: #f7cc18;
      }
    </style>
  </defs>
  <path class="st2" d="M689.38,585.79c5.7-12.45,4.74-34.97-1.93-45.05-1.38-2.08-2.94-6.14-3.48-9.01-2.25-12.12-12.42-25.98-22.47-30.63-28.83-13.33-37.91-18.03-42.02-21.77-1.11-1.01-4.69-4.08-7.96-6.83-3.27-2.75-11.13-10.34-17.48-16.85-6.35-6.52-14.47-14.16-18.04-16.97-3.58-2.81-8.97-7.22-12-9.79-3.03-2.57-10.67-8.3-17-12.73s-11.95-8.43-12.5-8.89c-2.22-1.84-17.32-10.3-22-12.33-2.75-1.19-10.08-4.59-16.29-7.55-6.21-2.96-11.66-5.38-12.13-5.38s-3.48-1.18-6.71-2.62c-6.38-2.85-8.99-3.74-17.37-5.95-3.02-.8-6.4-1.85-7.5-2.35-3.77-1.69-25.99-6.99-36-8.58-28.6-4.56-61.65-6.32-84.59-4.51-12.5.98-42.93,4.92-44.22,5.71-.49.3-2.54.77-4.54,1.03-21.37,2.82-70.57,20.76-95.17,34.7-4.66,2.64-10.05,5.7-11.98,6.8-25.32,14.39-58.89,46.03-75.11,70.77-8.7,13.27-16.1,27.76-21.71,42.5-1.49,3.91-7.02,25.17-8.71,33.5-2.79,13.72-7.02,21.86-17.16,33-15.6,17.15-19.14,23.47-19.37,34.69-.29,13.62,4.35,24.2,16.1,36.74,12.66,13.5,22.43,26.47,29.45,39.07,1.53,2.75,3.56,5.9,4.51,7,1.6,1.85,6.1,9.2,13.5,22.03,2.71,4.7,11.46,17.91,19.36,29.26,21.78,31.24,45.89,50.74,78.14,63.19,4.67,1.8,9.62,3.84,11,4.52s5.65,2.23,9.5,3.44c3.85,1.21,7.9,2.59,9,3.06,1.1.47,4.92,1.6,8.5,2.5,3.58.9,9.87,2.52,13.99,3.6s8.83,2.19,10.48,2.48c1.65.29,8.85,1.58,16.01,2.87,11.41,2.05,18.47,2.96,40.02,5.11,23.11,2.31,59.82.96,85.5-3.13,22.08-3.52,25.54-4.21,34.5-6.91,4.4-1.32,11.38-3.16,15.5-4.08,4.12-.92,7.95-2,8.5-2.39s3.7-1.53,7-2.51c15.24-4.55,51.05-20.84,49.9-22.71-.43-.69-.26-.87.41-.45,1.25.77,6.6-1.75,14.7-6.93,2.97-1.9,5.61-3.45,5.87-3.45.61,0,12.96-8.13,13.62-8.97.28-.35,2.12-1.62,4.11-2.82,1.98-1.2,4.68-3.22,6-4.47,1.32-1.26,4.19-3.6,6.39-5.21,15.3-11.21,37.72-35.98,45.4-50.16,1.43-2.63,3.31-5.52,4.19-6.41s5.12-7.88,9.43-15.53c9.54-16.94,10.91-18.72,20.84-27.13,7.73-6.54,9.1-7.65,19.86-15.91,19.92-15.31,30.59-43.68,23.9-63.58-1.04-3.1-1-4.26.26-7Z"/>
  <path class="st0" d="M465.14,488.72l-5.36.39.61,3.07c.34,1.69.61,3.43.61,3.88s1.24.95,2.75,1.12c2.62.3,3.13,1.37,10.96,22.8l8.21,22.48.69,21.7.69,21.7-4.4.32-4.4.32v8h26l.31-4.25.31-4.25h-9.11v-43.39l8.18-19.06c9.62-22.4,8.12-19.63,10.7-19.82,1.84-.14,2.11-.79,2.11-5.07v-4.91l-9.75.72c-5.36.4-9.88.84-10.03.98-1.04.97,1.2,8.31,2.39,7.85,3.6-1.38,1.92,5.21-5.62,22.04-2.82,6.3-3.1,5.93-9.02-11.85-4.92-14.77-5.16-16.51-2.35-16.51,1.14,0,1.42-1,1.19-4.25l-.31-4.25-5-.09c-2.75-.05-7.41.09-10.36.31M340.66,492.75c-.25.41-3.46,11.55-7.13,24.75-11.5,41.36-13.72,48.97-14.56,49.88-.79.85-7.04-17.81-16.35-48.78-2.46-8.2-5.07-15.29-5.79-15.76-2.66-1.73-15.26-.54-15.65,1.49-.65,3.4.75,6.52,3.08,6.85l2.25.32.85,33.28c.92,36.16.91,36.22-4.47,36.22-2.69,0-2.88.26-2.88,4v4h22v-4c0-3.57-.26-4-2.44-4-3.54,0-3.48.4-3.6-25.1-.11-23.43.41-26.72,2.83-18.04.71,2.55,3.94,13.19,7.17,23.64s6.36,20.87,6.97,23.15c1.03,3.89,1.35,4.17,5.11,4.53,4.71.45,2.81,5.22,14.54-36.52,4.26-15.16,8.13-27.34,8.59-27.05,1.4.87,1.05,62.79-.36,64.2-.66.66-2.46,1.2-4,1.2-2.6,0-2.8.29-2.8,4v4h22v-3.88c0-3.51-.29-3.93-3-4.47l-3-.6v-89.05h9v-9h-8.94c-4.92,0-9.15.34-9.4.75M230.67,494.67c-.37.37-.67,2.39-.67,4.5,0,4.43.24,4.3-3.9,2.23-9.77-4.88-20.53,6.42-18.6,19.53.79,5.38,4.23,11.59,12.5,22.57,11.49,15.27,15.19,25.31,10.9,29.6-6.36,6.36-14.71-2.65-16.54-17.85l-.63-5.25h-8.73v19.39c0,21.07-.1,20.73,5.75,19.86,3.49-.52,3.52-.59,3.27-7-.19-4.9.08-5.03,4.31-2.02,4.3,3.06,14.4,3.22,17.67.27,9.83-8.88,7.55-20.86-8.08-42.53-11.1-15.38-13.44-22.45-8.91-26.98,4.7-4.7,11,2.37,11,12.35,0,3.96.27,4.47,2.6,4.91,6.39,1.22,6.4,1.19,6.4-17.38v-16.88h-3.83c-2.11,0-4.13.3-4.5.67M364.75,496.56c-.41.42-.75,2.5-.75,4.6v3.83h9.02l-.26,36.75-.26,36.75-3.25.31c-3.13.3-3.25.48-3.25,4.75v4.44h22.11l-.31-4.25c-.27-3.74-.62-4.29-2.91-4.55-2.88-.34-4.74-13.22-3.06-21.2l.74-3.5,8.37-.7c27.86-2.32,35.78-43.61,10.54-54.94-5.17-2.32-34.9-4.18-36.74-2.3M423.72,504.72c-1.94,3.45.62,8.28,4.39,8.28h3.89v61h-9v10.17l21.42-.34c11.78-.18,21.74-.66,22.14-1.06.81-.81.78-39.14-.04-39.53-.29-.14-2.31-.25-4.49-.25h-3.97l-.28,15.25-.28,15.25-7.41.3c-9.61.39-8.96,2.62-9.06-31.52l-.08-29.28h8.17l-.31-4.25-.31-4.25-12.17-.28c-6.7-.15-12.37.07-12.61.5M382.23,525.14l.27,20.36,6-.36c24.26-1.44,24.67-38.61.45-39.98l-6.99-.39.27,20.36M254.5,511.96l-5,.54v4c0,3.74.2,4.02,3.1,4.3l3.1.3.65,12.1c.36,6.66.65,18.78.65,26.95v14.84h-8v9h23v-4.5c0-4.33-.11-4.5-3-4.5h-3v-9.75c0-5.36-.3-17.51-.66-27l-.65-17.25h4.1c4.91,0,5.19-.35,4.34-5.5l-.66-4-6.48-.04c-3.56-.02-8.73.21-11.48.5M374.18,610.75l-17.32.3.5,13.23c.27,7.27.53,13.34.57,13.48.04.14,2.08.25,4.53.25h4.46l.29-8.75.29-8.75,12.25-.28c7.75-.18,12.25.09,12.25.73,0,.55-2.66,6.76-5.91,13.78-20.55,44.42-29.09,65.2-29.09,70.77v5.51h45v-34h-9v11.39c0,13.33,1.3,12.27-14.15,11.61l-11.65-.5,6.97-15.5c3.83-8.53,10.71-23.83,15.27-34,4.57-10.17,9.49-21.06,10.93-24.19,5.18-11.22,3.49-16.11-5.38-15.58-1.92.12-11.3.35-20.82.51M177.25,612.77l-22.25.27v33.96h4c4.54,0,4.25.78,4.55-12,.35-14.56-.28-13.15,5.7-12.8l5.25.3v77l-4.75.3-4.75.3v3.95c0,3.88.06,3.95,3.75,4.02,2.06.04,8.36.15,14,.25l10.25.18.64-3.41c.78-4.14-1.29-6.09-6.44-6.09h-3.42l.68-38.25c.74-41.69.53-40.46,6.74-39.15l4.3.9.28,12.3.28,12.3,4.22-.31,4.22-.31-.13-8.5c-.07-4.67-.19-12.16-.25-16.63-.14-9.84,2.63-8.96-26.87-8.6M248.7,612.74l-4.8.38.3,4.19c.28,3.9.53,4.21,3.46,4.5l3.16.31.66,10.19c.37,5.61.52,14.69.34,20.19l-.32,10-11.42.28c-13.88.35-13.04,1.34-13.07-15.53v-13.25s3.99,0,3.99,0h4v-9h-24v4.5c0,4.48.02,4.5,3.5,4.5h3.5v20.34c0,11.19.3,27.84.66,37l.66,16.66h-4.05c-4.01,0-4.06.05-4.44,4.05-.5,5.25-1.23,4.95,11.84,4.95h11.33v-4.5c0-4.29-.14-4.5-2.86-4.5h-2.86l-.53-11.25c-.29-6.19-.47-14.17-.39-17.75l.15-6.5,12.1-.28,12.11-.28.54,13.23c.63,15.54.56,15.83-3.85,15.83-3.29,0-3.39.12-3.39,4v4h23v-4c0-3.91-.08-4-3.5-4h-3.5l-.17-37.5c-.09-20.62-.2-38.27-.25-39.21-.05-1.11,1.07-2.04,3.17-2.64,2.92-.84,3.25-1.31,3.25-4.67,0-5.07-1.94-5.52-18.3-4.23M524.25,612.78l-16.25.27v33.95h8.94l.28-12.25.28-12.25,5.26-.3,5.26-.3-.26,38.8-.26,38.8-4.49.5c-4.75.53-5.75,1.9-4.64,6.33.53,2.12.89,2.16,14.59,1.87l14.04-.3v-3.83c0-4.02-1.33-5.02-6.75-5.05h-2.25v-38.45c0-42.18-.34-40.14,6.57-39.1l4.43.66v24.88h9v-34l-5.25-.11c-2.89-.06-6.83-.17-8.75-.25-1.92-.08-10.81-.02-19.75.13M491,618.44c0,5.15.02,5.14-4.2,2.95-9.07-4.69-18.8,3.72-18.8,16.25,0,7.24,1.91,11.24,11.92,24.93,13.13,17.96,16.21,26.47,11.1,30.61-6.82,5.53-13.8-2.68-16.5-19.44-.58-3.6-.77-3.75-4.56-3.75h-3.95v39h9v-5.5c0-6.2.06-6.25,3.79-3.51,7.15,5.26,17.54,3.09,21.17-4.4,4.88-10.08,2.31-18.42-11.63-37.83-9.5-13.23-12.04-19.4-10.19-24.72,3.02-8.67,11.07-2.63,12.48,9.38l.66,5.59h8.77l-.27-16.75-.27-16.75-4.25-.31-4.25-.31v4.56M285.75,624.78l-13.75.28v8.94h8.03l-.26,30.75-.26,30.75-2.8.32c-2.63.3-2.79.58-2.5,4.5l.3,4.18h46.5v-26.25l-3.12-.62c-6.01-1.2-5.88-1.41-5.88,8.95v9.57l-10.75-.32-10.75-.32-.5-6.93c-.27-3.81-.27-9.43,0-12.5l.5-5.57,5.25-.3,5.25-.3v-8.79l-5.25-.3-5.25-.3v-27h16l.29,7.75.29,7.75h8.92v-24l-3.75-.11c-2.06-.06-5.77-.17-8.25-.25-2.48-.08-10.69-.01-18.25.14M421.75,624.78l-12.75.28v8.94h8.03l-.26,30.75-.26,30.75-2.8.32c-2.63.3-2.79.58-2.5,4.5l.3,4.18h46.5v-26.25l-3.12-.62c-6.01-1.2-5.88-1.41-5.88,8.95v9.57l-10.75-.32-10.75-.32-.5-6.5c-.27-3.58-.27-9.2,0-12.5l.5-6,5.25-.3,5.25-.3v-8.79l-5.25-.3-5.25-.3-.16-12.4c-.21-16.09-.7-15.24,8.53-14.89l7.63.29.29,7.75.29,7.75h8.92v-24l-4.25-.1c-2.34-.06-6.5-.17-9.25-.25s-10.74-.02-17.75.13Z"/>
  <path class="st1" d="M382.09,429.84c-1.64,3.06-.07,6.09,4.55,8.79,2.41,1.41,5.77,4.21,7.46,6.22l3.08,3.65-.71-4.5c-1.92-12.18-10.77-20.9-14.38-14.16M309.56,432.22c-3.42,4.89-.91,10.61,9.35,21.3,5.02,5.23,8.12,9.34,8.56,11.34,1.21,5.52,2.53,3.37,2.52-4.11-.03-19.87-13.41-38.55-20.43-28.53M415.27,434.09c-12.79,6.33-12.93,23.52-.42,49.91l3.56,7.5.65-9c.65-8.98,2.08-13.96,8.82-30.78,6.21-15.49.16-23.95-12.61-17.63M497.97,435.59c-.76,2.01-.52,3.63,1.11,7.25,1.15,2.57,2.43,6.69,2.83,9.16l.73,4.5,1.81-4c2.26-5,3.07-13.13,1.67-16.75-1.49-3.85-6.7-3.96-8.14-.16M278.81,437.75c-3.73,4-4.7,6.34-5.33,12.89q-.57,5.84,1.23,3.36c.99-1.38,2.87-3.4,4.19-4.5,8.47-7.07,10.37-11.22,6.17-13.46-2.81-1.5-3.41-1.33-6.26,1.71M246.36,437.99c-5.75,2.32-6.59,7.72-2.77,17.73,7.63,20,8.8,24.01,9.4,32.27l.62,8.5,3.24-6.83c12.9-27.18,12.16-45.18-2.1-51.14-4.12-1.72-5.29-1.8-8.39-.55M343.94,441.95c-4.82,5.07-7.99,13.55-8.67,23.23-.72,10.24.21,12.71,2.71,7.14,1.02-2.29,5.08-7.37,9.03-11.31s7.8-8.68,8.58-10.54c4.58-10.96-3.62-16.95-11.65-8.51M368.02,443.24c-10.1,5.3-3.18,15.86,16.62,25.38,11.9,5.72,16.3,8.88,17.66,12.68,1.19,3.32,1.93-.99.86-5-5.45-20.37-24.74-38.52-35.14-33.06M486.56,448.22c-2.07,2.95-2,3.46,1.13,9.29,1.48,2.75,2.96,6.79,3.28,8.99l.6,4,1.39-2.5c5.5-9.89-.45-28.27-6.4-19.78M295.76,448c-10.86,3.27-25.78,22.28-27.49,35.03-.56,4.19,1.07,5.64,2.23,1.98.9-2.85,8.08-7.49,17.98-11.64,17.7-7.41,25.56-20.52,14.95-24.96-3.75-1.57-3.83-1.57-7.67-.41M453.68,448.01c-9.19,2.79-21.2,17.37-25.76,31.28-2.68,8.15-2.12,9.15,2.26,4.15,2.34-2.67,6.68-5.36,14.81-9.18,16.94-7.96,21-11.74,21-19.55,0-5.51-5.82-8.67-12.32-6.7M205.46,451.45c-6.83,6.83.46,16.03,19.04,24.03,6.61,2.84,10.26,5.15,13.75,8.69l4.75,4.82v-2.96c0-18.84-27.74-44.39-37.54-34.58M515.22,456.51c-5.65,2.57-16.51,12.21-18.85,16.74-1.7,3.28-1.48,3.34,2.86.78,2.17-1.28,6.84-2.36,13.31-3.07,14.91-1.65,20.47-4.73,20.47-11.33,0-5.75-8.63-7.26-17.78-3.11M473.87,466.38c-1.99.71-5.47,2.83-7.73,4.71-4.24,3.52-5.46,5.73-2.39,4.32.96-.44,5.17-.83,9.35-.86,8.32-.06,10.9-1.28,10.9-5.14,0-4.07-3.93-5.24-10.13-3.03M354.35,467.64c-6.56,1.45-6.67,9.37-.12,9.36,1.8,0,4.85-.99,6.77-2.19,1.92-1.2,5.52-2.48,8-2.83l4.5-.64-3.86-1.73c-4.03-1.81-11.6-2.78-15.28-1.97M303.3,474.11c-4.19,1.21-5.17,2.89-1.69,2.89,1.5,0,5.61,1.4,9.14,3.12,7.7,3.75,11.25,3.1,11.25-2.07,0-4.81-9.08-6.73-18.7-3.95M531.5,475.35c-7.81,3.64-8.42,5.13-2.16,5.26,2.84.06,7.3.45,9.91.88,5.43.88,7.76-.34,7.76-4.07,0-4.83-7.45-5.82-15.5-2.06M198.1,477.38c-4.05,4.88,1.86,8.78,10.1,6.66,2.68-.69,6.44-.96,8.34-.6,4.73.89,4.33-.39-1.21-3.89-5.7-3.6-15.06-4.78-17.23-2.17M186.2,484.2c-3.2,3.2.88,13.57,7.32,18.63,3.55,2.79,3.72,2.54,1.88-2.8-.83-2.41-1.44-5.55-1.35-6.96.31-4.96-.06-6.94-1.62-8.5-1.87-1.87-4.57-2.03-6.23-.37M542.6,494.5c-1.59.85-4.68,3.15-6.86,5.12-2.18,1.97-5.8,4.4-8.03,5.4l-4.07,1.82,3.78.71c12.71,2.39,30.04-5.81,25.98-12.29-1.45-2.31-7.12-2.71-10.8-.76M172.57,502.57c-7.05,7.05,5.81,24.07,22.7,30.02,5.02,1.77,5.75,1.2,2.31-1.79-1.59-1.38-4.21-6.22-6.55-12.06-6.21-15.55-13.08-21.56-18.46-16.17M524.08,516.58c15.55,16.57,39.8,25.64,49.69,18.59,10.76-7.67,6.96-21.19-5.57-19.81-24.05,2.65-30.15,2.76-37.58.67-9.2-2.58-9.46-2.56-6.54.55M516.39,529.67c.43,1.36-.67,6.23-3.02,13.3-4.92,14.82-3.54,21.54,4.03,19.64,5.67-1.42,7.45-14.72,3.52-26.35-1.94-5.73-6.26-12.01-4.54-6.59M165,531.21c-7.03,1.2-10.78,5.86-7.43,9.22,2.49,2.49,5.36,1.86,10.84-2.35,2.8-2.16,6.36-4.24,7.91-4.63,6.51-1.62-3.42-3.59-11.33-2.24M527.83,533.75c1.61,2.06,3.43,5.3,4.06,7.18,2.13,6.45,7.1,9.19,10.1,5.58,2.93-3.53-1.61-10.24-9.45-13.95-7.29-3.45-8.16-3.23-4.71,1.19M177.5,540.29c-4.23,2.39-5.6,5.67-3.45,8.26,2.15,2.59,5.72,1.6,10.94-3.04,2.78-2.47,6.17-4.77,7.53-5.11,4.68-1.17,2.48-2.41-4.27-2.39-5.14.01-7.7.56-10.75,2.28M170.09,559.4c-5.94,6.33-3.95,20.09,4.54,31.33,2.48,3.28,7.54,6.91,5.74,4.11-.48-.74-.87-8.61-.87-17.49,0-19.85-2.73-25.07-9.41-17.96M531.95,559.75c-2.1,2.63-2.17,3.35-1.57,16.93.37,8.47.23,15.22-.36,16.76-1.63,4.28,3.05.53,7.28-5.84,9.82-14.78,4.85-40.63-5.35-27.86M144.75,570.08c-5.48,3.19.75,10.92,12.75,15.83,4.4,1.8,9.12,3.97,10.5,4.81,2.24,1.38,2.18,1.18-.59-1.85-1.7-1.86-4.13-4.96-5.41-6.88-6.48-9.79-13.08-14.35-17.25-11.92M559.5,570.16c-3.31,1.83-7.52,6.07-10.74,10.84-1.67,2.47-4.44,6.02-6.15,7.88-2.76,3.01-2.83,3.21-.6,1.85,1.38-.85,6.1-3.01,10.5-4.81,8.98-3.67,14.5-8.35,14.5-12.28s-3.71-5.56-7.5-3.47M143.01,592.53c-16.75,5.22-5.17,12.78,12.71,8.3,8.67-2.17,13.39-2.01,20.78.74,3.29,1.22-2.29-2.93-7.5-5.59-9.49-4.83-17.95-5.96-25.99-3.45M550.25,592.49c-5.98,1.68-12.59,4.85-16.25,7.81-1.98,1.6-2.08,1.86-.5,1.28,7.4-2.74,12.12-2.91,20.78-.74,10.78,2.7,15.12,2.76,17.64.24,6.26-6.26-8.77-12.21-21.68-8.59M581.63,636.5c-3.12,3.03-6.34,5.5-7.16,5.5s-1.48.52-1.48,1.15c0,1.44,11.94.47,15.24-1.24,5.48-2.83,7.38-6.89,4.56-9.71-2.38-2.38-5.51-1.18-11.17,4.3M585.5,649.38c-2.2.73-7.15,2.99-11,5.01s-9.03,4.03-11.5,4.47l-4.5.8,3.59,1.56c12.32,5.34,29.11,4.73,35.11-1.26,6.97-6.97-.98-14.15-11.7-10.57M127.01,653.49c-4.02,4.84,3.87,10.45,14.74,10.49,6.32.02,8.32-1.24,3.77-2.38-1.37-.34-4.76-2.64-7.53-5.11-5.25-4.66-8.79-5.63-10.97-3M111.2,661.2c-4.72,4.72,1.74,9.79,12.49,9.8,7.22,0,10.36-1.26,5.92-2.38-1.31-.33-4.78-2.4-7.72-4.61-5.47-4.11-8.57-4.92-10.69-2.81M559.03,666.72c.02.43.68,1.91,1.47,3.28s1.45,4.84,1.47,7.69c.05,7.04,3.41,11.37,7.42,9.54,4.5-2.05,3.27-8.29-3-15.23-3.7-4.1-7.41-6.77-7.35-5.28M147.85,669.48c-16.03,5.9-29.03,23.52-22.02,29.86,5.81,5.26,12.64-.71,18.31-16.05,2.3-6.23,5.11-10.77,8.34-13.51,2.51-2.13.68-2.25-4.63-.3M575,672.48c0,.26.9,1.95,2,3.75,1.1,1.8,2,4.44,2,5.88.01,7,4.06,12.01,8,9.9,2.79-1.5,2.94-5.28.39-10.21-1.96-3.79-12.39-11.64-12.39-9.32M145.41,700.83c-8.68,8.34-10.02,19.11-2.24,18,3.08-.44,4.8-4.24,4.82-10.64,0-2.92.49-6.21,1.08-7.3,2.07-3.88.36-3.9-3.65-.05M334.97,711.75c-14.24,37.72-14.17,57.48.26,67.02,14.93,9.88,28.04-2.34,19.89-18.55-12.3-24.45-14.42-31.52-16.07-53.47-.18-2.44-2.21.04-4.08,5M420,719.5c0,7.78-1.69,13.82-8.88,31.77-6.11,15.25-.18,23.81,12.31,17.76,12.58-6.09,13.35-21.04,2.42-46.78-5.2-12.24-5.85-12.55-5.85-2.75M516.37,717.48c2.18,18.53,16.66,35.35,24.06,27.95,4.23-4.23.48-12.5-8.46-18.67-6.95-4.79-13.97-11.5-13.97-13.34,0-.78-.51-1.42-1.14-1.42-.79,0-.94,1.67-.49,5.48M507.81,718.01c-.9,1.57-3.14,3.61-4.97,4.54-6.98,3.53-9.72,8.17-6.64,11.25,3.56,3.56,10.76-2.08,12.82-10.04.61-2.34,1.32-5.01,1.58-5.93.84-2.91-1.09-2.79-2.79.17M407.44,720.44c-2.71,2.75-7.05,5.44-13,8.05-18.85,8.26-26.3,17.65-19.44,24.51,8.62,8.62,29.65-8.18,36.02-28.78,3.04-9.84,2.72-10.18-3.58-3.77M537,716.87c0,4.82,10.15,16.13,14.48,16.13,7.53,0,5.34-9.13-2.55-10.63-4.26-.81-6.78-2.03-9.68-4.67-1.31-1.19-2.25-1.54-2.25-.83M176.38,719.02c-.61,1.36-4.31,4.73-8.21,7.48-7.88,5.55-10.83,9.73-9.8,13.85,1.9,7.56,13.32.43,17.58-10.97,2.29-6.12,2.67-15.34.43-10.36M185.97,718.69c-.2,13.54-.73,16.1-6.29,30.77-7.22,19.02-7.32,22.78-.7,25.53,11.19,4.63,20.63-5.75,19.82-21.8-.54-10.81-12.7-43.49-12.83-34.5M316.5,722.63c-2.62,4.87-8.5,9.18-21.79,15.98-20.93,10.7-29.13,23.13-20.79,31.47,11.1,11.1,36.39-10.52,44.48-38.01,3.03-10.3,1.82-16.34-1.9-9.44M435.42,724.75c3.67,21.4,30.15,44.27,38.1,32.91,4.79-6.84-2.49-16.48-17.02-22.52-10.04-4.17-16.76-8.4-18.5-11.64-1.99-3.71-3.32-3.07-2.58,1.24M201.29,730.09c2.73,20.36,27.82,42.89,37.26,33.45,7.03-7.03-.22-16.37-18.7-24.1-7.03-2.94-10.56-5.11-14.24-8.77l-4.89-4.87.57,4.29M477.02,728.54c-2.47,1.35-6.07,2.47-8,2.49-5.11.05-1.59,2.5,5.79,4.03,9.38,1.95,16.72-1.42,14.36-6.59-1.49-3.27-6.1-3.24-12.15.07M372.65,728.13c-1.13.66-3.96.81-7.3.39-6.55-.82-10.35,1.03-10.35,5.02,0,5.81,9.16,5.19,17.33-1.17,5.85-4.56,6.08-7.59.33-4.24M252,731c-7.87,7.87,5.18,13.66,20.27,9,8.47-2.62,10.74-5,4.77-5-2.49,0-7-1.23-11.04-3-8.01-3.51-11.25-3.75-14-1M510.56,734.88c-.82,1.58-3.69,4.46-6.38,6.4-6.78,4.87-7.78,11.72-1.71,11.72,4.84,0,8.83-6.25,10.1-15.83.77-5.83.17-6.51-2.01-2.29M442,756.02c0,7.95,6.61,18.98,11.37,18.98,5.78,0,5.37-7.55-.57-10.59-1.81-.93-4.98-3.5-7.04-5.71-2.06-2.22-3.75-3.42-3.75-2.68M206.06,760c-.17,11.23,7.8,21.74,12.74,16.8,2.41-2.41,1.18-5.33-4.55-10.8-3.16-3.03-6.29-6.4-6.94-7.5-1.08-1.81-1.2-1.67-1.25,1.5Z"/>
</svg>