<svg xmlns="http://www.w3.org/2000/svg" viewBox="0 0 798 792">
<path d="M 185.831 1.965 C 96.667 18.131, 57.064 196.135, 133.700 236.284 C 170.130 255.370, 217.594 240.589, 241.530 202.704 C 245.158 196.962, 245.327 196.949, 247.356 202.262 C 256.360 225.840, 290.235 222.426, 302.361 196.718 C 305.369 190.342, 306.427 190.130, 307.470 195.692 C 312.114 220.447, 342.357 220.494, 357.989 195.771 C 361.889 189.604, 363.008 189.498, 364.361 195.171 C 369.581 217.052, 405.251 216.285, 422.345 193.924 C 428.386 186.022, 428.133 186.113, 430.817 190.888 C 451.233 227.214, 513.323 203.441, 528.949 153.314 C 532.142 143.072, 531.590 143.103, 540.061 152.684 C 548.559 162.295, 548.566 161.890, 539.818 167.549 C 506.154 189.326, 509.645 225.048, 545.432 224.988 C 578.972 224.932, 595.300 196.769, 581.503 162.770 C 580.929 161.356, 582.327 160.315, 589.151 157.079 C 600.744 151.581, 600.075 151.469, 600.630 159 C 603.605 199.376, 634.354 211.504, 661.903 183.168 C 677.713 166.906, 687.878 134.595, 676.682 136.189 C 674.422 136.511, 673.901 137.364, 667.551 151.142 C 661.151 165.027, 650.984 175, 643.227 175 C 629.854 175, 627.709 150.241, 636.166 93.500 C 637.806 82.500, 639.404 71.769, 639.718 69.654 C 640.259 66.011, 640.445 65.839, 643.247 66.399 C 672.373 72.225, 701.562 66.819, 711.289 53.798 C 719.863 42.320, 717.112 23.970, 705.665 16.284 C 696.328 10.015, 688.127 11.156, 693.030 18.042 C 705.914 36.136, 685.018 53.486, 653.858 50.566 C 642.772 49.527, 643.221 50.591, 646.413 32.936 C 649.989 13.155, 648.223 10.310, 632.218 10.077 C 621.041 9.914, 618.646 12.741, 615.337 30.002 C 613.221 41.038, 613.417 40.929, 601.734 37.576 C 549.092 22.468, 509.102 30.624, 507.204 56.854 C 506.446 67.335, 510.098 68.522, 518.912 60.657 C 532.761 48.300, 556.194 46.798, 596.862 55.661 L 609.223 58.355 608.636 62.428 C 608.313 64.667, 607.158 72.575, 606.069 80 C 604.980 87.425, 603.578 99.800, 602.954 107.500 C 602.330 115.200, 601.523 124.644, 601.160 128.487 L 600.500 135.475 595.500 138.751 C 574.625 152.428, 575.630 152.538, 561.094 135 C 543.367 113.614, 539.999 104.642, 545.522 93.513 C 553.635 77.162, 571.199 85.704, 564 102.500 C 560.243 111.266, 562.183 116.719, 568.684 115.664 C 587.187 112.661, 586.771 79.978, 568.139 72.858 C 534.946 60.173, 506.355 94.842, 522.307 128.432 L 525.669 135.510 521.032 146.019 C 503.273 186.267, 464.389 201.621, 455.555 171.874 C 452.658 162.118, 452.887 161.665, 461.750 159.614 C 508.915 148.704, 523.359 81, 478.523 81 C 446.843 81, 419.449 122.196, 423.706 163.438 C 425.316 179.036, 405.159 196.313, 396.017 187.171 C 388.542 179.696, 388.175 158.592, 394.630 107.500 C 397.627 83.775, 396.269 85.715, 409.740 85.929 C 433.901 86.314, 448.163 79.293, 452.433 64.913 C 456.638 50.753, 450.014 41.973, 443.822 53.500 C 438.095 64.159, 429.747 68.011, 412.434 67.985 C 398.968 67.964, 399.660 69.151, 402.608 51.133 C 405.909 30.953, 404.832 29, 390.403 29 C 377.533 29, 376.089 30.539, 372.630 47.950 C 369.651 62.940, 371.239 61.867, 356.732 58.692 C 311.277 48.744, 285.374 51.963, 277.865 68.491 C 275.615 73.444, 275.494 78.351, 277.571 80.429 C 279.559 82.416, 278.527 82.681, 288.017 77.750 L 296.196 73.500 314.348 73.561 C 332.568 73.621, 339.800 74.488, 358 78.792 L 365.500 80.565 365.438 84.532 C 365.404 86.715, 364.398 95.925, 363.203 105 C 360.371 126.496, 359 144.329, 359 159.674 C 359 185.095, 339.561 205.089, 334.071 185.315 C 331.790 177.103, 333.040 157.267, 338.014 122.702 C 341.562 98.049, 340.871 95.416, 330.548 94.253 C 312.677 92.238, 310.642 95.497, 306.975 132 C 302.716 174.394, 294.923 195, 283.146 195 C 271.314 195, 269.701 172.173, 278.490 129.106 C 284.551 99.404, 283.749 96.998, 267.782 97.002 C 251.690 97.006, 248.849 103.947, 244.459 154 C 242.681 174.275, 242.356 175.263, 232.952 189 C 205.797 228.665, 160.644 231.941, 143.353 195.500 C 114.377 134.431, 160.804 4.919, 206.290 19.931 C 224.162 25.829, 224.606 69.295, 206.999 89.348 C 195.684 102.235, 181.951 94.898, 189.500 80 C 194.758 69.625, 188.914 63.746, 180.600 71.047 C 168.087 82.033, 172.633 110.273, 187.861 116.153 C 241.007 136.672, 271.044 33.265, 219.619 6.821 C 210.844 2.309, 195.832 0.151, 185.831 1.965 M 81.014 3.986 C 79.922 5.078, 78.739 7.778, 78.386 9.986 C 77.608 14.852, 77.678 14.845, 72.868 10.500 C 64.015 2.502, 56.455 11.314, 65.081 19.578 C 68.667 23.013, 68.749 24, 65.450 24 C 58.990 24, 54.495 29.320, 57 34.001 C 58.216 36.272, 61.688 36.397, 69.374 34.448 L 72.249 33.719 69.522 38.372 C 66.830 42.965, 66.713 46, 69.228 46 C 69.938 46, 71.081 46.900, 71.768 48 C 74.939 53.078, 83 48.358, 83 41.424 C 83 37.595, 84.243 36.383, 86 38.500 C 86.675 39.313, 87.620 39.735, 88.102 39.437 C 88.583 39.140, 88.727 39.548, 88.421 40.344 C 87.705 42.212, 91.658 45, 95.023 45 C 101.460 45, 101.891 38.497, 95.821 32.949 L 91.641 29.128 94.321 28.564 C 95.794 28.254, 98.119 27.768, 99.487 27.484 C 102.698 26.818, 105.398 22.723, 104.634 19.679 C 103.484 15.096, 96.828 14.161, 91.219 17.794 C 88.448 19.588, 87.458 18.881, 88.919 16.151 C 93.143 8.258, 86.683 -1.683, 81.014 3.986 M 75 22 C 72.325 24.675, 72.479 27.570, 75.455 30.545 C 80.035 35.126, 87 32.788, 87 26.671 C 87 23.123, 83.723 20, 80 20 C 78.333 20, 76.111 20.889, 75 22 M 478 29.107 C 478 29.716, 477.380 29.976, 476.622 29.685 C 474.662 28.933, 473 30.948, 473 34.078 C 473 39.152, 478.461 41.227, 482.553 37.708 C 485.908 34.822, 485.422 30.969, 481.477 29.171 C 478.305 27.726, 478 27.720, 478 29.107 M 474.500 98.844 C 464.260 105.113, 455.966 122.341, 453.602 142.250 C 452.241 153.716, 475.632 139.776, 482.828 124.832 C 491.545 106.731, 486.636 91.414, 474.500 98.844 M 741.343 105.524 C 729.464 110.626, 732.129 126.238, 745.134 127.740 C 754.214 128.789, 761.432 119.603, 757.501 112.002 C 754.433 106.069, 747.006 103.091, 741.343 105.524 M 545.842 178.750 C 532.162 189.108, 528.539 205.667, 539.005 210.002 C 552.201 215.468, 563.291 195.263, 556.462 178.196 C 554.343 172.900, 553.510 172.944, 545.842 178.750 M 770 181 C 765.462 185.538, 768.882 193, 775.500 193 C 779.866 193, 783 190.075, 783 186 C 783 181.925, 779.866 179, 775.500 179 C 773.333 179, 771.238 179.762, 770 181 M 743 247.873 C 739.965 248.692, 736.547 255.058, 737.373 258.351 C 738.474 262.738, 741.821 265.593, 744.154 264.136 C 745.284 263.430, 745.911 263.336, 745.546 263.926 C 744.168 266.155, 750.156 264.935, 752.602 262.489 C 756.433 258.658, 755.720 252.385, 751.102 249.283 C 747.528 246.882, 747.012 246.792, 743 247.873 M 163.921 273.482 C 104.199 283.543, 64.115 346.167, 96.602 378.655 C 111.159 393.212, 133.459 390.352, 121.929 375.408 C 91.933 336.527, 146.606 275.906, 197.649 291.450 C 239.010 304.045, 230.353 370.620, 186.053 380.624 C 177.144 382.636, 177.348 382.903, 178.867 371.218 C 187.132 307.630, 187.323 309.671, 172.916 307.510 C 157.192 305.152, 153.781 310.176, 149.501 342 C 131.259 477.661, 131.145 481.269, 145.001 485 C 162.226 489.638, 164.494 483.785, 173.289 412 L 174.575 401.500 178.840 401.190 C 231.717 397.346, 239.195 478.766, 187.830 499.074 C 136.655 519.306, 80.447 468.871, 115.915 434.547 C 120.596 430.017, 120.770 429.248, 117.927 425.635 C 108.393 413.514, 86.051 434.617, 85.184 456.560 C 81.889 540.031, 233.668 549.626, 255.085 467.300 C 263.408 435.309, 249.341 404.871, 220.640 392.768 L 214.881 390.339 223.190 385.530 C 293.036 345.104, 247.687 259.370, 163.921 273.482 M 550.500 354.670 C 540.911 358.675, 532.185 367.496, 526.680 378.750 C 523.686 384.873, 523.446 384.265, 523.848 371.580 L 524.211 360.160 521.155 358.580 C 516.828 356.343, 506.420 356.493, 501.984 358.857 C 496.888 361.573, 496.502 363.695, 494.047 402.500 L 491.834 437.500 488.681 442.791 C 471.704 471.279, 462.889 457.177, 470.059 413 C 473.151 393.943, 473.159 378.106, 470.077 371.744 C 460.356 351.671, 430.820 358.190, 417.962 383.246 C 413.407 392.123, 413.153 391.882, 413.742 379.250 C 414.389 365.396, 413.657 364.477, 402.026 364.545 C 393.738 364.593, 390.123 366.034, 387.909 370.169 C 386.665 372.495, 383.105 419.558, 383.039 434.554 C 382.958 453.336, 367.280 471.011, 359.722 460.841 C 355.828 455.602, 356.243 441.411, 361.543 398.696 C 365.181 369.369, 364.999 368.804, 351.687 368.214 C 336.280 367.532, 334.779 369.892, 331.475 400 C 326.717 443.356, 321.532 459.745, 310.752 465.499 C 296.506 473.105, 294.240 446.955, 304.500 393.339 C 307.565 377.319, 306.513 374.020, 297.714 372.048 C 289.598 370.229, 280.620 372.598, 277.483 377.385 C 271.135 387.074, 267.085 456.002, 271.963 471.346 C 279.777 495.924, 310.749 494.906, 325.030 469.601 C 328.570 463.328, 329.708 462.737, 330.515 466.750 C 334.673 487.423, 357.519 491.641, 374.323 474.837 C 381.203 467.957, 381 468.027, 381 472.545 C 381 478.662, 384.403 481, 393.305 481 C 408.021 481, 409.312 479.430, 411.004 459.475 C 414.567 417.437, 426.699 383.624, 439.357 380.446 C 446.335 378.695, 447.260 385.602, 443.115 408.500 C 434.617 455.449, 437.280 473.752, 453.237 478.069 C 463.667 480.891, 475.221 476.915, 483.768 467.563 C 489.645 461.133, 490 460.984, 490 464.953 C 490 472.955, 495.436 476.018, 506.257 474.112 C 518.707 471.919, 518.944 471.504, 520.921 448.500 C 523.679 416.407, 532.213 390.035, 543.695 378.123 C 554.272 367.149, 557.655 375.909, 552.943 402.075 C 543.146 456.475, 547.835 473.411, 572.240 471.779 C 582.955 471.062, 597.375 462.696, 599.514 455.955 C 600.441 453.035, 602.588 453.592, 604.055 457.133 C 612.218 476.841, 644.834 472.887, 656.089 450.825 C 657.895 447.285, 659.711 445.377, 660.511 446.178 C 660.719 446.386, 659.902 454.375, 658.695 463.931 L 656.500 481.306 647.705 483.640 C 609.509 493.773, 587.565 517.752, 589.264 547.500 C 590.978 577.506, 618.702 594.774, 644.655 581.999 C 663.385 572.779, 672.805 553.491, 680.279 509.054 L 683.500 489.907 692.254 486.968 C 725.590 475.778, 742.588 447.453, 724.899 432.568 C 717.008 425.928, 707.632 429.461, 713.029 437.041 C 720.257 447.192, 711.787 462.750, 694.555 470.974 C 685.873 475.117, 685.608 475.046, 686.282 468.750 C 688.034 452.393, 694.355 399.392, 696.035 386.971 C 699.694 359.918, 697.555 355, 682.128 355 C 670.818 355, 668.444 359.222, 665.945 383.785 C 661.987 422.675, 653.135 444.401, 640 447.461 C 626.858 450.523, 626.003 430.359, 637.389 385.861 C 644.323 358.764, 642.413 353.590, 625.456 353.526 C 610.347 353.470, 603.865 372.001, 600.457 425 C 599.267 443.509, 586.321 457.510, 578.959 448.250 C 576.173 444.747, 576.604 430.442, 580.094 410.500 C 587.888 365.970, 576.207 343.934, 550.500 354.670 M 6.153 465.750 C 0.806 470.275, 3.811 478, 10.918 478 C 15.493 478, 18 475.596, 18 471.210 C 18 465.151, 10.789 461.827, 6.153 465.750 M 644.698 500.433 C 613.403 513.302, 596.083 547.088, 612.584 563.081 C 627.952 577.977, 643.916 554.938, 652.308 505.750 C 653.858 496.666, 653.859 496.666, 644.698 500.433 M 747.325 513.411 C 738.740 517.275, 738.571 531.357, 747.095 532.588 C 748.418 532.779, 750.400 533.109, 751.500 533.322 C 754.967 533.992, 762.006 529.837, 762.639 526.747 C 762.780 526.061, 763.152 524.265, 763.466 522.756 C 764.822 516.241, 754.419 510.219, 747.325 513.411 M 39.923 528.923 C 32.994 535.853, 38.107 548, 47.954 548 C 54.850 548, 59 543.976, 59 537.288 C 59 527.553, 46.690 522.156, 39.923 528.923 M 172.176 546.007 C 108.204 554.992, 64.541 619.188, 94.575 660.102 C 108.080 678.500, 135.152 678.152, 123.153 659.735 C 92.070 612.026, 155.905 542.173, 207.500 567.437 C 255.826 591.100, 235.204 687, 181.790 687 C 180.222 687, 179.002 686.452, 179.004 685.750 C 179.011 683.625, 184.814 636.511, 187.472 617 C 191.670 586.182, 189.350 580.656, 172.217 580.672 C 156.032 580.686, 156.418 579.249, 142.982 689.500 C 130.971 788.050, 131.101 790.418, 148.500 790.415 C 167.661 790.413, 168.388 788.922, 173.079 740 C 176.549 703.814, 176.194 705, 183.550 705 C 227.315 705, 261.464 677.893, 268.587 637.500 C 278.803 579.558, 234.260 537.286, 172.176 546.007 M 556.522 571.353 C 547.051 574.207, 541.051 610.019, 535.973 694 C 534.488 718.551, 530.471 727.450, 515.739 738.815 C 480.124 766.293, 454.526 724.540, 477.536 676.500 C 489.740 651.022, 512.024 652.478, 500.500 678 C 495.172 689.800, 495.894 694, 503.250 694 C 525.393 694, 528.267 655.244, 506.808 646.013 C 474.112 631.947, 440.864 666.900, 439.284 717 C 438.712 735.147, 438.674 735.268, 431.093 743.313 C 405.846 770.104, 398.868 740.691, 411.066 658.893 L 412.201 651.286 426.350 650.724 C 450.149 649.778, 463.644 643.395, 467.840 631.101 C 472.465 617.548, 463.715 608.015, 457.435 619.765 C 452.138 629.677, 441.901 634, 423.727 634 C 414.208 634, 414.452 634.550, 416.994 618.807 C 419.818 601.310, 418.618 599.338, 405 599.105 C 392.249 598.887, 390.108 600.833, 386.966 615.500 C 384.273 628.069, 386.030 627.359, 368.424 622.989 C 333.647 614.357, 311.072 613.938, 296.885 621.659 C 285.745 627.722, 282.455 646.598, 293.330 642.053 C 313.760 633.517, 327.473 633.335, 364.115 641.113 C 382.923 645.105, 381.316 643.171, 379.011 659.048 C 376.173 678.602, 374.012 705.464, 374.006 721.283 C 373.999 737.391, 372.555 741.540, 363.965 750.131 C 347.165 766.930, 343.833 746.934, 353.220 685.662 C 357.023 660.835, 356.933 660.360, 347.981 658.159 C 338.505 655.830, 327 659.677, 327 665.174 C 327 667.736, 324.767 667.445, 322.024 664.525 C 313.393 655.338, 291.667 657.407, 277.370 668.777 C 256.363 685.484, 245.480 733.104, 256.146 761.653 C 266.285 788.792, 299.961 787.347, 315.441 759.108 C 319.900 750.973, 320.673 750.546, 321.519 755.750 C 325.906 782.757, 355.842 784.884, 373.181 759.419 C 376.152 755.055, 376.191 755.065, 380.036 761.056 C 392.295 780.159, 422.567 776.745, 439.077 754.396 C 443.800 748.003, 443.984 747.958, 446.485 752.602 C 459.499 776.767, 504.686 773.289, 527.662 746.353 L 532.500 740.681 533.044 748.965 C 533.769 760.009, 535.761 762, 546.088 762 C 559.524 762, 561.989 759.649, 563.161 745.716 C 566.826 702.139, 581.166 664.538, 595.304 661.433 C 602.990 659.745, 603.376 664.278, 598.050 693.688 C 586.712 756.289, 592.501 782.603, 618.814 788.065 C 636.974 791.835, 648.440 781.821, 635.467 773.522 C 621.205 764.399, 618.727 745.198, 626.044 700.500 C 631.656 666.209, 630.660 652.442, 621.998 644.617 C 608.049 632.015, 583.623 641.744, 571.799 664.613 C 569.984 668.122, 568.127 670.994, 567.670 670.996 C 566.386 671.002, 569.335 644.701, 575.055 605.131 C 578.516 581.196, 578.716 575.930, 576.250 573.797 C 572.015 570.134, 563.901 569.129, 556.522 571.353 M 720.043 582.940 C 704.749 604.419, 707.014 638.791, 724.493 650.469 C 747.729 665.992, 774.073 642.171, 774.408 605.335 C 774.535 591.339, 773.495 591.018, 762.127 601.543 C 758.724 604.694, 755.787 607.098, 755.602 606.886 C 755.417 606.674, 754.531 602.083, 753.633 596.684 C 750.940 580.497, 749.242 580.375, 738.345 595.589 C 734.124 601.481, 733.087 602.047, 732.265 598.904 C 729.285 587.511, 722.810 579.053, 720.043 582.940 M 49.567 609.257 C 48.622 610.699, 46.781 614.937, 45.475 618.673 C 42.526 627.114, 42.088 627.250, 37.592 621.125 C 33.797 615.956, 27.598 610, 26.012 610 C 24.639 610, 22.988 616.580, 22.312 624.750 C 21.620 633.105, 21.511 633.173, 16.360 628.490 C 14.237 626.559, 10.387 623.653, 7.805 622.033 L 3.110 619.086 2.416 623.708 C -0.433 642.713, 12.983 669.512, 27.814 674.438 C 33.134 676.205, 45.904 676.750, 46.872 675.251 C 47.218 674.716, 48.917 673.553, 50.650 672.666 C 67.768 663.898, 69.238 628.452, 53.287 609.067 L 51.286 606.634 49.567 609.257 M 658.455 611.455 C 655.374 614.535, 655.322 618.014, 658.314 620.826 C 661.389 623.714, 666.039 623.652, 668.826 620.686 C 675.254 613.843, 665.102 604.807, 658.455 611.455 M 659.073 612.635 C 655.377 617.333, 657.027 620.992, 663.075 621.506 C 665.421 621.706, 666.355 621.262, 667.012 619.634 C 667.541 618.322, 667.904 618.078, 667.952 619 C 668.022 620.333, 668.138 620.333, 669 619 C 672.959 612.874, 663.603 606.875, 659.073 612.635 M 302.119 680.028 C 278.293 697.288, 275.899 770.554, 299.634 756.081 C 309.686 749.952, 315.766 733.789, 320.541 700.500 L 323.124 682.500 320.046 679.750 C 315.520 675.705, 307.924 675.823, 302.119 680.028 M 651.684 723.437 C 644.426 726.048, 641 730.975, 641 738.802 C 641 758.840, 670.944 760.277, 672.705 740.324 C 673.739 728.606, 662.474 719.556, 651.684 723.437 M 778.832 740.529 C 775.372 742.408, 774.225 747.169, 776.424 750.525 C 781.209 757.827, 793.416 752.246, 790.111 744.267 C 788.125 739.473, 783.561 737.961, 778.832 740.529" stroke="none" fill="#c5173d" fill-rule="evenodd"/>
<path d="M 739.500 38.131 C 734.224 41.080, 733.287 47.508, 737.635 50.927 C 743.163 55.276, 750 51.911, 750 44.841 C 750 39.359, 744.075 35.573, 739.500 38.131 M 63.787 50.296 C 57.678 64.772, 55.099 76.916, 54.187 95.500 L 53.500 109.500 49.688 100.502 C 42.576 83.714, 23.936 59.664, 20.612 62.988 C 9.400 74.200, 32.042 122.920, 54.145 135.142 C 56.736 136.575, 59.182 138.971, 60.380 141.250 C 64.351 148.801, 67.400 145.466, 64.448 136.801 L 62.896 132.245 67.327 125.873 C 79.080 108.970, 89.297 76, 82.782 76 C 77.585 76, 67.129 89.877, 62.942 102.330 L 60.195 110.500 59.454 106.580 C 57.632 96.937, 60.784 71.869, 65.564 57.981 C 69.167 47.515, 69.339 46.526, 67.783 45.235 C 66.667 44.308, 65.908 45.269, 63.787 50.296 M 736.006 129.992 C 732.639 134.720, 715.161 167.878, 708.987 181.250 C 703.259 193.658, 702 195.153, 702 189.549 C 702 181.206, 697.266 167.411, 694.697 168.268 C 689.615 169.962, 687.635 196.138, 691.749 207.223 C 693.711 212.508, 693.757 213.180, 692.345 216.011 C 689.416 221.882, 692.748 224.237, 696.054 218.633 C 697.690 215.860, 698.809 215.161, 702.395 214.669 C 724.679 211.615, 755.927 190.367, 743.435 186.762 C 737.056 184.921, 722.927 188.075, 713.201 193.511 C 710.723 194.896, 708.553 195.886, 708.378 195.711 C 707.660 194.993, 721.060 165.635, 727.216 154.442 C 738.753 133.464, 744.076 118.659, 736.006 129.992 M 440.180 223.499 C 438.174 226.049, 436.911 231.649, 434.802 247.348 C 433.438 257.501, 433.935 257.059, 421.694 259.033 C 412.197 260.565, 412.795 261.350, 414.551 249.659 C 416.424 237.193, 414.920 234, 407.177 234 C 401.782 234, 400.234 236.451, 398.142 248.299 C 395.871 261.158, 397.425 259.753, 386.289 259.019 C 375.154 258.284, 376.008 259.266, 377.576 249 C 379.217 238.252, 377.961 235.677, 370.847 235.203 C 364.903 234.807, 363.361 236.677, 361.908 246.043 C 360.296 256.430, 360.551 256, 355.999 256 C 343.455 256, 340.858 263.924, 352.678 266.132 C 358.801 267.276, 358.484 265.972, 356.631 282.382 C 355.734 290.331, 355 301.229, 355 306.601 C 355 319.913, 349.420 331, 342.721 331 C 337.098 331, 336.327 322.808, 339.441 296.155 C 341.954 274.643, 341.457 273, 332.432 273 C 325.062 273, 323.654 277.916, 321.462 311.323 C 320.510 325.822, 314.105 335.755, 307.136 333.543 C 300.938 331.576, 301.654 306.343, 309.416 253.066 C 312.366 232.824, 311.595 230, 303.122 230 C 297.234 230, 295.216 233.211, 293.066 246 C 285.486 291.083, 283.280 328.687, 287.658 338.166 C 292.827 349.356, 306.739 350.232, 316.810 340.001 L 321.558 335.178 323.761 339.005 C 328.845 347.840, 341.163 346.763, 350.987 336.626 L 355.379 332.094 357.077 334.886 C 363.387 345.261, 378.705 344.552, 388.977 333.409 L 392.820 329.240 395.160 332.870 C 401.427 342.592, 416.175 341.928, 426.336 331.466 L 429.784 327.915 431.868 331.286 C 437.256 340.004, 449.002 339.115, 459.216 329.214 L 463.931 324.643 466.060 327.349 C 474.896 338.582, 495.679 336.606, 508.071 323.354 C 517.124 313.672, 522.936 295, 516.897 295 C 516.510 295, 514.558 298.219, 512.559 302.153 C 504.109 318.786, 492.316 326.368, 483.687 320.715 C 478.751 317.480, 474.762 308, 478.337 308 C 499.858 308, 515.541 271.998, 498.016 262.824 C 479.735 253.255, 461.062 274.590, 461.015 305.100 C 460.999 315.498, 458.194 321.857, 452.710 323.929 C 443.078 327.567, 442.844 312.485, 451.538 248.329 C 454.432 226.972, 454.512 224.655, 452.429 222.571 C 449.806 219.948, 442.540 220.498, 440.180 223.499 M 87.886 231.750 C 85.338 238.329, 84.628 245.912, 85.833 253.664 C 86.487 257.870, 86.744 261.579, 86.403 261.906 C 85.351 262.917, 69.749 245.622, 65 238.179 C 60.473 231.085, 58.754 229.946, 58.201 233.675 C 57.869 235.909, 66.117 247.573, 75.330 257.898 C 81.914 265.277, 81.900 265.573, 75.020 264.098 C 60.120 260.902, 35.547 266.135, 40.039 271.547 C 47.136 280.099, 72.927 283.260, 88.748 277.518 L 95.311 275.135 98.645 277.679 C 101.728 280.030, 105 280.282, 105 278.167 C 105 277.675, 103.274 276.076, 101.164 274.614 L 97.328 271.955 97.774 259.228 C 98.429 240.544, 91.710 221.874, 87.886 231.750 M 327.954 244.750 C 322.513 249.612, 322.902 260.267, 328.615 262.870 C 333.993 265.321, 339.858 262.925, 342.593 257.162 C 347.582 246.650, 336.419 237.186, 327.954 244.750 M 545.916 268.219 C 548.191 270.696, 549.458 273.169, 549.710 275.626 C 550.853 286.764, 560.474 289.120, 564.638 279.282 C 568.772 269.515, 563.810 262.380, 556.137 267.058 C 554.288 268.185, 552.667 268.971, 552.535 268.804 C 552.403 268.637, 551.786 267.600, 551.165 266.500 C 550.201 264.795, 550.124 264.979, 550.642 267.750 C 550.976 269.538, 550.878 271, 550.423 271 C 549.968 271, 547.999 269.538, 546.048 267.750 L 542.500 264.500 545.916 268.219 M 426.888 268.445 C 426.643 268.690, 423.317 269.390, 419.496 270.001 C 415.676 270.611, 412.248 271.599, 411.879 272.195 C 408.931 276.966, 407.634 317.043, 410.231 323.104 C 414.443 332.931, 427.896 323.441, 428.699 310.077 C 429.488 296.941, 431.105 276.175, 431.644 272.250 C 432.191 268.261, 429.347 265.986, 426.888 268.445 M 736.367 273.050 C 720.769 294.306, 706.702 313.002, 705.656 313.870 C 704.684 314.677, 704.405 312.697, 704.364 304.700 C 704.298 291.841, 700.061 279, 695.884 279 C 690.985 279, 690.925 309.863, 695.798 322.991 C 696.569 325.068, 696.163 326.216, 693.361 329.885 C 687.757 337.226, 690.411 341.105, 696.151 333.962 C 699.323 330.015, 699.361 330, 706.457 330 C 721.742 330, 742.272 320.841, 737.554 316.126 C 735.450 314.025, 716.794 313.814, 713.164 315.851 C 708.727 318.342, 712.812 311.381, 728.923 289 C 735.695 279.593, 741.220 270.161, 740.763 268.788 C 740.545 268.135, 738.567 270.053, 736.367 273.050 M 374.597 270.888 C 371.433 276.407, 370.429 323.600, 373.405 326.892 C 380.489 334.730, 391.963 321.432, 392.045 305.290 C 392.069 300.455, 392.693 290.875, 393.431 284 C 394.169 277.125, 394.711 271.445, 394.636 271.377 C 394.081 270.878, 374.871 270.409, 374.597 270.888 M 487.238 272.645 C 483.220 274.332, 477 288.369, 477 295.749 C 477 299.713, 479.045 299.607, 484.728 295.350 C 495.049 287.618, 497.166 268.474, 487.238 272.645 M 537 281.420 C 537 281.725, 540.117 283.544, 543.926 285.463 C 550.625 288.836, 554.397 291.867, 550.375 290.644 C 542.986 288.398, 531.760 287.017, 536.500 288.937 C 537.600 289.382, 540.772 290.059, 543.548 290.439 C 549.456 291.250, 549.730 291.412, 552.977 296 C 554.779 298.548, 555.628 301.388, 556.097 306.440 C 557.365 320.111, 574.106 322.667, 577.364 309.688 C 578.278 306.045, 587.687 303.617, 595.348 305.046 C 598.564 305.647, 601.452 305.882, 601.765 305.569 C 602.077 305.256, 601.358 305, 600.167 305 C 597.299 305, 597.432 304.349, 600.891 301.438 C 602.481 300.101, 604.050 297.939, 604.377 296.635 C 604.868 294.679, 605.778 294.172, 609.573 293.745 C 616.289 292.988, 617.381 291.183, 610.809 291.700 C 605.027 292.156, 605.230 291.508, 612.061 287.719 C 613.826 286.739, 615.004 285.671, 614.678 285.345 C 614.352 285.019, 612.434 285.726, 610.417 286.917 C 608.399 288.107, 606.641 288.950, 606.509 288.791 C 606.378 288.631, 605.733 287.466, 605.075 286.202 C 600.935 278.250, 587 284.216, 587 293.942 C 587 296.198, 587.798 298.744, 588.972 300.237 L 590.944 302.744 587.222 303.271 C 585.175 303.561, 582.150 304.366, 580.500 305.060 C 578.850 305.755, 577.050 306.195, 576.500 306.038 C 569.363 304.003, 568.525 304.066, 566.325 306.798 C 563.616 310.162, 561.600 308.755, 561.600 303.500 C 561.600 301.575, 561.256 300, 560.835 300 C 558.090 300, 552.940 293.551, 553.532 290.855 C 554.009 288.682, 553.792 288, 552.623 288 C 551.779 288, 548.887 286.702, 546.196 285.116 C 541.107 282.115, 537 280.465, 537 281.420 M 545.001 326 C 539.283 327.935, 533.972 332.666, 534.036 335.766 C 534.065 337.164, 534.501 336.997, 536.286 334.905 C 538.441 332.379, 542.743 329.989, 541.493 332.011 C 541.157 332.555, 541.391 333, 542.012 333 C 542.666 333, 542.480 333.663, 541.571 334.571 C 538.266 337.876, 539.899 339.296, 543.434 336.192 C 545.323 334.533, 547.798 332.881, 548.934 332.521 C 550.070 332.160, 551 331.460, 551 330.964 C 551 330.468, 551.749 330.350, 552.664 330.701 C 553.675 331.089, 554.079 330.937, 553.694 330.314 C 553.301 329.678, 553.999 329.468, 555.530 329.761 C 559.187 330.460, 558.527 328.664, 554.242 326.256 C 550.513 324.160, 550.440 324.158, 545.001 326 M 33.363 359.500 C 30.286 373.763, 33.113 408.906, 39.072 430.480 C 40.132 434.319, 41 437.641, 41 437.863 C 41 438.084, 37.472 434.895, 33.160 430.775 C 21.828 419.949, 1.966 410.687, 2.010 416.250 C 2.099 427.728, 24.140 449.565, 42.335 456.202 C 45.544 457.372, 48.735 459.268, 49.425 460.415 C 50.116 461.562, 52.604 465.762, 54.955 469.750 C 62.317 482.237, 65.601 478.579, 58.584 465.707 C 53.299 456.011, 53.174 455.100, 56.371 449.588 C 65.064 434.600, 71.656 406.084, 68.393 397.582 C 65.467 389.957, 52.150 410.310, 49.326 426.723 C 47.570 436.931, 47.421 437.223, 45.940 433.389 C 41.436 421.733, 38.002 400.580, 37.028 378.500 C 36.164 358.908, 34.902 352.365, 33.363 359.500 M 763 392.173 C 763 416.217, 759.384 439.872, 757.064 431 C 753.682 418.064, 749.869 410.167, 744.170 404.295 C 737.455 397.376, 736.251 397.144, 735.431 402.611 C 733.705 414.119, 737.205 426.584, 746.974 443.732 L 753.679 455.500 750.839 461.843 C 745.753 473.207, 749.301 475.602, 754.776 464.500 C 756.539 460.925, 758.447 458, 759.015 458 C 768.532 458, 792.194 430.477, 794.601 416.607 C 796.123 407.836, 778.263 417.845, 768.339 431.325 C 763.678 437.657, 762.991 437.077, 764.976 428.488 C 766.865 420.312, 768.054 390.877, 766.728 385.082 C 764.397 374.885, 763 377.541, 763 392.173 M 436.161 489.305 C 434.930 490.789, 432 506.525, 432 511.656 C 432 515.704, 430.639 516.404, 420.750 517.447 C 416.413 517.905, 414 517.799, 414 517.152 C 414 516.598, 414.476 512.723, 415.058 508.541 C 416.290 499.678, 415.875 497.720, 412.434 496.152 C 404.671 492.615, 400.944 497.282, 399.777 512 L 399.500 515.500 389.500 515.574 C 377.423 515.664, 374.748 516.737, 375.192 521.316 L 375.500 524.500 386.393 525.227 C 399.532 526.103, 398.271 524.736, 396.888 536.604 C 391.507 582.756, 402.670 602.305, 423.377 582.990 L 427.500 579.143 428.527 582.822 C 429.495 586.288, 429.812 586.517, 434.027 586.794 C 441.382 587.277, 442.184 586.074, 443.118 573.154 C 444.024 560.612, 446.947 546.985, 450.024 540.953 C 455.829 529.575, 461.012 530.906, 459.037 543.268 C 457.062 555.630, 455.968 569.568, 456.626 573.974 C 458.501 586.530, 472.327 587.814, 481.970 576.328 L 485.221 572.456 488.897 576.132 C 500.420 587.656, 522.540 580.558, 530.520 562.776 C 535.948 550.681, 533.068 543.351, 527.481 555.041 C 520.900 568.809, 508.233 575.079, 501.203 568.049 C 496.407 563.254, 496.088 558, 500.592 558 C 518.278 558, 530.821 526.164, 516.128 518.566 C 499.379 509.905, 480.133 532.016, 482.327 557.399 C 482.899 564.011, 480.026 570.311, 475.707 571.917 C 470.069 574.013, 469.106 569.215, 471.459 550.767 C 474.172 529.503, 471.696 522, 461.967 522 C 455.704 522, 446 529.771, 446 534.787 C 446 535.244, 445.346 536.491, 444.546 537.559 C 443.196 539.361, 443.123 539.249, 443.533 536 C 448.447 497.076, 448.825 491.076, 446.465 489.351 C 444.108 487.627, 437.578 487.599, 436.161 489.305 M 292.455 510.455 C 286.852 516.057, 290.877 525, 299 525 C 304.401 525, 308 521.601, 308 516.500 C 308 511.399, 304.401 508, 299 508 C 295.990 508, 294.261 508.648, 292.455 510.455 M 253 524.689 C 246.018 527.353, 246.185 536.810, 253.259 539.320 C 255.477 540.107, 259.933 538.453, 261.637 536.211 C 265.780 530.757, 259.401 522.246, 253 524.689 M 424.500 525.990 C 422.850 526.415, 419.803 526.817, 417.729 526.882 C 412.364 527.050, 410 537.838, 410 562.154 C 410 584.609, 427.543 580.051, 428.594 557.323 C 428.793 553.020, 429.235 544.440, 429.576 538.256 C 429.917 532.072, 430.176 526.672, 430.151 526.256 C 430.087 525.187, 427.994 525.089, 424.500 525.990 M 504.223 529.262 C 499.400 534.397, 494.817 551, 498.223 551 C 505.141 551, 514.126 535.705, 511.393 528.582 C 510.510 526.282, 506.682 526.645, 504.223 529.262 M 342 530.121 C 338.472 531.523, 334.149 535.853, 331.888 540.250 C 329.521 544.852, 328.970 544.975, 329.644 540.750 C 330.732 533.924, 326.743 529.844, 320.513 531.407 C 315.752 532.602, 315.109 535.131, 314.211 556.206 C 313.400 575.244, 313.293 575.960, 310.647 579.958 C 300.843 594.771, 296.852 581.688, 301.530 550.074 C 303.834 534.502, 299.185 528.643, 290.560 536.250 C 285.467 540.742, 282.106 583.124, 286.244 590.689 C 290.791 599.003, 304.628 599.046, 310.462 590.763 C 312.093 588.448, 313.944 589.482, 313.985 592.731 C 314.008 594.635, 318.296 595.267, 322.856 594.039 C 327.635 592.752, 327.413 593.395, 328.909 576.500 C 330.822 554.886, 336.614 540.021, 342.676 541.171 C 345.224 541.654, 345.450 545.511, 343.574 556.516 C 338.869 584.118, 341.349 593.049, 353.700 592.978 C 362.706 592.926, 370.484 586.022, 373.596 575.317 C 376.866 564.068, 372.962 561.090, 368.551 571.468 C 359.874 591.884, 353.517 584.812, 356.987 558.602 C 360.270 533.797, 355.510 524.749, 342 530.121 M 499.460 601.065 C 499.098 601.651, 499.092 603.676, 499.446 605.565 C 500.195 609.556, 499.330 609.834, 495.513 606.832 C 492.247 604.263, 489.500 605.303, 489.500 609.109 C 489.500 610.846, 490.388 611.891, 492.750 612.930 C 496.757 614.694, 496.815 615.420, 493.072 616.970 C 489.891 618.288, 488.736 620.148, 489.638 622.500 C 490.425 624.549, 493 624.347, 496 622 C 499.577 619.202, 500 619.466, 500 624.500 C 500 628.633, 500.204 629, 502.500 629 C 504.796 629, 505 628.633, 505 624.500 C 505 619.328, 505.095 619.271, 508.968 622.135 C 512.397 624.670, 515 624.014, 515 620.615 C 515 618.857, 514.154 617.793, 512 616.840 C 508.180 615.149, 508.226 614.511, 512.250 613.357 C 514.971 612.577, 515.500 611.945, 515.500 609.476 C 515.500 605.693, 512.790 605.040, 508.930 607.894 C 505.890 610.141, 504.441 609.337, 505.503 605.991 C 506.921 601.523, 501.771 597.325, 499.460 601.065 M 689.545 655.250 C 681.360 674.911, 682.489 700.632, 693.040 734.888 C 698.070 751.219, 698.299 750.456, 681.840 772.223 C 674.718 781.642, 674.302 786, 680.526 786 C 683.223 786, 684.869 784.149, 694.955 769.770 L 703.183 758.040 712.592 753.584 C 743.207 739.081, 768.253 710.080, 773.334 683.250 C 775.530 671.656, 740.550 694.136, 725.320 714.107 C 720.742 720.111, 720.583 719.961, 723.043 711.948 C 730.112 688.921, 737.577 657.159, 736.228 655.849 C 735.828 655.460, 734.291 654.843, 732.813 654.478 C 729.906 653.760, 729.990 653.590, 726.994 666.250 C 724.087 678.535, 712.395 718.987, 711.750 718.993 C 711.337 718.997, 710.998 715.513, 710.996 711.250 C 710.982 684.107, 694.953 642.260, 689.545 655.250 M 44.502 676 C 42.780 676.298, 41.387 677.228, 41.199 678.205 C 40.544 681.604, 53.921 724.363, 58.073 732.142 L 59.331 734.500 56.269 732 C 54.585 730.625, 50.123 726.883, 46.354 723.684 C 34.787 713.869, 12 704.126, 12 708.995 C 12 723.915, 42.300 750.556, 66.256 756.697 C 72.730 758.356, 73.694 758.965, 78.368 764.334 C 89.808 777.477, 96.353 772.896, 85.443 759.383 C 79.129 751.563, 79.299 753.310, 82.924 733.500 C 86.593 713.451, 83.766 681.960, 78.301 682.007 C 72.998 682.052, 66.042 708.534, 67.467 723.250 C 67.827 726.962, 67.841 730, 67.498 730 C 65.794 730, 55.572 703.639, 50.688 686.649 L 47.479 675.484 44.502 676" stroke="none" fill="#1f574f" fill-rule="evenodd"/>
<path d="M 480.557 18.223 C 479.701 19.445, 479 21.668, 479 23.163 C 479 27.441, 477.344 27.385, 474.894 23.025 C 471.778 17.482, 466 16.569, 466 21.620 C 466 24.084, 473.119 31.146, 474.472 30.023 C 475.138 29.470, 476.005 29.338, 476.396 29.730 C 476.788 30.122, 477.463 29.870, 477.895 29.170 C 479.080 27.253, 483.904 29.768, 484.636 32.684 C 485.793 37.294, 480.504 40.897, 475.930 38.615 C 472.334 36.821, 466 41.211, 466 45.497 C 466 50.656, 472.562 48.886, 474.968 43.077 C 476.697 38.904, 478 39.204, 478 43.777 C 478 49.983, 482.065 54.036, 484.883 50.641 C 485.729 49.622, 485.634 48.214, 484.505 45.015 C 482.383 39.001, 482.544 38.750, 486.708 41.577 C 491.234 44.648, 495.357 44.509, 495.817 41.270 C 496.071 39.480, 495.219 38.595, 491.508 36.792 L 486.883 34.545 491.691 32.937 C 496.745 31.247, 498.135 29.072, 495.889 26.367 C 494.628 24.846, 491.439 24.890, 487.719 26.477 C 486.123 27.159, 486.007 26.810, 486.596 23.124 C 487.627 16.678, 483.809 13.580, 480.557 18.223 M 75 22 C 72.325 24.675, 72.479 27.570, 75.455 30.545 C 80.035 35.126, 87 32.788, 87 26.671 C 87 23.123, 83.723 20, 80 20 C 78.333 20, 76.111 20.889, 75 22 M 267.455 27.455 C 262.763 32.146, 265.834 40, 272.360 40 C 275.834 40, 280 35.910, 280 32.500 C 280 29.166, 275.834 25, 272.500 25 C 271.075 25, 268.805 26.105, 267.455 27.455 M 748.299 72.250 C 744.520 76.399, 743.618 79.442, 743.057 89.924 L 742.500 100.348 738.500 92.437 C 733.165 81.886, 727.553 76, 722.826 76 C 712.521 76, 714.223 87.712, 726.437 100.846 C 729.772 104.431, 731.600 107.012, 730.500 106.581 C 713.112 99.761, 706.170 98.836, 702.878 102.902 C 696.714 110.515, 707.769 119.678, 722.181 118.901 C 728.737 118.548, 729.783 118.916, 726.500 120.420 C 724.850 121.175, 721.341 122.791, 718.702 124.009 C 706.549 129.621, 701.972 140.758, 710.487 143.995 C 715.102 145.750, 730.543 137.559, 734.272 131.378 C 736.123 128.311, 738.269 126.869, 739.361 127.961 C 740.146 128.746, 740.109 129.597, 739.225 131.011 C 738.551 132.090, 738 133.654, 738 134.486 C 738 135.319, 737.625 136, 737.167 136 C 736.708 136, 736.291 136.563, 736.240 137.250 C 736.189 137.938, 735.397 140.525, 734.481 143 C 730.073 154.911, 737.088 164.393, 745.024 157.250 C 748.839 153.816, 750.941 143.642, 749.309 136.509 C 747.587 128.982, 749.468 129.647, 753.348 137.938 C 760.074 152.306, 769.247 158.805, 774.542 152.954 C 778.908 148.130, 775.575 140.315, 764.571 129.574 C 761.232 126.315, 759.400 123.987, 760.500 124.402 C 778.107 131.040, 786.444 132.002, 790.580 127.871 C 798.229 120.232, 787.617 113.078, 768.551 113.021 L 761.602 113 769.014 109.250 C 783.009 102.170, 789.279 93.279, 784 88 C 779.867 83.867, 771.515 87.107, 760.611 97.072 L 754.911 102.282 757.524 95.391 C 763.869 78.662, 757.351 62.312, 748.299 72.250 M 741.343 105.524 C 729.464 110.626, 732.129 126.238, 745.134 127.740 C 754.214 128.789, 761.432 119.603, 757.501 112.002 C 754.433 106.069, 747.006 103.091, 741.343 105.524 M 34 159 C 31.068 161.932, 31.433 168.887, 34.992 177.912 L 37.915 185.323 34.208 181.785 C 22.879 170.973, 13.443 168.073, 10.948 174.636 C 9.177 179.296, 12.853 184.214, 21.396 188.611 C 29.293 192.676, 29.547 193.924, 22.500 194.029 C 10.142 194.211, 2.657 202.428, 9.750 208.025 C 13.076 210.649, 18.651 210.239, 25.225 206.885 C 34.378 202.215, 37.152 202.933, 31.104 208.406 C 23.107 215.643, 20.592 226.816, 26.250 229.968 C 31.158 232.702, 36.832 227.633, 40.550 217.192 C 41.469 214.611, 42.466 211.825, 42.766 211 C 43.067 210.175, 43.654 211.631, 44.071 214.237 C 45.949 225.953, 49.616 233, 53.834 233 C 61.499 233, 62.704 226.375, 57.184 214.579 C 55.433 210.837, 54 207.570, 54 207.319 C 54 207.068, 56.587 209.090, 59.750 211.813 C 69.714 220.392, 75.251 222.039, 78.831 217.488 C 82.702 212.567, 78.501 206.603, 67.540 201.461 L 60.580 198.196 66.540 197.540 C 77.900 196.287, 84 192.757, 84 187.432 C 84 181.068, 75.105 179.890, 64.505 184.851 C 56.464 188.614, 55.534 188.378, 60.539 183.842 C 68.955 176.215, 72.061 166.766, 67.365 163.073 C 62.271 159.065, 57.125 162.312, 51.826 172.875 L 48.152 180.199 47.487 175.350 C 47.122 172.682, 46.667 169.484, 46.476 168.241 C 44.999 158.614, 38.902 154.098, 34 159 M 751.045 225.952 C 749.528 227.576, 747.734 231.064, 747.058 233.702 C 746.382 236.341, 745.448 239.400, 744.982 240.500 L 744.135 242.500 744.058 240.500 C 743.833 234.660, 735.414 225, 730.550 225 C 723.170 225, 723.728 234.649, 731.642 243.895 C 733.575 246.153, 735.008 248, 734.828 247.999 C 734.648 247.999, 732.055 247.070, 729.068 245.934 C 720.375 242.630, 712.177 243.513, 711.882 247.785 C 711.416 254.519, 714.874 256.762, 728.500 258.565 L 733.500 259.226 727.558 262.120 C 717.635 266.951, 714.807 270.705, 717.036 276.086 C 719.418 281.837, 729.926 279.252, 737.287 271.104 C 739.329 268.844, 741.037 267.108, 741.082 267.247 C 741.127 267.386, 741.376 271.056, 741.635 275.402 C 742.323 286.937, 745.227 291.164, 751.401 289.614 C 755.803 288.509, 757.070 282.098, 754.537 273.750 C 752.876 268.276, 753.628 267.882, 758.215 271.821 C 766.492 278.930, 772.199 280.105, 775.859 275.452 C 779.580 270.721, 776.723 266.348, 766.519 261.158 C 760.145 257.915, 760.198 257.769, 768.377 255.994 C 776.615 254.205, 779.922 251.635, 779.953 247 C 780.001 239.681, 773.690 238.264, 763.620 243.332 C 759.979 245.165, 757.002 246.627, 757.005 246.582 C 757.007 246.537, 758.121 243.800, 759.481 240.500 C 765.049 226.982, 759.317 217.097, 751.045 225.952 M 258.019 238.967 C 257.204 239.482, 255.838 241.996, 254.982 244.552 L 253.427 249.201 250.651 244.101 C 247.885 239.018, 245.608 237.792, 243.273 240.127 C 241.857 241.543, 243.245 245.535, 246.317 248.874 C 248.406 251.146, 248.414 251.226, 246.500 250.717 C 238.360 248.555, 236 248.952, 236 252.485 C 236 255.618, 237.779 256.808, 243.020 257.181 L 247.500 257.500 243.730 260 C 239.609 262.733, 237.854 266.660, 240.115 268.092 C 242.586 269.657, 244.012 269.071, 248.040 264.837 L 252 260.674 252 265.715 C 252 271.030, 253.569 273.486, 256.296 272.440 C 260.473 270.837, 258.877 261.864, 254.246 260.916 C 248.183 259.677, 246.509 256.573, 249.557 252.223 C 251.466 249.497, 256.007 249.163, 255.985 251.750 C 255.972 253.246, 255.828 253.282, 255 252 C 254.138 250.667, 254.027 250.667, 254 252 C 253.975 253.245, 253.820 253.265, 253.094 252.118 C 252.407 251.033, 252.072 251.198, 251.537 252.882 C 251.127 254.176, 250.388 254.748, 249.678 254.323 C 248.860 253.832, 248.879 254.084, 249.741 255.150 C 250.424 255.994, 250.657 257.093, 250.258 257.592 C 249.859 258.091, 250.168 257.948, 250.943 257.274 C 252.029 256.329, 252.714 256.318, 253.926 257.226 C 255.207 258.184, 255.282 258.157, 254.328 257.080 C 253.025 255.608, 253.686 252.688, 255.121 253.575 C 255.622 253.885, 255.728 254.670, 255.356 255.319 C 254.984 255.969, 255.048 256.166, 255.498 255.759 C 255.948 255.351, 256.826 255.441, 257.449 255.958 C 258.232 256.607, 258.615 256.218, 258.689 254.699 C 258.748 253.490, 258.579 253.065, 258.313 253.756 C 258.047 254.447, 257.437 254.770, 256.958 254.474 C 256.479 254.178, 256.345 253.264, 256.660 252.442 C 257.102 251.293, 257.552 251.213, 258.617 252.097 C 260.397 253.574, 260.378 256.105, 258.568 258.559 C 255.975 262.075, 265.517 268.912, 268.648 265.780 C 270.695 263.734, 269.504 261.652, 264.764 258.988 C 260.447 256.561, 261.044 255.259, 266.559 255.070 C 269.977 254.954, 272.338 252.640, 271.555 250.174 C 270.773 247.709, 267.609 247.310, 263.543 249.162 C 260.192 250.689, 259.630 249.938, 261.476 246.399 C 264.355 240.878, 262.228 236.306, 258.019 238.967 M 115.819 247.545 C 112.417 249.381, 111.477 252.323, 113.065 256.158 C 115.963 263.153, 126 261.090, 126 253.500 C 126 248.145, 120.580 244.974, 115.819 247.545 M 743 247.873 C 739.965 248.692, 736.547 255.058, 737.373 258.351 C 738.474 262.738, 741.821 265.593, 744.154 264.136 C 745.284 263.430, 745.911 263.336, 745.546 263.926 C 744.168 266.155, 750.156 264.935, 752.602 262.489 C 756.433 258.658, 755.720 252.385, 751.102 249.283 C 747.528 246.882, 747.012 246.792, 743 247.873 M 11.635 265.073 C 8.191 267.782, 8.043 272.752, 11.314 275.826 C 16.961 281.130, 25.905 275.014, 22.947 267.871 C 20.814 262.722, 16.104 261.557, 11.635 265.073 M 542.728 277.073 C 538.555 280.512, 538.033 282, 541 282 C 542.100 282, 543 282.401, 543 282.892 C 543 283.805, 547.807 285.491, 549.368 285.125 C 549.846 285.013, 549.976 286.176, 549.658 287.711 C 549.340 289.245, 549.324 289.938, 549.623 289.250 C 549.922 288.563, 551.077 288, 552.190 288 C 553.625 288, 554.037 287.539, 553.607 286.418 C 553.273 285.548, 553 284.622, 553 284.359 C 553 284.097, 552.555 284.157, 552.011 284.493 C 551.432 284.851, 551.285 284.421, 551.657 283.451 C 552.006 282.542, 551.787 281.487, 551.171 281.106 C 550.228 280.523, 549.397 278.003, 549.074 274.750 C 548.917 273.167, 546.308 274.122, 542.728 277.073 M 778.174 296.314 C 773.844 300.924, 776.767 308, 783 308 C 785.999 308, 789.896 305.124, 790.115 302.750 C 790.817 295.134, 783.160 291.008, 778.174 296.314 M 36.750 301.080 C 34.006 302.678, 32 307.480, 32 312.450 C 32 318.014, 32.145 318.013, 26.553 312.500 C 22.678 308.680, 21.385 308, 17.994 308 C 7.846 308, 7.292 317.611, 16.938 326.325 L 21.006 330 15.068 330 C 5.029 330, 0.092 333.591, 1.475 339.886 C 2.686 345.399, 9.984 347.751, 18.967 345.523 L 22.435 344.663 19.156 348.803 C 13.418 356.048, 13.061 362.463, 18.184 366.288 C 22.631 369.608, 32 365.212, 32 359.805 C 32 358.747, 32.450 358.160, 33 358.500 C 33.550 358.840, 34 358.416, 34 357.559 C 34 353.860, 35.873 356.438, 36.500 361.001 C 37.310 366.892, 40.440 370, 45.562 370 C 52.325 370, 54.421 363.039, 50.492 353.634 C 49.657 351.635, 49.092 350.006, 49.237 350.013 C 49.381 350.020, 52.151 351.370, 55.391 353.013 C 62.588 356.662, 64.006 356.707, 67.923 353.411 C 74.585 347.806, 70.927 340.585, 59.678 337.132 L 53.676 335.289 58.362 333.500 C 63.521 331.529, 69 326.070, 69 322.899 C 69 314.836, 60.842 312.465, 51.942 317.941 L 47.163 320.881 47.719 313.537 C 48.547 302.584, 43.673 297.048, 36.750 301.080 M 589.250 306.086 C 591.386 307.323, 591.588 309.163, 589.500 308.362 C 587.106 307.443, 587.783 309.392, 590.258 310.542 C 595.056 312.771, 601.577 316.579, 603.396 318.215 C 604.445 319.159, 605.754 319.652, 606.306 319.311 C 606.858 318.970, 607.019 319.160, 606.666 319.732 C 606.312 320.305, 606.692 321.329, 607.511 322.009 C 608.330 322.689, 609.007 322.852, 609.015 322.372 C 609.024 321.893, 609.513 322.175, 610.102 323 C 610.967 324.211, 611.081 324.076, 610.693 322.298 C 610.429 321.087, 610.727 319.885, 611.356 319.627 C 612.017 319.356, 611.867 319.118, 611 319.064 C 609.738 318.984, 609.723 318.828, 610.901 318.082 C 612.253 317.226, 605.801 313.016, 602.172 312.385 C 601.441 312.258, 600.091 311.826, 599.172 311.426 C 598.252 311.026, 596.902 310.576, 596.172 310.426 C 593.434 309.865, 592 309.030, 592 307.996 C 592 307.282, 592.742 307.327, 594.250 308.134 C 595.487 308.796, 596.612 309.262, 596.750 309.169 C 596.888 309.076, 597.112 309.034, 597.250 309.077 C 597.388 309.119, 598.381 309.317, 599.457 309.518 C 600.534 309.719, 602.334 310.294, 603.457 310.796 C 604.581 311.297, 607.559 312.629, 610.076 313.756 L 614.651 315.805 614.409 313.652 C 614.276 312.469, 614.129 311.207, 614.083 310.848 C 613.981 310.046, 607.845 307.639, 606.592 307.910 C 606.092 308.017, 605.367 307.594, 604.980 306.968 C 604.578 306.318, 600.679 305.667, 595.888 305.451 C 589.892 305.180, 587.999 305.361, 589.250 306.086 M 763.500 325.002 C 759.146 326.660, 757.499 329.856, 757.519 336.608 C 757.539 343.213, 756.841 344.440, 755.010 341.019 C 751.771 334.967, 743.399 332.510, 739.455 336.455 C 735.519 340.391, 736.134 344.398, 741.500 349.763 C 746.746 355.009, 746.742 355, 743.565 355 C 737.657 355, 731 359.630, 731 363.740 C 731 371.445, 738.317 373.653, 749.559 369.339 C 750.958 368.802, 750.727 369.491, 748.551 372.344 C 740.977 382.275, 750.084 394.570, 758.336 385.555 C 762.044 381.503, 763.108 380.001, 762.289 379.970 C 761.855 379.953, 762.321 379.462, 763.325 378.878 C 765.533 377.594, 765.769 377.786, 766.231 381.237 C 767.093 387.675, 775.462 391.462, 779.345 387.171 C 781.380 384.923, 781.462 378.433, 779.500 375 C 777.341 371.223, 777.669 370.835, 781.622 372.487 C 791.442 376.590, 800.167 370.787, 795.970 362.945 C 794.714 360.597, 789.922 358.005, 786.800 357.985 C 782.099 357.953, 781.727 356.461, 785.729 353.688 C 796.274 346.380, 794.867 336.258, 783.394 336.885 C 782.235 336.948, 779.242 338.562, 776.741 340.471 L 772.195 343.943 772.692 338.221 C 773.483 329.126, 769.126 322.860, 763.500 325.002 M 755.241 481.325 C 750.183 484.134, 748.667 488.916, 748.842 501.500 L 748.954 509.500 745.642 502.500 C 739.143 488.766, 731.504 483.087, 726.189 488.039 C 721.493 492.413, 723.840 498.900, 733.902 509.357 L 740.500 516.215 736.500 514.453 C 721.050 507.648, 710 508.047, 710 515.410 C 710 521.601, 714.738 524.105, 729.252 525.587 L 736.003 526.277 729.252 529.715 C 715.356 536.792, 710.890 546.259, 719.578 550.218 C 724.139 552.296, 743 539.075, 743 533.800 C 743 533.360, 743.417 533, 743.926 533 C 744.435 533, 743.718 535.813, 742.334 539.250 C 736.848 552.868, 738.543 564, 746.102 564 C 751.179 564, 755.451 554.486, 754.978 544.230 C 754.624 536.557, 755.129 536.606, 759.006 544.618 C 763.424 553.745, 768.493 559, 772.880 559 C 781.866 559, 780.371 545.589, 770.418 536.919 C 768.813 535.521, 766.375 533.106, 765 531.553 L 762.500 528.729 764.875 529.966 C 779.096 537.378, 794 537.324, 794 529.862 C 794 524.182, 788.705 521.490, 775.388 520.398 L 766.500 519.669 771.234 517.485 C 773.838 516.284, 775.720 515.054, 775.417 514.751 C 775.114 514.448, 775.684 514.268, 776.683 514.350 C 777.683 514.433, 778.393 513.954, 778.262 513.286 C 778.131 512.618, 778.622 512.302, 779.354 512.582 C 781.444 513.385, 788 505.476, 788 502.152 C 788 492.738, 776.362 494.507, 765.260 505.609 C 762.295 508.574, 759.730 511, 759.559 511 C 759.388 511, 760.343 507.984, 761.681 504.297 C 767.372 488.618, 763.969 476.478, 755.241 481.325 M 43.113 494.887 C 39.133 498.867, 38.251 507.190, 40.560 519 C 41.336 522.968, 41.786 523.360, 34.102 513.381 C 26.196 503.113, 14.848 500.360, 13.982 508.500 C 13.393 514.046, 16.298 518.248, 26.172 526.131 C 29.653 528.910, 32.617 531.296, 32.760 531.434 C 32.902 531.573, 30.877 531.307, 28.260 530.844 C 9.353 527.498, 1.267 529.957, 3.388 538.408 C 4.511 542.884, 8.829 544.214, 21.003 543.835 L 31.776 543.500 28.646 545.500 C 14.165 554.755, 9.172 569, 20.409 569 C 25.073 569, 29.553 565.604, 36.750 556.613 C 40.188 552.319, 42.995 548.962, 42.988 549.153 C 42.982 549.344, 42.312 551.975, 41.500 555 C 37.397 570.287, 41.829 583.588, 49.760 579.786 C 54.890 577.328, 56.643 569.148, 54.753 556.500 C 54.129 552.329, 54.212 551.812, 55.253 553.384 C 67.005 571.129, 84.515 577.327, 81.591 562.706 C 80.734 558.419, 70.697 548, 67.425 548 C 67.042 548, 65.629 546.813, 64.285 545.362 C 62.940 543.912, 62.473 542.968, 63.246 543.264 C 70.141 545.910, 85.467 545.077, 88.910 541.869 C 95.940 535.320, 88.580 529.653, 73.853 530.277 L 64.206 530.686 69.771 525.937 C 79.452 517.676, 82.842 508.908, 77.666 505.517 C 72.391 502.061, 62.578 508.721, 55.379 520.643 C 54.512 522.078, 54.285 519.849, 54.379 510.828 C 54.539 495.364, 49.611 488.389, 43.113 494.887 M 552.435 498.459 C 551.271 500.235, 550.991 502.148, 551.427 505.358 L 552.029 509.799 548.303 507.900 C 543.644 505.524, 541.754 505.509, 539.655 507.829 C 536.398 511.428, 539.129 516.211, 545.205 517.545 L 548.139 518.189 544.069 521.673 C 539.739 525.379, 539.025 527.882, 541.571 530.429 C 543.849 532.706, 545.489 532.387, 549.465 528.896 L 553 525.793 553 529.462 C 553 533.694, 554.257 536.501, 556.545 537.379 C 560.698 538.972, 564.093 533.004, 562.066 527.674 C 560.806 524.361, 561.636 524.286, 564.945 527.416 C 568.735 531, 572.753 531.227, 574.785 527.972 C 576.353 525.461, 574.027 521.745, 569.750 519.926 C 566.806 518.675, 566.063 517, 568.453 517 C 573.997 517, 578.127 511.369, 575.511 507.377 C 573.507 504.318, 570.412 504.356, 565.789 507.497 L 562.113 509.995 562.227 505.014 C 562.412 496.893, 556.190 492.727, 552.435 498.459 M 553.073 513.635 C 550.820 516.499, 550.689 517.025, 551.621 519.455 C 553.848 525.258, 564 523.383, 564 517.170 C 564 511.160, 556.841 508.844, 553.073 513.635 M 747.325 513.411 C 738.740 517.275, 738.571 531.357, 747.095 532.588 C 748.418 532.779, 750.400 533.109, 751.500 533.322 C 754.967 533.992, 762.006 529.837, 762.639 526.747 C 762.780 526.061, 763.152 524.265, 763.466 522.756 C 764.822 516.241, 754.419 510.219, 747.325 513.411 M 39.923 528.923 C 32.994 535.853, 38.107 548, 47.954 548 C 54.850 548, 59 543.976, 59 537.288 C 59 527.553, 46.690 522.156, 39.923 528.923 M 692.851 558.139 C 689 559.535, 687.409 563.957, 689.384 567.776 C 693.091 574.944, 703 572.673, 703 564.655 C 703 559.378, 698.103 556.234, 692.851 558.139 M 661.200 598.200 C 660.540 598.860, 660 601.163, 660 603.319 L 660 607.237 656.477 604.550 C 650.539 600.021, 645.590 603.250, 649.781 608.918 C 652.596 612.725, 652.666 612.546, 648.252 612.844 C 640.591 613.360, 640.731 618.907, 648.446 620.539 L 653.392 621.585 650.255 623.818 C 646.605 626.417, 645.329 629.486, 647.040 631.548 C 648.963 633.865, 651.146 633.263, 655.208 629.297 L 659 625.594 659.015 630.047 C 659.035 635.880, 660.080 637.448, 663.393 636.616 C 665.766 636.021, 666 635.515, 666 630.981 C 666 625.068, 666.632 624.871, 670.731 629.500 C 674.130 633.340, 676.039 633.819, 678.427 631.431 C 680.429 629.428, 679.361 627.300, 674.279 623.168 L 670.500 620.096 674.196 620.670 C 679.224 621.451, 683 620.384, 683 618.181 C 683 615.490, 680.969 614, 677.300 614 C 673.238 614, 673.201 613.543, 677 610.347 C 680.374 607.507, 680.877 604.540, 678.224 603.120 C 674.088 600.906, 666.352 608.481, 669.181 611.975 C 674.792 618.905, 664.301 627.207, 658.174 620.686 C 653.957 616.197, 657.478 609, 663.891 609 C 666.522 609, 666.912 608.617, 667.202 605.750 C 667.890 598.933, 664.603 594.797, 661.200 598.200 M 659.073 612.635 C 655.377 617.333, 657.027 620.992, 663.075 621.506 C 665.421 621.706, 666.355 621.262, 667.012 619.634 C 667.541 618.322, 667.904 618.078, 667.952 619 C 668.022 620.333, 668.138 620.333, 669 619 C 672.959 612.874, 663.603 606.875, 659.073 612.635" stroke="none" fill="#e1646d" fill-rule="evenodd"/>
<path d="M 654 239.872 C 642.912 243.428, 628.752 252.344, 620.557 260.930 C 615.871 265.838, 618.369 266.866, 626.149 263.231 C 629.642 261.599, 638.310 258.833, 645.411 257.085 C 666.887 251.798, 677.667 244.810, 672.429 239.571 C 670.302 237.445, 661.098 237.595, 654 239.872" stroke="none" fill="#ebc1c2" fill-rule="evenodd"/>
<path d="M 610.237 215.518 C 601.724 219.777, 590.111 230.235, 584.822 238.405 C 580.007 245.844, 580.022 245.972, 585.750 246.136 C 589.756 246.250, 589.368 246.391, 583.271 247.031 C 570.202 248.405, 555.882 257.340, 554.333 265.087 C 554.012 266.689, 553.281 268, 552.708 268 C 552.135 268, 551.910 268.243, 552.207 268.541 C 552.505 268.838, 554.406 268.103, 556.433 266.907 C 562.886 263.099, 567.055 267.113, 565.648 275.781 C 564.446 283.186, 559.502 287.380, 555.003 284.809 C 552.962 283.643, 551.835 283.458, 551.368 284.214 C 550.931 284.921, 551.160 285.019, 552.015 284.490 C 552.985 283.891, 553.164 284.132, 552.681 285.388 C 552.242 286.532, 552.403 286.869, 553.164 286.399 C 553.982 285.893, 554.125 286.818, 553.668 289.675 C 552.836 294.879, 559.428 301.463, 565.500 301.491 C 566.712 301.496, 567.408 302.091, 567.266 303 C 567.100 304.061, 568.081 304.575, 570.618 304.757 C 572.590 304.899, 574.890 305.399, 575.728 305.868 C 576.672 306.396, 578.369 306.164, 580.186 305.257 C 581.800 304.452, 584.881 303.557, 587.032 303.269 L 590.944 302.744 588.972 300.237 C 587.798 298.744, 587 296.198, 587 293.942 C 587 284.216, 600.935 278.250, 605.075 286.202 C 605.733 287.466, 606.378 288.631, 606.509 288.791 C 606.641 288.950, 608.399 288.107, 610.417 286.917 C 612.434 285.726, 614.352 285.019, 614.678 285.345 C 615.004 285.671, 613.826 286.739, 612.061 287.719 C 605.230 291.508, 605.027 292.156, 610.809 291.700 C 617.372 291.183, 616.294 292.987, 609.587 293.743 C 606.452 294.096, 605 294.726, 605 295.730 C 605 296.539, 603.425 298.775, 601.500 300.700 C 597.339 304.861, 597.304 305, 600.429 305 C 601.764 305, 603.540 305.683, 604.375 306.518 C 605.210 307.353, 606.254 307.955, 606.696 307.856 C 610.450 307.019, 615.308 311.529, 613.795 314.446 C 613.209 315.576, 613.054 316.199, 613.450 315.831 C 614.172 315.162, 619.310 319.023, 618.619 319.715 C 618.417 319.916, 616.535 319.068, 614.437 317.830 C 612.339 316.592, 610.959 316.124, 611.370 316.790 C 611.809 317.500, 611.577 318.006, 610.809 318.015 C 609.858 318.026, 609.910 318.296, 611 319 C 611.839 319.542, 611.990 319.976, 611.344 319.985 C 610.667 319.994, 610.392 320.933, 610.680 322.250 C 611.077 324.058, 610.963 324.205, 610.102 323 C 609.513 322.175, 609.024 321.893, 609.015 322.372 C 609.007 322.852, 608.330 322.689, 607.511 322.009 C 606.692 321.329, 606.314 320.262, 606.671 319.637 C 607.028 319.012, 606.952 318.834, 606.502 319.241 C 606.052 319.649, 604.968 319.430, 604.092 318.753 C 603.216 318.077, 604.638 319.862, 607.250 322.719 C 609.862 325.577, 612 328.473, 612 329.157 C 612 329.840, 609.712 327.832, 606.915 324.694 C 604.118 321.555, 598.718 317.139, 594.915 314.880 C 588.409 311.015, 587.281 309.551, 587.882 305.750 C 588.036 304.772, 587.702 304.794, 582.431 306.122 C 579.059 306.971, 577.833 307.818, 577.383 309.611 C 574.108 322.657, 557.370 320.164, 556.097 306.440 C 555.628 301.388, 554.779 298.548, 552.977 296 C 549.730 291.412, 549.456 291.250, 543.548 290.439 C 535.928 289.394, 533.327 287.853, 540.407 288.578 C 543.655 288.911, 546.918 289.415, 547.657 289.699 C 551.445 291.152, 548.281 287.673, 543.750 285.403 C 540.862 283.956, 537.825 282.212, 537 281.528 C 535.336 280.147, 528.208 277.535, 529.396 278.741 C 529.807 279.158, 531.574 280.009, 533.322 280.630 C 535.187 281.294, 536.353 282.327, 536.145 283.130 C 535.950 283.884, 535.712 284.950, 535.617 285.500 C 535.522 286.050, 535.176 286.950, 534.848 287.500 C 532.244 291.872, 538.051 308.702, 545.077 317.145 L 548.943 321.791 540.879 322.157 C 533.243 322.504, 532.661 322.696, 529.908 325.777 C 525.636 330.558, 526.650 337.223, 531.373 335.410 C 532.377 335.025, 533.015 335.306, 533.039 336.143 C 533.061 336.889, 533.674 336.150, 534.403 334.500 C 537.644 327.158, 548.109 322.809, 554.242 326.256 C 558.845 328.843, 558.939 329.639, 554.750 330.541 C 547.041 332.201, 540.483 337.166, 542.074 340.138 C 543.287 342.404, 546.291 342.559, 548.045 340.445 C 548.755 339.590, 550.273 338.407, 551.418 337.816 C 553.015 336.991, 552.828 337.457, 550.614 339.817 L 547.728 342.894 550.472 343.582 C 559.839 345.933, 599.759 339.737, 605.500 335.041 C 610.450 330.992, 611.695 330.307, 609.562 332.804 C 608.496 334.052, 607.544 335.844, 607.447 336.787 C 607.350 337.729, 606.955 339.658, 606.571 341.074 C 606.066 342.934, 606.359 344.044, 607.628 345.074 C 608.638 345.895, 609.075 345.985, 608.656 345.287 C 608.256 344.620, 609.011 342.370, 610.334 340.287 C 613 336.091, 617 332.133, 617 333.690 C 617 334.240, 616.054 335.546, 614.898 336.593 C 612.205 339.030, 609.742 343.774, 610.518 345.029 C 611.786 347.080, 615.428 345.847, 618.725 342.250 L 622.163 338.500 619.903 342.406 L 617.644 346.313 624.373 345.623 C 641.884 343.829, 650.710 335.526, 643.313 327.805 C 641.835 326.262, 641.120 325, 641.724 325 C 645.789 325, 648.998 333.130, 646.398 336.842 C 644.063 340.176, 645.055 340.512, 656.838 340.382 C 668.411 340.254, 673 339.080, 673 336.247 C 673 333.861, 670.113 329.812, 668.932 330.542 C 667.258 331.577, 667.966 327.571, 670 324.500 C 673.023 319.936, 672.614 314.769, 668.896 310.535 C 664.947 306.037, 663.588 306.082, 662.392 310.750 C 661.491 314.269, 661.431 314.099, 661.422 308 C 661.401 293.346, 647.161 279.346, 630.238 277.342 C 618.212 275.918, 620.950 273.346, 641.381 266.875 C 679.873 254.684, 694.423 239.668, 677.035 230.076 C 661.147 221.312, 636.122 229.873, 617.169 250.556 L 611.101 257.179 607.421 254.372 C 605.397 252.828, 600.762 250.550, 597.121 249.308 C 590.073 246.906, 590.257 246.281, 597.478 248.099 L 601.841 249.197 614.829 238.602 C 630.398 225.901, 633 223.019, 633 218.480 C 633 210.952, 622.178 209.544, 610.237 215.518 M 651.747 240.457 C 643.268 243.395, 632.355 250.160, 624.250 257.505 C 615.353 265.566, 615.979 268.966, 625.426 263.891 C 628.217 262.392, 637.025 259.497, 645 257.459 C 663.978 252.608, 671.705 248.656, 673.544 242.860 C 675.222 237.574, 663.726 236.307, 651.747 240.457" stroke="none" fill="#9bb1ae" fill-rule="evenodd"/>
</svg>