<?xml version="1.0" encoding="UTF-8"?>
<!DOCTYPE svg PUBLIC "-//W3C//DTD SVG 1.1//EN" "http://www.w3.org/Graphics/SVG/1.1/DTD/svg11.dtd">
<!-- Creator: CorelDRAW -->
<svg xmlns="http://www.w3.org/2000/svg" xml:space="preserve" width="210mm" height="297mm" version="1.1" style="shape-rendering:geometricPrecision; text-rendering:geometricPrecision; image-rendering:optimizeQuality; fill-rule:evenodd; clip-rule:evenodd"
viewBox="0 0 21000 29700"
 xmlns:xlink="http://www.w3.org/1999/xlink"
 xmlns:xodm="http://www.corel.com/coreldraw/odm/2003"
 data-name="Слой_1">
 <defs>
  <style type="text/css">
   <![CDATA[
    .fil26 {fill:#137B88;fill-rule:nonzero}
    .fil19 {fill:#22878D;fill-rule:nonzero}
    .fil23 {fill:#297841;fill-rule:nonzero}
    .fil20 {fill:#347B2D;fill-rule:nonzero}
    .fil22 {fill:#407C3C;fill-rule:nonzero}
    .fil8 {fill:#4EA6A8;fill-rule:nonzero}
    .fil24 {fill:#5A9754;fill-rule:nonzero}
    .fil13 {fill:#5F9743;fill-rule:nonzero}
    .fil11 {fill:#6D9C42;fill-rule:nonzero}
    .fil6 {fill:#704E32;fill-rule:nonzero}
    .fil14 {fill:#C73F36;fill-rule:nonzero}
    .fil15 {fill:#D8473C;fill-rule:nonzero}
    .fil18 {fill:#E63764;fill-rule:nonzero}
    .fil5 {fill:#E84466;fill-rule:nonzero}
    .fil1 {fill:#E95358;fill-rule:nonzero}
    .fil16 {fill:#E96004;fill-rule:nonzero}
    .fil12 {fill:#EB5864;fill-rule:nonzero}
    .fil17 {fill:#ED4873;fill-rule:nonzero}
    .fil21 {fill:#EE4D57;fill-rule:nonzero}
    .fil25 {fill:#F15F6C;fill-rule:nonzero}
    .fil0 {fill:#F17582;fill-rule:nonzero}
    .fil10 {fill:#F45C51;fill-rule:nonzero}
    .fil7 {fill:#F5737D;fill-rule:nonzero}
    .fil2 {fill:#F6A507;fill-rule:nonzero}
    .fil3 {fill:#F6B502;fill-rule:nonzero}
    .fil4 {fill:#F98B0B;fill-rule:nonzero}
    .fil9 {fill:#FA744A;fill-rule:nonzero}
    .fil27 {fill:#FAAF16;fill-rule:nonzero}
   ]]>
  </style>
 </defs>
 <g id="Layer_x0020_1">
  <metadata id="CorelCorpID_0Corel-Layer"/>
  <g id="_1507601524160">
   <path class="fil0" d="M19185.92 21552.18l273.02 -150.59c409.78,-240.4 1329.81,-894.11 894.91,-1441.26 -379.64,-477.64 -1048.9,118.27 -1246.37,494l-311.07 639.6c145.37,-532.74 396.93,-1977.72 -574.44,-1777.21 -696.65,143.8 -377.48,1181.32 -185.93,1609.37 43.01,96.11 110.52,181.06 141.19,282.52 -340.02,-387.19 -781.87,-984.69 -1364.3,-940.37 -317.77,24.17 -512,292.39 -463.24,602.62 70.69,449.84 794.25,725.81 1184.83,808.83 61.32,13.04 123.12,9.55 185.4,21.09 24.16,4.47 74.01,2.04 67.85,34.68 -469.9,-17.99 -1358.11,72.47 -1593.4,549.36 -238.17,482.7 73.24,899.26 596.45,848.53 368.79,-35.75 1180.35,-796.47 1248.69,-790.61 -129.78,138.09 -259.84,323.28 -361.82,485.84 -226.05,360.36 -575.08,977.79 -230.06,1367.11 50.58,57.08 190.86,136.35 190.86,136.35 51.05,17.52 93.46,37.16 149.41,39 377.36,12.36 583.3,-425.41 680.87,-728.47 118.77,-368.91 149.16,-764.61 144.34,-1150.53 32.18,2.5 40.44,103.62 42.72,128.81 37.52,413.16 84.81,868.57 391.44,1189.76 297.99,312.15 908.86,345.03 963.24,-184.61 62.74,-611.16 -440.77,-1077.72 -847.64,-1454.68 417.59,203.76 1635.44,708.59 1716.14,-82.96 82.45,-808.66 -1208.05,-709.77 -1693.07,-536.18l-0.02 0zm918.93 479.53c-315.82,-99.26 -645.46,-144.17 -975.75,-133.93 -17.43,137.42 -79.96,269.19 -192.63,366.86 36.79,45.95 68.42,96.1 98.74,146.53 48.15,80.1 96.14,160.3 143.24,241.02 95.6,163.83 186.92,330.28 265.33,503.1 12.84,28.29 8.41,61.45 -20.55,78.39 -24.74,14.47 -65.6,7.62 -78.39,-20.55 -76.92,-169.52 -166.25,-332.94 -259.87,-493.74 -46.39,-79.67 -93.76,-158.77 -141.18,-237.83 -31.27,-52.13 -62.69,-103.98 -101.05,-150.63 -17.2,9.83 -35.2,19.03 -54.01,27.52 -143.73,64.94 -288.59,65.68 -416.53,22.49 -153.28,317.32 -164.61,686.55 -342.2,995.19 -36.81,63.97 -135.78,6.2 -98.94,-57.83 174.95,-304.07 188.22,-668.97 336.72,-984.18 -121.12,-69.18 -218.07,-179.97 -271.07,-310.38 -315.62,84.99 -619.83,207.41 -905.78,366.3 -64.58,35.88 -122.3,-63.12 -57.83,-98.94 293.35,-162.99 606.5,-289.7 930.48,-377.12 -22.63,-114.61 -11.78,-238.45 44.13,-359.44 1.38,-3 3.05,-6 4.51,-9.02 -309.5,-150.32 -610.86,-316.99 -902.48,-499.64 -62.41,-39.09 -4.84,-138.19 57.84,-98.93 292.4,183.13 594.59,350.21 904.95,500.85 83.93,-111.5 209.95,-205.98 338.86,-231.12 -43.1,-357.38 -70.84,-716.49 -82.78,-1076.27 -2.45,-73.87 112.15,-73.54 114.58,0 11.81,355.73 39.08,710.81 81.34,1064.21 148.3,-3.93 272.34,39.37 369.03,111.68 267.04,-217.26 509.02,-464.29 719.98,-736.5 19.07,-24.6 61.28,-19.75 81.03,0 23.82,23.82 18.93,56.59 0,81.02 -210.01,270.98 -450.74,517.04 -716.34,733.58 94.19,106.59 147.63,246.44 154.95,388.69 338.66,-10.21 678.8,36.56 1002.08,138.15 70.22,22.07 40.05,132.65 -30.46,110.49l0.05 -0.02z"/>
   <path class="fil1" d="M18072.57 21447.78c-23.83,31.65 -44.2,64.59 -60.31,97.72 -309.5,-150.32 -610.87,-316.99 -902.48,-499.63 -62.41,-39.1 -4.84,-138.2 57.83,-98.94 292.4,183.13 594.59,350.21 904.96,500.85zm452 -243.18c-42.26,-353.4 -69.53,-708.47 -81.33,-1064.21 -2.45,-73.54 -117.03,-73.87 -114.58,0 11.94,359.78 39.68,718.89 82.77,1076.27 4.06,-0.79 8.12,-1.85 12.18,-2.5 34.8,-5.58 68.47,-8.7 100.97,-9.56l-0.01 0zm453.7 189.77c265.6,-216.54 506.33,-462.6 716.33,-733.58 18.94,-24.43 23.82,-57.2 0,-81.02 -19.73,-19.75 -61.96,-24.6 -81.02,0 -210.96,272.21 -452.94,519.25 -719.98,736.5 31.08,23.23 59.35,49.45 84.66,78.1l0.01 0zm1157.03 526.84c-323.28,-101.59 -663.43,-148.36 -1002.08,-138.15 1.97,38.27 0.7,76.71 -4.12,114.72 330.29,-10.25 659.92,34.66 975.75,133.93 70.51,22.16 100.67,-88.42 30.46,-110.5l-0.01 0zm-1191.5 560.34c47.41,79.06 94.79,158.16 141.18,237.83 93.62,160.8 182.95,324.22 259.87,493.74 12.79,28.18 53.64,35.02 78.39,20.55 28.96,-16.94 33.38,-50.1 20.55,-78.39 -78.42,-172.82 -169.74,-339.27 -265.33,-503.1 -47.1,-80.72 -95.09,-160.93 -143.25,-241.02 -30.31,-50.42 -61.94,-100.57 -98.73,-146.53 -28.09,24.36 -59.3,46.6 -93.72,66.28 38.36,46.65 69.78,98.5 101.05,150.63l-0.01 0.01zm-1012.72 836.74c-36.84,64.03 62.13,121.8 98.94,57.83 177.59,-308.64 188.92,-677.87 342.2,-995.19 -36.3,-12.25 -71.27,-27.9 -104.41,-46.83 -148.51,315.21 -161.77,680.13 -336.72,984.18l-0.01 0.01zm-897.95 -1027.21c-64.47,35.82 -6.75,134.82 57.83,98.94 285.95,-158.88 590.16,-281.3 905.78,-366.3 -14.35,-35.33 -25.67,-71.98 -33.13,-109.75 -323.97,87.41 -637.12,214.12 -930.48,377.11l0 0z"/>
   <path class="fil2" d="M4423.8 20616.19c-220.91,445.95 -747.98,467.03 -1095.84,152.85 115.95,431.51 -44.47,824.29 -504.39,916.64 -60.27,12.14 -120.77,24.75 -183.33,22.92 -408.36,-11.92 -735.15,-447.79 -664.79,-847.9 -337.56,289.65 -751.88,329.3 -1040.39,-47.9 -354.97,-464.05 -117.79,-983.56 445.03,-1052.08 8.94,-58.9 -5.27,-35.74 -32.31,-48.12 -83.18,-37.36 -135.67,-33.92 -220.45,-100.38 -485.6,-379.94 -9.63,-1321.34 624.23,-1128.39 114.58,34.83 315.78,200.98 315.78,188.38l0 -343.75c0,-38.27 105.65,-212.2 138.18,-251.39 429.46,-516.29 1243.9,-77.68 1053.69,560.53 82.73,-32.55 141.86,-90.98 229.39,-125.58 215.18,-84.79 425.33,-96.01 616.45,47.66 286.22,215.65 354.28,687.95 70.81,937.73 -55.23,48.81 -129.71,70.35 -169.13,101.28 -22.46,17.65 -18.1,19.02 -14.43,47.22 451.91,69.66 623.08,583.21 431.5,970.26l0 0.02zm1208.25 -6952.28c114.14,210.78 57.3,485.48 -167.76,590.81 -306.74,143.56 -619.91,-31.87 -852.99,-222.83 104.1,262.81 186.08,573.83 18.97,832.52 -123.35,190.97 -413.72,201.98 -580.99,61.44 -82.65,-69.45 -217.32,-345.01 -217.32,-447.26l0 -355.2c-110.1,126 -171.69,284.51 -309.38,389.56 -586.43,447.4 -1033.14,-348.73 -457.76,-801.5l308.7 -183.65c-400.64,20.79 -885.43,-143.07 -822.84,-628.55 53.63,-415.97 474.85,-443.67 792.73,-292.47 38.63,18.38 216.37,160.71 236.46,141.42 -239.39,-376.67 -226.31,-1152.76 411.95,-927.33 351.57,124.17 364.14,567.37 367.43,881.72 229.32,-285.21 639.37,-807.5 1020.34,-413.28 433.65,448.74 -131.03,861.22 -539.22,997.54 144.06,59.79 290.55,49.31 441.23,108.76 116.11,45.8 290.26,157.18 350.43,268.3l0.02 0zm-1552.72 -704.4c-138.7,13.76 -337.8,155.67 -374,292.35 -92.55,349.4 255.13,670.13 578.33,486.82 375.95,-213.24 243.86,-823.63 -204.33,-779.17zm-132.04 3202.81c-20.88,-98.8 -174.7,-568.56 -245.13,-592.18 -25.46,-8.54 -57.71,-7.05 -83.42,0.84 -95.95,29.43 -166.71,505.54 -186.97,615.71 -88.34,51.17 -443.38,150.7 -483.69,228.43 -71.2,137.25 378.78,274.84 399.39,336.06l-65.59 626.43c245.76,25.81 370.67,-235.83 541.97,-363.35 180.87,77.92 319.77,233.86 520.67,267.01 17.43,-3.33 42.06,-25.83 49.56,-41.74 52.34,-110.92 -150.66,-469.18 -150.89,-606.29 48.46,-81.07 394.35,-333.53 366.55,-432.64 -30.5,-108.74 -554.11,-52.17 -662.45,-38.27l0 -0.01zm12032.48 -5112.01c-119.28,-661.58 -365.67,-824.37 -511.79,-48.69 -105.61,40.77 -463.83,117.75 -511.11,210.94 -19.36,38.15 -9.61,31.97 13.32,56.77 51.61,55.82 329.5,257.39 338.13,302.07 -48.43,176.79 -133.36,345.88 -110.05,535.48 197.52,88.02 432.56,-265.22 539.76,-276.31 87.25,-9.03 442.14,419.72 490.83,172.53 33.9,-172.17 -65.62,-329.46 -64.67,-498.85 52.28,-64.65 429.36,-309.44 362.8,-405.01 -178.32,-53.23 -362.98,-47.42 -547.22,-48.91l0 -0.02zm-8532.66 14307.04c-297.26,43.1 -282.56,481.14 -110.11,534.61 511.57,158.6 536.42,-596.42 110.11,-534.61zm-6164.97 -1351.93c-333.37,68.44 -249.56,632.35 150.36,539.87 285.4,-66 232.67,-618.5 -150.36,-539.87zm18740.32 -14808.73c-236.78,222.67 55.1,611.74 324.01,358.35 263.03,-247.84 -65.08,-601.84 -324.01,-358.35zm-3285.75 10297.63c157.36,308.46 614.33,-70.22 379.46,-322.34 -187.03,-200.77 -502.14,81.86 -379.46,322.34zm-1800.17 3464.85c157.36,308.46 614.33,-70.21 379.47,-322.34 -187.04,-200.77 -502.15,81.85 -379.47,322.34zm-2403.03 -17309.96c-211.27,47.86 -269.6,404.72 5.25,467.03 361.55,81.94 379.94,-554.3 -5.25,-467.03zm-7790.23 12415.43c-226.39,190.37 40.86,526.4 250.32,336.9 227.06,-205.42 -31.57,-520.85 -250.32,-336.9zm1373.81 -5998.84c-140.35,31.49 -207.95,234.8 -74.08,339.19 188.64,147.09 385.5,-99.62 288.47,-288.46 -57.22,-56.77 -136.49,-68.21 -214.39,-50.73zm3300.15 11664.77c-337.43,70.07 -332.92,599.86 51.12,672.55 485.68,91.91 531.92,-793.61 -51.12,-672.55zm9830.57 -8502.28c-280.98,64.92 -276.87,547.63 23.52,608.7 507.17,103.11 470.34,-722.79 -23.52,-608.7zm-3186.92 -1716.36c-280.6,16.06 -289.76,454.35 -2.73,451.85 245.75,-2.14 337.47,-470.99 2.73,-451.85zm-13023.07 -7624.02c19.43,20.3 39.68,38.27 60.54,54.32 135.13,103.93 297.41,120.8 447.48,79.45 36.52,-10.05 72.34,-23.45 106.84,-40 143.82,-68.95 265.04,-190.57 322.47,-334.68 14.19,-35.62 24.36,-72.63 30.14,-110.54 20.04,-131.63 -14.38,-274.29 -129.49,-408.98 -6.55,-7.66 -13.25,-15.3 -20.33,-22.91 -19.85,-21.35 -40.28,-40.37 -61.09,-57.62 -133.34,-110.55 -284.04,-139.2 -424.24,-111.78 -37.94,7.42 -75.07,19 -110.9,34.09 -149.89,63.1 -276.51,188.65 -339.36,338.87 -15.21,36.37 -26.61,74.19 -33.78,112.9 -26.67,144.25 6.46,301 129.44,442.43 7.14,8.21 14.54,16.36 22.28,24.46l0 -0.01zm15940.45 15506.46c-25.31,-28.65 -53.58,-54.86 -84.66,-78.09 -96.7,-72.31 -220.73,-115.6 -369.04,-111.68 -32.5,0.86 -66.17,3.98 -100.97,9.56 -4.06,0.65 -8.11,1.72 -12.18,2.5 -128.91,25.14 -254.92,119.62 -338.85,231.12 -23.83,31.65 -44.2,64.59 -60.31,97.72 -1.46,3.01 -3.13,6.01 -4.53,9.03 -55.91,120.98 -66.75,244.82 -44.13,359.44 7.46,37.78 18.78,74.42 33.13,109.75 53,130.42 149.94,241.2 271.07,310.38 33.14,18.92 68.12,34.58 104.41,46.83 127.94,43.2 272.8,42.46 416.53,-22.49 18.81,-8.49 36.81,-17.69 54.01,-27.52 34.42,-19.68 65.62,-41.92 93.72,-66.28 112.67,-97.67 175.2,-229.44 192.63,-366.86 4.82,-38.01 6.09,-76.45 4.12,-114.72 -7.32,-142.25 -60.77,-282.09 -154.95,-388.69z"/>
   <path class="fil3" d="M20016.36 13436.29c-46.9,-79.56 -172.46,-138.36 -181.34,-233.13 -9.91,-105.98 115.77,-202.14 92.16,-380.64 -33.62,-254.15 -261.34,-332.18 -451.11,-444.6 261.93,-58.41 486.89,-243.99 453.24,-535.93 -12.13,-105.22 -84.11,-194.35 -102.68,-283.21 -56.55,-270.57 207.02,-542.41 127.89,-803.17 -126.45,-416.71 -598.18,-155.71 -815.79,30.98 -332.2,285 -544.54,663.37 -599.76,1101.39 17.86,22.76 33.73,45.79 43.12,69.19 28.46,70.87 55.17,142.46 80.76,214.45 11.7,-369.04 327.55,-946.4 599.84,-1164.6 298.96,-239.57 354.8,1.68 322.08,280.73 -13.37,113.94 -87.36,225.6 -82.19,346.19 7.06,165.01 192.18,264.17 81.62,452.58 -115.86,197.45 -549.86,296.78 -761.66,269.64 -57.39,-7.36 -88.93,-24.63 -114.84,-54.65 0.26,0.79 0.54,1.56 0.79,2.35 62.99,189.16 123.77,383.7 166.1,579.69 19.47,16.72 35.44,42.39 49.56,60.07 138.32,173.36 246.6,365.15 491.54,390.49 72.84,7.53 175.97,-11.78 240.21,7.86 109.38,33.44 84.06,248.96 246.91,290.47 157.41,40.12 183.06,-78.22 113.55,-196.15l0 0zm-443.69 -506.84c-145.44,187.28 -454.57,-172.85 -537.01,-289.78 2.21,-28.18 120.53,-42.54 148.3,-44.08 156.32,-8.65 532.99,148.1 388.72,333.87l-0.01 -0.01zm-1205.86 -562.84c0.96,8.91 0.64,18.2 -3.15,27.89 -29.14,74.44 -224.62,157.42 -300.12,183.47 -226.59,78.18 -556.26,139.93 -585.63,-186.43 -8.5,-94.48 12.03,-183.84 -24.88,-278.32 -48.97,-125.34 -232.17,-252.01 -258.6,-375.23 -63.27,-295.02 364.38,-239.14 522.77,-136.4 15.35,9.96 20.26,30.48 32.87,39.24 114.12,79.15 459.15,330.33 551.89,456.34 -11.64,-48.72 -24.98,-100.86 -27.23,-149.13 -0.28,-5.91 -0.39,-11.77 -0.3,-17.55 0.04,-3.4 0.63,-7.49 1.45,-11.92 -117.35,-88.11 -203.94,-215.27 -315.64,-312.54 -160.42,-139.65 -345.11,-246.86 -551.29,-303.17 -185.35,-50.62 -487.67,-111.15 -612.51,76.92 -196.52,296.05 256.38,546.85 339.6,788.6 34.52,100.27 15.59,186.92 30.85,286.13 52.81,342.92 387.6,431.04 682.81,330.1 -37.72,104.81 -108.19,182.56 -141.59,292.38 -44.3,145.61 -63.47,336.44 45.26,458.6 53.77,60.42 197.57,119.06 223.52,162.37 57.89,96.65 -72.04,477.55 138.37,434.78 144.61,-29.4 82.32,-327.09 95.5,-429.07 10.59,-35.19 120.73,-77.49 155.8,-106.05 170.63,-138.93 163.26,-401.61 242.31,-592.8 -75.6,-154.09 -140.5,-313.42 -193.74,-476.58 -17.44,-53.47 -33.36,-107.42 -48.32,-161.63zm-76.02 714.23c0,34.05 -37.02,158.06 -52.68,195.39 -36.34,86.58 -105.18,177.89 -202.52,101.12 -182.05,-143.56 73.8,-528.87 255.2,-579.03l0 282.52z"/>
   <path class="fil4" d="M18822.53 12356.16c211.81,27.14 645.8,-72.19 761.66,-269.64 110.56,-188.41 -74.56,-287.57 -81.62,-452.58 -5.17,-120.6 68.82,-232.25 82.19,-346.19 32.72,-279.05 -23.12,-520.3 -322.08,-280.73 -272.28,218.2 -588.14,795.57 -599.84,1164.6 15.34,43.17 30.36,86.45 44.84,129.88 25.91,30.02 57.46,47.3 114.84,54.65l0.01 0.01zm555.14 -352.5c-32.42,57.01 -376.05,205.76 -411.51,174.42 22.63,-94.28 256.26,-236.81 338.82,-247.62 54.98,-7.2 106.57,13.63 72.69,73.2zm-345.04 -510.06c38.8,-69.65 140.08,-237.4 219.49,-250.31 118.7,-19.28 83.56,177.48 65.47,245.85 -59.28,224.04 -269.78,366.5 -455.03,481.88 -12.54,-10.02 -19.44,-16.66 -21.09,-33.77 -4.26,-43.88 157.8,-383.74 191.16,-443.65zm-668.89 900.95c-29.18,74.42 -224.8,157.44 -300.2,183.49 -226.57,78.14 -556.33,139.82 -585.7,-186.42 -8.42,-94.58 12.14,-183.87 -24.88,-278.46 -48.96,-125.33 -232.05,-252.03 -258.48,-375.2 -63.25,-294.91 364.43,-239.1 522.65,-136.29 15.47,9.79 20.37,30.35 32.9,39.16 114.16,79.1 459.2,330.35 552.02,456.26 3.33,14.11 6.46,27.81 9.2,41.13 16.06,76.76 34.67,152.94 55.62,228.32 0.98,9.02 0.59,18.21 -3.14,28l0.01 0.01z"/>
   <path class="fil5" d="M19572.67 12929.45c-145.44,187.28 -454.57,-172.85 -537.01,-289.78 2.21,-28.18 120.53,-42.54 148.3,-44.08 156.32,-8.65 532.99,148.1 388.72,333.87l-0.01 -0.01zm-1537.07 447.91c97.34,76.76 166.18,-14.55 202.52,-101.12 15.66,-37.33 52.68,-161.35 52.68,-195.39l0 -282.52c-181.4,50.17 -437.25,435.47 -255.2,579.03zm826.96 -1406.34c185.25,-115.38 395.75,-257.83 455.03,-481.88 18.09,-68.37 53.23,-265.13 -65.47,-245.85 -79.41,12.9 -180.69,180.66 -219.49,250.31 -33.36,59.9 -195.43,399.77 -191.16,443.65 1.65,17.11 8.56,23.74 21.09,33.77zm442.42 -40.56c-82.57,10.81 -316.19,153.34 -338.82,247.62 35.47,31.34 379.1,-117.42 411.51,-174.42 33.88,-59.57 -17.71,-80.4 -72.69,-73.2zm-1171.61 158c-18.02,-40.23 -327.08,-255.3 -385.73,-290.83 -68.19,-41.3 -239.24,-136.93 -314.63,-108.83 -112.68,42.01 15.27,195.58 64.83,246.03 162.41,165.31 415.84,184.88 633.91,193.41 5.94,-14.92 8.64,-24.1 1.62,-39.78zm-433.03 323.16c56.39,33.48 428.6,-7.39 443.91,-52.18 -66.35,-70.72 -339.9,-78.9 -416.98,-47.42 -51.34,20.96 -85.85,64.61 -26.92,99.6l-0.01 0z"/>
   <path class="fil6" d="M18708.49 12303.86c62.99,189.16 123.77,383.7 166.1,579.69 6.56,30.39 12.75,60.8 18.37,91.24 22.91,124.32 27.55,580.74 -154.75,270.77 -46.2,-78.54 -89.2,-158.94 -129.34,-240.75 -75.6,-154.09 -140.5,-313.42 -193.74,-476.58 -17.44,-53.47 -33.36,-107.41 -48.32,-161.63 -20.84,-75.52 -39.56,-151.62 -55.49,-228.32 -2.76,-13.29 -6,-27.08 -9.36,-41.13 -11.64,-48.72 -24.98,-100.86 -27.23,-149.13 -0.28,-5.91 -0.39,-11.77 -0.3,-17.55 0.04,-3.4 0.63,-7.49 1.45,-11.92 7.12,-38.27 38.6,-110.17 15.61,-132.53 -13.86,-13.47 -78.22,-6.97 -116.98,-85.9 -49.7,-101.18 9.02,-150.34 -1.27,-212.06 -3.37,-20.2 -151.73,-255.62 -176.76,-291.25 -75.66,-107.75 -163.24,-203.87 -264.92,-286.63l-23 0.63c-34.59,102.42 -124.46,44.24 -192.91,12.8 -34.06,-198.71 135.99,-159.24 255.34,-85.2 233.64,144.93 340.15,416.42 504.06,622.99 -37.29,-294.79 -173.73,-647.05 -89.73,-941.35 78.31,-274.32 311.69,16.09 56.47,74.75 14.93,249.42 27.34,560.79 89.64,802.29 25.66,99.49 43.64,63.34 90.24,120.59 86.74,106.55 3.41,162.72 18.27,224.5 11.86,48.06 60.18,96.31 99.03,145.82 17.86,22.76 33.73,45.79 43.12,69.19 28.46,70.86 55.17,142.46 80.76,214.45 15.34,43.17 30.36,86.44 44.84,129.88 0.26,0.79 0.54,1.56 0.8,2.35l0 -0.01z"/>
   <path class="fil7" d="M17673.29 6836.09c-1075.42,-536.74 -1199.19,-1806.81 -796.69,-2836.07 265.48,-97.91 524.29,96.11 705.02,269.46l0 -435.4c-377.43,-54.9 -141.43,-505.34 68.87,-263.75 131.58,151.18 6.28,186.92 3,297 -2.82,94.8 5.56,445.26 20.81,527.17 8.82,47.35 63.93,108.28 85.16,166.92 37.74,104.22 85.98,219.19 97.29,326.91 54.78,12.21 37.03,-9.69 51.03,-29.98 33.54,-48.61 136.76,-196.24 149.6,-239.15 70.76,-236.71 73.61,-534.13 158.06,-774.57 -194.58,-97.6 -139.45,-489.74 70.39,-533.6 256.72,-53.65 267.36,455.8 28.79,516.93l-136.94 693.61c185.59,-113.65 352.77,-277.64 566.92,-338.42 35.44,-10.06 98.38,3.63 117.28,-8.3 14.46,-9.13 32.28,-137.07 49.77,-166.99 -291.78,-143.4 -63.78,-669.72 229.47,-576.06 202.08,64.54 124.65,467.46 -34.48,564.11 -37.02,22.48 -88.74,16.12 -100.14,25.44 -7.83,6.42 -67.19,181.08 -66.38,191.17 1.76,21.98 74.19,72.81 95.16,104.32 88.06,132.35 155.07,279.96 196.63,433.82 52.55,10.95 36.57,-5.71 51.29,-29.19 35.36,-56.44 266.61,-586.85 263.24,-620.44 -3.92,-39.08 -44.46,-70.76 -41.68,-140.47 12.6,-315.4 392.74,-361.56 407.6,-65.6 11.23,223.85 -252.5,235.47 -311.51,319.85 -28.1,40.17 -250.63,553.85 -272.37,621.6 -37.08,115.58 3.59,184.22 -5.11,303.79 27.25,28.5 334.02,-138.41 378.78,-182.45 58,-57.05 252.71,-324.19 290.41,-397.06 63.57,-122.81 47.46,-308.96 214.32,-335.68 140.9,-22.55 235.05,32.37 207.01,182.62 -40.99,219.7 -229.78,153.2 -347.38,227 -14.49,9.1 -209.3,249.61 -216,265.36 -20.76,48.72 29.92,30.51 51.28,28.49 133.27,-12.64 547.5,-73.11 643.79,-13.64 14.8,9.14 30.76,13.74 34.82,33.74 9.65,301.11 -106.66,610.46 -240.15,876.44 -331.83,661.15 -989.92,1261.59 -1773.23,1217.32 -21.02,-83.18 -345.96,-243.29 -434,-264.96 -93.06,-22.89 -422.06,-46.25 -459.72,58.71l-0.01 0z"/>
   <path class="fil8" d="M7773.95 3948.67c91.25,-71.17 189.59,-152.72 312.12,-158.95 90.9,-4.62 212.32,72.91 243.97,64.82 52.11,-13.31 344.16,-266.88 436.48,-322.24 218.69,-131.13 716.64,-347.66 967.11,-328.31 110.93,8.57 168.99,74.77 204.83,172.41 56.2,153.11 55,834.5 35.16,1019.27 -62.46,582.03 -854.2,266.1 -1191.77,149.03 239.94,324.05 554.07,632.79 729.18,1000.75 238.85,501.89 -140.72,317.27 -408.1,167.81 -44.81,153.56 -101.88,461.19 -259.24,533.19 -107.58,49.22 -174.82,-172.52 -210.22,-258.85 -183.61,-447.66 -285.53,-934.7 -467.77,-1383.75 -69.2,-20.94 -228.17,-37.52 -275.22,23.21 -85.64,110.5 -228.36,480.87 -288.1,628.54 -58.55,144.72 -290.33,884.29 -378.88,928.18 -232.06,46.98 -262.53,-308.01 -298,-470.58 -157.06,56.39 -304.28,152.82 -481.19,137.6 33.59,-508.21 471.52,-912.34 756.3,-1306.08 -376.18,115.09 -981.18,388.5 -1051.67,-220.39 -23.43,-202.34 4.06,-917.43 111.94,-1074.78 83.51,-121.77 213.56,-94.54 337.6,-64.32 432.16,105.3 925.26,397.48 1175.46,763.45l0.01 -0.01z"/>
   <path class="fil9" d="M15427.65 5209.24l202.8 335.26c255.97,410.89 -62.56,777.09 -510.34,716.59 -270.87,-36.66 -388.2,-402.4 -380.41,-639.59 -144.6,181.5 -229.62,484.45 -452.82,589.63 -210.83,99.69 -426.01,23.84 -578.64,-142.08 -283.93,-308.45 -46.06,-622.4 195.93,-859.35l194.1 -137.96c-392.55,-14.44 -939.33,24.52 -868.75,-536.92 76.55,-607.05 694.82,-449.39 1051.85,-196.62l-177.37 -360.7c-91.43,-281.4 -170.96,-628.81 178.06,-750.27 455.11,-158.13 481.69,238.1 583.9,560.98 109.77,-270.63 330.68,-716.35 682.2,-659.06 209.46,34.37 433.57,282.78 450.3,490.17 23.61,294.24 -296.07,489.26 -456.49,695.73 385.69,-99.92 731.26,6.19 819.02,429.9 122.37,588.72 -535.32,581.62 -933.37,464.28l0.03 0.01z"/>
   <path class="fil10" d="M10820.29 23896.03c9.97,-7.99 162.47,-166.52 168.44,-177.18 122.23,-217.92 11.05,-561.61 -253.04,-606.8 -334.8,-57.29 -574.74,188.56 -807.81,384.04 107.96,-411.81 328.73,-1046.27 -332.76,-1032.9 -217.66,4.4 -371.11,170.44 -400.78,379.79 -23.71,167.2 0,437.75 0,618.74 0,3.84 49.02,40.11 11.57,57.18 -107.12,-112.88 -210.85,-257.84 -332.14,-355.35 -567.52,-456.33 -1127.9,270.04 -629.91,675.74 185.91,151.45 372.21,178.98 595.41,230.08 35.65,8.16 39.81,-15.14 34.3,45.37 -365.58,3.31 -1032.4,370.63 -775.8,810.2 268.99,460.78 861.84,-55.24 1108.26,-282.56 -191.17,374.1 -417.81,1191.83 275.97,1123.49 536.52,-52.85 408.83,-828.43 331.29,-1192.6l322.98 398.54c589.85,540.21 1096.31,-175.8 627.25,-581.42 -174.06,-150.53 -319.98,-168.18 -527.45,-229.08 -33.4,-9.81 -39.89,13.09 -33.47,-46.25 174.67,-53.62 476.65,-106.11 617.69,-219.02l0 -0.01zm-1351.93 507.08c-384.04,-72.68 -388.55,-602.48 -51.12,-672.55 583.04,-121.07 536.8,764.46 51.12,672.55z"/>
   <path class="fil11" d="M18567.02 7042.33c55.97,221.54 -294.22,404.85 -470.13,435.06 -224.42,770.36 -286,1560.24 -217.13,2360.69l217.19 -412.76c220.62,-971.08 968.7,-1920.41 1930.33,-2240.4 103.98,-34.6 439.81,-127.43 513.31,-40.77 35.91,42.34 -55.47,337.39 -78.16,407.17 -291.75,897.23 -1012.65,1591.64 -1889.79,1914.28 -88.56,32.57 -285.21,62.36 -339.29,96.11 -170.11,106.15 -371.78,1271.7 -510.97,261.66 -67.5,-489.77 -66.58,-994.05 -0.43,-1483.45 39.91,-295.3 122.99,-582.86 182.52,-874.02 -4.72,-88.29 -101.66,-127.74 -149.51,-195.87 -81.9,-116.64 -130.82,-296.98 -81.67,-433.94 37.66,-104.97 366.67,-81.6 459.73,-58.71 88.03,21.66 412.98,181.78 433.99,264.96l0.01 -0.01z"/>
   <path class="fil12" d="M19873.23 15773.37c237.99,173.19 311.71,695.12 4.42,817.75 -323.84,129.21 -594.23,-297.9 -554.64,-588.47l-219.24 433.51c-132.73,167.72 -473.13,198.11 -583.8,-8.48 -162.49,-303.35 48.59,-553.62 298.67,-711.83 -984.99,11.42 -602.38,-1292.45 229.39,-629.98 9.86,-12.45 -47.42,-234.93 -47.35,-286.38 0.45,-301.91 329.13,-685.14 621.23,-436.21 249.62,212.72 157.27,574.01 56.32,836.73 74.19,-95.1 289.72,-205.36 412.74,-207.65 52.79,-0.98 232.62,43.89 280.44,65.13 101.56,45.11 151.6,168.55 162.69,272.05 15.57,145.25 -172.7,443.82 -328.58,443.82l-332.29 0.01zm-625.42 -545.08c-280.98,64.92 -276.88,547.63 23.52,608.7 507.17,103.11 470.34,-722.79 -23.52,-608.7zm-2880.51 -1884.04c235.12,-257.54 791.22,-203.44 676.41,229.89 -64.13,242.07 -337.92,251.94 -539.09,274.54 113.05,108.18 253.58,199.18 287.69,365.04 65.33,317.6 -126.99,478.8 -434.69,434.58 -276.24,-39.7 -314.49,-480.07 -345.77,-478.62 -113.71,244.68 -525.38,533.13 -757.26,275.59 -217.09,-241.11 118.12,-583.95 356.47,-654.15 -222.9,-58.09 -490.92,-157.24 -459.29,-435.9 10.38,-91.46 94.83,-208.01 183.29,-230.47 47.31,-12.01 156.94,-31.69 283.71,-2.76 96.87,22.12 145.43,100.21 221,153.51 -30.29,-270.57 40.46,-679.54 398.69,-640.11 319.23,35.15 222.43,511.1 128.84,708.85l0 0.01zm-306.41 167.68c-280.6,16.06 -289.76,454.35 -2.73,451.85 245.75,-2.15 337.46,-470.99 2.73,-451.85zm1669.66 1940.67c-177.73,-603.78 -817.2,-212.52 -646.7,348.74 31.17,102.58 158.54,338.81 268.61,361.6 19.91,4.11 95.11,4.25 114.58,0 259.92,-56.88 327.42,-493.18 263.5,-710.34l0.01 0zm-687.62 1031.34c-137.93,-102.88 -358.44,-110.41 -457.23,46.6 -225.09,357.74 371.3,891.02 675.11,686.54 4.75,-3.2 67.28,-86.13 68.74,-91.67 41.41,-155.96 -156.53,-544.42 -286.62,-641.47z"/>
   <path class="fil13" d="M2823.65 21685.71c33.4,422.51 147.85,829.69 235.92,1242.31l245.07 659.58c41.91,-298.83 30.24,-574.24 103.27,-870.77 103.68,-420.9 326.96,-825.06 652.89,-1111.65 133.41,-117.31 609.79,-476.27 779.82,-389.63 114.24,161.35 68.66,442.84 39.15,635.7 -88.87,580.66 -423.43,1139.39 -864.15,1519.12 -192.1,165.53 -420.55,276.35 -614.84,437.88 193.37,550.41 527.01,1036.06 889.31,1486.95 53.41,66.47 90.49,102.6 138.71,159.21 31.34,36.8 186.6,204.45 193.36,219.13 40.92,88.83 11.39,238.86 -115.4,161.11 -133.59,-81.91 -416.83,-515.5 -513.41,-541.32 -107.46,-28.74 -166.13,66.78 -215.97,85.42 -416.9,155.94 -1232.35,121.58 -1593.38,-154.47 -327.36,-250.31 -293.62,-596.62 106.22,-737.71 562.21,-198.38 1145.8,253.92 1553.36,590.6 15.32,4.76 16.65,-20.29 11.05,-33.85 -46.99,-113.9 -245.95,-359.63 -324.51,-500.6 -141.46,-253.85 -251.07,-525.05 -386.93,-781.79 -115.83,-64.76 -252.44,-21.57 -376.51,-35.98 -813.9,-94.49 -1538.71,-548.84 -1822.55,-1339.86 -55.42,-154.43 -142.94,-393.37 -56.88,-538.95l389.57 -0.01c483.98,0 1146.89,592.76 1405.1,978.18l347.76 602.91c-171.41,-562 -310.3,-1134.81 -389.35,-1718.59 62.36,1.83 123.02,-10.8 183.33,-22.91l-0.01 -0.01zm10354.14 2513.27c-61.3,-108.99 -225.67,-429.31 -243.75,-537.02 -18.52,-110.35 77.42,-363.59 88.12,-497.35 20.54,-256.91 -28.25,-673.3 -376.74,-629.01 -294.03,37.38 -327.48,407.51 -254.1,639.49 84.83,268.15 276.41,340.37 378.76,514.97 56.42,96.24 88.79,252.92 139.93,364.22 55.84,121.51 127.99,255.06 202.83,358.28 -95.98,-33.55 -312.65,-46.41 -388.3,-104.05 -40.06,-30.53 -63.81,-129.94 -96.88,-178.12 -163.42,-238.14 -620.34,-774.35 -925.11,-452.06 -268.73,284.17 109.7,666.88 389.8,758.21 253.2,82.56 379.25,7.9 594.05,22.71 140.01,9.65 353.78,120.47 518.75,101.96l434.92 515.87c-168.34,8.49 -306.04,-100.86 -461.59,-145.45 -320.79,-91.95 -753.99,-127.54 -1073.9,-26.31 -662.21,209.56 -528.65,787.02 126.52,836.21 456.51,34.29 841.04,-159.33 1214.76,-388.66 101.58,-62.33 159.94,-156.52 298.47,-158.7 261.24,167.08 478.45,379.07 751.17,528.72 132.8,72.87 656.07,377.33 509.84,17.12 -136.68,-60.41 -326.82,-110.43 -453.2,-183.41 -12.95,-7.47 -139.66,-104.95 -144.15,-112.93 -30.28,-53.77 -57.62,-386.27 -12.07,-424.03 24.55,-20.35 111.17,-31.16 153.69,-52.55 229.92,-115.69 555.33,-534.21 579.65,-795.16 40.95,-439.51 -291.86,-525.78 -572.28,-251.62 -345.82,338.1 -389.58,984.97 -298.41,1431.98 -127.22,-103.48 -268.65,-198.22 -389.67,-309.04 -48.12,-44.06 -312.25,-308.43 -324.81,-341.5 -22.35,-58.81 -46.61,-280.8 -14.19,-330.55 132.96,-52.28 250.66,-203.07 335.44,-317.56 219.14,-295.93 396.81,-695.41 345.63,-1071.16 -61.82,-453.86 -474.13,-231 -662.07,-1.5 -330.88,404.03 -273.72,997.31 -184.06,1477.58 -85.81,-54.46 -136.58,-169.87 -187.05,-259.58zm4460.68 128.93l-33.93 16.07c-115.25,255.66 -268.45,497.38 -436.36,720.91 -75.8,100.9 -178.99,182.07 -227.8,299.26l-344.03 285.92c179.85,-553.12 188.4,-1131.25 -72.07,-1658.09 -280.78,-567.88 -589.47,-520.54 -723.3,95.27 -147.34,677.93 151.98,1259.1 657.32,1688.97 -91.18,101 -232.74,132.85 -251.61,286.17 28.43,0.75 55.61,20.52 82.96,22.22 197.65,12.34 585.83,-435.44 758.74,-545.49 233.5,45.11 446.77,143.85 684.95,177.04 635.29,88.53 1640.85,-137.99 2037.82,-683.69 164,-225.44 -23.72,-309.49 -232.61,-365.27 -647.08,-172.78 -1319.96,27.89 -1880.67,360.29l-465.82 301.64c245.64,-289.34 443.41,-615.39 595.81,-962.25 -55.95,-1.83 -98.36,-21.47 -149.4,-38.99l0 0.02zm-6010.5 -19813.28c22.06,-35.89 98.46,-156.73 121.94,-175.98 41.64,-34.11 119.99,-27.01 177.84,-51.32 386.36,-162.36 673.86,-533.63 636.15,-969.85 -37.39,-432.41 -524,-195.23 -712.36,-0.08 -213.48,221.2 -298.71,521.29 -272.83,824.77 3.47,40.78 43.4,76.57 40.2,112.24 -8.63,96.13 -342.45,603.31 -334.2,559.06 46.54,-249.51 35.79,-537.45 -62.43,-773.01 -157.12,-376.82 -508.4,-382.12 -558.76,36.77 -27.45,228.37 61.76,509.35 193.7,694.96 59.94,84.31 350.02,302.11 352.64,355.56l-251.2 860.43c-66.95,-45.1 -71,-155.11 -103.3,-228.76 -80.47,-183.46 -262.09,-491.01 -425,-606.24 -207.48,-146.77 -362.21,-45.74 -341.9,204.65 17.04,210.03 236.17,489.58 418.84,589.24 87.57,47.78 206.14,59.9 279.96,109.61 65.45,44.08 169.94,319.98 251.12,159.87 59.23,-116.82 64.88,-353.02 130.2,-488.42 18.2,-37.72 225.83,-248.96 258.82,-268.24 80.83,-47.22 125.78,1.07 206.47,2.15 263.71,3.52 482.03,-73.78 697.99,-220.6 581.85,-395.59 435.85,-906.9 -273.68,-571.59 -327.69,154.87 -524.04,437.78 -755.35,699.6 110.85,-284.24 163.73,-592.23 325.13,-854.82l0.01 0zm-9466.98 4576.79c-33.54,-265.97 14.47,-449.69 -99.06,-725.92 -264.94,-644.62 -1135.07,-287.72 -778.15,319.83 171.56,292.02 509.44,426.15 784.17,595.88 -2.47,96.49 3.1,197.4 24.29,291.44 8.66,38.47 -197.96,593.15 -254.18,815.46 -59.6,10.52 -155.97,-289.39 -216.99,-413.02 -40,-81.06 -121.85,-180.56 -153.88,-258.62 -99.03,-241.37 -101.94,-417.49 -315.9,-623.65 -162.54,-156.62 -534.32,-312.06 -669.62,-49.88 -168.99,327.45 277.33,650.92 548.67,743.73 95.66,32.72 306.25,50.56 359.81,98.51 126.59,113.36 240.49,532.93 346.78,686.16 24.87,92.99 -99.6,430.51 126.07,305.38 99.08,-421.54 546.31,-1509.8 679.77,-1537.24 316.61,-65.11 590.02,-105.73 830.69,-360.94 152.77,-162 283.57,-592.07 0.86,-665.05 -498.8,-128.76 -931.06,305.87 -928.03,792.02l-218.21 342.89c27.17,-126.12 -52.98,-245.15 -67.08,-356.98l-0.01 0zm2057.74 480.31c16.59,-157.56 37.95,-442.83 -189.45,-420.12 -181.22,18.1 -297.76,98.36 -403.12,240.14 -178.82,240.64 -224.49,540.29 -332.84,812.89 -50.3,-382.11 -388.35,-637.92 -539.11,-126.62 -99.34,336.89 8.83,719.83 226.26,989.45 13.34,66.15 -229.59,253.98 -134.92,318.51 122.05,83.19 222.55,-225.79 290.49,-238.67 360.34,175.11 907.77,150.85 1166.23,-185.79 225.42,-293.6 -66.67,-438.17 -344.13,-412.73 -197.48,18.11 -340.98,133.87 -515.76,205.72 78.47,-141.55 215.25,-235.66 320.32,-355.48 47.74,-54.43 138.67,-154.42 175.82,-202.3 137.08,-176.72 256.37,-398.73 280.2,-625l0.01 0zm-1945.76 1974.31c-145.97,-172.91 -380.38,-118.33 -474.26,74.34 -129.43,265.6 -5.71,542.03 51.23,806.77 -67,-58.11 -110.71,-134.96 -158.7,-207.72 -59.82,-90.68 -255.69,-394.51 -277.49,-478.6 -33,-127.3 17.42,-212.95 12.31,-331.98 -8.33,-194.12 -44.71,-384.67 -158.43,-547.05 -53.87,-76.92 -122.73,-143.23 -204.55,-189.83 -158.8,-90.44 -384.64,-91.1 -498.52,76.12 -82.86,121.69 -34.2,298.8 15.2,423.3 67.66,170.52 182.96,342.47 330.41,454.14 120.03,90.91 246.88,110.67 379.4,170.6l296.49 562.61 -419.4 -256.39c-232.57,-121.1 -759.01,-140.43 -701.98,243.47 59.28,399.05 810.78,417.43 1092.8,271.81 43.33,-22.38 203.21,-19.69 203.21,-19.69 90.47,24.35 270.96,402.5 363.99,403.49 173.72,-63.73 -88.37,-239.82 -99.04,-314.32 0,0 84.75,-123.49 102.37,-152.6 152.89,-252.69 367.37,-725.03 144.96,-988.49l0 0.02zm17648.08 5707.4c-512.91,394.93 -791.13,1239.01 -604.14,1860.56 49.75,165.39 67.84,208.94 224.02,96.75 486.79,-349.73 879.79,-1077.93 837.28,-1685.13 -7.03,-100.49 -63.83,-432.81 -189.7,-419.59 -54.36,5.71 -217.99,109.33 -267.45,147.41l-0.01 0zm-19017.77 -9883.88c-6.19,-48.15 23.94,-113.61 19.99,-178.52 -9.26,-152.05 -83.2,-492.05 -267.23,-514.96 -310.7,-38.68 -290.65,287.82 -188.6,488.16 28.02,55.02 106.22,153.44 157.41,186.32 57.86,37.17 141.95,40.85 175.54,65.19 60.48,43.81 56.75,216.33 189.87,176.44 24.2,-87.6 -77.73,-150.8 -86.97,-222.64l-0.01 0.01z"/>
   <path class="fil14" d="M14744.49 4539.43c385.19,-87.27 366.79,548.97 5.24,467.02 -274.85,-62.3 -216.52,-419.16 -5.24,-467.02z"/>
   <path class="fil15" d="M2594.49 19187.86c41.49,-1.96 97.95,-4.75 137.5,0 135.92,16.34 356.96,141.82 435.4,252.07 2.97,4.18 44.26,86.79 45.83,91.67 36.01,111.81 35.62,369.99 0,481.23 -1.56,4.88 -43.09,87.33 -45.83,91.67 -73.61,116.36 -276.92,244.09 -412.49,274.99 -25.76,5.87 -117.2,22.69 -137.5,22.91 -176.1,1.93 -368.37,-99.01 -481.23,-229.16 -7,-8.07 -16.72,-14.81 -22.91,-22.91 -120.96,-158.33 -114.62,-441.65 -45.83,-618.73 7.41,-19.09 35.08,-74.8 45.83,-91.67 104.18,-163.42 293.71,-243.19 481.23,-252.07z"/>
   <path class="fil16" d="M2113.26 19439.94c-10.75,16.87 -38.42,72.58 -45.83,91.67 -76.5,9.24 -314.21,-159.3 -316.21,-213.44 -6.8,-184.24 308.51,80.41 362.04,121.77zm-404.89 747.28c41.59,34.71 325.86,-29.38 370.13,-92.44 -9.23,-18.28 -32.16,-76.09 -37.52,-95.37 -66.55,12.16 -474.16,69.7 -332.61,187.82l0 -0.01zm934.55 592.23c45.91,-28.78 73.19,-318.9 26.97,-380.55 -20.24,3.11 -82.32,6.97 -102.31,6.08 -9.09,67.04 -80.87,472.39 75.34,374.47l0 0zm928.47 -658.32c-9.52,-53.33 -268.41,-187.09 -342.87,-167.28 -4.68,19.93 -24.31,78.95 -32.61,97.16 58.78,33.5 407.9,251.62 375.48,70.12zm-156.85 -971.25c-51.22,-17.68 -294.18,143.21 -313.15,217.89 15.13,13.8 57.1,59.7 68.95,75.82 57.89,-35.01 418.49,-233.58 244.21,-293.71l-0.01 0zm-795.5 -340.9c-46.48,27.84 -79.59,317.36 -34.62,379.93 20.31,-2.7 82.44,-5.31 102.41,-4.02 10.45,-66.84 90.36,-470.67 -67.78,-375.91l-0.01 0zm1086.29 -5557.12c-92.55,349.4 255.13,670.14 578.33,486.82 375.95,-213.24 243.85,-823.63 -204.32,-779.17 -138.7,13.76 -337.8,155.68 -374,292.35l-0.01 0z"/>
   <path class="fil17" d="M5848.22 5678.43c-62.4,-689.1 -659.47,-722.12 -1214.08,-607.89l318.88 -173.46c422.44,-259.1 740.77,-712.91 517.8,-1216.86 -42.61,-96.3 -106.12,-187.52 -197.8,-239.31 -86.46,-48.84 -189.29,-58.23 -288.58,-59.87 -431.2,-7.14 -756.8,211.4 -955.89,591.54 -0.01,0.02 -242.18,479.35 -242.18,479.35 50.31,-344.94 146.69,-727.72 -33.4,-1055.25 -170.67,-310.4 -646.61,-349.76 -957.88,-290.89 -273.88,51.8 -389.75,151.82 -446.34,424.48 -69.76,336.04 -21.64,588.58 127.06,891.5 27.7,56.43 231.66,349.87 210.23,373.89l-480.62 -309.75c-266.01,-137.37 -485.55,-217.08 -787.69,-186.26 -426.64,43.52 -618.16,763.34 -507.39,1114.7 177.83,564.07 969.56,496.7 1431.97,435.81l-97.59 74.89c-616.1,147.92 -1157.98,1039.66 -528.54,1502.14 364.29,267.67 830.66,216.7 1106.81,-145.7l412.93 -652.32c-147.54,624.24 33.84,1449.3 848.87,1249.57 546.91,-134.01 582.57,-591.84 447.28,-1067.49 -57.16,-200.95 -180.43,-367.19 -276.39,-548.36 636.35,387 1684.75,433.71 1592.56,-584.47l-0.02 0.01zm-941.84 99.46c-311.56,-34.97 -622.09,-78.74 -931.24,-130.89 -57.43,144.11 -178.65,265.74 -322.47,334.68 104.07,276.74 215.1,550.83 333.94,821.57 12.5,28.44 8.68,61.28 -20.55,78.38 -24.51,14.34 -65.95,7.79 -78.38,-20.55 -121.46,-276.68 -235.31,-556.64 -341.85,-839.4 -150.07,41.35 -312.34,24.48 -447.48,-79.45 -185.23,230.86 -364.42,466.48 -536.96,706.99 -18.09,25.22 -49.55,37.43 -78.38,20.56 -24.95,-14.6 -38.61,-53.23 -20.55,-78.39 177.66,-247.65 362.32,-490.22 553.06,-727.94 -122.97,-141.43 -156.11,-298.18 -129.43,-442.43 -280.6,-13.9 -561.48,-21.17 -842.44,-20.93 -73.85,0.06 -73.72,-114.52 0,-114.58 292.23,-0.25 584.39,7.57 876.21,22.62 62.84,-150.22 189.47,-275.77 339.36,-338.88 -30.28,-285.6 -67.57,-570.38 -112.75,-854.02 -4.9,-30.68 7.45,-61.53 40.01,-70.47 27.46,-7.55 65.6,9.43 70.47,40.01 45,282.43 82.48,566.04 113.18,850.39 140.2,-27.42 290.9,1.23 424.24,111.78 204.78,-242.74 402.69,-491.2 593.08,-745.36 18.61,-24.85 49.11,-37.68 78.39,-20.56 24.56,14.36 39.11,53.61 20.55,78.39 -196.13,261.82 -399.66,518.03 -610.59,768.07 115.1,134.69 149.52,277.35 129.48,408.98 299.16,50.47 599.59,93.01 901.1,126.86 30.88,3.47 57.28,23.45 57.28,57.29 0,28.48 -26.49,60.74 -57.28,57.28z"/>
   <path class="fil18" d="M3370.14 4935.16c-37.94,7.42 -75.06,19 -110.9,34.09 -30.28,-285.6 -67.57,-570.38 -112.75,-854.02 -4.89,-30.68 7.45,-61.53 40.01,-70.47 27.45,-7.55 65.6,9.43 70.47,40.01 45,282.43 82.48,566.04 113.17,850.39zm-1326.47 350.35c-73.72,0.07 -73.85,114.64 0,114.58 280.96,-0.24 561.84,7.02 842.43,20.93 7.16,-38.71 18.56,-76.53 33.77,-112.89 -291.82,-15.06 -583.98,-22.88 -876.21,-22.62l0.01 0zm971.86 577.94c-190.74,237.72 -375.41,480.29 -553.07,727.94 -18.04,25.15 -4.38,63.79 20.56,78.39 28.83,16.86 60.29,4.66 78.38,-20.56 172.54,-240.51 351.73,-476.13 536.96,-706.99 -20.87,-16.05 -41.12,-34.02 -60.55,-54.32 -7.74,-8.1 -15.14,-16.25 -22.28,-24.46zm872.16 997.63c12.43,28.34 53.87,34.89 78.38,20.55 29.23,-17.1 33.05,-49.94 20.55,-78.38 -118.84,-270.74 -229.87,-544.83 -333.94,-821.57 -34.5,16.55 -70.32,29.94 -106.84,40 106.54,282.75 220.39,562.71 341.85,839.4zm1018.69 -1197.76c-301.51,-33.85 -601.94,-76.39 -901.1,-126.86 -5.78,37.91 -15.95,74.92 -30.14,110.54 309.14,52.15 619.68,95.92 931.24,130.89 30.79,3.46 57.28,-28.8 57.28,-57.28 0,-33.84 -26.4,-53.82 -57.28,-57.29zm-1050.91 -558.76c7.07,7.61 13.78,15.25 20.33,22.91 210.94,-250.04 414.47,-506.26 610.6,-768.07 18.56,-24.78 4.01,-64.02 -20.55,-78.39 -29.28,-17.12 -59.78,-4.28 -78.39,20.56 -190.4,254.17 -388.3,502.63 -593.08,745.37 20.81,17.25 41.25,36.27 61.09,57.62z"/>
   <path class="fil19" d="M1723.91 14856.71c62.18,-41.67 52.82,-156.08 75.15,-233.98 55.31,-192.98 149.33,-525.91 412.06,-471.15 229.13,47.76 228.04,295.48 165.19,475.5 -112.47,322.14 -410.87,510.33 -617.31,757.66l-81.13 594.65c52.76,13.31 37.7,-9.54 52.47,-28.72 178.01,-231.06 425.87,-594.22 760.9,-567.22 172.65,13.9 232.58,92.65 217.94,263.86 -26.65,311.58 -506.38,579.86 -773.31,670.53 -75.04,25.48 -275.46,49.51 -302.33,87.25l-138.8 1041.04 263.03 -389.73c130.33,-189.11 551.75,-428.33 625.11,-74.77 94.38,454.92 -550.8,713.89 -901.3,783.87l14.33 331.26c-65.53,55.61 -145.44,15.41 -161.3,-66.74 -31.98,-165.68 43.63,-656.75 -11.62,-767.45 -289.82,-161.09 -681.07,-363.73 -784.57,-704.98 -108.24,-356.84 114.25,-582.76 427.01,-335.34 232.41,183.87 345.9,549.65 368.89,834.32 32.47,5.39 33.22,-40.58 38.94,-63.63 49.13,-197.63 88.92,-498.18 118.47,-706.73 13.93,-98.28 83.09,-556.42 67.21,-610.83 -26.39,-90.48 -231.74,-122.32 -317.49,-164.55 -216.8,-106.78 -547.47,-362.58 -571.91,-619.61 -23.45,-246.64 128.15,-411.44 374.49,-305.88 302.19,129.5 414.87,528.85 503.14,803.33 7.72,24.01 5.81,69.19 38.76,63.78 -20.26,-80.83 23.3,-170.4 23.15,-240.51 -0.34,-153.63 -90.28,-715.82 -182.75,-825.56 -141.74,-168.21 -284.01,-242.98 -394.15,-476.66 -71.71,-152.16 -162.03,-541.47 61.88,-598.49 521.48,-132.77 604.94,656.04 562.16,1008.2 -16.58,136.52 -45.2,37.28 -2.37,206.31 27.52,108.67 59.89,218.94 70.03,330.99l0.03 -0.02zm5059.36 7853.59c-39.77,-175.42 -282.57,-194.94 -408.68,-97.54 -119.44,92.24 -181.8,383.61 -202.52,530.79 -25.79,183.25 0.36,503.7 -54.15,656.25 -7.5,20.99 -175.57,239.08 -189.41,246.12 -42.86,21.78 -34.31,-27.06 -29.31,-52.13 54.23,-272.45 82.15,-649.91 -39.27,-910.08 -137.45,-294.54 -488.99,-279.2 -536.39,59.22 -36.08,257.64 72.34,569.92 177.31,804 42.08,93.82 210.57,344.27 211.17,408.06 1.66,176.95 -261.48,498.02 -253.25,699.27l-115.6 -674.65c-66.71,-195.36 -151.33,-421.01 -343.95,-526.83 -353.25,-194.05 -444.85,196.59 -408.44,477.13 29.93,230.67 278.97,520.93 455.44,667.47 72.74,60.41 317,188.97 334.12,238.98 37.02,108.15 -149.3,722.05 87.66,641.5 109.23,-211.08 26.51,-499 150.1,-722 433.23,73.97 1058.83,55.28 1377.37,-295.17 158.35,-174.2 127.2,-489.83 -132.6,-534.09 -404.91,-68.98 -933.67,309.16 -1174.49,613.2 81.14,-306.02 218.14,-606.53 422.47,-849.14 135.47,-35.21 288.29,-28.08 430.33,-50.91 254.52,-40.91 857.73,-215.88 866.81,-533.14 3.24,-113.07 -105.45,-234.76 -219.26,-241.32 -117.08,-6.75 -280.42,22.51 -386.32,73.19 -127.13,60.85 -229.45,159.39 -334.88,249.26 114.67,-262.24 384.91,-572.28 315.73,-877.44l0.01 0zm-889.08 1358.81c7.54,33.56 -9.64,47.86 -34.37,68.17l11.92 -68.17 22.45 0zm11458.27 -7906.17c-24.71,432.42 129.58,837.5 298.32,1225.62l-120.68 -79.09 -200.55 -184.06c-1.47,5.54 -64,88.47 -68.74,91.67 131.04,82.96 218.24,213.9 331.67,321.43 74.92,71.04 185.01,129.13 253.18,205.14 114.58,127.76 204.29,348.68 309.08,492.98 -58.88,14.2 -125.7,-62.57 -183.15,-91.84 -191.65,-97.65 -762.2,-377.95 -823.99,1.64 -94.17,578.49 977.11,636.22 1337.26,495.41 107.61,87.89 147.22,304.84 311.27,270.98 52.53,-114.66 -191.35,-302.46 -178.65,-374.05 179.26,-269.91 398.79,-576.15 362,-920.82 -47.78,-447.64 -474.01,-443.72 -602.64,-29.61 -77.96,251 -0.03,456.2 18.41,705.69l-415.91 -607.02c33.95,-88.59 96.16,-160.8 133.42,-248.16 97.4,-228.32 267.36,-984.55 -130.57,-1002.52 -357.02,-16.12 -221,674.23 -186.6,876.35 4.02,23.67 36.08,70.29 -7.43,64.65 -153.09,-399.32 -324.77,-774.49 -321.11,-1214.38 -19.47,4.25 -94.68,4.11 -114.58,0l-0.01 -0.01zm836.45 2131.2l0 -22.91c14.88,7.64 14.88,15.27 0,22.91zm-12788.1 -6898.63c198.67,-320.97 -220.95,-691.77 -506.37,-403.28 -334.24,337.86 255.73,808.22 506.37,403.28zm2765.66 -6859.74c64.14,-114.81 110.22,-241.24 130.69,-371.3 16.71,-106.11 15.89,-216.77 -13.89,-320.26 -52.24,-19.43 -132.39,-57.77 -197.2,-54.48 -109.01,5.54 -198.85,70.71 -281.62,135.13 -7.21,22.25 -13.35,44.88 -17.55,67.9 -21.06,115.4 -10.53,236.63 18.97,349.6 23.94,91.66 60.95,183.07 116.31,260.84 54.13,-25.68 145.47,-20.39 208.23,-7.93 12.57,-19.49 24.75,-39.23 36.07,-59.48l-0.01 -0.02zm284.37 -261.53c-30.52,5.69 -61.7,-8.08 -70.48,-40.01 -7.7,-28.03 9.58,-64.79 40.01,-70.48 213.75,-39.87 430.45,-62.66 647.84,-67.17 73.88,-1.52 73.63,113.06 0,114.58 -207.26,4.29 -413.58,25.06 -617.37,63.08l0 0zm-865.94 -116.4c30.88,3.57 57.29,23.37 57.29,57.29 0,28.41 -26.5,60.85 -57.29,57.29 -210.94,-24.39 -421.87,-48.78 -632.81,-73.17 -30.88,-3.57 -57.29,-23.36 -57.29,-57.29 0,-28.4 26.5,-60.85 57.29,-57.28 210.94,24.39 421.87,48.77 632.81,73.16l0 0z"/>
   <path class="fil20" d="M10896.51 4191.57c-17.53,-52.69 65.49,-75.06 82.86,-22.85 71.48,214.91 142.97,429.82 214.44,644.73 17.53,52.69 -65.5,75.06 -82.87,22.84 -71.48,-214.91 -142.96,-429.81 -214.43,-644.72l0 0zm-584.27 1293.87c154.05,166.02 308.09,332.05 462.14,498.07 37.43,40.35 103.74,-14.39 65.97,-55.1 -154.05,-166.02 -308.1,-332.05 -462.15,-498.07 -37.43,-40.35 -103.74,14.39 -65.96,55.1l0 0zm1199.01 -111.14c195.63,-114.11 391.28,-228.21 586.91,-342.31 47.55,-27.73 8.59,-104.38 -39.38,-76.41 -195.63,114.1 -391.28,228.21 -586.91,342.31 -47.55,27.72 -8.59,104.38 39.38,76.41l0 0zm268.36 -1181.96c118.94,-192.74 237.87,-385.48 356.82,-578.21 28.9,-46.83 -41.54,-96.14 -70.7,-48.89 -118.94,192.74 -237.88,385.48 -356.82,578.21 -28.9,46.83 41.54,96.15 70.7,48.89l0 0z"/>
   <path class="fil21" d="M17155.21 4897.17c0.63,-73.81 115.21,-73.75 114.57,0 -1.23,142.63 -0.25,285.35 8.01,427.78 25.74,443.84 132.91,909.52 447.21,1241.91 50.68,53.59 -30.25,134.71 -81.02,81.02 -88.67,-93.77 -164.65,-199.5 -226.43,-312.76 -239.37,-438.85 -266.58,-948.68 -262.35,-1437.94l0.01 -0.01zm605.86 298.05c-36.33,468.73 -15.18,940.14 60.19,1404.12 4.97,30.56 42.94,47.58 70.47,40.01 32.49,-8.93 44.99,-39.82 40.01,-70.47 -73.67,-453.55 -91.6,-915.61 -56.09,-1373.66 2.4,-30.88 -28.05,-57.28 -57.29,-57.28 -32.99,0 -54.89,26.31 -57.29,57.28l0 0zm775.64 -68.35c-102.37,396.79 -200.66,794.63 -294.74,1193.47 -27,114.48 -53.65,229.05 -79.97,343.68 -16.48,71.77 93.97,102.42 110.48,30.46 91.71,-399.38 187.53,-797.83 287.55,-1195.22 28.72,-114.06 57.78,-228.04 87.16,-341.93 18.43,-71.44 -92.05,-101.92 -110.48,-30.46l0 0zm580.63 395.32c-118.64,345.84 -294.9,673.09 -519.63,961.67 -64.98,83.44 -134.14,163.59 -206.68,240.54 -50.55,53.63 30.31,134.81 81.02,81.02 262.26,-278.25 478.7,-599.73 635.42,-948.59 44.71,-99.52 84.97,-200.99 120.36,-304.18 10.04,-29.27 -11.49,-62.64 -40.01,-70.48 -31.43,-8.64 -60.39,10.64 -70.47,40.02l-0.01 0zm778.05 110.25c-131.27,200.3 -258.71,403.84 -395.19,600.63 -62.82,90.58 -132.88,174.05 -213.76,249.08 -78.72,73.02 -164.12,138.16 -250.58,201.63 -87.08,63.93 -183.91,149.6 -296.83,156.58 -73.25,4.53 -73.77,119.14 0,114.58 115.11,-7.12 210.49,-67.24 301.35,-133.28 93.21,-67.75 186.47,-135.97 273.93,-211.12 88.96,-76.44 168.12,-161 238.37,-254.95 72.88,-97.47 137.45,-201.15 204.13,-302.88 79.17,-120.81 158.35,-241.62 237.52,-362.44 40.54,-61.85 -58.64,-119.32 -98.94,-57.83l0 0z"/>
   <path class="fil22" d="M19724.22 7763.07c72.75,-64.95 180.48,42.18 107.41,107.41 -122.09,108.99 -242.32,220.05 -360.46,333.31 -411.82,394.83 -798.48,815.64 -1157.75,1258.82 -25.97,32.02 -80.73,26.67 -107.41,0 -31.13,-31.13 -25.81,-75.58 0,-107.42 103.06,-127.13 208.28,-252.49 315.81,-375.88 374.82,-430.12 776.78,-836.32 1202.4,-1216.24l0 0zm-2382.42 17682.78c437.34,-23.43 873.12,-74.16 1304.08,-152.19 122.36,-22.16 244.31,-46.57 365.81,-73.05 23.14,-5.04 41.59,-23.16 38.78,-48.44 -2.39,-21.66 -25.17,-43.85 -48.44,-38.78 -427.91,93.27 -861.56,159.82 -1297.79,198.75 -123.86,11.06 -247.92,19.83 -372.09,26.49 -56.51,3.02 -46.6,90.24 9.66,87.22l-0.01 0zm2228.27 -6484.6c156.55,-319.62 293.1,-648.95 408.37,-985.67 32.73,-95.61 63.7,-191.81 93.02,-288.51 5.58,-18.42 0.03,-38.68 -19.03,-46.7 -16.32,-6.88 -41.08,0.49 -46.7,19.02 -103.25,340.59 -227.73,674.67 -372.85,999.65 -41.2,92.27 -84.09,183.78 -128.54,274.53 -20.22,41.31 45.59,68.81 65.73,27.68l0 0zm-3387.02 5451.75c35.96,314.68 91.54,627.06 166.65,934.76 21.32,87.37 44.25,174.34 68.66,260.89 4.64,16.48 18.53,29.01 36.66,25.89 15.53,-2.67 30.56,-20.07 25.89,-36.66 -85.97,-304.84 -152.89,-614.98 -199.99,-928.2 -13.37,-88.93 -25.11,-178.1 -35.32,-267.45 -4.64,-40.67 -67.17,-29.71 -62.54,10.77l-0.01 0zm-14502.47 -1711.25c300.82,247.67 617.04,476.53 946.51,684.57 93.55,59.08 188.18,116.42 283.77,172.14 18.2,10.6 41.19,9.82 54.57,-8.44 11.45,-15.65 9.87,-43.89 -8.44,-54.57 -336.65,-196.22 -660.99,-413.42 -970.41,-650.28 -87.85,-67.25 -174.46,-136.1 -259.88,-206.43 -38.88,-32.01 -84.84,31.13 -46.13,63l0.01 0.01zm622.09 2190c370.53,120.6 748.51,218.05 1131.24,291.27 108.67,20.8 217.71,39.59 327.05,56.51 20.82,3.23 41.94,-5.91 47.71,-27.79 4.95,-18.76 -6.85,-44.47 -27.8,-47.71 -385.08,-59.6 -766.35,-143.24 -1140.93,-250.61 -106.36,-30.49 -212.15,-62.94 -317.36,-97.17 -47.89,-15.59 -67.59,59.98 -19.91,75.49l0 0.01zm1170.42 -1291.08c185.07,-342.9 348.71,-697.29 489.37,-1060.68 39.94,-103.18 77.98,-207.08 114.24,-311.62 6.9,-19.9 1.7,-42.32 -18.8,-51.92 -17.56,-8.23 -44.97,-1.23 -51.92,18.79 -127.68,368.15 -278.31,728.26 -451.11,1077.52 -49.06,99.17 -99.95,197.42 -152.5,294.78 -23.92,44.32 46.9,77.25 70.71,33.13l0.01 0z"/>
   <path class="fil23" d="M1754.92 8771.4c-18.76,-16.95 -17.15,-48.8 0,-65.95 18.44,-18.44 47.28,-16.87 65.95,0 112.29,101.48 203.61,226.43 265.59,364.52 10.36,23.06 6.92,49.97 -16.73,63.81 -20.08,11.74 -53.49,6.24 -63.81,-16.73 -59.11,-131.69 -143.91,-248.85 -251.01,-345.64l0.01 -0.01zm1093.42 49.18c-75.33,123.13 -174.8,228.12 -293.3,310.55 -20.69,14.38 -19.91,48.24 -4.66,65.8 17.96,20.69 45.05,19.09 65.8,4.66 124.26,-86.43 230.18,-199.27 309.16,-328.37 13.14,-21.48 9.35,-50.1 -12.19,-64.82 -20.02,-13.69 -51.62,-9.38 -64.82,12.19l0.01 -0.01zm-1895.07 573c119.68,80.71 220.16,184.73 297.25,306.77 13.45,21.29 47.3,22.02 65.53,7.56 21.46,-17.04 21.07,-44.15 7.56,-65.54 -80.84,-127.96 -188.87,-238.78 -314.35,-323.4 -20.87,-14.08 -49.63,-11.56 -65.29,9.3 -14.56,19.39 -11.66,51.15 9.3,65.29l0 0.02zm60.47 1895.25c91.03,112.03 156.91,240.78 195.18,379.96 6.68,24.29 38.86,34.83 60.5,26.3 25.48,-10.05 33,-36.12 26.3,-60.5 -40.13,-145.95 -111.26,-283.39 -206.7,-400.85 -15.88,-19.54 -44.13,-25.49 -65.18,-10.09 -19.58,14.33 -26.03,45.56 -10.09,65.18l-0.01 0zm999.21 846.13c-13.01,143.77 -55.69,281.95 -125.44,408.32 -12.17,22.06 3.52,52.06 24.97,61.06 25.27,10.59 48.84,-2.83 61.05,-24.97 73.13,-132.52 118.13,-280.6 131.76,-431.33 2.27,-25.07 -13.8,-49.06 -39.63,-52.71 -24.01,-3.41 -50.44,14.45 -52.72,39.63l0.01 0zm-539.04 284.23c-140.27,34.09 -284.84,38.27 -426.96,13.04 -24.8,-4.4 -48.15,20.13 -49.73,43.34 -1.87,27.33 18.44,45.31 43.34,49.73 149.03,26.45 303.7,21.25 450.77,-14.49 24.46,-5.94 41.97,-28.89 37.1,-54.52 -4.52,-23.82 -29.95,-43.07 -54.52,-37.1l0 0z"/>
   <path class="fil24" d="M9840.39 10514.88c-88.08,0 -152.58,-6.35 -193.41,-18.88 -22.04,-9.43 -40.91,-22.03 -56.6,-37.73 -15.78,-22.05 -26.76,-58.24 -33.02,-108.51 -3.16,-40.91 -4.72,-470.1 -4.72,-1287.83l0 -919.87c0,-704.43 1.56,-1075.55 4.72,-1113.29 6.26,-53.44 21.97,-91.99 47.17,-115.57 25.14,-23.59 64.43,-36.92 117.93,-40.11l1325.58 0.01c81.74,0 127.35,1.62 136.79,4.72 62.88,15.78 105.34,45.62 127.38,89.63 12.53,28.31 18.87,75.47 18.87,141.52 0,31.46 -1.62,69.21 -4.72,113.22l0 136.8c0,28.3 -3.16,50.34 -9.42,66.04 -15.78,47.18 -53.53,80.2 -113.22,99.06l-23.61 0c-18.86,3.16 -67.66,4.72 -146.23,4.72l-589.66 0.01c-25.21,-3.1 -47.18,-4.72 -66.04,-4.72 -25.21,0 -47.18,3.16 -66.06,9.43l-4.71 0c-47.17,15.77 -77.1,45.63 -89.62,89.63 -6.35,18.87 -10.26,39.36 -11.8,61.33 -1.62,22.03 -2.36,80.2 -2.36,174.55 -3.17,47.16 -4.72,88.07 -4.72,122.64 0,44.07 1.55,78.64 4.72,103.79l0 23.58c6.26,56.61 22.77,97.51 49.53,122.65 26.68,25.2 69.95,42.45 129.73,51.88l235.87 0c88.01,0 154.06,0.82 198.13,2.36 44,1.62 76.21,7.07 96.7,16.51 20.42,9.45 36.94,22.04 49.53,37.74 12.53,12.62 21.97,25.21 28.31,37.75 6.25,12.6 10.17,33.82 11.78,63.68 1.55,29.94 2.36,76.3 2.36,139.16 0,88.09 -1.62,149.41 -4.71,183.98 -3.18,34.64 -7.9,61.32 -14.16,80.2 -18.87,40.91 -55.07,67.66 -108.51,80.2l-23.57 4.71c-56.61,3.16 -144.7,4.72 -264.18,4.72 -128.99,0 -206.02,0.8 -231.15,2.36 -25.21,1.62 -45.62,3.97 -61.32,7.07 -50.36,25.2 -81.82,69.2 -94.35,132.08l0 33.02c-3.17,59.78 -4.72,154.12 -4.72,283.03 0,185.6 3.1,294.1 9.43,325.5 6.26,59.78 34.58,99.06 84.92,117.93 12.53,6.34 25.94,11.06 40.09,14.15 14.16,3.17 36.94,4.72 68.4,4.72 44.01,3.17 176.1,4.71 396.27,4.71 176.1,3.18 287.76,4.72 334.93,4.72 56.6,3.17 92.73,6.33 108.5,9.43 37.74,12.61 66.05,36.19 84.92,70.76 9.42,25.21 15.7,62.94 18.86,113.22 3.1,28.29 4.72,59.7 4.72,94.35 0,103.76 -3.16,179.25 -9.43,226.43 -9.43,40.82 -26.75,72.3 -51.89,94.34l-4.71 4.71c-6.35,6.27 -14.16,10.98 -23.59,14.16 -15.77,6.27 -58.23,9.43 -127.37,9.43 -53.51,3.1 -193.42,4.71 -419.84,4.71 -198.13,3.1 -433.99,4.72 -707.6,4.72 -62.94,3.1 -117.92,4.72 -165.1,4.72l-0.02 0.02zm-2242.16 4362.68c-75.15,0 -141.99,-0.87 -200.4,-2.55 -58.51,-1.75 -96.08,-2.56 -112.72,-2.56 -29.26,-3.42 -54.3,-7.65 -75.15,-12.78 -20.93,-5.09 -39.72,-12.76 -56.36,-22.95 -16.73,-10.23 -32.39,-26.43 -46.96,-48.52 -14.69,-22.2 -24.07,-46.84 -28.19,-74.05 -4.21,-30.64 -7.34,-212.81 -9.39,-546.43 -2.16,-333.61 -3.14,-726.84 -3.14,-1179.66l0 -1955.91c12.52,-51.07 35.42,-86.81 68.88,-107.23 12.53,-13.58 23.98,-22.99 34.45,-28.1 10.37,-5.1 27.11,-8.45 50.1,-10.2 22.9,-1.68 55.28,-4.23 97.06,-7.67l363.23 -5.09c175.34,-3.36 367.31,-5.12 576.12,-5.12 354.8,10.21 659.61,69.82 914.3,178.74 396.57,177.06 636.61,430.73 720.16,760.91 12.52,57.92 18.79,114.11 18.79,168.52 0,211.14 -83.57,420.51 -250.49,628.13 -29.26,34.07 -56.36,69.83 -81.41,107.24l0 10.22c-8.41,17.07 -12.52,35.74 -12.52,56.18 0,40.86 22.89,85.13 68.88,132.78 58.42,64.71 105.39,121.77 140.9,171.08 35.42,49.39 65.77,101.33 90.8,155.75 54.22,122.56 81.42,243.45 81.42,362.58 0,156.64 -48.05,309.85 -144.03,459.61 -116.93,180.49 -266.16,333.62 -447.76,459.61 -181.61,125.91 -383.07,214.5 -604.31,265.57 -162.81,37.42 -430.04,66.37 -801.57,86.8 -62.63,3.36 -179.55,5.1 -350.69,5.1l0 0zm607.44 -2395.08c41.67,0 85.52,-3.36 131.51,-10.22 133.55,-23.78 246.28,-54.41 338.15,-91.92 187.88,-81.71 300.6,-187.2 338.17,-316.61 8.31,-17 12.52,-39.1 12.52,-66.39 0,-37.43 -6.27,-73.17 -18.79,-107.25 -25.04,-57.85 -74.16,-110.58 -147.16,-158.3 -73.09,-47.64 -159.69,-85.05 -259.89,-112.35 -62.62,-13.57 -131.5,-24.66 -206.65,-33.2 -75.15,-8.46 -141.99,-12.77 -200.39,-12.77 -33.47,0 -60.58,1.76 -81.41,5.12 -100.21,17.07 -158.72,66.38 -175.35,148.09 -4.21,20.43 -6.26,55.37 -6.26,104.69l0 462.16c4.11,37.51 10.37,59.61 18.78,66.39 20.84,61.28 68.88,98.79 144.03,112.35 29.16,6.86 66.74,10.22 112.73,10.22l0.01 -0.01zm-37.57 1664.81c16.63,0 41.67,-1.66 75.14,-5.1 254.6,-13.56 452.94,-79.95 594.92,-199.16 150.29,-122.57 225.45,-240.02 225.45,-352.37 0,-17 -2.15,-35.75 -6.27,-56.19 -41.78,-183.84 -250.49,-291.08 -626.21,-321.72 -45.99,-3.36 -91.89,-5.12 -137.78,-5.12 -71.04,0 -129.45,3.44 -175.34,10.22 -100.21,20.43 -158.72,71.5 -175.35,153.21 -4.21,23.85 -6.26,115.78 -6.26,275.76 0,160.07 2.05,263.88 6.26,311.52 4.1,37.49 10.37,66.38 18.78,86.8 8.31,20.43 20.85,37.51 37.58,51.07 33.37,34.07 89.73,51.07 169.09,51.07l-0.01 0.01zm5055.36 4608.42c-18.39,0 -33.01,-1.59 -44.01,-4.66 -40.41,-15.6 -78.93,-49.79 -115.54,-102.64 -7.4,-15.61 -28.46,-59.11 -63.28,-130.64 -34.9,-71.59 -74.27,-152.42 -118.29,-242.58 -102.73,-211.48 -172.46,-352.25 -209.08,-422.23 -36.7,-69.98 -64.21,-112.69 -82.53,-128.3 -7.38,-6.2 -16.5,-12.4 -27.5,-18.66l-5.5 -4.67c-11.01,-9.33 -22.02,-17.06 -33.01,-23.32l-11.01 -9.33c-14.7,-3.06 -31.21,-4.67 -49.52,-4.67 -33,0 -64.22,6.29 -93.53,18.66 -44.02,21.8 -73.43,54.48 -88.04,97.98 -3.69,12.46 -7.38,32.67 -11,60.64 -3.7,40.47 -7.39,163.3 -11.01,368.59l0 326.58c-3.69,55.99 -9.2,91.71 -16.51,107.31 -3.69,6.2 -8.24,13.99 -13.75,23.32 -5.51,9.33 -17.45,20.21 -35.76,32.67 -33.01,21.71 -67.92,34.17 -104.55,37.31l-313.63 -0.03c-51.4,0 -88.02,-1.59 -110.04,-4.65 -22.01,-3.14 -41.27,-7.81 -57.77,-13.99 -16.51,-6.29 -33,-16.33 -49.51,-30.34 -16.52,-13.99 -28.47,-28.78 -35.78,-44.32 0,-9.33 -3.69,-29.61 -11,-60.65 -3.69,-52.92 -5.5,-580.04 -5.5,-1581.59 0,-1001.46 1.81,-1534.93 5.5,-1600.26 0,-31.04 4.55,-55.97 13.75,-74.64 9.13,-18.66 22.88,-34.19 41.27,-46.65 18.32,-12.4 38.52,-22.52 60.53,-30.33 22.01,-7.71 55.88,-12.4 101.79,-13.99 45.82,-1.54 114.59,-2.35 206.32,-2.35 113.65,-3.04 188.88,-6.2 225.59,-9.33 47.62,-3.04 110.04,-9.32 187.07,-18.64 95.33,-9.33 187.06,-14.01 275.1,-14.01 289.72,0 546.51,46.65 770.28,139.96 337.43,149.31 535.51,374.84 594.22,676.5 3.62,37.32 5.51,82.44 5.51,135.3 0,49.79 -1.89,94.91 -5.51,135.3 -47.71,255.06 -196.26,502.33 -445.66,741.8l-110.04 107.32c-47.71,37.32 -82.53,66.91 -104.55,88.64 -21.99,21.8 -37.65,40.47 -46.76,56 -9.19,15.6 -13.75,34.26 -13.75,55.97 0,15.6 1.81,34.27 5.5,55.99 11.01,37.33 51.33,127.56 121.04,270.59 25.63,49.79 56.84,110.44 93.54,181.96l214.57 443.22c29.32,59.06 47.64,96.37 55.03,111.97 11.01,31.06 16.5,60.66 16.5,88.65 0,37.32 -12.89,68.39 -38.51,93.32 -14.69,15.52 -36.7,29.51 -66.01,41.98 -29.41,12.4 -77.03,29.52 -143.06,51.32 -84.43,31.06 -149.51,53.66 -195.32,67.65 -45.9,14.01 -81.67,21 -107.29,21l0 -0.03zm-836.31 -1819.52c55.02,0 143.06,-35.72 264.09,-107.29 95.35,-55.99 183.38,-116.63 264.1,-181.95 139.36,-118.16 236.59,-241 291.62,-368.57l11 -32.67c3.62,-15.53 5.5,-43.5 5.5,-83.97 0,-40.39 -3.7,-70.71 -11.01,-90.99 -7.38,-20.18 -22.01,-42.69 -44.01,-67.63 -73.42,-83.98 -207.27,-136.85 -401.65,-158.64 -25.71,-3.04 -56.91,-4.65 -93.53,-4.65 -99.04,0 -174.26,3.13 -225.58,9.32 -80.74,18.67 -130.25,57.59 -148.57,116.64l-16.51 27.99 0 713.8c0,56 0.86,95.65 2.75,118.97 1.81,23.34 5.51,40.47 11.01,51.34 5.5,10.92 13.75,19.45 24.76,25.65 18.32,21.8 40.32,32.66 66.03,32.66l0 -0.01zm-5795.3 5577.49c-41.46,0 -73.38,-1.5 -95.64,-4.39l-14.35 0c-70.17,-11.7 -114.77,-46.77 -133.91,-105.18 -3.21,-5.88 -4.78,-71.63 -4.78,-197.25 -3.21,-35.04 -8,-651.56 -14.34,-1849.64l0 -1139.61c9.56,-70.11 41.39,-115.39 95.64,-135.86 15.92,-5.82 41.4,-9.46 76.52,-10.96 35.03,-1.44 87.65,-2.2 157.81,-2.2l109.99 0c44.62,0 74.87,1.52 90.86,4.39 31.84,8.77 56.58,20.48 74.13,35.07 17.49,14.66 31.09,35.07 40.65,61.36l0 21.91c6.35,35.07 11.14,187.04 14.35,455.84l4.77 451.46c0,534.75 1.56,818.2 4.79,850.33 3.14,38.01 7.92,66.49 14.35,85.47 6.34,19.04 14.34,35.81 23.91,50.39 22.26,20.48 50.96,33.64 86.08,39.46 35.05,5.88 95.64,8.77 181.72,8.77 89.22,0 152.21,-2.89 188.9,-8.77 36.62,-5.82 64.56,-18.98 83.69,-39.46 12.69,-11.64 23.1,-27.72 31.08,-48.2 7.92,-20.41 13.53,-53.28 16.74,-98.62 3.14,-45.28 4.78,-113.22 4.78,-203.81 -6.43,-75.95 -9.56,-214.77 -9.56,-416.4 0,-122.73 -1.65,-251.27 -4.8,-385.7l0 -521.59c3.15,-84.71 7.92,-137.32 14.35,-157.8 3.14,-8.75 6.35,-17.53 9.56,-26.3 19.14,-35.07 65.31,-55.47 138.68,-61.36 25.5,-5.82 81.31,-8.77 167.39,-8.77 82.87,0 137.87,2.19 164.99,6.58 27.05,4.39 48.56,9.53 64.55,15.35 15.93,5.89 31.83,14.66 47.82,26.3 12.7,14.66 23.1,29.25 31.08,43.81 7.93,14.66 13.53,38.03 16.74,70.14 0,23.43 1.57,184.08 4.78,482.13 9.57,768.54 14.35,1488.81 14.35,2160.85 0,181.15 -1.65,290.72 -4.79,328.74 0,40.89 -3.21,68.62 -9.57,83.28 -3.21,20.41 -9.56,36.5 -19.13,48.2 -9.57,11.66 -20.78,21.93 -33.48,30.68 -9.56,8.77 -20.76,15.35 -33.48,19.74 -12.77,4.38 -31.9,7.25 -57.38,8.75 -25.55,1.45 -62.16,3.65 -109.99,6.58l-129.08 -0.01c-66.95,0 -115.6,-2.93 -145.87,-8.77 -30.33,-5.89 -52.6,-16.83 -66.95,-32.85 -14.34,-16.11 -24.72,-28.49 -31.08,-37.26 -6.42,-8.78 -11.21,-23.43 -14.34,-43.85 -3.21,-32.18 -4.79,-113.95 -4.79,-245.45 -3.22,-58.47 -4.78,-105.19 -4.78,-140.25 -3.21,-70.13 -6.42,-111.02 -9.57,-122.73 -9.57,-35.07 -25.56,-62.79 -47.82,-83.27 -15.99,-14.59 -36.68,-24.8 -62.16,-30.68 -25.55,-5.82 -65.39,-8.77 -119.55,-8.77 -159.46,0 -256.67,8.77 -291.72,26.29 -15.99,5.89 -30.34,13.9 -43.04,24.11 -12.78,10.27 -22.35,21.24 -28.7,32.88 -6.43,11.7 -11.95,28.49 -16.73,50.42 -4.8,21.91 -7.18,54.78 -7.18,98.6 -3.22,61.36 -4.79,147.52 -4.79,258.62 -3.21,102.25 -6.42,163.61 -9.57,184.09 -3.21,14.59 -7.98,26.29 -14.34,35.07 -6.42,8.75 -15.99,17.52 -28.69,26.29 -12.77,11.65 -26.3,20.42 -40.65,26.3 -14.34,5.82 -36.69,9.45 -66.94,10.97 -30.34,1.43 -80.56,2.17 -150.65,2.17 -31.91,2.89 -62.16,4.39 -90.86,4.39l0 -0.02z"/>
   <path class="fil25" d="M8694.15 10514.88c-15.78,0 -28.31,-1.62 -37.75,-4.72 -34.64,-15.78 -67.66,-50.34 -99.06,-103.79 -6.35,-15.77 -24.4,-59.77 -54.26,-132.08 -29.92,-72.38 -63.68,-154.13 -101.42,-245.31 -88.07,-213.82 -147.86,-356.15 -179.25,-426.91 -31.48,-70.77 -55.07,-113.96 -70.77,-129.74 -6.32,-6.25 -14.13,-12.52 -23.58,-18.87l-4.71 -4.71c-9.43,-9.44 -18.87,-17.25 -28.31,-23.58l-9.43 -9.45c-12.6,-3.09 -26.75,-4.71 -42.45,-4.71 -28.31,0 -55.07,6.33 -80.2,18.87 -37.75,22.04 -62.95,55.06 -75.47,99.06 -3.18,12.61 -6.35,33.03 -9.45,61.33 -3.17,40.91 -6.33,165.11 -9.43,372.66l0 330.22c-3.16,56.6 -7.89,92.73 -14.14,108.5 -3.17,6.27 -7.08,14.14 -11.8,23.59 -4.72,9.43 -14.97,20.41 -30.66,33.02 -28.3,21.96 -58.23,34.56 -89.63,37.73l-268.9 0.01c-44.07,0 -75.47,-1.62 -94.34,-4.71 -18.87,-3.17 -35.39,-7.89 -49.53,-14.16 -14.16,-6.34 -28.31,-16.51 -42.46,-30.65 -14.14,-14.16 -24.4,-29.11 -30.66,-44.82 0,-9.44 -3.16,-29.93 -9.43,-61.33 -3.16,-53.51 -4.72,-586.5 -4.72,-1599.17 0,-1012.6 1.56,-1552 4.72,-1618.04 0,-31.4 3.91,-56.6 11.8,-75.47 7.81,-18.87 19.61,-34.56 35.38,-47.18 15.71,-12.52 33.02,-22.77 51.89,-30.65 18.87,-7.81 47.91,-12.53 87.27,-14.16 39.29,-1.54 98.25,-2.36 176.9,-2.36 97.44,-3.09 161.94,-6.26 193.42,-9.43 40.83,-3.1 94.34,-9.43 160.39,-18.87 81.73,-9.43 160.39,-14.15 235.86,-14.15 248.4,0 468.56,47.17 660.43,141.52 289.3,150.94 459.12,379 509.46,684 3.1,37.75 4.71,83.37 4.71,136.8 0,50.34 -1.61,95.98 -4.71,136.81 -40.91,257.91 -168.28,507.93 -382.11,750.05l-94.34 108.51c-40.91,37.73 -70.76,67.66 -89.63,89.63 -18.87,22.03 -32.29,40.91 -40.1,56.6 -7.89,15.77 -11.8,34.64 -11.8,56.6 0,15.77 1.56,34.65 4.72,56.61 9.43,37.73 44,128.98 103.79,273.6 21.96,50.34 48.72,111.66 80.2,183.97l183.96 448.15c25.14,59.7 40.85,97.44 47.18,113.22 9.43,31.39 14.15,61.33 14.15,89.62 0,37.75 -11.05,69.15 -33.01,94.35 -12.6,15.71 -31.48,29.85 -56.6,42.46 -25.21,12.53 -66.05,29.85 -122.65,51.89 -72.38,31.4 -128.19,54.24 -167.46,68.39 -39.36,14.16 -70.02,21.24 -91.99,21.24l-0.02 0.01zm-717.03 -1839.76c47.17,0 122.64,-36.11 226.43,-108.5 81.73,-56.61 157.21,-117.93 226.43,-183.98 119.48,-119.48 202.84,-243.67 250.02,-372.66l9.43 -33.02c3.1,-15.7 4.72,-44 4.72,-84.91 0,-40.84 -3.18,-71.5 -9.45,-91.99 -6.33,-20.42 -18.87,-43.19 -37.74,-68.4 -62.95,-84.92 -177.71,-138.36 -344.36,-160.39 -22.05,-3.1 -48.8,-4.72 -80.2,-4.72 -84.91,0 -149.41,3.18 -193.42,9.43 -69.21,18.88 -111.67,58.23 -127.37,117.94l-14.14 28.3 0 721.75c0,56.6 0.74,96.7 2.35,120.29 1.55,23.58 4.72,40.91 9.45,51.89 4.71,11.06 11.79,19.68 21.22,25.95 15.71,22.03 34.57,33.01 56.61,33.01l0.02 0.01zm8236.35 1863.35l-80.19 0c-44.08,-12.62 -75.47,-34.65 -94.35,-66.06 -12.6,-18.86 -22.03,-44.07 -28.3,-75.47 -6.35,-31.48 -11.06,-83.36 -14.16,-155.67 -15.77,-1000.07 -50.33,-1500.11 -103.78,-1500.11 -12.61,0 -41.72,84.17 -87.27,252.38 -45.63,168.27 -98.34,353.07 -158.03,554.28 -18.88,62.94 -34.65,113.22 -47.18,150.94 -12.61,37.75 -24.39,65.31 -35.38,82.56 -11.06,17.33 -21.23,32.29 -30.66,44.82 -9.43,6.34 -18.13,12.61 -25.94,18.87 -7.9,6.33 -14.97,11.06 -21.23,14.14 -25.21,15.78 -97.51,23.59 -217,23.59 -12.61,0 -57.42,-0.74 -134.45,-2.35 -77.1,-1.55 -131.35,-19.62 -162.75,-54.26 -9.42,-9.43 -18.12,-19.61 -25.94,-30.66 -7.88,-10.98 -16.51,-30.66 -25.94,-58.97 -15.78,-44 -51.89,-161.94 -108.5,-353.81 -122.65,-424.55 -188.69,-636.83 -198.13,-636.83 -9.44,0 -18.14,22.04 -25.95,66.05 -7.89,44.07 -22.04,277.57 -42.45,700.52 -20.49,423.01 -33.84,686.36 -40.11,790.15 -3.16,69.14 -11.79,120.29 -25.93,153.32 -14.16,33.01 -37.01,55.79 -68.4,68.4 -15.78,6.26 -37.75,10.97 -66.05,14.16l-273.59 0.01c-15.78,-3.18 -31.48,-4.72 -47.18,-4.72 -25.2,-3.17 -40.9,-6.35 -47.17,-9.43 -78.65,-18.88 -117.93,-66.04 -117.93,-141.52l0 -66.05c0,-113.21 4.71,-257.91 14.15,-433.99l94.35 -2665.28c6.27,-116.32 12.52,-204.39 18.87,-264.18 18.87,-53.43 44.01,-86.46 75.47,-99.06 9.45,-6.26 25.14,-9.43 47.17,-9.43 21.97,0 93.54,3.98 214.64,11.8 121.03,7.9 191.04,13.42 209.92,16.51 25.13,3.17 45.55,11.06 61.32,23.59 25.14,12.61 47.18,32.28 66.05,58.97 18.87,26.75 36.11,68.4 51.89,125l18.87 56.61c31.4,91.24 72.3,210.72 122.66,358.52 198.12,600.72 303.45,912.05 316.06,934.02 28.3,59.79 56.6,89.63 84.91,89.63 34.58,0 69.14,-42.45 103.78,-127.35 21.97,-56.61 73.87,-210.67 155.67,-462.3 100.62,-308.17 172.92,-528.34 217.01,-660.43 44.01,-132.08 73.86,-218.54 89.63,-259.45 12.52,-28.3 23.58,-50.26 33.01,-66.04 12.53,-18.87 31.41,-34.56 56.62,-47.17 18.87,-9.43 47.17,-17.24 84.91,-23.59 37.75,-6.27 91.18,-10.98 160.39,-14.14l186.31 -0.04c39.3,0 66.79,1.61 82.56,4.71 50.27,22.04 81.74,58.23 94.35,108.51 6.26,22.03 11.8,67.66 16.51,136.8 4.71,69.21 8.62,149.41 11.79,240.57l14.16 391.54c0,116.38 21.97,784.7 66.04,2004.86 15.71,239.04 23.59,404.08 23.59,495.32l0 117.93c0,25.14 -0.8,42.46 -2.36,51.89 -1.61,9.43 -3.97,17.24 -7.07,23.59 -18.87,53.43 -61.33,83.28 -127.37,89.63 -25.21,3.09 -69.21,6.26 -132.09,9.43 -62.95,3.1 -119.56,4.72 -169.81,4.72l-0.02 0.02zm-5446.6 4303.36c-141.99,0 -227.6,-3.45 -256.76,-10.23 -91.89,-17.07 -146.19,-61.28 -162.81,-132.78 -4.21,-13.63 -6.27,-46.84 -6.27,-99.57l0 -273.22c0,-108.92 -2.14,-221.27 -6.26,-337.05 -4.21,-125.91 -8.41,-355.71 -12.52,-689.41 -4.21,-588.96 -6.27,-1150.69 -6.27,-1685.25 0,-347.25 2.06,-529.34 6.27,-546.42 8.31,-47.64 29.16,-85.05 62.62,-112.35 25.04,-16.99 66.73,-28.89 125.25,-35.74 58.41,-6.78 160.66,-10.22 306.85,-10.22 116.84,0 189.92,5.12 219.18,15.34 58.42,13.63 100.2,47.71 125.24,102.13 8.31,17.07 12.53,78.35 12.53,183.84 4.11,91.93 8.31,320.06 12.52,684.32 4.11,541.32 6.26,1188.2 6.26,1940.57 0,534.47 -2.15,815.34 -6.26,842.62 -12.52,85.07 -66.83,136.13 -162.81,153.21 -33.47,6.78 -118.99,10.22 -256.76,10.22l0 -0.01zm5064.5 3951.21c-18.4,0 -34.91,-3.14 -49.52,-9.33 -29.41,-9.33 -53.22,-23.32 -71.52,-41.98 -14.7,-15.61 -29.41,-38.14 -44.02,-67.66 -14.7,-29.58 -60.52,-131.43 -137.55,-305.58 -66.03,-158.62 -124.74,-292.32 -176.07,-401.24 -40.4,-96.36 -71.51,-169.47 -93.53,-219.27 -22.01,-49.73 -42.2,-85.51 -60.53,-107.31 -22.01,-31.06 -51.4,-46.66 -88.02,-46.66 -25.72,0 -48.67,13.27 -68.78,39.67 -20.2,26.47 -33.96,66.13 -41.27,118.97 -7.39,43.59 -12.89,102.64 -16.51,177.28 -3.69,74.66 -5.51,186.63 -5.51,335.93 0,214.6 -1.89,332.77 -5.49,354.57 -7.4,68.37 -36.71,111.97 -88.04,130.63 -25.71,9.33 -56.91,16.34 -93.54,21 -36.7,4.65 -95.42,7 -176.06,7 -106.43,-3.13 -181.57,-7.81 -225.58,-14.01 -44.02,-6.26 -75.23,-17.11 -93.53,-32.65 -14.71,-9.33 -28.47,-24.12 -41.27,-44.33 -12.9,-20.26 -21.15,-41.25 -24.77,-62.98 -3.69,-24.93 -5.5,-177.29 -5.5,-457.21 0,-435.42 3.62,-693.54 11.01,-774.47l0 -97.98c3.6,-211.47 5.5,-499.21 5.5,-863.11 3.61,-457.2 7.31,-748 11.01,-872.42 3.62,-149.31 11,-242.61 22.01,-279.93 3.6,-18.67 10.06,-34.2 19.26,-46.66 9.1,-12.37 22.85,-24.06 41.27,-34.98 18.3,-10.87 34.81,-17.86 49.51,-20.99 25.63,-6.2 55.88,-10.07 90.78,-11.66 34.82,-1.55 87.08,-2.35 156.81,-2.35 113.65,0 192.57,3.13 236.59,9.32 44.02,6.27 77.03,20.28 99.04,41.99 18.3,24.92 29.31,43.59 33.01,55.99 3.61,12.46 5.5,29.61 5.5,51.32 3.62,31.13 7.31,160.23 11,387.24 0,192.89 1.82,318.86 5.51,377.9 3.62,24.92 7.31,41.98 11.01,51.32 7.31,24.92 23.81,37.32 49.52,37.32 14.61,0 29.31,-4.65 44.02,-13.99 11,-6.2 22.01,-13.2 33,-20.99 11,-7.75 23.81,-21.02 38.51,-39.66 29.32,-31.07 88.04,-108.85 176.07,-233.28l253.1 -349.92c124.65,-177.29 201.68,-282.98 231.08,-317.25 14.62,-18.66 29.32,-32.65 44.02,-41.98 18.31,-18.66 36.63,-30.32 55.02,-34.99 18.31,-4.66 42.14,-6.99 71.52,-6.99l16.51 0c29.32,3.14 58.63,10.92 88.04,23.32 121.04,59.13 218.19,108.89 291.61,149.29 73.33,49.8 110.04,99.59 110.04,149.3 0,21.8 -9.19,48.99 -27.5,81.66 -18.4,32.65 -51.41,80.1 -99.04,142.29 -47.71,71.59 -124.73,178.9 -231.08,321.93 -102.74,152.42 -166.96,242.58 -192.58,270.58 -55.03,74.66 -108.23,149.3 -159.56,223.95 -77.03,115.09 -122.94,189.75 -137.55,223.94 -7.4,21.8 -11.02,43.59 -11.02,65.3 0,55.99 23.82,132.24 71.54,228.62l93.54 219.27c14.61,43.6 40.31,104.24 77.02,181.94l198.08 471.22c29.32,59.13 56.82,119.77 82.52,181.96l22.02 51.31c88.03,199.02 141.17,320.31 159.56,363.91 3.62,21.73 5.51,41.99 5.51,60.65 0,18.66 -1.89,34.19 -5.51,46.66 -14.7,43.52 -60.52,79.31 -137.55,107.31l-71.52 27.99c-95.42,27.97 -166.96,48.99 -214.58,62.98 -47.71,13.99 -89.93,20.99 -126.55,20.99l-0.02 -0.01zm-5628.95 3698.74l-14.36 0c-57.39,-5.89 -100.42,-35.07 -129.12,-87.66 -12.78,-32.18 -28.68,-83.27 -47.82,-153.41 -12.78,-52.59 -23.91,-93.55 -33.47,-122.73 -9.57,-29.25 -20.78,-51.16 -33.48,-65.75 -15.99,-29.18 -39.9,-49.66 -71.73,-61.36 -9.57,-5.82 -23.91,-9.44 -43.04,-10.94 -19.13,-1.46 -46.26,-2.2 -81.3,-2.2 -41.46,0 -94.07,1.5 -157.82,4.37 -63.8,2.95 -123.59,6.58 -179.32,10.97 -55.82,4.38 -94.89,8.08 -117.17,10.96 -70.16,11.71 -117.99,43.82 -143.47,96.43 -6.42,11.64 -13.59,28.49 -21.51,50.4 -8.01,21.91 -15.18,46.7 -21.52,74.5 -6.43,27.75 -13.6,53.28 -21.53,76.71 -7.99,23.33 -16.74,37.93 -26.3,43.84 -22.35,55.46 -65.38,83.27 -129.12,83.27 -15.99,0 -35.12,-2.95 -57.38,-8.77 -35.13,-2.95 -76.52,-9.51 -124.34,-19.72 -47.82,-10.27 -92.52,-20.48 -133.91,-30.68 -41.46,-10.28 -68.59,-18.29 -81.3,-24.11 -35.11,-17.54 -59.02,-36.59 -71.72,-57 -12.78,-20.48 -19.14,-49.7 -19.14,-87.66l0 -26.3c3.14,-14.65 11.14,-48.2 23.91,-100.81l86.09 -306.82c60.53,-230.8 109.99,-417.82 148.25,-561.02 41.39,-157.79 68.51,-267.35 81.29,-328.72 57.39,-213.28 116.35,-426.61 176.95,-639.93 47.82,-178.21 95.64,-356.48 143.47,-534.75 54.18,-213.27 90.86,-352.09 109.99,-416.38 15.92,-55.48 30.27,-93.48 43.04,-113.96 19.14,-32.14 49.4,-58.44 90.87,-78.9 38.25,-11.64 111.56,-17.53 219.98,-17.53 108.34,0 183.28,5.89 224.77,17.53l9.56 4.38c15.92,8.77 31.83,20.48 47.82,35.07 15.92,14.66 29.43,34.38 40.65,59.17 11.13,24.86 24.66,63.55 40.65,116.15 19.12,151.98 207.2,870.79 564.3,2156.46 82.87,330.25 136.3,541.33 160.21,633.37 23.91,92.04 35.87,146.82 35.87,164.35 0,8.77 -1.65,16.03 -4.78,21.93 0,61.36 -47.82,105.19 -143.47,131.47 -31.91,8.78 -72.56,18.22 -121.94,28.5 -49.47,10.2 -96.47,18.97 -141.08,26.29 -44.67,7.28 -70.17,10.97 -76.52,10.97l-0.01 0.02zm-669.52 -1100.16c15.92,0 33.48,-1.43 52.61,-4.39 86.08,-11.64 135.47,-40.89 148.25,-87.65 6.35,-14.6 9.57,-30.69 9.57,-48.21 0,-35.07 -17.57,-140.27 -52.61,-315.58 -35.13,-175.32 -59.04,-279.76 -71.73,-313.4 -12.78,-33.54 -23.91,-60.6 -33.48,-81.08 -9.57,-20.41 -20.77,-30.68 -33.48,-30.68 -28.69,0 -78.15,201.61 -148.25,604.86 -9.56,76.01 -19.13,128.61 -28.68,157.8 0,78.88 52.6,118.34 157.81,118.34l-0.01 -0.01z"/>
   <path class="fil26" d="M5123.09 10524.31c-31.48,-3.17 -54.24,-7.08 -68.4,-11.8 -14.16,-4.72 -29.11,-11.8 -44.81,-21.23 -28.3,-12.61 -47.18,-37.74 -56.61,-75.48 -3.16,-12.6 -6.33,-39.35 -9.43,-80.2l-4.72 -169.82c0,-62.94 -1.61,-132.08 -4.71,-207.55l0 -132.09c-3.16,-106.87 -4.71,-592.76 -4.71,-1457.65 0,-864.82 1.55,-1320.85 4.71,-1368.02 6.27,-75.48 48.72,-121.03 127.38,-136.81 21.97,-3.1 128.92,-4.71 320.77,-4.71 75.48,0 147.78,1.61 217,4.71 455.96,3.17 827.08,187.14 1113.29,551.93 113.21,150.94 199.68,320.77 259.45,509.47 59.7,188.68 89.62,385.26 89.62,589.66 0,135.25 -14.13,272.05 -42.45,410.41 -69.21,305.07 -188.69,580.24 -358.51,825.53 -264.18,374.21 -608.55,614.79 -1033.09,721.75 -72.38,18.87 -163.56,34.58 -273.61,47.17 -84.92,3.1 -162.01,4.72 -231.15,4.72l-0.02 0.01zm566.08 -787.79c9.43,0 21.97,-3.09 37.74,-9.43l9.43 -0.01c37.75,-15.7 83.29,-44.01 136.81,-84.92 53.44,-40.83 103.78,-84.91 150.96,-132.08 213.82,-251.57 339.64,-545.59 377.39,-882.14l0 -84.92c0,-91.17 -3.18,-169.82 -9.45,-235.86 -50.34,-301.9 -177.7,-525.17 -382.1,-669.86 -110.12,-72.3 -206.01,-108.49 -287.76,-108.49 -18.87,0 -37.74,1.62 -56.61,4.71 -47.16,15.78 -77.1,61.33 -89.63,136.8l0 207.56c0,279.94 3.1,721.75 9.43,1325.57l0 254.73c3.1,103.79 7.82,168.27 14.16,193.42 3.1,12.6 7.08,24.39 11.8,35.38 4.72,11.06 12.53,20.49 23.59,28.3 10.98,7.89 19.6,13.42 25.94,16.52l18.87 0c0,3.16 3.1,4.71 9.43,4.71l0 0.01zm7538.21 787.79l-14.15 0c-56.6,-6.35 -99.06,-37.75 -127.37,-94.35 -12.61,-34.65 -28.3,-89.63 -47.18,-165.1 -12.6,-56.6 -23.58,-100.7 -33.01,-132.09 -9.43,-31.46 -20.49,-55.05 -33.02,-70.75 -15.78,-31.41 -39.35,-53.44 -70.76,-66.05 -9.43,-6.27 -23.59,-10.17 -42.46,-11.8 -18.86,-1.55 -45.62,-2.35 -80.2,-2.35 -40.9,0 -92.79,1.61 -155.67,4.71 -62.95,3.16 -121.91,7.08 -176.9,11.79 -55.05,4.72 -93.6,8.7 -115.57,11.8 -69.21,12.61 -116.39,47.18 -141.52,103.79 -6.33,12.53 -13.42,30.66 -21.23,54.24 -7.89,23.59 -14.96,50.28 -21.22,80.2 -6.35,29.85 -13.42,57.35 -21.23,82.56 -7.9,25.13 -16.52,40.83 -25.95,47.18 -22.04,59.69 -64.5,89.62 -127.37,89.62 -15.77,0 -34.65,-3.16 -56.61,-9.43 -34.64,-3.17 -75.47,-10.25 -122.64,-21.23 -47.17,-11.06 -91.25,-22.03 -132.08,-33.02 -40.91,-11.06 -67.66,-19.67 -80.2,-25.94 -34.65,-18.87 -58.23,-39.36 -70.76,-61.33 -12.61,-22.04 -18.87,-53.51 -18.87,-94.35l0 -28.29c3.09,-15.78 10.97,-51.9 23.59,-108.51l84.9 -330.2c59.71,-248.41 108.5,-449.69 146.24,-603.82 40.84,-169.82 67.59,-287.76 80.2,-353.8 56.6,-229.54 114.76,-459.13 174.54,-688.73 47.18,-191.79 94.34,-383.65 141.52,-575.51 53.43,-229.54 89.62,-378.94 108.5,-448.15 15.7,-59.7 29.85,-100.61 42.46,-122.66 18.86,-34.56 48.72,-62.86 89.62,-84.91 37.75,-12.53 110.06,-18.87 217.01,-18.87 106.86,0 180.81,6.33 221.71,18.87l9.45 4.72c15.7,9.43 31.39,22.03 47.16,37.73 15.71,15.78 29.05,37.01 40.11,63.7 10.97,26.75 24.32,68.4 40.09,125 18.88,163.55 204.4,937.2 556.64,2320.92 81.75,355.42 134.45,582.59 158.03,681.65 23.59,99.06 35.39,158.03 35.39,176.91 0,9.43 -1.62,17.24 -4.71,23.57 0,66.06 -47.18,113.23 -141.53,141.53 -31.48,9.43 -71.56,19.6 -120.28,30.65 -48.8,10.99 -95.15,20.42 -139.16,28.31 -44.08,7.81 -69.21,11.8 -75.47,11.8l-0.04 -0.01zm-660.43 -1184.05c15.71,0 33.02,-1.55 51.89,-4.72 84.91,-12.52 133.63,-44 146.23,-94.34 6.26,-15.7 9.45,-33.02 9.45,-51.89 0,-37.74 -17.33,-150.94 -51.9,-339.65 -34.64,-188.69 -58.23,-301.1 -70.76,-337.29 -12.6,-36.11 -23.59,-65.23 -33.01,-87.27 -9.43,-21.96 -20.49,-33.01 -33.02,-33.01 -28.3,0 -77.1,216.98 -146.23,650.98 -9.43,81.81 -18.87,138.42 -28.3,169.81 0,84.92 51.88,127.38 155.67,127.38l-0.02 0zm435.56 5537.3c-50.11,0 -98.14,-1.75 -144.04,-5.1 -313.11,-40.86 -584.54,-170.28 -814.09,-388.11 -192.08,-170.21 -319.38,-369.37 -382,-597.5 -58.51,-170.19 -87.68,-367.68 -87.68,-592.38 0,-163.43 14.58,-352.37 43.84,-566.85 54.22,-394.9 144.03,-720.06 269.28,-975.4 183.66,-388.12 444.62,-650.23 782.79,-786.44 162.81,-64.65 331.9,-97.03 507.24,-97.03 133.56,0 267.13,18.75 400.79,56.18 162.81,44.28 310.97,110.67 444.62,199.17 37.58,27.28 81.42,61.28 131.51,102.14 133.56,108.99 200.4,197.48 200.4,265.54 0,27.29 -9.4,51.94 -28.19,74.06 -18.78,22.18 -55.37,48.5 -109.59,79.15 -54.3,30.64 -135.72,68.14 -244.22,112.35 -58.52,27.28 -103.34,45.97 -134.65,56.18 -31.3,10.21 -61.65,15.32 -90.8,15.32 -33.47,-3.36 -63.7,-11.01 -90.81,-22.99 -27.2,-11.89 -61.64,-36.54 -103.32,-74.05 -66.84,-51.07 -127.4,-88.49 -181.62,-112.35 -54.3,-23.78 -112.71,-35.75 -175.34,-35.75l-25.05 5.1c-179.54,6.87 -338.16,144.75 -475.93,413.66 -104.4,200.92 -181.61,500.46 -231.7,898.79l0 61.29c-8.41,78.35 -12.52,178.73 -12.52,301.3l0 214.47c4.11,30.64 8.31,63.05 12.52,97.04 37.58,197.48 121.04,350.68 250.49,459.6 100.21,85.15 200.39,127.66 300.6,127.66 50.1,0 98.04,-10.2 144.03,-30.63 25.05,-13.57 52.15,-31.45 81.41,-53.63 29.16,-22.09 54.21,-46.75 75.15,-74.05 41.68,-40.86 77.19,-100.38 106.46,-178.73 29.16,-68.07 43.83,-124.24 43.83,-168.53 0,-71.5 -37.58,-115.69 -112.72,-132.77 -8.41,-6.79 -37.56,-13.58 -87.67,-20.43l-25.04 -5.1c-87.69,-6.79 -148.25,-23.78 -181.61,-51.07 -41.78,-34 -62.62,-100.38 -62.62,-199.17 0,-51.06 2.05,-107.24 6.26,-168.52 4.11,-61.28 8.31,-105.5 12.52,-132.78 16.64,-47.64 43.84,-81.71 81.4,-102.13 37.58,-20.44 98.05,-34 181.62,-40.87 62.62,-3.35 141.87,-5.1 237.97,-5.1 129.35,0 261.94,1.76 397.66,5.1 135.61,3.44 226.42,8.54 272.41,15.34 108.51,13.64 171.13,56.16 187.87,127.66 0,13.64 2.04,43.41 6.26,89.37 4.11,45.97 8.32,97.03 12.52,153.2 4.11,56.17 6.26,103.01 6.26,140.44 0,95.35 -18.78,224.7 -56.35,388.11 -29.26,136.21 -64.78,252 -106.47,347.26 -121.14,292.76 -313.12,510.68 -576.13,653.67 -54.32,30.64 -116.93,58.73 -187.87,84.26 -71.04,25.53 -137.77,43.41 -200.4,53.62 -87.66,13.57 -177.49,20.43 -269.27,20.43l-0.01 0zm-5369.21 3915.48c-58.73,0 -139.44,-4.66 -242.1,-13.99 -44.01,-3.14 -82.52,-7.81 -115.54,-14.01 -25.71,-3.14 -42.2,-4.66 -49.51,-4.66 -58.73,-6.26 -103.69,-21.8 -134.81,-46.65 -31.21,-24.93 -55.97,-60.65 -74.28,-107.32 -3.7,-12.46 -9.2,-38.92 -16.51,-79.31 -11.01,-49.79 -23.9,-108.89 -38.52,-177.28l-60.51 -228.61c-22.02,-87.03 -38.52,-153.97 -49.53,-200.62 -11,-46.64 -21.14,-80.03 -30.26,-100.31 -9.19,-20.18 -17.45,-36.52 -24.76,-48.99 -11.01,-18.66 -21.14,-31.84 -30.27,-39.66 -9.19,-7.72 -21.14,-11.66 -35.76,-11.66 -11,0 -18.4,0.81 -22.01,2.33 -3.7,1.61 -7.39,5.49 -11.01,11.68l-11 9.31c-14.7,12.47 -27.51,25.67 -38.51,39.68 -11.01,13.99 -22.02,36.59 -33.02,67.63 -22.01,43.6 -71.52,161.78 -148.55,354.58l-93.54 233.27c-25.7,68.4 -42.21,110.38 -49.52,125.97 -33.01,65.32 -73.42,108.83 -121.04,130.63 -22.01,9.33 -49.52,17.06 -82.53,23.34 -55.02,9.33 -133.93,13.99 -236.59,13.99 -110.04,0 -189.81,-7.81 -239.34,-23.32 -49.51,-15.6 -85.28,-42 -107.28,-79.31 -11.01,-21.8 -20.21,-54.47 -27.51,-97.97 -11.01,-46.66 -29.4,-150.91 -55.02,-312.59l-137.56 -867.77c-25.7,-143.02 -42.2,-237.95 -49.51,-284.6 -11.01,-52.86 -22.01,-133.69 -33.02,-242.61 -14.69,-65.32 -33,-169.47 -55.02,-312.59 -106.42,-674.88 -165.05,-1045.05 -176.06,-1110.38 0,-102.63 44.02,-164.82 132.05,-186.62 36.63,-9.31 100.85,-18.65 192.58,-27.98 84.33,-9.32 152.16,-14.01 203.56,-14.01 73.34,0 126.55,12.47 159.57,37.33 18.3,15.6 34.82,32.66 49.51,51.32 3.62,21.8 9.13,48.28 16.51,79.31 7.32,37.33 22.01,127.59 44.02,270.61 36.62,208.42 60.53,353.03 71.54,433.88 18.3,124.44 36.62,230.22 55.02,317.25 7.31,55.99 14.61,116.64 22.01,181.96 66.02,413.67 111.84,640.75 137.55,681.15 18.32,27.99 38.51,41.98 60.52,41.98 11.01,0 23.82,-3.06 38.51,-9.32 18.33,-12.4 30.27,-25.65 35.78,-39.66 5.49,-13.99 43.06,-157.82 112.79,-431.56 69.63,-273.66 146.66,-414.42 231.08,-422.23 84.34,-7.72 149.42,-13.18 195.33,-16.31 45.82,-3.07 83.38,-4.68 112.79,-4.68l60.51 0.02c51.33,3.14 89.84,4.68 115.54,4.68 102.64,9.32 166.87,118.97 192.57,328.9 25.63,209.94 46.78,335.2 63.28,375.57 16.51,40.46 35.76,60.65 57.77,60.65 47.62,0 87.08,-92.49 118.29,-277.6 31.12,-185 68.78,-372.43 112.79,-562.18 14.61,-77.7 58.63,-287.66 132.05,-629.83l66.03 -298.58c18.31,-65.32 40.32,-111.99 66.02,-139.96 29.31,-34.19 77.02,-51.34 143.05,-51.34 36.63,0 108.15,9.33 214.58,27.99 95.34,12.47 165.06,24.93 209.07,37.33 44.02,12.46 73.34,26.45 88.04,41.98 14.61,12.47 24.75,26.48 30.26,41.98 5.51,15.62 8.25,35.82 8.25,60.67 0,43.59 -9.2,108.89 -27.51,195.95 -33,136.9 -53.21,219.27 -60.52,247.27 0,6.27 -36.71,167.96 -110.05,485.2l-165.07 751.13c-176.06,796.27 -271.49,1230.15 -286.1,1301.68l-38.52 181.94c-18.39,80.86 -33,133.69 -44.01,158.62 -25.71,56 -64.22,90.19 -115.54,102.65 -14.71,3.05 -38.52,4.66 -71.52,4.66l0.02 0zm4702.01 3689.96c-15.99,0 -28.68,-1.5 -38.25,-4.39 -35.13,-14.64 -68.61,-46.78 -100.43,-96.41 -6.43,-14.66 -24.74,-55.55 -54.99,-122.73 -30.34,-67.24 -64.56,-143.21 -102.83,-227.93 -89.29,-198.68 -149.89,-330.92 -181.72,-396.67 -31.91,-65.74 -55.82,-105.87 -71.73,-120.53 -6.43,-5.82 -14.35,-11.64 -23.91,-17.53l-4.79 -4.38c-9.57,-8.78 -19.13,-16.03 -28.69,-21.92l-9.57 -8.77c-12.77,-2.89 -27.12,-4.38 -43.03,-4.38 -28.71,0 -55.83,5.88 -81.3,17.52 -38.26,20.48 -63.82,51.16 -76.52,92.05 -3.21,11.72 -6.42,30.68 -9.57,57 -3.21,38 -6.42,153.38 -9.57,346.24l0 306.82c-3.21,52.58 -7.98,86.16 -14.34,100.81 -3.21,5.82 -7.17,13.14 -11.95,21.92 -4.79,8.77 -15.17,18.97 -31.08,30.68 -28.7,20.41 -59.03,32.11 -90.87,35.07l-272.58 0.01c-44.7,0 -76.53,-1.5 -95.65,-4.39 -19.13,-2.95 -35.87,-7.32 -50.22,-13.16 -14.34,-5.88 -28.68,-15.33 -43.03,-28.49 -14.35,-13.14 -24.75,-27.03 -31.09,-41.62 0,-8.77 -3.21,-27.81 -9.56,-56.97 -3.21,-49.73 -4.78,-544.95 -4.78,-1485.88 0,-940.83 1.57,-1442.02 4.78,-1503.38 0,-29.18 3.96,-52.61 11.94,-70.13 7.92,-17.52 19.89,-32.11 35.88,-43.84 15.91,-11.64 33.48,-21.14 52.6,-28.49 19.14,-7.26 48.57,-11.64 88.48,-13.14 39.82,-1.45 99.59,-2.19 179.33,-2.19 98.78,-2.89 164.16,-5.82 196.06,-8.78 41.4,-2.86 95.64,-8.77 162.61,-17.52 82.85,-8.77 162.59,-13.16 239.11,-13.16 251.8,0 475,43.84 669.51,131.5 293.28,140.24 465.44,352.16 516.47,635.54 3.15,35.07 4.79,77.45 4.79,127.12 0,46.77 -1.64,89.15 -4.79,127.11 -41.46,239.61 -170.59,471.93 -387.36,696.91l-95.64 100.79c-41.46,35.07 -71.72,62.89 -90.86,83.29 -19.13,20.48 -32.73,38.01 -40.65,52.59 -7.99,14.66 -11.95,32.18 -11.95,52.59 0,14.65 1.57,32.2 4.78,52.61 9.57,35.04 44.61,119.84 105.21,254.2 22.26,46.78 49.4,103.77 81.29,170.96l186.5 416.39c25.48,55.47 41.4,90.54 47.83,105.2 9.56,29.15 14.34,56.97 14.34,83.27 0,35.07 -11.2,64.23 -33.47,87.66 -12.78,14.59 -31.92,27.72 -57.39,39.45 -25.56,11.64 -66.95,27.73 -124.34,48.2 -73.38,29.19 -129.94,50.4 -169.76,63.56 -39.9,13.16 -70.99,19.72 -93.26,19.72l0.01 0zm-726.9 -1709.4c47.82,0 124.34,-33.54 229.55,-100.8 82.87,-52.61 159.38,-109.58 229.54,-170.95 121.13,-111.01 205.64,-226.42 253.46,-346.25l9.56 -30.68c3.14,-14.59 4.79,-40.89 4.79,-78.91 0,-37.93 -3.21,-66.42 -9.57,-85.46 -6.42,-18.98 -19.12,-40.12 -38.25,-63.55 -63.81,-78.89 -180.16,-128.55 -349.1,-149.03 -22.35,-2.89 -49.47,-4.39 -81.3,-4.39 -86.09,0 -151.46,2.96 -196.07,8.78 -70.17,17.52 -113.21,54.08 -129.12,109.57l-14.34 26.3 0 670.6c0,52.61 0.75,89.85 2.4,111.78 1.56,21.91 4.77,38.01 9.55,48.2 4.8,10.27 11.97,18.29 21.54,24.11 15.91,20.48 35.04,30.68 57.38,30.68l-0.02 0z"/>
   <path class="fil27" d="M9900.18 18844.36c-73.43,0 -113.74,-1.6 -121.04,-4.66 -216.48,-24.93 -407.15,-111.97 -572.23,-261.27 -124.73,-96.43 -229.27,-219.27 -313.6,-368.56 -198.08,-348.31 -297.12,-749.54 -297.12,-1203.68 0,-373.24 66.88,-713.01 200.83,-1019.41 133.85,-306.33 319.97,-523.26 558.45,-650.83 194.38,-124.36 388.75,-186.62 583.21,-186.62l49.52 4.65c212.69,12.46 404.4,78.6 574.97,198.28 170.56,119.78 316.37,286.94 437.41,501.54 132.05,239.54 216.38,507.02 253.1,802.46 7.31,87.12 11,206.9 11,359.25 0,55.97 -1.89,101.11 -5.5,135.28 -29.4,391.91 -130.24,737.15 -302.62,1035.75 -51.4,80.9 -102.73,150.81 -154.06,209.94 -51.4,59.04 -110.04,118.16 -176.06,177.29 -139.44,121.29 -293.5,203.67 -462.18,247.27 -36.7,9.32 -75.23,15.52 -115.53,18.66 -40.41,3.06 -89.92,4.66 -148.56,4.66l0.01 0zm0 -662.49c36.63,0 73.32,-9.33 110.04,-28 91.65,-37.32 176.07,-118.15 253.1,-242.58 77.03,-124.39 137.55,-272.13 181.57,-443.24 11,-43.5 20.12,-93.3 27.5,-149.3 22.02,-118.15 33.02,-245.65 33.02,-382.57 0,-90.17 -3.7,-167.96 -11.01,-233.26 -33.01,-261.27 -97.23,-460.29 -192.57,-597.19 -69.73,-118.16 -141.25,-200.6 -214.58,-247.27 -62.42,-31.06 -119.24,-46.65 -170.56,-46.65 -121.05,0 -233.84,94.1 -338.38,282.26 -104.54,188.21 -173.32,398.89 -206.32,632.17 -11.01,65.32 -16.51,161.76 -16.51,289.27 0,71.57 1.8,132.21 5.5,181.94 18.31,202.22 60.52,384.9 126.54,548.2 66.04,163.28 148.56,285.38 247.6,366.23 55.02,46.66 110.05,69.99 165.07,69.99l-0.01 0zm3501.5 4309.91c-31.9,-2.95 -54.98,-6.58 -69.34,-10.97 -14.34,-4.37 -29.51,-10.94 -45.43,-19.72 -28.68,-11.7 -47.82,-35.07 -57.38,-70.13 -3.22,-11.7 -6.43,-36.57 -9.56,-74.5l-4.8 -157.8c0,-58.47 -1.64,-122.72 -4.77,-192.86l0 -122.72c-3.21,-99.3 -4.78,-550.75 -4.78,-1354.36 0,-803.54 1.57,-1227.27 4.78,-1271.11 6.36,-70.11 49.39,-112.46 129.11,-127.09 22.26,-2.88 130.7,-4.38 325.2,-4.38 76.52,0 149.82,1.5 219.98,4.38 462.23,2.94 838.46,173.89 1128.6,512.82 114.78,140.24 202.43,298.04 263.02,473.36 60.53,175.31 90.87,357.98 90.87,547.88 0,125.68 -14.35,252.8 -43.05,381.35 -70.16,283.45 -191.29,539.11 -363.45,767.04 -267.81,347.71 -616.9,571.22 -1047.3,670.61 -73.38,17.52 -165.82,32.11 -277.38,43.81 -86.08,2.89 -164.24,4.39 -234.33,4.39l0.01 0zm573.87 -731.98c9.56,0 22.27,-2.86 38.26,-8.77l9.58 0c38.25,-14.56 84.43,-40.89 138.68,-78.88 54.17,-37.93 105.2,-78.89 153.02,-122.73 216.77,-233.75 344.32,-506.93 382.58,-819.63l0 -78.91c0,-84.7 -3.21,-157.77 -9.57,-219.14 -51.03,-280.51 -180.15,-487.97 -387.35,-622.4 -111.64,-67.18 -208.85,-100.82 -291.73,-100.82 -19.12,0 -38.25,1.52 -57.38,4.39 -47.82,14.66 -78.15,56.97 -90.87,127.11l0 192.86c0,260.09 3.15,670.61 9.57,1231.63l0 236.71c3.15,96.41 7.92,156.33 14.35,179.7 3.14,11.7 7.17,22.67 11.96,32.88 4.78,10.27 12.7,19.02 23.91,26.29 11.13,7.32 19.88,12.47 26.3,15.34l19.13 -0.01c0,2.95 3.13,4.38 9.56,4.38z"/>
  </g>
 </g>
</svg>
