<?xml version="1.0" encoding="UTF-8"?>
<svg id="Layer_1" xmlns="http://www.w3.org/2000/svg" version="1.1" viewBox="0 0 93.65 25.02">
  <!-- Generator: Adobe Illustrator 30.2.1, SVG Export Plug-In . SVG Version: 2.1.1 Build 1)  -->
  <defs>
    <style>
      .st0 {
        isolation: isolate;
      }

      .st1, .st2 {
        fill: #4a3241;
      }

      .st2 {
        fill-rule: evenodd;
      }
    </style>
  </defs>
  <path class="st2" d="M4.69,0c2.98-.03,5.05.89,5.93,2.96.17.43.29.87.36,1.32.04.2,0,.41.04.62.03.2.02.54,0,.74-.06.38-.05.74-.12,1.08-.15.72-.28,1.41-.52,2.02-.76,1.91-2.13,3.64-4.14,4.28-.3.1-.62.15-.97.22l-.54.04c-.24.04-.53,0-.73-.05-.6-.11-1.1-.23-1.58-.43-.15-.07-.48-.17-.56-.3-.1-.15-.05-.53-.05-.77l.03-1.33.02-.62.03-.57.14-1.5c.07-.47.1-.95.2-1.4.3-1.32.67-2.55,1.35-3.46.11-.15.33-.16.55-.2.6-.1,1.05.08,1.26.43-.13.26-.33.48-.45.77-.21.5-.39,1.01-.54,1.53-.1.35-.13.71-.21,1.09-.19.95-.22,2.01-.41,2.99-.09.46-.11.94-.11,1.46,0,.28,0,.58.1.74.09.13.25.15.43.19.25.05.54,0,.74-.05.67-.14,1.15-.38,1.61-.71,1.34-.95,2.05-2.44,2.51-4.29.21-.83.3-1.97.03-2.8-.16-.46-.4-.89-.72-1.26-.1-.13-.26-.24-.39-.34-.45-.34-.97-.54-1.64-.68-.37-.07-.74-.08-1.12-.05l-.68.04c-.48.08-.94.14-1.36.27-.48.15-.98.37-1.26.72-.16.21-.3.45-.45.68-.19.31-.42.62-.65.9-.09.12-.36.45-.6.32-.18-.1-.16-.34-.2-.59-.02-.09-.02-.27-.01-.39l.04-.41c.04-.26.1-.5.19-.72C.76,1.19,1.76.54,3.19.17c.3-.08.65-.1.97-.15l.53-.02ZM25.91,2.21c.84-.02,1.5.41,1.29,1.34-.03.12-.07.25-.13.35-.27.47-.91.81-1.7.62-.71-.18-1.06-1.05-.58-1.74.16-.23.42-.41.71-.5.12-.04.28-.02.4-.06h.01ZM40.57,10.39l-.3.16c-.22.16-.42.34-.73.41-.47.09-.58-.87-.51-1.35l.05-.52.26-1.7c.14-.64.22-1.28-.15-1.74-.29-.37-1.03-.2-1.34.04-.28.21-.41.56-.59.86l-.52.98-.25.66-.22.43h-.15c.03-.15.05-.44.07-.65l.07-.49c.13-.73.44-2.24-.68-2.05l-.25.07c-.21.09-.37.28-.46.48s-.11.45-.17.68c-.13.54-.19,1.13-.28,1.7l-.07.71-.53.81c-.48.72-1.15,1.63-1.93,2.03l.13-1.38c.06-.35.03-.72.1-1.05.09-.44.19-.83.28-1.25l.06-.51v-.51c.08-.39,0-1.02-.2-1.18-.25-.2-.69-.02-1-.14-.34-.14-.3-.44-.76-.52-.62-.11-1.3.36-1.62.6-.91.7-1.31,1.62-1.76,2.77-.21.52-.42,1.04-.4,1.77-.32.21-.59.47-.97.62-.12.05-.37.1-.51.02-.25-.15-.21-.83-.14-1.17l.2-.86c.05-.26.07-.5.15-.74l.42-1.41c.09-.33.43-1.3.06-1.49-.41-.21-1.16.1-1.4.27-.31.24-.33.78-.46,1.2l-.39,1.42c-.1.32-.17.66-.25,1.04l-.09.48c-.22.14-.46.25-.71.35-.34.15-.67.34-.97.52l.02-.78c.04-.27.06-.65,0-.9l-.29-1.08c-.02-.11-.09-.38-.05-.52.04-.13.19-.23.27-.33.24-.29.58-.58.65-1.01v-.19c-.08-.45-.38-.49-.83-.56-.22-.03-.42.05-.56.11-.49.21-.77.69-1.07,1.1-1.06,1.41-1.98,2.85-3.53,3.77-.45.26-.93.45-1.44.56-.21.05-.56.06-.75-.02-.26-.11-.44-.35-.56-.59,1.35-.35,2.66-1.37,3-2.71.1-.36.03-.81-.08-1.09-.3-.74-1.2-1.33-2.31-1.05-.34.09-.62.23-.88.41-.95.68-1.4,1.95-1.65,3.35-.09.5.06,1.12.17,1.49.11.41.32.79.62,1.1.29.31.66.54,1.06.66.17.05.35.08.54.11h.21c.25.05.57,0,.79-.05.83-.21,1.61-.57,2.31-1.08.04.25.16.43.28.59.77.99,2.96.56,4.09.21.24-.08.48-.16.7-.26.3-.12.58-.26.86-.38.08.71.75,1.11,1.61.96.6-.11,1.14-.3,1.6-.57l.59-.35v-.02c.3.56,1.18,1.2,2.1.9.29-.1.57-.25.81-.45l.28-.23-.14.84-.33.29-.52.53-.32.34-.67.77c-.29.38-.52.8-.77,1.23-.12.2-.25.41-.35.63s-.17.45-.22.71c-.19.86.19,1.56.69,1.86.34.18.72.27,1.11.27s.76-.08,1.11-.25c1.03-.53,1.41-1.66,1.66-2.98l.21-1.8c.05-.27.05-.55.15-.77.12-.28.74-.6,1-.77.53-.34.95-.77,1.38-1.21l.07.41c.12.38.45.77,1.02.62.1-.02.19-.06.28-.12.26-.19.51-.86.67-1.17l1.49-2.96h.1l-.13,1.02c-.13.82-.09,1.65.13,2.45.1.3.25.63.52.75.25.11.67.02.89-.05.66-.2,1.26-.61,1.83-.89v-1.58c-.14.1-.36.26-.51.35h0ZM13.35,9.13c0-.8.37-1.8.83-2.12.14-.1.59-.3.82-.14.27.2.3.75.12,1.05-.29.5-1,1.22-1.77,1.21ZM19.39,11.45c-.13.03-.35.05-.49,0-.25-.07-.34-.24-.52-.33l-.3-.3c.18-.14.36-.32.51-.49l.15-.15-.05-.05-.05-.06,1.3-1.38.06.18c.04.13.07.33.05.52-.03.15-.04.3-.03.45.13.78,0,1.43-.62,1.61h0ZM30.09,14.74l-.1.8c-.09.74-.35,1.45-.75,2.08-.13.15-.47.4-.79.26-.35-.14-.02-.84.06-1.05.28-.68.63-1.3,1.04-1.83l.35-.38.21-.17s0,.23-.01.29h0ZM30.23,9.19l-.04.41c-.07.33-.16.62-.28.9-.13.28-.46.87-.94.68-.46-.19-.56-1.14-.39-1.77.12-.45.35-.85.56-1.22.28-.47.52-.95.97-1.25.1-.06.22-.09.35-.13h.31s-.54,2.38-.54,2.38Z"/>
  <path class="st2" d="M68.24,6.21v4.53c.61,0,1.47.07,1.96-.08.8-.22,1.31-.74,1.55-1.53.04-.17.04-.34.07-.54.04-.31-.03-.68-.1-.91-.1-.3-.26-.58-.47-.83-.07-.1-.19-.17-.28-.23-.68-.49-1.58-.41-2.73-.41ZM93.64,9.93c.03,1.57-.94,2.36-2.16,2.68-1.49.39-3.23-.02-4.17-.62-.25-.15-.55-.33-.72-.56l1.12-1.6.08.09.19.17.47.33c.52.29,1.09.46,1.69.5.56.1,1.44-.2,1.34-.72-.07-.43-.63-.5-1.04-.6-1.04-.26-2.02-.38-2.75-.93-.38-.31-.65-.74-.78-1.23-.12-.48-.09-.99.09-1.45.24-.58.67-1.05,1.22-1.34.33-.2.74-.29,1.18-.38l.62-.05c1.12-.02,2.02.25,2.72.66.22.14.54.3.7.5v.02l-1.15,1.5-.14-.11-.39-.26c-.13-.08-.27-.13-.41-.19-.55-.23-2.19-.65-2.34.23-.04.21.11.32.22.39.31.2.76.27,1.18.38,1.09.27,2.17.47,2.77,1.23.14.17.25.37.33.57l.07.28h0M48.84,4.35h2.16v4.57c0,.23-.02.46.02.65.16.77.59,1.13,1.38,1.28.19.03.48.03.67,0,.65-.13,1.04-.44,1.26-1.01.13-.36.09-.94.09-1.43v-4.07h2.14v3.77c0,.85.03,1.73-.16,2.36-.14.46-.39.88-.72,1.23s-.74.61-1.2.76c-.4.15-.84.18-1.34.26h-.31c-.35.06-.93-.02-1.21-.09-1.49-.33-2.37-1.06-2.71-2.54-.09-.38-.07-.83-.07-1.29v-4.47.02ZM57.64,4.35h1.57c.15,0,.52-.03.62.02l3.27,4.51h0v-4.53h2.13v8.25h-1.45c-.15,0-.5.04-.61,0l-3.44-4.75v4.76h-2.12V4.35h.03ZM66.12,4.35h2.69c.73,0,1.44,0,2.02.14.66.13,1.27.42,1.78.86s.9.99,1.14,1.63c.12.32.16.68.22,1.05.02.15.04.38,0,.55-.03.2,0,.38-.04.57-.07.4-.18.79-.34,1.17-.54,1.23-1.61,1.92-3.08,2.22-.6.12-1.35.08-2.05.08h-2.36V4.35h.02ZM76.61,10.74h3.29v1.86h-5.41V4.35h2.12s0,6.39,0,6.39ZM82.58,6.21v1.28h3.81v1.86h-3.8v1.38h3.88v1.86h-6V4.35h6v1.86s-3.89,0-3.89,0ZM41.04,4.31h3.24c1.65,0,2.71-.08,3.41.92.42.59.52,1.58.1,2.26-.16.26-.39.48-.65.64-.1.06-.36.11-.44.17.28.02.54.18.71.32.34.27.59.63.72,1.05.13.41.14.86.02,1.28-.07.27-.2.52-.36.75-.32.4-.76.68-1.26.79-.39.1-.89.08-1.38.08h-4.13M43.15,6.19v1.35h1.64c.41,0,.73.02.94-.19.08-.08.13-.17.16-.27s.04-.21.02-.32c0-.11-.06-.21-.12-.3-.07-.09-.15-.16-.25-.21-.2-.09-.53-.07-.83-.07h-1.56,0ZM43.15,9.36v1.47h1.65c.48,0,.8.02,1.06-.2.08-.07.15-.17.18-.27.04-.1.05-.22.04-.33-.06-.31-.19-.5-.45-.61-.2-.09-.54-.07-.84-.07h-1.64Z"/>
  <g class="st0">
    <g>
      <path class="st1" d="M37.81,22.03c-.69,0-1.3-.16-1.84-.49s-.95-.77-1.26-1.34c-.3-.57-.46-1.22-.46-1.96s.15-1.39.45-1.96c.3-.57.72-1.02,1.25-1.34.53-.32,1.14-.49,1.82-.49.41,0,.82.07,1.21.22s.75.36,1.07.63c.32.27.57.58.74.93l-.55.35c-.15-.3-.35-.56-.61-.79-.26-.23-.55-.41-.87-.53-.32-.13-.65-.19-.98-.19-.55,0-1.04.14-1.47.41s-.77.65-1.01,1.13c-.24.48-.37,1.03-.37,1.65s.12,1.18.37,1.66c.24.48.58.86,1.02,1.13s.93.41,1.49.41c.34,0,.67-.07.99-.22.32-.14.61-.34.87-.59.26-.25.47-.54.61-.86l.55.35c-.18.37-.43.7-.75.99s-.68.51-1.07.68c-.4.16-.8.24-1.21.24Z"/>
      <path class="st1" d="M44.3,21.9v-7.33h2.25c.46,0,.87.09,1.23.28.36.19.63.44.83.76s.3.7.3,1.13c0,.48-.14.9-.43,1.26s-.66.61-1.11.76l1.83,3.14h-.73l-1.76-3.01s-.1.01-.15.01h-1.59v2.99h-.67ZM44.97,18.29h1.76c.28,0,.53-.07.76-.2.23-.13.41-.31.55-.55.14-.23.21-.5.21-.8,0-.46-.16-.84-.48-1.13-.32-.29-.72-.43-1.22-.43h-1.58v3.11Z"/>
      <path class="st1" d="M52.75,21.9v-7.33h4.22v.61h-3.55v2.64h3.3v.61h-3.3v2.87h3.55v.61h-4.22Z"/>
      <path class="st1" d="M59.99,21.9l3.02-7.33h.69l3.02,7.33h-.71l-.93-2.27h-3.43l-.93,2.27h-.71ZM61.87,19.03h2.95l-1.48-3.6-1.48,3.6Z"/>
      <path class="st1" d="M71.29,21.9v-6.72h-2.39v-.61h5.44v.61h-2.39v6.72h-.67Z"/>
      <path class="st1" d="M80.5,22.03c-.69,0-1.3-.16-1.84-.48-.53-.32-.95-.77-1.26-1.34-.3-.57-.46-1.23-.46-1.97s.15-1.41.45-1.97c.3-.57.71-1.01,1.24-1.34.53-.32,1.14-.48,1.83-.48s1.3.16,1.83.49c.53.32.94.77,1.24,1.34.3.57.44,1.22.44,1.96s-.15,1.4-.44,1.97c-.3.57-.71,1.02-1.23,1.34s-1.13.48-1.81.48ZM80.5,21.42c.55,0,1.04-.14,1.46-.41.42-.27.75-.65.99-1.13.24-.48.36-1.03.36-1.65s-.12-1.17-.37-1.65c-.24-.48-.58-.85-1.01-1.13s-.92-.41-1.48-.41-1.04.14-1.47.41-.77.65-1.01,1.13c-.24.48-.37,1.03-.37,1.65s.12,1.17.37,1.65.58.85,1.02,1.13c.44.27.93.41,1.49.41Z"/>
      <path class="st1" d="M87.54,21.9v-7.33h2.25c.46,0,.87.09,1.23.28.36.19.63.44.83.76s.3.7.3,1.13c0,.48-.14.9-.43,1.26s-.66.61-1.11.76l1.83,3.14h-.73l-1.76-3.01s-.1.01-.15.01h-1.59v2.99h-.67ZM88.21,18.29h1.76c.28,0,.53-.07.76-.2.23-.13.41-.31.55-.55.14-.23.21-.5.21-.8,0-.46-.16-.84-.48-1.13-.32-.29-.72-.43-1.22-.43h-1.58v3.11Z"/>
    </g>
    <text/>
    <text/>
    <text/>
  </g>
</svg>