<svg width="134" height="24" viewBox="0 0 134 24" fill="none" xmlns="http://www.w3.org/2000/svg">
<path fill-rule="evenodd" clip-rule="evenodd" d="M5.81988 -0.000149258C9.51567 -0.0375033 12.0935 1.1018 13.1837 3.67923C13.3903 4.20914 13.539 4.76027 13.6272 5.32281C13.6734 5.57495 13.6365 5.82709 13.6827 6.09791C13.7196 6.34071 13.7104 6.77028 13.6734 7.01308C13.5995 7.48001 13.6087 7.92826 13.5256 8.35783C13.3408 9.25433 13.1745 10.1041 12.8788 10.8699C11.9364 13.2419 10.2271 15.3897 7.73245 16.1835C7.36287 16.3049 6.95633 16.3703 6.52208 16.4543L5.8476 16.501C5.55193 16.5477 5.1916 16.4917 4.94213 16.445C4.20297 16.3049 3.57469 16.1648 2.97412 15.9127C2.78933 15.8286 2.3828 15.7072 2.28116 15.5391C2.15181 15.3524 2.21649 14.8855 2.21649 14.5866L2.25344 12.9337L2.28116 12.1679L2.31812 11.4582L2.49367 9.59985C2.58607 9.02086 2.62302 8.4232 2.74314 7.86289C3.11272 6.22864 3.57469 4.69713 4.42472 3.56717C4.56331 3.3804 4.83126 3.37106 5.10844 3.32436C5.8476 3.20296 6.41121 3.41775 6.67915 3.85666C6.51284 4.17417 6.26337 4.45433 6.11554 4.80919C5.85469 5.42956 5.63251 6.06582 5.4503 6.71425C5.32095 7.14382 5.28399 7.59207 5.1916 8.06833C4.95137 9.25433 4.91441 10.5711 4.68342 11.7851C4.57255 12.3547 4.54483 12.9524 4.54483 13.5967C4.54483 13.9423 4.53559 14.3158 4.67418 14.5213C4.78506 14.68 4.97909 14.708 5.21007 14.7547C5.51498 14.8107 5.88456 14.7454 6.12478 14.6893C6.95633 14.5119 7.54766 14.2224 8.12975 13.8022C9.79285 12.6162 10.6706 10.7672 11.2434 8.47923C11.5022 7.45199 11.613 6.03254 11.2804 4.99596C11.0852 4.42199 10.7807 3.89218 10.3842 3.43643C10.2548 3.27767 10.0608 3.13759 9.89448 3.01619C9.33088 2.59596 8.68411 2.34382 7.8618 2.17573C7.40474 2.09118 6.93816 2.07232 6.47588 2.11969L5.62585 2.16639C5.02528 2.25977 4.45244 2.33448 3.93503 2.50257C3.33446 2.68934 2.71542 2.96016 2.36432 3.39907C2.16105 3.66055 1.99474 3.95938 1.80995 4.23954C1.56972 4.62242 1.29254 5.0053 1.00612 5.36016C0.895243 5.50958 0.553383 5.92047 0.26696 5.76172C0.0452123 5.64032 0.0636913 5.34149 0.0174939 5.03331C-0.0102245 4.87456 -0.00098501 4.6411 0.0174939 4.49168L0.0729307 3.97806C0.128368 3.66055 0.202283 3.35238 0.313157 3.08156C0.941441 1.47534 2.18877 0.672224 3.96275 0.214637C4.34156 0.121252 4.76658 0.093236 5.17312 0.0278663L5.81988 -0.000149258ZM32.1893 2.74538C33.2334 2.7267 34.0465 3.25899 33.7877 4.40763C33.7508 4.55705 33.7046 4.7158 33.6307 4.8372C33.2981 5.41619 32.4942 5.84577 31.5241 5.60296C30.6371 5.37884 30.2028 4.29557 30.8034 3.43643C31.0067 3.14693 31.3208 2.93215 31.6904 2.82008C31.8382 2.77339 32.0322 2.80141 32.1893 2.74538ZM50.4003 12.9057L50.0307 13.1018C49.7535 13.2979 49.5133 13.522 49.1253 13.6061C48.5432 13.7181 48.4046 12.5228 48.497 11.9251L48.5616 11.2808L48.885 9.17028C49.0606 8.3765 49.1622 7.58273 48.7002 7.00374C48.3399 6.54615 47.416 6.76094 47.0371 7.05043C46.6953 7.31191 46.529 7.74149 46.298 8.12436L45.6512 9.34771L45.3371 10.1695L45.0599 10.7018H44.8751C44.9121 10.515 44.9398 10.1602 44.9675 9.88935L45.0599 9.28234C45.2262 8.3765 45.605 6.49946 44.2099 6.73292L43.8957 6.81697C43.637 6.92903 43.4337 7.1625 43.3229 7.41464C43.212 7.66678 43.1843 7.97495 43.1104 8.26444C42.9533 8.93682 42.8794 9.66522 42.7593 10.3749L42.6669 11.2528L42.0109 12.2613C41.4103 13.1578 40.5788 14.2878 39.6086 14.7827L39.7657 13.0644C39.8396 12.6255 39.8026 12.1679 39.8858 11.757C39.9967 11.2154 40.126 10.7298 40.2369 10.2069L40.3108 9.57184L40.32 8.93682C40.4124 8.45121 40.3108 7.66678 40.0613 7.47067C39.7564 7.22787 39.2021 7.45199 38.8233 7.30257C38.3982 7.13448 38.4537 6.76094 37.8808 6.65822C37.1047 6.51814 36.2639 7.10647 35.8666 7.4053C34.7394 8.27378 34.2405 9.41308 33.6769 10.8512C33.4182 11.4956 33.1595 12.1399 33.1779 13.0458C32.7806 13.3072 32.4388 13.6341 31.9676 13.8209C31.8197 13.8862 31.5056 13.9423 31.3393 13.8489C31.0344 13.6621 31.0806 12.8216 31.1637 12.4014L31.4132 11.3368C31.4779 11.0193 31.5056 10.7205 31.598 10.4216L32.1154 8.666C32.2263 8.2551 32.6513 7.05043 32.1893 6.81697C31.6811 6.55549 30.748 6.93837 30.4523 7.15316C30.0642 7.45199 30.0365 8.12436 29.8794 8.64732L29.399 10.4123C29.2696 10.8139 29.1865 11.2341 29.0849 11.701L28.974 12.2987C28.706 12.4761 28.4011 12.6069 28.0962 12.7376C27.6712 12.9244 27.2647 13.1578 26.8859 13.382L26.9136 12.4107C26.969 12.0746 26.9875 11.5983 26.9136 11.2901L26.5532 9.94538C26.5255 9.81464 26.4424 9.46911 26.4886 9.30102C26.544 9.14226 26.7196 9.02086 26.8212 8.89012C27.1168 8.52592 27.5419 8.17106 27.6343 7.62942L27.625 7.39596C27.5326 6.83565 27.163 6.78896 26.6087 6.69557C26.3315 6.65822 26.082 6.7516 25.9157 6.82631C25.3059 7.08779 24.9548 7.68545 24.5852 8.18973C23.2732 9.93604 22.1275 11.729 20.2057 12.8683C19.6514 13.1929 19.0494 13.4262 18.4225 13.5594C18.1638 13.6154 17.7296 13.6341 17.4893 13.5407C17.1659 13.41 16.9442 13.1111 16.7964 12.8123C18.4779 12.3827 20.1041 11.1127 20.5291 9.45043C20.6492 9.00218 20.5661 8.44187 20.4275 8.09635C20.0579 7.18117 18.9307 6.44343 17.5632 6.78896C17.1382 6.90102 16.7871 7.07845 16.473 7.30257C15.2903 8.14304 14.736 9.73059 14.4218 11.4582C14.3109 12.0839 14.4957 12.8497 14.6343 13.3072C14.7732 13.8192 15.0372 14.2877 15.4021 14.6696C15.767 15.0514 16.221 15.3344 16.7224 15.4925C16.935 15.5578 17.1567 15.5858 17.3877 15.6232H17.6464C17.9513 15.6886 18.3486 15.6232 18.6258 15.5578C19.6565 15.3026 20.6289 14.8492 21.49 14.2224C21.5362 14.5306 21.684 14.7547 21.8411 14.9508C22.802 16.1835 25.5184 15.6512 26.9228 15.2123C27.2185 15.1189 27.5141 15.0162 27.7913 14.8948C28.1609 14.7454 28.512 14.5773 28.8631 14.4185C28.9647 15.2963 29.7963 15.8006 30.8681 15.6139C31.6165 15.4831 32.2817 15.2403 32.8546 14.9041L33.5937 14.4652L33.603 14.4465C33.9725 15.1469 35.0628 15.9314 36.2085 15.5672C36.5738 15.4409 36.9146 15.2513 37.2156 15.0069L37.5574 14.7174L37.3819 15.7633L36.9754 16.1181L36.3286 16.7812L35.9313 17.2014L35.0997 18.1539C34.7394 18.6302 34.453 19.1438 34.1388 19.6761C33.991 19.9283 33.8247 20.1804 33.7046 20.4606C33.5845 20.7314 33.4921 21.0209 33.4274 21.3384C33.1872 22.4123 33.6584 23.2714 34.2867 23.645C34.7124 23.8641 35.1824 23.9806 35.6601 23.9855C36.1378 23.9903 36.6101 23.8834 37.04 23.673C38.3151 23.0193 38.7955 21.6092 39.1004 19.9749L39.3591 17.743C39.4238 17.4069 39.4238 17.0613 39.5439 16.7905C39.6918 16.445 40.4586 16.0434 40.7913 15.8286C41.4473 15.4084 41.9739 14.8668 42.5006 14.3251L42.593 14.8388C42.7408 15.3057 43.1473 15.7913 43.8588 15.6139C43.9809 15.5858 44.0967 15.5351 44.2006 15.4644C44.524 15.231 44.8381 14.3998 45.0322 14.0076L46.8801 10.3283H47.0094L46.8431 11.5983C46.6781 12.6127 46.7317 13.6511 47.0002 14.6427C47.1295 15.0162 47.3051 15.4271 47.6469 15.5765C47.9518 15.7166 48.4785 15.6045 48.7557 15.5205C49.578 15.2683 50.3171 14.7641 51.0286 14.4185V12.4574C50.853 12.5788 50.5851 12.7843 50.4003 12.8963V12.9057ZM16.5839 11.3368C16.5839 10.3469 17.0458 9.09557 17.6187 8.70335C17.7942 8.58195 18.3578 8.32981 18.635 8.52592C18.9676 8.76872 19.0046 9.45977 18.7829 9.83331C18.4225 10.4497 17.5355 11.3462 16.5839 11.3368ZM24.0863 14.2224C23.9292 14.2598 23.6521 14.2784 23.4765 14.2318C23.1716 14.1477 23.0515 13.9329 22.8297 13.8209L22.4602 13.4473C22.6819 13.2792 22.9129 13.0551 23.0884 12.8403L23.2732 12.6535L23.2086 12.5882L23.1439 12.5135L24.7608 10.7952L24.8347 11.0193C24.8809 11.1781 24.9271 11.4302 24.8994 11.6637C24.8592 11.8475 24.8467 12.0364 24.8624 12.224C25.0195 13.1952 24.8532 13.9983 24.0863 14.2224ZM37.3727 18.3034L37.2433 19.3026C37.1292 20.2249 36.8102 21.1092 36.3101 21.8893C36.153 22.0761 35.728 22.3843 35.3307 22.2162C34.8965 22.0481 35.303 21.1703 35.4047 20.9088C35.7465 20.0683 36.19 19.2932 36.6982 18.6302L37.1324 18.1633L37.3911 17.9485C37.4281 17.9952 37.3911 18.2286 37.3727 18.3034ZM37.5574 11.4115L37.5112 11.9251C37.4189 12.336 37.3172 12.7002 37.1694 13.0458C37.0123 13.3913 36.5965 14.129 35.996 13.8862C35.4231 13.6528 35.303 12.4668 35.5155 11.6917C35.6634 11.1314 35.9498 10.6364 36.2085 10.1788C36.5503 9.59051 36.8552 8.99285 37.4096 8.62864C37.539 8.55394 37.6868 8.51658 37.8439 8.46989L38.1026 8.46055H38.2319L37.5574 11.4115Z" fill="#4A3241"/>
<path fill-rule="evenodd" clip-rule="evenodd" d="M84.7616 7.71363V13.3354C85.5193 13.3354 86.591 13.4195 87.2008 13.242C88.1987 12.9712 88.827 12.3269 89.1227 11.337C89.1781 11.1315 89.1689 10.9167 89.2151 10.6646C89.2705 10.2817 89.1781 9.82413 89.0857 9.53464C88.9598 9.15713 88.7621 8.80816 88.5036 8.5074C88.4112 8.386 88.2726 8.30195 88.1525 8.21791C87.3117 7.6109 86.1845 7.71363 84.7616 7.71363ZM116.324 12.3362C116.361 14.2879 115.159 15.2685 113.644 15.6607C111.796 16.1463 109.634 15.642 108.47 14.895C108.156 14.7082 107.786 14.4841 107.574 14.2039L108.96 12.2148L109.061 12.3269L109.302 12.5323L109.884 12.9432C110.527 13.3084 111.244 13.5192 111.981 13.5595C112.674 13.6809 113.764 13.3167 113.644 12.663C113.552 12.1307 112.859 12.0467 112.351 11.916C111.057 11.5985 109.838 11.449 108.932 10.758C108.459 10.3671 108.122 9.83411 107.969 9.2363C107.816 8.63848 107.856 8.00698 108.082 7.43347C108.38 6.71796 108.916 6.13007 109.597 5.77122C110.004 5.52841 110.521 5.40701 111.057 5.30429L111.833 5.23892C113.219 5.22024 114.346 5.54709 115.206 6.06071C115.483 6.2288 115.88 6.43425 116.074 6.67705V6.69573L114.651 8.56343L114.476 8.43269L113.995 8.11518C113.829 8.0218 113.663 7.95643 113.487 7.88172C112.803 7.60157 110.761 7.06927 110.577 8.17122C110.531 8.43269 110.715 8.56343 110.854 8.65682C111.242 8.90896 111.796 8.99301 112.314 9.12374C113.663 9.45993 115.012 9.71207 115.751 10.6553C115.92 10.8704 116.057 11.1095 116.157 11.365L116.25 11.7105H116.259M60.6651 5.39767H63.3445V11.0755C63.3445 11.3557 63.3168 11.6451 63.3723 11.8879C63.5663 12.8405 64.1114 13.2887 65.0908 13.4755C65.331 13.5128 65.6821 13.5128 65.9224 13.4755C66.7354 13.3167 67.2159 12.9245 67.4931 12.2241C67.6594 11.7759 67.6039 11.0568 67.6039 10.4498V7.05059L67.6132 5.39767H70.2649V10.0856C70.2649 11.1409 70.3019 12.2335 70.0616 13.0179C69.8873 13.5921 69.5801 14.116 69.1656 14.5463C68.751 14.9767 68.2411 15.3011 67.6779 15.4926C67.1789 15.6794 66.6338 15.7167 66.0148 15.8195L65.6267 15.8288C65.1924 15.8942 64.4718 15.7914 64.1207 15.7074C62.2728 15.2965 61.1825 14.3907 60.7575 12.551C60.6466 12.0841 60.6651 11.5237 60.6651 10.9448V5.39767ZM71.5954 5.39767H73.5449C73.7297 5.39767 74.1917 5.36032 74.3118 5.42569L78.3772 11.0288H78.3864L78.3956 5.39767H81.0381L81.0289 15.6514H79.2364C79.0516 15.6514 78.6174 15.6981 78.4788 15.642L74.2102 9.74009L74.2009 15.6514H71.5769V5.39767H71.5954ZM82.1376 5.39767H85.4823C86.3878 5.39767 87.2748 5.38834 87.9954 5.57511C88.8097 5.73241 89.5703 6.09838 90.2045 6.63798C90.8387 7.17758 91.3251 7.87272 91.6173 8.65682C91.7651 9.05837 91.8113 9.49729 91.8945 9.96421C91.9222 10.151 91.9407 10.4405 91.9037 10.6459C91.8668 10.8981 91.9037 11.1222 91.8575 11.3557C91.7722 11.8532 91.6295 12.339 91.4325 12.8031C90.7673 14.3253 89.4276 15.1844 87.6074 15.558C86.8682 15.7074 85.9258 15.6514 85.0573 15.6514H82.1284L82.1376 5.39767ZM95.1653 13.3354H99.2491V15.6514H92.532L92.5413 5.39767H95.1653V13.3354ZM102.585 7.71363V9.30118H107.315L107.306 11.6171H102.594V13.3354H107.417V15.6514H99.9606V5.39767H107.417V7.71363H102.585ZM50.9821 5.35098H55.0105C57.0617 5.35098 58.3737 5.2576 59.2422 6.49962C59.7596 7.22802 59.889 8.46071 59.3716 9.31051C59.1689 9.63835 58.8897 9.91091 58.5585 10.1043C58.4291 10.179 58.115 10.2444 58.0134 10.3191C58.3645 10.3378 58.6786 10.5432 58.9004 10.7113C59.3217 11.0442 59.6348 11.4969 59.7995 12.0111C59.9641 12.5254 59.9728 13.0776 59.8243 13.5969C59.7314 13.9319 59.5813 14.2479 59.3808 14.5307C58.9871 15.0335 58.4312 15.3806 57.8101 15.5113C57.3297 15.6327 56.7014 15.6047 56.1008 15.6047H50.9729M53.6061 7.68561V9.36655H55.6388C56.147 9.36655 56.5443 9.38522 56.803 9.13308C56.897 9.0397 56.9672 8.92459 57.0075 8.7977C57.0477 8.6708 57.0568 8.53592 57.034 8.40468C57.0166 8.2679 56.9651 8.13785 56.8843 8.02675C56.8035 7.91566 56.696 7.82718 56.572 7.76966C56.3225 7.6576 55.916 7.68561 55.5464 7.68561H53.6061ZM53.6061 11.6265V13.4568H55.6573C56.2486 13.4568 56.6459 13.4848 56.9693 13.214C57.0712 13.1209 57.1496 13.0045 57.1978 12.8746C57.246 12.7446 57.2627 12.6048 57.2465 12.4669C57.1726 12.0841 57.0063 11.8413 56.6921 11.7105C56.4427 11.5985 56.0176 11.6265 55.6481 11.6265H53.6061Z" fill="#4A3241"/>
<path fill-rule="evenodd" clip-rule="evenodd" d="M120.056 7.6389C120.371 7.6389 121.165 7.54551 121.387 7.65757L123.327 10.3471H123.355V7.6389H124.63V12.5977C124.436 12.5977 123.475 12.6443 123.392 12.5696L121.331 9.7494V12.5977H120.056V7.6389ZM125.711 7.6389H129.314V8.75952H126.986V9.51594H129.259V10.6366H126.986V11.477H129.314V12.5977H125.711V7.6389ZM129.98 7.6389H133.999V8.75952H132.622V12.5977H131.356V8.75952H129.98V7.6389ZM118.319 11.2903C118.496 11.2771 118.672 11.3321 118.81 11.4444C118.949 11.5566 119.04 11.7176 119.066 11.8951C119.091 12.0726 119.05 12.2533 118.949 12.401C118.848 12.5486 118.696 12.6523 118.523 12.691C118.014 12.7844 117.58 12.2708 117.756 11.7759C117.848 11.4864 118.051 11.4023 118.319 11.2903Z" fill="#4A3241"/>
</svg>