<svg width="361" height="64" viewBox="0 0 361 64" fill="none" xmlns="http://www.w3.org/2000/svg">
<path fill-rule="evenodd" clip-rule="evenodd" d="M15.6769 -0.0020876C25.6334 -0.101659 32.5781 2.93527 35.5402 9.80571C36.1127 11.125 36.4114 12.5688 36.7101 14.2117C36.8346 14.8839 36.735 15.556 36.8595 16.2779C36.959 16.9251 36.9341 18.0701 36.8346 18.7174C36.6354 19.9371 36.6603 21.132 36.4363 22.3019C35.9634 24.6916 35.4904 26.9569 34.6939 28.9981C32.1799 35.3209 27.575 41.0463 20.8543 43.1622C19.8338 43.4858 18.7634 43.66 17.5935 43.884C16.9961 43.9338 16.3738 43.9587 15.7765 44.0085C14.9799 44.133 13.9843 43.9836 13.3371 43.8592C11.3458 43.4858 9.65317 43.1373 8.03523 42.4403C7.51251 42.2162 6.44218 41.8677 6.16837 41.4445C5.84478 40.9467 5.99413 39.6772 5.99413 38.9055C6.01902 37.4368 6.06881 35.9681 6.0937 34.4994C6.11859 33.8273 6.14348 33.1303 6.16837 32.4582C6.19326 31.8359 6.21815 31.1887 6.24305 30.5664C6.39239 28.9234 6.54174 27.2805 6.71598 25.6127C6.98979 24.0693 7.08935 22.4762 7.41294 20.9826C8.38371 16.6264 9.62828 12.5439 11.9183 9.50699C12.2917 9.03403 13.0135 9.00913 13.7602 8.88467C15.7765 8.56106 17.2948 9.1336 17.9918 10.3036C17.5437 11.1499 16.8717 11.8967 16.4734 12.8177C15.7516 14.4109 15.2288 16.1285 14.6812 17.8959C14.3328 19.041 14.2332 20.2358 13.9843 21.4805C13.3371 24.6668 13.2126 28.1766 12.6152 31.4127C12.3414 32.9312 12.2668 34.5243 12.2668 36.217C12.2668 37.1381 12.2419 38.1338 12.6152 38.6814C12.9139 39.1295 13.4367 39.2042 14.0589 39.3038C14.8804 39.4531 15.8511 39.2789 16.4983 39.1295C18.7385 38.6565 20.3316 37.86 21.8997 36.7647C26.3802 33.6033 28.7449 28.6745 30.2881 22.5757C30.9851 19.8624 31.2589 16.0787 30.3877 13.2907C29.865 11.598 28.944 10.3533 27.9732 9.15849C27.6248 8.71042 27.102 8.36192 26.654 8.01342C25.1356 6.91813 23.3932 6.22113 21.1779 5.77306C20.3067 5.59881 18.4647 5.42456 17.4442 5.59881C16.6725 5.67349 15.9258 5.72327 15.1542 5.77306C13.5113 6.04688 11.993 6.24602 10.599 6.6692C8.9811 7.19195 7.31338 7.88895 6.3675 9.05892C5.81989 9.75592 5.37185 10.5276 4.89891 11.2993C4.22684 12.3448 3.4801 13.3405 2.73336 14.2864C2.40977 14.6847 1.48879 15.7551 0.717156 15.3568C0.119762 15.0332 0.169545 14.2366 0.045088 13.4152C-0.0295862 12.992 -0.00469481 12.3697 0.0699794 11.9714C0.119762 11.5233 0.144654 11.0503 0.194436 10.6023C0.368676 9.75592 0.567807 8.93445 0.841613 8.23745C2.53423 3.93099 5.89457 1.7902 10.6737 0.570449C11.7192 0.296627 12.8393 0.271734 13.9594 0.0974839C14.5319 0.0476982 15.1044 0.0228053 15.6769 -0.0020876Z" fill="white"/>
<path fill-rule="evenodd" clip-rule="evenodd" d="M86.7242 7.31535C89.5369 7.26557 91.7522 8.68446 91.0304 11.7214C90.9308 12.1197 90.8064 12.5429 90.6321 12.8665C89.736 14.4098 87.5456 15.5549 84.9569 14.9077C82.5424 14.3102 81.3974 11.3978 83.0154 9.13253C83.563 8.36085 84.3844 7.78832 85.4049 7.4896C85.7783 7.39003 86.301 7.46471 86.7242 7.31535Z" fill="white"/>
<path fill-rule="evenodd" clip-rule="evenodd" d="M135.782 34.3961C135.433 34.5703 135.11 34.7695 134.761 34.9437C134.039 35.4665 133.392 36.0639 132.347 36.263C130.779 36.5617 130.405 33.3755 130.654 31.8072C130.704 31.2347 130.779 30.6621 130.828 30.0896C131.127 28.2226 131.401 26.3308 131.7 24.4638C132.173 22.3479 132.471 20.232 131.202 18.6887C130.231 17.4938 127.742 18.0663 126.721 18.8131C125.8 19.5101 125.327 20.6801 124.73 21.7007C124.157 22.796 123.56 23.8664 122.987 24.9617C122.688 25.7085 122.415 26.4055 122.116 27.1273C121.867 27.6003 121.618 28.0484 121.344 28.5462C121.195 28.5462 121.045 28.5462 120.871 28.5462C120.946 28.0484 121.045 27.1273 121.12 26.4055C121.195 25.8578 121.269 25.3351 121.319 24.7874C121.767 22.3728 122.813 17.3942 119.029 17.9917C118.755 18.0663 118.457 18.141 118.183 18.2157C117.511 18.5144 116.938 19.1367 116.639 19.8088C116.341 20.481 116.266 21.3024 116.067 22.0741C115.619 23.8664 115.445 25.7831 115.121 27.6999C115.046 28.4716 114.947 29.2681 114.872 30.0398C114.275 30.936 113.702 31.8321 113.105 32.7282C111.511 35.118 109.271 38.13 106.657 39.4493C106.807 37.9309 106.931 36.4124 107.081 34.8939C107.28 33.724 107.18 32.5042 107.404 31.4089C107.703 29.9651 108.051 28.6956 108.35 27.2767C108.425 26.7042 108.475 26.1316 108.549 25.584C108.574 25.0115 108.574 24.4638 108.599 23.8913C108.823 22.572 108.574 20.481 107.902 19.9831C107.081 19.3359 105.587 19.9084 104.541 19.5101C103.396 19.0621 103.546 18.0912 102.002 17.8174C99.9114 17.444 97.6461 19.0123 96.5757 19.8088C93.5388 22.1239 92.1946 25.1608 90.6761 28.9694C90.004 30.687 89.2821 32.4046 89.3568 34.8192C88.2864 35.5162 87.3654 36.4124 86.0958 36.9102C85.6975 37.0596 84.8263 37.2339 84.4031 36.9849C83.5816 36.4871 83.7061 34.2467 83.9301 33.1265C84.1542 32.1806 84.3782 31.2347 84.5774 30.2887C84.7516 29.4424 84.8263 28.6209 85.0752 27.8492C85.5482 26.281 86.0211 24.7127 86.4941 23.1694C86.7928 22.099 87.9379 18.8878 86.6933 18.2406C85.3241 17.5436 82.81 18.5642 82.0383 19.1367C80.9928 19.9333 80.9181 21.7256 80.4949 23.1445C80.0469 24.7127 79.6237 26.2561 79.1756 27.8243C78.8271 28.9196 78.6031 30.0398 78.3293 31.2845C78.2297 31.8072 78.1301 32.3549 78.0305 32.8776C77.3086 33.3257 76.4623 33.6742 75.6657 34.0227C74.5206 34.5205 73.4254 35.1429 72.4047 35.7403C72.4296 34.869 72.4794 33.1514 72.4794 33.1514C72.4794 33.1514 72.4296 30.7368 72.2056 29.8905C71.882 28.6956 71.8322 27.7497 71.5086 26.5548C71.4339 26.2312 71.2099 25.2853 71.3344 24.8621C71.4588 24.414 71.9567 24.0904 72.2305 23.7668C73.0022 22.796 74.1721 21.8501 74.4211 20.4063C74.3962 20.2071 74.3962 19.9831 74.3713 19.784C74.1224 18.2904 73.1515 18.1908 71.6331 17.9419C70.9112 17.8174 70.2142 18.0912 69.7661 18.2904C68.1232 18.9874 67.2021 20.5805 66.1815 21.9247C62.6467 26.5797 59.56 31.3591 54.3823 34.3961C52.9634 35.2175 51.4201 35.815 49.6029 36.2132C48.881 36.3626 47.7359 36.4373 47.0638 36.1635C46.2174 35.8399 45.62 35.0184 45.1968 34.2218C49.7273 33.0767 54.1085 29.6913 55.2536 25.2355C55.5523 24.0406 55.3282 22.5471 54.9548 21.6509C53.9591 19.2114 50.9222 17.2449 47.2381 18.1908C46.1179 18.4646 45.1471 18.9376 44.3256 19.535C41.1393 21.8003 39.6208 26.0321 38.7994 30.6124C38.5007 32.2802 38.9985 34.3214 39.3719 35.5411C40.268 38.4038 42.135 40.4948 44.9977 41.391C45.5453 41.5652 46.1428 41.615 46.7651 41.7395C46.9891 41.7395 47.2381 41.7644 47.4621 41.7644C48.3084 41.9137 49.3788 41.7395 50.1007 41.5652C53.2621 40.8682 55.5274 39.524 57.8175 38.0055C57.942 38.827 58.3403 39.3995 58.7635 39.9472C61.3523 43.2081 68.6708 41.8141 72.4296 40.6442C73.2511 40.3952 74.0477 40.1214 74.7945 39.7978C75.8151 39.3746 76.7361 38.9515 77.682 38.5034C77.9559 40.8433 80.1962 42.2124 83.0838 41.6897C85.1001 41.3412 86.8924 40.694 88.4109 39.7978C89.083 39.3995 89.7302 39.0012 90.4023 38.6279C90.4272 38.603 90.4272 38.603 90.4521 38.5781C91.4478 40.445 94.3852 42.536 97.447 41.5652C98.4925 41.2416 99.3886 40.694 100.16 40.0965C100.459 39.8227 100.783 39.5738 101.081 39.3C100.932 40.221 100.783 41.1669 100.608 42.088C100.235 42.4116 99.8865 42.7103 99.5131 43.0339C98.9405 43.6313 98.3431 44.2039 97.7706 44.8013C97.4221 45.1747 97.0487 45.5481 96.7002 45.9215C95.9534 46.7678 95.2066 47.6142 94.4598 48.4605C93.489 49.7301 92.7173 51.0992 91.871 52.5181C91.4727 53.1902 91.0246 53.8623 90.701 54.6091C90.3774 55.331 90.1285 56.1026 89.9293 56.949C89.307 59.8117 90.5517 62.1267 92.2444 63.1224C92.8916 63.4958 93.6633 63.7199 94.4847 63.8941C96.3766 64.3173 98.4178 63.8194 99.6873 63.1722C103.123 61.4297 104.417 57.6709 105.238 53.3146C105.462 51.3481 105.711 49.3567 105.935 47.3901C106.085 46.494 106.11 45.573 106.408 44.8511C106.807 43.93 108.873 42.8596 109.794 42.2871C111.561 41.1669 112.98 39.7231 114.399 38.2794C114.474 38.7274 114.573 39.2004 114.648 39.6485C115.046 40.918 116.166 42.2124 118.058 41.7395C118.382 41.6648 118.73 41.5154 118.954 41.3412C119.826 40.7189 120.672 38.5034 121.22 37.433C122.863 34.1471 124.53 30.8613 126.173 27.6252C126.298 27.6252 126.422 27.6252 126.522 27.6252C126.372 28.8698 126.223 29.8905 126.049 31.0106C125.601 33.475 125.775 37.1343 126.472 39.1257C126.821 40.1214 127.294 41.2167 128.215 41.615C129.036 41.9884 130.43 41.6897 131.202 41.4656C133.417 40.7935 135.409 39.4493 137.325 38.5283L137.35 33.3008C137.002 33.5248 136.28 34.0725 135.782 34.3961ZM44.6741 30.2141C44.6741 27.5505 45.8938 24.2398 47.4621 23.1943C47.9351 22.8707 49.4535 22.1737 50.2003 22.7213C51.0716 23.3685 51.196 25.2106 50.5986 26.1814C49.6278 27.8492 47.2381 30.239 44.6741 30.2141ZM66.7043 28.7703C66.8287 28.9694 66.8287 28.9943 66.9034 29.3677L67.0777 31.0853C67.0777 31.0853 67.1524 32.1059 67.2519 32.6038C67.6751 35.1677 66.9781 37.3334 64.912 37.906C64.4888 38.0304 63.742 38.0802 63.2691 37.9557C62.4476 37.7317 61.9248 37.1841 61.5266 36.8605C61.203 36.512 60.8545 36.1884 60.5308 35.8399C60.7798 35.4665 61.9746 33.9729 61.9746 33.9729C61.9746 33.9729 65.2605 30.2887 66.7043 28.7703ZM100.683 48.7841C100.559 49.6554 100.459 50.5515 100.335 51.4228C99.8865 53.9121 99.1148 56.6752 97.7955 58.3181C97.3972 58.816 96.2521 59.6374 95.1568 59.1894C93.9869 58.7413 95.0822 56.4014 95.356 55.7044C96.277 53.464 97.4719 51.3979 98.8659 49.6305C99.2393 49.2322 99.6375 48.809 100.011 48.4108C100.26 48.2116 100.484 48.0125 100.733 47.8133C100.832 47.9627 100.708 48.585 100.683 48.7841ZM101.38 30.0647C101.38 30.0647 101.081 31.3094 101.056 31.7823C100.832 32.8776 100.534 33.8733 100.135 34.7695C99.7371 35.6905 98.592 37.657 96.9989 37.0098C95.4555 36.3875 95.1319 33.2261 95.6796 31.1849C96.0779 29.6913 96.8495 28.372 97.5465 27.1522C98.4676 25.584 99.2642 23.9908 100.808 23.02C101.131 22.8209 101.529 22.7213 101.953 22.5968C102.177 22.5471 102.426 22.5471 102.65 22.5471C102.774 22.5471 102.899 22.5471 102.998 22.5471C102.401 25.0115 101.38 30.0647 101.38 30.0647Z" fill="white"/>
<path fill-rule="evenodd" clip-rule="evenodd" d="M228.356 20.5593C228.356 25.5379 228.356 30.5414 228.356 35.5449C230.397 35.5449 233.285 35.7689 234.927 35.3208C237.616 34.574 239.309 32.8564 240.105 30.2427C240.279 29.6701 240.255 29.1225 240.354 28.4504C240.528 27.4049 240.255 26.21 240.006 25.4135C239.657 24.2933 239.085 23.4718 238.412 22.6503C238.164 22.3516 237.815 22.1276 237.491 21.9036C235.226 20.2855 232.189 20.5593 228.356 20.5593ZM313.39 32.8813C313.464 38.0839 310.253 40.6977 306.146 41.7681C301.192 43.0625 295.367 41.6934 292.206 39.7269C291.385 39.2041 290.389 38.6316 289.791 37.8848C291.036 36.1174 292.281 34.35 293.525 32.5826C293.625 32.6822 293.724 32.7817 293.824 32.8813C294.048 33.0556 294.247 33.2547 294.446 33.429C294.969 33.8024 295.492 34.1508 296.039 34.5242C297.16 35.1964 298.454 35.6444 299.898 35.968C300.495 36.0427 301.068 36.1174 301.665 36.1672C303.532 36.4659 306.47 35.52 306.171 33.7775C305.922 32.3586 304.055 32.1345 302.686 31.8109C299.201 30.9397 295.915 30.5663 293.451 28.6993C291.26 27.0564 289.766 23.3971 291.16 19.8374C291.982 17.7962 293.451 16.452 295.243 15.4065C296.338 14.7593 297.707 14.4606 299.176 14.1619C299.873 14.1121 300.57 14.0374 301.267 13.9876C305.001 13.9378 308.038 14.8091 310.353 16.1782C311.1 16.6263 312.17 17.1739 312.693 17.8211C312.693 17.846 312.693 17.846 312.693 17.8709C311.423 19.5387 310.129 21.2066 308.859 22.8744C308.71 22.7499 308.561 22.6254 308.386 22.5259C307.963 22.2521 307.515 21.9533 307.067 21.6795C306.644 21.4306 306.171 21.2563 305.698 21.0572C303.856 20.3104 298.355 18.8915 297.882 21.8289C297.757 22.5259 298.255 22.8744 298.628 23.1233C299.674 23.7954 301.192 24.0195 302.561 24.368C306.196 25.2641 309.83 25.9362 311.797 28.4504C312.245 28.998 312.618 29.6203 312.892 30.3422C312.992 30.641 313.066 30.9646 313.166 31.2633H313.191M163.435 14.3859C165.825 14.3859 168.239 14.4108 170.629 14.4108C170.629 18.1945 170.629 22.0031 170.629 25.7868C170.629 27.0315 170.629 28.2512 170.629 29.4959C170.629 30.2427 170.579 31.0392 170.704 31.6616C171.227 34.2006 172.695 35.4204 175.334 35.8934C175.956 35.9929 176.927 36.0178 177.574 35.8934C179.765 35.4702 181.059 34.4496 181.806 32.5826C182.279 31.3877 182.13 29.471 182.13 27.853C182.13 24.8409 182.13 21.8289 182.13 18.8168C182.13 17.3482 182.155 15.8795 182.155 14.4108C184.544 14.4108 186.934 14.4357 189.299 14.4357C189.299 18.5928 189.299 22.7499 189.299 26.907C189.299 29.7199 189.398 32.6324 188.726 34.7234C187.681 38.0341 185.44 40.0754 182.304 41.2951C180.96 41.8179 179.491 41.8925 177.823 42.1664C177.475 42.1664 177.126 42.1912 176.778 42.1912C175.633 42.3655 173.691 42.0917 172.72 41.8676C167.767 40.7724 164.804 38.3329 163.659 33.4538C163.36 32.2092 163.41 30.6907 163.41 29.1723C163.41 27.2804 163.41 25.3886 163.41 23.4967C163.435 20.4598 163.435 17.4228 163.435 14.3859ZM192.883 14.3859C194.651 14.3859 196.418 14.3859 198.186 14.3859C198.683 14.3859 199.928 14.2863 200.227 14.4606C203.886 19.4392 207.545 24.3928 211.205 29.3714H211.229C211.229 24.3679 211.254 19.3645 211.254 14.3859C213.619 14.3859 215.984 14.4108 218.374 14.4108C218.374 23.5216 218.349 32.6324 218.349 41.7432C216.731 41.7432 215.138 41.7432 213.52 41.7432C213.022 41.7432 211.852 41.8676 211.503 41.6934C207.67 36.441 203.836 31.2135 200.003 25.9611H199.978C199.978 31.2135 199.953 36.4659 199.953 41.7432C197.588 41.7432 195.248 41.7183 192.883 41.7183C192.859 32.6075 192.859 23.4967 192.883 14.3859ZM221.286 14.3859C224.298 14.3859 227.285 14.3859 230.297 14.3859C232.737 14.3859 235.127 14.361 237.068 14.8589C241.947 16.1035 245.109 18.7173 246.826 23.0984C247.225 24.1439 247.349 25.289 247.573 26.5585C247.673 27.0813 247.698 27.853 247.623 28.3757C247.523 29.0478 247.623 29.6452 247.498 30.2676C247.225 31.7113 246.876 32.956 246.353 34.126C244.561 38.2084 240.952 40.4985 236.048 41.4942C234.056 41.8925 231.517 41.7432 229.177 41.7432C226.563 41.7432 223.925 41.7183 221.311 41.7183C221.286 32.6075 221.286 23.4967 221.286 14.3859ZM256.385 35.5449C260.044 35.5449 263.729 35.5697 267.388 35.5697C267.388 37.6359 267.363 39.6771 267.363 41.7432C261.339 41.7432 255.315 41.7183 249.291 41.7183C249.291 32.6075 249.316 23.4967 249.316 14.3859C251.68 14.3859 254.02 14.4108 256.385 14.4108C256.385 21.4555 256.385 28.5002 256.385 35.5449ZM276.374 20.5593C276.374 21.9533 276.374 23.3722 276.374 24.7662C280.606 24.7662 284.863 24.7911 289.094 24.7911C289.094 26.8572 289.069 28.8985 289.069 30.9646C284.838 30.9646 280.606 30.9646 276.374 30.9646C276.374 32.483 276.374 34.0264 276.374 35.5449C280.705 35.5449 285.062 35.5697 289.393 35.5697C289.393 37.6359 289.368 39.6771 289.368 41.7432C282.672 41.7432 275.976 41.7183 269.28 41.7183C269.28 32.6075 269.305 23.4967 269.305 14.3859C276.001 14.3859 282.697 14.4108 289.393 14.4108C289.393 16.4769 289.368 18.5181 289.368 20.5842C285.062 20.5593 280.73 20.5593 276.374 20.5593ZM137.347 14.2614C140.957 14.2614 144.591 14.2614 148.226 14.2614C153.752 14.2614 157.262 14.0125 159.627 17.3233C161.021 19.2898 161.394 22.5508 159.975 24.8409C159.427 25.7122 158.681 26.4341 157.809 26.9319C157.461 27.1311 156.614 27.3053 156.341 27.5293C157.287 27.5542 158.133 28.1268 158.73 28.55C160.572 29.8942 162.191 32.956 161.22 36.2419C160.946 37.1878 160.548 38.0092 160.05 38.7311C159.079 40.0256 157.61 40.8968 155.818 41.3698C154.523 41.6934 152.831 41.6187 151.213 41.6187C148.773 41.6187 146.309 41.6187 143.869 41.6187C141.704 41.6187 139.563 41.5938 137.397 41.5938M144.417 20.4847C144.417 21.9782 144.417 23.4967 144.417 24.9903C146.234 24.9903 148.051 24.9903 149.893 24.9903C151.287 24.9903 152.358 25.0152 153.03 24.3431C153.403 23.9697 153.826 23.2727 153.652 22.4014C153.503 21.6048 153.08 21.0074 152.433 20.7087C151.736 20.41 150.64 20.4847 149.644 20.4847C147.902 20.4847 146.159 20.4847 144.417 20.4847ZM144.417 30.9895C144.417 32.6075 144.417 34.2504 144.417 35.8685C146.259 35.8685 148.101 35.8685 149.943 35.8685C151.536 35.8685 152.607 35.9182 153.478 35.2212C153.901 34.8976 154.349 34.0513 154.2 33.2049C154.026 32.1843 153.553 31.562 152.756 31.2135C152.059 30.9148 150.914 31.0143 149.918 31.0143C148.076 30.9895 146.259 30.9895 144.417 30.9895Z" fill="white"/>
<path fill-rule="evenodd" clip-rule="evenodd" d="M323.45 20.3628C324.297 20.3628 326.413 20.1387 327.035 20.4374C328.777 22.8272 330.52 25.2169 332.262 27.6066C332.287 27.6066 332.312 27.6066 332.337 27.6066C332.337 25.192 332.337 22.7774 332.337 20.3877C333.482 20.3877 334.627 20.3877 335.772 20.3877C335.772 24.7937 335.772 29.1997 335.772 33.6307C335.249 33.6307 332.66 33.7551 332.436 33.556C330.594 31.0418 328.727 28.5276 326.861 26.0134C326.861 28.5525 326.861 31.0916 326.861 33.6058C325.716 33.6058 324.571 33.6058 323.426 33.6058C323.45 29.1748 323.45 24.7688 323.45 20.3628Z" fill="white"/>
<path fill-rule="evenodd" clip-rule="evenodd" d="M338.678 20.3624C341.914 20.3624 345.15 20.3624 348.386 20.3624C348.386 21.3581 348.386 22.3539 348.386 23.3496C346.295 23.3496 344.204 23.3496 342.113 23.3496C342.113 24.0217 342.113 24.7187 342.113 25.3908C344.154 25.3908 346.195 25.3908 348.261 25.3908C348.261 26.3865 348.261 27.3822 348.261 28.3779C346.22 28.3779 344.179 28.3779 342.113 28.3779C342.113 29.1247 342.113 29.8715 342.113 30.6183C344.204 30.6183 346.295 30.6183 348.386 30.6183C348.386 31.614 348.386 32.6097 348.386 33.6054C345.15 33.6054 341.914 33.6054 338.678 33.6054C338.678 29.1745 338.678 24.7685 338.678 20.3624Z" fill="white"/>
<path fill-rule="evenodd" clip-rule="evenodd" d="M350.181 20.3624C353.79 20.3624 357.399 20.3624 361.009 20.3624C361.009 21.3581 361.009 22.3539 361.009 23.3496C359.764 23.3496 358.544 23.3496 357.3 23.3496C357.3 26.7599 357.3 30.1702 357.3 33.6054C356.155 33.6054 355.01 33.6054 353.865 33.6054C353.865 30.1951 353.865 26.7848 353.865 23.3496C352.62 23.3496 351.401 23.3496 350.156 23.3496C350.181 22.3539 350.181 21.3581 350.181 20.3624Z" fill="white"/>
<path fill-rule="evenodd" clip-rule="evenodd" d="M318.767 30.0958C321.43 30.0211 321.555 33.4066 319.314 33.8298C317.97 34.0787 316.8 32.7096 317.248 31.3903C317.497 30.5937 318.045 30.4194 318.767 30.0958Z" fill="white"/>
</svg>
